<svg xmlns="http://www.w3.org/2000/svg" width="3378.594" height="5317.875"><path stroke="#9FAEC0" stroke-width="10" d="m306.75 0-.437 2.875 2.5 4.906.5.907 10 20.687 7.093 9.688 5.188 7.125 4.594 9 3.625 9.593 4.687 12.094 6.594 11.094 7.219 7.5 7.593 8.594 8 6.812 8 4.313 9.594 4.875 8.906 2.5-1 9.406-4.5 42-2 15.594-3 26.218-3.406 32.188-15.812 116.906-4.782 35.906-2.094 13.094-7.406 57-13.5 103.813-2.719 24.687-15.875 140.688-2.218 19.218-14.594 128.72h2524.688l-1.782-11.626L2817 803.281l-26.406-144.406-22.688-120.094-13.312-70.718-5.188-28.094-2.312-12-37.282-197.188-10.406-65.812L2678 28.469l-221.187-1.906H2441l-407.187-1.188h-7.126l-91.78 1.594-273.594-1.5-59-.406-48.626.125h-43.593l-297.688-9.5-11.906-.407-4.906-.218-348.281-7.594-9-.188-142-2.812-42.22-.906-13.687-.282L503.5.563l-84.406-.5L417.313 0z" style="fill:#9faec0" transform="translate(0 125)"/><path stroke="#9FAEC0" stroke-width="10" d="m307.5 888-1.5 13.281-13.594 115.094-4.094 33.813-1.718 14.375-22.5 162.718-20.188 165-.718 5.907-18.782 159.593-8.5 73.094-10.718 91.094-6.094 54.062h2789.125l-3.907-23.156-4.624-27.594-5.782-32.906-31.312-176.594-2.094-12.093-35.187-204.313-11.72-66.094-13-74-12.687-72.593-10-55.907-23.406-131.406-1.812-8-.5-3.375z" style="fill:#9faec0" transform="translate(0 100)"/><path stroke="#9FAEC0" stroke-width="10" d="m199.094 1776.031-13 114.938-1.094 9.594-1.906 15.125-2 18.093-14.406 120.688-19.5 168.094-1.094 9.218-8.594 70.782-10.5 86.312-18.5 161.313-13.75 113.875h3101.938l-.188-1.375.313-3.125.093-1.5-.406-5.5-1.5-3.094-2.094-2.5-3.093-2.781-1-1.813-1-3.5 1.093-3.312 2-3.094 1.5-2.188-.093-1.406-1.407-1.594-2.593-1-3.313.407-2.812-.407-2.376-1.5-2.218-.5-1.907-.812-2.093-1.5-1.094-2 .5-2.781 1.594-4 4.593-5 6.626-4.125-.313-5.782-1.187-5.5-2.126-3.906-5.5-6.406-7.78-8.188-3.407-5.093-2.312-7-2.376-9-1.718-6-.907-3.813-.5-4.687-.093-3.5.906-2.625 1.812-1.782 2-4 1-5.093-1-4.5-2-3.625-4.625-3.594-7.28-2.281-8.72-.72-1.187-3.5-.688-2.5-1.5-3-1.625-3.5-1-3.093.5-3 1.625-3 2.5-2.094 3.5-2.593 3.188-1.407 3.812-1.906 2.5-1.594 1.5-2.593-.625-2.5-2.593-1.5-3.094-1.5-4.188-2.22-3.218-1.905-1.782-1.5-1-1-.5-4.5-2.718-3.375-3.094-2.407-7-2.812-6.094-3-3.719-4.188-1.593-2.5-1.188-3.5.281-3.5 1.125-3.5-.218-3.718-.594-3-1.688-2.875-.625-4.125.313-3 2.312-3 1.594-2.188 2.5-2.094 3.5-1.812 2.5-3 .594-2-1-3.5-3.094-4.594-2-2-2.594-1-3.125.5-2 1.5h-3.593l-5.094-1-3.188-2.594-1.906-5-2-9.093-.312-.907-2.407-10.593-5.5-32.407-10.875-64.5-2.406-14.312-5.594-34.281-9.718-58.125-.688-5.282-5.094-27.093-3.218-16.125-4.5-23.5-26.907-146.5-26.968-160.532z" style="fill:#9faec0" transform="translate(0 75)"/><path stroke="#9FAEC0" stroke-width="10" d="m94.75 2664.063-3.156 26-2.781 23.625-19.407 163.28-13.094 110.813-6.218 51.782-4.688 38.812-15.593 126.313-20.907 163.78L0 3440.376l.188 9.313 1.218 82.187.594 20.188h3154.344l.25-1.375.094-8-1-9.72-1-7-1-3.593-1.282-1.906-1.812-2.594-1-4.094.5-5 .5-2.593 1.719-2.907.875-1.593.5-3.5-.5-2.625-.5-3v-4.094l1-2.406 1.5-3.094 2.125-4.594 1.593-4.687.907-3.5-.22-4.125-.593-3-1.594-2.5-1.593-2.375-.625-3.125.906-2 2-1.094 4.312-.406 3.907-.375 4.5-.22 3.093-.593 2-1.094.782-1.218.5-4.375.5-3.22-.188-2.905-.812-1.688-2-1.5-.875-1.187-.72-1.813 1-1.687 2.095-1.313 2-2.094 2.406-1.906 2.5-2.187 1.906-2.625.906-2.5 2-2.375 2.594-2.5 2.594-2 2.219-2.125 2.5-3.094 1.875-2.594 2.5-2.906.625-2.5.094-4.281-.72-2.22-.5-1.593-.28-1.312-.813-3.875-.187-4.625 1.28-2.782 3.126-2.406 4.594-2.187 3.406-3.22 2.687-2.28 1.188-2.907-.688-3-2.093-3.406-.907-9.906.313-4.781.094-.813.281-3.812 2.406-6.782 2.5-4.593 2.094-3 3-4.625 1.406-3.094.907-3.094-.094-2.5-.594-2.5-1.125-3.5-.688-4.594-.094-3.5.281-6.093-.187-5.5-.313-6.125 1.72-9.688.593-4.812.187-1.782-.593-2.5-.188-5-.219-5.093.407-5.125 2.312-3.282 3-3.593 1.5-2.5.094-2.5-1-4.407-.187-.906-5-14.906-4.625-17.281-1.5-7 1.625-3.625 3.5-2.5 5.5-4.375 3.875-3.72 4.406-6 6.906-8.593 3.313-5.187 2-3.125 1.875-2.094 2.812-2.781 3.094-3.407 2.5-3.718 1.906-3.594 1.688-2.406 2.219-1.782 4-2.093 4.5-1.125 8.187-3.594 9.719-3 7.375-2.5 3.5-1.688 3-1.593 2.406-1.813.5-2v-1.406l-1.5-1.094-2.094-.187-3.093-.407-2.094-.5-2.906-.5-1.5-2-1.407-2.812.907-3.781 1.5-3 2.906-3 4.781-2.5 7.094-1.625h20.906l8.219-1.5 3.687-1.094.907-2.094.906-3 .094-3.406.5-1.781.593-2.22 1-2.28 2-2.813 2.594-3.5.5-2.5v-1.5l-1-1.094-3.594-.5-2 .5-1.406-.094-1.594-1-.094-2 1.5-2.906 2.594-2h4.906l3.094.406 2.188.094 3.125-1 2.5-1.593 2.593-2 .407-1.313.78-2.406 2.813-3.906 1.5-.594 2.094-.094 1.5 1 1.094-.313.906-1.28.094-1.22-2.281-2.28-3.313-2.22-4.593-2.593-5.594-4-8.719-6.094-6.594-6.313-6.093-7.78-4.594-4.095-4.719-3.218-4-2.282-4.906-1.906-5.781-2.219-8.219-4-11.375-5.093-11.906-4.594-8.313-3.688-5.187-3.812-3-3.594-1-6-.5-5.094 1.5-6 3.5-5.218 3.906-4.688 1.781-1.719 2.719-2.5 2.875-2.093 3-3.188 1.125-3.406v-3.5l.594-3.688 1.5-2.406 2.5-2.5 2.406-.406 3.5-1.188 1.781-.406.219-1.719-1.219-2.375-3-1.5-3.594-.312-3.593.594-2.094-.282-1-1.625-.125-3.5.906-2.593 2-2.094 3.813-.313 4.281-.5 3.625-.094 1.5-1.093-.125-1.5-1.594-1.813-3.594-2.094-2.5-3.5-2.093-5.093.5-4 1.593-4 1.313-2.5 2.875-2.688 4-2.906 2.5-3.594 1.812-3.406.313-4.094-1.625-4.125-2.094-3.281-2.687-3.406-3.313-2.407-4-1.406-4.687-2.594-3.594-3.093-4.125-3.5-2.5-4.5-1.594-4.594-1-6.594v-9.625l.219-4.781-.219-6.813-.5-6.5-.5-5.093-.5-5-1-7.907-1.094-3.687-.593-2.313-2.407-4.78-3.093-5.126-2.5-3-2.594-2.594-2.406-3.187-1.094-3-3.125-2.906-2.688-1.407-1.093-1.5-.313-2.093-.5-2-2.5-2.907-2.594-.906-2.593-2.375-3.5-4.906-5.094-5.406-4.813-4.907-3.906-3.906-4.094-4-3.187-5.281-2.719-4-3.281-2.313-4.125-3.093-5.281-7.313-3.407-5.781-1.687-7.094-.625-4.125z" style="fill:#9faec0" transform="translate(0 50)"/><path stroke="#9FAEC0" stroke-width="10" d="m2 3552.063 1.813 63.812 1.093 48.5L7.5 3781.969l4.188 164.312.312 9.594 6 156.406 5.313 161 1.187 39 3.906 126.594v1.219h3216.657l51.03-1.031-.28-8.094-1.22-6-2.78-7.688-2.813-6.812-.812-6.094v-6.406l-.5-4.5-.5-4.594-1-4-1.876-4.187-1.718-2.407-3-4.093-2.282-4.407-4.312-6.906-2.312-4.594-.376-.906-.218-2-.688-3.594.407-4.5.374-4.093-1.28-4.407-2-5.093-2.595-4.625-3-5.282-2.124-3.5-2.094-1.406-2.594-1.406-3.906-3.5-2.5-3.406-2.594-2.188-2.187-3.187-2.907-5.407-2.093-5.093-2-5.625-2.5-5-3.72-4.782-4-4.906-3-4-2.093-3.406-3.5-2.188-4.594-.5-5.093-.5-2.72-.312-2.093-1.406-1.687-3.5-1.126-3.5 1-3.375.22-3.813-.22-4.406-1-3.094-1.687-3-1.906-2-2.282-1.406-2.124-3-.688-2.594-.094-5.406.094-4.281 1-4.5 1.5-3 2.406-3.125 2.188-3.5.718-2.188-.124-4.406.718-5.688-.218-5-4.594-10.593-4.594-10.125-2-6.594-1.594-4.781-1-3.813-.906-5.187-1.187-3.5-.626-3.5.22-4 1.093-3.72 2-2.905 3.5-2 3.406-1 4.282-2 3.624-3.094 2.5-3 1.876-6.5 1.218-7.094.907-3.687.874-3.5.907-4.125 1.218-7.094.282-6.094-2.688-4.406-1.593-3.094.78-4.5.813-5.594-.094-5.093-.906-3.5-2-4.125-2.094-2.875-2-2.625-.5-4.094 1-3.5 2.094-3.094 1.781-4 1.72-4.594 2.093-5.093 2.5-5.5 2.094-5.5 1.5-6.125.218-5.375-1.218-4.625-.188-4-.094-5.094 1.281-4.188.313-6 .781-2.093 1-2.5 1.5-3.125 2-.5 2.625-.594 1-.906.5-5.094-.406-4.188-1.313-7.593-.78-8-.72-7.125-.78-6.594v-8.5l1-4.5 1.5-5.594 1.093-3.5 2.094-2.906 1.406-1.688 1.594-2.5 1.312-4.5 2.375-5.718 2.406-6 2.594-4.594 2.625-4.406.781-2.688.313-.906.406-2.594-.625-2.5-.781-2.906.906-3.688 1-2.5 1.281-3.5 1.22-2.593 1.093-3.625.406-4.094-1.5-3.406-3.5-5.594-3.312-6.906-3.407-5.688-1.5-4.687-1.687-5-.719-3.5.906-3.125-.593-3.5-.594-3.594-1.313-6.5.5-7.094-1-6-.5-3.594-1.28-3-.813-2.093v-3l1-3.5-.094-2.5-.594-4-1.125-3-1.094-2-2.687-.72-2.5-.093-1.5-.5-2.094-1.406-1.5-2-3.625-4.094-.781-.813-2.094-1.375-2.625-1.5-1.594-1.906-.594-3.094.907-2.5 2-3.125 1.906-3.093.375-2.782-1.094-1.812-2.094-1.906-1.906-.907-3.281-2-4.313-5.375-9.187-9.812-8.219-9.594-6.094-8.594-3.812-5.406-2.188-6-.593-3.812-1.094-4.5v-4.594l1.094-5 1.28-5.406 1-3.094.72-2.094 1.593-4.594.5-4.5-2.093-7.125-1.5-4.593-1-4-1.5-3.782-.594-3.125-1.125-2.375.312-3.625-.187-4.28-1.125-4.313-2.188-4.407-1.687-3-2.625-2-3.594-2-1.5-1.5-.5-1.375-.5-1.218.5-3.5 1.5-3.5 2.094-4.594 1.5-6.594 1.156-6.219z" style="fill:#9faec0" transform="translate(0 25)"/><path stroke="#9FAEC0" stroke-width="10" d="M28.406 4440.094v1.594l4.688 160.78 3 129.907.812 35.813 1.407 122.593.5 36.5v3.5l.78 49.688.72 43.219 1.093 71.375.407 23.5 3.593.312 2.094-1 2.5-1h1.5l2.094 1 2.5 2.5 2.093 1.5 2.5.5 1.5-.5 1.126-1-.126-1-1.5-1.5-2.5-1.5-.593-2.094 1.593-.5 2.5.5 1-1.5v-1.5l-1.5-1.5-.5-2.093 2-.5 1.5 1 1.626 1 1-.5 1.5-.5h1.5l1.093 1.5.5 2.093v1l-1.5 3.5.5 2.594h2l1.5-.594 2.094-2 2-3 .5-2.093.5-3.5v-2.625l1-3.5 3.5-1.5 4.094-.094 1 1.093 3.094 2 2.624.5h1l3-2.093h3.094l2 2.5 4.094 2.093 3.594 1.5 3.5 2 2.594 2.5 2.624 4.625 2 5 2.094 4.094v3l-1 2.594-2.094 2.5-1 2v3.094h2.594l3-.5 2.594-1.094 1.5-1.5 1-3 .5-3.094 1.5-3.5 3.094-4.594 2-1.5 2-1.625 1-1.5-.5-3-.5-2.093 1-2 2.594.5 2.5 1.5 2.125 2 2 3.093 1.5 2v1l-1 1-2 .5-1.5 1.125 1 1.5 4.593 1.5 6.094 1 5.594 2h4.094l2-1.625 2-.5h1.625l4.593 2.5 3 2.125 4.094 1 3.094 1 3.5 2.5 3.094 2.5 4.625.5 3.5.5 3.593 1 2.094 1.5 3.5 3.094 2.594 3 4.094 3h1.5l4.625-1 3.5-1.594 3.093-.5 2.5-1 1.594-1 3-1.5 3.594 1 3 2v1.5l-1 1-1.5 1-1 2.594-1 2.5-.5 4.094v3.5l-1 3.094-1 4-1.5 1.593-1 .5H233.5l-1 .5-1 2 1 2.625 1.5 2 2.094 1.5 2 1.5 1.5 2 .094 2.094-1.094 2.5-1.5 1h-2l-1.5 2.594-.5 3.5 2 3.094 3.594-.094 3-1.5 4.625-2.5 6.094-2.094 5.093-.5 7.594-1.094 8.219-2 1.5-1.5.5-3.125-1.625-2.5-2-1.5-1-2-1.594-2.594 1.094-2h2.5l2.5-.5 1.125-2.093 1-2.5 3 .5 2.094 3-.5 2.093-1.594 2.5-.5 2.5 1.594 1.594 2.5-.094 1.593-1 1.5-2 1-2.5v-3.094l1.5-4.093 3.5-.5 2.094 1 1 2.593v3l-.5 2.5-1 1.594-1 1-2 2.5-1.594 2.094-2.5 2.5-2 1-2.093.5-1.5 2.625-.5 3.5.5 3.094 1.593 4 1 3.593 1 2.5 2.094 1 2-.5 2.094-2.5.406-3.593 1.094-3.5 2.5-6.594 1.5-4.625 1.5-5.094 2-3 2.5-4.594 5.625-8.093 3.594-7.219 2.5-5.5 2.5-7.188 1-5.5.5-5.593v-6.094l-.094-3.5 1-8.719 2-13.187v-8.094l1.5-5 1.5-8.219-.5-4.5-1.125-6.094-.5-5.093-1-5.594-.594-4.5-1-3.625.5-2.5v-1.5l1.5-2.094 1.594-1.5-1.094-1-2-1h-1.5l-1.094-1v-1.5l2.094-1 2-.094 2.5.5 2.094-1.5 1.5-2.5 2.5-4.094v-4.5l-2-6.093-3.094-12.719-.594-6.594v-6.094l.5-4.5 1-4.093 3.5-5.625 3.594-5.094 2-3 2-2.5v-1.094l.5-1.5 2.094-1.5 2-1.5 2-4.094 2-10.593v-6.625l-.5-7.094-1.094-3.594-3.594-6.094-3-3-2.594-2-3-1-3.594-1.5h-2l-2.125-1.5-2-1.5-2.093-2.593-1.5-4.5-1.094-5.125-2.5-3.5-2.594-1-3.5.5-3.094 1.5-3.5 2.625-3.125.5-1-1.5 4-5.625 1.625-2.594v-3.5l-1.125-1.5v-3.094l1.5-2 3.125-1 1 1 1.594 3h1l1.5-1 .5-2v-1.594l-.5-4 .5-3.593 2-4 3.5-3.625 4.094-1.5 3.594.5 3 1 .5 2-.5 1-1.5 2.125-2.5 2-2 1.5-1.594 1.5-1.5 3.093-1.5 3-.5 3.594 1 3.5 2.594 3.094 1.5 3.5 2.594 6.094 2.625 4 2.5 1.5h2.593l2 1.5 1 2.125 3.094 1.5 1 1 .5 1.5v2l1.594.5 2-1 2.5-3.5 3.094-2.125 5.625-5.594 5-6.594 3.593-5 3-6.094 2.5-6.093 1-6.625-1-8.594-.594-10.688-1-8.593v-7.125l-.125-4 2.625-4.094 1.5-1.5 2.5-1.094.5-2-.5-2-1-2 .5-2.094 4.094-4 4.5-2.093 4.094.5 5.594-6.625 2.5-2.5-.5-2-1.5-2.594-.5-4 .406-11.688 2.594-1.5 2 .5 1.5-.5 2.094.5 2.5 1h2.125l13.687 9.188 4.094 2.406 3.594 1 11.218 3 12.188 2 8.219 1.5 6.093 1 11.188 3 1.094 1h2l3.625-.5 3-1.094h3.593l2.5.5 1.594 1.5v2.594l-.5 2.5-2.094 1.5-3 .594-1.5 2.5 2.5 3 2.094 1.5 1.5 2.094.5 2 2.094 1.5 3 1v1.5l-1 4.125v3.5l3.094 3.093h2l2.125-1.093 1.5 1.593v3.5l-2 2-1.5 2.594v3.5l1.5 2.094 2.593 1.5 2 4 .5 4.594.594 4v5.625l-1 6.593-1.5 7.594-1 5.094v3.5l1 3.594 1.594 3.5 1.5 4.125 2.594 3.5 2.5 5.093 1.625 6 .5 5.094 1 4.594-.5 5.594-.5 5.5-2 6.125-2 4.093-2.5 4.5-2 6.594-2.125 4.094-3 4.594-2 3-3.094 4.625-2 4.093-3 5-1.594 3.594.094 3.5-1 4.094-3.094 3-2.5 3.594-1.5 2v2.625l3 1.5 3.094 2 3.593 1.5 3 4.093 2.125 4 .5 6.094v4l1 4.094 1.594 5.594 1 5 1.594 7.625 2 8.687 1.094 9.094.5 8.594 1.593 7.125 2.5 3 3.625 2 4.094 2.093 3.594 4 5.594 5.594 6.593 6 6.72 5.094 5.093 3.5 4.594 2.5 5.093 2.594 8.125 1.5 2.594.5 2 .5h1.5l1.5-.594 1.094-1 1-.5v-3.5l-2.094-2.594-1.5-3.5-2.594-4.594v-3.5l2-4.593 2.594-2.5 2-3.125 2.5-2.5 1.5-2.594.5-3 1.094-1.5 1.5-2.094 1-.5h2.5l1.594 1.5.5 1.594 2.5.5 1.093 1-.5 3 .5 2.594.5 2.5.5 4.625 1 3 2.125 2 2 1.5 1.594 1.5.5 2.593v2l-.5.5-1 1.5-1.094.594-4-1.594-2.625-.5-3 .594-3.093 2.5-1.5 2.5-.5 2.594.5 3.5v2.594l-1 1.5-2 1-2 1.5-.5 2.625.5 3 1 3.093.5 1.5 2.093 3.5 2 3.594 3.125 4.5 3.594 5.094 3.5 4.5 4.594 7.094 5.687 5.625 6.125 4 6.094 4.593 5.094 4.5 4.594 3 5.593 3.094 4.625 3 5.094 4.594 2.094 2.5 2 4 4.594 7.094 2.093 4.125 2 2 1.5.5 1.625-.5-.625-2v-2.125l1-2 2.625-2 2.5-1.094 2.594-.5H674l2.094 2.5-.5 2.594-.594 1 .094 3 1 2.625.5 2.5 1 1.5 2.093 3.093 1 1 3 1 2.125 1.5 2 2 1.594 2.5v3.094l-.5 2.5-2.594 3.094-4 3-2.625 2.094-2 .5-2.5.5-2.093-.5-1.5-1-1-2.594.5-3 1-3.5 1-3.094v-5.094l-.594-3-1-4.593-2-3.5-1.094-1-2-.5-2 1-1 1.5v5.593l-2.094 1.5-1.5 1-1 .5-1.5 2.094-1 3-2 2.594-2.125 2.5-3 4.094-1.5 2.5-1.593 2.625-1.5 2-2 2-4.094 2.093-4 2-7.188 2.094-9.625 1.5-8.187-.5-3-.5-7.188-.5-6.125-.5-3 .594-2 1.5-1.593 1.5-2.5 1.5-3.094.594-4 .5-4.594 1-3.594 1.5-2.5 2.125-1.5 1.5-2.125 1-4 .5-4.093.593-2.5.5-3.594.5-15.813.5-13.687-.906-7.188-2.5-3.5-2.094-2.625-1.5h-2.5l-1.593-1-.5-2.5-1-2.5-1-2.093-2.594-2.5-3.594-2.5-3.5-2.625-4.594-1.5-3.625.125-4.593.5-3 1-3.094 1-2.5 2.093-1 2 .5 1.5 1 1.5.5 1-2 1.094-2-.5h-3.094l-2.5 1-1.5 1.5-.5 1.5 1.5 2.094 2 1 3.094 1 2 1.5v1.5l-1.5 1.5-3.5 2.094-2.094 1-1.5-.5-1-.5v-2l-.5-1.594-2.094-1-2 1.594-1.5.5-4.125 1.5H435.5l-5.594.125-6.094 1.5-5.625.5-7.593.593H406.5l-3.594.5-3.5 1.5-2.094 1-1 3.094-2.5 3-1.5 2.094-1 1v2l.5 2.594 2 1.5h3.094l4.094-1.094 6.594-1.5 9.093-2.094 10.72-3 8.593-1.594 8.687-1 5.625-1.093h7.094l12.188-.5 12.812-.625 11.188.5 12.218.5 9.594.406 10.688.5 13.312 1 12.188.5h2l6.593-.594 5.625-.5 8.188 1 9.687 1.5h8.125l8.094-1.094 8.188-1 2-.5 6.093-.5 13.813-.593 7.094-.5 9.093-2.125 9.22-1.5 11.187-2.594 16.812-3.594 21.281-3.094h5.125l8.188-1.5 8.094-1.593 9.218-1 8.594-2.125 7.094.5 6.687.5 5.625-1.5 5.594-2.094 8.594-1.5 9.687-2.594 10.625-4.094 8.188-2.5 12.687-3.593 15.22-4.625 11.687-3.094 1.593-2 .5-2.5-1.093-1.594h-2l-2.5 1.094-2.594 1.5-3 .5h-2.594l-1-1 1-3.594 2-2 2.594-1.5 2.5.5h2.094l2-.5 1.5-1.594-2-2-2.594-1.5v-2.5l1.594-2.093 3-1.5 4.093-.5 5.625-.5 3 1 2.094 1.5 2.5 1 3.094-2.625 2.5-2 4.594-3 3.5-1.094 4.093-.5 4.125-1 3.5-2.594.5-2.5v-3l-3-2-4.625-1.094-3.093.594-2.5 1.5-2.594 2.5-4.5 2.094-1.594 1.5-5 3.094-3.594 1.5-3 1.5h-2.625l-2-1-2.093-2.5-2-1.5-2-1H843l-2.5 1-3.594 2-2 2.625-2.594 2-5.625 2-4 .593-5.593-1-7.188-2.593-5.094-2h-4.5l-2.125 1.093h-3l-1.593-1.593v-4l2.093-3.125 3.5-2.5 3.625-1 2-1 3.094-3.094 2-3.594 1.5-2.5 1-3-1-1.594-1.5-1-3.594-2-2.125-2-1.5-2.5-1-3.593v-2.5l1.5-1 .5-1.625-.5-2-2.593-.5-3-1-3.094-.5-1.5-2 .5-2.094 1.5-1 3.094-.5h2l2.593-.5 1.5-1.5.5-2.594-1.593-2.5-3-1H796l-3-1.5-.594-4.094 2.094-2.5 2.5.5 2.094.5 1 .5 1-1 .5-3.093 2-3 2.593-.5 1.5 2 .5 3 .5 3.093 1.625 2.5 1 2.5v7.688l1 2 1.594 2 .5 1 1 1.5 1 2.094 1 .5h2.094l2-3.094v-3.5l.5-4.094 1.5-3 2-1.594h2.594l3-.5 1.593-.5 2 2.5.5 2.594-1.5 2-2 2.5-1 2.094v4.5l-2.093 2.094-1.5 2.5-1 2.5-1.5 3.125-1.5 7.593.5 5.094 3.593 9.594 1 2 2.125 1.5h2l2-1.5v-4l1-4.094 2.594-1.5h3l2.594 1.5 2 1.5 1.594.5 1-1.5-.594-3.094-1-3 1.5-4.093 3.094-1 3.5 2 1.593 3.093v3.5l.5 4.094 1.625 2 2 1 2.5 1 2.094-.5 1.5-1 .5-2-2-1.594-.594-2.5.594-1h1.5l2-.5 1-1-.5-3.593-1-2 1.5-2.625 3.094-1h2.5l3.094 3 2 1.125 1 1 2.593.5 2-1.125 1-2 1.5-3.5 1.625-7.094 2-5.094v-1l-.5-2.594-2.625-.5-3.593 1.594-3 .5-2.094-2v-3.094l3.094-2 2.5-1 2.093-1.593 1-3-.593-3.125-1-3-.5-3.5 2-3.094 2.593-.5 2 1 2.625 3 1 3.094 1 3 .594 4.125v3.5l-.5 3.593v2.5l1 1 1 .5 2-.5 2.094-1.5 1.5-2.593-.5-2.5-1.094-4.5.594-4.125-1.594-9.594v-4.594l2-2 2-1.094 2.094.5 1 3.094 1 3v3.094l.094 4 .5 5.094.5 2.5.5 2.625v2l.5 1.5 1.093 2.5 1 1.093 1.5.5 2-1.593 3.125-3.5 3-4.125 4.094-4.594 4.094-2.5 3.5-3.094 2-1.5 2.094-5.094 1-2.5 3-6.093 2-4 3.093-2.625 2-2.5-1-2.594v-6.594l.5-3 1-4.094 2.5-4.5 4.625-2.593 3-2 2.594-4.625 3-5.094 2.5-4 3.094-1 4.594-1.594 4.093.5h7.625l3-1.5 2.094-2.594 2.5-1.5h1.5l2.094-1 1-3.093 1-3 .5-3.625.5-3.5 1-2.5 2-2.094v-1l-.5-1.5-1-1-2-.5-1.594-.5-2.5-1-3.594-3.094-2-1.5-2.625-.5-4.593-1-2.5-1.5-2.094-2.5-2-2.094-2.5-2.5-3.094-3-3.594-4.093-3.125-5.5-2.5-4.625-1-4.594 1-5 3.5-4.188.5-2 1.5-.593 2.125.5 2-1.125-1.625-1.5-1.593-1.375-.594-2.625v-2l-.594-2.5-2.094-1.094-1.5-.781-1.125-1.5.407-2.5-2-2.125-2.594-1-1.5-1.5-.5-2 1-2.594-.5-2-1.594-1.5-1-2-.406-2.406.906-3.188.5-2-1-2.094v-1.5l2-.5 2.094-1 1-1-2.094-1.5-.5-1.593 2.781-.407-.093-1.593-.094-2 .5-2 3.906-5.219.906-2.594 1-3 1.5-2.594 2.282-1.906 2-1.5 1.218-.812.375-2.188.5-2.594v-2l1.5-2 3-.593h2.407l1.5-1 1.5-2.625-.594-2-1.094-2.5 1-1.094 1.5-2 2.5-1.594.906-2.094.5-2.5 1.094-2.906 2-3 .5-2 .5-3.094v-3.5l1-4.593 1-2 .5-3.125-1-2-.5-1.5.188-.875 1.906-1.5 2.094-1.625 2-.594 1.5-1.594 2.406-3.594.5-2-.187-4.093.375-3.5.906-4.125 1.5-3.094.406-3.094-1.094-3-.593-4.5-.125-2.906-.094-3.188.906-2v-2.093l-1.094-3 .406-2.5-.125-3.625-.594-2.5-1.687-1.782-1.812-1.906-1.282-1.312-.5-2.875-1-2-1-3.125-1.625-4-1-3.094-1-2-2-2-4.093-2-2.594-.5-3-2.094-2.094-2.5-1.5-.5-2.594-2.5-3-2-2.625-1.594h-3l-4.5-2.718-.593-.375-2.594-2.407-2.094-1.906-2.594-2.406-2.406-1.781-2.094-.5-3 .5-2.625-1h-2l-2.093-1h-2l-2.5-.5-1.094-1.5-1-2-1.313-1-1.593.687-2.5-1-.782-1-.406-1.187-.5-1.625-2.094-1v-1.5l.5-1.5v-1.5l-2-3.594-2.625-1.5-1.687-.5-5-1.094-3.188-.812-.906-.094-4.719-1.5-.687-.094-1.406-1-.594-.5-3.094-3.094-1.594-2.312-.406-.688-1.812-3.219-3.094-2.28-2.406-1-4.282-2.22-.718-.375-5.5-4-.688-.5-3.406-3.5-.594-.5-2-3.406-.406-.719-.906-4 .093-4.28.125-.813-.406-2.782v-.812l-1.812-3.906-4-4.594-1.782-2.594-1.5-3.719-.312-.78v-1.095l-.313-3-.281-2.5-1.5-2.5-2-1-2.094-1.5-.719-1.906-2-3-1.406-2.219-2-1-1.875-1.187-2.312-2.813-2.5-3.093-6.094-6.5-2.812-2.907-.907-1-2.875-3.187-2.125-3.594-3.5-2.5-5.687-2-4-2.5-4.094-3.094-2.094-4.5-.906-2.718-.312-.688-.907-2.594-1-2.625-2.5-1.5-2.594-1-3-1.5-1-1.093-1.687-1.907-.719-.78-1.687-2.813-2.594-1.5-1.5-1-1.594-2.188-.406-3.906-.594-4.594-.625-3.5-1.594-2.906-.28-.688-1.626-1.406-.594-.5-3.5-2.094-1.5-2 .907-2.406 1.5-2.812.906-1.688 1.406-2.719.875-4.093.406-3.094 2-2.594 2.5-1.594 2.5-2.625.907-3-.594-3.593-.094-3.5.375-2.782 1.625-2.125 3-2.5 1.5-2.5 1.594-3.593 1-3 1-5.594 1.781-5.594 2.407-5.094 4.906-9.312 5-8.406 3.687-6 2.907-5.688 1.312-7.094.406-5.625-.718-6.593-2.282-8-2.312-11.188-1.313-6-1.687-3.594-1.688-3.5 13.782.188 59.593.5 297.72 1.594 47.687.094 255 1.718 39.312.188 56 .219h23l67.188 4.875h12.812l137.594.812 104.5.5 43.594-.094 193.312-.813 64.281-.187 80.407-.313 219.218-1.687 293.5-5 6.5-.094 1.188-.125 2.594-.094 104.812-5.094 193.781-3.5 112.875-2.281H28.406zm376.407 358.281-2.625 1.5-1 3.594-.5 4 .5 2.594.625 3 .5 6.625 2.5 1.5 4.593-1 3.594-5.125v-3.594l-2.094-4-2.594-3.5-2.5-3.594zM91.188 5112.188l-1.5.5-1.5 2v2.093l2 1.5 3.624 1 3 .5 2.594.5 2 .5 2.094-.5 1.5-1v-1.593l-1.5-1.5-1.594-1-2.5-.5-2.094-1-2-.5-2-1zm-37.094 9.28-2 .5-1.094 2v2l2.094 1 2 1h1.593l1.5-1.5-1-1.5-1.593-2zm-6.594 6.595-1 .5-.5 1.5.5 1.5 1 1 1.5 1.625 1.594.5 1.5-.625 1-2-.5-1-1.5-1.5-2.094-1zm90.594 5.718-2 .594-1 1-2 3 .5 2.094 1 .5 2-.094 1.594-.5 1.5-2 1-2-1-1.5-.5-1.094zm35.219 6.5-1.5 1-.5 2.094-.5 2 .5 3v5.594l-.5 4.094-.5 2-.5 1.5-.5 2.125v2l1.593 2.5h1.5l1 2v1.593l-.5 1.5v1l.5 1.5.5 1-.5 1-1 1.094-1 2-.5 2v3.094l.5 2.5 1.594 2.5 3 1 2.594-1 1.5-2.5 1-3.094.5-4v-4.094l-1-3.5-1.094-4.093-.5-3.5-1-3.125v-3l-.094-3.094.5-4v-3.594l-1-3-1-3.094-1.094-2zm-113.5 5.5-1 .5-1.626 1-1.5 1.5-1.5 1.594-1 1.5v3l1 .5 1-.5 1.626-1 2-2 2.5-2.094.5-1.5-.5-1.5zm-10.22 7.094-.5.5-3 .5H44l-1.5.094.594 7.094 1-.594 2-1 1.5-1 1.5-.5 1.593-2.594.5-1.5-.5-1zm116.72 21.906-2 1.594v2.5l.5 1.5 1 1 1 .5 1.093-.5.5-1 1-3-1.594-2.094zm39.28 17.594-2.093 1.094-1 2-.5 2 2.094 2.094 5.094.406 2.5-3-.5-2.5-1.594-1.594-2.5-.5zm12.22 1-1.5 1-.5 2.094.5 2 .5 2.5 1 .5h2.093l1.5-1v-2l.5-2.594-1.594-1.5-1.5-1zm724.5 28.906-1 .5-2.625 1-2.5.5-4.094.5H929.5l-4.5.594-3.094 1.5-2.5 1.5-4.593 1-3.625.594h-2.5l-3.094-1-2.5-.5h-1.5l-2.094.5-1.5 1-1 2v2.094l-2 1.5-1.594.5-3.5 1-2.093.5-3 1-2.625 1.125-2 .5-3 1-2.094 1.5-1 2.593 1 1.5h3.093l3-2.093 6.22-2 6-2 4.093-1.125 3.594-1h4.093l5.5-1 5.125-2.094 3.094-1.5 2.5-1 2.094-.5 2.5-.5 6.594-1.094 2.593-.5 2.5-1 3.625-.5 2.5-1.594 1-1-.5-2-.5-1.5zm-652.125 2.282-3.094.5-1 2.125 2.094 2.5h4l1.125-1-1.125-2.625zm18.406 20.812-2.594.5-1.5 2-1.5 2.594v2.5l1 2 1.594 1.5 1 .5 1-1 1.5-1 .5-1h1.594l1.5 1 1 1 1.625.5 1 .5 2.5 1 2.093 1.5 3 2 4.094 4.094 3.094 1h2l1-1v-1.594l-1.5-2-5.094-4-5.094-4.094-3.594-3-4.625-3-3.093-2zm562 3.906-3.594 1.594-4.094-.5-4-.5-2.093.5-2 1.5-1 2v1.594l1 1.5 6.593-1 9.188-1.594 4.093-1.094-.687-4zm-562.406 15.782-2.094 1.125-1.5 1-1-.5-2.094-1-3 2 .5 2.5 1.5 1.593v1.5l-1.5 1h-2.5l-2.594-1-2 .5-2.5-1-1.594-1.5h-3l-5.125 1-6.593.094H268.5l-10.687-.5-10.72 1.594-8.593 1.5-9.187 1.094-7.125 1.5-7.094 1-8.188 1.125-8.593 2-8.22 1.594-8.593 2-6.094 1.093-5.593 1-6.125 1.594-6.094 1-7.094 1-6.094 1.594-8.718 1.5h-5.094l-5.094.125-4.594-2-2.5-.5-1.5 1v2.5l2 2.5 3.594 2.094 3.594.5 7.594-.094 10.218-1.5 16.282-4.125 9.625-1.094 8.187-1 11.094-3.594 10.219-2.594 9.687-1.593 9.594-1.5 10.219-1.125 13.187-1.5 10.188-.094h7.125l9.687.5 7.688-.5 6.625-1.094 7.593.5 6.594 2 6.688 1.5 5.625 2 4 1.5 4.093 1h9.688l4.094 1 6.125-1.5 4.5-1.594 4.093-2 2.5-3.594-.5-3.5-3.594-4.125-3-3-2.625-.5-2 1-.5 1.5-2.093.125-2.5-.5-2 2-2.594.5-2.5-.5-3.594-2-3.094-3.625-2.5-2-3.625-.5zm3.125 34-1.5 1-.5.5-.5 1.625.5 2 1 2 1.593 2.093 3 4 3.094 3 2.094 1.5 1.5 1.094 2-.594 1-.5.5-1.5-1-2-1-1-2.094-1-1.5-1-1-1.093-.5-1v-1.5l-1-1-2.094-1.5-.5-1.5-.5-2.125-1-1z" style="fill:#9faec0"/></svg>