<svg xmlns="http://www.w3.org/2000/svg" width="3036.094" height="2186.75"><path stroke="#9FAEC0" stroke-width="10" d="m1513.344 0-39.875 43.125-65.688 2.281-14.094-11.344-16.406 2.25-53.969 29.532-39.875 9.093-23.468-13.625L1206 95.375l-16.438 43.125-53.968 49.969-61 2.25-25.813-9.063h-46.906l-42.25 27.25 35.219 59.031 42.218 65.844 6.594 30.656h1163.875l.313-76.062L2144.5 247.5l-70.375-27.25-28.156 11.344-30.5 9.093-75.094-36.343-21.094 13.625-91.531-59.032-103.219-9.093-28.156-20.407-4.687-52.25-56.313-4.53-23.469 22.718-9.375-15.906 7.032-15.907-28.157-29.5L1529.781 0z" style="fill:#9faec0" transform="translate(0 125)"/><path stroke="#9FAEC0" stroke-width="10" d="m1043.656 364.437 5.125 23.844L1041.75 411l7.031 15.906 49.282 27.25L1084 465.5l14.063 45.406 32.843 61.313-25.812 13.625-72.719-24.969-39.875-22.719 7.031-20.437 21.094-29.5-21.094-15.907-37.562-4.53-56.313 9.062 2.375 22.718h-9.406l-14.062-13.625h-30.5L755.5 492.75l-7.031 11.344 28.156 52.25 30.5 24.968-9.375 34.063-7.031 54.5 51.594 52.219 72.75 2.281 9.375 4.531h1281.687l1.406-364.469zM459.875 631.25l-25.812 34.062 2.343 36.344h35.188l25.812 20.438 3.094 6.812h50.688l-13.875-34.062-39.907-9.094-21.093-20.438z" style="fill:#9faec0" transform="translate(0 100)"/><path stroke="#9FAEC0" stroke-width="10" d="m500.5 728.906 22.719 49.969 42.25 4.531 2.343-13.625-16.625-40.875zm423.938 0 42.25 20.438 28.156 6.812 46.906-11.344 37.531-11.375 16.438 27.25s-4.678 6.813-14.063 13.625S1067.563 822 1067.563 822l-11.72 61.312L1023 901.5h-23.469l-14.094-9.094-23.468-9.094-46.907 34.063-35.187 4.562-4.719-34.062-37.531-15.906-39.875 18.156-28.156 52.25-37.532 22.687-65.718 45.438-14.063 70.375 5.313 12.5h1547.094l1.437-364.469zM185.375 967.344v27.25l30.5 43.125 16.406-11.344-16.406-22.687-16.437-36.344z" style="fill:#9faec0" transform="translate(0 75)"/><path stroke="#9FAEC0" stroke-width="10" d="m657.594 1093.375 11.093 26.094 18.782-6.813 11.718 6.813-16.406 15.906-2.343 29.531-30.5 11.344v13.625l30.5 49.969 9.375 54.5 21.125 18.156h89.156l11.718-20.437 14.094 13.624V1367l9.375 24.969-18.781 2.281-21.094 13.625 9.375 27.25-4.406 22.719h640.219l2.375-4.563 25.812-36.312 35.188-47.688 72.75-38.625 53.968 4.563 18.75 36.312h-39.874l-14.094-18.156-63.344 31.781-2.344 11.375v24.969l-21.906 36.344h240.969l-5.563-49.969 51.625-20.437 51.625-4.532 36.563 74.938h320.187l1.406-364.469zm-157.844 71.531 2.375 38.594 49.25 49.969 44.594 2.25 23.468-52.219-11.75-13.625-53.968-13.625zm1267 265.688-10.937 27.25h17.218l7.813-22.719zm91.5 15.875-21.531 11.375h27.937z" style="fill:#9faec0" transform="translate(0 50)"/><path stroke="#9FAEC0" stroke-width="10" d="m800.375 1457.844-2.625 13.625-21.125 20.406 37.531 4.563 30.5-15.907 58.657-2.281 4.718 27.25 16.407 6.813 18.78-18.157 21.095 81.75 21.125 2.282 2.343-40.876 14.094-13.624 18.75 4.53 9.406 34.063 49.25-9.093 23.469-18.157-4.687 36.344-23.47 20.438-32.843 63.562-28.156 52.25-58.657 20.438-18.75 52.218h-11.75l-9.375-6.812-18.78 4.531-49.282 9.094-44.562 13.625-18.375 21.594H959.5l47.063-19.313 77.437-15.906 30.5-15.906 112.625-59.032 93.844-59.031 39.875-45.437-11.719-29.5-32.844-13.626 4.688-22.718 44.562-36.344 61-20.437 14.063-27.22zm707.5 0L1496.938 1476l-14.094 34.063 32.875 9.062v18.188l-53.969 9.062 7.031 29.531 68.032 2.282 49.28-29.532 25.813-29.531 44.563-29.5 39.906 24.969 18.75-15.906 18.781 11.374 7.032 27.25 18.78 4.532 56.313-61.313-9.375-22.687-46.937 38.594 13.312-38.594h-17.219l-5.468 13.625-1.5-13.625zm328.844 0-4.25 2.25 4.687 31.781 35.188-20.406-7.688-13.625zm46.375 0 3.312 6.812 30.5 4.532 93.875 54.5 9.375-6.813h79.781l82.126 34.063 53.937 15.874 42.25-15.874 25.813-22.72v22.72l-18.782 45.406 58.657 36.344 70.406 36.312 37.531 40.875 49.281 34.063 37.532-9.063 7.03 4.531-30.5 18.157v31.812l23.47 15.875 9.78 17.063h262.25l-37.405-51.126-49.282-84-56.312-25-16.406-34.062-28.157-15.875-9.375-40.875-44.593-29.531-28.157 20.437-16.437 2.282-21.094 22.687-4.687 43.156-9.407 2.282-49.281 27.25-7.031-36.344-100.875-95.375-2.344-40.875h-37.562l-21.094 15.906-44.594-2.281-23.469-13.625.125-29.5zM1419.5 1637.219l-39.875 27.25-68.031 49.969-70.407 40.874-18.78 15.876 10.28 51.124h123.094l61.375-35.218-23.468-34.063 7.062-34.062-30.5 18.156-42.25-11.344 23.469-15.906 28.156 11.375 56.313-25 7.03-20.437-35.187-11.344z" style="fill:#9faec0" transform="translate(0 25)"/><path stroke="#9FAEC0" stroke-width="10" d="m784.063 1822.313-14.47 17-14.093 4.562-23.437-18.187-39.907-2.25-25.812 11.343-42.219 9.094-30.5 29.5-63.344 22.719L438.75 1887l-44.562 18.188v27.218l23.468 15.907 14.063-13.626 32.844-9.093 37.562 15.906 30.5 4.531 23.438-11.343 30.5-18.157H633.5l42.25-27.25 49.25 18.157 42.25-13.626 51.594-18.156-4.688 34.063h14.094l11.719-31.781 46.937-2.282 39.875 13.625 7.032-15.906 21.125-20.437-25.813-18.157 30.375-12.468zm448.625 0 6.156 30.624 42.218 11.376 72.75-40.876 1.97-1.124zm1315.78 0 13.688 23.812 9.375 52.25 30.5 6.813 51.625 84 21.125 18.156v-15.875l-4.718-79.469 11.75 6.781 9.374 52.25 14.094 52.219 16.407-6.812 11.75-47.688h11.718v70.406l21.125 20.438-25.812 27.25s9.395 15.896 18.781 20.437 14.063-13.625 14.063-13.625l14.062 31.782s23.492 38.604 30.531 47.687c7.04 9.083 18.75 13.625 18.75 13.625l11.75-11.344-18.781-25-7.031-22.687 30.5 18.156 28.156 27.25 16.406-6.812-2.343-52.22-21.094-38.624 11.719-11.344 25.812 15.906 39.875 20.438 21.125 43.125 23.469 11.375 25.812-31.813 14.063-47.687-7.031-43.125-14.094-61.313-75.063-29.531-72.75-24.969-21.125-52.218-32.843-38.626-2.47-3.374zM743.782 1916.53l-32.843 13.625 23.468 27.25 30.5-22.718zm-509.156 6.813-39.875 9.062 4.688 22.719-28.157 27.25-28.156-6.812-7.031-22.72-37.531-4.53-49.282 13.624L0 1993.72l16.438 9.094 23.468-4.532 63.344-20.437 53.969 15.875 39.875 6.812 63.344-15.875 16.437-25zm884.563 4.531-23.47 18.156 21.126 25 14.062-15.906zM769.594 1941.5l-16.438 31.781h35.188l11.75-27.25z" style="fill:#9faec0"/></svg>