<svg xmlns="http://www.w3.org/2000/svg" width="817.563" height="1005.095"><path stroke="#9FAEC0" stroke-width="10" d="M488.25 0c-21.568.193-43.149.344-64.718.344C318.738.344 213.95.12 109.157.03l-1.031 142.657-.656 1.78c-.816 2.213-1.808 4.418-3.313 6.25-1.09 1.329-4.727 4.966-5.5 6.313-.55.959-.319 3.003.188 3.906l-1.625 1.344c-.477 1.735-.829 3.54-1.125 5.344h720.937L816.907 0zM35.033 150.531c-.589.043-5.476 2.422-6.375 2.969-1.287-.597-4.07-.229-5.25.344l-2.687 2.906c-3.603 1.014-8.302 1.524-11.47 3.5l-.78 2.281c.881 1.667 1.63 3.42 2.5 5.094h61.906a15 15 0 0 1-1.938-1.781l.813-2.969c-.15-.37-1.5-3.842-1.594-3.969l-2.594-2.312c-4.103-3.71-10.255-7.936-14.343-1.844l-1.22-.062-2.218-1.657c-1.068-.302-5.033 1.072-6.312 1.531l-.688-.375 1.625-1.53-.312-1.438-3-.219z" style="fill:#9faec0" transform="translate(0 125)"/><path stroke="#9FAEC0" stroke-width="10" d="M10.97 167.625c.651 1.254 1.366 2.463 2.28 3.563l-.061 1.78c-1.273.675-1.58 2.099-2.719 2.907.136 1.161-.152 2.656.062 3.719.565 2.8 2.617 4.406 1.844 7.656.8.969 2.089 1.876 3.219 2.406-.921 4.325 3.387 8.456 6.406 10.844-.78.573-2.665 1.77-3.688 1.813-.741.827-1.51 1.67-2.343 2.406.34.527 1.488 2.424 1.468 3.062a62 62 0 0 1-1.718 4.188l1.437 3.562c-.826 1.2.083 2.684.219 3.906.33 2.968-.948 6.15-.625 9 .24 2.117 1.345 3.578 2.594 5.22.07.31-1.099 4.044-1.063 6 1.376.281 3.258 4.1 3.969 5.25.875 1.414.961 2.78.906 4.468l-.75 1.375-2.469 1.156 1.188.938c1.21 2.53 1.118 7.175.03 9.719l-1.25 1.03c-.092 2.433.727 7.29 1.594 9.407.315.768 1.967 2.302 2.313 3.094.758 1.732.845 3.94 1.531 5.719 1.235 3.2 4.634 8.003 5.313 11.343.74 3.643.424 7.65 1 11.344.648 4.159 1.568 8.329 2.343 12.469.915 4.884 1.442 9.889-.343 14.687-1.161 1.514-4.325 2.123-6.094 1.531l-1.906.813c-.181.294-.345.747-.5 1.219h791.968l-.093-167.594H96.094a122 122 0 0 0-.625 4.313l-1.969.812-2.25-.437c-2.2 1.25-6.948 2.579-9.5 2.437-1.652-.795-4.311-3.104-4.843-4.969-1.26-.28-2.762-1.168-4.032-2.156z" style="fill:#9faec0" transform="translate(0 100)"/><path stroke="#9FAEC0" stroke-width="10" d="M25.157 335.219c-.208.63-.373 1.304-.281 1.781 1.43.965 2.982 1.92 4.562 2.625l.97 1.813-.438 1.937c-2.707 1.693-4.523 2.62-5.157 5.813.443 1.478.843 2.972 1.22 4.468-.158 1.333-.438 2.733-.438 4.063 0 .724.013 4.101.094 4.625.144.934.633 1.88.75 2.812.144 1.16-.373 2.532-.25 3.656.1.933.734 2.11.593 3.063-.316 2.136-1.469 2.856-.656 5.313.638 1.926 1.248 1.349 2.625 2.53.346.298 3.544 3.705 3.844 4.22 1.36 2.34 1.516 4.99 2.5 7.25.667 1.532 1.763 3.61 2.687 5 .82 1.232 5.776 5.863 7.188 5.906.182.475 1.5 1.32 1.906 1.687l.219 1.25.687.313.469-.344c1.493.063 2.345 3.583 1.875 4.375.45.754 1.553 2.806 1.563 3.719l.78.687-1.155.594-.375.563c1.847 1.394 2.195 4.501 2.625 6.625.933.754 1.904 2.002 2.343 3.125-.254.96-.546 1.383-1.156 2.093.622 2.045 3.5 2.913 5 6.281.9 2.021 2.044 4.636 2.5 6.75.14.647.759 7.064.719 7.657-.087 1.284-1.098 2.49-1.031 3.937 1.387 2.136 4.352.375 6.343.906 1.755 1.575 4.066 2.87 5.625 4.282.951.86.631 2.684 1.844 3.844.712-.058 1.443-.089 2.156-.032 1.104.507 6.08 5.653 6.563 6.563 2.391.676 5.109 1.818 7.156 3.25.885 1.866 3.043 4.633 3.625 6.031.193.463.72 7.49.563 8-.061.196-.504.937-.625 1.156-.77.14-2.683.523-3.344.969-.427.807-2.076 4.635-2.313 4.906-1.144 1.31-3.484 2.588-4.843 4.063-1.658 1.798-.288 3.585-4.125 5.781-1.608.92-3.884 1.004-5.625 1.563-.082.026-.166.079-.25.125H817.25l-.125-167.594z" style="fill:#9faec0" transform="translate(0 75)"/><path stroke="#9FAEC0" stroke-width="10" d="M74.688 502.813c-1.098.594-2.401 2.712-3.593 3.5l-1.938 1.28c-.803.388-3.05.306-3.625.907a42 42 0 0 0-1.219 2.563c-3.73 1.537-3.41.77-6.843 1.156-5.486 4.81-3.8 9.834-5.407 16.218-1.324 1.459-2.697 1.119-3.593 1.875.333 1.12.357 2.47.406 3.625-1.532 1.666-2.977 3.848-4.656 5.282-1.957 1.67-3.195.337-4.75 4.375-.02 1.158 2.553 3.76 3.218 5l-.063 1.031-.78.375.187.625c1.806.885 2.06 2.867 1.937 4.688l-.594 1.03-2.875 1.22c1.256 2.464.223 5.32.907 7.75.574 2.039 2.85 8.39 2.875 10.125.013.963-.53 2.073-.5 3.03 0 .109 1.216 4.306 1.343 4.782l-.562 2.063c-1.12.69-2.448 1.454-3.375 2.406-.138.742-.37 1.574-.719 2.25.638.412 1.437 1.473 1.531 2.25-.24.666-.775 1.418-1.312 1.875-.232.415.045 1.46.219 1.843L40.063 598l.625 2c-.785 1.598-2.57 5.037-2.344 6.813.579.7 1.132 1.467 1.594 2.25.228 1.011-.152 2.635-.625 3.53-1.828 1.14-4.029 2.329-3.5 4.813a20.4 20.4 0 0 1-3.125 2.313c-1.21 3.157-3.488 5.573-4.938 8.562-.865 1.786-1.152 4.207-2.218 5.782l-1 1.468c-2.316.532-5.186.873-7.563.532-3.928 3.044-.736 6.741-.156 10.218.256 1.534-.073 3.228.156 4.813 3.047 2.288 2.034 4.835 2.781 7.843.068.275 1.7 3.24 1.97 3.72-.37 1.968-1.312 2.473-2.25 3.937-.023 1.323.69 2.388.874 3.625q.017.093.031.187h796.969l-.094-167.593z" style="fill:#9faec0" transform="translate(0 50)"/><path stroke="#9FAEC0" stroke-width="10" d="M20.376 670.406c.317 2.51-.412 5.437-.625 7.907-.051.59.099 1.257.03 1.843-.332 2.867-2.277 4.795-3.062 7.344-.453 1.473-.688 3.23-1 4.75l-.156.75c2.501.684 2.17 1.593 3.281 3.438.272.45.827.82 1.063 1.28 1.223 2.384-.46 3.764 2.844 5.595.274-.94.791-1.927 1.312-2.75l.75-.157c.584 1.204 2.63 3.308 3.781 4 1.99.36 4.582-.55 6.094-1.875 2.468.273 4.976 1.061 7.438 1.469 1.137 1.49 3.02 4.68 3.062 6.656 1.966.94 3.608 3.494 4.469 5.407-.504 1.577-.865 3.081-1.969 4.375-.52 2.686 2.168 4.29 2.125 6.593l-.812 1.188c1.354 1.704.79 3.622 1.062 5.562.144 1.03.741 2.006.563 3.094-1.176 2.584-2.905 2.945-5.625 3.219-1.338 1.778-2.72 3.571-4.22 5.218-1.776 5.456 3.224 8.532-3.155 13.344-2.47.461-11.047-.94-13.657-1.375-2.537-.422-5.317-1.423-7.906-1.375-1.003.53-1.996 2.229-2.25 3.282-.684 1.545-2.622 8.31-3.125 9.03-.469.672-1.399 1.157-1.906 1.813-.61.79-.753 1.947-1.531 2.688-1.153 1.096-2.255 1.702-3.032 3.218-.601.179-1.423.19-2.03.063l-.657.656c-.994 2.268.994 4.105.656 6.063-.291 1.685-1.791 3.47-1.75 3.843l.281.47.532.218c.611-.28 1.242-.855 1.656-1.375.397.654.375 1.947.062 2.625-1.879 1.227-.967 2.858-2.344 5.063l.938 2.312-.22.438-.968.312-.375.656.063 1.032c1.273 1.167 7.387 2.662 9.344 3.437 5.882 2.33 42.168 16.505 92.843 36.25h715.22l-.126-167.594z" style="fill:#9faec0" transform="translate(0 25)"/><path stroke="#9FAEC0" stroke-width="10" d="M102.25 838c150.406 58.604 429.22 167.094 429.22 167.094.217.053 250.99-1.296 286.093-.532L817.47 838z" style="fill:#9faec0"/></svg>