<svg xmlns="http://www.w3.org/2000/svg" width="1105.656" height="931.063"><path stroke="#9FAEC0" stroke-width="10" d="m0 0 10.219 75.875 10.719 72.969.906 6.344h1082.312l-1.125-2.532-6.812-5.844-2.907-1.687-3.25-2.406-1.156-2.094.125-4-2.062-2.031-1.032-1.875-143.343 1.312 3-4.906 2.062-2.156.75-1.563.781-1.875 1-2.125 1.532-1.156-.188-1.562.656-2.438 1.5-1.656 2.157-2.031-.125-2.22v-1.562l1.593-1.156 2.532-.812.468-2.563 1.094-1.844 3.188-.844 2.75-.718 1.25-1.906 2.625-.594.781-1.781 2.281-.876.844-1.937-.281-2.562.343-1.938 1.344-4 1.532-1.625 1.53.438 1.626-1.782.593-1.687 2.532-1.438 1.562-.937 1.594-1.5 1.813-.688 2.718-.187 2.188-1.938.75-1.687 2.031.375 1.5-.813.375-1.656L997.5 68.5l1.625-.531.281-1.563L1000.5 64l1.563-2.281 1.687-.563 1.5-.625 2.781-.218 1.75-2.376.125-2.562 1.282-2.125.5-2.187-.563-1.72-2.281-2.718.625-1.969-.282-1.562.907-1.563-.344-1.937 1.656-2.094.438-2 .625-1.781-.719-1.657.219-2.5-1.875-1.5-1.032-1.687-1.687-.719h-3.344l-1.75-.468-.937-1.5-1.75-.375-1.344-1.563-1.656-.031.156-1.594-2.062-.344.125-1.812 1.906-1.344-.407-1.75.5-2.969-1.562-1.312.125-1.594-1.625.344-1.781-.094.656-1.969 2.313-.125-1.657-1.375-2.156-1 .688-1.968-.782-1.75 1.719-.97-6.406.22-2.875-.22L934.375 0H806.281l-92.5.313L692.531 0H536.063l-37.5.281-21.813-.28h-36.687l-33.72.155L331.814 0z" style="fill:#9faec0" transform="translate(0 125)"/><path stroke="#9FAEC0" stroke-width="10" d="m21.844 155.188 10.343 73.5 5.126 38.03 4.28 28.157-1.093 1.688.906 4.437-.156 1.531-.219 7.844h962.344l-.625-2.344 2.313-3.75 2-1.625 1.78-5.844-1.75-1.5-1.968-1.156-1.844-1.687-1.687-2.313-5.032-.75-2 2-.468 1.625.625 3.156 1.75 2.907-2.094.562-4.719-.031-2.906-2.812 1.906-6.625.375-3.125 8.782-5.375 1.28-4.563 1.063-2.469 2.469-2.281 2.031-.437 3.719.187 1.75 1.406 1.313 1.532.218 1.562-1.531 7.188.156 3.812 1.938 1.406-1.094 1.938 3.406 4.781 2.282-2-2.844-1.906 2.281-2.438.875-2.187 2.594-3.156.968-1.875v-2.063l1-2.562.282-1.72.125-1.718-3-2.437-2.157-3.438-1.125-3.187-.406-2.938.188-1.531 1.687-4.375.532-2.969 2.937-2 1.938.031 4.093-1.375 2.157.281 2.343 1.282 4.469 3.562.688 2.156-.438 1.782 2.156 1.875 3.219.437 3.156 1.219 2.282-1.781 1.156-3.625-.813-2.125-1.093-1.938-3.594-.531-2.938-1.437-2.812-5.282-.656-3.187.843-1.625 1.532-1.625 3.156-1.875 2.906-1.188 1.875-1.406 3.719.531 3.656-2.812 5.344-3.25.437-1.594.157-3.531-1.5-2.906-1.5-.532-2.782 1.125-1.718 2.938-2.157.969-2.125.125-2.5-.47-1.625-.655-1.843-1.282-1.407-1.5-1.187-2.531-1.656-1.937-1.25-2.188-.344-3.312.094-2.313-.406-4.25 1.875-2.875 6.937-3.875 2.813-1.75 5.093 3.875 1.563 1.875 2.406-2.281 4.125-2.406 2.281.156 3.563-.5 2.812-2.406 1.969-2.563.5-1.906.156-2.719 3.375-3.312 3.5-1.594 1.563.187 3.344 1.25 1.937-.062 2.406-.844 4.313-2.781.719-2.75-1.157-1.938-5.156-2.781-4.062-1.281-4.782-2.438-.937-2.219.156-1.687 1.594-4 5.125-4.094 7.312.531 4.813 2.032 2.906 3.375 6.813-2.781-.094-2.563-1.407-3.187z" style="fill:#9faec0" transform="translate(0 100)"/><path stroke="#9FAEC0" stroke-width="10" d="m41.031 310.375-.281 9.719-.719 15.375-1 40.687-1.968 1.25 1.906.563-2.532 87.562H907.47l.03-.093-1.374-2.344-1.188-4-.062-2.094.781-1.75 2.156-2.281 2.532-.688 1.843.125 2.438 5.782.594 2.375-1 1.75-3.844 3.218h15.531l-.844-2.187-3.03-5.375-.938-3.281.5-2.47 2.968-3.187.5-2.218-1.562-3.22-4.469-7.062-.25-2.125.094-1.562 1.031-2.188 4.031-2.281 2.688.563 3.375 2.718 1.219 3.313-.594 2.187.5 4.219 2.219 2.719 2 .219 6.812-3.688 6.156-1.937 2.625-1.907 1.813 2.094 2.031 1.625 2.094.625 2.156-1.719.063-2.437-2.188-3.219 1.531-1.531 6.063-3.375 6.5-4.594.781-1.812.406-1.844.063-4.406-.5-2.188-1.594-2.469-5.25-2.593-2.156-2.063-2.063-1.031-1.343-1.531-1.157-2.594-.53-2.438.062-2.343.656-2.25 3.312-6.282 6.282.594 1.625 1.344 7.03 1.219 1.907 1.03 1.531-.124 3-3-.312-2.813.312-3.156 3.22-8.344 1-5.5.718-1.593 1.844-1.907 2.093-1.531 2.907-1.094 7.437 4.313 1.969.594 2.219-.438 1.593-.906 4.188-5.063-1.313-3.468-4.906-1.094-2.156-1.5-1.219-1.594-1.437-3.281-.72-1.656.282-2.813 1.563-.187 2.812 1.156 1.75-4.688 3.156.469.031-2.062-1.937-3.594-3.344-4.844-1.562-1.156-2.532-.375-5.343.937-2.594-1-1.5-1.75-1.719-3.218-.5-1.5 1.125-4.22 1.625-1.468 1.563-.469 2.343 1.125 3.375-1.437 1.688.281 1.562-.406.5-5.25.657-2.063-.125-.531z" style="fill:#9faec0" transform="translate(0 75)"/><path stroke="#9FAEC0" stroke-width="10" d="m36.438 465.531-.844 29.219-2.938 125.969H847l-.187-1.407-1.75-1.906-2.625-.468-2.188.25-3.875-.813-3.125 1.031-1.719-.687-2.312.968-5.844-3.593-3.812-4.719-.875-1.562-.407-2.438v-1.937l3.094-2.97 2.375.157 1.813 1.313 2.187 4.437 3.406 2.375 2.688.875 2.312.156 2.625.157 1.063-3.22-.031-2.843.312-2.219 1.313-6.312.718-1.782 1.72-1.343 2.687-.625 1.53-.719 6.813.688 1.594-.157 2.781-2.343 2.532-4.344.156-2.094-1.188-3.562-1.593-1.72-3.125-3.218-.22-2.812.876-2 3.125-1.22 1.875.188 3.719.969 2.843-.062 8-1.532-1.218 4.438-2.188 3.812-.5 2.375.125 1.907 1.594 1.812 1.75.75h1.969l1.75-.656.906-3.157-2.125-5.687.031-1.937 1.813-5.282 5.25-2.843 4.687-1.157 7.375-5.312 2.125-2.594 1.031-2.469.157-1.562-.47-1.75-1.187-2.375-2.843-3.063-.813-4.718.156-2.938 1.219-3.469.75-2.781 2.406-2.75 3.125-1.656 2.125-1.782 1.094-2.75L905.25 516l-1.719-2.562-3.687-3.875-2.563-4.47-1.218-3.093-.25-2.875 1.187-4.281-.75-2.406-.469-5.157 3.407-4.125 1.28-1.875 2.282-1.156 1.625.625 2.375 3.219-.062 3.344-2.938 2.968-.5 2.938.063 1.75.625 1.5 2.406 2.125 1.968.281 2.813-.625 2.531-1.812 3.032-3.532 3.28-2.687 3.032-3.813.719-3.969-.938-1.718-2.218-1.5-1.844-.094-8.188 1.313-3.031-.344-2.281-1.094-4.907-6.062.188-2.313 1.625-1.969 2.188-.312 2.25-.75.906-2.063zm873.937 0-.375.313.031 3.25.938 1.937 4.093 2.063 2.844.125 4.219-.875 3.562-2.625.47-3.531-.25-.657z" style="fill:#9faec0" transform="translate(0 50)"/><path stroke="#9FAEC0" stroke-width="10" d="M32.656 620.719 29.313 762.78l2.125-.281 2.718.344 1.344-2.063 2.5 1.375-.344 1.532-3.187.937.562 1.75 1.657.469-.5 2.031-3.22 2.063.438 2.25 2.063.093 1.656.125 2.625 1.188 2.531 1.125.125.187H95.22l1.25-1.625 1.687.969 2.625.656h671.313l2.937-2.875.157-3.062-.782-2.282L773 765.72l-7.531-6.063-2.407-1.062-5.75-1.313-1.718-.812-2.032-2.625.063-3.125 1.625-2.625 2.281-1.625 2.125-.657 6.25-.562 2.5-.969 6.5 8.406 6.938 4.032 1.531.593 1.656.282 1.813-.25 4.281-2.188 3.219-.562 1.75-.72 1.437-2.75-1.281-2-.625-2-1.75-2.593-2.906-2.281-1.875-.438-1.563.563-2.843 1.719-1.938.593-2.406.282-2.157-.157-3.25-2.312-2.312-2.688-.875-1.75-.031-1.593.375-3.844.906-2.344-.969-2.031 1.157-2.594 1.718-1.687 1.938.343 1.875 1.313 1.719 1.75 4.843-1.531 7.032-.625 6.812 4.187 2.313-.437 2.812-1.188 2-2.062.594-2.063-.719-2.125-1.781-1.75-1.781-.937-3.875-.875-4.813-2.532-2.187-3.625-2.407-3.062-1.156-3.844.406-3.156 3.47-4.344 6.437-6.656 3.562-5.688-2.187-2.093-3.532-1.75-2.375-.97-8.312-2.343-1.156-1.875-.094-1.75 1.437-2.687 1.75-1 1.97-.344 5.28-.531 2-2.25 3.313-2.094 3.531 8.594 2.375 2.375 2 .468 1.875-.125 1.594-.687 1.125-1.906.25-2.532-2.125-3.218-1.969-2.157-1.781-5.062 3.812-.688 2.75.375 1.813.657 1.687-.063 1.72-.344 2.5-1.03 2.593.312 3.969-1.063 1.562-1.969-.437-3.468.28-2.407 1.282-2.28 1.688-2.157.78-3.469-2.593-3.094-2.406-.312-1.688.844-3.843.437-6.72-4.875-1.468-2-.906-3.094 1.094-2.156 9.843-7.219 1.782.313 1.718.906 2.5 2.531 4.125 2.907 3.844 1 2.469-.282 2.312-1.093 2.188-2.094 1.594-2.563.343-1.625-.156-1.343z" style="fill:#9faec0" transform="translate(0 25)"/><path stroke="#9FAEC0" stroke-width="10" d="m42.406 775.906 3.313 5.313 3.281-.782 3.938-2.406.437 1.625-.531 1.5-1.782.907-1.5-.25-1.5 1.906 2.032 2.187 1.406 1.688 3.625-.219 1.875.281 1.719.157 1.406-2.188L59 782.969l1.875-1.5 1.875.875.969 3.093 2.187 1.032 2.875-.969.281-1.906 1.344-3.532 1.375-1.625 2.531-.718.657 1.843-2.406 3 .687 1.688 3.625-1.125.844-2.094 1.719-3.062 1.75-1.407 3.468-.312.031 1.719-1.656 1.968-1.5 2.032.219 2.437 2.781 1.094 2.531-.094 1.532-.812 1.25-1.875 2.25-.906 1.812 3.03 1.281-1.78-1-3.125-2.968-.22-1.938-.593.719-1.844 2.031 1 1.656-.406 1.532-1.969zm58.375 0 .75.188-.219 1.875 2.094 1.343 2.125-.5-1.844 1.688 1.376 1.719 2.25-1.625.874 4.781 1.876-.187.437-1.782-.031-1.75 1.781.031 3.438-1.812 3.344-.531 2.312-.157-.219-2.25.532 2.157.937 2.125 2.063.187.094 1.875h-2.22l-1.405 1.688 2.562 1.25 2.125-.72 1.875.126.094 142.125 66.062-.063 165.782.5 172.937 2.282 60.094.437 100.438.156 74.125-.75.968-2.687 2.813-1.75 2.719-.656 1.875-1.282.843-1.5.344-1.718.75-2.375-.937-2.563-5.625-4.656-2.407-1.063-2.406-.593-2.062-2.813-4.594-3-.063-4.156 1.907-3.094 2.125-1.312 3.156-.25 1.531.156 2.719 3.031 5.25.438 4.969-.688 3.5-2.812.78-4.594.157-5.719L783.907 874l2.781-1.531 1.813-.938 1.625-2.031 2.969-3.625 1.156-3.781.281-2.72-.937-1.905-1.625-.938-2.594-.25-2.531 1.063-1.625 2.25-1.032 4.812-.968 1.656-1.188 3.313-2.312-2.094L778 863l-2.187-1.719.563-3.125-1.625-2.375-1.906-2.593v-4.313l-.5-3.562.593-2.157.188-4 4.406-3.281 4.125-6.156 1.906-1.938 4-3.156 1.563-2.156 1.312-1.907.907-2-.344-5.75-1.75-1.28-2.25-.157-1.938 1.094-2.28 3.718-.157 1.563.469 1.531.093 1.969-.437 2.031-3.688 4.719-1.593 1.25-4.907 2.344-1.875.312-4.625-.625-4.281-2.312-3.75-3.282-.156-1.812 1.937-2.5 1.782.094 1.687-.47 1.813.688 5.062-2.312 1.938-.563 2.875-.625.718-1.656 1.688-1.937.687-2.72-1.593-5.093-2.563-2.25-6.219-4.406-1.75.375-1.093 3.844.406 2.718.844 2.532.53 2.593-1.75 2.375-2.155 1.344-4.407 1.281-2.343-.218-3.563-2.5.375-3.5 1.844-1.5 1.75-.532 1.562-1.03 2.844-5.282 2.906-3.375-1.062-2.531-5.125-4-2.469-2.5-2.094-3.875-.093-2.97 1.625-1.78 5.75-1.282 4.437-2.812 3.906.344 1.907-.344 1.625-1.594H100.782z" style="fill:#9faec0"/></svg>