<svg xmlns="http://www.w3.org/2000/svg" width="9164.375" height="10536"><path stroke="#9FAEC0" stroke-width="10" d="m246.594 0-.094 4.594.593 3.5.5 3 1 2 .5 1.5.094 4.094.5 5.5v6.625l-.375 5-1 3.593-1.625 5-1 2.594-.5 4-.5 3.5V56l1.125 3.094 2.5-.594 3.094.5 2.094 2 1.5 3.094 1.094 3v1l.5 1-1 1.5h-1l-.594 1.5.594 1.594 1 1.5 1 4 .094 2.5-1.094 1-.5-1.5-1-2-1-.5H251.5l-.5 1-1.5-1.5.5-3.5.5-4.094 1-5-.594-2.5-.5-1-1 1.5-.5 2v4l-.5 3.094-.5 3.5-.5 3 .094 3.624-.5 4.5-.5 5.594-.5 4-.5 7.094-.5 4.5v3.094l-2.5 9.5-2 11.219-2 9.093-2 4.5-1.5 7.594-1.5 7.094-2 9-4 13.219-5.093 13.593-2 6.594-1.5 4.094-3 7-4.094 8.094-2.5 4.625-2.125 3-1.5 2-1 1.593-1.5 1.5-2.094 1-1.5 1.5-1.593 1-1 1.594v1.5l.593 2 1 1 1 2.5 2.094 2.5 1.5 1.5.625 1.5 1 .5h1.5l1.594-.5 1.5.5 1.5 1 2.093 2.5 2.594 2.5 3.594 3.5 4.625 4.594 1.094 2 .5 1.5 1.5.5 2.093 2 .5 1.5 1 2 1.094 1 3 2 3.594 2 2.625 1 2.094.5 1-.5 2-1.5 1-1.5L248.5 279l1.5.5 2.594 1 2 1 1.594 1.5 1 1.5 1.625.5.5.5h1l1.5.5 2.594 1.5 4.594 3 3.593 5.594 4.219 6 1 1.5 3.594 6.594 2.094 6 1.093 5.5 2.094 10.125.5 7.593-1 1.5.5 3 .625 5.094-1 1 2 3.5v3.5l.594 3.094v3l-.5 1.5-1 2.5 1.5 4 1.594 5.594 1.593 4 1 5.125 1.594 2 2.5 4 2.625 6 1.594 3.5 1 2.093.594 3 2 7.5 1.093 3.094.5 5-.5 2 .5 2 .094 1-.5 2.094v2.5h2.5l1.625 2 1 3 1 1.5 1.094 2.5.5 1 1.5 1.5 1.094 2.094.5 2.5-.5 2.5-.5 1.5-1.5 3v1.625l2.093 2.5 2 5 .094 2.5v1.5l-1.093 1.593-2 1v1.5l1 1.5.094 1.5-.594 1.5-.5 1.5v1.594l.094 4 1.5 3.5 1.125 3.5 1 2.594.5 4.5 2.594 2.5 4.187 4 3 3 2.594.5 2.625 1 1 .5 2.094.5 1.5 1 2.594-.5 1.5 1 2.093.5 2.5 2.5 2.094 1 2.625 1.5 2.5 1.5 1.094 1.5 2 2v1.5l.5 1-1 1.5-2 .5-1.594-2-1.5-1-1.5-.5-3.719-3.5-5.593-2.5-2.594-1.5-1-1-1.5.5-1.094 1.093-.5 2-1.5 3-1-.5v-1l.5-1.5v-4.593l-1.125-1.5-2-1v9.094l-.5 5.625.125 2-1.625 2 1.125 2.5-1.125.5-1 1.093 1.125 1.5 1 3-.5 1-.5 3.5v3.094l1.094 3 .5 3.5 1.5 3 1.094 3 .5 3.594-.5 5 1.593 3.5 1.594 4.593.5 5 1.125 5.625 1.5 5.5.5 2 .094 4v5.094l-.5 5.5-.5 4.094.094 6.5 1 6.594-.5 7-.906 11.593-1 9.625-1.5 7.094-.5 4.5-.5 2.594-.5 3.5.094 5-1 6.094-1 3.5-1 4.093-.5 3-1 4v1l-.5 5.125-.5 6.5-2.5 6.594-1 5.594-1 7.5-2.5 9.594-.5 1-2 8.093-1 5.125-1 3-1 1-1.594 1.5 2.094 2-.5 3.094-2 5-1 7.094-1 3-1 3.594-1 2-.5 2-.5 2.5v6.093l-1 4.5-1.5 5.625-1.5 5-1 2.5-1.5 2.594-.5 3.5-1 2.5V827l-1.5 5-2 7.094-2.5 7.093-1.594 3.5-1 .5-.5 2 .5 3.125.094 2v3l-1.5 5.594-3.094 8-2.5 8.594-2.5 6.594-1 2.5-.5 2-5.093 12.718-3 10.094-3.5 8.094-1.5 5.5-2.5 8.094-2.094 6.093-2 5-2 4.125-2.594 3-1.5 1-2 .5-2.125-.5-2-1-1.594-.5h-1.5l-1.593.094-1 1-1.5 1-.5 2 .5 1.5.5 2-.5 2-1 1.594-1 1-.5 1.5.5 2 2.593 3.5 1.594 2v1.5l-1.594 2.594 1.094 2.5-.5 1v3.5l-.5 1.5-1 2.094v1l.5 2v2l-1.5 1-.5 1.5-1 .5v1.125l2 2 1.125 2.5v2.5l1.5 3 .594 1 1.5 2 .5 1.5v1l-1 .594-1 .5h-1.594l-.5 1.5 1.594 1 .5 1v4.5l-.5 2.593-1.5 2.5-.5 2v2.5l.5 1.5.594 1 .5.5h2l1.593.5 1 1 1 2.5.594 2.594-.5 2-2.094 3.5-.5 1.5-1 1 .5 2.094 1.094 1.5.5.5 1.5-.5 1-1.594v-2.5l1.625-1 1.5-1.5 2.5-.5 1.594 1.5 4.094 3 2.593 2.5 3.594 3 1 3 .625.5 1.5 2 1 3 1.094 1.5v3.094l.5 2 1.094 2 1 1.5 1.5 1 .593 1.5 1 1v1.5l-.5 1.5v2.5l-.5 2.125v3l-.5 2v3l-1 4.093-.406 5-1 6.094-.5 5v3.5l-1.5 3.094v1l-.5 2.5-1.5 4.594-1.5 9.5-3 11.125-3 10.593-4 13.188-.5 1.5-1.5 6.5-3.094 9.094-3 10.625-2 6.094-3.5 9.593-3 9.094-3.093 9.094-2 4.5-1.5 2-1 2.625-.5 2.5-1 3-1.594 3.094-3.5 6.5-6.094 12.187-1.5 3.5-3 5.594-4.125 8.5-6.094 11.219-6.093 11.593-3.5 5.594-4.594 7.5-8.094 13.219-2 7.594-2.5 4-3.125 4.593-7.094 12.094-3.093 2.5 1.093 3 4.594 3h3.125l1.5-2 1-3.5 2.594-3.094 1.5-2.5 6.094-4.093 2-4 1.593-2 2-1.5 1.5-1.594 4.094-7.125.5-3.5-.094-6.5 1.594-5.594 2-2.5.5-4.094 3-3 2.625-3.5 5.594-4.093 3.5-4.594 1.593-3 1.5-6 1.5-6.125 1.5-3.5 3.5-5.594 2.594-6.094 1.5-2 .5-2 2.5-3.5 1.594-4.093 1-4h3l1.125 2 4.594.406h4.093l2.094 2.5v1.5l1.5 3.094 4.094-.094 3.125 4.593 3.094 1.5 1 1 4.593-3.593 3.094-1.5 3.594-2.625 3.625 1.5 4.594 1.5.5 2 .593 5.125v3h5.094l.094 11v5.093l-2 5.5-3.594 4.094-11.687 8.094-2.094 1.5-2.5 1.094-2.125.5-2.5 1-1 1-1.594 2.5-2 .625-4.093 2.5-8.188-1-6.719-4-11.28 2.093 1-3-1.5-1-4.626 1.5-5.094 4.594-9.687 3.594-5.094 8.594v2.5l-1 4.5-3.5 6.625-2.625 4.593-1.5 7.5-1 4.094-1.5-1v-2.094l-.5-1.5-2.094 2.094v2l2.094 10.094.625 3.5-3.125 6-2.5 5.594-5.094 2.5-6.093 1.625-2.094.5v2.5l1.594 2.5 2.5-1 .5 1-3 5.093-.5 1.5-1 2.5-1 1.5-.5 1.5-1 1.594v1.5l2 4 3.187 10.094 1 1.5 1.625 3-1.5 4-2.125.5-1 .5-3.594 1.594-1 3-2 1-2.093 4.125 2.593 8.5-4.593-2-3.594-4.5-.5-1.5-7.719-2-3.094-1.5-4.093-1.5-2.094-1-3.594-.907-3.625-3-2-2.593.5-2 4.5-3-1-2.5.5-3.125 12.719-19.188 7.594-11.594 6.093-5.593h2.094l2.125.5-.625-4-1.5-1.5v-1l-1.594-4.125-3.093-3-1.5 3.625-1 3.5-2 5-7.094 11.187-4.594 7.594-10.219 16.594-8.093 13.218-2 3.5-5.094 6.594-4.594 7.094-2 4-4.125 8.594-9.594 17.218-2 4.5-5.593 9.094-3 5.094-2.094 4.594-2.5 4-.5 2 .5 1.5 1.5-1 .5-2 1.094-2.5 3-5.094 2.5-3.5 2.093-4.594 13.72-22.687 2 2.5 2.593.5-6.594 5.5L103.19 1497l-2 6.5-1.594 4.094-1 1.5 1.594 1.5 1.5-.5 3.125.5 2.094 1.5 3 .406 1.594 1 4.593 1.5-2 1.594-2.093.5v1l-1 2-5.094 5.094-.5 3v1h-2l-2.594-1-1.5-1-.625-2-.5-1.5-1-1h-5.187l-2-.5h-2.594l-2 1.125-1 1-1 2.5-1.594 1.5-2 2-1.5 3.093-1.625 2.5-1 4-2 5.594-3.5 6.094-3.594 8-.5 1.594-2.5 6.5-3 7.125-3.593 6.593-2.5 5-1.5 4.094-3.094 7-3.5 9.094-2.5 6.594-5.594 10.625-4.125 6.093-4 6-1 3.094-1 2-3.594 6.594v4l-.5 1.5v1l.594 2.5 1.5 3 .5 1.594-.5 2.5-1 2-1.5 6-2.5 8.125-2 5.093-2 6-4.094 9.594-4.5 7.594-4.593 9.094-3 5.625-.5 3-.5 2.5 1 1 2.093 1.5 2 1.5 1.594 4.5.5 2.593-.5 3 .125 3 1 2.5.5 1.5v1l1.094 2.5 2 2.594.25.5h3735.187l-.406-41.906-.09-11.594-.312-22.187-.06-39.22-.09-8.593-.313-22.187-.78-79.625-.5-72.5-.626-46.282v-9.593l-.28-34.22-.09-13.593-.907-97.812-.219-97.688-.28-132.187.186-49.22v-15.28l-.09-45.22.593-46.905-.187-96.688-.719-320-.09-38-.187-25.094-1-101.906-.5-106.906-.09-7.094.188-25.187-.313-22.22-.5-50.093-21.5-.094h-6.875l-33.812.281h-16.407l-79.406.125-67.28.5-5.72.094h-13.5l-112 .094-48.875-.094-35.312-.219-49-.094-242.313-.78-57.28-.126h-25.095l-16.219-.094-86.593-5.406h-1.188l-89.125-.875-8.094-.125-14.28-.281-41.72-.813-14.593-.281h-2.313l-14.094-.312-2.28-.094h-6.407l-88.719-1.094-21.594-.313-112.187-3.312-9.094-.281-22.219-.5-8.5-.72-4.687-.28-11.813-.594-107.5-3.313-55.406-1.687-2.594-.125-1-.094-37.906-1.688-36.875-1.718-55.813-2.594-55.906-2.688-7.594-.312-14.906-.5-19-.906-1.406-.094-14.375-.594-13.906-.688h-1.407l-16.406-.406-30.406-.812-18.781-.5-15.407-.407-16.906-.5-32.187-1-3.094-.187-142.406-1.094-48.22.406-13.874.094-3-.094-31.719-.625-33.281-.687-27.906-.406-14.813-.282-141.406-2.906-93.5-1.812-16.375-.282-14.625-.218-1.281-.188-16.907-2L1137.31 24l-35.219 2-24.281 1.187-2.313.125-13.593.375-26.907.5-11.812.22-48.781.905h-.594l-1.313.094-9.406-.5-4.406-.312L910.81 27l-41.313-1.687-49.187-2-87.219-3.72L706.996 23l-23.906-1.094-11-.5-62.906-2.906-1.594-.094-11.094-.313-25.812-1L517.09 14.5l-62.094-2.813-2-.094L431.403 11l-10.094-.594h-7.313l-55.812-2.813-24.094-1h-.5l-9.187-.406-8.72-.594-45.093-4L246.621 0zm-17.407 1314.813-1.5.593-3.093.5-1.5-.5-2.594.5-2 3.5-2 5.094-.5 1.5 1 .5 4.594-2 4.093-3.094 3-.5 2.125-1 2-1.5.5-2.093-1.5-1.5z" style="fill:#9faec0" transform="translate(0 125)"/><path stroke="#9FAEC0" stroke-width="10" d="m11.656 1756 1.344 2.5.5 2 .5 1.5 2.094 3 .5 1.5 2.593 1 6.22 7 5.687 7 2.593 11.094.5 3 1.125 5.593 1.094 6 .094 13.126v10.093l.594 3.5v3.5l.5 2.594 1 2 1.094 2 2.625 3 .5 2 .5 3 1.093 3 .5 4.594 1.094 3-.5 4-.5 2.5-1.594 2.593-1 2-1 2.5-1 3.5-.5 2.126-.5 1-.5 4-1 4-1.5 3.093-2.5 6.5-2 5.594v3l-1 5.594 1 2.5-.5 3.5.094 1.5-1.093 1-.5 1.5.593 1.5 1 2.093 1.5 2 3.094 2 .594 1.5.5 1 1.5 2 1.625 2.5.5 1 1.5 2 1.094 1 1.5 1 3.093 2 5.188 2.5 3.625 2.5 2.5 2 1.594 2.5 1.593 3 1 2.5.5 2.5 1.094 2 1 1.126 1 1.5 4.219 3.5 5.094 5 6.187 6 2.594 3.5 2.625 3 3.094 2.5 2.5 2 2.093 1.5 3.594 2.5 3.094 2.5 3.625 3.5 2.094 2.5 2.593 2 1.5 2.5 2.094 2.5 1.5 2 3.094 1 3.125 2.5 7.687 4 6.188 4.5 3.625 3.5 1.594 3 3.093 2.5 3.094 1.5 2.5 2.5 3.094 4 2.625 3.593 2.094 3 2.093 4 2 2.5 1.094 3.5 3.094 4 3.125 4.5 2.594 4.094L174 2077l4.094.5 2.594 1.906 2.5 2.594 3.125 1.406 4.094 1 4.687 2 3.094 2 3.625 2 2.5 1.5 2.094.5 3.593 1 4.594 2 5.719 2 4.094 3 3.093 2 1 1 1.594 2 2.5 1 2.594 2 2.125.407 2 2.593 1.094 3 2.093 4.5 4.094 5 2.594 4 2.125 3 .5 2 .5 1 1.594 1 1.5 2 1 2.094 2.593 6 2.094 6.5 1.094 4.594v1l-.5 4.5-1 6-.5 4.593.125 4.5-.5 2.5.5 1.5-.5 3.126 2.094 1-.5 2-1 2.5-.5 1 1 2 2.093 2.5 2 3.5 2.594 4.593 1.594.5h1l1-2.593 1.5-2 2.125-.5 3.094.5 4.093 1.5 8.688 6.5 1.125 1 2 1.5 2.094 3.5 6.187 7 4.094 4.5 2.625 3 1.094 3 .5 2.5.5 1.5 2.593 2 3.594 4.093 2.094 2.5 2.625 3 3.594 5 1 2.5 2.093 3.5 1.594 2.5 2.5 2.5 1.594 1 1 .5 4.125 3.5 4.187 5.5 2.094 2.5 1.5 5.094 1.094 2 1.5 3 1.625 4 2.094 4 2.593 4.5 1.5 2.5.5 3.594 1.094 3 2.594 6.5 1.625 2 3.094 2.5 5.093 4.5 4.594 3 3.094 2 2.625 2 2.594 2.5.5 2.5 1.093 5.093 1 5 2.688 8.5 1 1.626 1 1.5 1.625 4 .5 1 1.094 4.5v1.5l.5 2 1 2.5 1.593 5.093.594 2.5 2 3 1.094 2.5 1.5 1 1 .5 1.625 1.5v2l1 1 1.094.5 1.5.5 2.093 1.5 1 1.5 1.594 1.5 2 3 5.719 4 6.187 5 7.688 3.5 4.125 1.5 3.094 2.5 2.593 2 1 2.5 1.594 3 1 3.5.594 3 .5 4.594 1 2 .125 3 .5 1.5-.5 3-.5 1-.5 1.094.5 1 1.094 2 1 2.5 1.093 6.5.5 4 .5 2.093.594 5.5.5 6 .094 4.126.5 4v3.5l-1 5.093-1 4-.375 3.5.5 4 .5 3.094.594 3 2 2.5.594 2.5 1 4 .5 1.5v1.5l-1.5 3.094-1 1 2.593 1 1 2v2.5l-.5 1-.5 2-1 2.5.5 2.593.594 2 2 2.5 4.219 3.5 6.687 5 3.594 3.5 2.125 2.5 1 2.5 1 2 .094 3 .5 2.5v1.5l1.594 2.126 1.5 1.5 2.594 3.5 1 2 1.093 3.5.5 4.5.625 4.5 1 4.593-1 3.5-.5 4 .094 2 1.5 1.5 1 1.594 1.094 2v3l.5 3 .594 2v5.5l1.593 4.594-1 3-1 3.5-1 2.593v2.5l1 3.5 1.125 3-.5 2-1.125 1-.5 1 .625 1 .5.626 1 .374v2.626l.594 3-.5 6-1 3.593-1.5 2-1.094 1-1.5 3 2.188 11.594 1 2 2.094 3.5 2 3 1.593 2.5.5 1.5-1 3.594v3.5l1.125 2 1 1 1 .5 1.094 3.5.5 1.5 1.094 2.5 1.5 2 .594 2.5v9.593l-2 5.626-2 10-4 14.187-3 7-2.5 5.594-3.594 8.093-3.5 6.5-.5 3.126-2 3-1.594 3-2 3.093-1 2h-5.094l-1.625.5v1l1.625 2 .5 1-.5 1.5-.5 2.094-.5 2v3l-.5 3.5.094 1.5v1l-1.093 1.094-2 .5-.5 1.5v2l.5 1.5v2l-1.5 1.5-.5 1.093-.5 1v2.5l-.5 1.5-1 1.5-.5 2-1.5.5-.5 1.5.5 1.126v2l-1 2-.5 2-.5 1 .5 2 1.093 1.5.5 1-1.593 1.593h-1l-.5 1-1-.5h-1.625l-.5 1.5.625 1 1 1 .5 1.5v2.5l1.093.5.5 1 1 .5 1.594.5 1 1.5.5 1v1.5l-1.5 1.094h-4.094l-1.5 2v1l1 1.5 1.594 1 .5 2.5v3l-.5 3.594-.5 2-1 1-1.5.5-1.594 1.5-.5 1-.5 1.093.594 1.5v6l-1 1 .5 1.5 1.5 1.5.594 1 .5 1.5-.5 1h-1l-.5 1.626 1 1.5v1l-.5 1-.5 1.5-1 1-1 3v1.5l.5 1v1.593l1 1.5.594 1-.5 1.5h-1.094v1.5l1.094 1-.5 1-2.094 2-1.5 1-1 .594-.5 2.5 1 1 1.594 1 1.5 1.5 1.125 2 .5 2h-2.125l-1.5-1.5-1.094-.5-.406 2 .5 2.5.5 2.594.5 1.5-1 .5-1 1-1.5 1-.5 1-.5 1.5.5 2.5 2.125 3 2 2.593.593 1.5 1.5 2.5 1 1.5.094 2.5.5 1v1.5l1 1 1.094 1 1 1.5.5 1 1.094 1.5 2-.5 1-.5 1.125 1 .5 1v1l-1 2-.5 1.5 1.5 1 1.094 1 .5 1 1 2.5.5 2.126-.5 1.5-1 1.5-2.5.5-2.094.5-2 1-1 2.093-1 3.5.5 2.5 2.594 2 2 1H465l1-.5 2-.5 1.094.5 1-.593 1-.5 1.094 1v3.093l-1.594 1.5.094 1-.5 2.5.5 2 .5 1.5-1 2-1-1-.5-1-1.094-.5-1-.5-1 .594-1 1.5v4l.5 1v1l.5 1-1 3v2.094l-.5 2 .594 2.5 1.5 3 1.125 2h1.5l1-1 2.094-1 1 .5 1 1 .594 2.5v2.5l.5 2 .5 1.5.094 3 .5 1 1.5 1 .5 1 1.093.5 1 1-.5 2-1.5.593-1 1v1l.5 1 1 .5 1.625 1.5 1.5 6 1.094 4 1 1 2.094.5.5 1v1l-1 1.5-2 5.126v1l1 1 2.594 1.5 1.593 1.5 1 1v1l-2.093 1h-2l-1 1.093-.5 1 1 2 1 1.5 1.593 1 1 2.5 1.125 2 .5 1-.5 1h-1.625l-1-.5-2 1v1.5l1 2.594.625 2 2 5 .594 2v2l-.5 1-1 1-.5 1 .5 2.094.5 1 2.094 1.5 1.5.406 1.5.5 2.094 1.5 1.593 2 1 2.594 1 1 .625 2.5.5 2.5 1 2 1.094 1 1 1.5v3l.594 1 .5 1 2 2 1.594 2 1.593 3.5 1 1.593 1.5 1.5 2.125.907.5 2.093v1.5l1.094 1 1 1 1 .5.094 2.5-1.093 1-1 1.5-1 .5-.5 2 .5 1.5 1.093 1 1 2-.5 1.626h-1l-.5 1.5-.5 1 1 4 1.594.5 1.5-.5h2l1.094.5 2 2 2.125 2 3.093 3 .5 2-.5 2 .594 2 1 1.5 1 2.5-1 1.5v1.093l.094 2.5 1 2 1.5 2 1.594 2.5-1.5 3v4.094l1.125 2 1.5 2.5 2.094 1 .5 2.5-.5 2-.5 1.5-.5 2.5 1.094 3.5 1.5 3.594.593 2.5 1 4v1.5l-.5 1v1.5l1.094 2.5.5 2v2.093l.625 3.5 1 2 1 2.5.594 2 1 1.5 1 2.5 2.094 2.5-.5 1-.5 1.5-.5 3.126 1.593 1.5 1 2v3l-.5 1.5v2l.594 1.5-1.094.5-1 1.593-.5 2 1.094 1.5 1 2 .5 2 1.125 2v1.5l-1 2v1l-.5 1.5V3320l-.5 2v3l-1.5 3.5-1.5 5.594-4 10.593-3.5 9.126-5.125 9.093-5 12.094-4.594 7.5-4.593 6.594-4.5 5.093-2.094 1.5-2 .5h-1.594l-2.5-.5-1.625-.5-1.5-.374-1 2 1 1.5 2.125 2.5 1.5 3 1.594 3.5 1 4 1.594 3 1 1.5 1.593 1.5.5 2.093.594 2-.5 2-.594 1-1 .5-1.5 1v1.5l.5 2 .594 2V3434l.5 2 .5 1.5 1.125 1h2l1-.5 2.594-.094 1.5.5 1.594 2 1.5.5 2.593 1 1.094 1.5-.5 2-.594 1.094 1.094 2 1.5 1 1.625 3 2.094 2.5 4.094 4.5 4.093 3.5 2.094 1.5 2.125 2.5 1.5 2.5 1.594 3 1.5 3 .594 2 .5 1 2.093 2h2l1 .5 1.094 1.5 1 1 1.625 1.5 2 1 1.594 1 2 1.5 1.594 2 2.593 2.5 1.5 2.5 1.094 3 .5 2 .5 4.093 1.125 3 .5 2.5.688 1.907h3294.875l-39.719-35-11-9.688-3.687-3.312-27.313-23.688-43.594-37.812-1.28-74.594-.813-48.594-1-59.906-.188-11.719.09-49.281-.5-27.594-.719-42.812-.09-4.094.09-14.5.313-16.094.09-1.125-.28-15 .187-17.094.406-32.28.09-18.626.187-15.594.125-14.593.09-16.688.09-16.625v-1.375l.406-14.719-.406-48.78-.188-32.72-.125-15.093.125-50.313.09-12.094V2713.5l.09-16.688.06-50.312v-14.188l.09-16.125v-16.594l-.09-15V2583l.406-13.5v-1.594l.406-14v-16.094l-.06-3.219.375-13.906v-2.187l.406-13.594.407-134.219.06-11.781.09-14.906.312-17.407.188-13.28 1-71.5.218-12.907-.09-3.219.187-10.875-.09-16.812.22-24.188v-4.406l-.09-34.406-.189-50.188v-32.219l.09-16.093v-18.813l.06-13.5.406-53.875-.218-14.719-.375-68.906.09-51.375v-5.5l-.218-22.219-.282-31.593H11.627z" style="fill:#9faec0" transform="translate(0 100)"/><path stroke="#9FAEC0" stroke-width="10" d="m577 3512 .406 1.094 1 2 2.094 4 2.094 2 1 .5 1.5 2 3.093 1 1.625 2.5 1.5 1.5 1.594 2 1 1 2.594 3 1.594 2.5 2 1 1.593.5.5 2 1 1 3.125.5 2.094 1 2 1.5 3.094 3 2.094 2 .5 1.5 1.593 2 .5 3 1.125 2.5 1 1 .5 1-1 1.593-2.625 1 .125 1 1.5.5h1l2.094.5h2l1.594 1.5.5 1.5 2.594 2.5 3.593 2 1.5-.593 1-.5h1.625l1 1 2.594 2.5 6.188 6 4.718 4.5 1 .5-.5 1-.5 2v2.593l1 .5 1-.593 1.594-.5 2 1.5 1.594 1 2.094 1.5 1 .5.5 1.5 1 1 1.593.5 1 1 2.125 1v1.5l.5 2 .5 1 1.594 1.5 3.094 2.5 1 1.5.5 1 1.094 3.093.5 3v2l1.593 2 2.625 1.5 1 1 .5 2-1 3v1l1.094 1.5 1.5.5h1l1.594 1.5 1.5 1.5 2.094 3.5 2.593 3 2.125 1 3-.5h1.594l3.094 1 2 1.5 3.594 2 1.593 1.5 2.125 2 1 2v2l1 1 1.594 1.5 1.5 2 2.094 1h1.5l1.594 1 1.5 2 3.093 1.5 5.22 3 2.593 1 1 2 1.594 2 2 1.5.5 1 1.593 2 1.5 2.5-.5 1.5 2.625 2 4.188 3 2 1.5 1 1 2.094 3 .593 2.5 1.5 4.5 2.125 1.5 1 .5.5 1.5.594 2.5.5 1.5-.5 2.626-2 .5 1 2.5 1.594 2 2 2 3.594 1 2.093 1.5 2 1.5 2.125 2 1.094 2 1 2 .5 3 1.594 1.5 1 1 1.594 3 2.093 4.5-1.593 1.5-.5 1 1.593 1.5 1 1 1.125 1 3.094 4.093v1.5l1 2 1 1.5 1.594 1.5 2.094 2.5.5 1.5.5 2 1.593 1.5 1 1.5.5 2.5.625 2 1 1.5 1.594 2.5 3.094 3.5 3.094 5 3.093 3.594 2.625.906 2.5 1.5.594 2v1.594l-.5 2-1 .5-1.594.5-1 1.5 1 1.5 1.594 1.5 3.094 1.5 2 2 1.094 1 1 2 1.093 1.5 2.5-1 1.625.5 2.5 1 2.594 2 1.594 2 1.5 2.5 1.094 3 1 2 1.093 2 1.5 2 1.625 1-1.125 2-1.5 2.594-.5 1.5 1.125 3-.5 1 .5 1.5 1 2.5 2.094 3 1 1h4.688l1 1 1.593 2 .5 2 1.5.5 1.125 1 3.5.5 3.094 2.5 2.094 1.5 3.094.406 1.5 1 .593 3.594-.5 2.5.5 2.5 1.625.5 1 .5h2.594l.5 1.5 1.5 2 1.594 1.5 2.594 2h1.5l1.5 1 1.593.5.5 1.5 2.125 2.5 1.5 1 1.094.5.5 1 1 2.5 2.094-.5 2.5-.094 1.594 1.5.5 1 1.593 1.5-.5 1.594.5 3 2.125 1.5 1.5 3 3.594 3.5 2.094 1.5 2-.5.594 1-1 2.5 1 1.5.5 1.5 1.593.5.5 1.5 2-1 .5-1.5 1.125-.5 2 .406.5 1 1.594 1 1 .5H922l2.5.5.594 1.5.5 1 1 1.5 1.593.5-1.093 1.5.593 2h2.5l1.625 1 2 2 4.188 2 1.5.5 1.594 1 2.5.5 1.093 1 2 .5 2.125 1 2 .5 1.094 1 1.5 1L955 3928l2.5 1.406 3.594 2 3.093 1.5 4.72 3.5 6.187 5.5 2.593 3 3 1 1.625 1.5 1.594 2 2.5 3 1.094 2.5h2.594l1 1 .5 1 1.593 2 2 .5v1.5l.625 1 2.5 1 2.094 1.5 1 1.5 1.094 1 .5 1.5 1.5.5h2.094l2 .5 2.593 1 2.625 3 1.5 1.5.594 1.5.5 2.5.5 2-.5 3v1.5l-.5 1.5H1019l1.594 2 1.093 6.594v3l1 1 2.125.5.5 1.5.5 2.5 1.094 2 1.5 2 4.188 4 2.5 1.5 2.593 4.5 1.625 4.5 1.094 3 1 5.594.594 2v2.5l-.5 1 .5 2.5 2 .5h1.094l.5-1.5 1.5 1 1.593 1 2 2.5 1.125 3.5 2.594 6.5 1.094 5 2.094 3.593 3.593 5 1.625 4 1.5 6 1.094 7.625.094 7-1.5 8.594-2 9-.5 4.094-1 2.5-1 2h-1.5l-1.594-1-1 1.5 1.094 1 1.5 2 1 1.5 1.594 1.5 1 1 2.094 1-1 2.094.5 2.5 1.125 2 .5 2 1.5 1.5.593 1v2l.5 1.5 1.5 2 .594 1 2 1 1.594.5h3l1.094-.5 1-1.594v-2.5l-1.094-1-1-.5-1 .5-1.094-.406-.5-1.094-.5-2 3.594-2 4.094-2.5 3-1.094 4.125-1 6.187.5 6.188 1.406 4.625 3.5 3.593 3.5 2.594 1.5 2.594 2 2 3 1.594 2 1.625 1.5h1l2.5.5 5.28 15.094 1.5.5 1.907 1.188 1.188.718.625 2.094.5 2.5v1.5l1.593 2.5 1 .5 2.594 2.5 3.594 2.5v1.5l.5 1 1.5 2.5 1.094 2.5 2.625 5.5 1.093 3 .5 3 .5 2.094.094 2.5-.5 3.5-.5 2.5-1 3.5-1 2.594-1.5 4 .813 1.093.687.907 1.594-1 2-.5 2.594 2 2-2.594 2.125-.5h1.5l2.594 2.5 1.093 5.5.5 3.094-1 3.5v1.5l-.5 3 .5 2.5 2.094-.5 2.5-4 2.094-1 2 .906 1.125 1 2 1.5 1.094 1.5 2 2.5 2.093 2 2.094-1 1.5-3 2-2.5 3.094-3.094v1.5l-.5 1.594-1.5 5.5-.5 3v4l.5 2.094.625 1 1 2.5 3.187 12 1.5 1 3.688 4 4.125 11.593 1.094 1 1 1.5v1.5l1.593 3 1 3.5 1.094 2 2 2 2.094 1 .5 1.5.625 2 .5 1 .5 2.5 1.094 2.5 2 3 .593 2.625 2.5.375 1.594 1 .5 1.625v2l1.094 1 1.5 1.5 2.125.5 1.5.875 2.094 2 .5 1.625.5 1.5.593 3.5 1 2 1.594 1 2.5 2 1.094 1 2 3-.5 2.5-1 2-.5 2 .625 1.5 2 2h1.094l1 .5h2l2.093 1 1 .5 1.094.5v8.594l3.094 1.406 3.125-1.5 1.5.5.594 1.5.5 1 2.093 3.5 5.594 6 3.219 5 1 2-.5 2.094-1.5 1.5-5.719-2-1.5.5-33.094-35.5-3.593-4-.594-2-2.625-3.5-2-1.5-1.094-3-1.5-1-2.594-.5h-1l-2.093-2v-3l.5-1.5-.5-1.5-1.094-1.5-2-3-1.125-1-1.5-1.5-.594-1.5-.5-2.594-1.594-1.5-2-1.406v-3.094l1.5-2-1-.5-.593-1.5-3-1.5h-1.094l-1-1.5-1.625-5.5-1-2.5-2.094-1-1.594-2-.5-1v-2l-.5-1-1.093-2h-1.5l-.5-2-3.72-10.625-1-1h-1.093l-1.5-.5-1-2-.594-1.5-2-1.5-.5-1-1.093.5h-2l-1.594-.375h-2.5l-.5-1 1.5-1 1.5-.625 1.594-1-1.594-5.5h-1.625l-1-3-16.094-20-3.594-3.5-2.093-1-1-3-2.594-2.5-1.125-5.093-2-.907-4.094-3-3.687-2-.5-1-1.5 1 .5 3 2.093 2 1.594 4.5 1 3 1.094 1 1 2.5 1.625 1 1 .5 1 1.813 1.094 1.687v6.125l1.093 3 2.313 2.782 2.687 3.312 1.688 1.906 2.125 3 1.5 2.5.594 3 1 3-.5 2.594v3.5l.593 2-.5 1.5-1 4v1.5l1.594.781 1.5.719 1.5 1 3.094 2 1.625 2 1.5 1.5v2l.094 2.094-.594 1 1.594 1.5.5 1.5.594 2.5 1 3.5v3.5l.094 3.5.5 5.594-1 5-.907 7.093-2.5 8.5-3.5 10.625-4.593 11.594-1 3.5-4 13.188-5.5 13.593-5 13.125-3.5 10.594-4.094 9.094-3.5 9.594-3.5 9.5-2.5 6.093-4.094 8.625-3 5.5-2.5 6.094-2 6-2.594 4.594-1 2-1.5 1.5-1.125.312-1.5.282-1.5 1-2.5 1-1.093 1.5-1 1v1l.593 1h1.5l2.625 1h3l1.594-.5 1-1 1-.5 2.094.406.5 1 2.094 1 1 .5h2l2.093-.5h3.125l2 .5 1-.5h1.594l1-.094 1 1 1.594.5 2.594.5h2.5l3.593-.5 1 1 1.625 1 1 .5 1 1 2.594-.5 2.594 1.406.5-1-1.094-2.5-1-1-3.094-2-2.625-1-2 .094-2.093-1.5-1.5-.5-1.594-1-1-5 1-5.094 3-6.125 4.594-6.5 7.093-6.093 8.22-3.594 7.593-2.5 3.594-.594 4.093-.5 1.625-2 1-.5-.5-1.5h-1.125l-2-1.5-3.687-4-2.594-4-3.594-3.5-4.625-3.5-2.093-2.5-1-1v-1.5l1.5-.094 2.593 1.5 3.625 3 1 1 1.594-1 .5-2-1.594-5-1.125-1-2.5-1.5-1.593-2-.5-3-.594-2.5 1.094-1.625.5-3-.094-3.5v-2.5h1l1.093 1 .5 2.5-.5 2.5.5 3 .094 2.5v2.625l.5 1.5 2.125.375 3 .5h2.594l1.5-2.5 1-4 .5-3.594 1.5-4.5v-2.5l-.5-1 .5-1.5 1-1.093.5-2v-2h1l1-2v-1l-.5-1.5 1-1 1.5-1.594 2.094-1 1 2-1 1.5-2.594 2.094.094 3 1 1.5-.5 3-1 1.5-1 2.593 1.594 8.5v3l.5 2 3.094-1 2.125-1 1.5-3 1.5-2.093v-1.5h2.593l1 2.5 2-1.5 3.094-2.5 1-1.094h1.594l1.5-.5 1 1.5-2 1.5-1.594-.406-1 1.5-2.5 2-3.094 1.5-2 1 .5 2.593-.5 1-1 3-2.593.5-2 1.5-2.5 3.094-2.125.5-1.5 2-1 2.5-1 3.125-1.5 2 .5 1.5 2 2 2.625 1 .5 2.5.593 1-.5 1v1l.5 1.5h2.094l2.5.5 2.094 2.5 3.594-.5 1-1 1.5.875 2.125-1.5v-3.5l1-2.5.5-2 .5-1.5-.125-2.094.5-2.5.5-1.5 1.125-1 .5 1 2.593 2v9.594l-3 3v1.5l.5 1 1.594 2 2.5.5 2.594.5h2.594l2.5-1.094.5-1.5v-1.5l.5-1.5.5 1 1.125 2 1 4-.5 1-2 .594h-2.625l-2-.281-2.094-.219-6.188-.5-5.093.125h-4.125l-5.688-3-2.5-2h-1.594v1.5l2.094 2.5 3.594 1 4.094.688 4.624.812 8.782.375 4.594.5 4.624 1 6.688 1.406 6.187 2 6.72 2.5 5.093 2.5 6.688 3.907 6.718 4.5 8.782 6 4.625 4 2.593 2.5 2.094 1 .5 2.5 5.188 2.5 1.5 2 2.625 3.5 2.093 5 1 2 2.094 1 2-.5 1.594 2 2.094 3 3.125 2 1.5 2 3.093 5 3.688 6.5 2.594 5.5 2.125 5.093 1 3.5.593 3.5-.5 1v2.5l1 1 2.094-.5 1.5-.5 1 1.5.594 1-.5 2 .5 1h3.594l1.5.5 1.625 1.5 1 2.5.5 1 .593 1 1.5 1.5 1 .5 2.094.5h3.594l1.5.5 2.094 1 2.125 2 2 1.907 4.093 1.5 2.094 2 2.594 2.5 4.094 4 1.625 4 .5 2.593v1.5l2.093 4-.5 3 .594 3.5 1.5 3 2.094 1 3.094.5h1l3.125 1 1.5 1 1.593 2 2 1 1.094 2 2.594 1.5h1.5l1 .5 1.594-.593v-1l.5-1.5 1.5-1 2.625-1 4-3.594 4.593-2 3.594-2.094 3.094-.5h2.5l2.594.5 3.625.5 5.687 1.375 5.594 2.5 5.719 2.5 2.093 1 1.5 1.5 1.594 1.5 2 1.5 3.594 4 2.594 3.5 1.625 1.5 1 1.5v1.5l.593 1.5.5 1v1.5l1.5.5h3.094l1 .5.594 1v1l1 1 1.594 1 1.5-.5h1.5l1-.5 2.125.5 1.593.906 2.5.5 1.094 1 1.5.5 1 1 1.094.5 2 1.5 2.094 2 2.125 3 2.093 4 1 3 1.5.5 2.094 1 1 2.5 2.594 1 2.094-1.5h1.5l1.5.5 1.625 1.5.5 1 1.093 1.5 1.5 1 1 1h1.594l2 .5 1.094 1 1 .5.5 1.5 1 1 1.594 1 .5 1 .5 1.5-.5 1 1.625 1 .5 1 1 1 1.093.5 1 1 .5 1 .594 1.5 1.5 3v1l1.094 1.5 3 1 3.719 2 2.5 1.5.593 1.5 1 1 .5 1.5-.5 2.5 1.094 2v1l2 2 1.094 5 1 .5v-4.5l.5-1.5 2.594-1 1.5-1.093.5-2.5 2-.5 8.218 1 2.594.406 4.094 4.594 4.094-.594 3.625-1.5 2.093-1.5.5-2.094 4.094-1.5 2.5 1 1.594 1 1.5.5h2.594l.5-2.625-.594-2v-2l.5-1.5 1.594-.5 1.5-.5 1.5-3-.5-1.594-.5-2-1.594-3-1.5-2-.594-2-1-2 .5-1.5 1-6.5-.094-2.093-1-2-3.594-.907-4.125-3-3.593-2.5-2.094-1.5-2.094-2.5-.5-2-1.594-2-2.5-1-1.625-1-2-2-.094-3 1-1.093 2.594-1 1.5.5 2.625-.5v-3l-1.625-3-1.594-5.094-1-2.5 1.5-1.5 2.594-1 4.625-.5 3.094-.594 2 .5 1.094 1.5 3.593 3 1.5 1.5 2.094 1.5 2.625 2.5 1.5 2 1.594 2.5-1 3.594-1 4 .5 2.5 1.594 3 2.093 3 3.594 3 2.625 1.5 2 .5v-1.5l-2.125-3-2-1.5.5-1.5 1-2.094 2-.5 1.625 1 3-1 3.094.5 3.094-2.125 2.5-2.5 1.5-3 1.593-1.5 2-.594.5-2-1-2-2.593-2-2.594-5.5-2.094-2.5-1-1h-5.719l-2-.406-2.593-2.5-2.094-1-2.5-.5-1.594-3.5-2.625-2-2.594-1.5-1.5-2.5.5-1.5 1.5-1.594-1.5-2.5-.593-2.5-1-3-2.594-2-2.594-3-3.625-1-4.094-.406-4.093-2.5-3.094-3.5-2.594-5.5-.125-6.594.5-1.5-.5-2-2.594-2-.5-2 2-.5 2.094 1.5 2.125 2.5 3 .5 2.094 3 3.094 1.407h2.593l2.5-2 3.094-1 3.125-1.094.5-1.5-.125-2-.5-1.5-4.594-1.5-2.593-2v-2l-1.094-3.5-1-3-1.094-3.5-2-1h-2.625l-1-1.5.5-3 1-4 1-1.594 1-1.5 2-.5 4.719 1 3.5-2.625 2.094-1.5 1 .5h2l1.593-2 .5-3 1-2.094 2.5-3 1.5-2 3.594 1 2.625 2.5 2.594 1.407H1590l3.5-1 1.593-1.5 1-3.594-.094-3-1-3.5-3.093-2-.5-2.5-1.594-2.5-2.625-1-.5-2-5.094-1.5-3.094-3.5-3.593-1-3.594-1.906-3.125-1.5-2.094-2-2.094-2.5-2.5-1.5-2.593-1.5-2.094-1.5-1.625-4-.5-3-1.094-5.094-.5-3 .5-3 1.5-6 3.5-7.594 1.5-2 .5-1.125-1.5-2v-1.5l.5-2 1.5-5 2.5-4.594 2-4 1.5-5 1-4.593-.5-4-.094-3.5v-11.094l-2.594-2.5-.594-1v-8.594l1-3-4.218-4-2.5-2v-1.5l3-1 4.093-1 6.22-1.125 5.593-1 6.187-.594 6.125-1 2-1 2.094-2.593 2.5-2.5 1.094 2 .5 1.5-.5 1.5 1.5 2.5 2.094-.5 4.593-2 4.125-.594 4.594-2.5 3.594-4.094 4.594-2 5.093-4.125 3.5-3.5 3.625-4.594 3-6 1-2.593.5-4-1-2 1-2 3.094 2 7.188 1.906 6.093 1.5 6.72 3 9.78 5.5 7.72 3.406 6.687 4 5.718 4 4.594 3.5 3.094 2.5 3.094 3.5 5.718 4.5 5.188 3.5 4.594 2.375 3.093 2.5 2.625 3 3.094 3 3.094 4 2.094 2 1 4.125 6.812 9 3.094 6 3.594 4.5 2.093 2.5 2.625 2 2.594 3 1.5 2.5 1.594 3-.5 3 4.094-.5 4.093-1 1.5-2.125 1.5-2.5 1.625 2 2-.5 1.5-4v-3.094l-2.625-6.5-1.593-2.5-1.5-.5-2.094-2v-3.5l-2.094-2-6.219-7.5-5.687-9.5-5.188-9-.5-4.093-2.625-7.5.907-4.5 1.5-6.594-.5-5.5-3.094-4.5-3.688-2.5-4.125-4-1.593-5.5v-2l.5-5.094 1.5-2.5.5-3 .5-2-.5-3.125-1.594-1.5-4.594-.875-4.094-1.5-2.125-1-3.593-6-1.594-2-3.094-.5-3.094-3h3.594l1.594-.5.406-4.125-.5-2 1.5-.5 1.094-1-.094-2.5-.5-3.5 2-3.594 1.594-2 2-3.5 1-4.593-2.094-5.5-.094-5.5.5-2.5 3.094-3.594 5.094-2.5 3.093-2.094 3.5-2 2.594-2 1.5-3.625 2-7 1-2 .5-2.094 2.625.5-1 3.594-1.5 4-.5 3.5-1.5 3-2.625 3.125-4.594 2-3.593 2.594-2 2-3.094 2-2.5 2.094-1 4.5 1.594 4.5 1.5 4 .094 2.5-.5 2.593-3.094 4-1.5 2.5-1.5 3.094v4l1.594 5 1.593 3 .5 2 2.625.5 2-1 4.094-1 3.594.406 2.594 2 1.5 1.5 1.593 2.5 1 .5 2.125.5 1.5 2.5-2 3.094-1 2 1 2.5-.5 2.5h-1.5v3l-.5 4.125-2.5 5-1 3 1 2 4.688 1 5.094.5 3.593 2.5 3.125 1.5 3.094 4.5-.5 2-2 1 1 2.5-.5 2.5-1.5 2.094-1.5 1v3.5l-.5 1.5-2 3-.5 2.094-.5 2.5-1 2 1 4 2.094 3 1.594 5 3.093 3.5 1.5 3 2.625 4.093 2.688 5.5 3.594 4.5 5.218 7 1 2.5 2.094 2v1l1.5 1.5 1.594 1 1 4 1.094 2 2.093 3 4.125 2.5.5 1.5 2.594 2.5H1796l6.187-.094 3-1 2.625.5 1-1 1.594-1 2.5 2.5 2.594 2.5 2.094 2.5h2.593l2-2.593 1-3 1-3.5 2-.594 2.625.5 2.094 2.5 1 3 1.094 2.594 3.094.406 1.5 1 1.093 2.5 1.5 2h2.125l1.5 2 1.594 1.5 1.5.5 1.594 2 1 2 .5 2.5-1 2.594 1.094 1.5 2 .5 5.218.406 4.594 1h3.594l5.594-.125 5.593-2v-1.5l3.125-3.094v-3l2-3 7.094-12.094 5.594-5.593 7.094-6.594 3.593-3.5 6.125-6.625 5.094-4.094 5.594-5.094 3.5-5 4.094-3.093 3.593-6 2-4.094.5-2.5.407-3.5v-1.5l-1-.5-2-.5-1.094-1.5-1.5-1.5 1.5-1.5 2-.5 3.594-1.125 2.593-2 .5-3-.593-5.094-.5-4-.094-4.5v-3l2.5-5.094 1.593-.5 5-8.593 4.594-6.5 3-5.594 4.625-4.125 5.094-1.5 4.687 1.5 4.594.5 4.125-3.094 3.5-3.5 2.094-1.094 2.5-2.5 3.594-2 1.5-3.093 2.593-3 1.5 1.5-1 3.5-1.5 3.593-1 2-1.5 1-3.093.5-3.094 1-3.094 1.594-2.5 2.5-4.125 3.094-2.5.5h-2.594l-2.593-.5-3.094-.5-3.5 1.125-3.594 4-3.625 5.094-4 7-4.594 8.093-2 2.594-1 3-.5 2.5.5 2.5.594 2.5 2.5.5h3.125l3.094-1.5 3.594-1.094h2.5l4.093.5 3.094-1.593 4.625.5 4.688.5 2.5-1 6.687-2.094 4.125-1.5 3 .5 4.188.875 2.5 2.5 2.593 2.5 4.219 6 2.594 4 2.594 4.125.5 3.5 1.093 3.5-1 3-2.093.5-3.094 2.094-2.5 1.5-1.5 1.5-.5 1.5v2.5l-3.094 1.093-2 .5-3.125 2.5-2 .5h-1.594l-2 .594-3.593 2.5-2.594 1-2.5.5v1.594l2.594 1.406 3.093 1 4.094 3 4.125 1.5 2.094 2 2.5 1.5 1.594.5h4.593l2.594.406 2 3 1.625 1.5 2.094 1.5 2 1.5 2.094 3.5 1.593 1.5h3.5l3.094-1 3.625-2 2-1.593 4.094 2 1.094 1.5 3.593-.5 3.594-1 4.625-1.094 2-1.5h2.094l4.594-1.125 6.593-1.5h3.594l4.125-.094 2.094 1 1 1.5 1.094 3 1 1.5-2 2.093-.5 1.5-1 1.5-2.094.5-3.094.5-1.5 1.625-1 3v2l.594 3v2l-.5 1.5-2.594.094-5.625 2.5-3.094.5-1 .5.5 2.594 2.094.906 3.125 1h9.188l8.687 1.907h6.219l4.094-2.625 2-2 4.093-.5 4.594-.594 5.125-4 4.594-2.094 4.094-3.5 1-3 1-4.094 2-2.5 5.093-1 6.219-.593 6.188.5 8.687 2.875 5.719 2 2.5 1.5 7.187 3 5.719 1.406 4.094 2.5 6.187-.5 6.094-3.594 6.125-4.594 3.594-3.5h1l3.094-2 4.593-1.593 5.594-4.125 4.125-2 2.5-1.5 5.094-4.094 3.094-2.5 1.5-.5 3.593-.094 29.594-28.313 4-7.093 2.5-5.094 3.5-11 3-8.094 2-6.094 2.125-6 2.5-5.125 3-4 1.5-2.5 2.594-4.093 6.094-4.594 2.906-3.813 2.781-.687 3.438 1.437.062.062h.125l3 2-1.5 2.5-5.625 1.5-4.094 6.094-3 7.094-4.594 4.5-2 4.125-4.594 12.094-1.906 13.093-2.5 6.5-3.594 6.094-5 9.094-1.5 3.5-2.593 5.625.094 4.5.5 6-.907 5-3.593 3.594-1.5 2.5-3.094 1.093-3.125 1-6.594.5-6.187-.406-4.094-2-1.625-1h-2l-1 1-5.094 4.094-8.187 4.125-4.094 1.5-4.625 3.594-4.094 1.5-5.094 4-6.093 2.593-3.094 2.5-2.5 3.094-.5 2 2.5-.5h1.594l1.5 2.5-2 3-1 3.5.593 4.094.5 4 1.594 2 4.594 2 4.125 1.906 4.094 3.5 5.187 1 4.094 1.5 4.625.5 9.687-2.094 5.188-2.593 7.125-5.094 4.594-2.5 7.687-4.125 4.094-1.5 5.125-2.594 4.594-2.5 2.5-4.094 3.093-2 3-3 3.094-4.093 2-3 .5-4.5-.094-6.094-.5-4-1.594-4.5 1-3 2.5-2.625 1.594-3.5 4-3.594 7.187-4 7.22-.594 6.093 2 6.687 4 4.72 3.407 1.5.5 2.593-1v-3l.406-3.5 1.594-3.594 4-3 5.687-1.625h2.5l2.625-1 2-1.5 2.094-.5 3.094-.594 4-.5 6.187 2 2.625 2 5.688 1.406 5.594 1.5 5.218 2 5.594 2 4.094 1.907-2.5 2.593-4.094 1 2.594 5 1.094 3.5-.5 2.594-.5 2.5 1 3.5 2.093 2.5 3.625 2 3.094 3 1.594 2.5 1.5 4.5-1 1-1 3 1.594 1.5 2-1 3.093-1.5 2-1.5 3.625-2.594 3-2h3.094l2.594 2 .5 2.5.594 3.5v4.5l2.593 1.5 5.625.5 4.688-.094 3.5 1.5h2.594l2.093 3.5 1.625 2.5 1.5 2 2.594.5 6.688 3 1.5 4.5 4.218 1 4-3.593 1.594-1.5 2-2v-1.5l4.594-2.125 7.094-5.094 2.593-1.5 5.625 2.5 1.594 1 1 3.5 1.594 2.5 1 2h6.187l4.125.406 5.094 1.5 7.687-2.094 3.094-.5v2l8.22 1-.5 3.5-5.595-1-2.125-1-11.187 1.594-5.688.594-2.5 2-4.718-1-2.5-2-9.407-11-2 .094-2.093.5-2.5.5-3.094 3.5-3 2.625-3.094 1-.5 1-3.594 3.594-4.625 2.5-4.093-2-3.594-3.5-3.594-2-1.594-1.5-1.5.593v2l1.594 2.5 1.5 2.5-1 1-2.5-1-3.094-3 .875-5.5-.5-3.593-1.593-2.5-2.5-1.5-3.094-1.407-1.594 1-2 2-2 3.5-2.594 3.594.594 2.5.5 4.5 1.094 3v6.594l-1.5 3.5.5 2.5 3.594.5 4.093-.5 3.125-2.594 3.594-1 3.094-.5v2l-5.688 2.5-2.5 1.594-2.625 1.5-1 1.5-1 5.5-.375 2.625h-2.125v-2.5l-.593-2.625v-4h-1l-2.594-2-1.5-2 .406-3.5 1-4-2-4-1.094-3.5-1.625-2.594-1.5-3-2.093-3-1.5-1.5-.594-6v-3.5l-5.688-2-6.125.594-3.593-.5-4.188-2.5-2.094-6-1-4.094-3.125-1.906-5.687-2-2.5 1-.5 3-2 3.625-1.5 7.5-1 10.594-2 6-.5 2.593.094 3 2 5-1 3-3 1.094-3.594 1-4.093 2-4.594 3.594-4.125 4.5-2-1.5-5.688-7.5-3.093-5-4.72-3.5-3.093-2.5-1.5-4-2.094-1.5-2.593 1.125-1.5-4.625-1.094-2 3.594-2.5 2.5-3.5 1-.094 2.093-3.5 1.5-5 2.5-3.094 3.594-1 1.094 4 1 1.5h2.625l3.5-1 3.594-2.594 4.593-2 4.594-1.593 6.219 1.5 3.594-.5-.094-4.5 1-2.625 4.093-2 2.094-2-2.594-5-1.093-3.594v-5.5l-.125-4.5-1-1-4.594-1.5-5.688-2-3.093-3-4.125-2.5-2.594-.406-3.594-1-4.594 1-6.593 1.625-2.125 1v4.5l-.375 3.5-2.125 3.093-4.594 1-4.594.594-6.094 1-7.218-3.5-3.688-3-6.094-2.906-5.718 1.5-2.5 1.5-4.594 3.594-.5 5 .594 6.125 1.625 6v12.093l1.593 1.5-.5 1-.5 1.5h-4.093l-3.125 1-5.094 5.594-2 1.5-1.5 2.594-2 5-3.094 2-2 2.094-3.594 2.5-3.093 2-3 1.125-3.625 1-6.188.5-1.5 2.093-1 3 1.5 1.5 2.594 1 3.594 1 3.625 1.907 2.593-1.5 2-2 4.094-2 4.594.875 3.594 1.5 1.625 2.5 1 3.5 2.093 2.5 2.594 2-2 1.5-2.594.625-2 2-3.093 4-1.5 1.593-3.125.5-.5-2h-1l-3.094.5-.5-2-2.094-1.5h-1l-1.594 1.5-2 2.594h-3.093l-5.125-1.5-4.688-3.5-7.187-2.906-9.813-5.5-5.094-1.5-1 1-5.218-.906-3.5 1-2.594 1.5-3.594 1.625-3 1.5-4.594.5h-3.593l-13.907-2.407-15.906-3.406-4.187-3.5-3-1-3.125-.5-3.094-.406-2.094-1h-4.594l-2-1-3.718-2-2-.5-3.594-2-2.594.594-2.5-.5-4.687-.5-5.125-1-3.594-2.875-6.188-2.5-3.093-2.5-1.625-3-3-.5-5.688.5-5.094.593-5.093-.5-3.625-1-3.594-1.5-6.688-1.406-7.218-1.5-5.094-1.5-3.094-1.406-1.594-2-2.593-1-4.125-.5-1 1.5h-6.688l-7.687.094-4.125.5-3.594-.375-3-1-3.594-2.5-2.594-2-2.593-1.5h-2.625l-4.594.5-3.594.094-5.594-2.5-3.593-1.5-6.72-.906-3.593-1-5.687.5-4.625 2.093-4.594 1-5.094 2-3 2.094-3.594-.5-5.218-2h-3.594l-2.5.125-1.594-.5-1.5 2-.5 2.5-4.094 1.5-9.718 2.594-11.782 4.094-8.718 2.093-5.594 4.094-6.094 5-4.594 3.625-3.093 1.5-3 .594-2.625.5-3.094 2h-4.094l-5.094-1.906-5.218-2.5-5.594-3-4.688-6-4.718-9.5-3.594-5.5-4.688-4.5-6.593-1.5-7.813-2-6.594-2.407-8.312-1-8.688-.406-7.218-1-5.594 1.125-3.094 2-3 2-2.094 1-3.093 1.094-2.5.5-2.625 3-.375 4.094-1 3.5-2.625 1.5-3.594 2-3 1.093-1 4.5-1.5 4-2.094 2.594-2 2-2 3-2.594 1.125-1.5-.5-.5 2.5-1 2.5-2.593 2-4.125 3.594-3.5 2-4.094.094-5.188-.5-3.5 1-5.218 3.094-8.094 5.593h-6.188l-5.093-2-3.125-3-2.094-2.5-4.094-.5-3.594.125-2.593-2-1.5-1.5-2.125.5-1 1.5-1 4 1.125 2.594.5 3 1.593 3 .5 2 2.094 1 1.5 1.5-.5 4.5-1 3.5-2 3.094-2 4-2.094 2.5-2 2.594-2.5 1.5-4.718-1-4.594-.5-2.5 2.593.5 3.5v2.5l-1.5 2.5-2 .125-4.594 3.5 1.5 1.5-.5 1.5-2 1-2.094.688 2.594 1.406-1 2.5-2 .5h-2.094l-3.093-2-3.125-1.5-2.094-3.5-1-3-2.594-1h-1.5l-2.594.5-1.5.094-2.093-.5-1-1.5-2.125-.5-1.5.5v2l.5 1 1.625 1.5.5 1.5.5 2 2.593 2 2.094 2v2.5l-1 3.094-.5 1.5h1l2.594-.094 2 1 1.094 2 1.5 2 .625 2.594-1 2.5-.5 1.5v2l.5 1.5 1.093 2.5 2 1.5 3.094-.5 7.188 2 3.625.906 1.093 5.594 2 2 2.594 2 1.594 3v2l-1 1.5-2.094 3.5-.5 2 2.094.5 1-2 1.5-1.5 2.594-1 3.625 2 3.593-.594-2 4.594 3.594 3 4.094-.094.5-3-1.094-2-.5-1-1-4 3 .5 3.094 3.5 1.594 1.5 3.625-2.594-.125-2.5 3.625-1 3.093 1.5-.5 4-1.5 1.5 2.094 1 4.594-.5 3.594-1 4.625-.594 4.593 2 4.094 3.5 1.594 2.5-1 3.5v1.5h2.594l2.625 1 2.593 3.5 1 3.5-2.593 1.094-1.5-.5-2 .5.5 1.5 2.093 3 1 4 2.094 3 1.094 5 .5 5.094-2 1.5-2.094 1-1.5 1 2.594 3 2.5 1 1.594 3 2.625 8.093 1.593 8 1.094 5-.5 2.5-1 .5-1.5 2.094 1 1.5 1.594 1.5 1 4v1.5l-1.5 1.5-6.688 1.625h-2l-2.093-.5-1.5-1-2.125 1-1 1-3 1.594-3.094.5-4.594 2.5-.5 1.5 1.5 2.094 3.594-.094h3.094l1.625 1 2-1 1-1.5 2.593-.594 2.594 1 1 1v1l-3.094-.406h-1.5l-2.593 3.5-1.5 3-2.5 2.093-2.625 1h-2.594l-2.5.5-1 .5.5 2 3.594 1 1 1 2.125 1.5.5 1.5.593 2.5-1 3.594v1l4.594.406 6.094 2 7.219 1 5.687.907 4.594-2.5 5.094-.5 4.125.906 5.187 2.5 2.594 3 1.5 1h4.094l2.125 2 2 2 2.093 1.5 5.094-2.625 3.094 1.5 3.094 3 1.625 4 1.593 4.5 3.594 3.5 4.094 2.5 3.594 2.5 3.125 4.5 1.593 5.625 1 .5 1.094-.125 1.5-1 1-1 1.594 2.5v2.5l2.594 4 1.5 2 .625 2.125 1.5 3 1.093 1.5-.5 2.5-2.093-.5-2.625-2.5-1-1.5v2l1.125 2.5 2.093 5 2.5 3.5-1.5 2.594-2-1.5-2.093-5.094-2.625-5-1.094-2.5-3.094-2-2.5.094-3.094-1h-4.093l-2.125 1-1.5 2-1 3.594-.5 4-2 1.5-3.094-1-3.594.094-1.5-2-.594-2.594-1-1-1 1.094-.5 1.5.5 2.5 2.094 2.5 3.094 4 4.594 2h1l3.718 2.5 3 .906 2.594.5.5 2.5-2.5 2.094-2 2.5-1.594 1h-1.5l-2.093-.5-1 1.5 1.093 1.593 1.5 3.5 4.688 3.5 3.594 2.407 3.125 4.593 3.593 2.907 2.094 2.5 2.594 1.5 2.5-.5 1.5-3.5v-4l.5-3.094 1.5-2.5 3.594-1.5 5.125-1.094 1.593 1-1.093 1.594-2.5 4 .5 2 5.187 4 4.594-1 2.094 7.5 3.125 7 2.093 5 1.594 3.5 2.094 1.5h1.5l1.594 2 1 2 2.625 1.5 1 1 2.093 5 2.594 3 1.094 5.594 1.594 6.5 2.625 6.5v4l.593 4.093-.5 2 1 3.5 1.094 2.5.5 3-.5 3.5-.5 2.125 1 2 1.094 1 1.094 6v6l.5 3.094.125 1.5.5 4.5 1 2.5.593 2.5 1.5 2-.5 2.5-2 2.594-.5 3.5v2l.594 4.5.594 6.094 3.094 5 3.625 7 3.093 6.5 1.594 4.5 2.094.5.5 2v1.5l.594 3.5 4.125 6.593 2.593 4.5 3.094 5.5 4.188 14 1.625 5.125-.907 14.594.594 6 1.5 2.5 2.094 1 1 .5 5.219.5 4.593-.094 4.094-.5 2.5-3.625 2.094-.5.5 2 3.594 3 5.718 2.5 5.094 1 4.594 1 2.594.906 4.125 2.5 3.093 2 .5 1.5-2 .5-1.5 1.594v3l1 3 1.094 4v3l-.5 1.5-1 2.125 1.094 4 .5 2.5 2.094 3 4.125-.5 4.093-2.625 7.688.5 8.219.406 7.187.5 9.188-.593 7.718.5 4.094 2.406.5 4-3 1.594-6.687-2.5-8.72.593-4.093 1-2.594 1.594-1 1.5.594 7.5-2.594-6.5-.593-2.5-4.125-2-3.094 1-4.5 2.625-2.094 4 1.594 2.5 5.719 4h-4.125l-3.094-2.5-4.094 2.594-4.594 1.5h-4.093l-3.125-.406-3.594 2-3.094 1-2-1.5-1.594-3-2-.5-2.093.094-3.625.5-2.5-2-1.094-1h-1.5l-1.594.5-1-.5-3.594-.5-3.093-.907-3-.5-.125-2.5-3.094-3.5-2.594-2-4.094-2-6.218-3-3.094-4-3.094-2-1-3-2.094-5.5.407-8.093-.5-7.5-.625-3-.5-3.594-.5-1.5-1.594-3.5-3.094-4-1.594-1.5-4.093-2-2.5 1.094-3.625 2-3.094 2.5-1.5 1.593-1 1v1l1 .5.594 2-1.594 1.5-.5 2 5.219 2h1.5v2l-2 .5-3.125.5-2 .125-1.594-1.5-1.594-3.125 1-4-1-1-2 .5-3.094-1-2.593.125-1.5-2-1.125-4.125-2.094-1.375-5.094-5-2.594-4.625-1.093-4.5-1.125-3.5-2 .5v1l-1.5 1.625h-2.094l-2-2-3.094-2.5-3.594-1-2.593 1.5-1.5 2.5 1.5 1.5 4.187 1.5h3.594l3.094 3-4.094 1-1.594-1-3.094-1.406h-3.093l-4.125.5-1 1-3 5.094-2.094.5v-5l2.5-5.094 3.094-3.5v-2.094l-.094-3 3.093.5 4.125-3 4.094-3.125.5-2.5-3.219-6-2.5-2.5-3.093 1-2.594-1-2.594-.5-4.094.125-1.5-1.5-3.125-2-2 1-1.593 1-1.5 3-2 2.094-2.094.5 1.5-4.094 2-5 1.594-3-2.094-2.5-2.594-2-2.594-1-4.125.5h-2.5l-2.093.094-1.5 1.5-3.094 2.5-2 3.5.5 2.094.594 2.5-2.094 2.5-2-.5-.594-3v-4.5l1-4.594 2.5-2.5 3.594-1v-5.094l-1.094-2.5-1.5-4-3.094-4-2.125-2-4.093-3.5-3.094-1.5-2.094-.5-2.5.594-2.594 1.5-4.125.5L1731 4969h-5.094l-1.5 1v2l2.594.5 1.5 1.5 1.094 1.5-1.094 1-2 1-.5-2-3.594-1.5-1.094-4-1-1-2.625-1-2.093-2-2-2-3.594-1.906-2.594-2.5-1.594-1-2-2-2.125-3-1.093-3.594-1.5-3-2.594.594-4.594 1.5-4.594 1-6.218-.407-7.188-2-3.594-1.5-5.718-5.5-4.594-5.5-1.594-1-1-1-3.094-2.5-2.125-2-1.5-4.5 1.5-2.5 2.5-1.5 2.125 1.5 1.5-1.093 1.5-3v-2l-2-2 .375-4 1.125-1.5-1.125-2.094-3.093-1.406-3.094-1-2-1-1.594-1-1.5-3.5-1.594-3-1.625-2.5-3.593-.5-2.5 1-1-1.5.5-1 1.5-.5-1.094-3V4883l1-2.5 2.594-1 2 .5 4.093-1 1.5-3.094v-2l-2.5-.5-2.593-2-.594-3 1-2.5 3.094-2-1-2-5.094 3-1.094-2 2-3 2.594-5.094v-1.5l2-6-.094-5.125-1.594-7.5-2.125-6-1.094-5.593-.5-7.5v-2l2.5-1.5 1.5-1.094-1-2-1.593-2.5 2.093-2v-3l.5-1.5h1.5l2.594-.094 2.5-3 1.5.5 1.125 1-.5 3-.5 2.5 2.594 1.5 1.5-.5 2.094 1 1.5 1h1.593l2-2.5v-4.094l3-3 2.5-3.5-1-1-3.593-2.5-2.094-1-2.5-.5-2.094 1-3.625-.5-1-2.5-.5-2-.594-3-1-2.5-2.593-1.5-.5-2.5 1-1-.5-1-3.094-1-.5-1 1.5-1 2.5-3.125v-1l-1.5-1 1-2v-1l-.594-4.5v-2l-1.625-5.594-1.687-23.593-1.594-3-3.094-3.5-4.625-7.5-1.594-2-2.093-2-2-2.5-3.594-2-2.594-.5-4.125-1-3.594 1.593-3.093 1-2-.5h-2.094l-2.5.5h-1.594l-1 1.094-2.625-2-2 .5h-3.594l-1.593-.5-8.094 2.125-4.094.5h-4.125l-2.094-1-3.593-3.5-3.594-.406-1.094-1.5h-1l-1.5-1-.5 2 1 2.5v1.5l-2.5 6.094-1 3-1 2.5-1.5 3-2 2.593-3.125 1.5-3.594 1-2-.5-3.687-1.406-4.094.5-2 2.5-2 .5-3.125 2.625-1 2.5 1.625 6 1.094 5v9.594l-.406 7.094 1 3 .593 4.5 1 4 .094 5v6.093l1.125 11 .594 7.594 2.094 7v4l.594 3.125.5 2.5 1.593 11 1.625 7.094.594 5.5.5 5.5.594 4V4854l-1 2.5-.5 2 .594 2.5 1 2.5.593 5.593v6.5l-.5 5.5-.375 11.094-.906 11.125-.5 5-.5 1-1.5 1.594-.5 1 1 2.5-1 4.5 1.094 3v1.5l-3.094 1.594-1 1v1.5l1.094 3-1 2.5-1.594 1-1 1-2 1.093-1.594.5h-1.5l-1.125-1-1-1-1.5 1-.5 1.5-1.593.5-2 .5-1.5 2.594 1.5 2.5.593 2v2l-.5 2.5v5.625l.125 2-1.125 1-.5 1-.5 1.5v1.5l1.125 1 1 2v1l-.5 1.5v1l2.094 1 .5 2 .5 1.094-.5 1.5.094 1.5-.5 2 .5 2 .5 1.5v4l-.5 2.5-1 3.594-.906 3.5-1.094 1.5-.5 1.5.094 3.593-.5 1-1.594 1.5v1.5l.594 1v1.5l1 1.5.5 1.5.094 2.5.5 1v5.594l1.625 2 2.094 4.5 2.594 4 1.5 1.5 2.093 2 3.094 3 .5 2 1.125 2.5v5.5l1 1.5 1.094.5.5-1v-2.5l1-1.5 2-2.5 2-.5 3.094-1.094 5.187.5 4.125 2.5 5.594 2 4.687 2.907 4.594 6.593 2.625 3.5 4.188 8 1.593 4 1 5.5 1.094 6.594 1.125 8.5.594 9.125.594 5.5v4.5l-.5 2.5v2.594l1.093 3 1.5 2 2.094 3-1 3 1.625 2.5 1 1 1 2 .594 2.5.5 4.5 1.094 3.094 1 1.5 1.593 1 1 1 1 2.5.594 3v1.5l1.5 2 1.625 1.5.5 2.5.594 1.5v3.5l-.5 2.593.5 1.5v1.5l1.094.5 1 1 1 1.5 1.593 1v1l.5 2.5.5 1 1.094 1 .5 1.5 1 2 1.625 1.5.5 2 .594 3-.5 1.5 1 4.594.5 2.5 1.594 2.5 1.593 1.5 1.5 1.5.5 2.5.594 1.5.5 3.5-.5 4-.5 3.125-.375 3.5.5 2.5v4.5l-.5 4.094-.5 2-.406 3.5-1.594 2.5.094 2.5.5 2.5-1 2.594-.5 2 .5 4.5-2 7.093-.906 5V5268h4265.781l-40.812-35.813-38.688-33.375-50.625-44.406-9.78-8.5-75.407-65.813-1.594.094-105.094-92.281-63.812-56.094-30-26.406-22.094-19.594-25.813-22.719-67.687-59.093-92.906-81.188-62.313-54.406-33.187-29.094-29.313-25.312-38.375-33.594-29.5-25.719-40-34.781-56.125-48.813-98.094-85.78-50.687-44.313-10.813-9.5-36.093-31.594-25.188-22.219-46.625-40.594-30.78-26.687-7.314-6.406-34.187-29.813-23.313-20.281-107.78-94.5-10.72-9.406-18.093-15.688-38.5-33.406-18.407-16.094-80.687-70.5-104.219-91.406-4.5-3.906-83.687-73-2.188-1.907-21.719-18.906-18-15.687-9.687-8.5-6.813-5.907-53.78-46.78-22.126-19-21.875-19.72-12.719-11.28-7.78-6.907-30.813-27-2.313-1.313-28.187-24.5-3.313-2.906-18.28-16.187-8.5-7.5zm1670.687 877.313-5.093 4.5-4.594 4.093-10.188 10.094 4.688 2 4.594 1 3.093-1.5 4.125-2.594 1.5-1.5 1-2.5 1-3.093.5-4zm-287.28 3.5-2.5 1.5 2.593 4v6l7.687-2.5 4.125 3 1.094 5v3.5l4.188 2.5 4.593.5 1 1 2.125-.5 1-1.126h5.594l.5-2 1.5-1.5-.5-3-1-3.093-4.219-1.906-6.687-3.5-12.313-4zm174.78 39.5 2.125 6v7.593l2.094 7 2.688 6 3.093 9.594 3.625 4 6.688 4.5 9.812-.094 7.688 2 6.687.906 4.625-1 4-3.125-5.125-5-2.093-1-3.594-.875-3.594.5-2-.5-2.094 1-4.625-1.5-3.593-2.406-4.094-3-2.094 2.5-3.594-1-1.5-5-.625-3 4.625-4.594 1-2.5 6.688-2.125 2.5-2.5 2.094-.5 1.5 1.5 1-2.5-3.094-2.5-5.094-1-4.594-1.5-3.625-1h-2.093zm-14.875 1.593-1.5 3.594-1 8-2 3.594-8.218 2.5-9.188 3.094v2.5l4.688 4 8.218 3 7.688.406 5.094 1 4.218 2 3.594 1 1.5-2-2.594-5.094-1.125-3-1.5-4.5-.593-4.5-1-4-.594-3-1.594-5.094zm-509.406 198.688-2 .094-3.594 2.5-2 2.5-3.125 2.125-2.5 3-1 3.5-.5 2.5.5 2.093 2.625.907 2.5 1h2.094l2 1 5.188 1h1.5l2.593-.5 2.5-3.125 1.5-4-2.093-6-2-2.5-2.094-4.094zm50.094 45.5-5.594 1.5-2.5 3.594 5.688 15-.5 4.624 1.593 1.5 2.125 2 2 2 3.094-1.124h2.594l-.094-3.5 2.594-2.5-.594-3-1.5-.5-2.594.5-2 2h-3.625l-.5-2.5 7.125-6.094zm32.187 41.5v2.594l-.875 13 7.688 2 4.594.5 2.593 3 5.625 1.5 1-5.094 8.188 1 .594 3-2.594 3.5 1.094 3.5 8.218 2L1737 4749l3.094 2.5 4.718 8 7.188 2 7.687 5 6.22 2.5 9.187 2.906 7.718-2.093 4.094-5-.594-5.5-4.125-7.626-5.687-2.874-5.188-4h-3.125l-4.093-3.5-4.594-2-1.094-2.5-3 1-5.719-2.907-.5-3.593-3.687-3-4.594-1.907-2-1-5.719.5-10.687.594z" style="fill:#9faec0" transform="translate(0 75)"/><path stroke="#9FAEC0" stroke-width="10" d="M1617 5268v.094l-.5 2 .5 2.594-.406 5.5-1 7-1 8.125-1 2.5-1 3.593.5 1-.5 1-1 2.5-.5 1.5v2l.094 3-2.094 3.594-.406 2.5-1.5 4.5-.5 2.094-1.5 9 .5 3 .125 3.594 1 4 1.593 4 1.5 1.5 1.594 2.5.594 5 1.5 3v4.125l-1.5.5-1-.5v2l1 1.5.594 1 .5 3-.5 3v5.093l.625 1.5.5 1.5 1.5 1.5 1.093 2.5 3.594 4 .594 3.5 1.5 4 1.094 2 1.5 1.5h1l1.125-.5 1-1 1.5-1h1l2.093-.093h1.5l1.094 1.5 4.594 2.5 1.594 2.5 2.5 2 2.125 2 1.093 2 1.5 2 1.094 2.5 2 5.593.594 2.5.5 4.5.594 2-.5 2-.5 1 1 1 1 .5 1.625.5 1.5 2 1.593 1.5 1 .5h2.594l2 .5 2.094 2 1 2v1l1.094 2 3.125 2.5 1 2.5.593 2V5459l-.5 3-.5 2-1 2v2.5l.594 1 1 1.5h2.594l1.5 1 1 1.5.594 2.5 1.5.5 1.125.5 2-1.5 2-1 1.593-1 2-.594 5.094-1.5 9.313 5.5 4.687 4 4.094 4 4.594 4.5 2.125 2.5 2.093 2 2.594 3.5 1.5 3 1.094 3 .5 1 2.094 1 1 1 1.625 2 1 .5.5 1.5-.5 2 1.093 3 1.5 1.5 1 .5 1.594 1 .5 1 .5 1.5 1.094 4 1.5 1.5.594 1 1 1.5v1.5l1.125 2 1 1.5 1 2 2.593 2.5 2.594 1.5 1.5 1 1.094 3 3.094 4.094 2.625 3.5 2.593 2.5 1.5 2 1.594 1.5 1.5.406.594 2.594.5 2.5 1.094 3.5 1 2.5 1.125 3 1 2.5 2.593 1.5h2.5l1.094 1 1 2 1 .5 3.094 2.5 1.094 1 1 2 1.125 1v1l1.5 1 1 1h1.093l1.5 1 1 1 2.594 1 1.094 1.5 1.5 1 2.094 2 3.625 3 2.093 3.5 3.594 3.5 6.188 2.906 3.125 3 2.594 4 3.593 1 3.094 2 1.5 1.5 1.594 2 1 1.5.5 1.5.5 1 .625 2 1 1 1.594.5 3-1 2.093.5 1.5 1 1.594 1 2 2 1.594 2 1.625 2.5.5 1.5 1 .5h1l2.094.5 1.5 1 1.593 1.5h2l1.094-.094 1 .5 1.5.5 1.094 1 1 .5 1 1h1.125l1 .5 2.094 1.5 2 1.5 3.093 2 3.094 1 4.594 1 2.625.875 3.594 1 2.593.5 1 1 1.5.5 1.594-.5h2l1.594-.5 1.5 1 2.125 2 2.5 1.407 1.594.5 2.593.5h1l1.5.5 1.594-.5 1-.5h2l2.094.5 1 .5 2.125-.095h1.5l7.187-2 2-1.093 2.094-.5 1.5.5 1.594.5 2 .5 2.125-.5h4.093l1-1.094 1-3v-2l2-4.5 7.094-3.625 6.188-.094 2 .5 2.625 1.5 4.594 1.5 3.593 2 4.094-.5 2.094-.594 1.5.5 2.125 3 1 1 3.094 1.5 2.093.5h2.094l1.5-1 1.5-.5 1-1.593 2.094-.5 2.5-2 2.125-3 1-1.594 2-2.5 1-1.5 3.094-2 1.5-.5 2-1.125 2.593-2 3.094-1.5 2-1.594 1.5-1.5 3.094-1 2.625.5 2.5.5 3.094 1 1 .5 2.093.406 2.094 1 4.094 2.5 7.219 3.5 4.593 3 4.188 3.5 4.625 4 5.687 6 6.188 7.5 3.625 5 9.375 13 4.718 8 4.594 8 3.188 7 2.625 5.594 2.593 6 2.594 5.5 2.594 3.5 2.594 4.5 5.218 11 4.188 8.094 1 3 1.594 3.5 1.625 4 1.593 4.5 2 4 1.094 1.5 1 1 1 .5 1.594-1 3.094-.5v2l-1.094 1-1 2-.5 2.125.594 1.5.5 3 1.625 3.5 1.593 5 2.094 7 2 4.594 2.594 4 1.094 3 2.125 4.5 1 3.5.593 2.5v1.5l3.094-.5 2-1.5 3.094-1.594 5.094-1.5 2.5-.5 1.625.5v2.5l-3.125 1-4.594 1.094-2.5 1.5H2160l-2 1.5-1.5 1-1.593 1.593-1 2.5-.5 3.5-2 5.594-2 6.5-1.407 8.594-1 3-1.5 3.5-1 5.125v5l-.5 2 .5 1-2 3.094-.5 1.5-.5 2v1.5l.594 2.5v1l1 2 1.594 5v1.093l-.5 1.5h-1.5l-1.594-5.593-1.094-2-2 1.093v3.5l.094 6v5.594l.094 6.5v5l-.5 4.594-.375 8-1.5 7.625-.5 5.5-.406 4.094-2.594 6.5-.406 6.593-1 4.5-1 2-2.5 5.594-2 7-1 2.594-3.5 10.5-2.594 5.625-2 3.5-3.5 5.094-4.125 7.593-5 9.094-1.593 2-5 7.594-4.594 5-3 3.625-2.594 1.5-2 2-3.594 2.594-3 2-3.625 2.593-2.093 1-3.594 1-3.5-.5-2.594-.5-2.094-.406-1-2.5-1.625-4.094-1-3.5-2.093-5-1.594-2.5-1-1-5.688-5-3.125-3-3.093-2-5.094-2-1.594-2.5-.5-1.5-2.594-2-2.625-1.5-4.593-1.906H2020l-.5 1.5-1.5 2v1.5l.5 2v2.594l-.5 1h-1l-1.5 1.5-.5 2v2l-.5 2-1 3.125-1 3-2 3-1.594 2.094-2 1h-2.094l-2-1.5h-2.125l-.5 1.5-1.5 2.593-2 5-1 4v3.594l.125 1.5-1 3-1 2.5-.5 3-.5 1-2.125 2.094h-4.093l-1 .5h-1.5l-1.594 1.5-.5 1.125.094 2.5 1 1 2.094 4 1.5 4 1.125 2 2.593 1 3 1.5 2.094 1.5 4.594 3.5 2.594 1.5 2.125.375 1.5-3 1-1 1.5-1 1.093-.5 1 .5 1 1h1.594l1 .5.5 1.5v1.5l1.094 1.5 1-.5h1l1.594-.094 1 1 1.5 1 .625 2.594 1.593 8-1 2-1 2.5-1.093 1.625-.5 1 .094 2.5.5 1.5.5 1 2.093 1 1 2.5.5 2 1.094 3.5.5 2.5-1 3.093-1 1-2.5.5-2.094.5-1.5.5-2.093 1-.5 1.094h-2.5l-4.22-2-.5-1h-1.5l-1.593.5h-1.5l-1-1h-1.094l-1 .5-.5 1.594.594 2 .5 1v1l1.5 1.5 1.094.5 1.5 1.5 1.125 1.5 1 1h1.5l1.094 1 .5 1.5.5 2v1l1.593 2 .5 1.5.5 1-.5 2.5 1.094 3 1 .5v1.5l-1.5 1.594-1.5 1.5-1.5 2-1.094.5v1l.594 1 1 1.5.5 1.5.5 1 1.094 3v1l1.125 3.625.5 2v5l1.094 3.5 2.093 2 1 2.5 2.094 2.5 2.594 4 1 4.093v2.5l-1 1-.5 1-1 .5-.5 2v2l1.125 1 1 1.5 1 3.594 2.094 4.5 1.593 2.5 1.094 5 1.5 3.5 1.594 2 1.5 2.5.125 3-.5 2.594-1 2-.5 3v1.5l1 3 .094 2.5.5 2.594v1.5l.5 2.5.094 1.5 1 1.5 1 .5h1l1.094.5 2 2 .593 1.5.5 1.5 1.625 3v5l.5 2 1.094 3.125v1.5l-.5 3.5-2.5 5v1l-.5 2.593v1l1 1 1.094 1 .5 2v3.5l-1.5 3v1.5l.5 1-.5 1.594-1.5 1.5v1l1.594 4 1 1 3.718 6 1.5 1.5 1.594 1.5 1 3 .594 3v2.594l-.5 2v3l-.5 1.5-1 1.5v4.594l.594 2.5v4.5l-1 5.5-2 3.125-1 3-4.094 1 1 1.5 2.094 2.593 1.593.407 1.5-.5 2.625-.5 2.5.5 3.594 1 1.594 2 1 2 1.094 3.5 1.5 1.5 1.093 1.5h1l1.5 1 1.125 1v1.5l1 1 .5 1 4.188 2 1.5 2 2.094 2 2 3h3.593l1.125-.625 2 1 2.094 2 1.5 2 2.594 2.5 1.594 3 3.593 8.625 3.219 6.5 1.594 4 .5 1 1 4v1l.594 1.093 1.5.407 1 .5 1.093.5 1 1.5.5 2 1.125 1.5 1 .5h1l2.594 1.5 2.094 1 1 1 1.5 1 1.094 2 1 1.5.5 1 1.593.5 1 .5 1.5.5h1.125l1 .5 2.094-.5 3-.5 1.594-.625 2 1.5 3.094.5 1.593 1 3 1.5 2.625 2.5 2.594 1h2.594l2 1.5 2.094 1.5 2 1 2.593 1.406 2.125 2 3.594 2.5 3.594 4 3.094 3 2.593 2h3.125l2.594 1 1 .5 2 1.5 2.094 1.5 1.594 1.5v1l1 1h1l1.593.5 1.5 1.5 1.625 1v1l1.5.5 2.094 1 1.5.406h1.594l2 1 2.094 1.5 1 1.5 1.093 1 2 3 2.125 1 2 1.5 1.094 2 1.5 2.5 3.688 3.5 2.093 5 2 3 7.313 6.5 2.594 2 1 .5 1.5.5 1.593 1 2 1.5 2.625 2.5 1.094 2 1.5 3 1.594 2.5 1.5 2 2.594 3 2.593 2.5 1.625 1.5 2.5 2.5 2.094 2.5 2.594 2.5 1 2.5 1.094 2 2.093 3.094 2 4 1.625 2 1.594 2.5 4.594 4.5 3.594 2 1.593 1.5.5 1.5.5 2v1l.625 2 1.5 3.5 1.594 2.5 1 1 1.094 2 .5 1.5 1.5 2.5.594 2 1 4.094.593 3 1 3-.5 1 .5 1 1.625 4v1l1.094 1 1.5 1.5 1 2 .594 2 1 1 2.594 4 1.5 1 1.093 2.5 2.125 2 3 .5 2.094 2 2.594 3 2.094.5.5 2.5v5.125l1.593 2 .5 1 .5 1.5v2l-1 .5-1 1v1l.5 1.5 1.625 1.5 1.5 1.5 2.094 2.5 3.094 4 1.594 4.5 2.093 4.093 1.625 5 1.5 3.5 1.094 2 2 1.5 1.594 1.5 2.5.5h1.594l2-.5 1.593.907h3.125l3.594 1 3.5.5 2.094.5 2.594 2.5 2 1 4.093-.125h1.625l2 .5 1.594 1.5 4.094 3 1.594.5 1 1.5 2.093 1.5 1.5 1 3.125.5 2 .5 3.594 1.906 3.094 2.5 2.094 2.5 2.093 3.5 2.125 4.594 1 3 1.094 2.5 2 2 2.594 4 .594 3.5 2.093 6 1.625 6.125 1 5.5.594 4 .5 3.5.594 3.093v2.5l.5 2 1.594 1.5.5 3 .5 2 1.093 2.5 1.5 2.5.625 1.5v2.5l-.5 1.594v4.5l4.594 2 1.094 1.5.5 1.5v1l-1 1.5-.5 1.5-2 1.5-1 1.594 1 3 .5 2.5 1.094 2 1.5 3.5 3.093 3 1.625 1.5v1.5l-1 2.5v1l.5 2.094 1.094 1.5 1 2 .594 2-1.094 3 .094 2v1.5l.5 1.5.5 2 .594 1.625 3.093 2.375 1.5 1 2.125 1.5 2.594 3 1.5 1.5 1.594 3 1 1 .5 1h1.594l2 2 .5 1.5 1.093 2h1.5l2.125 1 2 1 2.094 3 1.094.5 2 2 2.594 1 2.593.5 2.5 1 2.125 1 2 1.5 1.094 2 1.5 1.5 1.094 2.5 1.594 2.5 1 2.5v1l3.093 3 .5 3 2.625 3 3.094 3.5 2.594 4.5 2.093 3 2.094 3.5 2.125 2.125 3.594 2.875 4.594 3 2.593 1.5.5 1.5v2l1.594 1 2.5.5.625 1 1.5 1 1 .5 1.594.5 1 1.5 1 .5 1.594 2 1.5.5 1.093 1.5 2.594 1.5 2 2 3.125 4 1.594 2 2 1.5 2.594 3.5 1.093 2 2.094 3 1.5.5 2.125 2 .5 1.5.5 2.5.5 1.5 1.094 1 1 1.5 2.594 3.5 1.593 3.125v7l-1.5 2-1 1 .5 1.5 1.094 2.093 2 .907h2.625l1 1 1.094 1.5 1 2 .5 2.5v2.093l-.5 2-1.5 3v2l2.094 4.5-.407 4.594.344 2h5329.906l-86.187-74.906-13.375-12-52.625-45.406-35-31-18.594-16.375-2.906.094-35.094-30.72-194.406-170.374-21.375-18.719-32-27.906-38.219-33.375-52.906-46.5-12.594-10.813-38.783-34.187-23.219-20.407-38.78-34.218-2.72-2.375-54.187-47.907-48.813-42.593-11.187-10-74.313-64.625-125.906-109.782-13-11.406-31.687-27.687-14.094-12.22-19-16.405-56.594-49.782-2.406-2.218-16.813-14.5-27.406-23.782-77.094-67.093-48.78-42.625-2.72-2.375-32.593-28.813-9.688-8.5-30-26-37.219-32.312-12.906-11.282-2.594-2.093-21.687-18.907-146.313-127.593v-1.22l-69.093-60.687-12.407-10.5L6175.97 5524l-8.313-7-8.187-7-51.188-44.906-141.906-124.188-5.719-5-55.187-47.812-6.688-6-6.219-5.5-9.78-8.593z" style="fill:#9faec0" transform="translate(0 50)"/><path stroke="#9FAEC0" stroke-width="10" d="m2563.437 7024 .156 1 .5 1.5 2.594 4 1.125 3 .5 5-2 4.594 1 2 1.094 1 2 2 1.594.5 1 2 1.593 3 2.594 4 5.22 4 1.5 2.5 2.593 3.5 1.593 3.5 2.594 5.594v4l.5 1.5-1 2 1.625 1 2.094 5-.5 3.5-1 4.124 1 1.5 1.594-.5 1-2 2-2.124 2.593 1.5 2.5 1 3.094-.5 2.125 2v1l2.594 1 3-1.594 2.094.5 4.593 4 3.594 3 3.72 3.5 3 1.5 3.093 1h4.093l4.22 1.906 4.593-1 9.187 2.406 4.094 3 1.125 1.5 1 2.594 1.594 2.5 1 .5 4.094-.594 1.593 4 4.094 3.5h1.5l-1.5-5 1-2.5 3.5-.594 2.625.5h1.5l5.188 1 4.093 2 2.594 2 7.72 6.5 5.686 9 2.594 5 .625 1 2 2.5 3.094 1 1.094 4.5.5 2 2.093 3.5 4.094 3.5 2.625 2.5 2.094 1 5.094 5.5 2.093 3.5 2.594 7.594 1.625 4.5 4.094 3.5 2.094 5 .593 3.5 1.5 3 1.594 3.5 2.625 4 2.094 2-.5 3.594 1.594 5.5 5.093 6 5.72 6.5 2.093 2.5 1.5 2.5 1.594.5 8.312 9.5 1.5 3 7.281 7.5 2.594 2.5 1 2.5 3.625 4h2.094l3.094 4 3.093 1 1.5 3 2.094 3.5 2.625 2 .5 2 2.594 1 .5 2 1.594 2.5 3.593.5 4.094 5 2.625 1 1 2.5 5.188 6 3.093 4 2.094 3.5 3.125 3.5 1 3.094 2.594 2.406 2.594 2h2l1.593-1.5 1.5-.5 1.5-1.5 1.594-1 2.5.406 1.125 1.5 1.5 1 2.594 1 5.094.5 4.093.5 6.72.406 1 3 2.593.5 2.094.5 2.5 1.5 4.093 2 2.094 1 .5 1 .625 2v1.5l1.5 1 1-.5 2.094-.5 2.5-.124 1.594 1 2 .5 4.593-1.5h3.594l1.625-.095h8.188l1.5-1.5 1 .5h1l1.093 1.5 3.094-.593h5.625l2.094 2 5.594 5 5.187 5.5 3.125 6 3.188 6 3.093 6 2.094 3.593 2 5.5 2.72 5 2 5 2.186 8.094 1.5 5 .594 6v5.625l-.5 3 .125 2v2.5l-.5 1.5-2.125.5-2.5 1.594v2l1 2 3.625-2.5 4.594-3.094 2.094 1 2.5 2.5 1.593 5.5.09 3.5 3 2.5 3.22 11.094.593 3 2 1.5-1 1.5h-2.094l.594 1.5 2.5 1.5 2.593.5 4.094 1 3.125 1 1.594 2-2.094 1.5-4 4.094-3.125.5-4.094-1-2.093 1 .09 2.593 1.5 2 2.094 1.5v1.5l-2.094 1.5-5.093 1-3 2.594-4.094 1.5-4.594 2.125-2.625 3-.5-2.5 3-7.625 2.625-3-.625-8.094 2.5-3-.5-6 1.5-6.593-1.187-10.094 1.093-3 1-2 .407-3-1-3.094-1-2.5-1.594-1-1.5 1.594 1.094 6.5-.5 1.5-1 5.594-1 7.5-.5 4.593-.907 9-1 4.594-1 5-1.5 6.125-2 6.5-1.5 4.094-2 6.5-1.5 4.094-4 8.593-3.5 8-2.093 4.094-2 4-.5 2 1.093 2.625-1.5 2.5-2.593-.5-1 1-.5 2v7.094l-.5 3-1 3-.5 1-2.5 2.094 3.593 6v1.5l-3 3.593 4.72 6.5 6.187 6 8.187 7.5 3.125 4.5 1.594 5.5 7.187 3 3.094 3.5.5 1 .625 1 1 2 .5 3 4.094 1 1.094 1 1 1.5 2.093.5h2l1 1 .594 1 1.5 1.5 1.625 1 3.594 4 2 1 3.594-.593 2.093 1 1.5.5 1.594 1 3.625 2 3.094 2.5 4.594 2.5 2.093 2 1.5.5 2.594.906 2 .5 2.625 1.5 3.094 2.5 2.594 1.5 1 .5 3.593 1 1.5 1 1.594 2 3.625 2.5 1.594 2.5 1.5 2.5 4.094 2.5 3.687 3.5 1 1 4.125 2 2.594 1 1.5.406 2.594-.5.5-1 1-1.5-.5-2-.09-2v-2l-.5-3.625 2-4 1.5-.5 3.094-2.094 4.093-.5 4.094-1 8.22.407 2.593 1 3.093 3.5h2l3.094-.5 1.5 1 2.125-1.594h3.594l11.781 5 2.625 3 4.094 4 1.594 2.5 2.5 2.5 1.593 1 1.5.406 1.094.5 2 .5 1 2 2.625 4.094 1.594.906h1.5l3.594-.5h5.593l3.094.875 4.125 2 2.094 2.5 3.094 3.5 4.187 5.5 3.625 5.625 1.594 5.5 2.594 9 1.093 3.594 2.094 15.594.625 3.5v6l1.094 8.093-.406 8 .5 5.094.593 4.5-.5 9.125-1 5.5-.406 10.094-2 11.594-.875 8.593-2.5 13.094-.906 7.5-3 12.72-2.5 8.5-3 11.093-3.5 11.687-1.5 4-3.5 13.125-2.406 12.094-2.5 9.094-2.094 3.093-2.5 5v1l1.094 1 1.5 2v1.5l-1 6.094-3 8.125-1.5 6-.407 2.5-1 2.594v1h1.5l2.094 1 1.5-.094 1.5-.5h3.125l6.094-.5 2.594-.625 2.593 1.5 2.594 2.5 1 2 1 3.125 1.625 2 1 2 .09 5 .5 3v2l1.594 2 2 1 2.093 2 2.594 2 3.125 2 3.094 2.5 4.594 4 4.093 4.5 2.094 4.5 1.125 4.094v5l-.406 6.5V8012l-.5 6.5-1.5 6.093-2.406 15.094-3 12.125-1 4.594-2.5 8-2.5 9.594-3.5 7.593-1.5 4.594-2.5 6-1.5 6.125-1.5 2.5-1 5.094v1l.5 2.5 1.593 2 2.094 1.5 1.5 1.5v2.5l.625 3v3l1 3.094.594 2 1 2.5 1 1h2.594l2.093 2 2 2 1.594 2.5 2.625 3.5 2.094 4 .5 1.5 1.5 3.5.594 3.5 1 2 1.093 1.5 1.5 2.593 1.594 2 1 2.5 1.125 3-.5 2-.5 5.594-1 2.5-1 4-1.5 5.125-2.5 10.094-2.5 8.5-2 4.594-2.5 8.093-4 9.594-3 10.125-2.5 5.5-3.5 8.594-2.125 3.594-1.375 6-2.125 5.093-1.5 4.5-1 2.094-2 3-1.5 1.5v2l.5 2.5 1.125 1.625v5.5l-.5 2-1 2-1 1.594-2 1-.5 1.5.5 2.5v4.5l-1.5 1.094-1 1-1.625.5-1 1-.5 1.5h3.125l1.5-1h1.094l1.5.5.5 2.5 1.594 1 1 2 .5 1.5 1.093 1v2.5l-.5 2-.5 1.593.5 1 1.594 1.5 1 .5 1.5-.094h1.625l1 1 1 .5 2.094 2.5 1 1 1.594 1.5.5 1.5 1.5.5h1.093l3.5-1 4.22.5 2.5-.593 1-.5.5-1 1.593-1h2.5l3.594-.5 3.593.906 3.594.5h6.625l4.188.375h2l4.093 4 1.094 1 3 .5 2.625 1 2.094 1.5 2.594 2.5 3.593 3.5 3.094 2 6.625 3 5.188 1.906 6.093 2 7.22 4.5 6.187 3 4.187 4.5 4.625 5 2.094 5 4.094 7 2.593 5 1.594 5.094.625 3 1 1.5 1.5 1.5 1.594 1 2.094 4 1 1.5 2.593 3 2.594 2.5 2.625 3.5 2.594 4.5 2 2.5.594 4.625 1.593 6v4l1 4.094.594 3 1 2.5.625 4 1.5-.5h2l1.594.5 2.594.5 1 1 1 1.5 1.593 3h1l1 1h1.094l1 .5 1.5-1 .5-3.594 1-1.5 3.625-1.5 3.594-1.125 4.094-.5h5.593l3.594.906 2.625 1 3-1 3.094-1 4.594-2.094 3.593-1 5.094-1.593 7.72.5 7.593-.094 6.187-.5 3.625-.625 3.5-1h6.688l4.593-.094 4.094-1h2.625l3 .406h2.094l3.094-.5h3l2.593-1 3.094-1.594 3.5-1 1.625-1 6.594.406 6.687-2.125 3.594-1.5 3.5-1 2.125-.5 1.5.5 1-.094 2.094-1 1.5-2.5 1.5-.5 2.094-.5 2 .407 1.093 1 3.594 1.5 4.125 1 2.5 1.5h1.094l2-1h2l4.687-1.094 2.5.5 5.72 1h1l4.593-.594 5.594.5 6.687-.625h4.125l4.094-.5 4.594-1.094 1-.5 5.093-.5 4.094.407h9.22l5.186.406h8.22l2 .5 2.593-.094h1.5l2.594-1h5.093l3.594.375h5.625l3.094-.5 4.594-1.094h4.093l4.594-.5 7.22-.593 4.093.5 8.187 1.406 8.72 2 3.593 1.5 2.593 1.5 6.72 3.906 5.593 2.5 1.5.5h3.594l4.593.5 4.72-.125 2.5.5h2.593l3-1 1.594-1.594 2.5-1h1.593l1 .5 3.594.5 3.125-.094 3 1 3.094-.5 4.594-.5 5.093-1.593 3.094.5 3.125 1 2.594 1.5 2.5.5 1.594 1 2.5.406h1.593l4-2h4.72l2.5-.125 2.093.5h2l3.094 1 1 1 2.593.5 3.094 2 1.5.5 2.125 2.5 1.594 2 2 1h1.5l1.594.406h3.093l1.5 1.5 1 1.5 2.594 1.5 5.72 3 6.093 4 6.187 3 4.625.906 3.594 1h3.094l3.593.5h2.5l2.594-.593h3.125l4.094 1.5h2.594l3 1 4.187 1.906 4.625 3 3.594 2.5 3.094 1.5 2 1 1.593 1.5 2 1 3.094-.5 3.125 1.5 2.594 2 3 1.5 1.094 1.5 1 3 2.093 3 .5 1.5.5 1 1.594.5 1-.5 2.625-.625h2.5l4.094-.5 7.187-.094 2.594.5 2 1 2.625.5 4.094 1.5 2 1 2.094-1.5.5-2.594v-2l3.5-4.5 2.593-1.094h1l1.5-.5 1-1 2.594-.5 3.625-.094 6.094.5 3.094.5h3.093l3.594-1.125 2.5-.5h3.125l2-.5 2.594.407 9.187 1 4.72 2 2 1 8.187 4.406 3.593.5 2.594 1 3.125.5 3.094 2.5 2.5 1 1.094 1.5 1 1 2.593-.594h3.5l1.594 1.5 1 .5 1 1 3.625 1 2.094 2 2.594 1 2.5 1 2.593 1 2.594-.594h8.22l2 1 4.093-.125 2.093-.5 3-1 2.094-2.5 1.5-2.093 1.5-1 3.125-1 2-.5.5-1-.5-1.094-1-1.5v-2l2.5-2.5 5.594-3.094 8.187-3.594 5.594.5 3.625-1 7.188-.125 4.593-1 2.5-.094 4.72.5h2.5l2.093 1 2.5.5h1.594l2-.593 3.593-1.5 3.594-1h2.5l3.625-.594h7.188l3.593 1 2 .406 1.594-.5h4.625l3.594 2 4.594 2 5.093 1.375 6.22 1h3.093l1-.5 3.094-.094h6.093l2.594 2.5.5 1 4.125 3.5 3.094 3 3.594 1 1.593 1 2.5 1 1.594 1 1 2 1.625 2.5 2.5-.5 2.594-.594 2.5 1 2.094 2 3.093 3 3.594 2 1.625 1 2 2 4.594 1 5.187 1.5 4.094.407h4.625l2-.5 2.094 1 1 .5 1.594 1 2 1 1.5 1 .593 2.5.5 2.5 1 1 .594 1 .5 1 1.5.5h4.125l2.594-.594h1.5l2.594-.5 4.093 2 3.594 1 3.125 3.5 1.5 1.5 2.094 3 2.094 4.5 3.593 3.5 3.094 2 2.5 1 3.125 1h2.594l1 .5 2-.625 3.094 2.5 2.593 3.5 4.22 4 3.593 4.625 3.094 4 2 1.5 3.093 1.5 1.594 2 2.625 2.5 2 2.5 2.094 4 3.094 4 2.093 2.5 2.5 1.5 2.594.5h1.5l1.625-.625 3.594-.5 3.5-1h2.094l2.593 1 1.5.906 3.594 3 6.72 6 4.593 4 2.593 2.5 3.594 4.094 2.125 2 3.094 4 2.594 3.5 4.093 3.5 2.594 1.5 3.625 2 3.094 2 4.594 2.406 3.093 2 4.094 1.5 2 1.5 3.625.5 6.188.906 3.093-.5 2-.5h4.094l4.125 2 3.094 1.907 2.594 4.093 3.593 5 1.094 2.5 3.125 5.5 1 3.5 2.594-.5h1.5l4.187 7v3l-2.093.594-1 1.5-1-1.5v-3l-1.094-2.094v-1.5l-1-1-1.094-1-.406 2.594.5 1 1 7 1.094 3.5 1.093 6.094 2.594 7.5 3.625 8.625 1.594 5 1.594 2.5 3.093 6.5 3.094 6.594 2.625 8.5 6.781 14.593 3.594 9 2.125 3 3.594 7.094 2.094-2.094.906-5.5 1.094-.5 1.5-.5 1 2 .09 2 .5 2.5-2.624 2.5-1 1.094v2.5l2.124 3 2 3.906h8.282v-1.5l1-3 1.5 1 1.594 1.5.5 2h4381.437l1.063-1.093 2.312-2.72 2.094.313 5.5.313 2.687-.5 2.907-2.313 6.093-5.906 2.22-4.906 1.5-7.188-.22-7.593-.28-3-.22-2.5-2-6.407-1.593-7-.594-6.812.281-8.875 1.22-9.313.28-2 .72-4.593.28-2.5 2.22-5.594 2.186-3.906 3.594-5.407 3.5-6.312 3.406-3.875 4.22-4.406 5.374-2.313 2.125-.906 2.094.219 1 .094 3.5.312h4.781l4.906-2 4.407-2.906 7.5-2.719 5.406-2.875 4.781-5.312 3.125-4.594 2.781-4.094.407-.719 1.406-1.593 4.5-1.907 6.187.22 7.22-2.126 7.187-2.875 5.593-4.812 6.594-7.594 7.125-9.5 5.188-8.813 4.812-5.687 3.281-1.906 3-2 2.094-.5 4.125.312 4.688-.125.906-.094 4.094-1.187 6.687-1.594 4.406-1.312 6.313-4.313 2.5-2.687 1.281-1.407 2.813-2 4.093-3.593 3.22-1.188.687-.312 2.187-2.094.906-2.219.594-2.781-.5-3.594.72-4.125.28-2.875 1.72-2.5 2.905-2.625 3.875-3.875 1.5-.906 4.5-4.313 6.906-8.687 9.22-10.219 7.78-9 2.313-3.187 1.281-2.688 2.313-3.719 2.406-2.187 2.281-1 1.625-1.406 1.375-2.094 1-2.594v-3.625l1.406-1.094.813-.281 2.687-1.125 4.094-.281 3.813-.719 3.593-.594 4.594.5h3.906l2.907-1.781.906-2.312-.906-4.313-1.688-4.187-1.5-3.094-1.125-5v-7.094l-2.594-6-.593-3.906-.5-3.719-.907-4.187-.593-3.313-3.594-5-3.594-6.187-6.719-6.907-5.093-4.281-6.688-6.5-3.125-3.812-1.687-2.188-4.594-6.219-3.906-5.406-3.313-4.187-4.094-2.5-5.593-1.313-8.188-2.5-.812-.281-8.407-1.313-6.687-1.906-1-.281-4.094-.906-.812-.407-3.813-2.906-1.594-1.5-2.906-3.5-4.78-7.687-6.595-5.5-1.625-1.407-7.375-7-3.906-3-4.906-4.281-4.907-2.719-6.187-.406-5.094-.094-4.625-.406-3.594-2.5-2.687-4.281-1.906-5.72-3.188-5.5-3-4.093-5.906-3.687-6.406-3.5-7.594-3.313-4.094-1.906-.719-.375-3.906-3.125-2.687-3.375-2.5-4.906-2.813-2.22-4.187-1.187-5.594.5-10.094 3.188-.906.219-6.594 2.406-.906.094-5.406.5-5.594-2.406-4.719-5.594-2-5.5.22-5.594 1.78-8.125-.187-7.687v-2.813l-.407-7.094 1.407-13.093.187-1.407 1.313-10.781-1-9-2.188-8.406-4.125-10.313-4.594-7.5-2.593-6-4-4.781-2.688-4.812-3.812-6.5-3-5-2.5-3.5-3.594-2.907-4.094-3.093-11.312-7.5-5.5-4.094-3-3.813-.813-2.906.813-1.5.593-1.187 2.813-2.688 2.906-2.312 2.875-2.813 1.813-2.687-.907-3.907-2.906-3.781-5.375-3.625-3.812-2.687-3-3.813-1.594-6-2-6.875-1.719-8.5-2-4.812-5.5-4.594-2.594-2.5-1.906-1.719-1.28-3-.72-1.875 1.813-3.219 1.812-1.906 1.375-2.875-1.28-2.906-3.5-5.813-3.814-8.281-4.78-7.719-2.407-7.906-.313-1.594-2.187-6.281-3.813-7.812-5.406-3.594-3.687-.719-.813-.187-6.28-4.688-1.22-2.406-1.78-3-1.814-2.813-6.906-3-6.375-2-6.312-2.406-4-4-3.094-5-5.594-6-5.906-3.187-8.719-5.813-7.5-7.5-8.875-10.375-6.125-10.719-6.687-12.593-3.313-9.813-.875-2.687-3.312-10-.5-1.313-2.407-8.375-5.5-8.812-6.093-7-.5-.813-10.594-7.375-11.313-6.812-.906-.5-9-6.188-6-7-2.875-7.406-.719-7.219.407-7 1-7.594 2.093-6.187.407-6.719-.688-3.687-1.219-6.188-1-6.5.72-9 .874-7.906-1.187-8.5-2.407-7.313-1.28-5.5-.5-2.187-1.126-5.219 1.72-9.781 2.093-10.594-.5-2.219-.594-6.906-2.813-7-1.28-2-25.313-22.187-15.313-13.594-1.78-1.5-17.314-15.594-16.687-14.719-9.094-7.781-19.906-17-9.906-9.625-20.094-17.5-52.5-46.5-102.406-90-13.907-12-30.406-26.5-43.78-38.375-15.907-14-27.813-24-17-15-17.5-15.5-44.78-39.5-47.907-41.406-3.094-3-10.313-9-184.406-161.406-11.375-10-3.438-3H2563.427z" style="fill:#9faec0" transform="translate(0 25)"/><path stroke="#9FAEC0" stroke-width="10" d="m4478.593 8780 .563 1.094 2.125 3 2 1 2.094-1 1-1 .5-3V8780zm12.876 0 3.124 2-1 1.5-4.718-.406-1 1-.5 1 1.094 1h2.5l4.124-.594 2.063.5 4.125 1.5 3.594 2 4.594 4 5.687 4.5 3.625 3.5 9.812 8 2 2 4.188 3.5 6.594 3.5 4.718 4.5 3.063 2 4.625 2.5 7.688 6.406 3.124 1.5 6.688 2 4.094 1.5 5.594 1.5 3.124-1.094 2.5-2.5 3.063-1 1-.624h5.125v-1l-.5-1-2-.5h-2.125l-1.5.5h-1l-1.563.124h-2l-2.124.5-2.5.5-2.094-1-3.594-.5-2-.906-2.125-1.5-2-1h-2.063l-2 .5-1.624-1h-1.5l-6.688-2 1.5-2 4.594 1h1.594l.5-1 1.5-1.094.5-1v-2.5l1-1 1.624 1 1 1 .5 1-.5 1.5 1.063 1.5 2 1 2.125 1.5 3.594 1 4.094 1 3.624 1 2 .376 1.5-.5 1.063-.5 1-3 1-.5 1 .5 1.5.5 2.125-.095 1 1 .594 1.594 1 1 1.5-.094 1 .5 1.594 2 1.5 1 2.124 1 2 1 .06 2.5-2.094.094-3.093-2-2-1.5-1.594-.5v1l2.094 1 3.093 2.5 4.094 2 3.125 1.5 2.594 1.407 4.594 1.5 5.093 5 2.594-.5 2 .5 3.125 1.5 1 .5 3.094-.5 6.187-.094 4.094 1 3 1 3.625 2.5 4.188 2.5 2.5 2 3.093 3 1.094 1 2.5 1.5 2.625-.094 2 1 .594 1.5 2.5 1 1.094 1h2l3.593.5 4.094 1 5.125 1.406 4.188 2 2.5 1.5 3.093.5 1.5.5 2.594 1 1 .5 2.625.5 1.5 1 6.188 4 5.093 2.375 7.813 4.5 5.094 1.5 4.093 1.5 3.094.5 2.5-.094 2.625-1.5 2-.5 2.594-1 3.594.5 2.5 1.406 2.093 1 1 1 2.594.5 2 .5h5.22l6.593 1.906 5.187 1 6.125.5 5.094.907h9.781l3.125 1 3.5.375 3.094 1h2.594l3.093.5 3 1.5 5.22 2 5.593 4.5 5.187 3.906 6.22 4 5.093 4.5 5.187 4.5 3.094 4.594 2.5 3.5 2.125 3 2.094 1.5h1l1.5-1.094v-2.5l1-1.5h1l3.594-1.5 2.093-1.594 1.5-1.5 1-2 1-3.094 1.5-3 .5-1.5 2.594-2.5 2-1.593 3.125-1.5 4.594-1 6.094-.625 5.593-1 3.094-1.094 2.625-.5 2-1.5 2-2.094 8.188-2 4.593-1.094 4.094-.5 10.813.407 6.093.5 4.594.875h2.625l3.094-.5 2.5-.5 2.594-1.594 3.5-.5 2.093-.5 2.594.5 3 1 3.125 1 2.094-.094.5-1h1l1.5-3.5 1-1.5 3.094-2.094 2.5-.5h3.093l4.594-.094 4.625.5h5.688l5.093-.125h3.594l2 .5h5.625l2.594-.594 3.594-.5 3.093.5 3 .5 3.094.407 4.125.5h3.594l2.594-1 2.5-1.594 1.5-.5h7.187l8.22-.094 3.593.5 3.093-1 1-.625 3-.5 3.094-.5h3.125l3.094.5 2 .906 2.594 1h6.593l2.594-.5 4.125.406 4.094 1 4.094 1.5 3.093 1.5 6.72 3 2 1 8.78 6 2 1.407 4.094 4 2.125 2.593 5.188 5.5 5.093 4.5 4.72 5 2.593 6 5.594 7.5 4.187 5 4.125 4.5 4.094 6.094 4.187 4.5 1.5 3.5 1.094 3 7.72 12.094 1.093 1.5 3.593 7.5 5.72 9.5 6.687 13.625 7.312 16.594 8.281 17.093 5.22 13.594 5.187 11 2.093 6.094 2.594 6 3.625 11.125.594 2.5-.5 2h2.5l.594 1.5-1.594.5.594 2 3 1.5 2.593 7.094.594 8 .5 2.5-.375 8.593-.5 7.094-.5 5-.5 3.594-4 3.5-6.719 3.125-1 1.5-1 .5v2.594l.5 1.5-.5 1.5-2.5 2.5-3.093 2.093-3 2-3.094 1.5-2.5 3.094-1 2.5-1.094 2.5-2 1.594v1l-.5 1.5.5 1 2.094 1 1 .5 1.594 1.5.5 1v1l-1 .5-.5 1 1 2.5.5 1.625 1.593 1 1 .5 1-.125 1 1.5.09 1.625.5 1 .5 2.5 1 1.5 1.125 1.5.5 1.5v3l.5 1v1.594l.594 2v3.5l1 2h1.594l1-.5 2 .5 1.593.5 1 .5 1.5 2 1.594.5 1.5 1 1.625-.094 1.5-1 1.5-.5 2.094-1.5h1l1.5-.5 1-.5 1.594-.625 1-1 2-.5h2.093l2 .5 2.094 2v2.5h1l1.125-1.5 1.5-.5 2 .406h1.094l1-.5h1.5l1-.5h2.094l1 1 2.093 1 1 2 1 .5 1.594 2 1.5 2 .625 2 1 1.5 1.5 1h4.094l1.594 1 5.093 3 4.594 1.5 4.125 1.906 3.594 1.5 1.594.5 2 1.5h1.593l2 2 1 .5h1.094l1.5-1 1.5.5 1.625 1 1.5 1 2.094 1 3.594 1.5 2.5-.094 1 .5 1.593.5v1l2.094 1.5.5 2v1.094l1.5.5 1-.094h2.125l1.5-.5 1-1 1.094-2 1-1.5.5-1.094-1.594-4v-1.5l1-1 1.594-1 1-1.125v-2l-1.094-3 1-1.5h1l1.594 1v1l1 1v2l.594 2 .5 2 1 1 1-1.5-.5-1.5v-1.5l-.5-2-2.094-3-.5-2 1-.594 1.594 1.594.5 1.5.5 2 1 .5 1.093.5-.09-2.594-1.5-3-2.094-3.5-1.5-4.5-1.094-4-.5-2.593v-2.5l1-3.5 1-2.594-.5-1-.125-1.5 1.125-2 1.5-1.5-.5-1.5-.125-1-1.5-.5h-2.5l-1.094.5h-2.5l-1.093-.5h-2l-1.5.5v-1.5l1.5-1h1l1.5-.5h1.093l1 .5 1.5-.5.5-1 1.594-2.094-.06-1.5-.5-3.5-.5-2v-3.625l-.09-2 1.593 1 .5 3 4.594-1-2 8.125-.5 3 .625 1.5 2 1 1-.5.5-1.5-.5-1.5 1.5-4.125 1-.5 1.094.5-.5 1-.5 2.125v3.5l.5 3.5 5.094-7.125-.5-4-2.094-3 4.094-.594 1 4.594 6.093-9.687 4.094-5.5 1-1.094 1.5-.5.625 1-1.125 2.094-1.5 2-1.5 1.5-1 2-1 1.593 1.5 3.5 6.125-3.593 17.375-5.188 11.813-6.125.5 2-9.188 4.125.5 2 9.188-4.125.5 2-6.094 2.625-4.094 5.094 3.688 8h7.093l1.094.5v2l-1.5.5-2.094 2-3.5 3.094-.5 5.5 8.22 5.5-.5-3-4.22-4.5 5.594-4.094.125 6.094h3.094l-.09-7.094 5.688.5v3.5l3.593.5.5 3.5-3 4.594h-6.187l-1.5 2 16.906-.094-5.219-16.594-9.78-5-3.126-3.5 1-1 3.625-2 4.094-.625 2 .5 1.594 1 1.5.5 4.093-1 1-1.094h4.594l5.22.5 16.405 2.906 6.094 2 8.687 1.907 7.22 4 3.093 2 4.094 3 4.093 2.5 1.094.5h1v-1.5l-1.094-1.5-5.593-4-1.594-1-2.5-2.5v-1.594l-.09-3 1.594-2 2-.5h1v-1l-1-1-1.594-2.125-1.5-.375-1.5-1-1.125-3.625v-1l1-.5 2.125 1.5 5.094 5 4.187 5 3.594 3 1.5 1.5 4.125 2.5 1.094.5-1.594 1-2 1.125-2.625 3.5.125 3.5v3.094l1.5 2 2.594 1h1.5l2.594 1.5 1 1.5 1.593.5 1 .5 1 .406 1.594.5 1.5-.5 1-.5h3.625l1 .5h1.594l4.594-1.625 1.5.5 4.093 2.5 1.5-2.5 2.094-1.5 1 1-1.5 5.5-2 1.5.5 1 .5 1.125 5.125-.625 1.094 2.5 3.594 5 1 1.625 7.187 5.5 2.125 2.5-1.625 1.5-2.5-1.5-4.687-4.5-4.094-4.5-2.594-2.5-7.219-5-.5-1-2-3.5-2.093-1.5h-8.688l1.5 3.5-1 2.094 2.094.5 1.5.906 1.594.5 3.093 3 4.094 4.094 3.125 4 1.5 1.5 1.594 2 2 2 3.594 2.5 2.593 1.5 1.594 2.5 3.625 4 4.094 5 5.094 6 4.187 5 5.72 7.093 6.593 6.5 5.687 6 4.125 2.5 3.594 4 5.187 5 5.594 4 5.22 3 3.593 3 5.593 3 5.72 2.5 3.593 2.407 6.594 4 5.687 5 6.72 3.5 6.186 4 5.594 3 5.125 2.5 4.094 3.5 3.687 3 2.5 4 2.094 3 1 2 .625 1.5 2 1.5 1 1h2.094l4.594.5 7.187 2 8.22 2.406 6.686 1.5 6.094 2 5.625 1.375-.5-2.5-1.5-1.5-2.125-1-2-.5-2.594.125-2.593-1-2.5-1-2.594-1-2.594-1.5-1-1-2-1-1.625 1h-2l-1.594-1.5-2.5-.5-3.593-.406-2.094-.5h-2l-2.594-.5-2.5-1-1.125-1-1-2v-1l1.5 1 1.125.5 1 1 .5-1-.5-1.5-1.125-1.5-1-2.594v-3.5h2l2.125 1.5 2 1 3.094 1.5 2.594 1.5 2 1.5h3.093l1.5-1.625 1.094-1.5 1.5-2.5 1.5-2.094 2-1.5 2.625-1 1.5-.5 3.094-3.094 1-2.5v-1.5l-.5-2.5.406-3.093.5-3v-3.5l-.5-2.5-.5-3.094.5-2 .5-2.5 2-2.125 2-1h4.094l3.594 1 2.093 2 1 2-1 1-2.093-.5-1.5-1-2.5 1.625-.5 1-1.594 4-.5 1.5-1 2.094 1.094 2.5v1.5l.5 2.5-.5 1.5.5 2 .5 1-1.5 1.593-1 1-1.5 1-1.594 1.5-1 1.5-.5 1.094.5 2 .594 1.5v1.5l-1.594 2-1 .5-.5-2-.5-1.5-.5-1-2.594-.5-1.5 1-2.125 1.594-1.5 2-1 3 .5 1.5 1.125 1.5h2l2-.5h2.594l4.094-.5 2.593.406 2 1.5 2.594 2.5 1 3.094 1.125 1 2 3 .594 1.5.5 1.5v2l1 2 1.594 3.625 2-1.625h1.593l2 1 1 1.5 2.094 2.5 3.125 1.5 2 1.5 2.094.5 2 1.5 1.594 1 2 1.5 1.093.5 1.5 1 2.094 1 3 1.5 1.625 1.5 2.594 2 2.5 1.5 2.594 2.5 2.093 2 2 2.5 2.594 2 3.625 1 2.594 1 1.5 3.5 1 1.5v1.5l.594 2 1 .5 1-.5 1 .5 1.093 1 1 2h1l1.594-1.5h2l.5 1 1.125 1 1 3 1 1.5h1.094l1 .5h4.594l1.5.5 2.593.906 1 .5 2.094 1 3.625.5 1 1 2.094 1 2 2 1.594 3.5 3.593 4 3.094 4.094 4.625 4 2.094 2.5 1.5 3 2.594 2.5 1 2 2.093 1 1 1.5 1 .5.5 1 3.094 3 4.72 4.5 1 1 1.593 3 2 1.5 1 1.625 1.093 2 .5 2.5.5 2 .594 1.5 3 3 1.125-.5.5 1v1.5l1 1 1 .5 1.594 1 1.5.5 2.094.5 1 1.5 1 2.5 1.593 3 1.594 2.594.5 2 1.5 1 1.125 3 1 2.5 1.5 2.5.09 1.5v2.093l3 .907h2.594l2.593-1 .5-1.5 2.5-1.594h3.094l3.125 2h4.094l1-.5h1l3.094-.125h2l2.093.5 1.5.5 1 1 1.594 1 2.5 1 3.625 3 5.688 2.5 4.093 2.5 4.594 2.5 3.125 3 3.594 2.5 4.094 3 2.593 2.5 3.094 2 3.625 4 3.594 3.5 2 2 .594 1 1.5 2 2.093 2 3 2 1.594 3 1 1.5 1.125 1 1 2.125 3.094 2.5 2 1.5 1.594 3 4.093 5 2.094 3 3.125 6 2.594 4.094 1 2.5 1 1.5 1.094 1 2 1.5 1.593 2 3.094 1.5 1.5 1.5 2 .5h1.625l5.094 2 3.094.906 4.093 2 1.5 1.5 2.094 1.5 5.625 3 5.688 2.5 6.093 4.5 5.72 4.5 3.593 3 5.094 3.5 5.687 5 4.125 3.5 6.188 4.5 5.593 5 8.313 8 4.594 4.594 5.093 5.5 5.22 6 9.28 10 7.22 10.593 6.687 9 8.187 10.094 8.813 11 6.687 9.5 7.22 10.594 4.686 7 6.22 9.125 6.687 9 7.187 10.594 1-1.094-.5-2 2.5-2 3.125 5-1 1-2-1-1.625 1.094 7.813 10 5.093 7 3.094 4 3.625 4.093 7.688 10 5.687 7 4.72 7.094 4.593 5 3.593 6.5 4.094 7.094 1.625 2.5 2.594 3.5 2.5 2.5 2.094 3.5 1.593 4.625 1.5 4 3.594 5.5 2.125 4 3.594 8.594 3.594 7.5 4.687 11.593 6.22 14.594 2.593 5.594 1.593 4 4.72 15.125 3.593 8.594 2.094 6 2 5.593 1.593 5 1.594 5.5 3.625 6.094 5.094 8 2.094 4.5 2.093 6.094 1.594 5 .5 5.125 1 3.5 1.125 2.5 1.5 3.5 1.094 2.094 1 5.5 2.094 8.093 2.093 8.5 1.594 7.094-.5 4v4.594l3.125 7 2.094 8.625 2.594 8.594 2.093 8.5 1.094 8.593 2.125 9.594 1.5 6.594 1.594 7 1 3 .09 5.625-1 4 .5 3.594 1.5 2.5.593 3.5 1 5.093-.5 5-1 6.594-.906 5.594-2.594 6-2 3.625-2.593 2-2 .5-2 .09-2.094-.5-1.5-.5-2.094.5-2 1-1 1-1.625 2.093-1.5 2-1 2-1 2.094-.5 3.5v2.5l.5 3 1.125 2.594.5 3.5v4l.594 2.625v1l2 1 1.594.5 1.5 1.5.5 1.5 1 2 1.593 1.5 1.5 2 .594 2.5 1.5 1 1.5.5 2.125 1.5 3.094 3.5 2 4.594 2.594 6.5 2.093 7.093.594 7 .5 10.094.125 9.594v4.125h2.594l2 .5 1.5-.625 1.094-.5-.594-1-1-.5-1-1-.5-1.5v-3l1.5-2.094 1 2.094-.5 1.5.5 1h1l1.094-2 .5-2.094 1-2-.5-1v-1l-1.594-.5v-1l.5-2.594-1-1-1 .594-1.094 1.5-1 .5-1-1-1-1.5.5-1.5 1.5-1.094 1-.406.5-.594-1-.5-1-1h-1.5l-.125-.5.5-1.5 1.125-1-.625-1-1.5-1-1.594-3.5.594-1.593 1-1.5 3-1h2.625l2 1 1.594 2 1 2.5v5l2.094 1.5 1 .5h1.593l2-1.5 1-2.5.5-3.094.5-3v-2h1.5l1-.5.5-2.125.594-1.5 2-2 2-1 1.125.406 1 1.094-.5 1.5 1 1 2.594.5 2-.594 2-1.5-1-1h-1.5l-.5-1 1.5-1h2l1.594 1 1 3v3l-1 3.094-.407 5.5-1.093 3.125.593 2 .5 2.5 1.5 4 1.094 2.594-.5 1.5-.5 2-1 1-1.594 1-2 .09h-3.593l-3.594-.5-3.094-.5h-2l-1.5.5-.5-1-1.125-1-1.5-1.5h-1l-1.094.5v1.093l-1 .5-1.5-.5h-2l-.593.5-.5 1.407v.593l.593 1.5 1.5.5h2l1.094.5 1.5 1v1l-.5 1.5-2 1.094-1.594-1-1.5-1h-1.593l-1 .5-.5 2.5.5 2.5-1 1.125-1.5.5h-2l-1.594-1.5-1.5.5-1.5 2.5-1.594 4.594-.406 5.594-1 6.5-.5 5.093v7.594l-1 2v3l.594 2.5 1 2.625 1.093 6.5.5 6.094.5 4.5-.5 2.594.594 3 1 2 1 2.5 1.125 3.5 2.594 6.093.5 6 1.594 5.094.5 3 1 4 .593 2.125.5 1 1.5.5 1 .5 2.094-.625 1-1.5 1-4 .5-1.5-.5-2.094v-2.5l-.594-1.5v-4l1-2.093 2.094-1.5v-2.5l-4.094-2-1.093-3-.5-7.594 3-6.594-.5-2.5-.594-3.625 9.187-10.594 8.72-1.093 3.5-8.094 6.687-2.594 13.812-.125 11.188.5 6.687 5.5v8.125l-1.5 5 6.72 3.5 17.5 15 19 9.5 4.593 5.5 7.187 9.594-5.094 2 4.594 4.094v6.5l5.22 13.093-2 3.594 1.593 5 1 4.125 5.093.875 3.094 5.125 5.72 4.5 2.093 13.594-3.594 5.094-.5 1-4.094 4.593-2.5 3.5-2.5 2.594-9.812-5-3.094-3-2.5-4.594-1.594-5-2.125-7.593 1.5-10.094h-4.594l-6.187-10-6.219-11.094-8.78-15.125-4.595-9.094 5.594-3.5-2.594-3-8.125 4.094-1.094-5.094 4.594-9.093-6.687-11.094-7.188-2.5-4.125-1.5-5.594-1.906-9.78-11.594-8.22.594-6.593 3.093-8.188 5.094-4.125 7.125-1.375 11.594 1.5 5 2.094 2 1 1h1l1.594-1.5 3-2 5.093-1.594 5.72-1 5.093-.125 4.094.5 3.5 1 4.687 2 3 1.5 1.625 2.5 1.5 1.5 1.594 2h1l2.594 1.5 2 1.5 2.093 2.5 3.594 3.5 2 4.625 1.625 3.5 2.594 3 2.5 2 4.687 8.094 4.594 7 3.125 8.094 3.594 6.5 3.687 7.093 2 7.5 2.094 8.094 1.625 10.625 1.094 11.094.06 13.594.5 10.687v5.5l1.124 4 3.063 10.125 1.625 3.094 1.5 9 1.094 5.094.5 2.5 86.906-11.688 100.188-14.312 29.624-3.688 19.876-2.719 16.406-2.093 32.718-4.313 19.376-2.687 102.187-14.313h2.125l13.812-2.094 50.563-6.906 161-21.781 46-6.406 82.22-11.094 30.717-4.313 64.376-8.5 63.906-9 15.906-2.093 16.312-2.094 92-12.813 83.782-11.093 16.406-2.094 98.094-13.813 99.218-13.281 28.563-4.219 70.625-9.593 97.094-13.188 96.594-12.812 95.093-13.188 97.094-13.312 29.22-3.688 19.405-2.625 48.094-6.875 107.781-14.312 203-28.094 13.313-1.594 4.593-10.5 3.5-7.812 3.22-6.407.28-.687 2.594-3.5 3.625-2.094 2 .594 1.594.406 3.906 2.5 4.281 3 5.094 2 23 1.875 11.813.906 14.812 1 13.688.813-.5-6 31.093-2.594v-2.625l.313-6.094 15.781-1.281-.187-8.125 9.812-.594 6.594-.281 7.594-.625.09-7.687 4.907-.313 4.593-.5-3.593-12.281-1.313-4.5-.375-3.5-.5-5.594.188-4.5.312-2.125-.125-1.5.906-5 2.407-4.375 3.187-3.812 3.625-6 .594-.907 3-4.781 5-5 4.687-4.906 6.594-3.813 2.406-2.781 12.313-13.625 11.781-12.094.813-32.5.312-11.687.281-8.313.407-8.593-.188-2.5-.5-3.5-.406-2.594-.09-1-1.219-4.406-3.28-3.094-.907-.813-5.094-3.906-6.219-6.094-1.5-5.5.72-4.593.187-2.907 1.406-2.78 4.187-4.813 3.594-7.094 1-6.094-.594-7.5-1-6.625-2-3.281-3.78-3.219h-1.126l-1.5-.281-3 1.187-3.187 4.407-3.313 1.312-2.875-.312-3.312-3.688-2-4.5-.594-5.625.09-7.5-1.313-3.5-1.375-5.594-3.125-9.093-3-6.907-2.78-5-1.407-2.187-4.094-5.594-4.719-3.719-2.187-.687-4.407-1.594-3-.625-5.28-1.094-8.22-.78-8.28-.407-10-.906-8.126-1.907-5.187 1.5-2.407 1.813-1.593 1.281-3 2.906-.594.72-2.313 2.5-4.28 3h-3.126l-4.594.093-9.687.5-6.313-.406h-.906l-6.375-1.688-2-1.312-2.906-3-5.594-4.5-3-4.813-2.719-3.28-3.406-2.72-3.094-.28-3.5 1.78-1.593 4.72-1.594 5.687-1.594 4.593-3 2h-3.125l-5.094-3-3.78-5.687-2.407-2.813-1-5.593-.219-3.5.625-6.094-1.906-2.906-2.719-2.594-4.594-4.906-1-2.094-2.593-5.094-2.688-7-.312-2-.09-.812-1.594-2.594-3.125-.688-4.594-.125-3.593.813-2.688-1.813-1.312-3.5.09-5.5-.28-9.187 1.093-7.906 2.094-9.094 3-7.594.406-.812 5.687-11.594 5.594-11.406 2.22-6.5.28-1.094 1.72-5.094.78-5.5-.5-4.219-.187-1.375-.188-3.5-.125-1.125v-4.5l1.5-6.593.625-6.407-1-5.5-2.5-4.78-.312-2.407-.688-3.313.688-1.28 1-3.22 1.687-4.687.72-4.813.09-.78-.189-5.595-1.5-6-.906-1.625-1.5-2.593-3.5-4.407-4.406-3.687-1-1.313-2.407-3.187-1-4.5.907-1.813 3.093-4.28 2.594-2.22 1.22-1 2.905-1.875 3.094-2.906.406-2.219.375-1.5.125-3.5-3-4.78-3.5-4.813-5.312-4.5-8.688-3.5-7.312-1.282-3.407-.218-7.187-.407-5.594-1.375-4.719-3.5-5.406-8-2.78-6.125.78-5.875 2.625-5.312 6.281-5.594 4.5-5.094 7.094-11.5 3.125-6.718 2.094-8.5-.219-8.688-.09-.906-.187-1-.813-5-1-6-1.5-4.188-.187-.812-2.313-6.313-1.906-3.375-.687-1.125-.907-4.28-.28-1-1.407-3.313-3.094-3.5-5.906-5.5-5.906-6.094-2-4 .593-3.5.907-2.094 3.5-1h2.593l4.5.094 4.094-.906 4-1.281 4.313-2.125 2.093-2.782 4.22-3.093 4.874-2.5 6.125-.5h5.688l4.187 1.187 9 2.094 1.625.406 3.094.906 6-2.812 3.687-2.281 2.907-2.22 4.406-3.28 4.094-6.406 2.906-5.907.406-.687 1.094-2.313 1.5-5.093.5-6 .5-5.594-.09-1.313-.406-3.687 1-4 1.687-4.72 1.313-2.5 1.281-2.28 4.813-6.813 2.5-3.5 1.406-2.093.5-.72 2.187-3.593 1.407-2.594 3.187-11.812 3-5.875 4.125-4.313 4.094-3 3.594-2 .812-.406 1.375-.5 1.906-.781.72-.406 2.78-2.094 2-1.625.594-.375 3.125-2.5 1.875-3.125.5-1.594.625-1.906.375-3.688.22-4.093.186-3.5 3-4.22.813-2.187 5.094-4 4.187-4.406 6-3.406 3.313-3.875 2.406-2.813 2.594-2.812.593-.875 1.72-2.813-.407-3.5-2.594-2.5-1.812-1.687-.594-.625-2.719-2.188-1.094-4.093-.5-3.5-2.28-2.72-1.813-3.374-.813-2.5.22-4.125.5-2.875-1-3.125-.72-2 .406-1.5 1.813-2 4.187-6.594 4.907-7.188.812-1.218 2.375-4.5.313-3-1.188-2.5-1.812-2.782-2-2.5-1-2.593-.313-3.313 1.313-4.187.5-2.625 1.906-2.782.594-.906.187-3.094-.687-3.312-2.313-2.906-2.5-3.875-.875-3.313v-2.5l1.281-1.906 3.313-2.188 3.094-1.812 3-1.281 2.5-1.813-.313-2-.687-.687-3.094-2-4.594-.5-3.719-.313-2.28-2.312-1.313-4 .593-4.375 1.594-5.625 2.22-5 1.5-1.594 1.405-1.094.594-.593 1.187-.813 2.22-1.5 5.187-2.594 4-1.812 1.593-.781 3.5-1.72 1.72-.874 4-2.5 2.5-6.625-.407-5.281-3.219-10.313-2.78-5.406-2.907-4.688-3.813-2.406-2.875-2.594-1.812-4.093-.313-2.907 1.813-3.812 2.093-5.188 1.72-7.687-1.72-8.813-1.906-6.312-1.094-2.594-4.5-9.5-1.906-3.906-1.78-3.688-5.22-11-3.094-8.593-3.187-6.907-1.906-4.187.406-5 .594-1.5 1.5-2.125 2.5-3 .406-2.781-.906-3.813-2.407-5.5-2.78-8.094-.313-.812-2.813-6.875-1.5-4.906-.28-4 .78-2.594 1.406-1.125 3.094.219 2.625.406h4.094l4-1.313 3.594-2.406.812-.5 2.188-2.094 2-3.812 1.187-4.688-1.094-5.5-2.78-2.812-6.907-5.688-6.219-5.5-4.094-4.5-3.093-4.593.312-2.813 1.5-1.187h2.281l2.907 1.687 6.812-.281 1.281-2.5 1.313-3.625-3.719-6-4.5-5.5-5.687-4.5-6.188-3.281-2.719-1.407-1.687-1.093-2.313-2.313-.5-2.406.09-1.688 1.125-6.093 2.875-8.313 2-5.687 2.813-4.907 3.812-3.187 3.5-1.313 1.594-.5 1.406-.406 4.594-1.094 2.906-1.093 4.5-1.907 1.875-1.906 4.125-6.094 5-7.593 2.375-3.313 1.22-1.687 1.593-1.594.593-.72 2-2.405 2.594-1.781 1.313-2.094.406-.813 1-1.906 2.281-3 2-2.5 3.625-2.094 2.094-.5 2.5-1.593.5-2-1.313-1.407-3.78-2.093-3.126-2.5-2-2.22-.594-2.28 1.344-1.407H4491.466zm-657.969 83-1 5.594-2.5 4.5 2.5 2 1.593 3-2 1.594-2.593 2-6.094-.5 1.5 3.624 4.094 1.376 7.187-2.5 4.625 2.406 3.594 2 3.594 3 2.593 1 2.094 2 2.5 1.5 2.125 1.5 5.688 4.5 1 6.094 6.687 2.906 2.125 3 1 2.094-.5 2.5-.5 3v2l-1.5 6.124-3 2-1 4.094-3.125 3-.375 5.594 1 .5 1.594 6 3.094 6v1l2.093 3 2.094 3.594-.5 3.5v3.5l11.813 2 5.687 4.5.5 1 1.5 1.5 3.625 4.5 4.688 2 3-4.094 8.687.406 2.625 1.5h3.094l5.594 4 3.093 6.5 7.22-4.594 12.28-1.124h4.094l4.625 4.5 8.688-1.594 3-2h2.593l2.594.5 4.625 2.406 6.094.5 1.594-2 2.5-.5 3.593-2.094 1.5 1 2.594-1.5 7.72 2.906H4008l4.593 1.5 5.22 1 7.093-5.624 6.594-5.594 5.187 2.906 1.5-4.5 5.625-1.594 6.594-3.5 2.594-2.594 6.093-.5 2-2.624 3.094-1 5.625-3.094 6.594-4.5 11.281-.094 6.125 1.406 6.188-2 5.593-1.094 9.22 1 7.187-1.625 5.093 1.5 5.094-1.594h6.72l4.593-2.093 6.593-3 5.094-3.094 4.125-.5 7.688-.594 2.5-1.5 3.093-.125.5-2 1-1.5 2.5-3.5 1.094-2.594-1.094-4.5 4.094-3.093-1.594-4.5 3.5-5.094 8.72-1.5 3.593-2.094 2-3 2.594-1.5 2-4.625-3.594-2.5-4.094-5.5-9.312-3-5.094.125-9.813-4.5-3.093-5.5-4.094-2-4 3.594-4.719-.5-1 3.5-6.094-.906-4.093-3.5-10.188 5.593-3.625 4-3.594 3.594-3.5 2-1 5.125 3.094 6-12.187 15.188-3.594-.407-4 2-5.719 2.094-4.594-1-2.593-3-9.188 1.125-3.125-4.125-6.594 2.125-7.187 1.594-4.094-3-3.625-1h-4.094l-4.593-.406-6.688-10.594-4.719-2-3.593-2-1-4-7.188-6.5-6.219.094-9.687-5.5-5.094 2-6.719-3.406-2.593-1.5h-3.094l-1-2-5.094-.5-1.625-3.5-4.594-2-5.593 3.094-10.813-.376-5.594-2-3.593 2-6.188-1.406-2.5 2.5L3933.5 8891l-3-2.5-3.594 2.094-2.594-3-5.219-5.094-6.093-3.406-8.188-3-9.312-3.5-7.188-3.406-4.125 1-5.094-1-5.687-1.876h-4.594l-1.5-1h-4.625l-4.594 1.594-1.593-2.5-4.094 1-4.594-1-4.125-.906zm-413.813.594-1.594 1 .594 6.5-2 4.094-3.594 3.5-3 3.124-2.593 2-3.5 2.094-3.094 2-2.5 2-4.594 1.594-6.219.5-4.593-2.406-4.594-1-2.094-3-4.625 5-7.594 3.094-9.093 11.218-3.594 1h-3.094l-4.125 1.094.625 4.5-3.625 4.094 7.22-1.594 4.593-.5 4.593 1.406 5.094 4 6.22-.5 4.093-4.094 2.5-2h2.593l4.594 1 9.22 3.876 7.186 2.5 5.094 1.5 6.22 4.5 5.186 3.406 4.594 2.5 7.22.5 2.5-4.094 6.093-1 6.687-.594 8.22-.5 6.593.906 8.812 1 6.594-2.124 5.594-.594 4.593-.5 1.594-2-9.78-3-2.095-3.5-1-4-1.125-4.5-7.687-5.5-5.094-2.5-3.719-5-3.594-.5-8.593 2.094h-5.688l-7.219-2.5-3.593-5 4.593-5-1.593-4.094v-4l-3.094-2.5-1.594-7zm32.313 13.812-2 2.594-1.5 2 2.093 2.5 2.5.5 4.094-.5 2.125-.594.5-3-2.125-3.5zm257.906 30.406-3.594.5-3.125 2.094-4 5-3.094 1.594-3 1.5-2.093 3.594-6.594 3-5.094 1.093-8.219 1.5-6.687-.875-4.594.5-7.125-.406-4.687-3h-6.094l-7.219-3.406-6.687.5-5.594 2.094-3.5 5.5-13.219 11.718-5.187-.406h-2l-2.594 1.5-2.5.5-5.219-1.406-11.687 3.094-9.813-1.5-11.187-4.407h-7.688l-4.125 1.625-5.687-.5-1.5 3.094-2.5 2.5-3.094 1-3.5.594 2.5 3 5.187.406 2.5 3 1.594 3.594 3.125 1.406 5.094 1 3.094 2 2.593 2.5 1.094 6.094 3.125 3.5 4.594 4 4.594 4.5 1.593 5 1.094 4 3.125 4 2.594 5.594 1 3.5 2.594.5 3.593 2 2.594 3 1 4.5 2.625 4 1.594 5.5 2.594 5.593-.5 4 7.687 4 2.125 2.5 2.094 3 3 1 2.594-.5 2.093 1.5 1 2 1.5 2 3.594-1.093 2.125 2 3.094 2.5 3.594 2.5 4.093 2 2.594 3 3.625 1 4.094 3 3.094 1 2.593 2.5 2.5.5 2.594.5 4.625-1.094 1.5-2-.5-4 6.094-6.094 5.094-2.094 6.093-1.625 10.813 1.5 5.594-3.593 6.093-1.5 8.22-.594 7.687-1.594 1.5-4 5.093-2.094 2.5-4 9.22-3.625 5.593-4.593 4-5.094 9.781-2.594 2-2.5 9.72-1.594 10.186-.625 6.72.5 5.593.407 3.094-.5-2.594-4.5V9003l-2.594-4.5-2.625-1.5-1.094-8-1.093-6.594-.5-6.5 1-5.094-.09-2.5-4.094-.5-9.719 1.594-10.687 3.094-6.219-2.5-2-2-9.78-2.906-12.814-7.5-7.28-7-.5-7.594-1.626-5-1.094-4 1.5-5.594 4.094-7.094-.09-5.5.5-4-.5-2.125-3.093-.875-2.5.5-2.594-1.5zm643.281 18.375-3.594.625-4.593.5-5.594 1.594-2.5 2 1.5 2 9.187-.594 3.094-.5 2-.5 1.625-1.5zm-64.5 1.5-4.094 1.125-7.687 1.5v1.5l4.687 1.5 3.594 1.5 4.125 3 5.094 2 10.281-1.125 2-1-1.5-.5-4.687-4-1-2-5.188-3zm42 5.313-4.594 3-5.093.594h-3.594l-1.5-1-5.094 2.593 4.594 3.907 6.187 1 7.594-3.094 2.125-1.5 1.5-2 2-1.594v-1zm1075 257.406-22 5.688-7.594 2.594-2.593 3.5-3.5 6.624-3.594 3.094-2 2.5-3.094 4.094-.5 2.5-.5 1.5 6.781 19.594 2.594-.5L5365 9225.5l2.5-1 3.687 4.5.406-5.094 4.094-4 5.125-3.094-1-2.5 2-3.624 3-1.5 4.188 8.5 2.093 2.124 10.72.876 9.187-3.594v-2l-10.688 3.094-8.719-1-1.093-1.5-3.094-7 11.781-4.594 4.5-1.594 3.72 5 4-2-1-5.594-4.22-8zm-744.28 319.188-2.595 1-1 3-4.5 3.094-7.719-.5 1 3.124 3.094 5.5 1.125 6.5 2.094 3.594 2.5 2 3.094-1.094 1.5-4 1.5-4.124 2.5-6.594-2-5 .906-3.5v-3zm401.405 7.719-5.219 1 2.094 6 8.813 11.593 12.406 13 7.187 2.5-1.5 7.094 5.594 2.906 6.72 6.594 1.5.406 13.905-2.094 6.594 1 6.187 2 7.094 1.376 4.125 1.5 6.688-3.094 6.093-4.5 4.594-.094-6.594 7.593 5.72 5.5h8.687l5.093 5.5 1.594 11.594 2.125 10.625 4.188 8.5 3.093 5.594 1 3-2.5 1.5-2.593.5-4.5 7.094 1.5 6.593-3.5 5-3.094 3.094.594 7.625 4.093 5.5 4.72 3 4.093 4.5 1.594 6.5 4.593 4.5 4.594 5.594 4.72 4.5 5.093 3.5 7.687-.594 10.72-.125 8.78 2.5 10.72-3.094 8.686-.094 12.813-2.593 8.187 4 15.313.406 5.094.5 6.687 2.375 4.125 6.625 13.875 7.375 8.22 2.5 5.593-3.094 5.093-1 1-6.594 6.22-.5 1.374-13.687-6.187-9-3.094-10.625-11.813-8-6.78-14.594-20.626-17-16-22.094 3-9.593 1-4.5h-3.5L5268 9591l-7.188-5.5-3.125-4-10.28-2-18.5-7.907-7.095-.5-8.719 1.094-8.78-5.5-4.626-1.5-10.187-5.5-3.094-3.5-5.719-.375-3.094-5.625-5.093.625-5.594 3.5-5.594 2.094-4.625-.5-2.594-6.5-4.687-7-4.094-3-11.812-5.5 1.5-3.5-6.688-1-1.5-3.5-2.625-4.5-5.594-3.5-5.187 1.5-11.719.594-3.594.5-6.187-.407-7.594-1.5-6.719 1.594-4.593-1zM4194.187 9741l-4.594 5.094-7.187.594-5.094 1-3 6.124-6.125 3.094-7.687-4-3.094-3-6.219-2-.5 1 2.625 6.094 4.688 7.5-1 6.094 2.593 5 4.094 3.5 5.22 10.094 7.186 5.5 2.594 3 3.625 2.5 9.688 2.906 9.312 2 7.594 1.906 4.687 6.094 10.813 2.406 5.594 1.5 4.093-1.594 8.72 2.5 8.187 4 9.687-1.094 5.72-.624 4-1.5 5.686-2.094 7.094 1 2.625-3.594 2-3v-2.5l2.5-.5 2.594-.594 2.5-3.5-6.094-2.5-7.219-4-3.593-3.5-4.688-8.5-4.125-3.5-4.187-4.594-4.594-4.5-5.594-2.406-6.219-1.5-2.593-1.5h-6.094l-4.094-3.5-8.719.094-4.187-5-6.094-3.5-6.219-4.5-4.593-2-3.094-3-5.094-2zM5093 10010.094l-5.594 4.594-7.094 1.625-2.125-5.5-8.187.5-5.594 2.093.594 7.5-.5 7.094v4.094l9.187-.09 4.125 3.5 3.594 3 3.687 6.5 3.094 12.093 4.125 6.594.594 10.125 2.594 7.5 4.187 6.594 6.125 5.5 5.188 6.5 5.687 9 3.625 14.187 1.688 16.594 6.687 13.125 6.125-1.125 5.188 9.625 6.812 12.594 8.188 5 5.593 6.5-.406 8.094 4.625 9 3.188 9.093 6.593 2 .594 6 12.313.407 5.093 4.5 4.094 7.593 6.22 3 8.186 8.5 3.094 3.5 4.125-1.5 3.594 4.5 5.094 1 4.687 4 4.72 13.594 12.186-11.187 5.094-1.094 6.125-1-1.625-8.094 6.125-3.125 3.594-4 8.187-2.094 6.594 2.5 3.625 4.5 7.188-2.093 6.093 1.5 3.094 4 5.22 1.5 1.5-4.094-7.72-5-9.78-14.5-12.407-7.5-12.813-13.094-13.375-11.5-11.812-9.5-16.5-15-9.813-7.5-6.594-6-4.187-5.625-4.594-5-7.219-6-10.78-5-9.313-9.5-7.688-7.5-8.219-12.594-9.406-15.593-9.187-7.5-4.688-9-7.719-5-5.187-14.594-1.594-6.594-5.625-4.5h-4.094l-2.593-9-4.188-7.125 3.594-4.5-3.094-3-2.625-2-2.5-1.5-4.687-5.094zm1280.406 242.094-2 1-1 1.5-1 3.625-2.094 3.5-1 5.093-1.5 1.5-.5 2-1.5 1.594h-1l-.625 1 1.125 1.5 1.5.5 2.594.5 1.5-.5v-2.594l2 .5 1.094 1 1.5 1v1l.5 1.5 2.093.5 1.5-1 1-.5v-4l-1.5-1-1.593-1-2-1-1.094-1.5-1-1v-1.593l1 .5 1.594.5 1.5-.5-.5-1-1-1-.594-1.5v-2.5l.5-1.5 1.094-1.625 1.5-2-.5-2z" style="fill:#9faec0"/></svg>