<svg xmlns="http://www.w3.org/2000/svg" width="6233.5" height="4510.313"><path stroke="#9FAEC0" stroke-width="10" d="m6046.813 0-479.407 16.719-28 .906-278.812 9.281-12.188.406-323.906 9-159.687 4-402.22 10-73.187 1.094-279.906 3.5-12.594.219-61.593.687h-6.125l-34.282-1.406-4-.187-17-.719-26.218 1.312-15.875.907-14.813.687L3708.688 62h-3.375l-87.813.906-3.406.094-141.688 1.219-139.218.281-11.094.719-55.188.187h-442.218l-16.375-.187-22.125-.219H2776l-28.187.813-20.5.687-23.125.906-4-.094-26.782-.187-6.5-.125-15.906-.188-91.687-1.406h-.625l-5.594-.094-95.781-1.093-3.625-1.813-3.594-1.594-.5-.187h-21.5l-23-.406-57.906-1.407h-32.282l-48.093-1-24.125-.187-8.188-.125-7.687.312-229.5-3.312-116.313-2-20-.094-92.187-.688-79.407-1.218-64-1-10.218-.188-21.594-.187-20-.22-23-.28-15.906-.22-36.875-.405-31.22-.594-12.28-.188-3.625-.094-12.782-.218-64-1.594-60.5-1.313-26.093-.593-64.5-1.407-24.125-.593-6.282-.094-10.093-.313-5.5-.094-10.907-.281-23.5-.625-6.718-.188-23-.593-42.594-.813-29.188-.5-151.593-2.281-31.813-.5-37.312-.719-24.688-.5-16.406-.406-52.688-1.188h-3l-161.312-5.687-52.406-1.906-16.375-.5-79.407-2.313-16.406-.594-123.187-4.187-16.407-.625-34.812-1.281-64-2.22-2 57.907-1 23.406-.5 17.907-.406 7.78-.688 18.907-1.406 31-.688 14.906-.094 2.188-1.125 21.406-1.781 45.094-.594 15.625-.812 19.594-2.5 63-1.094 32.093-.594 12.688-.218 3.406-1.688 46.5-.719 18.094-.593 15.5-.094 2.219-2 50.687-1.813 42.813-.875 18.187-.219 6-.28 8.5-.626 16.094-1.281 33.406-.719 16.594-.687 18.5-1.188 32.312-1 23.438H6078.75l-1.062-24.625-4.282-100.625L6061 336.905l-2.406-56.5L6046.812 0z" style="fill:#9faec0" transform="translate(0 125)"/><path stroke="#9FAEC0" stroke-width="10" d="M129.813 748.75 129 767.219l-1.312 31.687-.375 8.406-.407 10.094-.593 16.094L125 875.812 120.688 976.5l-.094 4.125-.407 12.094-1.28 32.687-2 53.406-2.5 65-.5 14-6.313 161.094-.594 16.719-1.313 32.687-2.187 56.313-.313 7.094-2.187 58.406-.438 10.937h6010.25L6094 1107.625l-15.25-358.875z" style="fill:#9faec0" transform="translate(0 100)"/><path stroke="#9FAEC0" stroke-width="10" d="m100.563 1501.062-2.75 70.563-.625 16.094-2.688 72-.812 20.906-1 24.375-1.094 28.219-3.5 92.687-.188 4.5-3 80.906-.593 16.094-3 80.594-.625 16.125-.282 7.594-2.906 73.406-.594 15.594-3.218 81-.688 16.093-.5 14.188-1.094 21.375h6071.438l-3.438-82.375-4.218-97.875-20.594-482.719-.188-5.406-3.593-83.938z" style="fill:#9faec0" transform="translate(0 75)"/><path stroke="#9FAEC0" stroke-width="10" d="m71.406 2253.375-.718 13.75-.282 9.187-.5 6.813-.5 10.281-.218 4.813-.688 14.093-14.406 283.5-2.594 70-.312 5.5L49 2719.625l-.687 16.094-.407 11.593L46.5 2788.5l-.094 1.125-1.5 38.187-.312 9.094L43 2876.625l-.688 16.094-1.125 30.187L40 2951.5l-.813 24.219-1.062 29.968h6136.344l-15.156-355.468-3.72-90.5-12.75-306.344z" style="fill:#9faec0" transform="translate(0 50)"/><path stroke="#9FAEC0" stroke-width="10" d="m38.125 3005.687-1.031 29.438 12.594 130-.282 7.875L44 3299.312l-.687 16.094-2.125 48.906-.875 22.594L40 3396.5l-.406 7-3 72.5-4.906 122.625-.688 17.594-2.312 68.093-.375 13.094-.22 4.906L26 3752.22l-.219 5.781h6179.875l-1.25-30.594-4.406-106-24.094-581.687-.218-5.407-1.22-28.625z" style="fill:#9faec0" transform="translate(0 25)"/><path stroke="#9FAEC0" stroke-width="10" d="m25.781 3758-.281 7.219-.594 14.593v2.594l-.5 12.5-2.906 71.906-.906 22.594-1.188 33.406-.218 7.5-.282 6.907-2.593 69.5-.625 15.593L14.594 4053l-.906 23.812-.594 16.594L12 4124.125l-1.187 32.187L9.593 4189 0 4453.813l452.688 15.406 139 4.187L706.594 4477l81.5 2.313 29.312 1 31.782.906 47.218 1.5 32.782 1 31.812.906 15.906.094 62.094 1.188 15.906.093 138.5 2.626h15.907l145.187 2.593 40 .688 52.813.718h3.593l5.688.188 8.219.406h24.593l161.094 3.094 139 2.188 30.313.5 17.375.124 13.406.188 16.906.406 60.5.688 3.094 4 3.094 3.5 30.218.094 16.407.125h4.687l174.906 1.187 14.907.094 96.375.72h14.906l162.469.187h99.687l18.438-.094 15.906-.094L2597 4510l16.406-.094 32.782-.282 50.312-.406 13.906-.219-6.093.125 117.875-.312 16.906.094 87.219.312h34.375L3405 4509l68.188-.093 37.5-.095H3542l21.281 1.5h64.625l568.188-6 130.312-5.187 158.594-3.719 819.313-21.687 76-2.406 181.093-5.313 10.094-.281h4.594l70.594.906 6.5-.219 16.625-.406 100.5-4 22.687-.875 30-1 23.094-.812 17.594-.407 57.5-1.406 37.5-.875 23.406-.625 251.406-6.781-4.906-130.813-2.094-50.906-.594-16.094-1.406-32.687-.5-14.094-1.5-34.719-.5-13.594-6-146.406L6205.656 3758z" style="fill:#9faec0"/></svg>