<svg xmlns="http://www.w3.org/2000/svg" width="1624.188" height="1177.813"><path stroke="#9FAEC0" stroke-width="10" d="m210.188 0-2.094 60-.406 10.094-8 100.406-2.032 25.25h1417.907L1614 143.813l-.687-21.313-.5-23.594-1.313-55.594-1.094-16.624-71.719-.875-48-.72-21.593-.905-5.5-.282-22.094-1.312-65 .906-17.312-.687-27.782-1.22h-.5l-79.312.094-50.594-.28-12.312.187-33.782-.907-81.718-1.593H1051l-29-.5-14-.094-38.812 5.5-9.5 5.906-16-.406h-2.5l-2-6.094L914 22.5l-33.406-3.812-22.782-2.188-41.125 1 .72 5.313-.595 3-1.906 3-3.218 2.875-4.282 21.218-41 7.094 1.094-20.5 1.094-23.594L699.5 15.5l-33.812-.094-24.094-.718-32.907-1.188-26.375-1-6.406-.094-2.812-.093h-2.282l-66-3.313-121.718-5.094-5.188-.218-21.406-1-16.406-.5h-1L313 .688z" style="fill:#9faec0" transform="translate(0 125)"/><path stroke="#9FAEC0" stroke-width="10" d="m197.656 195.75-.656 7.938-5.687 83.718-3.407 49.688-3.844 55.062h1438.22l-.97-31.562-3.906-102.5-1.844-62.344z" style="fill:#9faec0" transform="translate(0 100)"/><path stroke="#9FAEC0" stroke-width="10" d="m184.063 392.156-2.25 32.031-.22 5-1.687 26.407-1.219 17.906-7.875 111.313-.25 3.75h1451.594l1.656-56.657-.312-16.593.188-17.125.5-43.875v-1.5l-1.876-60-.03-.657z" style="fill:#9faec0" transform="translate(0 75)"/><path stroke="#9FAEC0" stroke-width="10" d="m170.563 588.563-1.657 24.25L158.5 747.406l-1.187 14-1.907 23.563h972.657l-.25-1.782v-5l-.5-1.5-.5-2.5-1-3.093-2.626-3v-2.5l-.5-2 2.5-5.094 2.626 7.594 2 2.5 1.593.5 2-1v-4l3.094-4.594 2.5-2.5-1 8.094 2.594 8.5 2.094 2.5 2 4.093 3.624 1.5 4.594.907 3.094 2.093.313.282h210.75l.437-1.063 2-6 .5-6.593 1-6.5-2.594-14.625v-7.594l-.594-7.094 4.094-7.5 1 2.5 1.594 3 .5 1.5v12.094l6.188 13.093.624 14.625 1.157 10.157h88.344L1474 779.5l9.188-1 1.75 6.469h106.53l.126-.469-.094-3-1-3-1.406-3.187-2.282-4.313-1.125-4.594-1.093-3.5.5-3.5 1-2.5.906-4.593 1-6.125.406-6-1.094-3-1-3-1.125-2-1.781-2-1.812-3-.094-3-.188-2.594v-3l-.625-2.5.5-2 1.219-2.594.906-2 1.594-1 2-1.094 2-1 3.094-2.093 3-2 2-1.625 2.593-2 2.5-1L1617 702l2.093-3.187L1620 663l2.156-74.437z" style="fill:#9faec0" transform="translate(0 50)"/><path stroke="#9FAEC0" stroke-width="10" d="M155.406 784.969 151 839.594l31.906 50.906 17.594 27.406 7.094 10.782-89.125 52.718H461.03l-2.437-2.812v-3.5l4.594-2.094 3.625 4.594 5.593 2L477 977l1.063 4.406h43.78l.75-1.906 5.095-2.594 5.625-9.093 7.187-9.5 6.594-6.125 9.218-2.594 2.594-2.5 1-3 2-2.5L563 938.5l2.5-3 1-.5 2.094-1 1.5-.5 2.093 2 2.5 1.5 1.625 2.5 4.094 3.5 2-3 4.594-.5 7.188-1 2.125 3 3.5-1 2.093-1.594 2-2 1.594-2.5 2-3.5 2-4.093.5-3.5 9.188-4 3.625-6.625 1.5-5.094 3.093.5 5.594-.5 4.094-4 6.093-11.094 9.22-7.094 14.905-5.093 3-3 2.594-3.5 4.094-4.125 1.5-2.5-1-1.5-10.312-2.5 2.125-6.594 10.687-7 3.094-5.094 3-4.5 10.218-6.094 7.688-2.593 3.094-3-3.594 10.593-6.594 3.594-1.593 4.5-.407 5 .5 8.594-.5 6 1.5 4.093 2.094 1 1.5 2.5 2.094 5-.5 3.125-5.094 4-1.5 5.5 6.594 4.094 3.093 2 4.125-1 8.188.907 2.594-1 4-1.5 6.218-.5 5.094-4.125 6.094-8 5.688-1.594 1 3.093 1.5 4 1.625 2h1l2-1.5 2.093-5.093 1.5-4.5 1-4.594 4.594 2 8.188-1 2.125 1.5-.5 3.594-2.125 1.5-4.094 4v3l2.093 1.5 3.125-1.5h3l3.094-6L783.5 881l3.094-1.5 3.093-.5 4-5.094 5.22-1 6.093 1 3.594-1 6.593-1.5 3.125-1.593 4.094 2.593v3.5l1.094 3 3 1 5.094-2 3.093 1 1.625 5.5 9.188-4 3.094 1.5 3 2 5.093-1.593 4.125-2.5 1.594 2.5-.5 2.5-.5 2.093-4.593 4 3.093 5 5.594-1.5 2-2 1.594 1h5.593l1-1 1.5-3.593 2.625-5 2.594 1.5 3-2v-2.625l1.5-6.5 3.094-2 3.094-1.094 2-3 6.718 4.5 4.094.5 8.188-1.5 5.093-2 4.125-1.094 3.594-2h9.188l4.593 2 5.125-.5 8.188.906 7.188-1.5 6.625.5 7.187 3 7.188 6 5.125 6.094 4.687 5 2.5 3.5 4.094-1.5 2.593-1.5 1-4.094.5-3.5 1.5-3.5 4.125-2.093 1.5-1 2.094-1.5 3-4 2.094 2.5-.5 4.5.5 2.5.5 2 4.688 2 3.5 1 2.124-2 1-4.5 2-2.5 3.094-2.625 6.094-2.5 6.188-2.5 7.718 1.406 5.094 2 3-2.5 4.594-5 5.094-4.094 7.218-1.5 3.594 1 6.688 1.5 5.124 1 3.094-.594 2.5-1 4.594-1h5.094l5.719.5 4.593 4.5 1.594 5 1.5 3 1.5 4.094 2.094 2.5 3.594-2 5.124-2.594 4.094 1.5 5.094-.5 9.688-5.093 4.624-.5 3.094-.5h1.5l-1-4.5-2.593-1.625-6.626.125-8.187 2.5h-2.094l-1-1.5 1-3.5 2.094-4.125 7.094 1 7.719-2.5.5-1.5-1.5-3-3.126-2.594-5.093.093-3.594 1h-2.094l-1-3.5 1.5-5.593 6.188 1 2.5-7.594v-10l1.5-9.594-2.594-5.594-.5-4-1.594-4-4.093-6.125-5.626-3.5-8.687 2.625-4.094-4.5-.343-2.343zm1000.907 0 6.874 6.218 2.626 10.125-2.5 11.594-1.5 8.5 1 7.594 4.093 4 1.594 4 3 .5 2.094 3 1 1.5 2.094 1.594 1 1.5.5 2.5.5 2 .624 2.5.5 5.593 2 .407H1189l15.406-2.5 16.282-5.094 6.218 1.5 5.094-.594 7.188-6.5 3.5-4.593.5-5 11.312-2.125 3.094 2.5 6.094-2.5 4.624 6.5 5.688 3.5 1 4.625 4.094.375 4.094-3-2.094-14.094V822.5l.5-6 7.094-6.094 5.624-1 4.094 1 4.094-.5 4.688 5.5 1 5.5 4.624 6.094 3.594-2.594-.5-3.5 3.594-4 5.094 1.5 3.094 6 3.624 4 2.5 1 4.094 1.5h5.188l4.593-.5 7.625-.093 8.188-3 6.687-4.125 3-4.5 1.5-7.094-.5-6.5-3.093-6.594-4.594-7v-5.094l.562-1.437zm226.656 0 .437 3.937 1 7.594 2.094 5.5 2.594 6.5 3.594 1.5 5.125 4.594 4.093-4.094 7.594-5.594 1.594 1-1 5.594h2.5l2.094 1 3 .5 2.625 2.5 4.093 1.5 3.594-.5 5.594-7.094-.5-3.5 2.5-4.093 3.094 3.5v7.093l2.625 6.5 1.593 5.594 4.094-.5 2.5-3.094-.5-6.5 2.5-3.593 4.094-2 4.094 3 5.125-10.125.5-4.5 6-12.22zm101.969 0 1.374 5.031 3.094-1.5 2.5 3 3.594.5 7.188-1 3.124 3 3 2 5.188 4.5 3.5-1 1-9.594 2.594-2.5 3.594 1.5 3.124 11.094 3-5.094 6.688-2 7.094-7.093 4.719.5 1.5 5.5 5.093-1 6.688 4 2.593 10.593 9.72-4.593 4.093-3.125 6.094-4.5 3.5-2.594 2-2.594.875-3.031zm-4.344 1.531-4.094 2.094-2.5-1-.5 6.5-2.594 4.593 1.594 3 2.594 2.5 3.594 2 1.5-2.5v-4.093l1.5-9z" style="fill:#9faec0" transform="translate(0 25)"/><path stroke="#9FAEC0" stroke-width="10" d="m118.469 981.406-40.875 24.188L0 1051.687l44.5 72.626 7.313 11.78 8.28 15.22-.093 2.374-1.094 3.626-.593 1.78-.313.72-.812 2.5-.594 3-.094 2.5v2l.5 2-.187 3.593v1.094l-.125 1.313h2.968l.438-4.907 1-.5 3-4.093 2.594-2.5 2.5-7.626 5.718.5 2 2.126 5.688 1 3.5-2.626 1.594-4.5-1.094-3.5 9.312-.593 1.5 1 3.094-1.5 2.5-4.5 2.594-1 1-4.594 3.594-6 3 2.5 1.125 3.5v4.594l1.5 2 2.093 2 6.094-3 2.094-6.594 3-1 3.094 3v4l1.125 3.594-4.625 5-7.188 3.5-2 6.093 5.094.5 7.094-2 4.625-4.593 1.593-4 2-3L143 1147.5l3.594-7 7.594-3.094 1.5-6.5-1-5.593 8.218 1 2.594 3.593.5 3 1 3.5.5 1.5 2.094 3 5.594-1 .5-3.5 1.125-5-2.625-4.093-.5-5.5h7.125l4.593.5 2.094-5.626v-6.5l-.094-7.093H191l5.188 3.5 2 6.593 2.625 5 5.593-6.593 2.594 9.093 1 .5 4.094-2.5 4.594-11.593 1-6.094 5.625-.5-.5 6.094 8.687-3.094 2.094-5 4.594 2 2.125 3.5 2.5.5 2.593-.5-.093-11.094 3.093 3 1.594-1 2-2 2.594-2.5 1-5.593 1.5-4 2.594.5 6.625 2.5 3.593-3.5-2.093-3v-4.126l-3-3 .5-6-1.125-4.593 2.625 1 2-1 2.093 3.5.5 3.093 2.094 1.5 1 .5.5-3 1.5-1.593 2.094 5.093-.5 5.5 3.594-2 2.5-5 5.125-5.593 6.687-1.5 6.594-1.094.5-4-3-.5-5.188-2.5 1.5-7.594 16.5 7.094 6.094-4.594 2.5-6 5.188 1 6.125 2.5h2.593l1.5-3.093 6.094-3.5h7.688l6.218-3.626 2.5-2 4.594-5.5 6.188-3.093 6.125 5.593 2.593 2.5 3.594 2.5 3.594 1.5 3.5-.5 6.219-4.593 3-2.5 5.687-3.5L409 1022l1.5-5.5 3.094-7.094 1.5-2.5 4.094 1.5 3.625-1.5 6.687-5.594 3-7 11.813-7.625 2-.5v4.5l-4.625 6.125-2 4-2 3.5v3.594l1 1.5h2l6.218-9.594 6.594-6.125 6.688-3.5 2.5-.5.5-1.5-.5-3.593-1.5-3-.157-.188zm359.594 0 .03.188.5 3 .5 2.5 3.594 3.5 5.125 1 3.594-2 4.094.5 1.5 4.5-3.5 2.593-4.594-1-1.594 2 5.688 5 6.594 1 7.718-.5 5.094-1 4.094-1.593 8.187-1.5 3.625-1.5 1-2.5-2-3.094-5.718-4V982l.25-.594z" style="fill:#9faec0"/></svg>