<svg xmlns="http://www.w3.org/2000/svg" width="6482.999" height="15432"><path stroke="#9FAEC0" stroke-width="10" d="m1961 0-149 7-159 20-16 3-148 31-139 41-133 48-5 2-164 76-98 49-131 91-109 92-104 87-54 52-24 22-95 106-84 107-64 104-51 91-44 94-33 92-20 88H6l-6 810 26.968 459.031h1965.375L1977 2507l-16-69-5-50 7-22 7-24 10-30 15-30 21-26 25-20 15-16 15-20 21-20 25-21 36-15 30-21 5-10 10-10 15-20 10-26 16-20 15-25 20-21 20-20 20-25 21-26 20-30 15-31 5-30 4-45 5-25 5-46 4-40 5-40 10-31 15-25 21-17 34-33 11-16 18-37 4-9 23-45 5-21 10-20 15-5 10 5 26 5 10-1h16l10-15 5-15 4-20v-31l10-45 5-30 4-36 10-30 20-40 15-36 20-40 20-46 15-45 10-31 15-30 10-30 15-21 20-20 21-10 20-31 30-30 61-66 61-56 36-36 45-26 7-4 44-27 82-36 40-20-77-69-70-43-20-12-143-90-113-56-139-61-144-48-117-41-118-33-133-23-129-4z" style="fill:#9faec0" transform="translate(0 125)"/><path stroke="#9FAEC0" stroke-width="10" d="M26.968 2572.031 109 3969l76.812 1175.094h2180.5L2362 5113l-31-45-41-55-16-46-25-20-31 5-41 11-52-21-15-20 5-5 41-15 41 5h36l36-25-21-65-20-26-41-10-26-35-5-65-10-30-47-66-87-45-36-55-5-61 82-55 63-40-78-85-26-33-72-104-46-100-1-41 9-30 17-65 11-26 15-35h66l93-5 94-6 16-8 13-8 17-9-10-27-11-34-6-10-5-25 5-30 5-15 10-25 5-26-6-15v-45l9-40 5-56-1-40-5-10-13-9-18-11-10-20-6-15 5-30 15-20 36-31 30-31 20-25 15-24 16-27 15-30 9-35 15-34 10-22 5-40-5-36-16-35-21-25-31-24-72-20-21-14-15-15-11-20-16-20v-15l-5-15-16-15-20-5-21-5-20-15-42-25-31-29-16-25-5-17-5-18-1.657-6.969z" style="fill:#9faec0" transform="translate(0 100)"/><path stroke="#9FAEC0" stroke-width="10" d="M185.812 5144.094 186 5147l33 502 21 393 32 552 44 695 25.968 427.125h2921.438L3252 7689l-10-81 15-70 21-76 10-45 15-56 46-90v-10l31-56 25-75 21-101v-35l-21-55-10-26-31-30-36-15-10-15-5-40 20-20 31-35 25-46-5-40-31-35-20-15-16-46 5-105-92-156-118-161-36-96-16-35-36-80-20-71-11-65-51-35-62-10-30-30-16-51-41-60-92-20-36-30-31-30h-26v35l16 60-10 46-31-5-31-61-26-20-71 5-16-10 15-40 16-40-10-15-11-41v-15l62 5 15-5-15-50-41-60-42-51-46-5h-30l-21-50 36-75-.688-4.906z" style="fill:#9faec0" transform="translate(0 75)"/><path stroke="#9FAEC0" stroke-width="10" d="M341.968 7716.125 343 7733l36 632 39 615 43 723 35.312 585.188h3738.313l-24.626-19.188-26-41-36-105-21-56-10-45 15-40 21-50v-66l15-70 36-96-5-60-31-96-57-85-72-61-36-55-10-70 10-86-41-55-46-61-36-75-93-85-82-91-118-90-82-55-67-36-36-40-15-20-16-40-26-136-5-116 21-110-1-56-15-35-15-25 5-25 20-25-5-36-31-50-20-25-16-25-5-56 5-40-10-40-9.593-22.875z" style="fill:#9faec0" transform="translate(0 50)"/><path stroke="#9FAEC0" stroke-width="10" d="M496.312 10288.188 517 10631l32 593h4l61 1093 25.531 543.25h5058.375L5695 12853l-36-30-25-11-31-10-20-10-16-20-10-15 15-35 31-5h31l20-20 16-5 10 10v15l-10 20 10 30h20l16 5h46l21 10 10 5 10-20v-25l-5-20 15-15 26 25 15 15 31 15 21-20 20-16 36-5 26 10 20 26 21 10 20 20 21-5 10-21-15-35-11-25 5-10 62 5 56 90-2.47 74.25h106.313L6260 12776l-21-110-26-111-26-161v-161l-5-136-16-146v-90l-5-106-26-95-10-81-16-40-36-30h-26l-25 60-20 76-26 70h-36l-77-40-82 20-61 26-72-15-88-31-51-30-72-65-56-35-52-30-66-45-52-15-41-10-36-76-92-120-77-56-21-55-36-55-61-15-67-121-52-106-41-110-67-106-102-90-67-76-62-60-102-70-52.376-40.812z" style="fill:#9faec0" transform="translate(0 25)"/><path stroke="#9FAEC0" stroke-width="10" d="M639.531 12860.25 663 13360l22 439 29 206 13 186 36 620 32 523 1077 39 952 25 1068 22 99 6 1783 5 277 1-8-9 10-15 15-66-26-45v-45l5-20 47 20 41 65 46 61 72 30 14 23 187-2 19-72 10-70-5-46-5-50-10-45-21-106 5-121-5-80-11-101 21-126-5-120-47-201-10-131-6-111-10-126-10-120-6-121-5-76-10-45-46 10-41 25-41 11-16 30 31 20 5 40 10 25 1 61-11 50 21 60v41l-41 10-21-36-25-20-52 5 1 66-21 40-31 5-5 81 16 65v40l-16 21-15 5h-10l-26-46-10-60-31-10-26 20-10-20 15-60 11-46v-15l-36-5-21 31h-36l-15-36 15-75 15-45-30-31-57 16-61-15-82 5-36 20-16 30-10 10h-36l-20 30-10 56-41 30-47-10h-36l-56 30-26 16-10 40-20 45-67 15-26 20-10 26-5 60-10 40-5 71-21 40-15 10h-20l-11-15-5-50 5-51 10-45 11-45v-30l-31-15-5-26 20-55 21-20 30-5 52 15 30-10 26-25-10-71-11-35-15-25-41 5-36 35h-62l-35-10-36 10h-31v-20l-5-10-47-30-61 15-72 15-61 16-36-15-62-5-20 30-26 25-31 10-36-45-61-5-36-20-10-10-6-35-5-41 31 10 67 20 51 10 46-15 41-15 62 20 56 5 31-15 36 10 41 5 41-15 82 10 41-15 46-26h51l26 15 41 10 57-15 66-5 31-10 15-45-5-41 10-20 57 5 15 20 26-15-5-65 15-56 21-10 30 25 41 21 98-31 46-15 41-20 41 5 26 15 36 10 15-40 15-10 36 20 21 5 20-11v-20l-15-25-5-20h30l26 10 67-10-21-30-20-30-36-30-41-16-82-20-52 26-10 35-36 5 5-45-10-10-46-5-16-20-30-10-62 20-21-25 21-36v-10l-36-10-21-25-5-35v-20l-77-10-97-20-72-15-15-10 30-45 5-15v-11l-15-15-26-50 21-15 31 5 20 35 26 25 46 5 51 25 31 41 36 15 36 10 46-16 26-20 15-5 10 30-10 36v25l11 30 46 10 36 15 15-5-10-50-21-31v-25l10-5 26-20-21-30-35-20-21-25-10-40v-21l10-55-5-50-3.094-7.75zm5535 0L6173 12907l20 86 5 100-25 51-21 40-15 101 5 50 16 50 41-10 25 25 6 40-41 11-26 10-5 45h67l56-20 41-56v-80l-26-101-10-105 20-86-5-91-16-90-4.157-16.75z" style="fill:#9faec0"/></svg>