<svg xmlns="http://www.w3.org/2000/svg" width="667.03" height="837.967"><g style="fill:#9faec0;fill-opacity:1;stroke:#9faec0;stroke-width:.00084671;stroke-linecap:round;stroke-linejoin:round;stroke-miterlimit:4;stroke-dasharray:none"><path d="m-77.027-38.935-.006-.002h-.004 0l-.004.001-.007.001-.002.002h0l.002-.003h0l-.003-.001h-.001l.002-.007.002-.002h.002l-.002-.004.005-.004v-.008l-.002.001h-.011v.003l-.002.001h0-.002l-.005-.001-.005-.012-.002-.002.018-.013.001-.002h0l.012-.009.004.004.021.015.002.002.005.004.006.005.01.008h-.003l-.003.001-.001.002-.003-.002-.001.001-.005.002v.008l-.003.003-.004.004-.002.001h-.001l-.005.001-.001.002z" style="fill:#9faec0;fill-opacity:1;stroke-width:.00084671;stroke-miterlimit:4;stroke-dasharray:none" transform="matrix(3152.25705 0 0 4086.03315 243103.52 159339.803)"/><path d="M-77.07-38.917h-.006 0-.004 0l.002.003v.013h-.004l-.008-.003-.004-.002-.007-.005-.002-.002-.003-.006-.007-.006-.004-.004-.001-.003-.002-.002.015-.012.004-.003.01-.008.02-.015v.002l.006.012h.006v.002h.001l.002-.002v-.003h.012l.001.001v.006l-.005.004.002.003-.003.002-.001.001-.003.006.003.001h.001v.002l-.002.002h0-.002l-.003.002.006.01-.002.002h0l-.006.002-.001-.001h-.008l-.002.001zm.056.01h-.001l-.003-.008.001.001h.003l-.001-.007h.003v-.005h-.002l-.004-.002-.001-.006v-.003h.002v-.002l.005-.004.003-.003h0v-.008l.005-.002h.002l.002.001.001-.002h.007l.05.038-.001.002-.003.002h-.007l-.009.015v.003h-.008l-.007-.002-.006-.001h-.002l-.02-.009-.004.002z" style="fill:#9faec0;fill-opacity:1;stroke-width:.00084671;stroke-miterlimit:4;stroke-dasharray:none" transform="matrix(3152.25705 0 0 4086.03315 243103.52 159339.803)"/><path d="M-77.02-38.916h-.001v.002h-.011v-.003h-.009l-.005.003v-.002l-.002-.002-.001-.001-.001-.002-.006-.01.003-.002h.003l.001-.002h.001l.007-.001.004-.002h.002l.002.001.003.001h.004v.001l.002-.001.005-.001v.004l.001.005.004.002h.002v.005h-.003v.006l-.002.001h-.001z" style="fill:#9faec0;fill-opacity:1;stroke-width:.00084671;stroke-miterlimit:4;stroke-dasharray:none" transform="matrix(3152.25705 0 0 4086.03315 243103.52 159339.803)"/><path d="M-77.01-38.892h.002v.002l-.001.002v.006h-.019l-.003.001.007.005.004.008v.011l-.012.006-.007-.013v-.004l-.002-.003-.002-.003-.002-.001h-.002l.001.002v.002h-.003l-.002-.002v-.002l-.003-.004-.001-.001h-.003l-.005-.009-.004-.01h-.001l-.002-.002h-.008v-.013l-.001-.002-.001-.001h.013l.003-.001h.006l.006-.002h.002v.001h.002l.002.003v.002l.005-.003h.009v.003h.011v-.001h.003l.003.008h-.001v.002l-.004.001v.008h-.004v.002l.006.002zm.04.019-.005-.002-.003-.002h.004l.002-.003.008-.01h-.004l-.003-.002-.003.002h0l-.002-.003h-.001v-.006l.008.001.007.001v-.003l.01-.015h.006l.003-.002.001-.002.007.006.026.02-.002.001-.008.007h-.001l-.03.024-.004.002-.008.007h0l-.004-.003-.002-.004v-.001h0l-.003-.004h-.002l-.006-.002h-.006l.004-.002h.01z" style="fill:#9faec0;fill-opacity:1;stroke-width:.00084671;stroke-miterlimit:4;stroke-dasharray:none" transform="matrix(3152.25705 0 0 4086.03315 243103.52 159339.803)"/><path d="m-76.971-38.892.003.002h.004l-.008.01-.002.002-.004.001-.006.002-.009.005h-.01l-.003.001-.002.005-.012.007v-.011l-.004-.008-.007-.005.003-.001h.019v-.009h0-.009l-.006-.003v-.002h.004v-.008h.004v-.003h.002v.001l.005-.002h.004l.02.008h.002l.007.001-.001.006h0l.003.002z" style="fill:#9faec0;fill-opacity:1;stroke-width:.00084671;stroke-miterlimit:4;stroke-dasharray:none" transform="matrix(3152.25705 0 0 4086.03315 243103.52 159339.803)"/><path d="m-77.02-38.857.012-.007.002-.005.002-.002h.011l.01-.004.005-.002.004.002.004.002h0l-.001.005h-.01l-.004.001.006.001.006.003.002-.001.002.003h.001v.002l.002.004.003.003h.001l-.018.014-.013.01-.007.006h-.001l-.038.03v-.009l.003-.014h-.002l-.001-.006v-.011l-.002-.002h-.002 0-.002v-.006h.003l.01-.002v-.008z" style="fill:#9faec0;fill-opacity:1;stroke-width:.00084671;stroke-miterlimit:4;stroke-dasharray:none" transform="matrix(3152.25705 0 0 4086.03315 243103.52 159339.803)"/></g><g style="fill:none;stroke:#9faec0;stroke-width:.00065236;stroke-linecap:round;stroke-linejoin:round;stroke-miterlimit:4;stroke-dasharray:none"><path d="m-77.041-38.995.002.001.002.002h0l.01.007.008.007.003.001.002.002.005.004.006.005.003.002.002.002.005.004.003.002.004.003.008.006.011.009.003.002h0l.002.002.002.001.002.001.007.006.008.007.008.005.003.003.008.006.004.003.005.004.002.001.004.004-.002.001-.002.002-.001.001-.004.003-.002.001-.001.002-.004.002-.007.006-.002.001h0l-.002.002-.008.006-.003.003-.003.002-.004.003-.004.003-.002.001-.001.002-.003.001-.001.002h0l-.002.001-.001.001-.003.002-.002.002-.007.005-.005.004-.004.003-.002.002h-.001l-.001.001-.004.003-.001.002h-.003v.001l-.009.006-.03.024v-.01l.004-.013-.003-.001v-.017l-.003-.001h-.002l-.001-.001v-.006h.003l.009-.001v-.009l-.005-.011-.002-.003v-.003l-.001-.004-.003-.002-.002-.002h-.001v.004h-.003l-.002-.002v-.002l-.003-.003v-.001h-.004l-.005-.009v-.002l-.004-.009h0l-.003-.001h-.007l-.005-.001-.008-.003-.003-.001-.008-.005-.002-.002-.001-.004-.002-.002-.007-.007-.003-.003-.001-.004-.002-.002.007-.005.003-.003.005-.004.004-.002.002-.002.007-.006.006-.004.005-.004.003-.003.006-.004.004-.003h0l.004-.003v-.001l.01-.006.001-.002h.001z" style="stroke-width:.00065236;stroke-miterlimit:4;stroke-dasharray:none" transform="matrix(3131.9581 0 0 4095.24669 241540.568 159695.558)"/></g></svg>