<svg xmlns="http://www.w3.org/2000/svg" width="4437.094" height="5141.813"><path stroke="#9FAEC0" stroke-width="10" d="m2283.188 0-18.594.906-303.907 8.282-23 .124H1937l-59.812 2h-12.282l-53 1.376-.218 5-41.188-.282-29.594-.312-25.093-.282-26.126.188-12.874-.312h-6.72l-31.28.218-76.22-.093H1530l-5.812-.313-64.876-.406-70.906-.688-41.593-.312L1173 13.188h-58.312l-84.188-.5L992.688 12l-94.282-2.406-10.218-.406h-1.282L884 9.094l-88.094-.281h-70.218l-79.375-.407-72.407-.5h-3L413.5 6.5 310.094 7.813l-40.5.28-28.906-.187-2-.093-19-.407L205.906 7h-2.094l-84-1.906L0 1.688l17.313 137.125 8.375 66.093 31.5 198.282 1.906 12L63.5 443.5l11.188 71 19.124 120.813 22.188 145 11.188 73.5.374 3.218h2493.563l-.125-1.937.5-3 .406-5.188-.094-3.406-1.718-5-.282-2.094-.5-2.093-1.125-5-1.593-8.125-1-4-1.594-5.594-1.5-4.5-2.594-4-2.094-2.594-3.625-3.406-4.093-3-4.094-3.5-3-3.094-1.5-2.187-2.594-4-3.312-4.907-.407-.906-2.093-4.5-2.594-5.5-1.594-3.812-.906-2.282-2.688-8-.406-1.718-1.719-8.375-.593-1.625-1.282-2.782-1.906-4.406-1.906-3.312-1.688-1.594-2-1.594-2.406-2.187-3.219-2.625-5.093-4.5-2-1.094-6.094-3.688-.5-.406-2.094-1.594-1.406-1.312-.813-.906-2-2-1.093-1.688-1-3-.188-1.406-.406-4.5v-1.906l-.313-2.688-.094-2.594-.094-.812-.5-3.094-1.906-3.312-1.781-2.188-1.5-4-.219-1.094-.281-1.906-.625-5-1.5-4.094-1.594-3.5-1.094-3-1.093-3.406-.594-3-.625-3.594-.094-4-.781-3.312-1.5-2.781-2.72-5.407-1.093-5.5-1.187-4.312-1.125-4.188-2.782-9.5-1.5-3.312-1.5-3.188-.812-1.5-2.094-1.406-1.812-1.594-.5-.406-2.375-2.406-.407-.5-.812-2.094-1.094-2-1.594-2.906-.593-.906-1.5-2.094-1.313-1.5-1.312-1.406-2.375-1.782-3.125-1.906-7.188-3.594-5.094-1.312-4-.406h-1.218l-2 .406-3.875 1.406-2.813 2-2.5 1.094-3 .5-2.906-.5-.688-.281-3.093-1.125-1.72-.688-1.187-.094-3.593-.406h-2.313l-1.5.188-3.5 3.125-2.594 1.5-3.093 1.5h-2l-3.125-2-.375-.407-1.907-1.406-.718-.594-1.094-.593-.781-.5-2.22-.407h-1.905l-1.594.282-1.5.718-.688.5-1.593.782-2 .125-2.313-.407-1.594-.5-2.5-.406-2.593.094-2.813.906-2.687 1.813-1.625 1.5-1.875 3.093-1 1-.907.782-3.218 1.906-2.5.5-2.594-.906-1.406-1-.594-.5-1.094-.875-1.406-1.125-3.781-1.282-4.22-1.906-5.093-3-2.187-1.406-1.72-1-5.093-1.406-5.687-2.5-4.125-2.5-1.5-1.188-1.188-1.187-2.906-3.625-1.094-1.594-1-1.906-.5-2.5-1.594-2-.812-.5-1-.5h-2.5l-2.688-.375-3 .093h-1.218l-1.094-.218-2.5-1.5-1.5-1.188-5.188-5.406-3.218-3.406-1-2-1-2.5v-.782l.312-1.718.813-1.375 1.593-3.22-.094-2.405-.125-1.094-2.093-2.5-2.594-1.5-3.094-1h-3l-3.094.5-2.625-.406-2.593-1.688-.407-.687-.593-1.22-1-2-1.594-3-.688-1.593-.812-1.906-1.906-2.5-3.907-4.688-1.28-1.218-1.72-2.094-2-1-1.593-.5-1.5-.5-.5-.5-.5-.781-.094-2.22-.5-2-2.188-1.593-3.125-.094-2 .094-1.594-.5-2-.406-2.687-3-.594-3-1.219-3.094-1.593-2.5-3.094-3.406-3.094-1.781-5.312-3-1.313-1.813-1.094-2V459l-1.28-1.687-2.313-1.407-2.594-.406-2.5-1-2-2-.5-2.5.906-3 2.5-2.594 1.5-.5 1.594-1.593-1.094-2-1.719-1.5-3.093-.813-3.594-.906-3.406-.688-2.5-.5-3.594.094-2.813.406-3.78 1.688-2.813.906-2.407-.5-3.093-2-3.594-1.906-1.094-.594-3-1.406-5-1.5-7.5-.5-4.812-.281-2.094-.125-2.5-.282-4.094-1.906-3.219-2.906-2.093-3.906-2.188-4.5-3.219-4-3.906-4.5-5.094-3.094-.406-.188-5.781-3.812-7.719-4.5-2.594-1.5-4.593-3-6.907-4.188-2-1.718-3.28-3.094-3.313-4.5-1-3.5-1.688-3.406-1-1.188-1.406-1.406-1-.406-1.313-.5-3.593.125-4.594-.313-.594-.187-2.812-1.125-2-2-2.094-2.594-2.594-2.5-5.125-1.906h-3.781l-1.813-.282-1.406-.218-1.281-.5-.313-.782-.593-1.406.406-2.5.5-.906.906-1.688-.5-3.5-.406-.718-1.094-2.094L2066 341l-1.594-.812-.5-.188-3.219-1.406-1.781-1.281-.813-1.72 1-2.5 2-2.093 1-2.5-.5-2-1.187-2-.5-1-1.594-4-.312-1-.907-3.5-.687-3.5.5-4.094.406-2.5 2.094-3.593 2.5-3.5 2.594-3 2.312-1.72 2.281-1.405 1.407-1.094 1.093-.906 2-2 .594-1.375.906-1.625 1.594-2.5 2.219-1.188 1.281-1.406 1-1.5 1.625-3.094.594-.812 1.187-1.282 2.313-.5.5-.312 1.187-1.281.407-.907-.594-3v-4l.406-4.093v-3.5l-.5-4-.406-2.907-.094-1.718-.719-2.782-.187-2.312-.22-4.5v-2.5l2.907-4.094 1.094-1.312 1.5-1.594 3.625-3.094 2.781-2.312 3.594-2.094 2.812-1.594 1.594-1 .406-2.094-1-2.5-1.593-2-1.72-2.5-.874-2.312.375-1.688 1.125-1.5.875-.5.719.188.5.093 3 1.5 1.593.5 2.5-.593 1.688-1.281.812-1.22 1-2.093 2.188-1.406 1.5-.188h.812l2.094.906 2.094 2 2.625 1.375 1 .22 1.594.187 2.187-.406 2-2.094.813-1.594.28-1.187.626-3.313-.125-2.094.312-2.719v-1.093l-1-2.688-1.593-1.5-.5-2.5.906-2.5 1.187-2.5.5-2.5.5-2 1.688-2.094 2.406-1 .594.188 1.625.594 2.594 1.406 2.093 1.594.5.312 1.813.406 1.781-.406.219-1.906v-.687l-.5-2.5-.406-2.5.094-3.313 3.312-3.312.875-2-.5-2-.375-.782-1-1.812-1.219-1.406-.187-1.188.594-.312 1.5-.094h1.812l3.281-.5 1.594-.188.813-.406 1-.906.687-1.188-.094-2.218-.187-.688-1-2-1.5-2.094-.094-1.5 2-2 .5-.093 1.594-.125h3.406l1.687-.094 3.094-.094 3.594-.594 2-1 2-1.093 2-2.125.312-.5.688-1 .406-.875.813-1 .5-.5 1.906.375.281.718.313.907.78 1.875.313.5 1.407 1.406 1.187.219h1.5l1.594-.5.906-1.625.719-1.188.187-1.187-.687-4 .5-2.5.5-1 1-1.22h2.875l1-2 .625-1.5 1.5-2.093 1.5-.5h1.5l1.375-.687 1.219-.813.906-.906.5-.781 2-2.5 1.5-3.125 1.187-2.188 2.188-2.906 4-4.188 1.312-1.406.688-.594 2.5-2.093 1.312-.625 1.188-.5 2.125.906 2.094 2.5 2 .5 1.28-.781.313-1.313.313-2.812-.406-3.188-.094-3.406.28-1.5.5-1.781 2.095-1.5.906-.22h.812l2.094 1 1.5 1.5 2.594 2.5 2.219.407h2.875l1.906-1 2-1.594 2.312-1.406 2-1.094.407-.812.28-1.406.5-3 .407-2.282 2.5-1 1.5 1 1.594 2.407 2.5 1.093 2.094-.5 1.218-.5 1-.5 1.907-1.5.094-.593-.094-1.5-1.125-2.5-2.094-2-2-1.5-3.094-3-1.594-2-.312-2.813 1.594-2.094.812-.406 1-.312 2 .5 2.094 1.5.594.625 1.125.78.687-.5.5-.405.094-.782v-1.718l-.406-.5-1.094-1-.594-.594-1.312-.906-1.594-1.375.219-.625.687-1 .594-1.5-.594-2.094-1-2v-3.188l.813-2.312.687-1.906.313-.594.5-.906 1-1.688.687-.687 1-.813 1-1.5 1.094-1 .313-.687.687-1.313 1.813-2.406 2.187-2.188 1.906-1.812 1.188-1.5 1.5-2.188 1-2.593-.281-1.72-.407-.593-1.906-1.687-1-1v-1.5l-.687-1.813-.72-2.5z" style="fill:#9faec0" transform="translate(0 125)"/><path stroke="#9FAEC0" stroke-width="10" d="M127.563 857.031 129 868.906l1.594 8.094 19.5 131.906 8.312 56.188L169.094 1138l10.812 74.406 9.688 66.5L218.906 1484l1.688 12.188 26.094 177.406 4.906 33.218 1 7.25H3397.25l-2.75-3.75-1-1.906-1-2.5-2.687-6.093-2.126-3.407-2.5-2.812-.593-.5-2.188-1.594-1.593-1-1.813-.812-3.812-2.094-2.594-.906-1.688-.688-1.906-.687-.594-.407-2.218-.718-2-.875-1.094-.625-3.094-2-4.594-2.282-2-.812-4.093-1.906-3.813-1-4.5-1.782-4.094-1-3.093-.906-2.626-1.406-2.593-3-2.094-3-.687-5-.126-4.5-.593-3.094-1.094-3-.406-.687-2.594-4.22-2.094-3.5-2-3.093-2.593-3.5-2.626-3-2-2-.874-1.094-1.22-1.406-1-2v-2l-.593-.812-1.687-1.375-1.313-1-.812-.5-5.188-3.907-3.187-2.5-.407-.406-2.218-2.594-1.282-1.312-1.812-3-6.407-7.5-3.374-4.188-.72-.812-2.687-3.406-.906-.875-1.812-2-2.594-2-4.594-2-4.094-1.5-3.593-2-3.313-2.125-4.406-3.375-2.094-1.5-1.812-1-4.094-2.407-3.407-1.5-4.374-1.812-3.126-2-3.187-1.781-.5-.813-1.594-2.187-2-2.5-2.593-2.5-1.5-1.625-2.22-2-2.093-.782-2.594-.406h-2.093l-2.313.188-3 1.718-3.312 2.407-3 2.093-4 1.594-3.094.094-2.5-.094-.5-.094-3.094-1.5-3.094-2-2.218-2.094-.688-.812-2.5-3.188-2.094-3.406-2.093-3.5-2.22-3L3168 1534l-3.094-1.5-3.593-.907-4.126-.906-1-.187-3.5-1.094-4.28-2-1.407-1.313-4.906-4.593-5.282-5.907-1-1.28-1.124-2-3.094-8.5-.782-1.907-.5-2.313-1.218-5.5-.188-5.5.407-5.593v-1l-.126-2.5v-2.094l-.093-2-.594-2.5-.594-3-.719-1.406-.375-.5-1.906-2.313-1.719-1.687-2.687-3-.188-.5-1.812-3.094-1.406-2.094-.782-.719-2.906-3.187-2.594-2.906-4-3.313-3.718-3.375-3.594-4.5-2.594-3.5-2-5-.719-2.812-.187-1.594-.094-3.594.406-3v-.906l-.219-3.094-.906-2.718-1.187-3.282-.313-1.718v-3.5l-1-3.094-2.094-3.813-1.187-3.5-1-3-.719-1.875-1.281-2.812-1.313-2.594-1.594-2.594-4.187-5-6.812-6.406-1.594-1.594-4.094-3.906-7.125-6.094-5.187-4.5-3-2.406-3.688-1.094-3.5-.312-.719-.313-1.906-.687-1.594-1.094-2-4.812-.687-4-.594-4-.406-2.407-.406-1.5-1.594-3.375-2-3.125-3.719-3.593-15.187-12.188-14.094-12.719-4.219-3.593-1.594-1.282-2.594-2-2.593-1.406-2.219-.312h-1.094l-3.281-.094-3.125-.407-6.875-5-13.5-11.593-5.812-5.407-3.094-1.906-1.813-.875-2-.719-5.187-1.5-6.094-1-5.125-1-5.094-1.281-3.594-1.5-2.812-1.719-1.875-1.406-4.719-3.594-11.687-9.5-15-11.5-2.219-1.781-8.5-7.219-8.781-6.5-5.594-5L2855 1202l-4.094-5.407L2849 1194l-1.813-2.407-1.875-3.093-1.812-2.907-.5-.406-2.188-2.5-1.312-2-3.907-5.687-.406-.407-2.781-1.781-2.813-1.406-1.187-.406-3.313-1.594-4.594-.813-4.093-.406-1.906-.187-1.688-.188-4.125-.906-3.281-.5-4.094-.906-4-1.813-2.625-2.5-4.187-3.375-.407-.625-.594-1.187-3.312-3.907-1.094-3.187-.594-3.594-1.093-3.5-.5-1.312-1.094-2.594-1.625-3.5-2.375-3.906-1.406-2.594-1.094-2.313-.312-1.281-.688-1.812-2.906-8.688-.813-1.812-1.906-4.813-4.594-8-3.094-5.5-.406-1.687-1.687-5-1.094-3.5-.125-2v-1.5l.406-3.594-.187-1.094-.594-1.812-.906-1.407-1-1.093-3.094-3-3.219-2.407-2.687-2.593-2-2.907-1.594-2.906-2.219-2.375-2-1.625-1.281-1.375-1.406-1.5-1.594-3-1.625-3.5-1.594-3-2.687-3.406-2-1-6.219-2-2.687-1.813-3.094-2.906-1.094-2.281-.812-2-1.094-5.094.5-3.5 1.5-4.125v-2.5l-.594-2.687-1.406-3.407-1.594-1.906-2.125-1.687-1.281-.907-2.719-1.906-3.594-3-3.187-5-.906-1.5-2.313-3.875-5-9.219-2.594-4.594-2.687-4-2.594-2.593-3-2.407-1.219-1.187-1-.719-2.594-2.5-2.093-1.906-.5-.281-2.813-.907-2.187-.906-1.219-.281-3.687-1.406-2.407-1.219-.687-.188-3.719-2.5-4.094-2.5-2.094-2-2-2.5-.593-1.093-1.719-4.219-1.781-5.781-3.719-7.719-1.594-3.875-1.5-2.906-.781-2.094-1.812-4.5v-7.625l-.095-4.5-1-6-1.312-3.5-1.094-2-.906-1.375-.688-1.125-1.593-2.5-1.625-2.594-1.094-2.5-.5-1.906.906-3 .5-3.188-.094-2.906-1.094-2.5-1.125-3-.062-1.062H127.562z" style="fill:#9faec0" transform="translate(0 100)"/><path stroke="#9FAEC0" stroke-width="10" d="m252.594 1714.063 2.812 20.437L281 1919l22.594 147.188 3.906 23.624 2.594 16.188 4.406 27.313.5 5.28 8.094 58.313 4.594 34.5 2 14.282 9 64.812 4.625 32.594 2.093 10.593.188.907 1.812 9.218 1.688 5 3.219 2.688 5.093 1.188 3.5.124 2.094-1.5 3.094-.406 2.5 1.094 2 2 2.906 4.688 1 3.5-.687 2.124-2.625 2.876-3.5 1.624-2.5 2.094-1.782 2.094-2.312 3-.5 3 .594 4 1.5 3.094.625 3v3.593l-1.125 3.5-.375 3.5 1.093 3.5 1.5 2.5 3.594 4.407 6 3.218 6.906 2.876 3 2.5 2.594 3.5.406 4.624 1 1 1.781 1.5 3 2 4.22 2.282 3 1.593 2.593 1.626.5 2.5-1.5 2.5-2.5 1.593-3.906 1.782-3.281 1.218-3.5 2.594-2.625 2-1.594 3-.594 3 .906 3 1.406 3.594 1.5 3.093.594 2.5 1.094 3.5 8.688 1 7.218 2.407 4.5 3.906 1.906 3.5.875 4.594-1.187 5-2.094 4-1.812 1.718-1 2.594v3.5l.406 4.782.688 3.812 1.625 6 2.093 9.094 2.094 7.093 3.313 5.126 7.593 8.374 1.531 1.938h3470.126l-.25-.219-1.907-2-1-3v-2.593l2-2.407.594-2.718-.594-2.5-3.593-4.5-1.626-3v-3l-.5-2.282-.5-1.812-3.093-1.907-1.907-.374-1.687-.22-1.812-.187-2.094-1.5-1.188-1.093-1.5-1.22-.718-.5-1.876-1.5-1-.5-1.624-2.5.624-3 2-2.593 1.188-1.187 1.094-.907 2.812-1 .407-.312 1.874-1.907.813-1.687-1.5-2.094-.5-1.718.5-1 2.094-2.094.5-.907.906-1.374-.094-1.813-.813-.812-.78-.688-.626-.5-1.281-1.187-.594-3.126.5-2.5 1.781-1.28 1-1 .407-.595.406-1.124v-1.594l.5-.782.5-.718.687-.594 2.094-2.094.813-1.218 1-1.594v-2l-.407-.594-.593-1-1.407-.906-.78-.407-4.126.126h-2.5l-1.594.093-2.093-.906-.407-1.406.72-1 .687-.781 2.187-1.313.719-.406 1.687-.906 1.313-.5 1.687-.594 1.5-.594.313-.406v-.688l-1.094-1-1.812-1.312-1.094-1-.094-2.188-.5-1.312-2.625-1.281-1.5-.625-.594-.5-.5-.782-.406-1.718-1.687-1.5-2.094-.875-2.406.094h-2.188l-1-1.5.594-1.594 2.406-1.625 3.188-1 2.906-.5 2-.594.5-.781.094-1.406-.688-1.407-2.625-1.406-3.187-.5-1.906-.5-1.688-.906-1.594-1.5v-1.5l.594-2 2-2.094 1.5-1.5 1-1.594.906-2v-1l-2.625-2.5-1.375-2-.5-.687-.312-.813.5-1 1-1.5.5-2-.188-.593-.406-1.5-.594-2v-2l1.594-2.22.906-.78 2.594-2.594.406-1.625-1.125-1.5-2.093-.875-1.5-1 .406-1.5.406-.719.594-.906-.5-2-1.688-2-2.125-1.5-.875-1.688.782-1.312 1.406-.375 1.812.375 2-.594 1-1.5.5-1.594-.718-2.593-1.407-2.313-2.593-3-2-3.094-.782-.406-2.125-1-2.5-.5-1.375.406-1.218.313-1.094.5-1.688.281h-.812l-.906-.187-1.282-2.813v-2.5l-.218-1-.782-1.687-.625-.907-.5-.5-2.5-.094-2.5 1.594-2 2.594-1.5 2.594-1.687.406-1.5-.5-.906-.781v-2.125l-.095-3 .907-2.594 1.594-3.594 1.312-3.5 1.5-4.094.5-1.312.188-1.188.5-4-.5-2.093-1.5-2-2.094-.907-2.094-1-3-1.593-.812-.72-.813-1.093-.5-.594-1.094-1.406-1.187-.5-.813-.187-2.5.5-1.5 1.5-2.687.5-2-1-2.594-1.5-1.406-2.5.5-2 .781-2.125.906-2 1.906-3.094 1.5-1.406 2.094-.594 2.5-.094 2.594-.594 1-.5.406-1.5-.094-1.813-.406-1.78-1.594-1.907-1.594-1.094-1.812-.219h-.594l-2.094.5-.5 1.5-1.593 2-.907 1-1.593.094-1-1-1.5-1-.625-2.593v-3l-.188-1.094-.312-1.906V2302l-.5-2.5-1.594-1.5-.5-.813-.5-.687-1.5-1-.5-2 .5-2 1-1.5.406-.906-1.094-2.5-.312-.594-1.094-1.094-1.5-1.219-1.094-.78-4.812-3.313-2.906-2.688-2-2-2-2.594-.594-3 .5-2.5 1-2.625-.594-2.093-1.594-2-2.906-1.907-2.594-4-1-3-.406-1.875-1.187-6.5-.125-3.125v-1.5l.125-.5 1-.094 1.375-.094.812 1.094.906 1.406.594.907.406.687 1.594 1.5 2-.594 1.5-1.5.906-2.593.282-1.407.312-2.5 1.594-8.312.906-4.5v-4l1-3.5 1.594-3 1-2v-3.094l-1.594-2.5-3-1-2.094-.5-1-1.687v-1.313l1-1.094 2.5-1.093 1.688-1 .906-.5 2-1.594v-1l-1.094-2.313-.718-.187-1.282-.313-2-.406-1.906-1.406-1.687-1.188-1.5-1-1.813.407-1 .187-1.812.906-1.094 2-1.406 1.094-1.594-1.5V2187l.312-1.093.188-.907v-2l-.5-1.5-3.094-1.5-1.094-.906-.5-2.094.594-1.812.688-.781.812-.5 1.594-.907.312-1-.406-1.406-2.094-1.5-3.093.094-.907-.594-.718-.406-1.5-.5-4.094-2.375-.406-.406-1.188-1.594-.594-2-.5-.906-.593-1.094-2.22-1.406H3763l-1.812.094-1.782-.094-1.312-.813-1.188-.687-2.593-3-.5-1.094-.407-1.219-1.593-1.5-1.813-.28h-.812l-2.5 2.5-2 1.5-2.5 1.5-.688-.126-4-1.187-2.094-.5-2.593-1.594-.5-2.313.5-.5 1-.687 2.093-1 .5-.406 1-.688.5-1.5.407-1-.125-.906-.282-.594-1.812-2.906-1.281-1.594-1.813-1.125-.5-.281-1.812.594-.5 1.812v.875l.312.906.094 1.22-.406 1.5-1.5.593-.875-.313-.812-.406-2.094-2-1.594-2-1.125-1.594-.687-1.28-.313-1.626-.187-.875-1-1.5-1.407-.625-1.687-.875-2.094-2-2-3-2.125-.906-2-.5-2.094.094h-1.187l-1.313.094-3-.094-1.094-.688-1.687-.906-.906-1.594.5-1.5 2.094-1.625.5-1.875.5-1.625-.313-1.187-.5-1-1.094-1.406-.5-.688-.687-.719-2-.5-1.594 1-1.5 3-2 1.625-1.625 1-1.187-.406-1.094-1.5v-2l1.5-3.094 1.781-3.625v-2.593l-2-2-3.094-1.407-4.187.22-5 .78-2.594.5-5.125 1.5-3.594.625-3 .094-3.094-.406-3.593-.906-2.719-1.406-3.5-2.5-.375-.5-3.125-3.375-4.094-3.625-.906-.594-4.594-2.688-7.781-2.812-9.312-3.906-10.313-2.688-3-.5-2.094-.406-.781-.188-2.719-1.093-2.094-.625-2.093-2-2.719-1.875-3.375-2-2.5-1-2.125-.5-2.281-2.313-2.719-2.406-3.094-3.5-5.187-3.906-5.313-4.375-1.906-1.72-4.875-4.187-6.312-5.906-4.188-4.406-3.125-4.5-2.594-5.5-2.094-6.594-.312-.906L3539 2012l-1-2.094-.095-2 1.094-1.406 1.406-1.094.5-1.406v-1l-.5-2.687 1.094-1.5.594-.5 1.719-1.5 1.5-1 .375-.5.625-.625 1.875-2.094 1-2 .312-2.5-.187-1.188-.22-1.312-1.093-2.5-1.5-2-1.594-2.094-.718-.906-1.5-2.5-.594-1.094-.406-.906-1.094-3-1.281-3.094-2.625-2.5-1.688-1.687-.812-.625-2.594-1.375-1.5-.313h-1l-2 2.094-.094 1.5.812 2.219.282.78.593 1.5.625 1.813-.406 2.094-2 1.5-4.094 1.188-7.625-1-4.78-1.782-1.5-.5-1-.406-2.095-.5-1.625-.906-1.5-1.5-1.187-3.906-.094-2.594-1.5-3-2.594-2-3-1.594-3.812-1.187-5.094-.907-.813-.5-2.093-1.812-3.407-4.188-4.28-3.312-5.126-2.5-3.687-2.906-.594-.594-1.906-1.781-.813-.907-.781-1.312-.719-1.406-.375-.875-.406-2.313v-.594l.281-.593 1.5-1.22 2 .095 2.313.312h2.093l1.313-.906.187-.906V1925l-.5-1.593-1.5-1-2.187-2.094-1.5-1.906-.719-1.5-.187-.813.5-1.5.906-1.594h2.5l2.094.907 1.593 2 1.5 2 2.22 1.406 1.593.781 3 .219 1.594-1.125.406-1.094-.094-2.281-1.5-1-2.125-1-2.094-1.125-1.5-1.5.406-2 .5-2-.187-2.375-.719-1.125-1.781-1.094-1.813-.906-2-1.5-1.593-2.375-1-3.125-2.594-1.5-.906-.188-2.094-.593-4.125-.407-1.375-.687-2.313-1.625-2-1.5-.5-3v-2.5l-.094-2.594.282-1.094 1-2 1-.5 2.625-.094 5.593 1.407 1.282-.22.5-.593.5-1.5.5-2.5 1-1.594-.688-2.718-1.906-2.282-1.688-.5-1.312-.218-2.094.625-1.812 1.5-.688.687-1.594 1.5-1.406.5-2.094-1-1-2-.094-2-.5-2.5-2-1-2.718.594-2.407 1.406-2.093 2.688-.782 1.218-.718.688-1.188.5-1.312.312-2.594-.5-.5-1-.5-1.312v-2.5l.406-3.094v-2.5l-1-1-.812-.094h-1.407l-3.093 1.094h-1.907l-1-1.5 1-2.5-.28-.907-.22-.687-2.28-.906-.595-.094-2-.813-1.625-1-.593-2.594.5-2.5.406-3-.594-2.5-1.406-1.593h-1.688l-1 .187-2 3.594-.406 3.812-.406 2.813-.313 1.594-.28.687-1.407 2.219-1.906.594-1.094-1.094.187-1.219.625-1.5 1-2.094v-2.187l-1.5-1.406-1.625-2-2.593-.906-2.5-2-1.594-2 .5-2 .594-.907 1.312-1.687.781-.907 1.407-1.093 2.218-1.719 2-1.594.5-1.187-.812-.813-.688-.406-3.312.125-2.5 1.594-2 1-1.313.593-1.78-.593-1.313-.907-4.594.688-2.813.719-1.28.406-2.595-.5-1.718-.813-1-1.5 1-2.687 1-2.5.5-3.906v-2.5l-.094-.719-3.188-4-2.906-2.375-2.594-2.5-.719-2.313-.187-.687 1-3 2.094-1.813.406-.312 2-.094 2.094 1 1.312.906.781.594 1.407.813 1.593.78 1.313.313 1.406-.094.875-.219 1-.5 1.5-2 .5-1.28.5-1.407-.594-1.406-.5-.782-2.093-3-2.594-3.5-1.906-4.312-.407-2.594v-1.094l.313-4.5-1.094-3-.312-.625-1.188-1.375-2.625-1.906-2.594-1.5-2.5-2-1-3 .5-2.5 2-1.594 1.813-.406.594-.094 3 .375 1.5-.094h2l1.406-.28 2.094-1 2-2 1.5-3-.094-3-.407-2.126-2.093-3-1.313-2.281-.687-1.313-.5-1.093-.313-1.594v-1l.313-1.406.593-.688 2.407-1.719 2.687-.906 3.5-1.187.906-.313 1.688-.687 2.5-2.094 1.406-2.594v-2.5l-.594-3-1.5-2.906-.25-.344H252.591z" style="fill:#9faec0" transform="translate(0 75)"/><path stroke="#9FAEC0" stroke-width="10" d="m425.438 2571.125 3.75 4.688 1.906 4 1.094 5.5.125 5.78-6.72 3.907-4.78 4.813-1.72 4-.593 2.78 1.094 2.095 2 1.5 1.906.812 2.188.594 2.406 1.593 2.812.407 3.281-.282 2.5 1.094 1.313 1.688.188 1.406-1.688 2.094-2 3.093-1.187 3.313.875 3.5.906 1.813 3.094 2.874 2 2.626 1.406 3 .312 5.593-.219 1.5-.375 3 .594 5.594 1.594 7.094 3.094 6 5.219 7.406 4 3.188 3.187 2.406 2.594 4 3.094 5.406 3.906 4.188 3.812 4 4.688 5 4.906 5.5 3.313 5 2.593 2.624 2.594.876 2.406 3 .5 2 .188 2.124 1 1.5 2.719 1.594 3 2.907 1 3 2.375 3.28 2.5 2.595 2.406 3.218 2.906 5.094 2.188 4.906.625 2.282 1 3.812.78 7.813.407 5.093.313 5.094.28 6.5v6.813l-.28 4.78-.125 5.095-.188 4.5.906 6.624 1.407 4.594 2.375 4.594 4 3.688 3.406 3.124 4.718 2.782 3.875 1.5 3.313 2.5 2.5 3.5 2.094 3.312 1.406 4.094-.312 4.188-1.875 3.312-2.72 3.5-4 2.906-3 2.5-1.405 2.5-1.688 4-.594 4 1.907 5.094 2.5 3.594 3.5 2.093 1.593 1.907v1.5l-1.5 1-3.593.094-4.313.406-3.906.094-2 2.125-1 2.5v3.5l1 1.687 2.093.313 3.625-.5 3.5.5 3 1.594 1.188 2.406-.312 1.594-1.782.406-3.5 1.094-2.406.28-2.687 2.5-1.5 2.313-.72 3.688-.093 3.5-1.188 3.406-3 3.094-3.125 2-2.687 2.406-1.813 1.719-4.094 4.594-3.593 5-1.688 6 .281 5.093.907 6.094 2.906 3.594 5 3.906 8.187 4 11.813 5 11.281 5.313 8 4.28 5.813 2.313 4.812 2.094 4 2.406 4.5 3.407 4.5 4.093 5.875 8.094 6.5 6.5 8.5 6.313 5.5 4.187 4.5 2.594 3.313 2.406 2.187 2.313-.187 1.187-.907 1.313-1.093.187-1.5-.906h-2.094l-1.5.5L602.5 3036l-.907 2.407-.406 1.28-2.687 2-2.594 1.407-3.094.906-2.125-.094-3.094-.5-2.406-.094-2.5-.125-2.687 2-1.594 2.813.094 2.094 1.5 1 1.406.218 2.094-.5 3.5.688 1 1v1.5l-.594 2.5-2.718 3.5-2 2.687-1.188 2.22-.594 2.187-.5 1.906-.218 3.312-1 3-1 2.094-3.688 1-8.187 1.281-11.813-.375-9.187-.218-7.125 1.312-4.875 2.406-3 2.875-1.625 3-1 3.72 1.312 2.905 1.5 2.094 2.906.5 2.094.5 3 .5 2.188.281 1.406 1.22v1.28l-.5 2-2.5 1.813L536 3107l-3.5 1.594-7.5 2.218-9.812 2.782-8.188 3.312-4.594 1-4 2-2.312 1.688-1.781 2.406-2 3.594-2.5 3.5-3.313 3.406-2.812 2.687-2 2.125-2.094 3-3.5 5.094-7.094 8.406-4.5 5.782-4.094 3.593-5.5 4.313-3.594 2.406-1.718 3.5 1.312 7.094 4.094 17.406 4.594 15.094.094.812.812 4.375v2.625l-1.593 2.5-3.22 3.375-2.374 3.313-.406 5.094v10.093l.593 2.5-.312 1.72-.688 4.905-2 9.594.094 6.094v5.5l-.406 6.094v3.5l.625 4.593 1 3.5.5 2.5.094 2.625-1 3-1.5 3.094-3.219 4.5-2.094 3-2.687 4.406-2.594 6.782-.406 3.812-.094.781-.5 4.72.594 10 2.093 3.5.5 3-1.187 2.78-2.812 2.313-3.407 3.094-4.687 2-3.094 2.312-1.5 2.781.094 4.625.687 3.875.313 1.407.406 1.5.688 2.312-.313 4.281-.594 2.5-2.593 2.813-2 2.5-2.594 3.094-2.313 1.906-2.593 2-2.594 2.406-2.094 2.406-1 2.5-2 2.5-2.5 2.094-2.406 1.906-2.094 1.875-2.125 1.313-1.094 1.687.594 1.813.906 1.312 2 1.5.72 1.782.093 2.812-.219 1.25h3729.344l-.844-2.469-3.593-6.593-7.094-.907-6.094 1-9.219-2-7.187 5.125-6.094 3-6.594-.906v-4.594l1-6.125 5.594-4 5.094-4.093 3-5.594 1-3.5-3.594-3-5.594 4-5.625 7.594-4.5 8.218-4.593 6-5.094 5.094-5.094 2.094-5.094-3.594-1-7.5-.625-8.594-6.093-1-7.188.5-9.094-2 .375-6.625 1.625-6-.625-4.093-2.5-1.5-3.593-.5-4.594-.5-.5-5.5-1.094-7.094-5.094-3.5-3.125-3 .5-2.594 7.22-.5 7.093 2 1.594 6.594.5 7 5.093 2 6.22 2.5 2.5 5.094.093 4-4.594 6.093 3 2 6.188.5 5.594 1 4.125 2 1.5 3 .5 3.625.594 3 2.5.5 5.093-5.125 6.594-7.093.5-.5 7.719-7.594 4.5-6.594 4.594-1.5 1.5-.5 4.093 3 3.594 5.5-1 4.594-3.5 7.094-4.594 6.593-2 2.5 1 2 3.594-2 6.594-3.093 8.125-4 7.687 1.406 10.688 6.094 6.719 8 2.624 5.562h26.876l-7-4.562-4.72-9.094v-7.594l-1.5-8.594-2.593-5-13.281-2h-10.72l-7.186-1.5-5.094-1.5-4.125-3.5-.5-4.5 5.125.375 7.187 1 8.594 3 6.719-.5 2-1-4.625-1.5-5.094-2.5-4.094-4.593-4.093-5-4.094-4-3.625-3.094-2-5.5 3-1.5 4.125 1.5 3.594-.094 4.593-1.5 3.094 6.594 1 3.5 2.594 6.093h3.5l7.219 1.407 5.093 2 1 4.593.594 3.5 1.5 4.094 3.594 4 4.125 6.125 1.5 4.5 1.594 3.5 4.093 6.594 5.094 4.5 3.594 2.594 4.625 2 7.094-.094 4.093-2.5-1.5-6.094-.593-6.5-7.22-14.219-2.5-4-3.593-7.094-3.094-4-7.187-.5-7.625-4-4.594-6.593 2-8.094 3.5-6.625 4.594-4.5 5.625-3.094-1.5 8.094-4 6.625-1.625 2.5.625 6.094 5.594 1.5 6.093.5 5.594 2 1.094 4.5 2 6.093 2.625 2 4.094 3 5.593 1.5-3.593 4.094 1.593 5 2.5 6.594 2.594 7.125 5.094 6 5.219 3 3 5.094 3.843 3.75h111.875l.188-.157 2-1 4.594-4.093 6.093-5 7.094-7.72 8.719-11.093-1.5-1.5-8.719-3-9.687.5-6.72 1.5-9.687-4.5-5.593-5.5-3.094-4.594-5.625-2.5-5.094-3 2.5-5.593-6.094-7.5-7.187-4-6.625-3.594-5.688-5-2.5-3-2.093-5.625-1-10.594 1.5-7.094 2-5.5 4.093-4.593 1-6.594-.5-5-4.093-2.625-2.594-2.5-4.625 4.125-2-1 1-11.719-2.594-5-5.594-2-6.187-4.5 10.187-1.094 7.188 5 5.625 5.594 4.594 4.5 2.093.5 2 1.5v4.594l2.594 4 .5 3.625.594 6 1 4.094-3 9.593-2.094 6.094-1 4 1.594 7.594 1.5 4 3.125 2.625 4.094 1.5 4.093 1 4.594.875 3 1.625 3.094 3 5.125 7 3.594 1.5 4.093-4.5 3.5-3.125 2.094-4 5.094-3.094 4-4.5v-4.094l-11.688-5-3.093-3.5 2-2.593 4.593 1.5 2.594 2.593 5.094 1.5 6.625 1.407 5.094-2.5 3.093-4.594 2.5-5-2-6.625-2.093-10.594v-7.094l1.5-4-.5-6.093-2.094-3.5-6.125-1-6.688-4.094.5-4 1-5.625-4.593-3-7.594-4-4.625-3.5-6.688-12.094 7.688 4.5 4.625 5 6.594 3.5 5.593 1.5 3.094 3.594 2.594 5.5 4.625 3 4.594 1.5 4.093 2 2 5.125-.5 3-.5 7.594.594 6.093.5 2.5 1.5 7.594.594 5.094.5 4v5.625l-2.594 4-2 2.5-2.5 2.594-2.594 4.5 3.594 3.593 1.594 1.5 4.625 4-2.125 3.094-2.5 4.5v3.094l4.125 1.5 8.094-4.594 4.593-5.094h2.594l7.094-2.093 4.125 1.5 4.594-1.5 7.593-3.594 7.688-7.625 5.125-3 6.094-3.594 2.5-3 3.093-3.094.5-3 1.5-5.093-3.093-7-2.094-6.594-2-5.125-.5-3.5 7.094.5 1.093 7.625 2 4.5 4.094-4.5 2.5-8.125.5-10.688-1.094-14.093-3.5-3.594-4.593-.406-4.594 2-5.125 2.5-4.094 1.593-6.594 2.5-9.687.094-.625-4.593-1.5-8.094-3.094-8.594-3.594-7-3.093 1-6.094 2-9.219-.406-4.094-2.5-3-3.594-.5-1h-1.593l-6.094-1-2.719-.812-2.5-.907-2.594-.78-3.593-2.126-3.407-2.875-5.093-5.125-4.407-4.094-1.312-.906-3.094-3-4.5-2-8.687-2.5-6.313-2.281-6-3.813-.594-.687-2.5-2.813-2-4.5-2-3.093-2.093-4-3.22-3-4-2-1.187-.188-5.406-.812h-8.687l-3.72-.188-2.593-.219-7.094 2.22-3.593 1.374-3.407 1.5-6.187 2.5-3 2.625-3.625 2.5-2.5.5-3.094 1-1.406-.219-1.5-.406-2.594-.5-3.594-1.375-2.093-1.5-4.594-2.5-4.125-3-5.094-4.625-2.594-2.875-.5-.5-1.5-1.625-1.593-2.5-2-2-2.094-2-3-.5h-6.219l-3.594-.687-1.406-.5-3.094-1-2.687-1.313-2-2.094-.5-2.406v-3.594l.187-1.593.313-1.907-1-3.5V3159l-1-2-1.125-4-2-2.5v-2.094l.5-3 2-2.5 2.406-2.219 2.219-2.281-.5-2.094-1.125-1.5-1.875-1.219-1.125-.406-1.594-.875-1.5-2.625-1-2-1.094-2-.5-2-2-1.094-.687-.5-.906-.906-.5-1.5 1.406-3.375 1.875-1.625 3.906-2.094 3.5.5 2.594.407 2.719-.094 1.593-1.22.813-1.187-.313-1.093-1.187-2.094-1-1.5-1.625-1-1.594-2.5-.5-1.5-1.094-2.5-2.093-2-1.407-2.406v-1.594l2.094-1.406.594-.313 3.125-1 .781-.781v-1.5l-1.5-1.125-2.406-.5h-1.781l-1.407-.5-1.5-1.875-.593-1.625-1.5-3-2.72-3.375-1.593-2.5-1.906-1.719-2-1.5-2.094-1.5-2.094-1.906-.5-1.5-.5-1.094-1.5-1.5-2-1.594-2.593-.5-2-.406-2.094-1-1.5-1.5 1.5-2.094 1-.5 2.5-1 1.094-1.5.5-2-.094-2.187-1-.906-2.5-2.5-3.625-3.5-1.5-1.594-2-2-.594-2.313v-1.312l1-1.875 2.094-3 2-1.625 2.5-1.5.906-2v-1l-1.594-2 .313-3.594 1-3 1.375-3.094 2.125-.5 2.593-.593 2-1.594-.094-1.5-1-2.313.5-1.593 1.594-1h1.5l1.281-.313 1.313-.187.812-1.313.188-.5.5-.594 2-1.093 2-.594 1.406-.906.406-2-1.125-2 .5-2.594 1.5-1 1.407-1.125 1.093-1.5.407-2-.5-3.094-1.594-8-.5-3.594-.313-1.593v-.907l-.187-2-1.594-2-2-.5-1.312-.187-1.188-1.219-.5-1.687.406-2-.125-2.5-.094-6.407-.094-1.5-.187-1.687-1-2.5-1.219-1.625-1.906-.781-1-.907v-2l1-1.906 1-1.687 1.406-2.5 1.5-2.094 1-2.625-.406-1.094-1-1.5-3.094-1.5-3.094-2-.5-.594-1.906-2.093-1-2-2.094-2-2.093-.907-.5.188-1.5.812-1 2.594-.907 2.5-1.687 2.5-1.813 1.406-.5.188-2 .625h-1l-.593-.125-.5-1.875.406-1.5 1-1.5.375-1.719-.875-1.906-2.125-.375-1.594-1-1-2-.094-2.219-.312-.687-.688-1.5-1.687-1.5-1.5-1-2-1.594-1.407-1.813-.312-.687.219-1.313.28-.593.595-1.313.218-.687v-2l-.5-.594-.593-.906-3.625-4.594-2-1.5-2.594-3-1.594-3.125.406-.781.688-1.594 1-3.125.5-4-.5-2.094-1.094-3.5-10.187-13.594-8.126-9.093-4.28-5.907-.907-1.906-1.594-3.687-1.5-5.594-1-4 .407-3.625 1.593-2.875 2.5-2.219 1.5-1 .907-2-.907-1.5-2-1.5-1.093-2-.22-.781v-.625l.907-2.094 1.094-1.094 1.312-1 2.188-.593.5-.22 1.906-.687 1.594-.593 1.406-1v-1.594l-.5-2 .5-2.406 1.5-.72 1.5-1 .5-1.5-1.594-2-2.094-1-2.5.126-2.624-1-3.876-4-12.312-11.625-6-5.875-4.5-4.625-7.5-7.594-2-2.5-1.094-2.5-.406-2.281.406-2.813.407-.906.687-1.594.813-2.812-.626-2.594-1.593-2.5-1.282-.406-1.5-.281h-6.406l-2.218-.5-3.594-1.5-5.094-2.813-8.312-5.281-5.094-4-2.688-3.406-1.593-2-1.126-2.5-.593-2 .5-2.094.906-3.125-.5-2-1.594-2-1.093-1.5-.5-1.875-.126-2-.187-1.125-.312-1.375-2.594-1-2.5 1.594-1.407.78H4004l-.906-.187-.407-1.312v-4.094l-.874-1.687-1-.72-1.22-.593-1.405 1.406-.594 3.188-.282.812-.5 1.188-1.624-.5-.5-1.594v-3l-.688-2.5-.687-.187-.907-.22-1.812.72-.688.28-2.093 1-4.5 1.626-8.22-.125-5.687-.5-8.5-1.781-6.718-1.813-8.282-4.906-3.593-2.375-1.626-1-1.187-1.5-.312-.625.406-1.375.312-4.406-.218-.72-2.282-.5-2.218 1-2.094 2.5h-1.5l-1.594-1.374v-2.125l.5-3.594-1.5-1-1.594-1.406-.593-1-.907-1.094-1.5-2-2.093-.594-1.5 1.094-2 1.094-1.5.5h-2.126l-2.374-1.875-3.22-3.219-1.093-1.5-1.687-1.687-2.626-3.5-2.374-3.313-3.907-4.594-3.718-4.5-5.188-6-1.187-1.5-1.313-1.593-2.312-3.813-1.782-2.187-.5-.72-1.093-1.78-1-1.72-.5-1.093.5-4 1-1.781 2.593-3.5 4.407-2.5 3.593-1.719 1-.687 2.594-2.313 2.094-2.5 2.093-2.187 1.5-2.407-.5-2.593-1.593-2.407-.5-.187-2.094-.406-3.187-.907-3-.906-.5-1.187-.5-1.407 2-2.093h2.593l1.5 1.5 2.282.406.718-.813-.406-1.593-1.937-1.782z" style="fill:#9faec0" transform="translate(0 50)"/><path stroke="#9FAEC0" stroke-width="10" d="m400.188 3428.156-.375 1.938-.625 4.406-.782 1.188-2.094 1-3 .624h-4.625l-3.875.282-4.312.312-2 1-1 2 .5 3.094 1.594 2.5 1.5 2.5.594 3v4.094l-1 3.5-1.782 4.718-2.219 4.376-1.5 3.124-1.093 2.376-.188 4.124.5 3 .406 2.594-.625 3.5-.875 1.594-1.812 2.906-.594 2.5-.594 5 .875 4.094 1.72 2.688 1.187 1.906.906 3.593.406 3.626.406 3.5.782 9.593-.406 8.094-1.594 7.594-1.688 6.5-2.219 4.5-1.593 3.5-.594 3.5.406 1.218.5 1.376 1.5 1.5 3.5 2.218 2.5 2 1.688 3 2.094 4.594 1 4.188.125 4.406-.5 3.5 1 2.5.593 3.093 1.281 3.813.907 4.094 1.5 4.593 1.812 7.126-.719 4.5-1.593 4.593-.781 2.094-1.125 3-1.5 5.406-1.094 5-.188 4.594.906 4.5.5 3.813 2.094 6.093 3.594 5.5 5.906 8.782 7.906 9.812 8.875 10.094 4.22 5.5 3.187 2.093 1.906.907 2 2 1.094 1.812-.5 2.782-2 3-2 3.124-1 2.5.5 3 1.5 2 2.594 1.5 2.125 1.5.687.876 3.5 4.124 1.5 2.094 2 1.5 1.5.5 2.5.188 2.594.718 1.094 2.094 1 3 .625 4v2.5l-1.125 3.5-.094 3 .718 2.188 1.188 3 .406 3.5.781 6.093-.687 7.126 1.093 6.593.5 3.5.594 3.5-1 3.094.5 3.5 1.625 5.094 1.375 4.718 3.313 5.782 3 7 3.406 5.718 1.406 3.5-.5 4-1.219 3.594-1.28 2.5-1.407 3.5-1.094 2.5-1 3.688.781 2.906.407 2.5-.407 2.594-1.187 3.593-2.719 4.313-2.687 4.5-2.594 5.906-2.594 5.594-1.406 4.5-1.594 2.5-1.5 1.688-2.219 2.812-1.093 3.5-1.688 5.5-1.219 4.5-.187 8.5.594 6.594.5 7.093.593 8.126 1.094 7.5.313 4.28-.688 5.095-1 .812-2.625.5-2 .5-1.594 3-1.093 2.5-.813 2.094-.5 6-1.5 4.218.125 5v4.094l1.094 4.5-.406 5.5-1.688 6-2.219 5.5-2.687 5.407-2.219 5.093-1.78 4.5-2 4-2.095 3-1.125 3.5.406 4 1.907 2.782 2 2.906 1.906 4.093.781 3.5v5.126l-1 5.593-.875 4.5 1.5 3.094 2.594 4.5-.5 6.094-1.406 7.093-1 4-1 3.626-1 3.5-1.5 7.093-2 6.5-2.594 2.906-3.719 3-4.28 1.876-3.407.906-3.594 1.906-2.094 2.906-1.219 3.594-.28 4 .593 3.5 1 3.5.781 5.313.813 3.78 1.5 4.907 1.906 6.594 4.281 10.219 4.22 10.78.186 4.907-1 5.688v4.406l-.687 2.219-2.313 3.374-2.5 3.126-1.593 2.874-1.094 4.5-.313 4.313v5.406l.594 2.688 2.125 3 2.188 1.5 1.906 2 1.5 3 1 3.218.094 4.375-.406 3.72-1.094 3.405 1.094 3.5 1.594 3.594 2 1.5 2.718.406 5.094.594 4.594.594 3.406 2.312 2 3.5 2.906 4.094 3.907 5 3.5 4.781 2.375 5.22 1.906 5.593 1 2.687H3818.25l-2.937-2-3.625-3.5-5.594-2.5-5.594-2-4.094-1.5-.5-1.5-1.5-1.5-5.093-5.593-4.125-4-1.594-3.594.312-4.094 2.782 1.594 5.125 4 3.593 2 4.594 1 1-6.094-.594-6.5v-12.219l1-7.593-2.093-6.094.5-3.5-3.625-3.5-3.5-2-4.594-1.594-3.094-3-3.094-3.5-2-4.594-2.093-8.625-1-5-3.125-3-3.594.5H3765l-8.094 3.625-6.593 1.5-8.22 3.094-9.687 1.5-8.093-.406-3.625-3 1-3.594h4.625l7.593-2.094 5.094-1 3.594-3.125 2.5-3.5 3.594-.5h2.5l1.625-1.093 3-1.5 2.593-.5h5.094l2 .5 5.094-1.094 4.094-2 3-1 2.625 1.5 1.5 3.5 1.593 5.094.5 5 .5 4.593 7.688 8.125 3.094 2 3.5 2.5 5.125 3 3.093 1.5 2.594 2 1.5 4.594.5 6.594.594 5 1.5 6.094 2.094 11.093 1.5 5.125 3.125 2 10.187 1.5 4.094 1 3 2 2.094 6.594.5 5 1.125 5.594 2.5 3 7.187 6.594 2.594 2.5.906.593h31.625l1.563-1.687 4.625-8.188 1-9.125-2.125-6.593-3.094-2-5.094-2.5-1-2.5-.5-6.094-1.094-7.094-3.093-4.5-2.5-3.594-3.625-4-1.594-6.125v-4.5l1.5-5.593 1-6.094 4.594-4.594 5.625-6.094 3.093-2.5 3.5-4.125 2.594-3.5 5-8.593 2.594-3.594 1.5 1.5 2.5 1.5 3.094 5.094 3.125 6.5 3.093 5.593.5 4.625-.5 3-.5 2v3.094l2.594 6 2 3.594 1.094 2.5.5 12.187-3.5 4-2.594 5.125-1.5 4 1 7.094 1.094 4.594 1 3 2.594 2.5 2.5 3.594 3.625 2 3.093 1 4.594 1 3.5 2 7.188-2.094 3.5-.5 7.718-5.594 7.094-6.594 2.5-5.625-1.594-8.093-3.5-7.5 1.5-7.094 3 1.5 1.594 5.5 3 4.094 4.594-5.594 5.594-9.094 6.125-9.219 6.093-7.593L3996 4197l7.594-6.688 2.594-5.5 6.625-5.125-4.625-5.593-6.188-5-5.094-11.094-1.5-5.594-3.593-4.5-5.125-3.594 3-17.718.5-3 2.5-1.594 2-1.5 5.125-1.5 8.687-.094-10.687 6.094-4 7.687-.5 7.625 5.093 5.5 3.594 6.094 3.094 5 3 4.594 2.594 6 2.625 3.093 4 1.5 2.593-1.593 1-.5 2.594 1 2.5 2.593 4.094-1.593 1-6.094 1.5-7.594 1-2 2.5-3 2.094-4.125 1-2v-2.594l-.594-5.5.5-5.093 3.094-3 3-2.094 2.125-1 10.687-6.594-1.594-4.125-2-2h-3.093l-1.5 1.625-2 4-2.625 2-4.594 2.594.5-7.594-6.594-.5-.5-8.625 1-7.594 3.5-2 1-2.093 3.094-2.5-.5-3-7.188 2.5-6.093-1-10.22-.907-4.093-3.093-5.094-5-4.093-5.094-7.125-1.406-4.594-.5H3988l-4.594-4.594-4.593-.906-6.125-1-6.188-1-7.594-.5h-7.718l-3-.5h-4.094l-5.094 1.093-4.094 5.594-2 6.625-2.5 7 2 5.094 6.188 5.5 1.5 3.094 1.594 5 1.5 6.093-1 6.594-3 4.625h-1l-3.094 1.5-3.594-1-1-2.5 2-7.125v-7.594l-1-6.093-4.094-5-4.593-3.094-4.125.594-3.094-1-2-.5-1.094-3.094 3.094-5.594 5.094-10 15.218-9.812 5.594-3 5.094-2.094-3.094-7.594-4.594-3.5h-5.593l-5.125 1.094-5.594 1.5-7.594 2.594-5.094-2-4.093-1-5.625-1.5-8.188-3-3.094-1-2.5-1.5-8.218 1-5.094-3-3.094-4.094 1.594-5-1.594-3.094-14.687 6.188-5.125 1-3.594-4-1.594-3.594-.5-7v-4.094l2.5-3 3.094-1.125 1-7.594 5.094-3 5.125 2 5.093 6 5.094 2 4.094 6.594 2.594 1.5 4-1.5 3.625 2 2.093 5v3.625l-1 6.594 3 2 10.188-1.094 7.219-.5h8.593l10.688-.125 7.719.5 8.187.5h6.594l7.094 1.406 8.218 1h4.094l4.594 2 5.594 1.5h5.125l2.5 1 3.093-.5 1.5-5.093 3.094-2.5 5.594 8 2.594 2.593 1.5 1 4.125 3 3 2 6.187 2h5.094l2-1h1.5l3.094 1.5 2.5.5 3.625-.5 1.5-2.593.5-3-.5-4.594-1-6.594.375-12.625-.5-10.594-2-4.593-3.594-1.5-2.594-2.5-1.5-1-1-4.094-.594-3-4.093-2.5-4-1-4.125-5.594.5-1.5 3-2-1.5-9.125-11.282-12.094-2.5-2.593-.094-4.5-2.5-6.594-3.625-6-4.093-6.594-4.094.5-10.313-14.125 1.125-2.594-4.125-2.5 5-6.093 3.125 2 .5 3.093 4.094 8.094 5.188 5 6.093 2 6.125-1.5 1.5-2.094 2.594-4 1.5-1.5 3.094 2 2 8.594-.5 4.5-.5 6.125 1.594 4 2 2.594 3.093.5-1.5 4 2 4.094 5.72 7 2 3.593 3.093 6 2.5 4.594 2.594 3 2.593 2.5 2 .5 4.625 1.5 3.094-2.5 4.5-5.594 3.094-11.687 4-8.594 5.594-12.219 6.093-9.093 5-6.594 3.625-5.594 4.094-3.5 1-2.625-1.594-4-1-5.594 1-3 4.094 1.5 4.594-3.593 2-4 1-2.594 8.687-9.094 6-10.125 2.625-5.094 2.5-5.593 4.094-11.594 1-4.594 3.5-6.625 3.094-5.594 3.5-2.5 4.094-2.593 2.5-3.5-4.094-3.5-3.5-4.094-6.688-6-4.125-3.094-4.593-2-4.094.594-5 5.5-1.594.094-5.094 4.5-2 3.594.5 3.5 1.594 3.593v2l-1.5 1h-1.594l-2.5-.5h-3.625l-2.593-1.5 4.593-7.093 1.5-3-5.593 1-4.094-1-2-1.5-2.594-1-4.5 2-3.094 7.093-2 6.625-5.625 7.594-2.5 6.094-8.687 8.094-12.188 2.593-6.125 3.125-12.187 4.094h-2.094l-1-1 3.094-4.094.5-3.5 1.5-3.125 4.5-3 4.594-3.093 3.093-3 1.5-3.094 3.125-2 5-4.094 5.594-3 3.594-8.219.5-5.5-7.188-3.5-3.625 1.407-3 1.093-1.5 5.625-5.593 3.594-4 1.281-8.188 2.813-2.594-5.094-1.5-1.5-3.125-4-5.593-6.094-3.094-2.5-8.688-3.5-2.5 1-4.125 2 1.5-4-1-2-3.093-2.125-3.594-1-4.594.125-3.5 3.5-5.594 9.188-2 4.5-4.625.5-4.593-1-2.094-2.5-1-2.5-2-2.5-1.594-4.094.5-3.5.5-2 2.594-1.094 4.594 2.5h2.5l4.093-1 4.625-3 3.5-3.125 4.094-1.5H3984l4.594.407 5.093 2 .5-11.094-1.593-7.594 2.093-6.094 4-3.5 3.625 1 1.5 3.5.594 7.594-.5 4.594v3l1 2.5 1.594 2.094 4.5-1.594 4.594-3 11.718-7.188 7.188 1.5 4.594 1.5 2 4.094 1.593 3 6.125 4 4.594-1-1.094-7.594-1-4.5-1.5-5.625-.5-2.5.5-1.593 3.5-1 2.594 5.093 1.5 5.5 2.594 7.125 5.094 2 11.718-.5-2.5-8.625.5-.5 1.5-2.093 2.094 1 2.5 2.093 4.094.907 5.594 1.5 4.593-1 2.5-2.5 4.125-5.094 5.094-6.094 1.5-5.094 2-3-2-11.125 2-2.593.5-5.5-2.594-7.094-13.812-11.094-3.594-3.5-5.094-2 .5-5.094-2.125-4-5.093-5.125-10.188-2-1.5-5 .5-3 5.594.407 10.187 6.093 4.125 3 4.094 5 3.094 4.125 2.5 4 3.094 1 2.593 1 2-1.5 1.5-2.5 1.5-1.125 2.625 1.5 3.094 2.625 2 2.5 3.094 4.5 2 4.094 2.094 4.5 1 4.094 1.593 5.5 1 5.094-2 6.593-3.093 5 .094 8.125 2 5.094 1.125 4.5 5.593 9.094 3.594 1 6.594-5.594 6.094-10.094 2-6.625 3-6.093 2.625-5.594 2-9.594 4.5-8.094 3.593-6.125 3.594-6.593 3-7.094 2.5-6.5.5-6.094-3.094-2h-4l-3.093-3.594-1.5-4 2.5-1.5 5.593-.5.5-3.625 1-6.093 1-6.594-1-6-1.093-7.094-1.5-6.094-2.125-7 .5-6.125 2.5-10.093-1.5-3.594-4.594-2-6.688-1-5.093 1.094-5 3.5-1 5.093-7.72.5-7.593 2.125-4.594 3-7.718 5.594-1 .5-2 1.5-4.094 6.094 2.594 3.594 7.125.406h8.187l4.594-1h2l1.5 1.5-3.5 4.094-4.094 2-6.594-1h-5.093l-3.625 1.093-5.094 3.5-3.5 2.625-.5.5h-8.188l-7.218-1.5-1.5.5-2.5-.5-8.688.094-5.094 2h-4.093l-7.625-.5-6.188-.5-4.594-1.5-4.593-3-4.125-3.5-1.5-6.593-.5-3 5.625-4.125 12.187-.5 3.594-2.094 5.094-4 4-1.594 6.218-1 4 2 7.688 2.5h1l8.219 4 5.593-2 4.094-4.594 4.594-5.093 2.5-4.5 3-6.625.5-7.094-2.5-3.5-5.188-5.094-11.218-7-6.688-4.5-5.094-2.594-3-3v-4.5l-2.593-2.5-5.625-5.093-4.094-2.5-6.688-2-3.5-2-5.093.5-4.125-.5-5.688-2-5.594-3.5-3-1-4.593-3-1.625-6.125-1-6 1.5-7.594.5-6.594-1.094-6.094-4.094-3.5h-7.594l-8.718 1.094-7.688-1-5.594-1.5-4.593-4-5.125-12.687 1-5.5 5.125-4.125-1 5.125 1.5 5.5 4.593 6.593 2.094 2.5 9.688 1.5 14.812-2.593 6.094 1.5 6.594 4 4.125 4.5 1.093 5.593-1.5 14.688 2 2 4.594 4 3.594 6.594 5.219 1.5 5.593 1 5.094 1.5 4.594 1 10.219 3 1 1 2.093 1.5 6.094 4 10.188 7.625 11.812 4.5 15.313 5 7.093-1.625 1.5-5.5 1-6.094-1.5-5.594-6.218-6.5-5.094-11.687 1.5-11.625-2-3.5 4-1.594 2.594-4.5-2.594-5.594-2.594-3-2-3-1.594-4.594 2.594-4.5 5.594 5.5 1 2 1.094 2 2.5 1 2.125 3.594.5 4 1 4.594-1.5 4-2.5 5.594-1.5 4.625-1 6 2 2.593 3.093 5 5.094 2 1 .5 3.594 2 4.094 8.094 3.625 6.094 2 5.5 4.687 10.094 5.094 1 3.5-2.5 8.219-7.688 7.593-8.594 6.594-7.093 7.094-6.625 5.594-6.594 6.718-3 3.5-2.094 9.188-4.594 7.094-4 5.625-8.218 3.593-8.594 3-7.594 2-7.594 3.594-7.093 3.5-7.625 3.094-5v-3.094l-3.094-2.5-4.094-4h-5.093l-2.5 5.094-4.125-.5-4.594-2-3.594-3.594-2.594-3.5-4.093-1.5-5.125-1.5-4.094-3-1-2-1-1-1-1.5-2.594-3.094-1.5-2-1.594-1.5-2.5-2-2.093-1.5-5.625-2.5L4183 3468h-10.812l-7.094-.406-5.594-.5-1.594-1-2.5-1-3.093-3.594-5.625-3-4.594-1.5-5.594-5-1.594-5.094-.5-4.5-2.093-6.093-2.782-8.157zm3740.343 0 .969 2.032 6.688 13.624 5.125 6.094 6.093 4.5 6.188 3 7.594.5 7.218-3.093 4.5-3 5.594-2 8.688 4.5 5.624-.626 4.094-9.093-2.593-8.094-5.626-6-6.593-1.5-6.688.5-7.593 2.094-10.22-2-2.187-1.438zm76.719 0 .75.75 3.594 4.094 2.594 6.5 6.125-.5 5.093-1 3.094.5 2.5-.094 15.406 2 6.094 2.5 9.188 6.594 5.625-.094 6.093-2.5 4.094-1 4.594 1 .5 3.5.5 6.093 6.219 1 4.093-2.093 4.5-5.594 6.094-8.125 6.094-6.594 6.094-4.5 2.937-2.437zm-.656 27.032-2 2.124-1 3 3.5 4 3.094 2 2.125 1.5 3 1.594 1.593.5 2 2.5 1 1 1 .5 2.594-.5 1.5-1 2.594-4.593 2.5-6.126v-3l-2.094-1-3.5.5-2.594 1h-7.593l-2.625-1-2.5-1.5zm-143.281 203.406-3 2.593-1.5 3-2.125 2.5-3.5.626h-4.094l-6.094-1.5h-3.094l-4.593-1.5-2 1.5-.5 2.5v1.093l1 2 4.593 1.5 4.594.5 3 .5 4.594-.094h4.594l2.625.5 3.5-1 4.093-1.5 2.594-1.125h10.188l4.125 1.5 4 1h2.593l2-5.593-1.5-1.5-3.593-1-5.625-1h-2l-2.594-.5-3.094-1-3.5-1.5-2.094-2zM4034 3794.406l-6.594 2-2.593 2.594-3 1-3.626 1-3.093 1-2 1.594-2.594 1-8.594 1.5-1 1.593 2.5 2.5 7.688 6 5.593 3h4.626l5.093-4.593 3.094-3 5-5.594 2.094-3 1.5-3.094-1-3zm-174.687 216.282-3.126 1-1.5 5.124-3.593 4 1.093 7.594.5 2 3-.5 6.22-3.593 3.5-1.5H3871l3.594 3 1.5 3 .094 3.593v3l2.5 1.5 2.625-1.5.5-3.5 1.5-5.593-2.125-2.5-3-.5-2.594-1.5-3.594-3.126-2-2.5-1-1-3.594-1-3.593-2.5zm51.593 33.218-1.593 1.5 2.093 3 5.594 2 3.094-1.5 1.5-2.5-2.594-1.593-5.094-.907zm47.407 4.282-2 .624-4.626 1.5-1.5 2v5.094l3 .5 4.626 1.5 5.593-.5h1.094l2-1.093 1.5-1 1.594-1.5-2.594-4.126-4.094-1.5zm40.28 4.406-2.5 2.093-1.593 2.5-2.5 2.126v3l5.094-1.5 1.5-2.126 1.5-4zm18.907 15.718-3 1v4l2 6.594 4.094 4.094 3.093 2.5 3.626.5h1.5l.5-4.094zm16.188 111.282-2.594.5-3 1-2.594 2.594v3l1.594 1.5 2.5-.5 1.5-1.5 2.593-1.5 1-4.094zM3890 4196.906l-4.094 3-1.5 3.594-2 5-5.093 3.594-2.626 2.5-1 4.094 2.126 3.5.5 3.624 4.093 1 4.594 4.5 2.594 8.094 2 2.5 2.5-3-.5-6.094 2-4.124 2.593-3 2-5.094.5-5.594-2.093-10.094-3.094-6zm19.906 26.688-1.5.5-2.5 1.593-1.5 4-2.093 4.125v1.5l1.093 2.5 2.5-1 1-2v-6.125l3.594-1 1.5-2.593zm-95.218 29.218-2 .094-2.594 1.5.593 6.594 1.5 3 1.5 2 2.126 2 4.593 5.094 8.094 3.5 2.094 2 3-.5V4273l-2.5-8.094-3.094-4.5-3.594-2.5-6.093-2.5zm102.624 30-3.312 2.375h8.531l-.125-.375-2.593-1.5z" style="fill:#9faec0" transform="translate(0 25)"/><path stroke="#9FAEC0" stroke-width="10" d="m438.094 4285.188.906 2.406 2.813 5.5 2 3.312 2.593 2.282 2.406 3.406 3.782 3.594 2.5 1.5 2.094 1.5 2.125 3.5 2.78 5.5 2.407 4.625 1.906 5.093 1.188 4.5-.5 4.094-.5 4.406.594 3.688.125 2 .375.906 2.125 4.688 4.093 7 2.188 4.5 2.906 4.124 1.594 2.5 1.812 4.188.906 4.094.375 4.5.407 4.594-.188 6.406.594 6 2.594 6.906 2.594 7.813 1.125 6v8.187l1.593 6 .594 5.094-1 5.594-1.5 5.124v5l1.094 3.094 2 2.5 7.719 1.906 4.593 1.5 3.094 2.5 3.094 3.376 1 3 .5 4.624-1 4.5-1 3-1.594 6.094-.5 6.594 1 5.594 2.594 2 4.406 2.219 2.188 1.374 2 3 1 3.126 3.125 5.5 9.093 14.28 6.782 9.5 4.125 4.5 2.593 3 3.782 3.313.812 1.188.594 2.594v5l-1.5 4.124-1 3.282-.5 3.5 1.593 2.312 3 2.782v3l-.5 2.625-1.593 3 .218 2.78 1.094 3.5 2.282 2.313 3.906 4.782.593 2.312-.5 2.094-1.593 1.219-2.5 3-2.5 2.78-2.094 3.313-.5 3.094-.406 3.5.5 3.594.5 4 1.593 3.094 2.125 4 1.782 4.312.5 4.094-1 5-.094 6.094 1.093 2 2 6.125 3.094 4.78 3.5 7.407.5 4.094-.5 3-.094 4.094 4.094 15.218 2 3.5 2.625.5 2.375-.406 6.625-1.594 3.094.5 2.093 1.5 3 3 2.094 4 .594 4.094 2 5.5 3.125 3.594 8.687 8 2.907 3.406 6.093 12.094 2.907.312 3.187.282L679.5 4756l221.688 13.313 166.625 9.687 15.281.813 95.594 5.375 96.5 5.906 92.813 5.5 73 4.312 52.906 3 13.281 1 186.406 13.407 32.594 2.28 93.625 6.595 145.375 9.625 99.906 6.375 46 3.218 6.5.407 2.719-.125 2 .625h2l151.188 9.28 139.093 8.5 286.094 16.72 4.125.187 100.594 6.188 75.906 4.625 31.594 1.875 12.281.625 39.625 2.187 113.094 7.094 76.406 4.719-2 2-5.625 4.593-2 3L3143 4922l-1.5 4.5-1.094 4.094-2.094 5.5-1 3.594-.5 3 1 3.625 1.5 3 1 1.593 2.5 2 2 3 1.594 1.594 1 3 .094 7.094 2 4.594 3.094 4 3.593 3 3.5 3 4.625 4.625 4.594 5 4.688 11.687 1 3.813-.095 5.593-1.5 4.094-1.093 4-.5 3.594v5l.781 5.312.625 6.907v4.593l-1.125 5-1.5 5.594-1.094 4.594-.5 4.5.219 5.312.5 6.594 1.688 4.406.5 3 .906 4.782 1.094 1.812.5 1.5 1.5 3.094 1.5 2.5 1 2.594.5 3 .093 2.218 1.907 1.407 1.594.5 2 1.5 1 3.093v1.5l.5 3.5 1 1.594 1.5.5h2l1.593 1 1 2.594 1 1.5 2.313 3 2 1 .594 2v2.094l.5 1.5h1.5l2.093.5 2 2 1.625 1.218 2 .782 2 .5 4.094.718 3.594-1 2.094-1 3.5-1 3.093-.406 2.5-.5 2.125-2.094 2-1 2.094.094 5 1 2.5-1 2-.5 2-1.093h4.594l4.094 1.5 2.218-.313 2.375-.687 2-1.5 1.907.187 2.218.219 3.188-.219 3 1.094 1.594 1.812 1 .688 5 3.125h9.718l1.5.594 2.5.406h2l3.094-1 2-.5h1.5l1.594 2 .594.687.906 1.313 2-.5 1.594-.813 1.593-.5 1-.5h4.625l5.594-3 1-.5 2.094-2 2-2.5 4.594-4.593 1.593-2 2-5.094.125-3.5-.5-3-1.5-5.125-1-4.594-2-5.094-1-4.593-.5-.5-1-4-1-3.094v-3l-.5-2 .594-3.125 1.281-1.875 2.22-1.625 2.093-2 1.5-3.094v-1.5l.594-3-1.5-6.594-2.5-4.593v-3l4.093-4.094 2.125-2.5.375-2.5 1-2.625v-2l.5-2 2-5.594 1-2 2-2.594 1-6.093 1.5-3 1.125-1.5 1-1.094 1-2.5.5-3v-1.625l-.5-1.5v-2l1-2v-2.094l.5-2.5-.125-2.5-.375-3.5-.125-6.187.5-3v-6.594l1.5-6.125-.5-2.5-1.593-2.594-1-2L3348 4955l1-9.093 3.594-10.22.406-2.5 1.812-6.374.688-6.313 1.094-3 1-2.593.5-2.5-.095-9.094-1-5.125-.593-7.594-2.5-6.094-3.594-11.093-4.625-5.594-2.094-1-2-1.5-1.094-1.5-1-3-.5-2.625-.5-4.5-3-3.094-1.5-2.5-1-2.094-.5-2.5-.5-3-1-1.593-3.093-3-1-2.594-1-4 .094-4.125-3.094-6.094-5.5-6.594-1.5-4.093 1-5v-2.594l.594-2-.688-2.813-2.812-6.812 1.5-5.594 7.187-12.594.625-1.5-1-2.093-1-1.5-.5-1.313 2.5-5.094 2.094-2.187 1.5-2.5.594-2.625-1.5-9.094-1-4.594-1.5-3.5-2.5-3.593v-3l.5-4.594 2.094-6 .093-12.719 1.5-2.5 1.626-1.5h1.5l2.5 2.5 1.593.5 1.282-.687 3.312-1.813h3.406l2-1.5 1-1.5 1.094-2.594 3.5-4.5 1-2.593.5-3-1-2.5-2.594-3.594-2.5-2.5-2.093-3.5-1.5-4.625v-2.5l1.5-2.094 3-3 4.093-2.094 3.5-1H3355l3.594 1 3 1 2.593 2.5 2.5 1.813 3.126 3.594 4.5 4.093 5.093 1.5h3.094l3.594-.406 3.093-2.594 1.5-2 1.5-3.093.5-3.5 1.5-3.094 1.626-3.5 4-5.625-1-5.094-1.626-2.5V4637l1-5.593 1-2.5 2.5-3 3.626-3.594 3.5-2.313 3.093-1h3l2.594-.5 2-1h2.594l1.5 1.5.5 2.094.593 2.094 1.907 1.906 5.593 1.594 7.626 1.625 8.28.875 3.095-.5 2-1 1-1.094v-2l-1-2.5-1-1.5-.594-2.594 2.593-2.5h2l2.126 1 1.5 2 3 .813 2.093 1.687 1 1.313.5 2.594.594 3.187 1.406 2.406 1.5 1.5 2 1 1 2.094.5 2.5 2.782 7.719 1.218.875 2.094.625 1-.5 2 1 4.594 4.594 1.406.906h2.5l2-1 3.094-.5 4.093.5 7.626 4 1.687.281 1.5-.5 1.5-1 3.094 1.5.5 1 1.406 1.719 2.094.5 3.093-2.125 1.5-1.594 2.626-.406 1.5 1.5 1 1.5 1.5.5h1.5l1.5-1.5 2.093-1h4.5l5.094.5 3.094 1.5 3.093 3 2.5 3.5 1 1 1.626-.688 1-1h2.5l2.593 2 4 5.094 1.5 3.094.5 3v3.125l1.5 2.5.5 2 1 2.094 2 1.5 2.594-.5 2-1 1.594-3 1.218-3.594.5-3.5 1-2.625 2-1 2.594-.5 2 1 2.094.5 2.5 3 5.094 3.625 3.093 1 2 1 3.907.187 2.218 1.313.876 1.281-.095 1.5.313 2.219 5.281 3.375 2.5 2.625 2 3 2.125 2.594 2 1.5 6.094 2.093 4.5-.593 3-1 2.594 1 4.094.5 2.593-.313 1.407-.687 1.312-.594 1.281-.5 3.625 1 2.594 1.281 4 3.094h2.094l2 .5 5.594 2.625 3.093.5 2.5-.406 1.5-1.094 1-1.5v-1.5l-1-2-.875-1.5-2.125-.625-2.5 1-1.593 1-1.5.5h-1.5l-1.5-.5-.5-1.5.5-2 2.593-2.094 3-1 2.407-.406 3-1.594 3.593-1.5h2.625l3 1 1 2-1 2.594-3 5 1.5 1.625 2.094.5 2-1.125 1.5-1 2.594-.5 2 1.5v2l-1 3.125-.5 3.5v2.094l1.594 3.5 5.593 3 2.407-1.22 2.093-2 2-1.5h2.625l1 1h2l1-.5 2.094-1 .5-2 1-1 2.594-1.5 1.5.5 1 1.5.5 2.5v5.626l2 2.594 5.094 2.5 1.5 2.093 1.718 1.907 1.282 1.593 2.312.907 1.5-.5 1.5-1.5.406-2.094-5.5-3.5 1.5-6.5 4.094-2.625 10.188 1.5-.5 5.625 1.5 2.5 4.593-3.125h8.22l7.093 1 4.094-1-5.594-1.5-.594-4.594-4-1 1.5-3 5.094.406.5 5.594 6.594 2-.5 6.594 3.093 1.5 1 4.625 1.625.5 2-2.125 4.594-2 6.094 1 5.094 6 3.093-1.5-1.093-3 1.5-5.594 3.093-3.094 2-6.593 4.625-3.5-.625-5.594-2.5-6.125-8.687-1.5-.5-4.5 3 1.5 9.687 2.5 1.125 5.125 1.5 6.5-2.5 6.094-3.625 3.093 1.125 2.5 5.594-1.5 7.594-.593 5.594-1 8.093-1.5 2.125-.594 1.5-3.5-.5-8.125-2.125-7.594-.5-6.594 2-1.5 2.625 1.5 2 .5 3-2.093.5-8.594-3.625-13.125-1-7.094-.593-6.094-2.5-4.093-5.094-3.5-7.188-2-6.125-6-4.093-5.094-5.594-5.5.5-8.219 2-5.5 5.094-4.094 7.593-1.093.5-5.5-3.093-4.094-7.094-1-4.594.594-4.094 2-5.625 1-4.5-2-1.593-4.5-.5-5.094-1.594-3.5-11.188 1.5-5.125-.406h-2l-6.187-14.22 2.5-12.687-6.594-.5-4.594 3.094-.5 4.094.094 2.5-1.5 9.125-4.093-2-2.126-2.5-1-5.625.5-4 2-5.594 18.813-5.687 5.594 2-.407 7.593-2.593 8.688 1.593 8.625 2.626 3 3.5-1 4.093-1.125 6.094-1 4.594-6.094 8.593.5 5.22 7 3.5 2.094 4.593 2.5h3.094l5.593-.594 3.626-.5 2 2.5 6.593 4.594 3.594-1.094 2-1.5.5-1-1-5.594-2.594-3-4-4-6.718-8.093-7.188-8.094-6.094-7.625-2.093-6.5 1.593-7.094 2-4.094 5.094-4.093 5-2 2.094-5.094 4.5-5.625 8.218-2.594 4.594-4 4-6.094 3.594-4.093-.594-5.094 6.688-2 6-6.625 4.593-5.594 9.126-12.687-2-3.5-1-2.594-.5-2-1.126-2.5-1.5-7.625-3.093 1.5-1-.5-4.094-3-4.594-2-6.093-.5-4.126 2-3 7.125-4.093 5.594-8.094 2.093-9.187-2.5-6.626-2-2.093-.5-3.5-.5H3819l-2.594-4v-3.593l-2.093-5-2.5-2h-12.22l-4.093 2-2.5 2.593-3.594 2.5-3.593 3.594-2.5 3-3.126-2.5-5.593 2.094-7.094-.5-6.594-1.5-3.093-1.5-4.126-3-3-2.594-5.093-.406-4.594-1-4.594-.5-3.593-1.5-3.126-2.594-3.5-5-2.593-4.594-7.094-.906-6.687-1h-4.626l-3 2.5-.5 5.094-3.593 5.125-4-.5.5-4.125 1.5-5v-4.094l2.5-2.5 4.093-3.094 6.626-.5 5.093 1h6.094l5.094.407 3.093.5 2.5 1 4.126 5.093 3.593 4 2.5 2 5.094 1 4.094-1.5 3.593-.5 4.126-.5 3.5-.593 4.093-2.5 3-1.5 2.094-2.594 3-2 3.594-1.625 2.5.5 6.718 1h5.594l4.594-1.5 6.594-2.594 7.093 1.5 5.126 3.5 3.593 3.594 5.594 6.5 4.594 4.125 8.718.875 1.5-2 1.5-4.594-1-7.594.5-6.5 4.094 1.5.5 3 1 3 .5 3.594h2.594l3.5-3.594 1.594-2 2-1.593 3-2.5 3.093-3 3.626.406 5.5-5.625 1.593-3.5 1.5-3.594 2-3.5 1-4.094-2-2-12.812 7.688h-4l-3.094-1-2.5-2.5-2.094-3.594.5-6.594v-7.093l-2.593-6.5-6.126-3-4.593-2.094-4.594-3-5.187-7.625-2.5-4.5-5.126-2.5-3.593-2.5-3.594-1.5-4-1-4.094-1-2.093-2.594-2.5-3.5-1.126-5.094 1-4.5.5-3.093 4.126 2.093 3.093 4.5 4.094 4.5 2 .5h12.313l9.093 1.5 6.188 4 2.5 4.594 1.593 7 1.5 4.594.5 3.5 2.126 2.625 5.593 1.5 6.094-2.625 4.594-4.094-4.094-7-6.187-5.594-8.126-5-3.093-3.093-1.5-2-1.594-3-3-4h-9.687l-3.626-6.094-4.093-3-3.594-2-2.5-3 .5-3.625v-4l-.094-3.094-1-4 4.594-.5 5.093-3.094.5-5.593.5-2.5-1.593-6.094-4.594-6.5-1.656-1.125zm3416.406 0 5.188 3.406 4.624 3.594 5.594 1.5 6.094-1.594 5.094-1.5 5.031-5.406zm59.5 0-.312.218-2 4.5-2 4.094-.5 4.094-.5.5-1.094 2.5-1.5 2-2 1.594-3.594 1.5-3.5 1.5-2.094 2.124-1 2.5v4.594l5.188 15.094 3.593 9.094 2.626 8.594 2 4.624 1 5.594.093 6-2.593 5.594-.5 3.094-2 6-1 2.594-1.5 4-2.5 5.124-.5 4.594 1.5 4.5 2.593.5h6.594l1.5-2.5 1-3.094 3-6.624 2.094-9.594 5-12.688 3-10.593 2-7.625 2.094-8.188 1-8.594.906-9.593-.5-9.625L3928 4302l-2.5-8.094-2.969-8.718zm-77.812 5-3 1.124 2 5.5.624 4.594v2.5l1 4.594-.5 4.5-4.124 2.594-4 1.5-1.5 2 2.5 1 2.624 1.094 2 2.5v9.124l3.094.5 4.094-1.624 2.5-1.5 4.094.5v3l1.5 2.624 4.093 1h4.626l1 2.5 5.687 4 2.5 3 1 1.594-.5 4.5-1 4.094 2.094 3 1.5 4.094 3.093 3 3.126.5 6.093 3.5 3.594 1.5 1.5 1 2 1 2.094 1.5 2 .5h3.093l2.5-2.5.5-2.094.5-8.594-1.593-12.594-2.5-9.124-3.594-9.094-1.594-2.094-4.093.094-3 3-3.126-2.5-2-6.094-3.593-5-3.594-3.093-3.594-1-3.5-.407-4.593-.5-3.126-6.593-4.093-6.594-1-1-6.188-5.5-5.593-2.5zm38.624 95.124-4.624.5-4.594.594-6.594 1.5 1.5 3-2 13.188 2.594 1.5 19.312-11.688-1-6.094zm-96.718 52.094-5.094.5-2 2-2.5 1.5-1.594 3.594-.5 4 2.094 3.094 2 2 3.094-.5 2.5-1.5 2.593-2.094 2-4.594 1.5-2 1-2.5zm145.812 5.5-5.593 1-4.626 3.594-3 4-3.5 17.313-1 7.593-2.5 8.594-1.593 3-3.5 4.594-5.594 2.594-7.094 3-5.093 5.124-4.626 6.594-1.5 4.594-.5 3.5 2.626 4.594 11.687 5 1 3.594.594 4v4.124l-1.594 2.5-3 .5-2.594-.5 1.594-2 1-2.624.5-3-2.094-3.5-8.593-5.094-4.126-1.5-2.593.5-3 3.594-5.594-2.5-6.687.5-4.5 2.624-3.626 7.094-3 5.594-2.5 4.313-3.093 5.28 1 4.095 1.312 4.906 4.782 5.406 3.812 4.188 3.406 4.312 3.594 4 2.688 2.813 3.124 3.874 1.188 2.407-.812 6 1.5 2 3.124 4 1 4.094-1 3-1.5 2.124.5 2 3.594 12.094 1.094 5.094.5 3.5-2 6.594-.5 4.594-1 5.124 1 3.5 1 5.594 1.594 5 1.5 5.594.5 6.594-.407 10.594-1 5.624-2 5.594-1.593 5.594-2 5.594-2 6.094.5 6 5.093 3.124 2.126.5 2 3v4.594l1.593 1 4.094.5 3 1 4.594 2.5 2-1.594 1-3-2-10.124-3.094-10.094-4.094-11.188-2.093-15.218 1.5-12.094 2.5-10.688 3-11.218 3-10.594 7.093-12.688 5.094-11.218 3.5-7.094 4.594-10.594 4-11.187 4.093-10.22v-2l6-21.28 2.5-18.22 2-10.187 2-15.718 1.5-8.594 1-8.594.5-5.594-2.093-5.093-2 2.093-2.594 1 3.094-9.093-.594-5.125-1-6.594.5-14.688zm-79.5 8.406-2 .5-1.5 1.5-2.093 5.094 3.593 1 1 .5 2.094-.5 2.5-.5 2.594-2.094.5-2.5-1.594-1.5-2.5-1zm-33.718 131.282-3.5.5-2.094 4.594 3.593 13.218 3.626 1 7.093-3.594.5-5.624zm21 10.094-3.094 1 10.218 17.718 3.094 3 3.094-2 2-10.719zm21.906 24.218-2.5 3.094-.5 4.5v5.594l.5 3.5 6.718 9.094 2-.5 2-9.594 1.5-10.688-1-2.5zm-15.188.594-4.093.5-5.126.5-3.593 4.594-1 5.594 1.093 4 2 6.124 6.22 5 6.593 3.094 3.594-.594.906-10.124v-5.594l-2-8.594-1.094-3.5zm18.5 48.594-1.093 1.5 1.093 7.594 2.094 12.624 1.5 1.594 1-1.594-1-7.624 1-5.5-1.094-4.594z" style="fill:#9faec0"/></svg>