<svg xmlns="http://www.w3.org/2000/svg" width="1039.469" height="678.969"><path stroke="#9FAEC0" stroke-width="10" d="m161.313 0-1.125.125-.875 1-1.75.188-.594.468-.781.875-1.344-1.031-3.125-.406-2.469.25-2.187-.625-2.032.093-1.531.782-.562.625-.25 1.031-.188 1.375-.687.562-1.313.094-.906-.406-1.031-1.625-1.313.062-.75-.593-.75.312-.937.781-.75-.343-.313-1.563-.531-.562-.906-.313-1.313.125-1.5.875-1.75-.531-.625-.188-.969.5-2.5 2.157L119 6.844l-1.812.968-2.032 1.782-1.312.718-.094.063-.563.719-.718.75-1.594.406-1.344 1.031-1.719.125-.875.594-2.125.094-1.062.156-3.688 2.437-1.78 1.844-1.47 4.5L96.094 26l-.375.812-1.625 1.875-1.625 1.063-2.032 2.156-1.78 1.156-.407 1.844-.625 7.594.5 1.375 2.469 3.187.906 2.813 1.062 1.25 2.532 1.094 2.343.375.532.437.437.406 2.938.72 1.843 1 8.032 1.562-.22.812.688 1.188 1.688.875 1.781 2.437 2.906 3.594.813.219 2.219 1.562 1.28 1.563 1.22-.032 1.03-1.218 1.032-.125 1.031.812 1.157.125.53.469 4.126 1.375 2.344.031 1.468-.031 1.375.625.75-.375 3.063-.438 1.219.72 2.5-.25 2.812 1.405 3.719 1.344.906-.031 1.063-.906.937-.157.813-.78 1.312-.407.844-1 .875-.188.844-.968.843-.282.907-1.406L163.28 67l.219-.656-.438-1.344 1.188-.344.906-1.469 1.813-.75.562-.625.094-.093 1.563-.469.843-1.219 1.063-.25-.219-1.843-1.281-.063-4.344.594-.406-.406 1.406-.688 1.875.156.75-.781.969-.187.625-.938 1.219.344 1.687-.313.438.25.437-.937.188-2.406-.594-1.907.344-1 .406-1.093-1.875.28-.156-.374.843-2.063L172.72 42l.219-1.719.843-2.343 2.25-2.438 1.657-4.625 1.28-1.594.595-1.468 1.625-2.75.187-2.5.625-1.5.063-2.532-.313-1.312-.468-.125-1.032.343-.53-.78-.126-1.5-.562-.907.218-1.062-1.156-1.532.125-1.594-.312-.718-3.157-2.031-.812-1.594-2.125-1.563-1-.343-3.344-.25-2.375-.97-.187-.437-.125-.844-1.969.032zM29.656 46.406 26.5 48.47l-.656 1.781-.375 2.656-2.906 4.375-2.125 1.219-4.157 1.438-.937 1.093-.844.719-1.594.594-1.437.5-3.938 4.468-3.593 3.282-1.25 2.781-.407 2.375L0 79.531l.438.563.156 1.531-.219 1.344-.219 1.312L1.22 86.97l.844.625.687 1.219-.094 1 .531.687 1.25-.187.719.28 1.156 1.22 1.5-.25.657.218.812-2.937 1.031-1.125.282-2.188 2.218-3.969 3.407-6 1.593-1.593 1.344-.781L21.469 73l.968-.687.844-.126h.875l1-.468 1.719.125 1.218-1.125 1.313.219.5-.438 1.594-.187 1.843-1.563v-.844l-.03-.187-1.282-3.063-.375-1.625.781-4.531 1.188-3.312 1.594-2.157 1.625-1.062.437-1.719-.218-1.25-.594-.937-2.563-1.344-.781.437-.656.344-.844.125zM432.5 106.313l-1.062.906-2.5.437-.97.688-1.968.719-2.219 1.812-1.593 1.75-.438.438h18.5l-.687-.907-1.188-2.406-3-2.969z" style="fill:#9faec0" transform="translate(0 125)"/><path stroke="#9FAEC0" stroke-width="10" d="m421.75 113.063-4.844 4.687-.218 2.469-2.157 3.219-5.343 4.656-.25 1.469-2.813 2.03-1.437 1.157-.844.094-1.281-.5-2.313.562-3.5.188h-.125l-5.094-.031h-3.343l-.844.03-.625.032-4.281.219-3.657.406-2.937.312-.281.47 3.218 2.124.438.375 2.906 2.625 1.5 1.813 1.063 2.187.468 1.688.062 4.875-.406 2.875.437 1.125.875.375 1.407 1.812.656 1.688 1.312.312 2.282 2.156 2.187 3.875.531 1.594.344 2.813.625.875.125.156 4.344 2.937 1.625 1.907 1.437 2 1.438 4.906.25 1.312.531 1.313.313.156 1.281 4.875.812 1.188 1.032.875 1.718.468 10.594-1.343 4.125-1.188 5.688-.781 1.968-.844 1.22-1.281.562-2-.563-1.594-1.156-1-3.375-1.812-3.969-1.032-.656-.75.469-.937-.031-.875v-.438l1.719-1.28.625 1.124.812-.094.219.72-.219 1.28.625 1.157.563.187 1.562-.5.313.344-.125.75 2.562 1.687.5-.28.125-2.25-.781-1.345-.938-.03-1.375-1.313-.53-1.063.655-2.187.5.093.532.563 1.625 2.219.78.281.563-1.375-.5-.969.188-.531 1-.281 1.156.468 3.031 1.688.688-.094.219.656-1.157 2.344-.406.906.469.782-.219.5-2.719-.5-1.5.781-.406.969.375 1.125-.25 1.437-.062.219.781 1.875.844.875 2.156.594 2.532.156 1.062.875.75.125 1.906-1.687 3.907-2.532.5.5-.407.813.063.687.75.781 1.563-.156 1.125.75 1.062.094.625.469.313 2.125.531 1 1.031.75 1.969.375.813.937.656 1.125 1.5.656 1.062.97.5 2.53.875.844 3.25-.187.969.375.938-.188 2.843-2.656 1.438-.813 3.281-.843 5.656-.938 1.219.313.625.656.313.875-.157 1.031.25 1.125.594.375 1.969-.093.625-2.032 1.125-.093 1-.563 1.906-1.812 3.469-3.25 1.375-1.72v-.593l-.688-.75-1.687.188-2.906-2.407-2.188-.5-1.156-.843-1.594-1.625-1.062-2.125-.876-3.938.594-2.469-.25-.562-1.469-1.813-1-.687-1.937-.656-.687-.688-.376-.375-1.25-2.375.062-.469.062-.468 1.282-1.75.25-3.157 1.469-.937.906-1.531-.25-.563-.938-.187-2.219 1.187-1.218.188-2.969-1.22-.906-.062-1.063 1.282-.781.156-.156.812.906 1.188 2.031.781-.781 5.281-.969.469-1.281.219-1.187-.313-.782-1.125-.219-1.187-.468-.844-.438-.187-.625.656-1.375-1.063-1.437-1.875.5-.593-1.469-2.657-1.125-.187-.656-.594-1.25-.312-.094-.25-.782.25-.656-.875-.312-1.125.406-1.875-.25-1.032-.938-.687-.28-.656.312-.438-.875-1.687.187-.75.563.093 1.906-2.219.531-1.75-1.531-4.78-.469-.126.125-.625-.469-.687-2.093-1.219-1.407-.437-.687 1.187-1.219-.187-.25-.844.406-1.844-.437-1.031-.938-.625-3.593-5.125-1.344-1.344-1.281-2.156-1.188-2.156.719-1.844-.594-2.156-1.25-.72-.594-1.218-1.625-2.469-.062-.562-.687-.906zm150.625 93.125-.687.093-.47.844.157.75 1.125.781.813 1.313v.312l.062 2.281-.125 1.5-.344.625-.875 1.47-2.125 1.78-.938.75-1.218.22-2.157 2.968-.437 1.031-.313 1-.968.688-.313.906-.125.75h109.156l3.344-4.531.625-2.032-.625-.625-2.75.938-2.687-1.281.78-1.563-.5-.75-1.187-.469-2.375.282-5.187-.094-1.313.969-.28-.188-2.157-.781-.188.031-1.562.375-2.313 1.625h-1.093l-3.032-.219-1.343.97-2.407-.032-1.593-.969-1.22.813-2.155-1.656-.375 1.375-1.563-.032-.625-.656-1.094-.031-.687-.656-1.156.468-.75-.156-.594-.5-1 .281-2-1.125-.844-1.28-.375-1.75-1.75-3.938-1.656-1.22-1.031-.093-1.344 1.938-.813 2.78-.375 1.376-.937 1.125h-2.813l-5.937-1.5-3.938.437-6.468-2.062-2.032-.031-3.312-.032-1.469-.468-2.719.03-.968.47-1.782-.688-.156-.281-5.75-.719-.844-.5-1.625-1.875-2.343-.531-1.813.469-4.312-.72z" style="fill:#9faec0" transform="translate(0 100)"/><path stroke="#9FAEC0" stroke-width="10" d="m563.438 226.25-.282 1.875-.531.813-1.062 1.562-.063.75.843.781.844.438.969.093 4.969.563 6.5.469 7.78-.625 3.157-.219.938-.313 1.687.344.656.188 1.313-.375 1.937.187 3.594-1.25 5-.75.844-.594 1.781.594.375-.156.219.031 4.812.281 2.22.813 2.155.562 1.782 1.313 3.28 1 2.407 1.219 3.688 1.28.094-.187 4.5 1.5 7.5 1.375 3.656.688 1.125 1 1.437.094 1.97.03.937-.374.593-.594 1.375-.406 1.25.25-.187.969 1.656-.938.781.031.313-.281.437-.531.844-.125 1.031-1.094.688-.062.594-.47 1.875.188.812-.375 2.125-1.187 1-.844 1.75-.906 1.688-1.5 1.968-1.25 3.907-3.656 1.625-2.22zm135.906 19.375-2.469.219-1.094 1-1.437-.75-1.5.719-1.531-.563-1.094.094-.75.812.625.781-2.406 2.563-1.188-.625-.875.187-.906.938-1.063 3.594-.094.312-.656 1-1.531 1.969-1.438 4.062v.094l-.625 3.094-.5 1.187.125 1.25.625 1.282.594.5 1 2.343-.094 1.688.719 1.562.562 3.125 1.031 1.657 3 2.656 1.25 1.875.407.812 1.312.594 1.094 1 1.719 2.938.625 1.125 2.5-.25 1.562.562 2.844 2.219 1.656.656 3.344.531 4.781 3.094.688.156.937-.343 3.125-2.844.844-.375 1.781-.563 1.063.157 2.437.937 2 1.281 1.188 1.657.406 1.78-.031 2.063-.094.813.656 3.125 1.844 4.562.719 4.22.187.53-.281 2.438.656 3.25-.187 2.719-.407 1.03-1.343 1.845 1.031 1.062 1.062 2.156.25 1.032-.187 1-.125.625 1.5 2.187 1.062.625 2.157-.312.687 1.375-.125 1 .469.656.969.094.937.562 3.719.031 1.375.875 1.094-.093 2.125-.75 1.468-.094 1.094-.563 1.344.282.687-.375 1.094-.563 1.656-.156 2.25.375 2.188-.063 1.156-.375 1.688-1.25 1.437-.375 1.125-.812 1.781-.25 1.72-1 .374-.219 2.969-1.156 2.844-1.844 2.281-.937 2.344-.563 2.187-.094 1.688 1.063.843-.188 1.344.188.813-.563 1.812-.218.969.187 1.125 1.063.656-.188.5-.75.688-.062.312-.031 1.063-1.125 1.125-.282 2.406-1.687 1.5-.156 1.969-1.313 1.156-.781h.562l1.032.781h.937l2.969-.875.906-.625.094-.156 1-1.656 2.313-3.063 1.093-.75 1.688-.625.75-.281 1.125-.938 2.281-3.312.938-1.375-.22-1 .688-1.875-.187-.875.75-3.25-.281-1.75.125-.781.343-1.657-4.156-5.125-3.125-1.781-2.25-.687-4.187-.813-.813-.156-2.719-2.469-2.218-.812-.907-.594-1.406-.063-1.562.563h-1.094l-.219-.094-.562-.219-1.47-1.781-.718-.437-.906-3-.875-1.125-1.563-.188-.937-.937-2.563.593-.875-.187-1.03-1.875-2.188-1.594-1.938-2.687-2.719-2.282-.875-.468-1.656-2.594-1.125-.656-1.219-1.907-1.53-.656-1.97-.906-1.312.187-.281.094-.782-.562-.187-.125-2.563.406-1.5-1.438-.906-.062-2.125.844-1.75.156-1.219-1.094-1.78-.125-1.657.563-1.406 1.5-1.688-.313-2.094.656-1.937 1.031-2.281 2.5-1.157.563-1.437.156-1.75.125-1.531.719-2.532-.094-2.312 1.594-1.938.875-.5.031-3.687.25-.75-.062-.813-.563-2.437-3.219-.844-2.312-1.969-2.094-1.218-2.062-.282-.656-.812-.438-1.688-2.625.062-2.5v-.031l-.375-1.031-1.093-.47-.22-.093-2.5-2.562-1.374-1-.969-1.5-1.312-.47-1.22-1.03-1.78-.657zm13 12.406v.75l1.875 2.281h.406l-1.406-2.343zm-88.281 7.906-2.563.157-3.687.406-1.938.188-1.531.656-1.375 1.437-.375-.187-1.375.25-.906.687-.563 1.688-.281 2.406.781 1.969 1.844 2.281 5.687 3 1.469 1 3.313 4.563.75 2.062.094 1.813-.344 2.28.062 2.657.094 2.406 1.344 3.875.593 1.094 1.313 1.25 1.687 1.469.625.5.875.125 1.407-.313 2.25-.031 2.968-.437 2.563.03 1.562-.906.5.188 1.22-.187 1.218-.782 1.562-.125 3.907-2.375 3.437-.156.906-1.125 1.75-3.812 3.125-4.47.407-1.374-.282-1.688-1.28-2.812-3.282-4.594-2.813-3.25-1.5-1.281-3.5-2.969-2.28-2.219-3-2.094-3.25-1.03-5.095-1.47-1.312.282-1.219-.063-2.437-.312-1.75-.344zm80.187 67.188-2.375.031-2.406.688-2.188 1.593-1.406.157-1.312 1.593-3.063 2.25h17.719l.25-1.375-.563-.875-1.218-1-.625-1.125-.563-.687z" style="fill:#9faec0" transform="translate(0 75)"/><path stroke="#9FAEC0" stroke-width="10" d="m691.5 339.438-.125.093-1.187.469-1.25 1.187-1.438 1.125-1.625-.062-1.156.375-1.594.469-1.656 2.031-1.219.687-1.781 1.813-.062.562.968 1.625 2.094 1.407.344 1.5 2 1 1.312.218 1.032-.375 2.5-2.468.625 1.656.656.281 3.906-2.125 1.156-.093 1.313.468 1.062-1.437.97.562.624 1.469.938.688 1.812-.22 1.813-.968.968.063.563-.375 1.594.468 1.218-.062.657-.344.625-1.062 1.406-1.313.375-.844-.063-.687-.906.312-.656-.844-.47-.062-1.218.75-.969-.094.344-.656v-1.156l.563-1.656 1.53-3.657.126-.718zm146.313 62.343v.031l-2.5 1.22-.125.062-3.282 5.5-.062.125-1.094 4.593v1.844l-.375.969-.25.656.532 1.938.281 5 .219.625 1.156 3.562.344 1.063.187 1.937 1.031 1.875.375 1.594.313 1.687.75 1.188 1.812 1.906.47.469 2.78 3.344 1.844 2.875 2.094 2.625.937 1.156.22.656.061 1.875-.125.469h102.282l-1.407-.656-5.562-2.657-.625-.28-.813-.345-3.312-2.562-.406-.031-2-.188-3.375-2.625-.938-.406-.875.094-1.25-1.094-1.687-.906-3.063-1.657-1.531-.375-1.063-.75-1.843-1.093-1.907-.375-2.25-1.094-3.156-.719-3.156-1.375-1.938-.187-1.093.093-2.907-1.625-1.531-.093-3.156-1.282h-1.531l-5.22 1.72-1.25-.563-1.718-2.594-.75-.531-1.219-.219-1.281-.813-1.312-.062-1.125-.875-1.532-2.125-.03-.031-.75-.5-6.407-4.313-1.219-.156-.687-.094-7.188-4.468-.375-.97.031-1.812-.937-.093-.5-.375-.469-1.22-2.031-1.655-3.438-2.313-1.531.375-1.906-.937-1.813-.25-3.187-2.125-1.25-.22-2.938-1.155-.656-.032z" style="fill:#9faec0" transform="translate(0 50)"/><path stroke="#9FAEC0" stroke-width="10" d="m845.406 452.625-.718 2.969-.063.25.094 1.031.094.781-.657 3.094-3.625 1.875-.656.469-1.812 2.437-1.094 1.438v.969l-2-.282.094 1.063-.656.531-1.157.313-.718 1.28-.282 1.313 1.219 1.344-2.594 1.594-.187 1.094-.719.687-.312 1.813-.157.125-1.187 1-.375.875-1.125 1.187-.469.875.531 1.781-.094.563-1.156.281-1.219.906-.843.094-1.72-.469-.968.063-1.406.093-1.75.75-1.406 1.094-1.375 2.031-3.032 3-.375.375-2.031 2.75-3.437 3.407-2.5 1.875-.97 1.406-.28 1.437.312 2-1.094 2.282.094.78.031.282-1.812 2.344.25.562 1.156.75.875.563.438.906.312 2.844.469 1.187 2.187 1.657.407 1.437.937 1.031.219 1.22-.875 2.03v.094l.375 1.281.53.563 2.47.937 1.594 1.438 1.968.437 1.063.938-.125.656.5 2.063 1.219 1.625.468 1.593.563.75.437.594.657 3.031-.094 2.188.875.656.156.438-.656 1.312 2.03 3.813.188.875-.406 2.812 1.438 3.156.312 1.563-.125 1.719.688 1.28.375.095.812.187.969.844 1.031-.313.844.094.781.781.125.844-.812 1.375h207.312l.062-.094 2.844-2.75.03-.218.876-3.407 1.25-2.156.625-2.281-.813-2.188-2.218-1.75-2.313-.343-2.437-1.532-2.407-.468-1.812-1.157-1.625-.562-.438-.375-.593-.531-3.813-2.188-4.687-4.875-2.22-1.531-.437-.969.094-2.312-.468-.688-2.157-.687-1.875-.188-1.187-1.375-.313-.75-.593-1.312-.25-3.094-.094-2.656.656-1.782.094-1.406-1.844-4.937-2.344-4.563-.218-.187-.47-.438-.905.125-1.344-.562-.875.656-.438-.031-1.468-.032-.031.688H997l-1.25-1.219h-.72l-1.124 1.063-1.281.125h-.157l-.187.218-.75.813-.5-.031-.719-.063-.719-.375-.53.219-.5.906-1.813-.5-.563-.5-.594-1.469v-4.937l.657-4.094.25-1.406-.594-.969.312-2.062-.718-2 .28-1.782 1.5-4.343-.374-2.032-1.5-2.25-1.75-1.656-1.188-.5-1.156-1.594-.844-.625-1.843-3.375-.532-.687-.468-.594-5.375-5.25-1.72-1.562-1.655-.813-1.938-1.687-1.781-.813-1.844-2.594-1.281-1-1.844-1.375-1.969-.625-2.625-1.968-.53-.625-.938-1.188-2-1.125-1.344-.906-2.375-.656-.719-.344z" style="fill:#9faec0" transform="translate(0 25)"/><path stroke="#9FAEC0" stroke-width="10" d="m826.469 565.781-.625 1.094.75 4.313.5 1.406 1.125 1.5.375 1.281 1 1.656-.563 2.563.344 1.406 1.125 1.438.813 1 2.156 8.937-.875 3.5.219 4.531-1.375 7.032-.438 2.156.063 1.718-.594 4.313.156 2.969-.687 1.437.156.75-1.156 3.094.125 1.75-.5 1.563-.969 1.5.031.78 1.031 1.876-.437.656-.813 1.25-.094 2.625.72 4.875.968 2.594 2.312 2.875 1.532 2.75 1.5 4.343 1.312 1.22.688.187 6.78 2.312 3.376 1.563 3.5.718 1.312.625 4.688 4.125 2.125 1.47.687.28 2.094.782 3.031.468 1.907 1.157 2.375 2.625 4.312 2.75.406.875-.437 3.281.375 1.031.687.188 1.563-.375 1.406-.938 2.406-1.656 4.844-5.656 1.688-3.25 2.25.375.78-.563 1.532-4.406 1.438-2.562.187-.75.438-1.657 3.03-3.093 1.313-2.532.657-2.593-.282-4.22.563-1.03 1.812-1.594 3.532-4.407.656-.187 1.375-.406.656-2.063.031-1.093.563-.563 2.656-1.125 2.812-.969 3.125-.375 2.438-1.062 1.375-1.125 1.312-1.75 1.344-1.219 1.719-2.406 5.594-2.813 1.687-.375.313-.062 4.468-2.157 1.25-1.156 1.938-3.843.594-.563 3.843-1.875 3.438-3.031 3.469-.907.906-.468.812-.375L953 606l1.593.719 2.563.187 2.156 1.063 2.719.531 4.187-.312 3.313-1.313 1.875-.125 3.406-1 3.031-.875 3.563-3 4.281-2.094 2.688-2.125 8.093-2.875.844-.343 5.844-2.5.875-.407 1.906-1.375 2.438-2.53 4.468-3.25 4-4.438.75-.5 5.657-3.688 2.75-2.812 2.093-1.25 2.907-2.47 2.78-3.437z" style="fill:#9faec0"/></svg>