<svg xmlns="http://www.w3.org/2000/svg" width="5060.688" height="7804.688"><path stroke="#9FAEC0" stroke-width="10" d="m297.313 0-2.625 64.094-4.594 106.594-.188 5.906-7.312 175.719-.594 14.875-3.594 88.312-.094 2.5-10.625 374.188-.375 12.718-7.218 215.907-2 76.187-4.188 163.813h855.063l-.657-1.313-.906-2-.5-.812-3.813-3.782-3.687-2.718-3.813-6.094-3.687-6-1.094-1.688-3.5-6.093-4.5-7.907-3.625-6.312-5.375-5-6-6.094-3-3.094-.125-.593-2.094-8.5-.78-2.907-.22-.718-7.28-7.282-.907-.593-2.906-1.72-1.094-.593-1.5-1.594-2.219-2.906-3.094-4.188-2.5-3.312-2.5-6-1.593-3.688-.5-1.5-2.188-5.125-2.625-6.187-.5-1.188-1.781-5.5-4.5-7.218-2.719-4.188-.5-.812-.687-.5-3.188-2.094-4.312-.594-6.594-2.719-1.594-1-1.125-1-1.5-1.78v-1.72l.625-71.28.281-28.407.22-25.094.093-8.094.188-32.406.406-33.312.812-69.281.782-85.313.312-32.812L1007 567.312l2.187-121.718.407-36.5.406-31.282.687-63.718.22-14.407.405-33.875 1.375-103.5-.28-24 1.687-125.5-86.407-1.718h-16.093l-168.782-3-110-1.688zm825.28 1297-4.5.688-.593.406-3 2.312-.687.406h12.374l-.28-.718-.407-.282z" style="fill:#9faec0" transform="translate(0 125)"/><path stroke="#9FAEC0" stroke-width="10" d="M253.906 1300.813 248.5 1513.5l-3.312 130.188L241 1816l-2.812 119.906-3.375 144.688-.625 27.094-6 271.625-4.875 222.343h1834.5l-.407-2.343.688-2.813.406-.406 1.188-1 3.218-1.594 1.781-.594 1.72-.718 1.905-2.688 1.094-1.5 1.188-3 .406-1.094.094-2.312.219-2.781.094-.72-.094-2.78-.219-2.313-.594-6.594-.594-2-2.218-3.906-1.188-1.406-2.187-2.5-6.219-7.094-2.5-2.812-2-2.375-3.188-4.407-.406-.5-3.812-3.406-7.782-4.187-1.312-.313-.688-.187-3.093.5-1.5.187-6.813 1.188-3.687-.594-3.219-.406-4.406 2.406-.875 1.5-1.219 2.5-.188.594-.906 3.5-.812 2.406-.188 1.406-.094.5-.812 3.5-.094.688-1.594 1.812-3 3.313-3.594.593-.718.094-3.282.188-.812.125-1 .094-3 .406-.688.281-3.125 1.22-1.187.374-3.813 3.906-1 1-1.781 2.313-1.5 1.906-2.094 2.875-3.312 4.625-.406.375-1.5.813-2.5 1.312-.407-.125-3.281-.281-2-1.813-.219-2.5-.187-2.78.5-3-1.594-.813-1.906-.907-3.094.5-1.5-.094H1954l-2.594-.812-2.219-.594-1.593-3-.188-.906.5-4.688.094-1 3.188-8.093 6.406-8.813.406-.594.594-1 2.719-4.906 1.875-7.687.218-1.907.282-4.687-1.188-5.906-.687-2.594-.22-.906-2.5-3.813-1.687-1.406-6-4.688-2.593-3.5-1.22-1.593-.687-1-3.593-3.719h-.72l-1.5.125-2 .094-3.093.188-1.594.094-1.406-1-1.094-.688-2.718-1.906-.594-.281-.5-.407-2.406-.218-2.5-.188-2.594-.187-2 .094h-1.688l-3-2-2.5-2.907-1.718-1.906-2.375-2.781-2.5-2.406-2.625-2.5-.5-.407-2.782-1.5-2.312-1.312-1.906-2.375-1.688-2.22-2.687-5.781-1.407-2.813-2.218-1.312-3.282-.875-1.406-.407-2.687.188-3.625.406-3.5.813-.688.375-2.5 1.406-1.187 2.812-.5 1.094-.313 1.594-.406.312-1.094 1.407-.406.375-2.281.406-2.125-1.5-.594-2.906.219-5.188 1.375-3.687-.188-2.813-1.406-2.906-.5-.906-2-1.5-1.594-1.375-3.594-1.813-2.5-1.094-1.5-.406-5-3-1-.906-1.906-2.688-.812-1.218-1.282-4.875-.094-.625.875-4.094.907-3.094 1.312-5.594-.219-1.312-.875-3.094-3.312-2.812-4-1.875-1-.125-4.5-2.282-.813-.906-.375-.812-1.125-1.5.313-2.875 2-2.813 5.312-4.594.875-.906 1-.906 3.125-5 .282-2-1.407-6.906-.375-1.5-1-4.188-.125-5.594.5-2.593 1-2 .5-3.625.719-1.594.781-2 .813-1.281.594-.907 1.312-1.812 1.281-2.094v-3.594l-7.093-5.718-3.594-2-4-2.375-3.188-1.5-3-1.407-2-1-3.718-3.593-.594-1.625-.406-.782-2.782-4.718-2.218-.594-2.094-.906-.813-.375-2.375-2.125-1.718-1.688-2.094-2.187-1.406-1.5-.907-.72-1.781-1.905-.406-.594-1.313-2-1.375-3-1.5-4.281-1-2.625-4.625-6.688-.781-1.187-7.406-6.625-2.313-1.594-3.093-1.406-3.094-.282-.406.094-2.907.688-1.187.312-4.094 2.5-5.219 2.094-1.375.094-3.718.219-2.5.094-2.407-.813-.094-.875-.781-4.312.187-2.5-.5-3.5-.406-1-1.406-1.813-2.688-3-3.593-4.093-2.22-4.5-.187-4.094-.187-4.406-1.313-4.282-.187-.406-.719-3.906-.781-4.688v-4.125l-.813-8.593-1.5-2.094-3.687-4.188-.406-.812-1.313-4.188-.5-5.125-1.187-2.5-1.22-2.375-3.374-1.718-2.906-1-.813-.282-3-1.218-1.687-.688-.594-.219-6.5-5.093-.406-.282-4.313-4.812-1.094-1.313-1.906-2.28-5.781-6.407-4.219-6.5-1.094-1.5-2.812-5.5-1.375-2.688-.813-1.406-.593-2.312-.907-5.407.688-2.093.625-3.907.187-.687 1.188-3.406-.375-1.282-.313-.906-.687-.906-.406-.688-5.594-1.812-2.625-.406-3.094-.407-.5-.094-2-.28-3.5-1.313-2.594-1-.687-1-4.906-8.5-.5-.813-1.72-3.094-3.28-6.5-1.813-3.406-.187-.5-3.313-4.281-1.781-2.219-.719-.687-2.687-2.407-1.907-1.687-1.187-.719-2.5-1.687-3.625-2.407-.688-.5-2.312-1.28-2.188-1.626-1.187-.875-2.125-1.719-3.094-2.5-2-1.593-.594-.407-1.5-.28-3.093-.626-3-.5-2.313-.5-6.594-4-3.187-3.187-1.5-2.313-.906-2-.407-1.687-.187-1.813-.125-5.094-.094-2.687-.094-.813-1.188-3-1.718-2.187-.407-.5-6.5-3.813-.687-.094-6.094-1.406-5.094-1.094-2.312-.5-1.188-.5-4.812-2.406-2.188-3.5-.906-2.594.188-4.312.593-1.375.625-1 2.375-4.219 1.813-3.187.312-2.813.782-1.594.094-1.187-.282-3.313.094-1.687-1-4.813-2.406-4-.281-.593-2.719-2.407-.594-.687-6.312-3.906-.594-.313-5.906-7.406-.688-.781-1.812-4.907-.594-1.687-.781-3.219.594-1.687.5-1.094 1.5-3.125.406-.781.594-2.219-1.22-2.875-4.374-2.219-.719-.187-3.094-.907-.812-.187-4.281-.906-3.594-.594-1.719-.219-.281.094-3.5.906-1.719.094-1.781-.094-3-.094-3.313-.406-4.5-1.906-2.187-1-2.406-1.094-1.5-1-1.72-.187-4.5-.719-.874.219-2.313.281-1.312.406-2.5.719-4.5 1.281-.5-.094-3.094-.187-2.5-.313-.5-.094-2.5-1.5-.687-.406-2.5-2.906-1.594-3-1.719-3-.281-.594-2.625-4.687-2.094-.407-1.5-.218-1.187.125-.907.094-4.812 2.187-1 .719-2.594.5-3.906.781-3.594-.594-1.906-.406-1.781-1.5-2.594-2.406-.719-.594-1.406-.906-2.594-1.5-1.094-.375-1.406.094h-4.094l-1 .094h-4l-1.093.094-1.907-.594-3.187-1.094-4.125-1.312-3.875-1.188-.813-.312-5.093-3.594-4-4.312-4.313-5.375-3-3.813-1.281-2-2.906-5.406-.72-1.406-4.28-8.375-.72-1.125-5-10-.5-1.5-3-7.782-.687-2.093-2.593-8.5-.313-1.125-4-4.375-1.281-.72-3.625-1.593-2.594-1.5-2.5-1.5-.594-.187-2.187-1.125-1.406-2.594-2.094-3.594-3-4.187-.625-.907-2.094-2.5-4.906-5.812-1.5-.906-4.188-3.375-1-.72-3.5-1.5-3.093-1.28-2.22-1.125-2.28-.875-2.813-.72-6.5-1.28-9.094 1.375-2.5.406-.812.219-.594-.313-2.5-1.312-.281-1.688-.219-1.406-.187-1.5-.594-4.188-2.406-5.093-3.5-3.907-4-2.312-3.094-1.688-5.125-3-.688-.406-.812-1.094-1.281-2-1.72-2.093-5.78-3.313-2.22-1.187-2.874-1.125-3.5-1.688-3.5.594-.5.094-3.625.312-.781.094-1.407-1-1.812-2.906-1.281-2.188-3.5-4.093-2.72.406-1.374.187-2.219.313-1.281.281-3.625 1.094-3.5.719-4.094.906-1.406-.125-1.5-.094-2.5-.906-.5-.281-1.594-2.5 2-7 2.5-3.313 1.5-2 4-3 4.219-2.781 5.375-3.906 1.5-.907 2.125-1.5 7-3.812 1.094-.594 10.5-2.906 9.593-1.594h.5l5.5-.094 1.5.406 3.594.907 6.594 1.78 3-.5 2.625-.405 1.875-.688 5-2 4.5-2.312.5-.282 1.5-1.593 1.719-2.313.593-1.406.813-2.188 3.375-9 .125-.718-.406-3.094-1.094-1.188-3.5.5-4.5.688h-3.125l-2.5-.094-.875-.094-1-.313-1.5-1.406-.5-.5-2.219-4.375-2-3.625-1.406-1.5-.594.219-3.5 1.5-4.5 1.281-1.5.5-.594-.094h-1.906l-1.687-.187-1.907-2.313-.406-.5-.5-2.5-.406-4-.188-2.5-.094-1-1.5-4.187-1.218-1.5-1.375-2.094-.907-1.313-1.5-1.406-2.5-3.281-1.406-1.906-.687-2-1.813-4.5-.5-1.22.406-4 .282-.874 2.906-3.406 2-3.094 1.594-2.406-.594-2.72-3.5-2h-4.094l-5.594.5h-.406l-1.687-.093-3.407-.281-4.312-2.407-1.781-1-1.813-.906-5.094-2.094-3.593-1.406-1.5-.594-2.813-4.5-.187-3.906v-.687l1.093-4.625.282-.375 1.5-2.407.718-1 3.907-4.218 5.375-5.782.625-.718 2.281-1.782 2.219-1.406.593-.312 3.094-1.094 1.594-1.594 2.094-3.594 1.125-1.718 2.375-1.782.625-.406 1.781-.5 2.5-.906 2.812-1.094.188-.687.906-2.625.906-2.782 2.407-2.5 2.5-1.406 1.093-.594 1.782-.593 2.312-1.125.313-3.282-.907-3.593-.405-2.22-.906-1.28-.688-1.813-.812-1.687-.406-1.625-.376-3.375v-2.625l.095-2.594v-6.094l-.594-4.094-.406-2.812-.22-1-3-4.281-6.093-4.625-6.781-3.375-2.719-2-4.281-3.407-2.219-5-.906-2.312-.688-7.406-.312-2.5v-1.875l.5-2.5 1.125-3.813 2.094-5.406.28-.781 1.5-5.813.407-1.906 1-5.5.594-4.188.125-1.906v-8.812l-1-4.094-2.5-3.094-3.125-4-7.375-5.812-.719-.5-7.094-3.375-1.187-.907-1.313-1.093h-.593l-2.5.094-2.407.094h-1.593l-3 .094h-.5l-3.094-1.782-2.719-3.312-2.594-4.094-.312-.406-1.188-3.5-.5-5.094-.094-1.406.782-2.094.406-4.094.312-4.218-1.718-3.5-1-1.594-9.094-8.406-5.094-1.188h-1.5l-4.906.906-3.188.688-3.093 2.687-.5.22-3.125 1.5-3-1.813-.688-2.594-.687-2-1-5.594-.72-4-.405-2.719-1.282-4.875-.218-.718-3.375-6-.407-.594-1.906-4.313-1.187-4.593.28-8-.28-8.688.187-3.219-.094-7.187v-4.5l-.094-.594-1.312-6.094-2.594-5-7.5-6.312-3.219-2.688-4-3.312-1.781-4.406-1.219-2.907-.5-1.375h-12.375l-.812.5-1.407.782-1.906.218-.719-1.5z" style="fill:#9faec0" transform="translate(0 100)"/><path stroke="#9FAEC0" stroke-width="10" d="m223.313 2601.656-2.813 128.938-2.812 127.719L221 2862l.594 4.094v9.719l-3 13.187-3 11-4.188 10.406L209 2914l-3.594 4.188-4 7.5-2.906 5.406-.406 6.094 2.312 6.906 2.594 4.094 4 2.5 7.406 2.312 4.906 2.313 3.5 2.5 3.688 4.593 1.906 6.094v6.094l1 5.094 2.406 4.5L236 2989l2.5 3.406 5.688 4.282 3.5 2.312 2.718 3.688 2.907 4.406 1.187 4.5-.187 3.5-1.125 4.219-1.188 4.5-.094 1.187-.094 2.688.188.625 2.593 4.5 2.5 2.375 3.594 4.625 1.219 1.375 3.187 3.625.719 1.187 2.094 3.688.5 1.312 2.5 5.594.906 3.094L273.5 3070l.094.688.5 7.406-.094.719-.688 7.375-.625 3.125-1.594 3.78-.781 4.72-1.5 9v1.093l.375 2.5.906 2.594 5.094 5.594 4.625 4.812 3 3.282 3 7.218 2.688 3.907.406.593 4.594 4.094 2.187.688 2.406 1.625 2.094 2 .125 3.28-.5 4-.125.72-1.687 2.28-.688 1-3.312 5.095-.907 2-.594 1.218-1.593 5.094v.906l.094 2.688-.406 5.5-.188.5-1.406 2.594-1.813 3.812-.375.5-3.312 4.406-2.094 3-3.5 8.188-3.219 8.312-.281.907-.812 4.593-.407 1.407-3.281 5.78-.719.5-1.5.5-1 .313-2 .407-.593.187-4.094.688-3.094 1.906-2.219 1.812-.281.282-1.094 2.718-.218.594-1 4.188.812 2.406.281 1.094 1.406 3.218.5 1.094.407.594 1.312.906 1.281 1.094 5.594.594 2.125.218 1.375.594 3.313 2.094 1.093.906 3.72 3.313 1.374 1.78 2.625 3.813.281.688.813 1.719.5 1.5.781 3.593.5 2.5.313 4 .094 1 1.5 6.594 2.812 3.313 1.688 2 .406.875 1.5 3.125 1.687 3.375-.094 4.312.094 2.5-.094.813.72 5.593 1.187 3.282.312.812 1.594 2.813.281.78 1.313 3.095 1.187 5.218.719 4.594 1.781 5 1.313 3.906.312.782 1.594 7.812 14.406 14.5-2.5 6.813 1.5 8 1.594 4.78 4.781 1.595 2.813 1.406 2.687 3.906 1.813 6 1.093 8.813-.094 6.28 2.407 12.313 1.78 9.782 9.626 16 11.5 13.125 15.5 10.375 5.5 4.718 2.375 5.907 3 5.78 5.219 3.5 5.687 4.813-.906 10.094 1.719 7.313-.407 5.78.188 6.407 3 5.688 5.312 2.218 3.5 3.188 4.094 3 3.906 3.406 5.688-.406 10.812-7.406 5.313-2.875 7-.125 4.594.406 7.28 1.219 7.907 4.187 4.219 4.688 3.875 10.406 4.906 14 14.594 16.906 5.125 1.594 6.281-.781 12.719-4 5 2.5 10.281 1.593 14.906 2.282 6.688 6.125 8.125 7 9.5 10.875 3.594 3.5 7.093 3.406 9.094 19.312-2.5 18.907.219 6 .781 12.187.906 10 3.5 6.313 5.594 11 4.094 1.187 3.812 7.906 8.5 10.782 11.313 11.625.375.687 1.625 5.688.594 4.312 1.093 3.813 2.094 2.5 2.5.875 1.219 1.625.281.593 1 4 3 4.5.719 1 1.094 1.688 1 3 1.187 4.219.219.593v5.594l-.219.5-2.906 5.406-2.688 6.407-.312.375-3.5 4.406-.875 1.094-1.719 1.624-1.594 2.094-.187.782-.625 2.5.312 2.906.407 3-.594 1.312-.313.907-.906 2.093-.594.5-2 1.282-3 1.812-2.5 1.187-1.187.813-2.313 1.5-2.406 2.812-.906 1-1 1.594-2.375 3.094-.313.406-2 3.282-1.312.624-.875.282-2.719 1-1.781.219-.813.093-1.312.5-1.688 1.782-.187.625-.313 1.594-.812 3.28-.688 2.126-.187.5-1.313 4-1.312 3.781-1.875 7.094-.125.625-1.375 5.187-2.406 3.5-2.907 3.813-.406 1-1.406 3.281-1.5 3.719-.781 1.094-4.907 3.406-.5.5-1.406 1.687-.5.813-.594 1.594-.406 1.406-.094 5-.094 1.094-.312 3.5-.031.593h1682.25l-2.5-1.093-4.125-1.407-1-.406-2.594-.594-3-.094-1.094-.094-3.687-2.5-2.813-2.906-1.593-6-.095-.594-.312-3.406-.187-1.219-.907-3.375-2.312-4-.781-1.218-2.22-2.407-2.5-3.5-1.593-2-1.906-1.875-2.281-2-.907-.718-2.812-2-1.594-1-1.5-.126-.594-.312-2.094-.781-1.218-3-.688-1.782 1.406-3.812.375-3.5.5-4.625-1.687-1.281-.406-.282-2.594-1.312-1.906-.625-1.188.313-3.5 1.124-.406.095-4.5 1.624-4.094.876-.719.218-1.687 1.781-1.687.907-2.813 1.718-1.187.282-3.407.718-4.5-.218-3.594-2.5-1.812-4.907-2-4.093-2.187-1.782-1.407-.906-5.094-1.5-.5-.125-3 2.094-5.812 3.219-.687.562-2.407 1.938-3.906 3.28-3.5 2.5-.406.282h-3.906l-3.188-1.687-2.594-1.813.781-3.781.407-.781 2.094-1.72 2.406-4.093 1.219-5.5.093-.625 1.094-4.281-.187-11.781 2.094-5.625 3.093-4.188 1-1.312 2.407-3.313 1.687-2.062 1.5-1.938.813-1-.5-2.875-.313-1.687-.406-.438-2-2.062-1.375-1.625-1.719-1.5-3.687-3.594-.594-.594-2.125-2.687-3-4.313-.5-1.125-2.594-10.187-.281-1.188 1.594-1.906.593-.5 2.188-.5 2.312-.281 1.688-.22 3.906-.593 1.594-1 1.906-.906.719-.5 1.875-1.906 1.125-1 1.781-1.594 3.406-2.719 3.813-.781 4-1.594 4.187-1.812 1.313-.594 2.687-1.5 2.907-3.906 1-1.313 2.187-5.281 1.5-6.281.594-4.625.219-1.188-2.594-7.625-4.313-2-.406-1.5 1.094-4.062 3.406-3.813 2.5-2.687.813-.813 1.906-3.906.5-1.094-.813-7.406-1.312-4.594-2.5-6.406-.281-.594-1.094-1.625-3.813-4.062-3.906-2-1.187-.625-2.313-.313-3.5-1.187-3.687-2.375-1.72-.72-.28-.593-1.72-3.187-.593-1.22-2.187-2.093-2.813-2.687-1.5-1.5-.781-.5-2.813-3.813-.312-.406-1.594-3.406-.406-2.813.625-3.875.875-7.125-1.375-1.781-.719-.594-.781-.625-2.625-.562-1.875-.625-2.125-.5-3.688-1-1.687-2.594-2.125-3.281-.375-2.22.375-1.5 1.219-3.593.906-1.312 5.187-7.813 1.5-2.062 2.907-2 1.28-.938 3.626-3.875 2.187-9.125.313-1.375 3.281-4.812 3.313-5.313 2.093-4.875 1-2.5 1.313-2.125.687-1.281 1.594-1.406 1.719-1.594 1.094-1 .906-1 3.781-6.781.406-2.625 1.188-9.375.906-1.22 1.5-1.28 2-1.938 1.719-1.281 2.875-2.406 3.125-1.375 2.5-.72.594.126.78-.125 1 .406 2.126.875 3.187 1.313 3.094 1.187.813-.094 2.187-.5 2.406-1.094.594-.312 2.5-1.375 1-.625 6.406-3.594 5.188-2.781 2.812-1.781 4.313-2.594 3.094-.813 3.406-.5 4.687 2.313 3 1.5 3.188 2.687 2.406 2 3.094 1.72 3.219 1.687.593-.188 2-2.406.313-.719.094-3.594.906-5.093 1.375-3.094 1.625-4.406 2.594-4.907 1.781-3.406.406-.5 2.594-3.281 2.906-3.5 1.5-3.094-.187-2.5-.219-3-2.781-2-1.719-1.219-2.781-4.5-4-7-3-2.187-1.094-.906-2-2.813-2.125-2.5-.687-1.375-1-2.125-1.094-4-1.5-5-1.594-2.375-2.812-3.906-3.5-3.219-3-2.875-.688-3.812-.125-1.907 5.313-5.687 4-3.5 6.687-5 2.5-3.313 1-1.687.625-1.313.781-4.593-1.28-4.5-.72-2.594-4.593-9.719-2-2.094-4.813-3.687-2-1.5-2.187-1.5-4.094-1.906-3-.813-2.813-.5-1.406-.281-3.375-.594-4.312-4.125-1.188-1.094-.719-.5-2.593-1.5-.407-.28-1.5.093-2.093-.594-3.407 1.188-2.093.687-1.5.72-1.5.405-2.094.188-.406.094-1.5-.781-1.188-.5-1.625-1.72-3.687-5.5-.313-.78-.187-1.5.094-.907.312-2.218.094-.688 1-2.906 2.406-3.188 1.781-1.406.5-.406 4.313-3.5.906-2.094-.094-2.812-.5-1.282-1.625-3.812-1.094-1.594-.28-.406-2.407-2.188-8.906-1.718-5.188.906-.906-.094-1.219-.188-2.094-.624-1.406-1.376-.375-3.624.281-.594 1.72-3 1.093-2.907 2.094-3.78 3.906-7 .906-1.22 1.875-1.593 2.906-2.594 3.313-3 .594-.5 1.312-1.094 5-2.5.5-.219 2-1.78 1-1.095.688-2.5-.407-1.812-.28-1.5-2.407-4.688 1.781-4.406 2.125-1.812 2-1.688.281-.406 1.313-3 1-3.313.187-1.874.313-2.813v-2.688l-4.219-8.624-1.875-4.376-1.906-2.812-1.094-3-1.219-1.406-2.593-3.094-3.688-2.094-3.812-2.094-4.407-.5-4.593.5-4.594-.718-3.219-.5-1-.094-3-2.688-3.5-1.718-.187-.907-1-3.281.312-6.219.094-2.375-2.312-6.312-2.188-5.907.188-1.187 1.219-5.406 1.593-2.094 1.281-1.812.813-1 .594-1 .5-2.5.719-2.907.593-2.593 2.5-2 2-1.094 1.094-.594 1.406-.406.906-.313 3.094.407 3.5.406h.5l5.094.406 2.094.188 2 .812 3.219 1.281.874.219 2.72.094 3.093.313 1.406-1.125 3.5-1.594 2.5-1.5.406-.281 3-.313 3.094-.406 2.594-1.406 1.594-2.782.5-4.218v-.688l.5-3.406.5-10.188.312-5.718.094-1.375-.312-3.72-.782-2.78-.593-2.813-1.125-4.906-.094-.594-1.688-6.187-.094-1.813.781-6.5-.094-2.687-.687-7.22-.625-2.5-.188-1.5-.812-3-.188-.687-2-2.593-2.812-3.407-.281-.312-2.22-1.781-2.687-2.125-3.593-6.594-.72-3.188-.28-2.312 2.406-9.281.375-1.72.312-.78 1.094-1.22 2.313-1.593 1.906-1.094.781-.406 2.219-.687 5-1.125 2.281-.5 1.813-.375 5.187-2.625 1.094-1 2.812-3.875 1.594-2.313.813-3.187.406-5.5-1.5-3.5-1.625-3.72-.094-1.187-.5-10 3.5-7.093 3.906-9 1.594-3.813 3.406-9.687 1-3v-8.72l.406-13.687-.218-7.312-.188-4.906-2.094-5.188-2-5.687-1.312-3.625-.094-1.375-.094-1.313 1.406-7 1-1.5.688-.687 8.187-8.313 7.219-7.406 2.281-2.406.5-.375 1.406-1.5 1.22-1.407.374-.812 2.406-4.188.313-.906.594-4.094.406-3v-2.093l.406-.813 2.188-5.812.406-1.188.687-1.094 1.907-1.5 1.5-1.218.687-.782 1-2.406-1.094-2.312-.593-1-.407-.594-1-1-2.093-1.5-2.407-1.688-.406-1.593-.687-2.5 1.093-4.72.594-2.687.813-3.812-.313-1.781-.5-.907-.875-1.812-1.5-1.781-1.406-1.22-2.906-1.593-1.688-1-3.5-5.594-.406-.906-1.313-3.406-.187-.5-.594-4.5-1.719-5-.094-5.094v-7.594l3-5.593 6.188-2.313.906-.312 3.094.312 2.406-.094h4.406l1.813.094h4.094l5.093-1 1.813-.906 2.687-.781 5.407-3.625 1.906-2.188.5-.5 1.594-3.906-1.094-3.906-.813-2.875-.187-.907-1.625-5.906-.281-.906 1.687-5.594.906-4.812-.593-2.782-.219-1-.5-2.218v-9.094l2.406-8.281 2.094-4 1.719-3.407 1.593-3.312 1.594-4.906.313-3.594-1.094-4.094-.5-1.687-.813-1.813-.406-.5-1.781-2.406-1.125-2.5.219-2.406 1.281-2 1.406-2.094.719-.906.781-.688.094-.594.625-1.812 2-2.281.375-.407 1.719-3.406.906-1.312 1.188-2.5 1.5-3.5v-1.094l.187-2.188-.187-1.812-.406-1.281-.282-1.813-.125-1.687 1.125-4.907.188-.812 1.094-8.906.094-.782-.188-3.312v-3.594l-.094-5.312-.812-4.782-.188-.718-1-3.188-4-6.094-.406-.5-2.594-1.312-4.094-2.188-1.125-.5-.78-.406-4.813-2.187-2.907-1.5-1.78-.813-5.595-1.906-.718-.281-2-.625-4-.282-5.5 1.282-3.094 1.312-1 .906-5.906.907-3.282.593-2.718.594-4.782.688-1.125.625-2.593 1.5-2.688 2.187-5.312.406-4.094-.812-5 .812-6.5 2.782-5.094 3.125-1.094 1.187-2.406 2.594-2.5 2.906-1 4.313-1.312 5.28-.094.595-4.094 5.218-2.5 2.094-.594.188-4-.188-3.625.406h-.375l-3.125-1.406-3.875-1.406-2.312-.688-4.594-3.218-1.406-.782-3.5-3.5h-.813l-3.781 1-.719.282h-.781l-2 .125-2.813.094-2.78.406h-3l-1.813-.719-1.813-1.094-2.094-3.5-.687-2-1.313-3.093-4.78-1.313-.813-.187-3.594 3.406-2.906 2.687-.594.407-2.406 1-1.594.78-1.406.313-2.594.688-5.906.625-3.688 1-4.219 2.094-3 1.593-3.593 1.688-.813.719-.5.187-.594.313-1.5.187-.593.094-2-.687-1.906-.688-5.688-.125-1.313-.094h-.687l-2.406-.094h-.688l-1.906-1.812-.5-1.282 1.094-11.812-2.813-6.094-7.375-2.5-4.406-2.594-.094-.718-3.125-2.375-1.188-.72-1.687-1.187-.406-1.5v-6.5l-.5-3.093-.094-.657H223.31zM2574.5 3677.406l-5.812 2.188-2.876 4.406-.718.313-1.688 1.593-1.812.907-2.906.28-2.094.22h-1l-2.5.5-.906.375-1.188 1.218-1 2.594.313 2.094.874 1.812.126.688.187 2.594-.406 1.906-2.188 1.812-2.812 2.282-1.594 1.906-.687.906.28 3.813 2 3.687 2.595 5 1.124 2.094 1 1.906 1.376 3.594.312.594-.5 4.218-.687 2.188-.626 1.094-1.593 2.218-3.594 2-.687.188-.813.219-5.5 1.78-6.312 4.907-.5.594-4.876 5.719-1.406.593-4.406 3.282-2 .812-.906.688-4.094 3.312-.594 1-3.312 5.313-1.094 1.78-.5 1-2.187 4.313-1.5 3.094-.5.5-2.5 2.594-1.407 9.812-.094.907-.625 5.093-2.875 4.407-1.719 3.28-.78.72-3.813 3-3.094 1.28-.5.095-4 .312-5 .313-1.094.375-1.312.406-1.094.5-2.719 1.219-.687.5-2.907 2.187-1 1.188-2.28 2.5-1.22 3.5v1l-.093 3.125.093 1.875.095 3.719-1.876 3.5-2.312 4.187-4 2.313-3.5.093-1.406.313-1.281.281-.813.22-2.5.874-2.5 1.125-2.094.594-1 .281-3.5.719-2.906 1-1.187.281-4 .906-.907.407-2.219.5-3.687 2.093-2.312 3.407-1 1.593-1.5 2.907-.782 1.406-1.5 2.781-2.5 1.125-4.312 1.094-2.188-1.406-6.406-3.813-13.094-7.781-6.406-1.094-4.5.5-.812.281-2.282 1.22-.406.593-1.187 1.906-.126 1 .313 4 .313 5.281.187 3.813.594 4.781-.406 3.813-.282.593-1.094 2.5-.218.594-1.5 3.719-1.781 3.5-2.22 4.281-1.593 2.813-.906 4h386.844l-1.032-3.5-.406-1.094-.406-3.906-.594-4.5-.687-4.5-.126-.594-1.187-3.219-1.406-2.781-3.781-1.813-.407-.094-2.719-.406-3-.094h-.874l-4 .688-6.626.812h-1.593l-7.688.406-.812.094-5.281.907-4.313 1.593-3.906 2.813-2.406-1.813.812-2 .5-1.187 2.188-5.125.812-6.375.594-5.719 2.594-6.094.312-.593 2.094-6 .5-1.5.406-1.094 3.5-10.219v-2.281l-.5-8.313.906-1.312 1.281-1.875.72-.906 1.78-1.094 1.813-1 .688-.406 1.624-1 2.282-3.407 1.719-1.906.78-1.594.095-2-1.281-3.406-1.407-3.594-2-3.906-2.687-5.187-.906-1.219-1.22-1.688-2.5-3.187-3.374-3.719-1.719-1.781-2.094-.719-3.5-1.187-2.5.593-3.093.594h-.407l-6.187.313-3-3.594-.719-.813-6-7.187-6-1.813H2672l-1.093.094-.5.094h-.5l-1.407.406-2.593.813-3.407 1.687-2.687 1.094-1.313.813-3.687 2.093-3.313-.187-2.093-.219h-1.22l-1.874-.187-3.125-1-2.688-.907-1.906-2.593-.406-.688-1-2.719.5-1.906.219-.687 1.093-1.313 1.094-1.187 1.406-1.594.688-1.906 1.219-3.688 1.687-6.312.719-2.594.187-2.813-1.593-2.406-1.094-1.594-1.313-1.187-3.593-3.219-1.407-1.281-1.812-1.719-1.5-1-1.5-1.5-1.375-.875-2.219-2-1.5-1.406-1.594-1.594-1.093-1.312-1.407-1.813-1.812-2.594-2.688-4.593-.5-.907-1.093-4.593-.72-3-.374-1.813-.219-3.594v-3.687l.094-1.406-.5-3.907-5.687-1.5-2.594 1-.813.594-2.406 1.719-.875.594-3.219 1.812-2.406 1.688-.375.094-3.625 1-1.781.406-1.219-.094-.5-.094-2.094-2.125-.5-2.781-.5-2-.28-1.594-.407-1.406-2.906-5.813-.407-.687-3.687-1.313-2-.594-1.594-.094z" style="fill:#9faec0" transform="translate(0 75)"/><path stroke="#9FAEC0" stroke-width="10" d="M571.063 3902.5 571 3904l-.188 1.906-.5 7.594-.219 4.094.906 4.5.907 4.094v.624l.094 3.094.094 2.5-1.688 3.407-1 1.593-.719.782-3.593 4.218-.688.407-1.906 1.593-5.594 4.782-2.219 1.718-4.375 4.407-5.812 8-2.188 7.687-.312 1.094-.094 4.312-.219 7.406-1.5 6.282-3 6.406-3.781 3.594-3.219 3.093-1.093.813-3 2.406-.5.781-4.282 5.407-1.5 2.718-3.406 6.094-3.594 7.094-2.812 6.094-1.406 2.312-5.282 8.406-1.5 2.188-4.218 6.406-2.594 4.281-2.313 4-1.093 1.907-3.5 6.093-4.407 8.313-2.781 4.906-3.219 5.688-1.375 4.5-1.125 4-.781 8.093-.219 1.22.313 3.5 1.812 12.593v1.594l-.406 7.593-.594 6.125-1.906 5-1.094 1.875-.718.907-1.188 1.312-2.906 3.906-1.406.688-6.5 7.687-1.188 1.407-2.906 10.406-.594 2.187-1.812 5.626-3.407 14-2.375 11.093-1.5 6.688-.906 4.312-1.594 6.782-.625 3-1.093 5.406L441 4233l-5 13.313-.688 2.187-2.625 7.906-.281 1-.906 4.594-.313 2-.094 3-.5 6.094-1.5 7-.5 2-3.281 8.312-4.219 4.5-2.406 2.5-.594 1.094-1.906 2.813-.281.5-1.407 3.875-1.187 3.625-.406.687-3.5 6-.313.406-4.5 6.188-.594.406-5 3.5-3.687 1.688-2.125 1.5-1.781 1.5-5.813 7.125-.281.5-2.313 4.093-.187 6.094.094.813.688 2.687.312 3 .188 1.188-1.094 3.5.312 1.312-3 5.188-.906 1.218-2.594 3.907-1.625 2.5-.687 1.187-1.906 3.313-2.282 4.187-.5.688-3.906 4.625-2.812 2.875-1 1.125-1.688 1.593-2 1.907-3 2.875-2 2-.406.312-3.188 3.188-2.218 2.125-3.188 2.5-1.719 1.093-.5.282-2.5 2.125-6 5.375-1.5 4.5-.187 1.5-.313 2.906.407 11.812.312 6.5-.094.594-1.5 5.906-.906 3-3.407 6.188-1.812 5.906-1.5 5.906 1.5 2.907.406.187 2.406 1.313 3.094-2.5 3.094-5.22 2.719-4.5 3.093-.78.813.187 3 1.906.281.5-.094 5.407-2.094 4-.718.687-.5.406-3.875 3.188-4.5 3.812-3.219 2.594-1.781 3.188 2.281 7.718.594.907 3.218 5.687 2.594 7.813 2.406 6.187.188.594.094.906-.187 4.094-.407 2.406-.906 4.594-2.281 8.094-.594 1-2.5 7.906-.719 1.594-2.281 5.312-.5 1.094-1 2.5-1.125 4.093-1.594 4.907-2.281 6.218-2.812 7.594-.5.781-1.907 3.22-1.593 2.187-.5.593-4.5 6.407-3 2.593-1.094.72-1.594 1.405-1 .875-.719.813-3.281 3.594-4.312 5.593-2.813 3-.281.813-2 5.406-1.906 4.906-4.5 5.782-2.907 4.406-2.5 4.812-3 5.094-.593.906-4 5.282-.594.5-3.313 3.906-3.281 3.812-2.125 3.094-.875.688-1.406 4.218-1.719 4.375.125.907v4.593l-.312 3.625.187.782-1 2.718-.094 1.5-2.906 4.188-.5.312-4.188 2.094-1.406.5-8.5 2.906-1.5.594-8.781 3.094-1.125.406-.688.688-3 2.593-1.812 1.5-1.875 2-5.625 5.625-1.188.782-3.687 2.093-3.907 2.125-.718.188-4.094.5-5.688.812-5.218.875-.875.313-7.313 2.594-3 1.093-1.187.72-4.407 2.905-.906.688-4.406 3.094-1.688 1.218-.406.688-1 2.187-.687 1.72-1.219 2.687-2.281 3.406-3.219 2.312-2 1-.281.688-1.219 2-.594 2-.094 1.187-.593 5.5-.907 7.5-.094 1.125-.312 4.5-2 2.688-3.5 4.812-1.813 2.875-1.187 1.72-3.094 4.093-.5 1-2 4.187-.5 4.5-.094 4.22-.125 3.093-1.781 3.906-2.5 4-5 4.094-.594.594-2.125 3.5-1.5 3.406v11.812l-1.375 6.376-3.313 7.906-1.406 2.812-1.094 1.282-1.406 1.718-2.406 2.782-1.688 1.906-1.187 1.812-2.313 3.282-2.312 5.5-1.094 2.718-.281 1.594-.719 4.313v1.28l.219 4.095-.219 2.312-.094 2.188-1 6.125-.594 6.093-.718 2.188-2.5 7.094-.5.812-2.282 2.906-3 2.688-.5.406-4.093 3.188-1.125.718-1 .688-.688.594-2 6.906.094 1 .406 2.594.188 1.5.406 5.5.094 1.218-.187.782-1 4.718-2.094 8-1.5 5.5-.219.782-.875 1.5-1.812 2.406-.406.5-3 4.094-.907.625-2.281 1.093L66 4971.5l-.5.094-4.094.812-1 .188-3.094.5-1 .5-3.5 1.812-1.218.907-2.407 2.093-3.781 6.407-.812 2.5-1.5 5.28-1.688 4-1.406 3-1.813 4.095-.875 1.125-2.218 2.687-1 .688-2.282 1.312-2.406.906-3.094 1.282-1.5.312-4.125.406-3 2.5-2 5.094.125 2 .375 4.594 1.313 4.219.406 1.093 1.094 4.407.312.593 1.782 4.5.812 1.907.406 1 .782 8.593V5054l-.188 4.5v4.594l-.094 3.5-.125 5.219.219 3.375v2.5l-.407.5-.406.406-1.5 5.594-2.781 7.718-2.625 4.407-.5.593-2.375 3.188-4.906 4.719-1.907 2.593-.906 1.407-2 3.375-.187.5-2.094 6.718-.313.907.688 3.687.5 1 6.219 12.5.78 1.594 4.626 4.5 1.781 1.594 4.906 4.312 2.407 2.406 2.28 2.188 4.907 4.719.406.593 3.688 5.907 3.812 6.187.188.5 1.5 5.313.719 4.593-.813 4.407-.281 1-1.125 3.28-.688 1.595-2.5 4.312-1.406 2.188-3.219 4.656h4909.532l-11.72-233.156-.874-.094-10-1.907-.5-.094-11.406-3.78-8.594-1.626-5.813-1.187-6.906-2-6.906-2.094-3.875-3.313-.5-.28-3.719-2.907-.594-.5-2.593-3-.5-.906-2.5-4.407-.5-.906-2.094-4.094-.5-.906-1.625-8.781-.094-4.5.312-1.219 1.5-6.187-.5-2.188-.218-.719-1-2.093-1.688-1-1.594-.407-1.406-.687-1.094-.125h-2.093l-.907-.219-2.312-.281-2.281-3.5-1.72-2.406-1.093-1.594-.187-.625-4.813-2.781h-1.094l-3.5-.313-2.5-.5-2.718-.5-1.594-1.5-2.5-4.781-.906-3.813-.5-1.593-.282-1.813-.812-2-.781-1.781-.625-1.313-1.688-3-4.187-3.5-1.813-.687-8-4.125-2.906-.281-2.688-.094-2.906-.125-5.094 1.218h-.406l-1.812.188-4.5-1.406-.875-.5-2.313-2.188-1.5-5.094-.5-1.406-1.094-13.187-.5-1.407-1.5-4.812-1.218-3.094-.594-1.406-3.688-3.188-.718-1.812.406-1.906 1.312-2.188 3.907-1.812.78-.375 1.907-.719.813-.281 3.5-.5 2.187-.313.688-.187 1.625-1.407.78-1.718-4-4-4.187-4.5-3.906-5.188-5.187-7-2.907-2.094-.906-.5-3.094-1-1.406-.5-2.094-.593-1.312-3.313-2.094-1.906-3 1-2 .812-4.406 2.407-5.094-.219-.5-.281-2.094-2.625-.593-.782-.313-4.906 1-1.906 1.188-2.781 3.312-4.782 1.594-2.687-.406-1.406-.5-2-2.094-3.313-.281-.406-5-5-1.72-3.188-.905-1.687-.688-1.313-.687-1-1.313-1.187-2.187-2-4.812-4.218-1.594-4.594-1.094-3.312-1.218-3.5-.282-.282-5.5-4.593-3.125-2.5-1.187-1-2.906-2.5L4704 4718l-1.406-.906-.594-.406-.594-.5-2.906-3.188-.312-1.688-.594-3.5-.094-.624-1.688-3.594-.218-.594-1.782-1.687-2.312-1.72-1.406-.78-3.5-1-1.188.187-4.5 2.5-.906.406-3.813 1.594-.593.313-3.594-.72-3.313-.593-.781-1.312-6.594-10.875-.312-.5-2.688-4.407-2.812-4.218-3.313-4.875-3.687.094-1.406.28-3.094.72-3.688 2.5-1.5 2.687-.406 2.5-.719 1.906-.187.688-.188 7.219-.125 3.5.125 2.406-.125 2.187v4.5l-1.187 3-1.813 4.594-.375.5-2.906 3.719-.719.781-2.5 2.719-4.593.875-.5.125-2.594-1.125-.813-.781-2.281-2.5-.406-.5-3-2.813-1.688-1.594-.406-.312-1.406-.594-.813-.188-.875-.218-2.625.5-.875.406-2 .812-4.625 2.594-6.78 3.5-2.5 1-5 1.906-1 .5-7.5 3.094-1 .813-3.313 2.687-2.782 4.188-.812 1.125.406 3.375.282 1.5 1.624 7.218.282.782 1.593 3.5 3.907 4.125 2.406 3.375 1.5 2.906.313.906.874 2.906.72 4.594.406 3.188-1.407 3.812-1.406 2.906-2.094 4.407-2.312 4.687-3.094 5.406-1.906 2.594-1.688 3.406-2.218 1.594-2.5-.5-3.094-.5-4.782-.812h-2.906l-1.312.125-1.688.375-1.093 2.812.593 2.688 2.407 2.5 2.593 3.718 2.188 2.407 1.219 2.375-1.313 3.812-2.906 4.406-1.188 1.282-4.906 5-1.812 2.406-1.282 7.812.407 3.688.593 8.094 1.188 5.718.719 1.594 2 5.188 2.687 4.625 2.813 2.687 3.093 3 2.282 2.188.218.718.094 1.407.313 2.5-1.219 2.187-1.188 2.406-.812 1.5.719 1.688.687.812 4.5.907 2-.313 2-.406 3.094.406 1.094.313 1.406.875 3.312 1.906 6.5 3.719 1.782-.5 1.218-.22 2.282-.5h.812l1.313-.093.593.5.5.5 1.094 2 .188 1.406.812 4 .094.906.5 1.594 1.219 3.406L4593 4915l-2.593.594-.72-.094-4.593-.688L4580 4914l-2.593-.5-1.094.312-1.5-.312-3.125.187-1.875.625-1.625.594-3 1-.5.187-2.375 2.22-2.625 2.5-3.281 1.28-2.094-.5-2.125-1.093-.688-.407-2.5-3.687-1.312-1.813-1.188-1.906-2.312-2.687-.781-.813-4.907-3.375-2-1.406-1.906-.813-3.281-1.28-2-1-1.125-.5-4.594-.313-1.781 1-2.625.5-3 .593-3.188-1.28-1.906-.72-1.781-1-3.313-2-1.906-1.093-2.187-.5-1.594-.313-4 .219-1 .281-5.719 1.406-.594.594-2.5 1.813-.593.593-6.813 6.094-1.594 1.219-2.5 1.406-1.812 1-.688.375-8.187-2.375-3.5-.406-4.125.5-1.375-.219-.625-.094-1-.094-2.781-.594-3.5-1.406-.407.094-2.593.406h-3.5l-3.22.313-5.687-.719-3.593-1.906-6.313-3.281-4.5.593-4.594.407-5.312.906h-2.781l-.594.375-3.219 2.219-2.594 3.593-.187.594-1 3.313-.313.5-2 3.187-.406.219-4.594 2.687-.406.094-7.687 2-1 .22-5.5 1.28-5.094 2.5-3 1.5-1.219 1-3.406 3.094-.5.5-1.375 1.719-1.125 1.281-1.5 1.5-.781 2.5-1.22.125-.874.094h-.906l-1.22-.219-1.593-.593-2.5-.907-.5.407-1.906 1.406-4.5 2.594-3 1.218-2.781.282-2.813-.5-2.281-.407-1.5.313-2.313.5-3.406.812-2.5 4-1.281 6.188-.813 1.5-3.406 3.312-.5.094-3.094.282-1.687.218-3.219-2.593-.5-.407-1.187-1.906-2.22-3.687-1.374-1.906-1.719-1.594-1.594-1.625-3.406-2.594-3-3-1.594-2.781-1.812-4-1.688-4-1.406-2.719-.781-1.406-.406-.5-1.72-2.281-2.593-3.594-.781-.813-2.125-2.5-.375-.406-1.906-3.406-.313-.5-1.406-4-.781-2.5-.5-2.875-.094-.72-1.22-1.405-2.5.5-.405.125-1.875 1.187-2.625 1.594-1 .594-1.188.406-.406.094-1.406-.594-4.782-1.781-3.312 2.781-2.094 2.094-.906.812-4 2-3.281.594-2.72.406-7.5.907-2.187.187h-.812l-6.688-.094-4.218-.094-2.782-.312-.812.094-4 .718-.688.407-3.218 5.875-1.188 1.5-.906.625-1.188.687-1.906 1.094-2.906 1.719-2.688 2.593-2.218 2-2.282 2.282-2.718 2.312-.688.313-4.812 1.593-3.875.782-2.72.218-6.905.407-3.282-1.22-.906-.405-2.187-1.282-2.313-2.093-1-.72-1-.187h-2.5l-3.594.094-1 .094-2.093-.687-2.625-1.313-1.5-.187-1.094.094-3.781.5-.5.406-1.625 1.906-.688 1.688 1.406 1.5 2.407 2.406 2.375 2.5 4 4-1.282 3.281-2.812.407-1.688-.5-1.406-.407-.594-.28-3.093-1.5-1.625-1.095-4.282-2.906-4.218-2.719-2.282-.593-1-.094h-3.312l-2.281.094-4.125 1.312-9.094 3.281-1 .407-1.5.718-1.906.875-4.375 1.625-1 1.188-1.22 1.5-3.187 3.812-.718.375-2.875 1.22-.5.093-4.125-.187-3.5-1.125-2.094-1.094-2.188-1.594-1-.594-2.906-1.906-3.812-3.094-5.5-4.5-1.188-.312-3.312.219-1.594.187-3.5.594-1.188.219-4.906-1.22-1.187-.28-.5-.125-11.72-2.875h-.405l-3.594 1.687-1.281.813-5.625 3.375h-3.875l-3.407-.782-2.218-.5-8-1.906-1.5-.5-.375-.094-3.125-1-3.094-1.312-2.094-.907-2.5-1.093-1-2-.594-1.5-.406-1.282-1-3.406-.312-1.094-.5-3.5-1.188-3-.406-.812-1.5-2.594-.5-.594-2.5-1.906-3.188-2.312-6-1.094-6.218-.5-5.5 1.406-2.594.688-3.188 1.5-13.812-3.282-2.406 1.875-.782 5.407-10.5 3.718-7.906 8.875 1.094 11.5-3.188 2.72-10.718 1.28-2-.28-5.594-.813-.781.312-3.22 1.094-.78.312-4.72 2.375-2.405 3.625-.188.688-1.094 4.812-.906 4.094v1.281l-.312 5.907.218 1 1 4.593.688 5.125.406 6.594v5.094l-.312 3.5-.188 2-.906 3-.594 2.812-1.094 4.188-.406 1.406-1 4.5-.406 2.688-.5 2.093-1.188 3.813-2 6.906-.312.906-1.188 2.688-.406.812-.406.688-4.781 7.687-2.813 4.313-.312.5-3.094.406-4-1-4.188-3.594-2.093-1.718-2.907-1.188-3-.5-2.593.906-.5.188-4.5.687-2.625.625-1.875.094-3.5.094-3-1.187-2.22-2.406-1-1.5-1.687-3.313-1.593-2-2-1-4.125-2-.5-.094h-2.5l-2.094-.406-1-.906-2.094-2.094-.687-.281-.22-1-.687-3.219-1.218-1.906-.282-.594-2.593-1.281-3-.625-2.625.5-2 .406-3.5 1-.594.406-3.281 1.906-3.313 2-1.094 1-3.812 3.407-3.188 2.687-.593.313-1 .875-1.907 1.906-2.5.5-1.906-1.281-1.094-.907-1-1-.5-.406-1.718-3-.282-.5-2.593-4.812-1.813-1-.812-.5-2.688-.782-2.594-.812-1-.188-3.593-1.593-3.22-1.813-.405-.312-2.282-1.5-3.312-2.094-2-.281h-1.094l-.812.094-.688-.094-4.406-.219-.688.406-3.312 1.813-.781.281-4.125 1.719-3.594 1.687-.406.188-3.094-.875-2.5-.407-.688.094-2.5-.187-3.406-.625-.687-.094-1.907-1.094-2-1-3-2-1.718-1.093-2.5-1.22-2-.593-.5.094-2.188.406-1.406.313-4.5 1.5-.5.187-4 1.5-3.406 1.313-.688-.094-.5-.219-.312-.406-1.782-1.594-1.718-2.688-2.094-1.406h-5l-5.594.813-5 2-2.594.687-4.5.906-3.093.282h-.407l-3.218-2.282-3.094-2.218-.594-.375-5.812-1.907-1.094-.312-1.688-.094-3.218-3-1.375-1.094-1-.812-1.625-.594-3-.906-2.594-.781-2.594-1-1.594-.5-4.093-1.313-2.907-.906-.718-.188-4.594.188-3.281 1-.625.5-7.375 4.906-.5.594-.907 1.406-2.406 3.688-1.906 2.812-.688.5-2.906 2.094-1.5.594-.812.312-2.188-.312-4.094-.5-4.5 1-3.093 1.625-2.5 1.28-.5-.093-.813.406-3.5 1.281-1.594 1.22-2.906 2.093-3.187 4.406-1.813 2.594-3.5 5.594-.687 1.812-2.625 4.5-2.094 4.406-1.594 2.5-1.094 1.094-3.218 3.094-.688.312-1.312.875-4.688 3-2.406 2.407-4.781 4.906-1.5 2.812-.407 3.688-.218 3-.375 1.906-.407 1.094-1.312 2.187-.906 2.625-.782 2.282-1.906 2.593-.187 1.407-.313 2.718 3.188 4.375.5.407 2.312 1.812 1.688 2.5.625.906 5.093 7.594 1.907 4 3 6.188 1.093 3.093.5 5.907.094 3.5.094 1-.593 4.718-1 4.094-1.813 5.688-1.875 2.093-1.812 2-.688.5-1.125.5-2.781 1.407-2.906 2.406-1.813 1.812-1.094 1.188-2.093 1.906-1.313 1.281-3.594 1.813-1.593-.188-2.5-.125-4.5-3.78-3.407-3.313-2.5-2.407-10.781-11.687-.812-.906-2.094-4.282-.813-1.5-1.687-4.906-.406-1.719-.313-1.78-.781-5-.5-3.407-.094-.688-1.907-4-2-1.312-.5.187-1 .625-3.5 2.375-2.906 1.907-.687.406-.907.312-1.906.594-2.094-1.219-3.312-.78-1.281-1.095-1.125-.906-5.282-6.812-3.5-1.594-2.093-1-.407-.094-5.218.094h-.5l-3-1.313-2.594-.78-3.188-1.5-1.218-1.095-1.282-1.218-2.218-3.094-.5-.688-.5-1.312-.5-.906-4-1.407-2.5-.593L3405 5084l-1.312-.688-2.782-1.5-1.312-.906-5.5-4.406-2.281-3.313-2.907-4.28-.593-1-1.313-1.594-1.187-1.5-.907-.813-1.812-1.688-3.188-2.218-3.593-2.5-.5-.406-1.907-2.188-.5-.594-1.093-1.906-1.719-2.5-1.094-3.406-.406-3.594-.188-5.188-.218-3.5-.782-4.312-1.5-2.094-.812-1.406-6.5-10.188-1.688-4-1.093-2.812-.219-.5.094-1.188.313-7.312 1.906-2.094 3.281-4.906.813-2 .812-5.813 2.188-5.093 2-4.406.187-2.188-.5-1.813-.187-.5-4.094-2.187-9.094-5.188-3.5-2.406-2.312-1.812-2.313-1.5-3.687-2.281-.907-.626-5.406-5.687.219-1 1.187-8.188 5.313-5.718 1.281-1.406-.5-3.5-4.281-3.5-4.5-3.282-1.313-1-2.093-1.093-1.188-.626-2-1.093-1.625-1.406-1.594-1.5-.781-.688-1.219-1.094-.406-.719-1.594-3.093.594-7-2.875-2.188-.5-.5-2.219-2.094-3.687-2.718L3308 4894l-2.688-3.313-.719-2-.281-1.187 1.594-4.094 1.594-1.406 5.906-7.688 1.406-1.906.875-1 3.125-2.093 2.781-2 2.907-2 .906-.626.5-.5 1.594-1.374 2.5-3.626.812-4.78.188-1.094-.5-2.907-2-4.218-4.188-4.876-3.406-3.906-2.594-9.812-1.312-4.781-.188-1-1.125-3.907-1.094-3.093.907-3.5.593-2.72v-2.905l-.406-.376-2.687-2.624-2-1.876-.407-.312-3.687-3.313-.5-3.374-.406-2.5-1.594-2-1.719-.907-4.094-2.218-3.5-1.876-1-.5-4.187-3.218.094-7.188.094-3.5.094-2.218-.188-5-.312-4.376v-1.218l-.875-4-1-3.188-1.313-2.593-.406-.407-4-2.312-2.406-1.406-2-1.188-1.875-1.094-1-2.906-1.407-4.406-.593-1.594-4.407-5.688-.312-.406-2.906-2.218-3.594-3.782-2.281-4 .187-3.593 3.594-7.907.094-2.812-2.094-3.5-4.281-2.094-14.5-5.406-2.719-.5-6.593-1.594-.813-.187-2.375-1.813-4.125-2.906-1.094-1.094-4.281-4.812-5.125-6.094-4.094-5-7.5-3.5-4.281-2-2.5-1-4.719-2-1.5-.594-6.093-1.187-5.094-1.125-1-.5-1.5-1.375-5.813-5.72-.406-.187-5.375 1.782-1.719.718-2.281 1.094-2.125 1.094-1.687.5-3.813 1.094-1.875.625-2.406.78-3.094 1.5-.625.313-1.375 1.907-2.5 3.28-.812 1-7.813 5.72-1.875 1.187-16.312 10.813-2.907 2.375-.687.5-4.094 2.906-.812.219-5.188 1.593-6.5-.718-3.5-1.5-.625-.375-1.594-2-.281-.407-.906-2.406-.406-2.406.5-2.281 2.093-2.407.813-.906 1.687-1.594.313-1.312-.5-3.906-2.219-7.5-.187-.594-3.5-3.906-.907-1-1.281-1.282-3.219-2.406-2.093-1.594-1.5-1.093-4.813-3.813-1.187-.812-1.313-1.094-1.187-1.281-3.407-3.72-.906-1-1.781-1.187-3-1.812-3 .312-4.406.094-4.313-.687-5.375-.813h-.812l-3.5.188-3.594.125-3.219-.625-.5-.094-1.094-1.5.094-2.594.125-3.094.094-3.593.094-.625-1-2-1.093-.875-1.407-.625-2.093-1.094-2.5-.594-2.094-1.094-.5-.312-2.625-1.688-2.281-1.812-5.313-5.406-4.281-4.5-.5-.782-3.125-9.593-.594-1.813-1.5-3.406-1.187-2.781-1.094-3.125-.313-.282-2.593-2.5-2-1.718-1.594-1.5-2.313-1.875-.593-.625-.72-1.375.813-3.22.094-.593 1.094-2.312 1.219-4.782-1.594-5.593-.906-1.22-2.313-3.405-.406-.594-2.094-1.406-3-2.188-1.781-1.312-2.906-4.5-1.594-5.5-1.125-5-.781-3.875-.906-4.22.687-2.687 1-2 3-2.593 2.219-.313 9.594-1.312 2.406-.282 2.687.094 3.907-.406 2.312-.187 4.688-1.594 5.093-3.625 1.594-2.781.406-.594.5-3.406-.094-2-.187-3.5-1.125-9.22-.375-2.593-.5-4.406-.313-6.094 1.094-5.594.094-5.187.906-3.406 2.094-2.094 1.906-2.313 1-5-1.78-4.406-2.126-4.594-1.781-3.906-1.313-2.687-.187-4-.094-.594-.5-8.313-.625-1-2.19-1.907-1.5-1.281-1.094-.813-1.718-2.312-.094-.594-.094-1.406.687-3.875.313-.407 2.093-5.406 1.094-2.406-.187-2.688-2.813-5.093-3.687-1-2.813-.813-.687-.094-6.094.406-7.094.094h-.5l-2-1.093-1.625-.907-2.375-1.406-.219-1.594v-3l1-3.5-1-2.406-.406-1.187-2-2.22-4.281-2.28-.406-.125-9.313-3.188-4-1.406-.594-.094-5.093-3.688-.313-5.406.313-1.094.906-1.625.594-1 1.312-2.093 2-3 1.281-1.907.594-.687 2.313-2.906 1.312-1.5 1.5-3.688-1.719-2.5-6.281-3-1-.312-5.625-1.188-4.094.906-.406.094-1.594 1-4 2.407-2 1.28-2.906.313-1.187.188-2.407-.5-2.781-1.688-1.906-1.906-.719-.594-2.094-2-.906-.812-2.281-1.5-4.813-3-2.906-3.281-1.281-1.22-1.5-5.593 1.187-3.906.313-.781 1.406-2.5 2.594-5.125-2.094-3.188-.406-.594-3.094-1.593-4.125-2.625-.594-.375-4.5-3.22-.406-.28-3.094-3.5-1.406-2.5-.5-.907-.781-4.906.187-1 1-5.687.219-1.407 1.188-3 .5-1.406-.907-5.594-.187-.718-2-3-.813-1.282-2.781-2.906-2.812-2.687-2.407-2.407-2.687-2.593-2.094-2-1.812-1.813-6.407-5.312-3.187-2.688-6-5-5.094-4.812-7.406-12.094-1.313-3.094-1.5-4.594-1.781-5.5-2.906-3.718-4.719-5.594-5.281-3.281-5.094-1.313-2.312-1.094-6.594-7.312-.5-.594-2.094-5.094-.219-.593-1.281-5.125-.625-2.782 1.719-2.593.281-.5h5.719l1.906-2.125-1.406-4.282-.313-1.093-.781-1.407-3.719-4.906-2.687-2.406-5.313-4.906-3.781-3.594-3.406-3.188-3.5-3.312-.5-.688-1.719-8-.687-3.093-4.907-3.125-4.687-3-1.719-.782-3.375-4.218-.5-.875-2.406-5.407-1.406-3.218-.188-3.188-.312-4.5.906-7.094.906-2.093 1.094-2.907 1-2.593-.094-2.813 1.375-3.594-.375-2.906-1.407-3.187-.312-.625-.594-1.594-1.312-2.094.406-3.094.094-.906 1.313-2.094.687-1.218.313-3.188v-.594l-.313-2-.5-2.5-.375-1.593.094-1.813.281-3.094.125-3.093v-1.5l-1.906-2.625-1-1.375-2.5-2.313-2.5-2-1.219-.906-3.093-2.594-2.282-2-2.218-1.812-.407-.282-4.593-1.218h-1.188l-.812.218h-.5l-1.594-.094-3-.406-3-2.219-.594-.687-.312-8.188.406-.406 3.906-4.094 3.688-2.125 2.218-1.281.5-.406 1.188-2.313-2.406-4.781-.5-.219-2.782-1.093-4.5-2.407-1.218-1.781-.407-.812-.094-7.188v-3.5l-3-4.594-1.593-2.5-.313-.406v-5l.219-.812 1.187-1.5 1.407-1.782.906-1.218.406-2.5.781-5.407.5-.875.594-1 3.719-3.125 2-1.781 2.094-3.312 1.312-2 .375-.782.125-.812.781-4-.406-1.907-1.375-4.28-1.219-2.72-.593-2.187-2.313-5.5-.25-.906h-386.844l-.187.906-.094 1.781-.5 2.219-1.719 7.5-2.5 4-2.188 4.5-.812 1.688-3.781 2.312-3.625 1-3.282-.219-1.218.125-2.282.375-1.218.407-1.282.5-2.218 1-6.875 7.312-2.313 2.281-3.5.719-3.406.594-.594.312-3.406 1.282-.5.5-3 3.093-2.094 3.719-.406.594-4.281 2.687-3.813-.781-.687-.094-2.719-2.406-.594-.594-2.906-4.813-1.906-2.093-.782-.719-4.312-3-2.5-6.188-.594-1.687-5.687-14.219-3-3.281-.5-.5-4.719-3.219-1.594-1-3.906-1.906-3.406-1.5-1.188-.594-4.594-1.687-2.093-.907H571.062z" style="fill:#9faec0" transform="translate(0 50)"/><path stroke="#9FAEC0" stroke-width="10" d="m29.375 5203.344-1.281 1.844-1.094 1.218-3.687 3.5-4.22 2.594-.905.906-2.282 2.688-.594 1.219L15 5218v3.094l1.594 4.312 1.094 2.688 5.812 5.5 3.688 5.406.906 2.5 1.219 3.812 4.78 6.188.813 1 8.594 7.906 6.688 3.188 1.124.312 5.376 1.281 5.312 1.407 4.094 2.312h3.5l1.594-.094 1-.219 2.406-1.28 1-.626 2.719-4.187 4.593-6.813.5-.781 1.688-4.219 3.906-5.281 4.594-2.219.719-.281 2.187.187 1.313.313 1.187.281 1.906.625 6.781 4.375 1.407 1.125 5.312 4.094 1.594 5 3 8.594 2.406 7.406 1.5 2.281 1.406 1.906 3.688 5 1.094.813 5.312 3.687 2.5 1.72 5.688 5.093 3 2.5.406-.094 2.906-.406 2.282-3.22 1-1.374 1.5-5.125 3.218-4.875 1.188-1.125 1.312-1 .407-.188 4.093-1.093 4.188.5 1.906.406 5.188 1.094 5.5 1.093h.625l5.5.188 6.593.312 2.407.094 1.187.094 1.406.719 4.782 2.188 2.812 3.093 2.594 2.906.406.407 1.406 4.906.407 6.188-.407 1.906-.5 2.406-.094.594-.406 9.5-.5 4.187-.094 1 .187 2.5.688 4.5.625 3.625 2.375 5.782.406.593.406.22 1.5.593 3.094 1.312 4.406-.218 5.313-.282 4.375.594 2.719.406 4.78 2.5 2.813 1.782 3.5 2.218 1.594 1 4.219 2.594 11.187 8.094 3.5 3.687.688.813 3.406 5.094.406 6.093-.094 1.907-.312 4.093-1.688 4.625h-.812l-3.5 8.282-.688 1.093-1 1.22-2.593 3.593-.813 1-2.094 2.812-.5 1-.218 1.188-.282 1.406-1.406 3.688-.5 1.718-.5 2.375-.406 2.625-.281 2-.407 2.375-.218 1.125-1.094 5.094-1 3.281-.688 2-1.718 4.5-.5.625-3.5 4.094-2 2-.594.5-4.406 3.594-2.188 1.187-2.5 1-4.687 1.813-1.813.5-4.594 1.312-4.406 1.375-3.687 1.5-1.625.625-3.5 1.5-.5.594-2.094 2.5-.781 5.688-.313 1.906.594 4.5v6.094l.219 3.093.593 10.72.688 2 1.219 3.593.281.687 3 2.907 2.812 1.906 4 2.687 4.188 2.72 2.094 1.905 2.406 2.188 4.5 3.906 1.594 4.594 1.312 3.594.594 4.093.094 3.72.219 5.405-2 5-2.094 1.594-.906 1.094-1.313 1.687-.906 1.72-.281.5.281 1.593.625 4 1.781 4.187 1.094 2.625.813 1.875-1.094 3.407-1 1.5-.813.5-1.906.593-.5.22-3.594 1.187-1 .406-1.5 1.906-1.781 2.281-2.125 2.813-2.094 2.687-.593.5-2.5 2-1.094.625-2.906 1.594-2.688 1.688-2.906 1.906-2.594 2.094-1 2 .094 2 2.5 3 3.5 1.093 3.094 1.125.812.594 1.782 1 .5.781.812 1.625v.594l-.312 3.281-1.594 2.907-.5.5-3.5 6.218-.906 4 1.5 2.875 1.5 2.72.812.78 1.688 2.5 1.093 1.5.219 2.72-.219 4v3.687l-.593 4-1.5 3.906-.688.812-2 2.375-1.719 1.72-1.093 1.5-2.907 3.78-1.093 1.813-2.094 5.406-.813 2.688-1.781 5.5-1.219 4-1.281 4.093-.219 5.313.125 7.594-1 3.812-5.5 3.188-6.5-1.188-9.718 1.688-8.688 3.906.688 3.906 5.406 3.5 1.906 2.688.281 4.718.719 3.688-2.094 2.406-5.218.281-3.407-3-6.375 5.72-2.406 8.78 5.406 4.72 3.5 3.28-.406 1.313L157 5761l-.5 1.312-2.313 6.875-.187 1v1.5l-.813 31.407-2.781 107.812L147 6041l-8.813 366.094-.5 16.218-2 80.875h4868.844L5002 6453.5l-.188-3.5-1.312-28.813-1.5-30.875-3.906-92.906-1.5-35.5-10.188-206.719-.812-.687-.407-6.313-2.28-49-.313-5.593-1-15.688-4.407-89.5L4970 5802.5l-8.813-171.594-5.875-114.906-.218-3.313-2.594-49.093-4.688-86-1.625-27.594-5-101.906-.875-16.5-1.406-28.25z" style="fill:#9faec0" transform="translate(0 25)"/><path stroke="#9FAEC0" stroke-width="10" d="m135.688 6504.188-.094 3.812-.282 11.906-.812 19-.313 12.781-1.093 49.125-.782 32.282-.312 8.406-.094 8.312-1.813 70-.781 32.282-1.219 48.5-.687 31.312-.219 11.5L127 6860l-.313 19.906-2.187 59.594-1.407 61.094-.593 24.812-1 55.407-2 70.687-1.594 67.812-2.219 75.688-.281 9.5-.313 13.687-.406 19.72-.375 16.687-.719 36.812-.5 22.688-1.406 51.5-3.875 148.906-.406 16.094-2.094 80.812-.219 7-.187 9.594-1.094 49.5v.688l9.781.312 252.219 6.688 70.594 1.812 5.094-.094 154.5 4 34.906.594 14.187.187h2.219L810.406 7794l15.5.187 11.594.313 94.687 2.687 30.406.813 6.907.094 50.906.594 11.094.125 118.687 1.375 92.625.906 133.594 1.094 16.406.125 13 .094 36.594.406 13.906.187 16.281.188 28.719.312 89 1.094 7.375.094 4.406-.281 75.907-.813 75.313-.406 43.875-.688 14.406-.187 32.812-1.5 14.282-.5 15.312-.813 2.094-.094 14.906-.5 12.188-.5h2.718l17.907.187 16.875.22 46.406.78 37 .813 30.719.687 17.875.407 14.218.593 16.407.5 14.875.407h1l49.218.187L2281.5 7803l16.406-.094 33.282-.094 46.5-.907 3 .094 29.812-.094 16.406-.125 55.282-.218 91.406-.282 6.406.125h.688l22 .188 19.5.312 15.406.188 16.406.312h19.406l15.407.094 30.187.313h2.5l14.906.5h.5l16.407-.906 56.687-2.094 16.906-.719 7.688-.281 9.219-.125 17.375-.594 37.312-1.281 30.688-1.125 9.812-.375 8.594-.5 26.219-.313 47.093-1.406 33.688-1.094 4-.094 11.406-.312 20.313-.688 204.78-5.906 15.907-.406h3.406l2.688.094 59.406-2.375 15.813-.625 48.093-1.875 30.688-1.313 6.406-.312 8.406-.188 68.094-1.687 76.688-2.5 12.812-.406 81.906-2.813 79.282-2.687 13-.5 50.125-1.594 53.5-1.906 73.28-2.907 8.22-.312 12.687-.5 20-.688 41.906-1.812 27.094-.781 8.688-.094 1.125-.125 14.28-.782 6.5-.125 6.813 3.688 10.188-.406 15.5-.594 13.094-.406 11.312-.282 122.813-5.625 186.187-10.5 114-6.78h.906l53.188-.595 5.594-.125 4.406-.375 49-.312 9.094-.406 323.5-13.907-.094-1.093-.407-9.688-5.093-98.812-1.907-45.282-1.5-33.406L5049.5 7486l-3.688-73.094-.906-18.218-7.312-147.282-.5-14.093-1-9.125-3.407-74 .5-.188-5.093-109.094-1.782-43.906-2.406-60.094-1.219-32.812-2.093-59.688-1.5-32.218-1.188-25.875-.312-6.407-4.188-88-4.5-102-.094-2-1.906-35.406-1.719-35.312-.656-13H135.687z" style="fill:#9faec0"/></svg>