<svg xmlns="http://www.w3.org/2000/svg" width="620.906" height="972.656"><path stroke="#9FAEC0" stroke-width="10" d="m241.813 0-.125.094-3.188 1.812-3.969 1.563-5.312 3.656-3.406 1.156-2.063 1.344-2.219 2.844-4 1.437-12.219 5.594-9.687 4.937-2.781 1.375-11.188 3.313-1.062.625-.906 2.375-1.063-1.625-.969 2.812-.687-2.593-3.125 1.375-3.375 1-6.344 1.125-14.25.5-2.094-.157-1.5-1.25-1.937-.375-6.031-.5L134 30.625l-2.781-.656-1.313-1.282-3-.875-1.406-.968.563-1.625 4.343-2.063-.25-1.875-2.219-1.344-1.343-.78-1.531 1.937.218 1.468-1.219-.375-.437-2.812L122 20.5l-2.187.875-5.063-3.625-1.687-.688-1.5-1.562-1.063-2.375-1.125-.875-.094-1.531-.03-1.313-.97-1.812-.75-3.844-.187 9.531-.094 29.25.188 4.938-.25 12.718.156 1.313-.313 48.719.094 51.937h510.219l-.063-77.093-.437-64.157.062-20.875-172.843.282L389.219 0h-46.594l-60.344.188L251.97 0z" style="fill:#9faec0" transform="translate(0 125)"/><path stroke="#9FAEC0" stroke-width="10" d="m107.125 162.156.094 63.219-.094 80.563-.219 18.343H617.22l.406-63.625-.281-74.843v-23.657z" style="fill:#9faec0" transform="translate(0 100)"/><path stroke="#9FAEC0" stroke-width="10" d="m106.906 324.281-.812 69.813-.281 87.375.03 4.969h509.47l.03-11.75.563-44.313 1.406-74.969-.125-24.5.032-6.625z" style="fill:#9faec0" transform="translate(0 75)"/><path stroke="#9FAEC0" stroke-width="10" d="m105.844 486.438.312 80 2.594-.532-2.594.594-.031 21.781-1.062-1.031-2.063.563-1.156 2.312-1.531.344-2.157-.594-2.843 1.844-2.125 3.718-1 1.813-1.25.625-1.438.313-.031 1.093 1.187.469 1.625-.562 1.47 1.687-2.095 2.344-.25 1.093.282 1.22 1.343.687-.78 3.218 1.405 1.75 1.813 1.313 1.125-1.531 2.031.562-.156 1.032-1.281 1.28.843 4.688-.437 3.125-1.5 1.438-.125 1.156-1.594 1.344-1.406.593-.844 1.813-1.281.219-1.594.562-.656 3.063-2.875.625L85.53 634l2.563 1.344-1.031.468-1.688-1-1.969 1.875-.093 1.344-.938 1.375.563 1.469 2.28.906.157 1.313 1.344.281-1.063 1.875-2.125-.281-.125 2.125 1.094.593 1.563-.375 4.28.625.126.625h521.437l.282-.28 2.062-.876v-35.593l.969-77.063.094-48.312z" style="fill:#9faec0" transform="translate(0 50)"/><path stroke="#9FAEC0" stroke-width="10" d="m90.469 648.563.125.718-1.125 1.532.031 1.218 1.125 1.157 3.375.5.875 1.593 1.5 1.313.906 1.5 1.156 1.093.032 1.625-1.313 2.938.813 1.063 1 3.593-.75 2.625-1.032 1.719.5 1.125 1.563.813 1.156-.157-.344 1.313-2.656-.438.469 1.094 5.156 1.875 1.031.719 2.438.906.969 2.156 2.28 2.094-.25 1.375-1.437 2.406.844 1.313-.375 1.25-.344 1.625-1.343.625.312 1.375.313 2.031 1.187.625-2.937.406-.532 1.313.407 1.031-.282 1.063-1.562-1.97v1.5l1.094.75.28 2.063-2 1.188.813 1.125-.468 1.187-1.188.688 2.219 1.343 2.687 1.438-.156 2.5.938 2.906-1.063 2.094 1.531 1.844 2.063 3.625 1.312 1.031 1.063 1.656-.594 2-1.062.657-1.657.125.532 1.468 2.53.094-.937 3.062-.406 1.407 1.219 2.437-1.625 1.156-.438 1.938-1.53 2.312-.532 1.438-.469 4.156-1.75 2.281-2.656 1.563-6.344 1.25-2.656 1.25-1.25 1.219-.5 1.468-.031 1.25-1.282 1.72-1.937 1.124v1.281l.812 1.563-.218 1.375-1.063 1.281.438 1.188-1.282 1.625 1.47 2.593 1.593.532-.688 1.25-2.375-.032-2.093-1.093-.344 1.531-.188 3.156-1.843.938-.313 1.125.375 2-2.75 1.562-.625 2.125 1.469 2.188.25 1.343.656 1.22 2 1.905-.25 1.5-1.062 1.094-1.094.375-1.031-.312-1.532-1.157-1.937 3.188-2.063 1.594-3.906 2-2.969-.094-2.75.719-1 1.437-1.28 3.157 1 1.03 2.062-.124 1.593.969.25 1.937-1.906 1.719H466.25l.812-1.156 2.282-1.657 1.687-.906 1.656-.5 4.47-.281 3.968-.656 2.562-1 3.344-1.75 1.406-1.563 1.594-2.687.969-3.094 1.031-1.938 1.813-1.53 5.375-2.657 2-2 .781-1.531.594-2.094-.031-4.188-.75-2.437L499 771.5l-.562-1.719-.25-1.656-.032-3.062.375-6.5-.218-2.344-1.125-2.625-2.032-2.906-.281-1.75.938-4.907 3.156-4.718 2.469-1.5 2.093-.532 6.5 1.438 2.313.156 5.406-1.344 5.438-1.375 3.125-.187 2.593.281 3.125.844 2.375 1.5 1.625 2.437.75 1.75 1.375 2.157 2.407 2.468 1.656.938 2.812 1 3.063-.125 3.187-1.031 3.25-1.688 5.97-5.281 1.093-1.469 3.531-2.094 1.938-1.5 2.156-.812 2.625-1 2.625-2.063 3.875-2.25 3.531-2.906 2.625-.219 6.813 1.032 1.812-.532 3.313-1.593 4-2.375 1.218-.25 2.094.593 3.625.532 5.281 1.687 1.625-.031 1.188-.469.406-1.656-.469-2-1.25-2.688-1.187-1.812-.531-1.656-.032-1.25 1.22-2.094 3.78-2.813 2.282-2.406.937-2.187.281-1.407-.156-1.25-1.469-1.687-1.718-1.125-1.938-.75-3.344-.532-4.562-.03-2.938-.844-1.218-1.97-.407-1.75.407-1.343 2.156-3.062 1.719-1.563 1.343-1.906 1.219-.844 1.625-1.719.75-3.5-.656-2-.907-2.062-1.78-2-.563-1.469-3.063-4.562-1.093-1.22-1.844-1.5-.938-1.312-1.812-4.093.437-1.188 1.219-1.312 5.281-2.844 2.063-2.5 3.187-3.032z" style="fill:#9faec0" transform="translate(0 25)"/><path stroke="#9FAEC0" stroke-width="10" d="m66.906 810.719-.062.062-.313 2-.469 4.469-4.562 6.906-1.937 2.407-1.157.78-3.718 1.095-1.47 2.28-1.687 1.688-.687 2.5-1.157 2.875-.124 2.25.5 3.063-.157 1.531-.937 2.75-.844 1.313-1.875 1.218-2.031-.843-.844-2.782.281-1.312.813-2.438-.688-1.312-1.187-.344-1.657 1.375-1.562 5.188-1.75 1.25-2.437 2.937-1.313-.406-.469-1.157.344-1.187 1.844-3.375-1.282-1.406-1.25-.094-2.53 1.031-.626 1.157-1.062 2.875-1.563 1.156.188 1.25 1.625 1.312-.657 1.938-1.468.562-.938 1.563.188 1.594-1.188.937-1.156-.687-.344-1.938-1.781-2.281-1.125.312.875 1.22.625 2.062-.094 1.343-.843 1.813-.157 2.625.313 2.156 1.187 2.281 1.438 1.938 1.969 1.812 2.656 1.657L30.125 875l.625 1.906.469 1.97L32.5 877.5l-.156-2.094 1.5-.875 1.219 1.594-.032 1.219-1.28 1.625-1.532 2-.656 1.719-1.094.312-1.906 3.125-1.782-1.469-2.718.47-.938 2.405-.312 2.75-1.313.594-2.844-.375-3.156 1.781-.312 1.375 1 2.688 1.656.062 6.312-2.78 1.532-1.063.78 3.437-2 4.625-2.155 1.781-4.25 2.032-5.344-.157-2.281 1.407.125 2.218 1.375 1.282 1.187.062 2.938-.5.656 1.531-1.563.844-.78 1.156-.626 1.532-.25 1.437.563 2.25 1.906 5.094-.031 2.562-1.532 1.75-2.968.625.125 3.438 1.093 2.844L11.97 935l-1.063.469-1.843-.719-1.438-1.687-1.969.937-.343 1.094.812 1.5 1.094.594 4.937.875 2.438.156.406 2.5.813 2.156-.657 1.156-1.468.063-1.188-1-2.594.406H7.97l-1.281-.625-1.75-.469L2.188 940l-1.782-.031L0 941.03l.813 2.313 1.687 1.562 1.125 1.563 1.875 5.156.656 1.188 1.063 1.062 1.093.594 4.72 1.906.437 1.406-1.031 1.875-2.313.875-3.219-.375L3 958.281l-1.687 1.532.125 1.875 2.468 2.875 1.5.968 1.75-.062 2.594-1.656 1.938-.344 1.28 1.125.094 1.344 2.032-.625 2.562.5 5.125 2.875 3.219 3.75 1.219.218 1.53-.843 1.813-4.063.844-1.719 4.313-2 .656-2.218-.75-5.22-.469-1.405-.875-1.5-2.312-2.25-2.063-2.907-.531-2.062.188-2.094 1.28-2.125L32 941.063l4.406-5.938 1.469-.562 2.906.625 1.438 1.093L44 938.5l.813 2.219 1.124 1.906 2.063 2 .094 1.063 2 1.437 4.218.313 3.22-.125 1.343-.5 2.375-2.063 2.281-1.344 4-.812 2.219.531 1.531-.031 3.938-1.438 2.593-1.28 1.5.5 1.813 2.155.031 2.157.281 1.218-.562 1.282-1.719 2L78 952.156l-.063 2.313.282 1.656.5 1.344 1.53 1.5 3.188.531 3.157-.312 3.28-.97 1.095-.718 2.718-3.281 1.72-3.344.062-1.875-.688-3.625-.562-1.687-4.813-4.063-1.094-2.469-.375-1.437.032-1.188.78-1.593 3.376-3.72.437-2.187-.156-1.468 1.438-2.438 1.656-.281 1.406.687 1.031 1.188.344 1.875-.031 2.219.937 2.468 1.407 2.157 1.906 1.812 3.625 2.188 2.094.875 2.25 1.437 1.187-.656 4.813-4.313 2.562-2.03 2.656-1.657 1.844-.5 4.281-.344 2.375.594 3.844 1.437 1.906 1.782 2.625 2.312 2.532 2.281 2.468.72 2.688.78 3.375 1.813 4.656 3.375 3.344 3.625 6.687 4.656 3.25 1.219 3.97.687 2.562-.218 1.375.593 1.375 1.47 2.718 4.843.688 1.875.625 3.656.5 1.188 2.344 1.03 1.812-.062 2.25-.593 1.406-.813 1.844-1.469 2.125-2.718 1.094-3.657.812-1.718 1.344-6.344 1.063-2.813.156-2.875-.5-2.5v-1.03l.687-1.532 1.657-2.063 2.906-2.125 7.187-3.656 2.22-.594 4.312-.187 4.75-.781 3.156-2.313 2.344-2.812.812-1.47 1.875-1.812 2.875-3.312 1.438-.969 6.125-2.594 1.187.25 1.938 1.438 1.562.812.875 2.282.594 2.656 1.375 2.219v1.093l1.156 1.875.688 1.844 3.625 6.688 3.656 4.53 2.687.157 1.782-1.156 3.5-2.875 1.53-1.25 1.47.031 4.937 1.781.344 1.063v1.625l-.813 2.593-1.78 3.907-.563 1.75-.25 1.437.093 1.063 1.344 2.437 1.313.25 1.843-.281 2.313-1.125 3.875-2.594 1.469-3-.407-1.125.22-2.375-.345-5.125.375-1.531 1.75-2.281 1.063-.344 3.156.094 3.313 1.062 2.687.188 4.125-2.063.938-1.062V932.5l-.438-1.469-2.062-2.906-.906-3.375.125-4.562-.22-2.782.282-4.937-.125-2.25.594-2.594.844-1.031 1.03-.438 2.22-.312 6.218-.219 2.719-.937 2.656-2.407 1.157-2.312.343-2.125-.718-2-1.313-.875-1.844-.563-1.5-.906-.937-1.156-.469-1.375-.094-1.219.657-1.844 1.156-1.281 1.375-.625 3 .125 3.125 2.375 2.906 2.813 1.375-1.157.469-1.937.844-1.625 2.25-1.438 4.28.532 2.657-.063 1.406-.625 1.063-1.375.687-2.375-.843-1.875-2.844-1.187-4.625-.72-1.094-.687-1.156-1.906-.156-1.844.5-2.593.937-1.125 2.75-.72 1.938 1.095 5.156 5.093 3.156 1.719 2.313 1.688 3.25 5.187.125 1.875-1.407 7.719.094 3.625 1.063 4.406 1.062 2.063 1.063 1.093 2.968 1.907 2.125 1.5 1.563 1.343 1 1.282 7.719 4.03 2.218.376 4.907-1.375 2.53-.125 3.657.625 2.313 1.093 3.437 2.844 2.563 5.657 1.562 2.25 1.313 1.343 2.062-.187.594-1.094.156-1.406-.312-3.5 1.03-1.938 1.657-.843 2.188-.563 11.218-2.094 2.407-1.625 2.093-2.593.657-1.657.28-1.375.782-7.218 1.969-6.782.093-3.156-.843-8.531.187-4.219.406-2.25 1.344-3.281 2.563-4 1.656-2.063 4.906-4.312 1.531-2.563.657-2.031.218-4.906 1.625-3.313 2-1.343 3.5-.688 1.375-.812 2.125.093 1.407.563 1.281 2.062 1.031 1.25 1.875 1.156 1.156.157 11.47-6.907 1.624-1.406.844-1.844 2.25-2.875.906-1.593 2.781-8.375.063-4.563 1.25-4.812 1.562-3.532.5-2.218 2.063-3z" style="fill:#9faec0"/></svg>