<svg xmlns="http://www.w3.org/2000/svg" width="795.868" height="519.847"><path stroke="#9FAEC0" stroke-width="10" d="M9.524 0c.037.298-.155.68.03.906.114.14.356.309.532.313.11.002.221-.269.375-.219.242.078.056.28.125.344.001.002.23.105.25.125.125.123.394.27.375.5-.015.18-.254.135-.312.25.032-.063.003.532-.032.469.133.251.284.075.47.218.62.477-.231.356-.407.75-.138.308.173.274.25.5.092.266-.092.397-.125.657-.06.47.422.628.031.968-.483.42-.476-.157-.5-.156-.248.016-.11.243-.187.344-.08.105.004.163-.125.281-.055.05-.248-.105-.313-.031-.22.25.065.452-.219.718-.039.037-.534.154-.562.188-.328.402.058.515 0 .875-.108.671-.559-.263-.344.531.058.213.317.436.375.656.042.16-.115.214 0 .438.07.135.22-.108.313.031.082.122-.175.183-.157.25.02.075.104.091.125.156.05.153.198.25.22.313.153.468-.17.644.468.875.419.152.544.06 1 .094.562.042.688.127 1.031.437.252.228.396.175.406.563.008.32-.28.565-.375.844-.196.58.105.351.532.75.248.23.331.525.593.718.071.053.197-.06.282.031.133.144.043.311.093.47.135.426.373.593.625.75.008.004-.004.133.094.187.131.072.358-.012.437.031.198.106.28.292.375.531.057.141.147.104.188.282.031.136-.176.269-.094.406.233.39.362-.103.438-.094.347.041.323.357.594.469.345.142.636-.216.812-.282.079-.029-.101-.126.094-.156.006 0 .396.211.406.219.342.333.074.489.156.875.073.344.415.602.281 1-.077.23-.311.308-.343.531-.027.182.281-.047.281.094-.003.144-.282.098-.25.406.02.197.28.325.312.5.034.185-.118.849-.343.563-.175-.223-.119.569-.313.656-.253.113-.175-.23-.312-.187-.315.099-.268.325-.219.656.073.486.317.378.375.812.043.322-.07.555 0 .875.025.112.219.159.219.282.002.12-.168.153-.188.25-.026.125-.218.503-.156.625.117.233.292-.155.375 0 .11.206-.152.378-.25.53-.177.277-.115.398-.469.47-.195.039-.175-.352-.312-.125-.097.162.149.273.125.437-.04.271-.418.42-.438.594-.033.286.246.282.313.437.165.38-.108.485-.125.813-.011.224.246.492.406.625.221.186 0 .404-.031.625-.016.12-.264.1.031.343.061.05.178.088.219.125.109.098.136-.201.218.063.074.24-.158.327-.218.406-.015.02-.337-.298-.157.219.077.223.42.28.47.406.171.442-.417.286-.5.438-.174.312.402.494.03.781-.137.106-.4-.141-.5.188-.08.265.3.391.188.593-.144.26-.843.09-1 .188-.167.104-.144.379-.313.5-.109.078-.567.16-.718.187-.13.024-.212-.065-.344-.031-.056.014-.11.156-.125.156-.206.006-.32.098-.469-.125-.112-.173.057-.385 0-.437-.105-.096-.75.072-.875.093-.087.015-.119.182-.25.188-.122.005-.13-.202-.219-.219-.265-.052-.167.156-.468-.031-.262-.164-.17-.554-.563-.531-.478.029-1.027.13-1.406.375-.217.139-.383.005-.344.375.03.294.077.299.375.25.41-.067.565-.766.781-.313.161.34-.107.507-.187.782-.14.484.052.528.187.937.074.223.207.764.125 1-.014.04-.458.622-.5.625-.363.024-.026-.355-.218-.375-.086-.009-.36.334-.375.438-.026.163.114.939.25 1.03.152.104.439-.044.625-.03.34.023.354.092.593.343.322.338.623.664 1 .907.22.141.515.344.813.343.138 0 .366-.177.437-.156.24.071.247.307.282.531.07.452-.079.748.093 1.157.047.11.36.336.25.5-.095.14-.225-.121-.343-.094-.341.079-.676.333-1 .437-.05.016-.096.103-.22.125-.134.025-.248-.188-.374-.156-.148.037-.771.756-.781.875-.012.22.183.232.25.469.087.324-.189.48.093.843.082.106.256.083.344.188.127.151.094.342.188.5.048.081.479.747.5.75.279.041.267-.474.375-.562.23-.188.612-.096.875-.094.312.002.528.2.875.187.208-.008.385-.124.562-.156.358-.064.638.303 1 .531.23.145.34.138.563.438.067.09.226.342.28.406.14.164.019.245.407.25.146.002.257-.16.406-.156.19.005.275.135.407.156.35.055.448.189.312-.312-.109-.405.463-.232.656-.22.124.009.163.157.313.126.22-.045.265-.367.437-.438.144-.059.433.056.594.063.705.032 1.564-.22 2 .5.271.447-.207.964-.062 1.375.162.46.643.584.53 1.062-.08.342-.417.402-.437.782-.025.464.242.704.157 1.156-.092.48-.192 1.026.03 1.406.007-.078.4.127.313.094.067.026.27.082.313.125.32.324.17.928.093 1.281-.04.187-.083.373-.093.531-.005.134.147.252 0 .469-.134.199-.275-.134-.313.281-.01.111.2.013.219.094.036.157-.032.317-.031.469 0 .157-.01.265 0 .406.012.201.144.174.062.406-.049.138-.242.169-.28.282-.084.237-.058-.003.062.187.11.177.385.187.406.219.056.087.119.387 0 .531-.144.176-.465.07-.5.188.014-.05.387.778.344.75.256.17.33-.157.312-.157.25-.005.055-.078.25.125.284.295.073.044.063.282-.021.673.105.275.656.406-.002 0 .11.22.156.25.078.05.216-.087.281-.032.14.117.43.628.47.813.035.164-.24.096-.126.313.05.093.219-.091.219-.094.049.04.091.122.156.187.198.196.183.365.156.625-.032.315.093.394.157.532.007.013.123-.14.156-.032.059.196-.063.223-.063.344 0 .25-.152.381.063.656.144.183.561.209.406.532-.145.3-.232.747-.406 1-.182.263-.585.327-.75.53-.146.18-.109.457-.188.626-.049.107-.283.239-.343.344-.101.176-.024.352-.125.562-.023.048-.167-.007-.157-.031l-.125.312c-.003.003.133.055.063.125-.082.083-.212.065-.25.094-.056.042-.182-.083-.281-.031-.091.048.052.25 0 .281-.14.084-.3.023-.438.125-.122.091-.261.419-.281.563-.062.446.018.31.469.468.676.24.49.667.375 1.188-.125.565-.013 1.024-.313 1.531-.087.147-.235.39-.281.531-.026.081.162.183.125.313-.026.092-.232.076-.281.156-.15.243.035.351-.375.531-.166.073-.397.187-.594.156-.295-.046-.386-.277-.656-.28-.293-.004-.497.274-.688.437-.344.293-.811.552-1.062.937-.072.11-.077.34-.125.406-.198.278-.425.281-.782.313-.18.016-.357-.01-.53.031-.094.022-.07.17-.157.188-.424.084-.727-.3-1.063-.25-.223.033-.57.5-.625.719-.08.321.125.467.22.75-.264.03-1.095-.046-1.095.343-.004.497.79-.125.97-.187.608-.211.504 1.083.312 1.344-.176.237-.36.077-.407.406-.047.323.296.77.5.969.384.373 1.011.654 1.25 1 .025.036-.174.17-.093.28.089.123.28-.023.343.032.257.225.255.508.344.813.101.344.175.355.094.78-.02.112-.203.638-.25.72-.217.372-.317.538-.688.687-.62.249-1.434.136-1.625 1-.018.08.188.094.188.156-.003.052-.094.211-.094.219.024.308.032.548-.25.75-.27.193-.43-.22-.562-.062-.226.267.356.4.156.687-.16.231-.355-.094-.469.063-.106.145-.045.304.063.437h650.125c-.31-1.392-.796-2.845-1.313-4.125-.28-.62-.406-1.243-.531-1.906-.14-.74-.404-1.407-.5-2.156-.122-.964-.25-1.945-.375-2.907-.05-.37-.176-.677-.219-1.031-.043-.357.193-.615.25-.937.135-.768-.005-1.71.031-2.5.038-.839.115-1.757.063-2.594-.053-.847-.3-1.682-.375-2.531-.071-.79-.283-1.872.219-2.563.543-.749 1.735-.732 2.312-1.469.465-.595.946-1.196 1.281-1.875.251-.509.293-1.072.407-1.625.342-1.658 1.856-2.913 1.937-4.625.043-.924.46-1.318 1.125-1.843.608-.48 1.107-1.054 1.625-1.626.563-.62 1.164-1.216 1.719-1.843.664-.75 1.233-1.609 1.906-2.344.708-.774 2.396-3.753.375-3.875-1.394-.084-.562-.822-.812-1.812-.223-.887-1.008-1.688-1.407-2.5-.774-1.576-1.979-2.873-3.03-4.282-.389-.52-1.168-.852-1.688-1.25-.697-.535-1.315-1.095-2.157-1.406-1.772-.654-3.39-1.427-5.03-2.344-.656-.365-1.33-.442-2.063-.531-.895-.109-1.134-.33-1.5-1.156-.247-.558-.862-1.327-.844-1.938.016-.584.795-.751 1.031-1.218.146-.29.158-.687.281-1 .163-.412.355-.821.47-1.25.17-.636.272-1.324.093-1.97-.215-.782-.207-1.567-.375-2.343-.165-.76-.58-1.461-1.063-2.062-.99-1.235-2.442-2.473-2.906-4.032-.179-.6-.178-1.401.375-1.812.863-.641 1.085-1.7 1.375-2.688.358-1.216-.357-2.315-.187-3.562-.374.007-.751.026-1.125.031-1.787.121-3.556.044-5.344.094-2.858.083-5.705.18-8.563.25-5.462.132-10.957.377-16.437.406-5.831.105-11.68.186-17.5.406-5.315.201-10.752.34-16.063.313-.814-.008-1.635.071-2.437.062-2.832.213-5.664.08-8.5.188-3.624.108-7.325.165-10.906.187-2.827.024-5.668.1-8.5.157-1.914.02-3.835.068-5.75.093-2.393.011-4.76.138-7.157.125-1.233.093-2.484-.002-3.718.063-.883.046-1.838.095-2.72.031-4.707.134-9.425.208-14.124.25-.211.006-.445-.003-.656 0-3.038.047-6.09.204-9.125.156-5.126-.08-10.279.408-15.407.219-1.14.246-2.553.053-3.718.063-1.278.01-2.538.015-3.813.03-2.641.035-5.296.128-7.937.095-3.143.057-6.293.14-9.438.125-.299.004-.607-.002-.906 0-5.766.046-11.862.139-17.281.187-4.98.044-9.787.143-14.907.125-5.734-.02-11.482.047-17.218.094-1.475.008-2.932.031-4.407.031-4.84.005-9.693.063-14.531.063-1.287.012-2.557 0-3.844 0q-.984-.002-1.968 0c-.397-.001-.791.033-1.188.03-1.43-.008-2.882-.001-4.312 0h-.5c-2.36-.02-4.704.024-7.063 0-1.778.003-3.567-.017-5.344 0-1.317-.038-2.62-.017-3.937-.03-4.638-.047-9.268.007-13.906 0-6.49-.01-12.981-.135-19.47-.063-7.18.079-14.384-.083-21.562-.125-6.038-.036-12.055-.058-18.062-.156-5.782-.094-11.593-.084-17.375-.157-5.41-.067-10.855-.125-16.219-.187-6.017-.069-12.013-.207-18.031-.25-5.655-.063-11.191-.155-16.875-.25-5.678-.095-11.354-.252-17.031-.281-3.197-.046-6.446.082-9.657-.157-.775-.051-1.567-.03-2.343-.03-5.441.002-10.903-.2-16.344-.313-4.431-.093-8.765-.184-13.219-.25-5.77-.085-11.487-.103-17.25-.25-2.609-.067-5.237-.105-7.844-.157-1.47-.029-2.936-.033-4.406-.062-1.178-.023-2.358-.225-3.531-.156-.551 0-1.105-.026-1.656-.032-.27-.003-.844-.088-1.125.032-.41.175-1.251-.032-1.72-.063-.601-.039-1.238.006-1.843 0-1.49-.015-2.944-.06-4.437-.093-2.98-.068-5.99-.138-8.97-.22-5.145-.138-10.29-.263-15.437-.405-5.256-.145-10.488-.498-15.75-.47-.093-.002-.188.002-.281 0-1.588-.024-3.194-.091-4.781-.124-1.608-.043-3.205-.13-4.813-.156-3.109-.108-6.235-.16-9.343-.282-2.951-.073-5.917-.178-8.875-.281-4.31-.149-8.597-.292-12.907-.406-4.91-.13-9.84-.414-14.75-.5-5.207-.092-10.413-.38-15.625-.563C19.688.353 14.606.17 9.523 0z" style="fill:#9faec0" transform="translate(0 125)"/><path stroke="#9FAEC0" stroke-width="10" d="M15.93 86.625c.127.158.319.284.375.375.205.337.036.402.437.594.238.114.57.054.75.125.305.119.463.406.532.781.054.289-.066.625.03.906.04.116.313.37.313.438.017.365-.117.077-.343.25-.223.172-.363.327-.594.5-.321.242-.287-.007-.25.562.02.321.043.316-.094.625-.157.357-.028.178-.406.344-.062.027-.147-.051-.25 0-.001 0-.094.224-.125.25-.27.228-.761.463-.531.875.12.215.637.497.312.844-.43.46-.481-.926-1.281-.344-.344.25-.836.818-.906 1.25-.043.237.466.344-.032.531-.386.145-.954-.777-.875.313.032.433.391.352.47.656.057.23-.35.618-.313.875.018.132.25.124.25.156.013.114-.118.304-.094.406.037.16.356.509.156.626-.237.138-.595-.16-.719.062-.028.05.349.723.407.75.166.078.362-.1.593-.031.251.074.67.343.72.594.021.11-.293.123-.188.406.095.258.543.165.531.437-.01.218-.325.172-.469.188-.415.047-.659.071-1 .156-.083.021-.242-.185-.344-.031-.119.18.157.195.157.281.002.077.13.068.093.219-.035.152-.484.302-.593.344-.344.132.285.51.375.625.335.424.154.225-.094.5-.33.365-1.11.545-1.156 1.125-.03.354.32.342.375.687.109.68-.316.276-.407.375-.152.165-.168.112.032.406.059.086.23-.066.28.031.049.105-.025.169 0 .25.075.233-.272.548.22.407.145-.041.177-.533.343-.25.183.312-.285 1.533-.656 1.562-.204.016-.211-.531-.437-.156-.113.187.26.349.03.469-.272.143-.5-.479-.687-.344-.087.063.056.656.094.781.05.161.092.317.219.438.083.079.43.15.469.219.072.128-.186.69-.344.78-.663.384-.586-.823-1.125-.53-.193.103-.22.518-.25.687-.02.104-.073.43-.063.531.004.058.178.367.188.344-.088.246-.24.261-.406.156a98 98 0 0 0-.532-.906c-.048-.225.267-.416.188-.562-.001-.004-.759-.046-.719-.063-.165.069-.16.375-.437.438-.51.116-.114-.258-.125-.282-.051-.107-.01-.415-.344-.187-.071.048-.14.584-.125.687.012.082.293.42.344.563.108.3.294.479-.063.75-.21.159-.533.024-.719.219-.303.316.125.461.125.687-.003.261-.15.248-.343.344-.124.06-.178-.16-.282-.094-.13.084-.024.356-.156.438-.267.164-.501-.245-.687.125-.005.01.03.776.03.78.12.18.489-.094.595.313.077.291-.312.717-.375.969-.05.197.194.52-.157.719-.456.259-.25-.342-.468-.344-.545-.006.36.98.343 1.063-.142.695-1.241-.205-1.218.468.009.265.467.244.25.594-.105.17-.048.551-.22.625-.145.062-.398-.165-.562-.156-.07.004.061.25-.156.219-.116-.017-.246-.57-.375-.25-.192.476-.074.174-.25.093-.079-.037.011-.517-.469-.125-.188.153-.229.463-.281.688-.056.242-.03.432-.219.594-.305.26-.354-.159-.5.343-.029.103.209.275.094.406-.121.139-.252-.101-.313-.062-.058.037-.278.327-.343.344-.14.035-.059-.281-.313-.25-.547.068-.181.393-.062.5-.051-.047.697-.036.343.437-.178.237-.425-.21-.593.031-.123.177.451.63.562.782.163.222.293.752.438.906.509.54.255-.896.875-.406.089.07.159.492.125.593-.074.218-.499.147-.657.22-.193.086-.17.224-.312.312-.191.117-.28-.09-.406.093-.076.11.084.283.062.344.001-.004-.166.283-.156.219-.008.065-.135.157-.125.281.007.106.281.098.281.125-.075.485-1.044-.017-.594.781.167.296.771.763.125.688-.188-.022-.54-.572-.75-.313-.117.144.233.605.344.688.425.318.91.26.438.844-.302.372-.457.66.187.5.271-.068.6-.263.781 0-.072-.105-.04.714-.03.687-.048.207-.48.372-.47.531.004.065.36.215.407.344.207.58-.518.897-.688 1.25-.127.261-.008.601.313.625.426.032.063-.118.219-.312.192-.238.098-.295.343.062.163.237.167.557.313.781.04.063-.027.181.062.25.091.071.235-.13.282-.093.036.028.219.323.156.312.427.072.793-1.145 1.312-.437.136.185.093.546-.156.593-.361.07-.33-.236-.656.094-.312.316.11.375.312.406.481.075.29-.122.5-.28.022-.017.468-.296.407-.282.206-.047.057-.165.28.062.05.052.066.309.157.407.044.047.396.168.406.187.097.285-.266.136-.281.406-.014.257.448.141.313.47-.087.21-.488.042-.532.062-.689.302.536.588.813.156.169-.262-.271-.46.25-.469.282-.005.308.27.375.438.1.248-.116.711-.031.843.089.14.672.111.812.094 1.294-.157.032.627.094.813.097.293 1.357-.568.656.5-.1.152-.687.407-.687.437-.032.18.609.336.75.281.529-.205.416-1.528.812-.437.126.346.293.44.531.687.224.233.315.51.532.75.34.377-.215.136-.375.313-.06.065-.078.79-.032.844.382.444 1.402-.683 1.938-.5.555.19.799 1.153.75 1.656-.09.923-.02 1.142.875 1.594.396.2.427.212.5.687.064.417-.058.388.187.594-.03-.026.3.066.344.094.11.07.217.278.313.375.316.322.352.535.28.968-.071.436-.24 1.115-.687 1.313-.419.186-.84-.309-1.187.031-.24.236-.14.913.031 1.156.383.543.7.025.969-.375.326-.486.447-.785 1.062-.375.57.38.824 1.163 1.032 1.782.175.517.506 1.309.468 1.875-.018.269-.29.525-.093.78.195.256 1.076-.048 1.125.407.03.276-.536.494-.594.813-.057.313.073.44.281.625.273.24.952.197.938.625-.007.23-.237.426-.375.593-.425.513-.856 1.019-1.282 1.532-.78.939 1.578.753 1.875.78.645.062.743.122.72.75-.012.344.041.793 0 1.095a32 32 0 0 0-.188 1.625c-.047.546-.302.906-.22 1.468.106.706-1.16.832-1.593 1.157-.758.57.302 1.547.938 1.593.736.054.69-.05 1.062.813.182.422-.018.597-.219 1.031-.162.35-.308.832-.187 1.219.107.342.387.591.781.437.163-.064.074-.276.219-.312.184-.045.487.168.687.156.256-.015.491-.254.75-.281.294-.031.48.123.75.219.853.3 1.889.338 2.813.437.969.104 3.276.187 3.937 1 1.046 1.284 1.727 2.934 1.75 4.625h704.594c-1.62-.872-3.156-1.89-4.375-3.281-.397-.452-.918-1.895-.469-2.469a14.4 14.4 0 0 0 1.5-2.344c.322-.619.713-1.138.657-1.843-.068-.852-.533-1.722-.75-2.563-.135-.524-.15-1.281-.438-1.75-.24-.391-.74-.727-1.094-1.031-.288-.248-.479-.931-.656-1.281-.354-.701-.148-1.438-.719-2.032-1.017-1.057-2.536-2.03-2.906-3.562-.242-1-.38-1.973-.719-2.969-.29-.848-.915-1.512-1.125-2.375-.48-1.974-2.325-2.574-4.156-3-.91-.212-1.853-.433-2.781-.531-.663-.07-1.433-.526-2.125-.656-1.543-.29-3.105-.522-4.656-.813-1.76-.331-3.694-.496-5.375-1.125-1.634-.612-3.412-.711-5.032-1.375-.583-.239-1.085-.567-1.593-.937-.892-.65-1.52-.717-2.532-.438-1.72.475-2.866-.538-4.25-1.344-.792-.46-1.51-.251-2.093-1.093-.485-.698-.875-1.437-1.532-2-.553-.476-1.515-1.253-2.25-1.188-.34.03-.417.146-.75.031-.297-.103-.619-.383-.875-.562-.418-.292-.637-.482-.75-1-.089-.405-.043-.793-.406-1.094a1.36 1.36 0 0 0-.812-.344c-.436-.04-.463.157-.782.25-1.005.293-.854-.606-1-1.219-.057-.239-.187-.436-.343-.625-.104-.127-.378-.18-.25-.218-.142-.15-.437-.004-.625-.157-.235-.189-.112-.624-.125-.875-.013-.27.38-.14.53-.375.294-.454-.049-.632-.312-.906-.219-.228-.61-.567-.75-.844-.12-.239-.063-.587-.156-.843-.123-.337-.028-.77-.094-1.125-.04-.22-.156-.433-.156-.657 0-.544-.32-1.13-.469-1.656-.209-.74-.297-1.528-.437-2.281-.133-.72-.223-1.648-.156-2.375.039-.426.07-.897-.438-1.031-.438-.116-.765.253-1.187 0-.496-.297-.293-1.146-.22-1.625.086-.547.366-1.34.188-1.875-.163-.49-.588-.885-.75-1.407-.48-1.546.376-3.414-1.187-4.468-.496-.334-.749-.897-1.188-1.25-.379-.304-.805-.499-1.25-.688-.459-.195-.942-.482-1.406-.656-.213-.08-.431-.11-.656-.156-.301-.062-.406-.686-.438-.938-.092-.72.25-1.35.22-2.062-.03-.707-.282-1.441-.532-2.094-.344-.9-.279-1.51-.063-2.438.177-.763.377-1.492.063-2.25-.31-.747-.934-1.38-1.188-2.125-.212-.622-.046-1.277-.156-1.906a19 19 0 0 0-.156-.812z" style="fill:#9faec0" transform="translate(0 100)"/><path stroke="#9FAEC0" stroke-width="10" d="M29.992 173.281c.004.278.003.566-.03.844-.23 1.897-1.113 3.38-2.5 4.688-1.359 1.279-2.81 3.184-1.938 5.187.265.608.536 1.331.562 2 .03.763-.509 1.59-.875 2.25-.786 1.419-.473 3.455.75 4.594.72.67 1.534 1.18 2.375 1.687.83.501 1.32 1.342 1.813 2.156.893 1.477-.133 3.33.656 4.844.318.61.664 1.2 1.219 1.625.603.462 1.316.867 1.843 1.406 1.237 1.264 1.446 2.651 1.188 4.313-.046.296-.209.251.031.531.181.211.291.433.5.625.234.214.231.7 0 .906-.543.487-.837 1.314-1.437 1.75-.664.482-2.002.033-2.688.563-.516.399-.361.992-.062 1.469.716 1.14 1.458 2.058 1.062 3.5-.216.788-.474 1.342-.344 2.187.117.76.456 1.504.938 2.094.55.674 1.406.87 2.031 1.438.493.448.789.987.969 1.625.26.92.629 1.625 1.5 2.093.61.328 1.278.356 1.937.531 2.43.646 2.957 3.731 1.938 5.75-.56 1.11-1.147 2.085-1.25 3.375-.11 1.386.135 3.091.844 4.313.312.536.751.804 1.312 1.031.486.196.574.045 1-.156.857-.405 1.903-.204 2.656.344.975.709 1.424 1.835.625 2.875-.776 1.009-1.938 1.143-2.187 2.531-.167.934.656 1.916 1.656 1.906 1.078-.01 1.096-1.577 1.813-2.062.854-.58 2.042-.32 2.906.062.569.251.647.304.719.844.067.508.064.869-.188 1.344-.28.529-.59.87-.719 1.469-.21.972.646 1.463 1.5 1.593.5.076.77-.358 1.22-.469a7 7 0 0 1 .843-.156c.642-.08 1.28.088 1.906.219 1.011.211 2.137.748 2.094 1.906-.031.833-.499 2.009-.969 2.688-.58.836-1.342 1.218-.937 2.344h738.625a17 17 0 0 1 .063-2.031c.025-.272-.36-.647-.5-.876-.559-.91-1.299-1.269-1.25-2.469.04-1.01.31-1.895.78-2.78.224-.423.342-.897.625-1.282.204-.277.715-.611.688-1-.04-.585-.09-1.02.156-1.562.258-.57.422-.812.406-1.438-.018-.707-.03-1.35-.28-2.031-.27-.731-.758-1.193-.938-1.969-.168-.727-.398-1.148-.844-1.719-.395-.507-1.021-.713-1.156-1.344-.152-.712-.365-1.64-.344-2.343.022-.7.057-1.25-.156-1.938-.421-1.364.406-2.386.406-3.719 0-1.234.214-2.459-.063-3.687-.136-.599-.541-1.213-.968-1.656-.458-.475-1.701-.076-2.344-.156-2.17-.27-1.987-2.429-2.594-4.032-.325-.858-1.48-1.135-2.187-1.562a46 46 0 0 0-2.5-1.406c-.816-.426-1.866-.502-2.782-.657-.985-.167-1.937-.765-2.75-1.312-.74-.5-1.451-.981-2.312-1.25-.925-.287-1.422-.615-2.156-1.25-.847-.733-1.913-.651-2.97-.781-1.06-.131-1.54-.7-2.437-1.188-.788-.429-1.43-.92-2.093-1.531-.332-.307-.769-.498-1.032-.875-.223-.32-.207-.717-.406-1.031-.524-.824-1.082-1.504-1.75-2.22-.408-.436-.946-.687-1.25-1.218-.369-.641-.402-1.364-.687-2.031-.24-.558-.76-1.222-.813-1.813a3.6 3.6 0 0 1 .531-2.187c.361-.592.387-1.438.563-2.125.093-.367.189-.57.125-.938-.063-.364-.35-.666-.219-1.062.117-.355.52-.505.563-.906.043-.405-.231-.835-.5-1.125-.552-.595-1.208-.926-1.625-1.657-.426-.746-.899-1.448-1.282-2.219-.233-.469-.522-.673-1-.843-.469-.167-.693-.573-1.03-.906-.587-.578-.853-1.02-1.22-1.75a3.74 3.74 0 0 0-1.25-1.438c-.28-.185-.637-.024-.937-.062-.26-.033-.545-.29-.719-.47-.463-.476-.753-.992-1.312-1.374-.63-.431-1.415-.817-2.125-1.094-.838-.327-1.646-.7-2.47-1.062-.68-.3-1.634-.443-2.155-1-.537-.574-.318-1.395-.5-2.094-.19-.73-.647-1.444-1.282-1.844-.415-.262-.905-.348-1.375-.469-.455-.118-.877-.358-1.312-.531-.893-.356-1.762-.53-2.625-.969a36 36 0 0 1-.719-.375z" style="fill:#9faec0" transform="translate(0 75)"/><path stroke="#9FAEC0" stroke-width="10" d="M56.274 259.938c.014.04.013.081.03.125.432 1.034 1.208 1.972.407 3.062-.685.934-2.16.445-2.75 1.531-.508.938.173 1.746.75 2.438.714.857.76 1.406.813 2.469.079 1.606 1.288 2.538 2.53 3.312.978.562 1.781 1.21 2.032 2.375.051.2.063.418.063.625.01.206-.023.4-.094.594-.92 2.19.381 3.961 2.562 4.437.263.073.527.15.782.25 1.103.561 2.064 1.955 1.75 3.219-.312.714-1.067 1.14-1.407 1.875-.137.101-.193.218-.125.375-.529.18-.219 2.156-.375 2.656-.414 1.328-1.324 1.382-2.375 1.875-1.1.516-1.443 2.332-.78 3.313.487.722 1.614.888 2.312 1.375 1.21.875 2.205 2.9.312 3.687-.063.03-.12.044-.187.063a2.1 2.1 0 0 1-.75.125c-.05-.004-.107-.03-.157-.031-.086-.014-.165-.017-.25-.032-.029-.01-.063-.027-.093-.03a6 6 0 0 0-.657-.188c-.085-.024-.196-.043-.28-.063-.08-.023-.16-.024-.25-.031-1.542-.168-2.723 1.18-2.563 2.687.098.926.438 1.418 1.03 2.188.629.814 1.633 1.142 1.97 2.187.322.996.144 1.775-.157 2.75-.266.861-1.122 1.373-1.687 2-1.39 1.545-1.078 3.258-.094 4.938.823 1.404 3.05 1.27 3.406 2.969.218 1.036-.115 1.734-.812 2.5-.645.708-.75 1.43-1.094 2.28-.047.85.05 1.529.313 2.345.2.622.769 1.806 1.5 1.843.988.05 1.048 1.114 1.75 1.47.69.35.944 1.249 1.687 1.562.753.318 1.595.494 2.063-.282.32-.534.055-1.69.468-1.906.532-.276.636-2.113.72-2.656.16-1.064 1.29-1.27 2.155-.969 1.138.395 1.275 1.058 1.532 2.156.206.88.646 2.03.468 2.938-.194.988-.795 1.68-1.562 2.281-.476.373-.957.76-1.438 1.125-.344.262-.417.126-.437.625-.03.75.49 1.53.937 2.094.816 1.03 1.723.687 2.844.875 1.362.227 2.055 1.45 3.438 1.5.708.027 1.28-.485 1.968-.5.625-.013 1.264.327 1.75.687.921.682 1.377 1.547 1.25 2.688-.12 1.08-1.325 1.466-1.656 2.437-.28.826.11 1.622.25 2.438H687.43c.185-.223.42-.434.719-.625.52-.333 1.145-.66 1.75-.75.697-.105 1.466-.1 2.125-.375.917-.384 1.833-1.23 2.812-1.406 1.005-.18 1.28.382 2.125.625.73.21 1.352.77 2.094.906.448.08.898.046 1.344.156.512.125.933.289 1.437.094.475-.183.823-.555 1.281-.781.556-.274 1.13-.402 1.688-.657.925-.423 1.86-1.159 2.656-1.78 1.695-1.323 3.175-2.68 5.469-2.657 1.068.009 2.083.098 3.156.062 1.186-.04 2.336.153 3.5.282 1.225.135 2.452.22 3.688.28 1.49.072 2.858-.394 4.312-.624 1.511-.24 2.997-.574 4.406-1.188 1.324-.577 3.054-.048 4.094-1.28 1.044-1.239 2.022-2.19 3.375-3.063 1.107-.714 1.971-1.7 2.156-3 .115-.803.406-1.234 1.094-1.72.374-.263.814-.43 1.25-.562.701-.212 1.551-.188 2.156-.625.076-.075.167-.14.25-.218.66-.623.981-.842 1.844-1.032.655-.145 1.126-.183 1.781-.062 1.41.262 2.665.97 4.125 1.031 1.052.044 2.234-.115 3.25-.375 1.565-.4 2.594-1.514 3.563-2.75.36-.46.55-1.042.906-1.5.446-.574.706-.832 1.313-1.219.818-.522.942-1.487 1.562-2.187.47-.531 1.526-1.21 2.188-1.469.673-.26 1.34-.54 2.031-.75.59-.178 1.241-.27 1.812-.5.54-.216 1.026-.588 1.532-.875h.156c.774-.446 1.15-.617 1.281-1.5a5.8 5.8 0 0 0 .063-1.687c-.144-1.334-.318-2.664-.407-4-.108-1.611-.426-2.958.032-4.532.337-1.157.428-2.237.53-3.437.116-1.328 1.04-1.49 1.813-2.406.773-.914.942-2.017.688-3.188-.131-.606-.55-1.115-.625-1.75-.056-.475.065-1.093.094-1.5.098-1.375.644-2.409 1.5-3.469.526-.65 1.19-1.232 1.78-1.812.34-.333.55-.703.907-1 .447-.37 1.002-.648 1.563-.844.678-.237 1.153-.822 1.75-1.219 1.27-.846 2.448-1.838 3.718-2.687 1.138-.76 2.491-1.061 3.72-1.625.675-.31 1.266-.757 1.312-1.531.046-.79-.22-1.583-.22-2.375 0-.594-.326-1.065-.312-1.688.007-.377.1-.886.188-1.25.15-.624.55-1.208.781-1.812.253-.663.087-1.12.156-1.782.082-.775.245-1.748.563-2.437.636-1.377 1.381-3.042 1.562-4.563.075-.628.048-1.302.032-1.968z" style="fill:#9faec0" transform="translate(0 50)"/><path stroke="#9FAEC0" stroke-width="10" d="M80.086 346.594q.059.34.031.687c-.105 1.322-1.206 2.244-1.125 3.594.072 1.193 1.114 2.082 1.032 3.281-.073 1.067-.881 2.153-2 2.281-1.23.14-1.985 1.087-1.5 2.313.443 1.119 1.47 2.049 2.406 2.75.997.747 1.933 1.283 3.219 1.125.982-.121 1.76-.222 2.656.281 1.627.912 2.49 3.111 1.781 4.906-.465.975-1.537 1.52-2.5 1.907-.355.128-.958.538-1.312.5-.39-.042-.935-.67-1.188-.875.235-.296.507-.598.719-.906.069-.182.126-.37.156-.563 0-.275.236-.611.094-.781.163-.037.082-.092.125-.25l.031-.375a.87.87 0 0 0-.188-.656 11 11 0 0 1-.437-.032h-.031c-.552-.049-1.068-.118-1.594.063-.631.216-.687.402-.844.969-.242.648-.253 1.773.125 2.312.282.402 1.104 1.311 1.625 1.375-.943.427-1.138 1.137-1 2.125.005.051.022.103.031.156.222.884.533 1.668.938 2.469.298.818.285 1.531.156 2.375-.136.888-.898 1.435-1.406 2.094-.694.686-.868 1.93-.75 2.844.101.777.466 1.395.937 2 .42.54 1.407.484 2 .468 2.187-.058 4.46-1.118 6.532.063.776.442 1.37 1.428 1.062 2.344-.604 1.803-2.339.253-3.469.468-1.199.227-1.584 1.721-1.75 2.719-.148.885.293 1.834.688 2.594.495.954 1.154 1.748 1.25 2.875.069.8-.219 1.546-.063 2.344.114.578.29 1.175.375 1.75.34 1.378-.518 2.45-1.437 3.343-.79.757-1.606 2.115-.969 3.157.167.274.556.497.75.78.251.367.512.618.844.907 1.112.966 1.35 2.408.562 3.688-.638 1.039-1.294 2.089-.718 3.312.684 1.453 2.243 1.529 3.343 2.469 1.573 1.345 1.656 3.04.72 4.812-.899 1.7-1.035 3.277-.75 5.157.317 2.102 2.37 3 3.25 4.812.1.21.15.42.187.625h600.53c.295-.649.592-1.285 1.094-1.812.743-.781 1.351-1.144 2.312-1.594.472-.221.826-.582 1.281-.813.368-.187.953-.373 1.25-.656.84-.8.786-1.7.938-2.781.123-.868.597-1.656.812-2.5.528-2.065-1.39-3.98-.375-5.938.501-.966.667-1.896.938-2.937.265-1.015.053-2.03.187-3.063.125-.976.306-1.936.094-2.906-.099-.452-.028-.941-.125-1.375-.104-.469-.281-.932-.312-1.406-.036-.543-.04-.882-.22-1.406-.125-.37-.254-.703-.28-1.094-.05-.715.041-1.469.062-2.188.024-.825.326-1.43-.094-2.187-.334-.604-.696-1.166-1.062-1.75-.346-.552-1.021-1.06-1.25-1.656-.256-.66-.467-1.337-.844-1.938-.44-.701-.95-1.334-1.344-2.062-.327-.604-.531-1.305-.968-1.844-.778-.96-1.84-1.793-3.125-1.438-.685.19-1.378.489-2.094.313-.323-.081-.645-.18-.969-.25-.468-.102-.6-.568-.812-.969a59 59 0 0 0-2.532-4.281 14.7 14.7 0 0 0-1.625-2.094c-.636-.68-1.522-1.218-2.062-1.969a9.7 9.7 0 0 0-1.656-1.812c-.558-.468-.905-.74-1-1.5-.217-1.737 1.178-2.858 1.687-4.438.296-.917.491-1.884.844-2.781.363-.923.885-1.522 1.531-2.25 1.062-1.2.75-3.44.75-4.937 0-1.316.077-2.633.281-3.938.121-.773.093-1.703.375-2.437.235-.608.646-1.208 1-1.75.41-.628.66-.998.688-1.75.026-.663-.01-1.336.062-2 .11-.993.226-1.802.782-2.47z" style="fill:#9faec0" transform="translate(0 25)"/><path stroke="#9FAEC0" stroke-width="10" d="M92.68 433.25c.286 1.609-1.29 3.023-2.75 3.375-.911.22-1.676.389-2.094 1.344-.305.698-.228 1.432.063 2.125.634 1.51 1.45 2.876.75 4.531-.285.676-.738 1.245-.813 2-.075.759.135 1.53.438 2.219.746 1.69 1.287 3.068-.157 4.531-1.2 1.215-2.966 1.332-4.218 2.438-1.458 1.288-2.154 3.135-1.72 5.03.1.435.183 1.019.47 1.376.3.375.81.52 1.187.75.596.359 1.3.537 1.844 1 1.315 1.12 1.16 2.536 1.437 4.031.24 1.291 1.687 2.148 2.782 2.719 1.42.74 3.064.239 4.312 1.5 1.023 1.033 2.229 2.522 2.219 4.062-.003.665-.126 1.582.094 2.188.319.878 1.343 1.198 1.937 1.844.597.65.743 1.45.375 2.28-.408.923-1.296 1.286-2.031 1.907 4.519.137 9.04.409 13.562.5 5.536.112 11.096.509 16.625.75 2.375.032 4.754.187 7.125.281 3.937.156 7.91.212 11.844.438 3.327.19 6.637.26 9.969.375 3.607.124 7.282.375 10.875.375 5.75 0 11.506.449 17.25.625 3.72.113 7.435.336 11.156.406 3.655.07 7.354.11 11 .344.367.004.728.017 1.094.031 5.084.185 10.139.304 15.219.5 1.265.075 2.544.066 3.812.125 2.985.073 5.955.2 8.938.281 5.585.153 11.164.353 16.75.375 5.366.021 10.638-.01 16.03.094 3.178-.056 6.341.045 9.532.062 6.468.034 12.948.059 19.438.032 7.038-.03 14.057-.016 21.093-.125 4.51-.071 9.02-.151 13.532-.22 5.479-.082 10.962-.304 16.437-.218.29.008.585.005.875 0 .85.005 1.682-.016 2.531.031.713-.06 1.465-.011 2.188-.03 1.756-.05 3.524-.06 5.281-.063.901-.022 1.819.01 2.719-.032 2.748-.043 5.47-.135 8.219-.187.992-.046 2.006-.037 3-.063.236-.007.45-.022.687-.03.058-.004.13-.004.188 0h.03c1.949.074 3.925-.063 5.876-.063 3.654 0 7.315.126 10.969.093 2.428-.023 4.926-.208 7.343-.062.047.004.078 0 .125 0a.84.84 0 0 0 .375-.031c.011.01.018-.005.031 0 .007.003.022 0 .032 0v.03q.015-.002.03 0c.258-.005.525 0 .782 0 .105-.002.209-.028.313-.03.144.003.293.006.437 0 .132.002.273.005.406 0 .217-.004.439.005.657 0h.187c.031-.011.043-.01.063 0 .02 0 .041.003.062 0 .019-.006.043-.031.063-.031 1.176.024 2.36-.035 3.53-.032.294 0 .615-.004.907 0 .042.003.084.006.125 0 .1-.005.181-.002.281 0 .16.003.31.006.469 0a39 39 0 0 0 .813 0h.062c.046.006.08.008.125 0 .126 0 .28-.004.406 0h.281c.03-.002.064.001.094 0v-.03c.284.007.588.03.875.03.164 0 .336-.029.5-.03.206 0 .388.004.594 0h.219c.106-.004.237-.002.343 0h.25c.154-.002.315.002.47 0h.062c.077-.005.173-.002.25 0 .07.002.146.002.218 0 1.105-.022 2.209-.077 3.313-.095 1.805-.029 3.633-.056 5.437-.125l1.438-.03c.833-.023 1.67-.013 2.5-.063.414-.005.836-.02 1.25-.032.638-.013 1.27-.028 1.906-.062q.812-.038 1.625-.063c.08-.002.17.003.25 0a47 47 0 0 1 2.063-.125c2.81-.122 5.624-.313 8.437-.343 2.051-.056 4.103-.183 6.156-.219 5.22-.169 10.401-.249 15.625-.344h.5c.036.01.063.031.063 0 1.146-.007 2.622.137 3.687-.093 2.97 0 5.938-.07 8.907-.125 5.593-.127 11.194-.201 16.78-.5a882 882 0 0 1 9.188-.438c1.612-.07 3.233-.14 4.844-.219 1.257-.062 2.623-.328 3.875-.187.013-.002.018.002.031 0 1.398-.046 2.795-.101 4.188-.125 5.465-.122 10.918-.485 16.375-.656h.062c1.014-.035 2.018-.09 3.032-.125.977-.031 1.964-.028 2.937-.094h.031c.091-.004.19-.03.282-.031.066-.005.121 0 .187 0 1.634-.077 3.313-.013 4.938-.188.91-.029 1.806-.079 2.718-.094.415-.007.841-.04 1.25-.062 2.964-.106 5.911-.258 8.875-.344 1.748-.12 3.483-.08 5.22-.219.551.03 1.13-.048 1.687-.093.694.078 1.46-.077 2.156-.125 3.82-.017 7.682-.359 11.5-.532 6.774-.308 13.573-.791 20.312-1.343 1.566-.128 3.176-.208 4.75-.313 1.055-.07 2.103-.139 3.157-.219.3-.024.892-.221 1.062.063l1.031 1.687c.843 1.411 2.498 1.818 3.72 2.782.757.599.887 1.061.562 1.937-.26.696-.697 1.472-.375 2.219.539 1.249 2.23 1.401 3.375 1.531 1.346.152 2.67.501 4 .75.493.092 1.367.233 1.625.75.33.66.345 1.692.156 2.406-.463 1.747-.508 2.948 1.156 4.032.494.322 1.039.493 1.563.75.897.44 1.3 1.045 1.656 1.968.3.781.35 1.705.875 2.375.412.527.797.89 1.406 1.188 1.31.64 2.747.664 4.156.5.486-.057 1.056-.196 1.375.25.34.474.255 1.273-.093 1.687-.417.495-1.31.909-.875 1.688.407.732 1.468.181 1.75.625.21.331-.294 1.114-.438 1.375-.38.693-.807 1.347-.281 2.125.378.558 1.004.415 1.562.562.557.15.758.636 1.25.813.541.194 1.092.209 1.563-.156.472-.367.387.295.312.625-.104.46-.36.812-.218 1.281.1.331.357.589.53.875.149.242.28.657.563.781.454.2 1.342-.204 1.75-.375.494-.207.963-.413.532.406-.488.93.208.991 1 .97.932-.027 1.047-.878 1.593-1.5.384-.44.523-.232 1.063-.126.824.24 1.458.436 2.031 1.063 1.017-1.35 3.105-.522 4.469-1.532.577-.427.946-.713 1.125-1.406.218-.848.218-1.595.187-2.469-.07-1.887-1.38-3.493-1.312-5.406.069-1.94 1.064-3.472 1.594-5.281.58-1.978.583-3.736-.032-5.688-.29-.923-1.041-1.72-1.562-2.53-.3-.468-.55-.918-1-1.25-.361-.266-.866-.288-1.281-.47-1.028-.448-1.347-1.238-1.282-2.343.071-1.178.82-1.831 1.625-2.594.643-.609 1.456-1.166 1.844-1.969q.704-1.453 1.469-2.875c.946-1.762 2.037-2.676 3.781-3.625 1.741-.947 3.306-1.847 5.219-2.344.945-.245 1.85-.613 2.812-.78.743-.13 1.213-.543 1.907-.782.879-.303 1.868-.185 2.78-.188.938-.002 1.871-.183 2.813-.03 1 .161 2.045.377 3.032 0 .94-.36 1.894-1.294 2.718-1.876 1.652-1.169 3.407-2.156 4.907-3.531.714-.656.668-1.548.843-2.469.205-1.075.646-2.021.75-3.093.085-.88-.115-2.143-.468-2.938-.403-.912-.035-1.96.125-2.906.165-.974.252-1.86.812-2.688.545-.806.994-1.708 1.219-2.656.442-1.865.537-3.162-.188-4.969-.652-1.627-.041-3.55 1.188-4.718.768-.73 1.44-1.535 2.156-2.313.351-.382.864-.564 1.188-.969.272-.34.465-.812.625-1.218.374-.945.606-1.874 1.187-2.72.483-.702 1.209-.902 1.813-1.437.607-.539.927-1.26 1.25-1.968z" style="fill:#9faec0"/></svg>