<svg xmlns="http://www.w3.org/2000/svg" width="830.375" height="446.25"><path stroke="#9FAEC0" stroke-width="10" d="m26.563 0-4.344 69h759.219l9.375-8.156V41.78L782 35.938l-14.625-1.5-19.781-17.594h-38.875l-282.844-2.907-259.344-8.78zm-4.344 69-4.75 75.469H822.28l-.718-6-16.094-11.719-16.157-19.062-13.218-21.97 2.968-14.656L781.438 69z" style="fill:#9faec0"/><path stroke="#9FAEC0" stroke-width="10" d="m17.469 144.469-4.75 75.469H830.25l.125-6.72-8.094-68.75zm-4.75 75.469-4.75 75.468h820.844l1.437-75.468zm-4.75 75.468-4.75 75.438h824.156l1.438-75.438zm-4.75 75.438L0 422.094l154.781 8.031 288.688 13.156 297.5 2.969L826 441.906l1.375-71.062z" style="fill:#9faec0"/></svg>