<svg xmlns="http://www.w3.org/2000/svg" width="6769.5" height="2915.688"><path stroke="#9FAEC0" stroke-width="10" d="m4296.688 0-4.5 1.188-1.282.5-6.5 4.906-6.312 9.5-4.406 6.718-3.594 5.375-3.906 3.5-2.376 2-.906.626-15.718 7.374-13.782 3.626-.406.187-.812.594-11.782 8.812-19.5 19.688-9.093 5.906-18.126 11.688-1.593 1.906-1.188 1.812-.5 1.5-.593 5.406-.126 1.688 4.5 8.906 4.813 5.906 5.813 7.188.593.813 15.5 19.187 4.782 8.094 5.624 9.594 7.188 12.406.813 1.812.5 1.188 3.187 13.219.5 8.5-.312 2.28-2.094 4-4.688 5.313-14.5 16.094-.5.5-4.218 4.594-7.188 8-2.594 3.406-.812 1.313-2.281 6.78-.126 1 .907 4.5 2.594 5.094 7.624 7.5 4.094 1.625 4.094.5 29.906 1.5 20 7.782 1.782.812 4.124 3 1.594 3.281.282.813 1.406 3.406-.5 17.094-3.906 8.688-.282.406-11.312 8.094-7.5 5.5-9 12.218-1.688 2.688-1.812 4.594-.281.906.093.906 1.782 7 13 23 .5 10-2.094 5-4.781 2.813-1.313.593-1.094.188h-4.593l-2-.188-2.625-.594-8.594-2.625-1.281-.375-10.625-3.218-7.094-1-15-2-11.594 1.812-1.094.406-4.093 2-4.407 1.782-8.5 4.094-14.312 6.812-1.687.594-2.22.406-10.5 1.313-13.78-1.907-8.313-1.219-14.406 1.625-12.281 6.594-3.313 2.094-7.594 6-4.093 2.5-.313-.594L4034.5 444.5l-1.5.813-2.312 1.28-5.281 2.313-8.5 3.781-.907.407-22.5 15.594-1.187 1.125-13 11.78-4.438 4.063H5132.75l-4.562-3.656-12.188-3.594-13-3.812-12-8.406-3.812-4.875-.782-2.72-3.406-13.28-.906-3.5-1.281-5-.313-.625-7.594-11.875-.812-.813-1.906-1.312-7.594-3.875-1.406-.5-5.688-1.22-1.312-.28-16.282-3.22-6.812-1.28-17.5-5.5-12.781-9-3-2.125-14.907-4.5-7.593 1.125-.72.094-8.093 1.28-13.312 4.5-21.376 3.626-23.718 6.5-2.188.375-3.593.219h-21.5l-36.907-12.313-29.312-9.781-20-2.906-3.188-.907-21.593-5.593-1.126-.594-11-7-5.187-5.5-1.094-1.406-3.5-8.22-1-4-.5-2.374-2.593-11.22.5-34.905v-9.375l-5.22-17.125-2.28-3.688-11.126-18-8-11.406-25.28-36.187-5.094-13.594-1.126-12.625-.78-3.5-3.907-16.594-.687-1.594-8-15.593-5.907-7.907-7.906-6.812-7.687-4.875-14.907-6.906L4615.5 111l-2.812-.406-13.876-.594-8.718-.687-15.281-8-5.626-9.813-.78-1.593-1.813-6.5V65.313l-.281-7.125V56.5l-2.313-11-3.094-6.5-11.5-10.5-1.5-.906-6-1.594-.5-.094-3.312.688-3.094.906-3.187 2.094-3.22 2.312-8 10.188-7 8.906-.78.906-1.626 1.188-6.093 4.093-11.594 2.907-1-.188-11.5-3.812-10.312-3.5-7.188 3.593-1.812 2.125-7.376 9-5.624 2.688-7.782 3.812L4427.313 79l-3.813 1.5-14 1.406-6.812-1.094-12.5-7-5.188-4.718-9.687-8.907-4.5-2.28-5.22-1.813-3.593-.907-6.187-1.28-2.626-1.22-3.593-2.093-2.688-2-4.593-5.688-1.313-1.594-8.594-11.812-7.5-10.406-4.812-5.282-4.781-4.906-4.907-3.406-3.718-2.094-4.5-2.219-4.782-1.093zm1613.5 405.906-27.5 8.5-13.376 6.406-1.718 1-2.781 2.094-13.72 10.594-3.5 2.594-1.687.812-7.312 2.781-15-2.093-15.781-2.188-1.313-.094-13.594 7-5.5 5.375-9.594 20.813-.718 1-7.781 8-14.063 7.156h174.781l-1.437-2.344-1-2-2.282-5.5.094-1.5 1.907-19.719L5929 446.5l.313-1.188 2.593-12.312-.593-6.188-4.407-10.406-1-1.5-2.5-2.594-2.593-2.406-2.313-1.813-2.594-.906zm-2090.594 48.406-18.594 2.5-.406.094-10.781 3.5-2.5.5-21.626 4.5-16.374-1-1.313-.312-12.312-2.906-8-1.781-10.094.5H3717l-14.906 7.593-3.781 3.594-1.313 1.5-6.844 13.063h187.313l-6.281-9.75-5.094-7.5-4.5-5.094L3861 463l-10.187-5.687-16.5-2.625-3-.188zm1545.094 23.094-14.376 1.781-13.406 4.813-4.656 1.656h55.594l-.656-.469-5.094-3.5-14.406-4.093-1.188-.188z" style="fill:#9faec0" transform="translate(0 125)"/><path stroke="#9FAEC0" stroke-width="10" d="m3690.156 485.656-4.968 9.438-.5 1.094-1.094 7 .719 9 .687 4.312 2.313 4.906.28.594 7.095 13 .406.688L3699.5 548l-.094 11.594-.219 27-.094 11.218 2.594 16.094 5.219 10.907.594 1.093L3709 629l3.093 6.5 4.5 9.594 1.907 7.593.5 9-.313 3-1.594 10.907-5.593 11.218-8.188 8.094-5.5 3.907-2.312 1.375-1.5.906-5.907 2.812-14 6.282-1.281.906-.906.906-4.5 7-1.594 3.5-11.312 24.906-.5.688-1.188 1.5-8 8.218-4.125 3.188-.5.313-23.594 8.28-1 .22-30.781 3.093-4.812 1.188-5.813 1.5-1 .312-14 7.594L3549 794.594l-8.313 13L3529 839.406l-3.407 15.188-.187.906-.313 5.594-1.187 22.593-10 25.813-1.594 3.313-1.719 2.78-17.5 23.907-15.5 14.313-.594.375-5.187 3-24.5 14-3.625 1.906h2731.75l.062-1.094 4.094-7 13.406-1.094 1-.5 4.094-2 .5-.593 2.812-3.125.907-1.188 3.5-9.687v-14.125l-3.72-12.375-1.28-4.907-.313-1.218-.812-9.375 4.5-14.813 1.5-5.594-1.094-8.312-3-7.688-2.688-2.812-3.812-3.907-6.594-6.593-3.812-3.907-1.594-7 1.594-18.093 1-11.594-3-10-1.5-5.906 1.718-3.5.594-1.407.688-2.375.218-1.312-1.812-9.187.5-5.625.219-1.5.093-3-.906-2.688-5.093-12.406-3.72-20.094-2-10.687-6.5-12.72-4.78-3.78-5.72-2.813-8.374-3.812-8.813-4.188-8.406-5.687-5.406-6.907-1.188-1.5-5.687-7.218-8.22-8.5-8.405-16-1.375-2.594-7.625-10.782-2-2.218-6.781-4.282-7.313-4.312-6.281-4.906-1.22-.782-3.686-2.406-13.813-.906-5.188.188-17.812.812-12.281.406-7.813-1.812-2.906-1-19.281-9.594-.72.313-6.78-3.813-6.813-5.406-6.312-4.782-8.5-10.5-.282-.625-7.5-19.593-.218-.907-.5-3-.782-5-.812-10.593-.906-10.5-.282-9.594-.812-9-1.188-5.5-1.406-5.5-8.812-14.312-2.157-3.532h-174.78l-5.938 3.031-1.125.5-13.688 7-2.094 1-8.718 6.72-.594.687-8.094 15.312-2.5 7.188-5.594 16.218-1 1.594-5.218 7.188-8.875 7.093-2.313 1.313-1.594.5-11.218 1.906-25.094 4.188-1.188.093h-1l-4.593-.375-5.907-1.125-7.406-3.78-12.906-6.595h-.5l-5.281-.812-6.125.187-8.094 5.313-7.5 4.812-2.5 3.094-4.906 5.688-3.188 3.812-8 9.188-7.687 4-9.907-2.907-6.312-4.5-4.406-5.593-1.875-7.907-4.22-16.78-4.187-8.5-.812-.595-26.281-17-8.313-4-8.406-2.125-9.406-2.187-7-1.094-39.875-4.906h-.625l-13.688-1.687-2.5-1.313-4.094-2.187-10.312-11.125-14.75-10.532h-55.594l-18.156 6.438-.781.219-13.407 3.5-12.218 3.093-8.688 4-5.094 5.594-2.906 5.188-1.812 3.625-2.188 8.187-.687 10-.313 4-.5 5.594-1 2.5-2.312 5.718-.594.5-5 5.875-7.281 4.72-6.72.593-2.405-.406-23.782-7.688-9.093-5.406-11.407-6.688-12.406-1.625-19.5-2.687-4.406-1-6.781-3.813-.813-1.093-5.406-8.282-.781-1.5-2.407-8.906-3.812-15.406-.781-2.594-.72-1.906-4.78-9.906-.563-.438H3974.874l-7.781 7.156-2.906 2.594-11.782 8.094-6.218 2.906-6.688 3-2.687.781-6.5 1.625-2.625.5-2.594.094-15.781-.906-5.72-1.5v-1.187L3893.5 504l-.906-.906L3878 486.5l-.531-.843zM3397.5 956l-5.187.406-3.126 1-.5.5-5.593 1.5-5.688.907-5.093 1.5-4.5 1.375-4.313 2-5.812 6.625-.563 1.28h61.625l-4.562-4.905-3.5-5.594-5.094-4-3.5-1.594z" style="fill:#9faec0" transform="translate(0 100)"/><path stroke="#9FAEC0" stroke-width="10" d="m3357.125 973.094-3.437 7.718-2.876 15.594-2.718 14.907-5.688 13.28-5.593 7.095-8.813 8-18 16.218-.406.5-7.188 10.782-6.093 9.312-.626 1.406-.78 1.782-4.313 10.406-1.5 27.406 2.406 31.094.688 9.406-.5 15.313-3.094 11.187-3.282 11.906-2.218 8.5-.907 4.594-.78 4.688-4.5 26.312-2.595 7-14 17-1.406 1.5-3.906 1.5-3.687 1.188-7.22 2.5-8.093 1.5-1.312.218-25.782 4.594-1.312.188-14.282 2.624-13.406 5-4.093 5.376-.813 1.218-.187.782v12.5l.093 7.624-1.593 3.688-2.625 3-5.688 2-9.187-7.094-6.125-8.406-14.875-29.187-10.313-10.126-.406-.187-15.5-6.812-11-1.594-2.781-.188-4.5.407-14.22 1.874-8 2-5.093 1.407-4.687 1-1.72-.188-7-1.593-24-11.126-1-.687-24.686-19.406-17.313-10.594-3.281-2.5-1.5-1.187L2967 1205l-.406-.687-3-7.126-.781-3.28-3.125-18.094.218-10.813 2.094-11.812 5.5-27.688-2.5-10.094-4.094-7.312-1.593-1.906-8.625-9.782-3.5-3.5-3.688-2.218-6.312-3.376-12.282-6.624-8.312-6.594-1.5-1.594-5.594-6-8.812-9.312-.375-.282-7.813-2.906-7.187 2.406-.72.5-4.28 5.907-.5 1.28-1.625 5.72 1 10.374 2.125 4.5 6.875 6.313.5.313 10.312 2.28 1.5.313 12.594 2.907 8.094 4.187 1.812 1.188 3.406 9.218-3.093 9-4.125 5.094-9.688 5h-26.687l-6.22 1.5-8.405 6.5-.5.406-.594.907-3.5 8.187-2.094 4-2.406 3.094-2.281 1.906-.813-.094-5.5-1.094-4.687-3.218-5.313-4.907-.406-.281-10.281-9.406-6.125-3.406-11.5-.5-1.375.312-1.813 1.188-7.5 7.812-1 3.188-1.094 4.718 1.5 5.094 1.188 1.688 6 6.312.906.594 4.594 1.594 5.094 2 4.5 4.593 1.625 2 .687 1.125 2.594 7.094.219.906v2.282l-.625 5.593-.5 2.719-1.375 2.906-4.907 8.094-11.906 12.188-12.312 4-17.5.906-2.5.094-8.282-.281-3.906.28-6.406 2-1.5.813-1.781 1.188-3.22 3.594-3.593 9.624-.312 3.5-.688 7.282-.5 5.312-1.406 15.407-.188 1.687.095 2.906v24.688l4.093 14.094 7.594 15.312.313.594 2.593 5.5.813 3.094.5 2.718-2 9-7.219 7.594-10.781 4.5-17.406-.5-3.094-.312-26.219-3.188-10.187 4.5-3.813 4.5-.875 2.688-1.5 6.906.781 15 .719 15.219.094 1-2.094 10.593-1.312 2.782-1.5 2.624-1.188 1.5-10.906 9.876-.813.624-15 8.282-8.187 3-10.906-1.594-4.688-3.406-.719-.688-3.093-5.093-.907-6.5.907-3.407 8.093-26 5.594-17.718-.5-8.594-1.187-1.594-1.188-1.5-11-5.406h-9.719l-2.906.812-2.375.907-4.719 2.874-23.187 16.407-3.594.906-5.125 1-3.094-.312-1.687-.376-11.906-11.812-1.094-1.187-10.094-12.22-9.312-19.593-4.907-10.687-3.187-8.126-4.719-12.687-10.781-29.406-9.719-7.5-11.375-5.094-4.219.906-5.093 2-5.188 3-6.719 2.907-4.406 1.593-9.187 4.188-19.5 18.719-8.5 10.187-8.907 10.906-10 8.407-.593.187-20.188 6-7.5.313-10.219.5-5.687.374-3.906.72-10.594 2.593-6.094 1.5-8.812 4.406-9.188 5-9.312 4.407-8.407 5.687-7.187 6.688-5.594 5.5-1.5 2.218-1.906 3.407-1.5 5 1.406 9.687 1.094 7.906-.906 7.094-2.313 9.094-8.5 34.094-1.687 4-.157.343h4145.032l-3.375-3.437-4-1.688-5-2.406-3.907-4.812-5.28-1.188-4.813-7.5-3.5-5.312-.313-.5-1.281-1.5-3.219.906-7.187 7.094-3-.782-.5-.312-1.094-2.281 1.781-17-4.5-6.626-5.594-8.374-.5-.813-4-2.687-1.28-1.22-1.313-1.405.406-2 .281-2 .719-4.782-1.594-1.718-4.5-4.782 7.875-4.593 3.906-2.813-2.687-1.594-4-2.5-.906-.906-.688-3.5-.125-2.5-.187-3-.688-2.5-.812-1.5-.313-.5-2.281-2-5.406-3.687-1.594-1-.406-.813-1.094-.906-2.313-3.906-1.187-1.876-.313-.5-.687-1.218-12.813-8.5-2.187-1-2.594-.406-2.125-.282-1.5-.5-1.687-1.906-1.188-1.906-3.5 1-.406 2.219-.313 2.093-.687 4.094-.5 1.5-.719 1-.5.094-1.875-.406-.312-1-.188-1.781-.719-7.907-3.593-2.906h-2.688l-2.625-.5-1-.187-1.5-1.407 5.719-5.093-.5-4.407-.313-.5-2.687-.312-7.813-.781-1.906-.813-5.281-2.594.187-4.093.907-.594 4.593-.5 3.5-.406 1-1.594-1.093-3-.5-.219-3.688-2.094-.125-.687.125-1 4.281-1.625 5.72-2.281 3.28-3.313 6.813-6.594.5-1.093-2.406-4.22-7.188-3.874-1-5.625 3.094-4 2.281-.875 8.906-3.219.813-.594 1.281-1.312.125-1 .188-1.688-.094-1.906-.407-.5-4.312-3.187-1.188-.5-2.093-.22-3.407.313-6.312.594-1.688-2.906-.094-1-.094-2-.406-3.375-3.906-3.313-6.594-.406-1.906-.781-.594-.313-7.312-3-.907.094-7.28.907-1-1.5 1.78-3.5.407-1.407-.282-1-1.125-1.406-5.5-7.187-.593-4.594-1.094-5.813-4.188-4.906-3.718-4.187-.594-.688-1.594-7.906-1-4.719-.5-.875-4.094-6.625-.125-1.281-.375-4.219-4.812-7.281-.406-1-.782-2.5-.625-4.5-1.687-.813-5.313-1.781-.875-.5-5-6.812-.625-.813-.375-.687-7.718-2-1.282-1-5-4-2.218-2-1.782-3.907-.312-6.093-.188-4.094-.218-.719-.907-2.781-.78-1.313-2.595-3.187-8.312-8.594-1-.219-8.5-2-5.406-1.281-3-6.625-3.188-6.875-4.906-2-6.313-2.406-1.5-1-.094-.594v-14.125l-1.593-4-2.5-6.594 1-6.5 4.812-2 13.594-.094H6171l5.593-3 3-4.593.313-.813 1.187-5.594 2.094-7.687 2.719-11.406 2.281-9.72.219-1v-8.093l-2.594-4-5.219-4.187-2.5-2.094-1.5-1.5-1.187-3.906-.219-3 .25-3.313h-2731.75l-.781.406-1.594.907-7.5 3.187-1.719.313h-1.406l-9.875-2.594-2.062-2.219zm-1297.437 404.093-18.844 83.344h151.468l-.5-1.125-14.124-15.718-6.594-2.282-2-.5-4.188-.718-18.312-2.188-17.907-6.312-1.593-.782-6.094-3.593-1.812-1.22-6.282-4.405-5-4.188-7.812-6.687-7.594-6.907-3-2.593-7.187-6.626-10.126-8.593-10.187-7.688z" style="fill:#9faec0" transform="translate(0 75)"/><path stroke="#9FAEC0" stroke-width="10" d="m2040.844 1460.531-.532 2.282 12.782 5.093 4.093 3 .5 2-4.593 6.5-1 7.094 2 3 6.718 1v7.5l2.094 3.594 19.5.5 2.5 2v1.5l-12.812 13.594-4.094 9-15.406 12.124-17.407 10.094-9.687 1.5h-11.312l-17.5.5-11.782 6-9.718 10.094.5 13.094-2.5 11.594-10.782 19.124-3.593 9-5.126 4.594-21-.5-22.593 4-8.188 5L1884.5 1650l-210.812 6.094-77.376 78-4.124 4-74.876 66.406-23.5 23.188-3.124-.5-6.688 2.5-5.094-2h-4.593l-8.22 9.5-6.187.5-4.094-.5-6.125-4 1-3 5.625-.5 8.688-10.094-6.688-16.094h-2.5l-5.125 8.094-5.187-3.094-2.5-7-4.688-5.5-2.5-9.094.5-11.593.5-20.126-2.625-3-12.78-.5-3.095 2.5-2.625 6.5 2.625 5.626.5 4.5-8.718 9.593-1.5 5-2.594 2.5-4.094.5-2.594-4.5-4.125-1.5-5.093 11-4.094 1-10.188 1-2.625 11.594-3.093 7.094-3.594 5.5-7.094 7-15.406 4.594h-19.188l-4.125.124-3.78.376-2.907.406-7.313 1.094-3.78.5-1.5.312-7.813 1.813-2.907.593-22.28 5-5.22 1.094-3.593.406-8.094.594-29.406.813h-1.282l-16.218.374-29.907 7.126-2.78 1.093-6.313 2.688-3 1.594-14 9.218-11 10.282-5.406 6.624-9.188 11.282-8.687 3.5-2.813.5-3.094-.406-4.593-.782-1.407-1.093-6.093-4.813-5.313-4.406-10.094-8.594-5.812-2.5-1.688-.5-4.593.313-2.625.874-2.094.407-3.594 1.406-6.312 2.813-14.375 5.093-12 9.782-2.313 1.812-8.187 10.094-5.125 9.094-1.688 15-1.406 11.718-1.094 3.688-.125.375h5527.344l124.375-117.063L6767 1729.5l2-4.094.5-1.5v-2.093l-.594-1.907-.5-.593-1.312-1.126-1.688-.374-2.594-.126-.812.313-2.812.813-4.094 3.093-1.5.407-2.5.593-1.5.688-.5.312-2 2.188-.906.719-2.688-1.407-1.687-.906-3.626.406-2.687 3.907-1.594 2.5-.812.78-1.282.72-3.125 1-.593.093-.5-.5-1.688-1.406-.594-2-2-1.5h-3.624l-1.282.594-2.812 1.406-5.688-1.093-1.719-2.407-1.78-2.593-1-2.5-2.095-1.5h-2.624l-1.094 1.593.094 1.5.625 2.5 1.5 6 .187 2.907.094 2.5-.187.593-.594.594-1.625.5-2-1-1.281-.781-1.219-1.813-1.094-2-2.093-1.5-4.594.094-3.219-1.093-1.5-.5-.375-1-.5-1.188-.406-1.219v-1.593l-.719-2.5-3.375-4.188-1.625-2-2.781-3.406-.719-.406-2.187-1.5-4.407-.5-1-.094-7.187.906-3 1.687-2 1.094-.906.313-1.094.406-.719-.219-1.281-.594-.094-.593-.906-3.907-1.594-1.5-1.5-.5-4 1.313-3.125.187-2 1.094-1 1.313-3.188 5.5-4.593 1.187-1.594-.281-1.5-.406-.5-.5-2.625-3.907-.281-2.312-.22-1.188-.5-2.5-1.187-1.906-2.406-2-2.594-1.094-1.406-1.187-1.094-.813 1-2 5.594-2.5 2.594-.187.625-.125 5.5-2.281 1.094-2.5.187-1.094.094-1.406-1.375-6.094-2.312-5.313-1.688-2.906-.719-.781-1.906-1.5-1.687-1.719-1.188-.781h-2.312l-2.688.875-6 3.625-1.625.281-.875.094-2.719-.875-.5-.625-1.5-1.5.5-6.375.907-3-.188-2-.219-3.625-2.093-1.281-2.407.5-.687.187-3.719 1-.875-.5-.406-.406-.5-1v-1.5l.687-2.687 1.407-3.094 1-1.813.187-1-.187-2-1.407-.5-2.593.219-3.5 1.188-2.813.187-2.5-2.094-.187-.593-.188-1.813.781-1.594.907-1.187 3.187-4.406-.094-2.188-.906-2.219-1.5-2.093-2.094-3 .5-2.5.813-1.907 1.28-2.593-.5-2.5-1.187-2-2.593-.813-3.22-.375-2.874.781-2.625 2.094-1.281 2.813-.094 5 .875 1.406 1.718 2.406.5.688 1.5 3.593.5 3.5-1.312 2.719-1.688 1.281-3.218.907-4-.407-3.5.5-1.282.907-1.906 1.187h-3.094l-1.812-.687-1.906-.907-1.5-1.093-.875-.813-1.5-2.094-.625-1.781-.5-1.719.312-2.281.594-5.406-2.406-3.313-3.594-5.093-1-3.813-.594-2.187-4-2.188-2.812-1.406-.375-.594-.5-.5-3-3.312-3.907-.688-1.719.094-3 1.688-2.5 1.593-4 .813-2.874.094-10.5-5.688-.907-.718-5.5-4.782-2.719-3.718-3.5-4.782h-1.374l-2.907 3.188-.406 2-.812 1.906-2.376.594-4.406-6.781-1.5-2.407-5 1.407 5.188-8.907.312-.5-2.812-4.312-2.282-3.906 1.5-4.375 2-5.907-.625-.812-2.687-3-2.813-1.406-3.593-1.375-4.094-10.625-1.813-2-.28-.375-1-1-.313-.5-.688-2.5-2-10.5-.719-.625-7.5-4.875-.593-.407-3.594-2.312.312-2.781.375-1.5 4-3.907 2-1.906.5-.5 1-3 1.5-4.187 6-3.407 1.5-1.093.125-.625-.218-1.782-.688-1.093-.406-.407-1.094-.5-4.906.094-10.5.313-.406-1.813.219-.812.374-.188 2.72-1.5 3.187-1.687.5-3-4.094-2.5-2.188-.125-5.625-.781-.78-2.907-1.907-6.687-.594-1.125-6.812-1.375-2.219-2.281H2274.344l-7.844 18.375-4.594 7.5-11.312 10.593-5.188 3-7.094 4-7.812 1.907-.688.094-15.125-.5-3.593-1.813-.5-.281-3.594-2.313-.5-.593-4.594-9.5-1.406-6-1.5-6.094-1.5-6-1.188-3.313-4-9.062h-151.468z" style="fill:#9faec0" transform="translate(0 50)"/><path stroke="#9FAEC0" stroke-width="10" d="m1007.875 1947.969-3.875 12.844-.406 1.687-12.407 28.188-6.875 13.5-3.906 7.906-1.406 3.812-3.094 9.5-1.718 7.782-.375 2.812.28 4.594.72 6.594.78 2 4.907 7.906 5 5.094 8.906 9 10.407 19.624 4 7.594 3.687 2.782.594.5 5 4.218 1.593 1.907 7.625 10.687 7 15.313 5.782 18.374 7.812 24.626v10.593l-3.094 13.094-10.812 23.188-.313.718-8.593 15.188-3.594 5.406-2.094 3.406-10.406 13-8 6.907-7.406 4.187-5.594 2-3.188.813-2.625.28-18.28.407-2.595-.406-9.218-1.594-9.094-2.687-2.594-.907-4.5-2.406-4.312-2.594-10.688-9.5-1.219-1-29.875-27.406-.906-.812-9.5-8.188-4.219-2.594-4.687-2.812-11.313-5-14.593-4.594-18.094-8.406-6.5-4.688-13.688-5-5-.906-3.218-.5h-4.188l-13.812-.094-5.907-2.5-1-.812-22.28-20.407-.5-.281-30.313-24.312-24.594-11.907-19.688-9.281-14.125-6.219-24.593-12.593-11.594-5.5-3.906-1.688-6.188-2.719-10.594-3.5-5.906-1.5-22.5-3.5-24.594.5-16.218 4.907-1.688.593-24.719 16.125-41.78 38.594-7.407 10.188-11.5 20.812L436.312 2191l-1.406 2-3 3.406-16 16.188-1.406 1.312L388 2240.5l-.313.406-3.28 5.406-2.22 3.5-6 9.782-1.875 6-.906 3-1.906 10.906v11.5l.187 1.094.72 2.593 7.78 19 13.407 16.125 8.093 6.782 9.72 7.906 6.78.406 7.72 3.5 7.187 6.094 5.312 12 .906 2.094.5 10-1 6.718-.312 4-.188.5-4.125 8.782-3.093 6.406-3.282 7.5-3.625 7-4.28 12.906-.876 2.969h5577.75l1.219-3.281.313-7.407-2.5-6 1.874-9.187 3.313-5.406-1.594-2-2.719-1.907-2.593-2.187-1.406-2.5-1.688-3-.594-2.906-1.406-3.188v-6l.906-1.719 1.594-2.875 1.094-.5 1.906-1h2.688l3.218-1.718 1.688-2.188 1.218-.594 2.594.094 8.5-3.218 4-4.5 2.094-2.094 2.312-4.406.282-3 .812-2.094.281-2.5 1.72-2 2-2 2.593-.5 2.188-.094 5.124-.313 3.5-.593 4.094-2.094h2.5l2.5-.094 1.594.906 2.094.688 2.594.5 2-.813 3-1.281 3.218-1.406 2.594-3.907 1.5-2.093 1.5-1 2.594-1.594 4.594-4.906 5.906-5.407 8.094-1.5 2.406.219 1.719-.5 1.5-1.125 1.374-3.375.5-4.219.5-3.906 1.126-3 2.093-2 3-1 3.594-1 2.5.5 2.594-.187 2.094-.813 2-3.594-.5-4-1.188-8.406-.906-6.187-.906-4.313-.594-2.687 1-3.594 1.312-1.906 2.282-1.094 2.125-2.219.375-2.5-1.5-2.781-1.5-2.5-1.5-2.594-1.094-3 .594-3.5-.282-5-.312-5.625-2-6.5-1-4v-3.094l.906-1.687 1.594-2.813 3.219-2 4.874-3 11.407-7.093 8.219-5 3.093-2.594 3.594-.094 2.594-.125 4.5-1.781 2.094-1 2.906-2.22 2.406-1.78 4.5-2.094 1.813-2.906 2.28-2.094 4.595-2.5 4-1.719 4.218-1.906 2.281-1.375 3.813-1.625 2.594-2 2.906-2.688 3.406-3.187 5-4.719 5.594-4.5 5-2.906 2.594-1.5 3.719-2.188 2-3 2-1.906 2.5-2.187 1.687-1.5 3.688-2.407 4-3.093 3.312-1.907 4.406-3.812 3.5-2.5 2.906-2 6.876-5.375 2.406-1.313 2-1 3.812-1.312 4.094-2h6.188l1.625-1.188 2-1.312 3-3 2.093-1.594 2.688-.406 3.5-.594 3-2 2-1.406 3.406-3.688 1.313-2.406 2-1.594 2.5-1.406 2.687-.594 2.406-.312 1.688-.188.812-.187 1.688-.313 2.406-2 2.406-2.187 2.281-2 2.22-1.906 6.28-2.094 7-2.406 6-3.813 4.313-2.687.594-.407 4.593-2 4-1.687 4.5-1.813 2.625-1 6.375-1.812 8.625-2.875 5-1.625 5-1.688 7.375-1.406 10.813-4 10.5-4 17.687-6.594 3.813-2.406 3.5-2.187 1.906-2.5.094-3.22.094-2.5.813-1.78 1.094-.72 2-1.28 3.093-1.094h2.5l3.094-1 2.719-1.906 3.5-2.594 2.406-3 .688-2.125 2-3.5 3-2.688 10.593-9.906 6.907-6.5 44.218-41.625z" style="fill:#9faec0" transform="translate(0 25)"/><path stroke="#9FAEC0" stroke-width="10" d="m419.031 2435.375-1.937 6.438-1.094 8-2.687 19.374-2.313 7-2.312 7.126-7.282 7.593-.406.407-6.687 4.093-7 2.282-6.22.312-4.687.188-4.594.218-6.218 5.594-1.406 6.094-1.094 23.594 6.719 15.124 4.375 4 4.906 4.5 18 3.188 4.5.906 5 1.782 2.906 3.218.688 1.188 1.406 2.718L414.5 2576l.5 13.188-1.5 6.312-5.687 5.594-7.125.5-5-1.907-6-2.28-8.5-3.313-.688-.094-5.406-.313-9.188-.687-5.312 2.187-10.188 7.406-2.094 3.594-3.218 5.219-2.906 4.781-1 6.906-1 6.22 1.218 9.374 4.5 8.906 6.781 9 9.125 12 3.094 9 .281 5.813.22 5.281 4.093 6.125-.094 4-1.906 2.094-4.594 5.187-4.813 5.407-.906.906-3.594 3.781-5.687 6.125-7.5 8.094-1.094 1.094-1.906 5.406-3.813 10.594-.406 1.093-.781 6.594-1.313 10.406-1.687 14.094-.313 2.125-4.093 5.875-4 5.719-9.907 8-1.906 1.594-6.281 1.093-7.219 1.407-5.5 1-7.687-1-6-3.594-8.407-5-15.906-21.094-6.781-11.5-5.719-9.719-4.187-7.187-4.907-8.219L226 2734l-5-3.594-2-1.094-4.5-1.906-6.594-1-9.813.281-5.093 2.625-6.5 3.188-7.5 8.812-.688.781-3 11.22-.906 3.374-2.594 9.906-3.219 12.22-4.906 11.593L159 2801.5l-3.688 8.906-3 7.187-4.406 14.407-6.313 20.906-.593 2-5.594 18.594 64.094-4.094 41.593-2.5h2.5l177.22 9.406 131.093 6.781 106.094 3 4.093.22 13.407.593 268.093 10.281 25.22 1 277.28 10.906 83.594 5.594 20.719.813 5.094.187 2.312-1.375 2.594-1.625 8.781-7 1.719-6.094 3.187-11.5.5-2 3.907-14.187-6.813-58.313-9.594-40.78-2-14.22L1353 2742.5l-3.594-14.094-.813-15.5 18.313 1.5L1484.5 2727l14.406 1.5 46.094 5-3.407 33.093 43.094.22h21l78.406.374 46.22.125 141.093.281H1916l88.593.813 197.594 1.781 48.625.406 33.375-.406 232.719-2.687 153.5-2.5 24.594 21.812 8.187-4.5 4.625-8 3.688 1.375 1.906 3.219 20.687-8.594 9.5-4 87.22 3.375 64.187 2.406 118.406 10.594h.594l185.093 12.906 23.594 1.594 108.125 5.625 58 2.094 250.781 8.687 63.594-5 35.406-2.78 20-1.626 2.594.219 3-.313 11.813-1.28 2.593-.5 5.72-.407 6.093-.5 16.406-.5 3.094-.094 13.281-.312 6.219-.407 4.594-.187 9.187-.5 3.625-.219 11.781-.594 10.813.5 11.187.594 5.72.125h6.093l11.281.5 15.906.5h3.094l14.906.5h1.5l74.907 2.875 78.406 3.5 11.281.906 9.813.094 88.187 7.719 44 3.5 41 .594 5.813.187 44.093 1.219 113.22 2.907 64.593 1.28 12.282.313h2.218l5.907.094 201.187 1.407 18.906.094 28.907.187 85.187-.594 92.594-.687 18 .5 70.906 2.094 90.594 2.687 82-.281 40.812-.219h2l5.094-10.594 8.313-8.906 5.093-6.687 5.094-5.5 6.094-4.407 4.094-4.187 3.125-3.813 5.687-2.687 5.094-1.094 5.812-1.406 2.407-.594 4.593-2 3.5-2 3.188-3 3.094-3.406 3-1.719 5.218-2h1.688l6.219-3.5 11 .5 12.187-6.781 11.313-4.906 14.187-7.094 6.688-7 26.906-7.406 1.219-.188 3.687.188 4.094.812 4.719.688 4.78 1 .907.094 6.813.812 4.593.594 4.094-.094 4.5-1.094 6.313-1.5 7.593-1 5.688.281.906-.094 3.594-.094 3-.718 2.594-.188 6.5-1.906 5.906-2.407 4.094-2.28 5.718-3.72 3-3.874 4.188-3.72 4.094-4 5-2.187 6.812-2.812 6.094-1.594 11.719-5.094 13.375-6 15.125-5 .78-.312 20.095-6.282 20.406-6.718 5.719-1.907 15.875-5.5 14.125-5.28.78-.313L5691 2653.5l7.688-2.5 5.312-1.687 5-.907 7.594-1.5 10.812-.218 9.782-.282 8.218-.5 4-.5 3.188-.5 3.406-2 1.688-2 2.406-3.906 2.219-3.687 1.5-5 .094-.907-1.22-6.812-1.374-9.188-.5-7v-.218l-2-3.876-.22-1.812.095-.812 7.219-2.594 2.28-1.782 5.407-4.312 3.594-4.5 1.5-3 1.906-2.594 1.719-3.5 2.375-3.406 1.5-2.094 1.719-1.5 1.093-3.593.407-1.126.28-3.093.313-3-.5-2.782-.187-2.218-.406-4 .094-3.407 1.593-1.78 1.407-1.72 5.687-5 3.719-2 3-1.093 2.5-.5 2.094-.407 1.406-2.093.281-2.594-.094-2.5.313-3 2.187-2 2-1.5 2.594.5 4.313.188 7 .312 3.312-.687 3.875-.813 5.125-1.5 5.094-.5 4.094.5 1.5.594.094 1.218 1.5 2.688 3.906 1.406 6.687 2.281 5.407.22 2.093-3.907.22-.094.5-.312 3.905-5.688 12.094-3.906 4.188.406 6-.5 4-.812 6.906-1.782 9.093-5.312 16.5-6.313 7.094-2.187 4.625-1.313 3.5-1.094 2.5-.78 2.781-1.22 1.72-1.593 2-1.907.093-.093 10.094-2.594 7.313-7.719 1.187-.594 3.313-2.594 2-2 2-1.906 1.374-1.687 1.907-2.594 1.406-2.625-.187-3-1.126-1.5-1.187-2.875-.312-3.5.906-2.625 1.906-2.375 1.813-3.906 2.374-3.219 2.313-3.594.281-.719H419.032zM35.813 2776.813l-5.407.874-6.406 1.407-.406.218-12.907 7L3 2796.407l-2.5 9.407-.5 1.874.406 6.626L2.5 2821l2.313 7.188 3.875 12.5 8.124 11.906 6.188 9 3.188 4.812 25.906 1.282 22.812 1.218 9.188-19.5 4.094-8.812 2.624-5.407.688-4.093 1.188-7.188L88.094 2803l-4.688-8.187-3.906-6.72-5.187-3.78-6.22-2.5-7.093-1.126-8.187-1.28-5.126-.813-6-.907z" style="fill:#9faec0"/></svg>