<svg xmlns="http://www.w3.org/2000/svg" width="3252.313" height="4876.313"><path stroke="#9FAEC0" stroke-width="10" d="M1455.906 0 1410 64l-59.906 87.5-30.188 44.594L1228.688 328l-88.282 126.813L1087.5 532.5l-35.906 53.094-25.688 36.812-65.218 92.907-68.5 97.406H2554.03l-1.718-78.125-.626-7.094-1.374-78.094-1.5-78L2545.5 429.5l-2.5-2-3.594-1.594-3-1.5-3.593-3-2.5-2.593-3.626-3.5-3.5-3.125-2.593-1.5-2-.5-2.5-.5h-2l-3.594-1-1-.5-4.594-2.5-3.5-3-3.093-2.594-3.5-2.5-3.126-2-5-1.5-4.593-1-4-2.594L2475 388l-3-4.094-1.594-4.093-1-4-.5-2.625-.094-3.594-.5-3-1-2.594-1.5-2.5-1.625-2-3-3.594-3.593-4.593-1.5-3.5-1.594-2.625-1-2-1.5-2.094-1.5-1-2-1-1.594-.5-2-1-4.594-4.594-2-3-3.125-5.594-3-5.593-1.593-3.125-2.5-4.594-2.594-5.594-1-4.594-1.5-4.593-2.094-4.5-2-4.125-4.094-3.594-4.125-3.5-4.5-2.594-4.593-2-6.094-2-3.5-1.5-4.094-3.594-4.5-5.093-5.594-7.625-5.718-8.594-4.5-5.094-5.594-3.594-3-2-4.094-2.5-3-2.593-3.094-2.5-3-3.125-3.625-2-2.5-1.5-4.093-2-3-.5-2-1.094-2.594-1.5-2.5-1.5-1.5-2.5-1.594-1.594-2-3.5-2-2.094-1.594-1.5-3-2.5-2.5-2.093-3.125-1.5-3.5-2-4.093-2-4-3.125-3.594-3-2.5-3.094-3.094-3.5-4-3.094-3.594-1.5-4-2.5-5.625-5.594-2.593-3.593-1-3.625-.5-2.5V152l-.594-2.5-2.5-2.594-3-1.5-3.594-1-4-1-5.094-2-2.5-1-4.125-1.593-4-3-5.093-3.125-4.5-1-3.594-.375h-2l-3.5-1-2.094-1.625-2-1.5-1.5-2-1.5-3.094-.094-2.5-1-2.094-1.5-2-2.5-.5h-4.625l-4.5 1-7.094 1.094H2183l-3-1-5.094-3-5.5-3.094-3.594-1h-3.5l-4 1.094-2.625 1.5-3 1.094-2.5 1.5h-4.594l-5.5-2-4.593-1.5-5.5-.5-9.594 2.124-8.094 2.594-5 1.5-5.125 2.594-2 2.094-2.5 3.5-2.5 4.594-1.5 5.218-.5 3.5V141l-.5 4.094-.375 4.093.5 3.125 1 3.5.5 4.594.5 3.594-.406 3.594-1 3-.5 2.593.5 2.625 2 3.5 1.5 2.594 1.094 4v1.594l-1 2-2 1.094-3.094.5-4 .5h-8.594l-8.125-.407-4.5 1-3.594 1.625-4.5 1.5-2 1h-2l-3.093.094-2.5-.5h-2l-3-.5-3.094-.5-2-1-2-1.593-2.094-1.5-1.5-2-2-2.125-2.125-2.5-2-2.094-2-1-2-.5-2.594.594-3 .5h-2l-7.094.5h-3.5l-5.093-.5-3 .125-4-.5-3.094.5-3 1-4 2.593-2.5 2-2.625 2.594-3.5 3.594-4 2.594-3 1h-2.594l-4-.5-2.5-1-3.594-1-5-2h-4.593l-2.5.5-3.5 2.125-2.094 1.5-2 2-.5 3.093-1 3.094-.5 2.5-1.5 2.594-.5 3.594.094 2.5.5 3.125.5 2v3.093l-1 2-2 3.094-2.5 2.594-6.594 6.094-7 3.125-6.125 1.093-5 1-4.593.5-4.5 1.594L1888 247l-3.5 1.094-2 .5-2.094-.5-2-1.5-2-1.094-3-1.5-2.594-1-3.5-.5h-5.625l-3.5 1.094-4 2-1.593.5-3 .594-4-1-1.594-1.094h-2.5l-2.5.094-2.5 1-4.094 2-8.5 4.719-11.094 6.594-8.625 4.687-4 1.5-5.093 1.625-4.5.5-6.594 2.094-9.094 3.094-5.5 1.5-5.594 3.093-5.5 4.094-5.625 4.125-4 3.094-4.593 2.5-4.5 3.594-3 2.093-3.5 2-3.094 1.594-2.5 1-3.5 1-3.594 1.125-1.5 1-2.5 1.5-1.5 1.594-2 2-1.5 1.094-7.094 6.093-8.625-9.187-3.093-2.5-2-2-1.5-2.094-1-2-1-2.625-1.094-1.5-2-1-2.5-1.5-3-2.094-3.094-2-2.5-2-3.094-2.593h-1.5l-1 1.593-.5.5-1.5.5-1.5-.5-1.5-1.5-2.125-.593-2 .094-2 .5-1-1-1.5-1.594-1.593-2.5-1-1.594-2-2-6.594-4.594-5.594-3-6.5-4.625-5.094-4.593-4.625-3.5-3.5-2.594-6.593-3-6.094-3.094-5-2.5-2.594-2-2.5-2.594-2-2.5-1.5-4.125-1.594-4.093-2-4.594v-2.594l.5-4.594v-5.625l-1.125-5.093v-17.907l-1-3-.593-2.593v-2.5l1-3.594V175l-1.5-9.188v-1.625l-.5-11.187-.094-7.688.5-13.812v-12.188l-.094-9.718v-8.688l-.5-5.594 1-3.625 1.5-3.593 1.5-1.5 2-1.094 1.5-.5 1.5-1.5v-1.594l-1-1.5-1.5-2.5v-2.594l.5-3.625 1-3 .5-3.093 1.5-1.5 2-1.094 2-.5 1-1.5.5-2.094-1-2.5-1-2.094-2-3-1.5-1.625-1.094-1.5v-6.093l-.5-4.094-.5-1.5-.5-.594h-1l-.5 1.094v4.094l-.5 1.5h-1.5l-1.5-1-.125-2.594-.5-2.5-1.5-2.094-2-2.5-1-1-2.094-1-2 .5-1 1-2 3.094-1.5 2-3 1.594-3 1h-2.094l-2.5.5h-1.5l-4.093-1-4-1.5-1.5-1-1-1.594-1-.5h-1.094l-1.5 1.594-1 1h-2l-1-.5-.5-2.594 1-2.5-.5-2.594-1-2-1.625-1.594-5.5-3.5-4.594-2-10.094-4.625-4.5-1.5-3.093-1.593-2-1.5-2 .5-1 .5-1.5 1.093-2.094.5-2.5-.5-2-2.093-2.5-3L1494.187 5l-2.5-1h-3l-3.5 1.094-2.594.5-1.5.5h-3l-1.5.5-1.5 1h-1.594l-2 .593-1.5-.593-1.5-1z" style="fill:#9faec0" transform="translate(0 125)"/><path stroke="#9FAEC0" stroke-width="10" d="m892.188 812.719-23 32.687-4.594 6.094-6 47.5L845 984.594l-1 5.093-24.687 154.407-3 16.812-4.625 1.594-3 1.5-3.094 1-2.5 1-2 .5-2.094 1.094h-5l-2.094-.5-1.5-.5-2.5 1-1.5.5-1 2-.5 1.5-.5 2.594-.593 1.5-1.5 2.625-1 1.5-1.5 1.5-1.5 2.093-1.5 2-1.125 2v2.094l-1 2-1 .5-1.5.5-1.5-.5-2 .5-2.094 1.094-2.5 2.5-2 2.594-1.5 4-1.094 4.125-.5 3.093-1.5 1H755l-1.5.5-1 1.5-1.094 2.094-1 2.5-2 2.094-2 1.5-2.593 1-1.5.5-2-.5-2-1-2.625.5h-1l-1.5.5-2 .5-2.594.5-2 .5-2.5 2.094-3.094 1.5-2.5 3.125-5.094 4.593-5 4-3.093 4.594-3 4.094-2 2.5-1 2.594-1.125 2.5-.5 2.625v1.5l.625 1.5 1 1.593.5 2v2l.5 1.094 1 1.5.5.5 1 1.5v2.594l-1 2.5-1.5 2.594-.5 2-.5 2.5.5 1.625-.5 2-1 2-2.125 1.593-3 1.5-2 1.5-3.094 2.094-6 2-2.094 1-2 2.094-.5 2.5-1.5 3.594-2.094 5.125-3.5 5.593-1.5 3.5-2.093 3.094-2 4.594-.5 4.594-.5 4.5v4.625l.5 2.593-1.5 2.5-2 2.594-1 3.5-1 2.594-1.625 5.094-1 3.5-1.5 3.125-1 2-.5 2.593-1.5 2.5-2.094 3.094-1.5 2v2l-.5 2.594-.5 2-2.5 5.594-2.094 3.625-3 3.593-2 1.5-2.094 2.5-2 2.094-1 2 .5 2 1 2.094 1.594 2 1.5 1.5 1.5 2.594 1.5 2 1 2.625 1.594 2.5 5 5.593 6.093 6.594 3.625 3.094 4 3.5 2 3.094 2.094 2.5 2 2.125 3 2 1.594 2.5 1 2.593v2.5l-1 3.094-.5 2.5-1.594 3.594-1 3-1.5 3.594-2 3.625-2.5 4.593-1.593 4.5-.5 5.094.5 6.594 1.093 4.094 1 2v2.125l-.5 2-1.593 1h-1.5l-4-3-3.125-1.5-3.5-1.125h-2.094l-2.5.625-2 .5-1.5.5H640l-2 .5-3 3-2.094 4.593-1.5 3.094-1.5 3-2 2.094-2.593 1.5-2.5 2.5v2.094l.5 1.5-.5 3.125-1 2.5-1.5 4.093-2 3-1.125 2.094.5 2 1.125 1h1.5l3.5.5 4.593-.5h2.5l3.094-1 2.5.5 2 .5 1.594 2-.5 2.094v2.5l.5 2.594-.5 3.5-1.094 3.125-2 1.5-1 .5-2.5 1-1.594 1.593-2 1.5-2.5 1.5-1.5 1.5-.593 2.094-.5 2v1.5l2.593 2.594 1 1.5v1l-1 .5-2 .5-1.593.594-2 1-1.5 1-2 1.5-1.625 1-2.5 2.625-1 1.5v1.5l.5 2.093 1 2.5 3 3.594 2.125 4.5 1.5 6.188 2.5 4 2.593 4.125.407 1.125h1948l-2-116.032-2.407-149.218v-8.094l-.812-42.781-2.094-113.5-3-81.5-2.906-76.407-5.5-154.406-1.563-70.781z" style="fill:#9faec0" transform="translate(0 100)"/><path stroke="#9FAEC0" stroke-width="10" d="m626.313 1625.438 1.093 2.968-.5 1.5-1.5 1.5-3.593 2.594-2.5 2.5-3.125 2.5-2 2.594-1 2-.5 3.594-.5 3.5-.5 3.624-1 2v1.594l1 1h2l2.625-.5 2.5-1h3.5l2.093.5 2 .5h3l2.094-1 .5-.594 1-1 1.5-1 2.5-1 2.094-.5 1.5 1v2l-.5 2.594.5 2 1 2 1.5.594 1.093.5 2-1.094h1.5l2 1.594.5 2.5 1.125 3.094 1 1.5 1.5 1.5 2.5 1.5 2.094.5 2 .594 3.594 1.5 1.5 1 2 1.5 1 1.5.5 2.124.5 3.5-.5 2.094-2 2.5-1.5 2.594-2.594 1.5-2.5 2-3 1.5-2.093.594-1 1-1.5 2.5-.5 2.593v2.5l.5 3.125.5 2.5 1 2 1 3.594v2.5l-.5 2.594-1.5 3-.5 2.094-.5 3.5v6.593l-1 3.125-2 3-3.125 3.094-3.5 3.594-2.094 1.5-2 1.5-2.5 2.594-4.594 3-5.094 4.593-5.5 4.625-6.593 4-7.125 3.094-7.188 2-6.5 2.094-4.594 2-3.093 1.5-2 2.094-2.5 3-2.625 2.593-2 2.5-2.5 2-2.094 1.625-2.5 1.5-4.094 4.094-1.5 2.5-2.5 2.5-2 2.094-2.094 2.5-3 3.594-2.593 2.5-1.5 2.093-2 3-2.5 4.125-1.625 4.594-1 4-.5 2.094-1 2-2 1.5-2.594.5h-4l-2.594 1-1 1.094-1.5 2v4.593l1.5 2 1.5 1.5 1.594 1.5 1 3.625.5 2.594-.5 2.5V1870l.5 3.5.5 4.094 1.5 4 1.5 2.093 1.593 2 2.5 1 1.5 1.625 3.625 4.5.5 1-.5 3.094-1 2.5V1903l2 4.094 1.5 2 .5 2.5v2.593l-1 2.5-2.5 3.125-2.125 3-3.5 4.094-3.593 3-3.5 2.594-3.594 2-2.5 2-3.594 2.094-6 4.093-3.093 1.5-2.5.5-3.625 1.5h-6.094l-2.5-1-2.594-1-2.5-.5-2.5.5-1.594.5-1.5 1.5-2.5 2-4.093 4.125-5.625 5.094-4.5 2.5-5.094 3.094-3.594 2-3 2.094-3.594 3-4 4.093-2.093 2-3.5 3.125-3.625 3.5-2.5 1-.5.5h-1.5l-1.594-.5-2.5-.5-2.5.5-2.094.5-2 1.094-5.094 1.5-2 .5-3.593 1.5-3.5 2.594-5.125 5-1.5 1.594-2.094 3.5-2.5 3.593-2.5 2-2.594 2.5-1.5 2.625-2 3.5-1.5 2.594-1.594 3-1.5 2.094-1.5 2-2.593 2.5-2.5 1.594-2.5 1.5-2.625 2.5-2.5 2.593-2 2-5.094 5.625-3.094 3-2.5 1.594-2.594 1.5-3 1-2.5.5-2.593.5-2 1-1 1.094-2.125 1.5-1.5 2-3 4.094-7.094 10.593-6.594 8.72-4.094 6.593-1.5 1.5-1.593 1.5-2.5 2.594-2 1-1.625.5-1 1.5v1l1.5 2.093 1.125 2 1 3.125 1 3v2l-1 2.594-1.5 2-2.625 2.5-2 3.094-1 3-2.594 4.594-2 3.593-2.594 3.5-2.5 3.125-3.5 3.5-3.594 4.094-4.093 5.094-1.5 2.5-.5 2 .5 1.594 1.5 2.5 1 2 1.593 2.093 1 2 .5 2.625-.5 2.5-3.093 5.094-1 2.5-.5 3.094 1 3.5 3.593 3.094 3.5 4 7.594 6.093 1.594 3.125 1 3 1 3.094 2.5 4.5 2.093 1.594 2 1.5 1 2 .5 2.594 1 2 1.125 2 2.5 2.093 2 1 2.594 1.5 3.5 1.5 5.094 2.125 4.594 2.5 2 2.5 1.5 3.094 1.5 3.5.593 3.594v3.594l1 3.5 1.5 1.5h1.5l2.125.5 2.5 1.093 1.5.5.5 1.5-1 2-1.5 2.125-.5 2-1 2.5v2.594l1 2 3 3 2.594 3.594 1 1v1.5l-.5 2.094-1.593 1.5-2 1.5-3 1.5-1.625 2.593-.5 2.5-.5 4.125.5 2 .5 2.594-1.5 2-2.5 1.5-2.094 1-3.5 1-2.594.5-2 .594-2-.094-2.094-.5-2.5-2.5-1-3.594-2-4-5.593-5.625-3.125-1.5-3-1.594-5.094-1-4.094.5h-5.594l-3 .5-3.093 1.094-2 .5h-2l-2.125-1.094-2-1-2.5-2-3.594-4.093-2.5-2.5-1.594-2-2.5-2.594-2.5-2-1.594-2-1-2.594-1-3-1-4.125-2.5-5.094-1.593-3-3-2.593-3.625-1.5-4-1-5.094-1-9.188-1h-3.5l-2.594.5-3 .5-1.5 1-1.625 1.5-2 2.5-3 3.593-2.593 3-3.5 3.594-2.594 3-2 3.625-2 3-1.594 3.094-1 2v4.094l1.5 3.5 1.594 1.593 1 3 2.5 4.594 2 3.5 2.594 6.125 1.5 3.594 2 4.594v3l-.5 2.5-1.5 2.593-2.594 3.5-1.5 3.594-.5 2-.5 2.625-1 3.5-1.5 3.594-1.094 3-.5 2.594v6.593l2.594 3.5 1.5 2 1 1.594 1.5 1.5 1 3v2.625l-1 3.5-.5 2.594-1.5 4-1.5 2.594-.5 2.5-.594 2.593v1.5l-1 2-1.5 1.5-2.5 2.094-4.594 1.5-1.5.5-2.125.5-1.5 1-1.5 1.5-1 2.625 1 4 .5 3.094.5 3.5v3.094l-1.5 2.5-.5 1-.593 1-2 2.093-1.5 2-3.594 3.594-2 3-2 2.5-1.094 3.125-.5 3.5v3.375H2832l-.687-1.094v-1.5l-.5-2.093.5-1.5v-2l-.5-1.5-1.126-1.594-.5-2-1.5-3.5-.593-2.594-.5-2-1-3-1.5-1.125-1.594-1-3-2-1.094-1.5-1-2 .5-2v-3.094l.5-1.5.5-1 .5-1.093 3-1 3.094-.5 2.5-.5 2.594-.594.5-.5 1.5-1v-1.5l.5-2.094 1-1.5 1-2h1l1-.5 1.5-1.625 1-1.5.5-1.5 2.094-4.094 1-2.5.406-2.593 1.094-1.5.406-2.594-.5-2-.5-1-.5-1.5-1-2-.594-1.594v-1l.5-.5 2.094-2 2.5-1.625 2-1.5 1.594-1 1-1.094-.095-1.5 1.094-2 1-1.5 2-2.093 2-2 2-1.094 1.5-1.5.5-2v-4.094l.5-3 1-2.625 1-2 .5-2.594v-1.5l-.5-1.5-1.5-.5-1.593-1-1-1.5-.5-2.593v-2l.5-1.5 1-2.594 1-2 1.5-1 .5-.5h2l1-.594 1-1 .593-1-.094-2-1.5-2.625-2.593-3.5-1.5-4.594-1.594-4.5-2.5-5.093-6.719-6-7.094-7.594-2.593-3.094-1.5-2-2.094-3.5-.5-2.125-1-3-1.094-1-2-1-2.5-.5-3.125-.5-2.5-1-2.094-2-1-3.594-1.093-2.5v-2l-.5-2.093-.5-2v-2l.5-1.5.5-1.094.5-1-.5-1-1-1-1.094-2-.5-.5-1-2.094-1-2.5-.094-2.5v-2.125l.5-2v-2.5l-.5-2.594-1-2-1.125-2-.5-1.593-1.5-2.5-1-1-.594-1-5.094-5.094-1-1.5-1.5-2-1.593-1.5-.5-1.5-.5-2.594-.5-2.5v-2l1-2.125 1.5-1.5 1-.5h1.5l1.5.5h2.593l1-.094.5-.5.5-2 .5-1.5 1-.5 2-1.094 1.594-1 2-1h4.094l1.5.5 2 .407 1.5.5.5-.5v-1l-1-1.5-.5-1.5-.5-2 .5-2.094 1-1 2-1.5 1.5-.625 1 .5 1.625.5 1.5 1.625 1.5 2 2.094 1.5 1.5 1h1.5l1-.5.593-1-.593-1.125-2-3-.5-1.5v-2.594l1-2h2.5l2 2 1.093 1 1.5 2 2 1.094 1.594 1 2 .5 1.5.5 1 .5 2.094.5 1-.594.5-1 1-1.5h1.5l1.625.5 1.5 1.5h.5l1-.5v-1l-1-1.594-.5-1-1.125-1.5-3-4.5-1.094-3.093-1-2-2-2.5-1.094-1.594-1-1.5-.5-1.5-.5-3-.593-2.625-1.5-3-.5-2.594v-3l1-2 1.5-1.594 4-1 1.593-1.5 1.5-2.593.5-2 .407-3.094.5-3.5-.5-3.125-1-2.5-1.594-2.594-1-3-1-2.5-.625-2.594.5-2 1.125-1 1-1.093.5-2.5-.625-1.5-1.5-4.094-2.594-4-6.594-8.625-4.593-6.594-1.094-3-1.5-3.594-1.5-2-2.125-1.5-3-1-3.594.5-2.5.5-3.094.594h-10.093l-4.594 1.094-2.5.5-2.625.5-1 1.5v2.125l1.125 1.5 1 1.5v3.594l-1 1.5-2 2-2 2.093-3.125.5h-6.594l-3.5.594-3.094-.5-3-1.5-4.593-3.094-3.594-2.5-3.125-1-3.5-1.5-4.094-1-3.5.594-1.594.5-2.5 1-2.5.5-3.093-.5-3.5-2-2.594-.5-3-1-1.625-.5-3-1-1.594-1.5-2-2.5-2-2-2.594-1h-5.093l-2.5.5h-3.094l-3-.5-1.5-1-2.625-2-4.094-3.5-8.094-8.094-3.093-2.5-2.5-2.093-2.594-1-2.5.593-1 1v2l1 2.594.5 2v2l-.5 1-1.5 1.094h-1.5l-1.5-1-3.125-3.594-2.594-3-2.5-1.5-2-1-2.094-.5-3.5-1-2.593-1.5-2.5-3.594-2.594-3-1-3.093-2.125-3-2-2.5-4.094-6.094-2.094-6.125-2.5-5.594-3.093-8.094-1.594-5.093-2-2.5-1.625-2.5-1-1.5-1-2.094.5-2v-1.5l-2.094-1h-1.5l-2 1-1.5.5-2.594-1-1-1-1-2-1.093-2.625-2-2-2.5-1h-2.594l-1.5 1.125-.5 2v1.5l4.094 9.094 2.093 2.593 3 2.5 1.594 2 1.5 2.594.5 1.5-.5 2-1 1-2 .594-2.094-.5-2-.5-2.5-1-4.093-4.094-5.594-2.5-6.625 5.094-10.688-12.094-28.5.094-1.5-2.5-9.187-14.687 10.094-1.094-4.72-38.594 21.813-1.625-2.093-6.094-3.094-7.593-2.5-5.594-2.125-2-2-2-1.5-1-2.594-2.094-2.5-3.5-1.094-2.625-.5-3.5-.5-2.5.5-3.594.5-4.093.407-4.594 1-5-.5-5.594v-5.125l.406-3.594.5-4.593 1-3.5 2.5-4.094 3.094-2 5.5-5.219 1.5-2.5 1.593-2.094 1.5-2 3-2 1.5-.094h2.594l4-1 1.5-1 1.5-2.093.5-1.5.5-2v-2.094l-.5-2-1-2.5-1-2.625-3.094-4.5-11.687-11.688-4.125-5.5-2.094-2.593-1.5-3-1-2.594-.094-3-.5-1.5-1.5-1.625-2.094-3.5-1-1.5-1.5-2.594-.5-2.5-.094-3 .5-2.594 1.5-2.5 3.094-3.093 2.5-4.094 1.5-2.5 2-2.125 2.594-1 2-.5 2.5-.594 2.5-.5 2.094-.5 1.5-1 1-2.094 1-3 .5-4.093 1.5-2.5 2-2.594 2.5-1.5 2.593-2.125 1.5-2 1-2.594v-2.5l-.593-2.594-1.5-3-1.5-2-4.094-3.093-3.594-3-2.5-1.5-4.094-1.5-2.5-2-1.625-1.594-.593-13.719-.782-44.656h-1948zM59.5 2334.688l-1 .5-1 1.5-1 1.624v3l1 2.594 1.5 3 1 3.094.5 3.5-.5 3.594-2 3.5-2.594 2-3 2.094-3.094 1.5-4 2-3.624.5-3 .5-5.094.5H31l-3-.5-3.594 1-4.5.5-2.094-.5-2.5-.5h-2.624l-2.5 1-3 1.5L0 2376.812l2.531 61.376h138.375l-.094-.282-1.5-4.093-1.625-3.626-1.5-2.5-1-2-3-4.593-.593-2.5-1-2.594-1.5-3-1.5-1-1-1.094v-6.593l1-3 2-3.626 1.5-3.5.593-3.093v-2.5l-1.093-3.594-2-6-3-6.094-1-2.593-1.594-2-2-2-2.5-2.626-2.094-1.5-3-1.5-2.594-2.093-2-2.5-1.5-2.594-1.5-2.5-1-3.5-1.125-3.094-2.5-2.5-2-.5-1 .5-2.093 1.5-2 2-2.094 1-3.5 1.5-3.594 1.094-3.5.5-2.594-1.594-8.125-8.093-4.093-2.5-2.5-1.626-2-.5z" style="fill:#9faec0" transform="translate(0 75)"/><path stroke="#9FAEC0" stroke-width="10" d="M2.531 2438.188 4 2474.312 7.906 2623.5l5.782 163.5 1.906 55.406.312 10.5 3 76.5.5 15.594 1.406 46.094.094 8.312.407 12.594 1.281 28.406-.281 11.094L24 3101.313l.813 148 .03 1.593h1764.22l.25-4.093 2-29.907-10.813-13.718-11.687-15.688-4.626-7.594-3.593-.5-6.594.094-7.687-4.093-.5-7.094 3-14.719.5-8.594 3-10.093 7.593-8.22 7.094-9.593 2.5-4.594 3.594-6.093 2-5.094v-4.5l5.594-9.719-3.594 11.719-2 9.094-3.5 7.093-1 3.094-3.594 6.094-2 7.625-3.5 9.094-2.5 7.093-2.594 9.688 4.188 10.625 14.719 5 4.093 12.187 5.188 10.594 5.594 8.594 8.718 4.5 6.094 3.125 6.094.375 7.094 2.5 1.624 3.125 2.594 4L1827 3237.5l4.094.5 2-7.593 2.5-3.594 2.5-2.5 2.594 1.5 2.5 1 .124 5.594-4.624 8.093-2 7.094-.594 3.313h340.312l-1-3 4.5-.095 7.188.5 1.344 2.594h46.343l-.375-.218-14.812-6.594-10.188-3-5.593-5.5 1-7.594-1.5-3.594-3.126-3-.5-4.593 3-2.5 8.72 2.5 4-3.126 1.5-8.093 4.093-4 8.594-3.594 17.312-4.187 8.188-.5 3.5 3 6.719 3 6.093 9.593-5.593 2.594-10.72-6-9.687-3-8.093 1.5-6.626 4.594-2 8.094-1 9.718 6.72 14.594 13.843 9.906h285.656v-.094l-8.718-4.5v-4.125l1-3 2-1.593 5.124 1.5 3.094 4.093 4.594 7.5h3.594l2-3.5 1.5-3.093.5-1.5 2-2.5 1-2.594-2-9.094-1.094-1-.5-5.594-1-3 1.5-5.625 3-1.5 8.688 1.907 6.124 8.593 1.594 4.125 2.594 5 3.5 2.594 2.5-11.219-3.594-8.593-8.718-6-9.688-1.5-1-5.094-5.594-3.5-1.093-9.094 5.687 5.5 6.594 4 2-2v-9.594l2.5-6.625 3.5-2.093 2.594 7.593 3.624 10.125 1.594 4.594 3.594 9.094 4.094.5 3-3.594 1.5-17.219.406-9.093V3174l1.5-2.594 4.594 3.594 1-7.688-.594-11.125 3.594 3.5 2.094 9.125-.5 10.188 1.124 8.594 3.594 4.5-6.093 2.593-1 7.625v6.594l3.093 6.594-1 2.5-1.5 4.094-7.593 3.593-7.126 7.125 1.126 11.094.656 7h17.469l1.156-10.594.5-6.625-6.188-1.5 2.594-5.093h3l8.188-1.5-2.094-3.094 2-3 2-5.094 3.594-11.219-2.094-4 5.094-4.093-.594-7.594 5.594 1 3-10.188-3.5-3.5-1.094-6.625 3-3 5.594-3.093 3.124-1 3 2 .5.5 1.094 5-.5 7.593-2 6.625-3.5 8.188-2.5 6.594-1.5 4 4.094 3.593.5 2-1 3-1 3.625-4.094 4.594-3 3.5-1.5 4.594v4.094l1 2.5 3.594 6 4.594 1.5 3.594 1-3 5.093 1.812 4.219h30.781l.532-.312 1.5-1 1-4.594v-5.594l1-5 2.5-2.094 2-1 4.093-1 2.594 4 5.094 1 3.5-7.625 3-13.687-2.094-5.094 3.594-6.094 2.5-1.5 7.594 1.5 3.124-2.625 3-.5 3.094 7.625 2.094 5 9.188 1.5 1.5 1 2.124 3-3.624 5.094-6.594 1.594-4 5.594-1 4.5.5 2.093 6.094-1.593 1.5 2-2 4.093-2.5 4.125-.5 3 5.124 1 11.688-1.125 12.188-4.093 9.718-1.594 6.594 1.5 9.094-4.594 3.594-3.094 2.5-5.125-2.594-9.093-8.188-11.094 3.5-9.094.5-8.594 4.5-12.218 2-7.594 3-8.188-4.093-3.5-1-7.625-2.126-2.5-5.093-3-3.594-2-4.594.5-4.5-1-2.093.5-.5-3.5 6.593-5.093 10.188 3.5 8.594-3.094 7.718 2 .907-10.188-6.126-5-1.093-8.125 5.094-4.593-6.188-9.094 2.594-4.094 12.219 9.094 4.687 11.594-3 6.093-2 8.719 3.594 5.5 2.5.5 2.594-1.5 2.5-6.094-1.594-3.625 10.219-6.093 1-3.094 1-4.5 5-1.094 11.28 16.188-1.905 10.093-1 5.625v4.594l4.624 4 9.094-3.094 5.594 1 4.188 6.594 6.124 7 7.594-4.594 2.5-3 10.188-2.625-2-1.5 4-6.687-5.094-4.5-5.094-8.094-4.718-5.5 2-9.719 2.5-8.093-.5-11.094-4.094-5.094-.094-5.594 3.094-2.5 5.093-.5 2.5 2 5.625-1.125-1 4.625-2 6.594-1 6.094 3.094 5 3.594-3 2.5 2-5.5 8.094 6.094 4.593v7.125l-5.594 1 .594 4.594 5.093 7 1.125 9.594.5 8.187 4.094 7 4.094 3.625 4.594-4.125 2-3.593 1.5-4.094 1.5-2.5 1.5-4.594 2-5 2-5.094-.5-8.625 6.093-3.093 4.125 9.593 4.094-1.093 2.5-2.5 1.5-4.594 2.5-4-1.5-5.094-8.219-3.5-4.093-1.5 2.5-8.094 7.218.875-.125-7.093-3.093-6.5-5.594-7.594-6.594-.5 2.5-7.094 5-5.094-4.594-2-8.125.094h-3.594l-5.093-1.5 6.093-6.094-.5-6.124-.093-3.5 1-4.094.5-4.094-6.188-14.594 4.594-.594 8.187 1.5 2.5-.5 2 1.5-4.5 7.594v6.594l.094 9.594 10.719 3.5 3.094 1.5h7.593l1-1-.5-1.5-.5-1.594-4.593-2.5 1.5-6.094 3.5-5.094 7.187 3.5 6.625 3.094 11.188-6.219 6.093-2.093 8.594-3.594 5.125 1.5 2.5 2-1.5 4.094.094 4.093-3.594 3.5-3 4.626 3.594 10.593-4.5 9.188v5.593l-9.094-1-4.124-.5.5 5.626 1.124 2 1 4.593 9.094-4.094 5.094 3 3.594.5 3.593 5-1.5 5.094 4.126-1.094 1 2.094.5 2.5.093 4.094v3.5l1 7.594 3.094-2 1 1.5v5.5l-1.5 1.093 1.594 2 2 1h4.094l1 .5 3-2.093 1.5-4.594 2.625-1 6.094 1.5 4.593-2.094 1.5-2-1-2.5-8.187-6.594-4.625-.906-1.094-5.594 1.5-7.624-2.094-8.094v-5.594l7.594-3.094 9.219-.594 5.094.5 2 3.594-1.5 6-2.5 5.594-.5 3.594 2.093 4.5v2.093l1 2.5 5.594 1.5 1.594 4 10.219-1.593 7.093-3.594 7.094-1 6.094-.594 3.125-2.5 1-2.5-5.219-3.594-8.094-3.5-5.093-3 4-3 7.687 1.376 1.5-3.5 6.594-.095 10.719-1.593 8.593-2 6.094-4.094 3-9.219 3.5-10.594 6.594-6.687 7.625-6.094 6-6.125 3.094-6.594.406-7.687 5.594 2 2-7.094 3.5-8.125.5-7.094-3.594-3.5-6.125-2.5-4.594-.5V3000l4-1 7.719-1.094 3-1.5 1.5-.5 5.594.406 8.187 3.5 4.594-2v-3.625l.406-3-.5-4.094-4.594.095-1.5-3.094 3-2 6.094-3.594 4.594-3.594-4.094-4.5 1.5-4.594 4-1.5 4.594-2.124 4.125-1 1 7 .094 6.124 3.5 1.5 4.594-5.124 6.593-2 8.094-3.594 6-10.188 1.5-6.094 4.125-3.124 6.094-1.094 2.5-3.5 5.5-8.688 1-3.5 5.594-2.594 7.593-3.124 9.72-2.094 5-6.594-2.5-5.594-3.126-1-9.094 3.094-8.093 4.594-4.094-.407-3.219-10.687-1.5-9.094-2.094-6.094-.094-7.624 4.094-4.594 3-2-1-4.594-.5-1.5-1.594-1.5-3.5-1.5-4.093-.5-4.094 2.094-2.5 4.093-1.5 2-3.625 1.5-1.5-3-1-3-.094-3.093 3-6.094.5-5.594v-2.5l-9.688-6-.5-4.094-1.593-3.5-8.22-7.124-4.593-6-5.594-6.094-4.593-.407-6.125 2.5 1.625 6.626 5.093 8.593 4.594 8.094 1.594 6.594 2.594 9.093 3.625 6.626 2.093 5.5 3.094 5.093v2.5l-6.594 2.094-2 3-1 8.188-3 4.624-3.593 4-4.5 5.094-6.125 1.094-1-3.594 1-3 2.5-3.594 2-7.624 1.906-14.188v-8.094H3165l-6.094 5.094-2-1.5-1.5-2-2.093-2 1.5-2.594 2-2.5-.5-6.594-4.125-9.124h-6.094l-4.094-1.5-4.687-12.094-5.125-2-3.5 3.5 3.125 11.218 7.187 8.594 4.594 5.5-.5 5.094-3.5 2.5-2.594-5-.5-1.5-8.687-4-2.5 2.5-.5 3.594 4.093 5.5 3.094 5.093 7.094-2.593 2.094 5.093 1 2.5-4.094 1.5-4.094-2.5-4 1.626-1.5 5.093-6.094 1.5-3.093-2-3.625-14.719.406-9.093-1-4.594-2.094-2-10.094 1.094-2.593 4.093 1.593 8.626 2.688 13.687 1.5 9.094-.406 9.093-1 12.72 1.125 5.593v4.5l-6.125-.906-4.094-3.094-6.094 1.594 2.5-9.094 2.5-6.094v-10.219l-.594-14.187-.094-9.094-9.312-16.219-.5-3-3.594-2.5-6.594-1.5-7.125-.5 1.5-1.5-4.093-3.5H3059l-3.5-2-.094-3.093 1.5-5 4.594-3.094 1-4.094-7.188-6-8.125 1.094-2.594-2.594-1-4 3.5-2.093-1.5-5 6.094 1.374 6.625 2 4.094-1.5h5.094l10.187 9 5.625 2 6.094.5 3.594 4.5 5.687 11.126 4.125 4.093 5.094 2 4.5-8.218-.094-10.594 4.094-1.094 2.093 6.594 2.5.5 2.5-8.094-5.093-5.094-4.594-7.5-6.719-6.093-8.594-.407-9.187-4.5-7.719-6.593v-4.626l5.094.5 2.5 1 1-6.593 6.125 5 3.594 1 6.093 4.594 5.594 3 2.594 2 7.125 1.5.5-5.094-1.625-6.594-18.781-9.5-1.094-6.594 3-3.593 6.687 6.593 6.094.907 3.094 1 5.5-2 3.5-7.626 3.625 1.407.594 8.219 1.5 5 3.593 7.093-.906 6.094-2.094.5-.5 2.594 6.688 5 7.625 3.5 3.094.5v-3.594l-3.094-4.5v-2.594l3.5-2 3.594-4.593 9.593-1.126 1.5-8.593-1.593-6.594-.5-3.5 1-3.594.5-2.5 4.093 1.5 5-2.593 1-2.626-1.5-4.5-6.187-4-.5-6.593 2-6.094-10.313-19.187-10.406-26.407-6.094-10.093-6.187-4-1.5-2-6.125 2.593-4 .5-1.594-3.5 5.594-3.593-.594-5.126-6.094-5.5-5.094-3-4.593-3.593 2-7.594 4-2.094 2.093-3 .907-4.593-2.125-15.72-6.188-13.687-12.812-13.593-3-2.5-10.282-20.22-5.218-15.687-2.094-8.218-5.094-5-5.094-1-13.812-1.376-6.594-4-6.094-1-12.218 1.594-9.188-2-7.094-4-5.593-5-10.813-7.093-9.094-3.5h-3.593l-3 .593-3 8.094-4.5 12.188 2.093 11.218v4.5l-3.5 5.094-3.093 3.094-7.125 2.594-3.5 4.624-1.5 4.594-3 3.5-5.094 2.594-4.594 3.094-6.594 1.5-4.5 1.094-7.718-4-12.188-10.094-5.687-8.094-3.125-5.094-4.594-2.5-17.781-6-2.125-6.5-1.5-6.093-2.094-6.126-7.187-7.093-6.594-4.5-5.125-7.094-1.594-5 .5-8.187 2-12.22 3-2-2.594-5.593-2.594-6.094-5.093-9.093-3.125-4-1.5-2.5-1.5-2.126-2.094-1-1.5-1-1.5-.5-1.594.5-1-.5-1.5-1.5-1.594-3-1-3-2-3.593-.906-1.406H179.905v1.218l.5 5.094 1 4.594 3.094 4 2 1.5 1.5 2.594-17.187 5.624-5.625 1.5h-3.594l-2.5-1-3.094-1.624-2-1.5-3.594-2.5-3-2.594-2-3.5-2.093-3.594-1.5-4v-2.594l-.907-3.218zm3179.157 330.718-4.094 1.5-3.5 5.094 2.094 4v2.594l-3.094 2.5.094 3.094 1 5.624 2.625 4 4.094 4 1.5 4.094 2.093 3h3.5l2.094-1 4.094 3v1.5l-2.5 3.094 2 6 2.125 2.594 4-2.594 1-1.5 7.187 3 5.094 5h2.594l3-2.094 2-1 2.625-1.5-.125-6.093-.5-4.626-4.688-8.593-5.593-2-6.594-2-4.125-2.5-1-2-.5-4 .406-3.594-1.5-4-4.094-3.094-4.093-3-3.594-2.5-2.5-2.5zm-201.282 366.907-3.593 4.093-4.5 3.5 2 6.094-7.126-2.5-2 2.594 1 5.5 3.626 5.094 2.593 3 7.094 1 6.594-1.094 7.094-6.594 3.124 1.5 3.5.5 2.094-.5-1.093-3.094-.5-2-.5-2.5 6.093-.593 3.594-2 .5-2.126-3.094-.5-2.593-.374-6.126-1-4.5 2-1.093-1.5-3.5-2.5-3.094-3.5zm-66.593 20.687-3.126 3-2.5 5.594 1.626 2.5h2l3.5-4.094 1-2 1.593-3-1.093-1.594zm13.187 2.406-2.5 2.094-1 4-.5 4.094.5 2.5 2.094.5 1.5-2 2-5.594.5-3.094zm-116 7.282-2 2 .5 3 .5 3.624v3.5l-2 3.094-4.094.5-4 1.594-2.093-2-1-4.094-2.626-2.5-3.5 1-2.5 6.594v6.594l3.126 5.094 2.5 4 2.093 3 2 2.624 3.594.376 4.094-1 3-1 2.094-1.594 1.5-3.5-.594-2.5-2-2.094-1-2.5 1.5-3 2.5-2.094 3.594-.5 4.124 2 2 2 3.094 1.5 2.5 1.5 3.094 1 3-.5 2.094-1 1.5-2.093-.5-3-1.094-3-2.5-2.626-3.094-1.5-4.093-1-4.126-1.5-2.5-2-2.593-3-1-3-2.594-2zm95.188 6.5-2 1.624-1 3.5.5 3 3.624 1h2.5l1.594-3-2.593-4.124zm35.218 6.406-3 1-2.593 3.094-1 3 1.093 2.624 2 1.5 1-1 2-3.124 2-4.094.5-1.5zM2860 3190.688l-4.094 1.124-2.5 2.5-1 4.094 1.5 2H2857l3.5-2.093 1.594-2.5.5-2.626zm-37.594 13.906-5.093.094-4.126 2-5 2.125-4.093 2.5 1.5 3.594 2.094 1.5 4.124.5 3.5-.594h4.094l5.594-2.625 7.094-2 1.5-1.094 1.5-2-1-2-4.594-1-4.094-.5zm-119.093 5.812-3.626 2-3 6.094-1.5 7.594v6.094l2.126 5.124 4.093-.624 3-1.5 1.5-4.594.5-6.094.5-4.5-1.093-6.094-1.5-3zm-899.813 7.907-3.094 2.093-3.5 14.688 1.094 6.094v8.124l-.125 1.594h25.344l-1.813-6.312-1.5-4.5-6.218-12.188-1.5-4zm992.094 19.874-2 1.626v4l2.5 2h3.094l2.5-1.5v-2.626l-2.5-2.5zm-230.688.813-3.593 1-1.5 2.5-1.5 2.594-1 4-.25 1.812h10.343l-2-4.812-.5-2.594z" style="fill:#9faec0" transform="translate(0 50)"/><path stroke="#9FAEC0" stroke-width="10" d="m24.844 3250.906 3.969 150v7.594l-.125 8.094 2.625 99.5.187 18 .406 14.5.281 11.312.22 25.094.093 16.813.688 105.874v2.126l1.906 94.687 1.406 58.688 1.688 160.406.625 39v1.031h700.406l5.469-3.031 2-3.094v-4.5l-1.5-1.5-3.594-1.094-1-3 4.094-1 3.5-4.594 1-5 2.625-3.124h3.593l1-4-1.593-2 2.093-6.594 9.094-2 3.094-5.094 1.5 2.5-3.5 9.094-4.094 7.094-4.094 7.624-3.5 3.594-4.093 7.5 1.5 2.094 2.593.5 3-5.094 4.094-2.5 4.594-3.094 2-1.5 1.594-7.624 3.5 1 2.125 2.124 1.5 1 1.5-2.124 2.093-2 2.5.5-1 6.624v4.594l-3.593 2.5 1.593 4 5.094-4 3-2.5 2.094-4.594-3.094-3 2-3.624 1.594-4 4.594-1 4-1.594 1.125-3 .5-5.594 8.593-11.594 9.188-9.594 7.594 2.5 3.625-4.624 2.5-2 4.093-3.5 4.094-1.594 2 3.094-2.5 6-4.594 10.218-6.593 8.094-6.125 6-9.688 14.188-.5 2.624 2.594.5 9.094-9.218L840.5 4016.5l4.094-9.187h2l.5 4.093 4.594-1 6.718 1 4.5-3.594 5.094-4.5 3.094-4.624 3.594-1.5 2 4-4.094 3.624-4 12.094-2.594 1-2.5 5.094.5 1.5-6.594 6.094-5.093 8.094-.5 11.124-3.125 4.594-3-.5-7.188 5.594-1.844 4.125h15.094l1.063-2.125h2.093l1.344 2.125h3.125l.125-.125 2.5-9.594 5.094-2.594 4.094-7.124 3-9.594-2.594-5.5 5.594-14.188 7.718-13.719 3-2-.5 4-2.5 16.72 1.5 1.593 2.594.5 3.5-8.094 1.594 1.5-1 10.094-1 10.594-2.594 11.719-1.5 2.5-1-2 .5-6.126-3.594-10.593-2.593 1-3 10.594-5.125 10.718 6.125 4-1 5.094-.282.625h17.094l1.563-3.219 3.5-19.719 2.625-9.593 5.093 3.5 2.5 4-.5 4.094 3.094 6.124-1 10.594-4.531 4.219h13.687l-.468-5.219 3.5-8.094-.5-12.218 1-12.594-4.094.5 2.5-11.187v-5.5l2.594-2.626 1.5-1.5 1.5-7.593-2-7.594 4.125-.5 3.5-7.094 1.593 3.094 1 7.594 3.5-5.594 1.094-7.594 5.094 1 4 3.594-7.594 11.094-.5 4.5 3.094 4.594H940.5l-1.5 7.124 2 2-5.094 4.594-1 6.594 2.094 14.094 2 1.5 3.094-3 6.594-2.594 3.5-4 .625-3.5 3-2.094 2 .5-4.5 13.688-2.625 9.094-2.5 6.624-4.094 3-2.5 4.094 2 1h3.094l1.5-3 3.125-2.094 5.093 5.094-.094.219h28.125l.47-1.312-1-4.5-3 2.5-2.095-2.5 3.594-5.126 4.594-1.5v-4.593l-4.094-9.094 3-8.594 5.594-3.5 4.094-15.219 1-18.187-.594-5.094-1-4-2.5-1h-5.094l-5.094 1-2.125 8.594-7.093 2.5-1-5 4-6.094 4.593-6.094v-9.624l4.625-13.188-.125-26.812-2-8.094v-6.594l1-4.5-.5-2.5-3.593 3-3.594 1-2-5.594-5.594-4.5-1.594-12.094 3.594-4.624 2.5-6.094v-8.094l-1-3-2-1.5-3.094 4-3.625 5.594-1 4.094-3-1.594-6.187 1.094-5 5.5-8.188 8.624-4.125 3.594-2.5 1.5-4.593 2.5 3-10.594-3.5-6.124-1.094-5.5 1.5-9.594 2.094-6.094 3.5-4.594 8.718 3.594 4.094 2.5 4.094-9.594-.094-9.719.5-7 9.687-2.593 6.22.5 1-6.094 4-4 1.593-9.594 2.5-12.719 2.5-5.593 9.187 3.094 7.72-1.094 5.5-17.188 1-7.594 3.593-8.624 1.5-3.5 4.094-3.094 3.093 9.094 3 9.624 7.72 2.594-3.126 9.594-.5 4.5-2.5 4.094-6.594 5.594-10.187 2-5.594 2.624-2.5 11.594-1.125 4.594-2 13.094-4 7.594-3.594 8.124.5 4.094 2.594 9.594.5 9.094-.5 15.719 3.125 10.593 3.594 6.594.5 14.688 2.594 23.218-1 12.188-1 8.594 2.593 9.124 3 6.594 2.094 16.188.5 16.719-5 16.093-2.094 8.594-3 7.594 1 3.594 1.5 2.5 6.22 3.5 1.5 2.624 2.5-2.124 2.093-11.094.5-6.594 3-1 3.594 1.5 1 2-.5 6.094-4.094 5.594.594 8.124-.844.813h47.625l-.375-1.937 5.594-9.594 3-10.594v-7.094l1-7.094 3.593-11.718-7.187 1.594-8.594-2-5.625 9.124-7.593 22.782-1.094 4-6.094 6.594-2-5.594 5.094-17.188 7.094-16.719 2.5-10.093-.5-9.094-1.594-8.594-3-5.094-2.594.5v-3l-3.594 4.594-1 8.594-7.625 4-2.593-2.5-4.094-7.594 1.594-3.5v-10.094l-5.188-5.624-3.5-6.594.5-2.5 1.5-.5 7.094 3 1.594 4.094 2-1.594-.5-14.094 3.5-4.094 3.093-6.094-3.593-6.5 1.5-2.624 3.593 1.5 2.625-2 3.5.5-3.5 4.624.5 7.594-2 10.094.5 2.5 2 1.5 2.594-1.5 5.094-7.594 2.5-7.094-1-12.624 2-11.688 6.094-3.5 7.593 1.5 2.125-5.594 7.094 3 2.094-1.5-.594-4.5-.5-4.094 2.094-1.5 1.5.5 2.5-.5 14.312-32.906 1.5-5.094 5.094-8.624-1.594-1.5-3 2-1.625-3v-3.594l1.625-2 3-1.5 5.094-.5 2-7.094 1-6.094 1.594-2h4l2.594 1 4.093-1.594 6.625-6 .5-6.124 7.094-10.688 3.594-6.5h3l1.094 2-2.094 8.094 2.594 6 .5 6.594-8.094.5-3.594 4.124-3.594 2.5-6.125 9.188 3.125 5.5-3.625 7.594-4.5 3.594-2.593 9.124-5 14.188-7.094 26.313-3.594 17.687v3l3.094-.5 5.594-4 9.718-7.094 5.594-1.5 2 4.5 7.688 3.5 8.093 2.594 3.125 5-5.125 16.188-4 6.124-2.594-2.5-1.5-9.718-2.593-3.5-5.094-5-5.094-.5-6.625 4.5-1 9.594-2.5 19.812-1 10.094-1.594 9.094-4.5 2.124-4.593-.5-3.594 4-1 3 2 2.594 2.094 1 2.5-2 7.187 2.5-.5 7.594.5 7.5 13.313 3.594 1.5 4 8.187-4.594 9.125-.5-5 12.688 1.5 6.124 3.094 5.5 4.594 1 4-16.218 3.093-5 2.5-2.094v-5.5l2-5.094 3.094-.5 6.625-2.094 1.5 2.094-2 6.594 2.594 2-2 9.594-2.094 17.219-5 2-3.625 2.093V4056l10.719-1.5 5.594-8.687 4.593-9.626 3.5-13.593 1.5-14.188-4.593-6.594-4.594-5-.5-5.124-3.594-1-1-4.094 2-5.5-1-17.188 4.094-1 5.5-12.719 2.094-4.093-.5-6.5-3.594-5.594-4.594 5.094-4.125 1-3.5 9.594-4.094.5 2.5-11.094 3.594-5.094-1.594-3.5 9.22-28.406 1-2.5 2-11.094 2.5-7.094 2.593-4.094.5-6.624 3-5.5 6.594-.594 2.593-8.094 5.594-9.094 1-5.594-1.594-6.5 2.594-8.624v-7.594l8.625-9.188 4.094-.5v11.688l-2 2.5-2.094 3 .594 3.594 1 13.718-5.594 15.094-2.5.594-2.125 1-7.594 9.094-3.593 3.5-3.5 10.718-8.594 23.781-3.094 11.126 2.594 2v4.093l5.594-.5 4.593-4.094 1.5 2-2.5 5.094 1.5 7.594-2 9.094 2.094 11.094-1 8.124-2.094 2.594-1 3 1.594 6.094 1.5 2.5-.5 6.094v7.594l-1.5 2 .5 9.124h2l2.125 3-3.625 4.094.125 11.094 3.5 3.594 3.094 6.5 4.094-1 1-6.094-1.5-2.5.5-6.594 4.5-8.594 1-2-2.5-6.624-4.594 1.5-2.594-5.5 1.5-8.094 5.094-4.594 1-6.594v-6l-3-1.5-1.594 6-1.5 3.094-2.5-.5-.625-11.687 2.125-3 4.594.5 2.5-2-2-3.626.5-7.093 1-9.094 3-2.5 1.594 2-2.094 10.594 1.094 1.594h2l1-3.094 5.593-6.094 1.5 2.094-.5 3 1.094 7.094-5.594 8.624-1 7.594-1.5 8.594v3.5l7.094 2.5 11.219-10.094-.5-14.719 3.5-1.5 3.594 11.626L1223 3980l-2 4-2.094-.5-2-1.5-2.094 3-1 3.594 4.094 4.5-1.5 6.594 4.094 9.624 1 9.094 2.093 4.594-2 12.094 2.5.5 3.094-2.5 1.5-1.5h2.625l1.5-6.094 5-12.187 3.094-10.126L1247 3991l-5.094-.5-.5-3 6.594-2.5.5-3.094 4-11.094 2.093 5.094 2.5-2.094 9.72-21.312 2-21.687 4-16.72-2-.5-3.126 3h-1.5v-4.5l1.5-4.093h6.625l5.594-24.312 9.594-20.282-1-6 5.093-6.094 4.594-1.624-2.594 7.624.594 5.094-2.594 6.094.5 1 1.594 1 2-1 2.625-2.5 5.094-4.094 5-8.594 4.094-5.624 5.093-8.594 3.5-6.594-1.5-3-3.593-3.594-5.594-1-3.094-6 3.594-12.219 6.594-1.5 3.593-5.593 2.5-7.094 4.594-3 2.5 2.5-2.5 11.094-1.5 10.094 6.125.5 4.594-11.094 1-8.594-2.094-13.687-10.719-9.126-1-6 3.5-8.687 4.594-1 5.125 13.688 6.594 1.5 7.187-.5 6.094.5v5.5l.5 7.624 3.625 4.094v7.594l-6.125 6-.5 6.094-11.687 7.094-4 6.124-4.094 4.094 3.094 3.5 9.593-2.5 5.094-9.219 2.125 2.626-6.625 22.187-4.687 10.813-3.907 8.5 1 11.093-4.593 12.188 1.093 2 3 .5 3.594-2.5 4.625-6.094 1-3.094-2.625-2 1.5-3.5 4.625-4.094 4.094 1.5 1 4.594-2.5 8.094.5 1.5h2.094l2.5-1.5 6.093-4.094 1-4 4.594-2.594 3.125-5 1-8.124 2-.594 2 .5 3.094 3.594 4.094-1.5 6.593-9.188 1.5-1.5 2.094 3-6.094 10.688-4.093 3-3.094 4.624 2.094 1 2.5-3.124 1.093 1.624-1.593 7.594-5.5 6.594-1.094 7 2.094 1.094 3-4.094 1.593.5 1 2.5-2.5 8.594-6.093 5.094-4.594 6.624 2.5 3 7.187-2.5 6.594-14.718 6.125-2.594 5.594-.5 2-7.594-2-6.5-2.594-4.594 1-5.124 3.594-7.094 3-4 6.687 14.094 9.094-4.5 2.125-9.094 4.5-5.594-1-6.094 6.594-5.594 2-8.624-2-4.5 6.094.5 3.593 7 7.094-1.5 5.125-3.594 3.094-5.5 6-9.688 2.094-5.5.5-8.094-1.594-4.624-1.5-4.5 4.594-.594 2 3.594 2.593-1 2.5-5.594 3-8.094 3.594-6.094 5.125-6.094 3.5-2 3.094 1 3.594 4-4.094 11.688-3.5 1-2.094-4.094-2 5.094-1.5 3.594-1 3.5-2.625 3.594.5 4.5-1.5 6.124-5.094 4.594-3 5.5-6.093 6.594-11.188 15.188 1.5 2.624 9.188-5.624 1.5 3-8.594 6.124-3 10.094-2.594.5-.5-4-4.625-.5-2 1.5-3.594 8.094-2 6.594-3.093 4.094-6.094 2-5.594.5-1 7.624-4.125 3.594-1 4 6.219 5.094-2.594 4.5-9.219-1.5-5 1.594-1.093 7.094 3.593 3 5.094-1-2.5 6.624-1.5 5.5 6.625 2.5 5.594 12.188-4.5 4 .5 2.594 13.687-8.688 2.094-6.594 7.125-1.5 2-3.5 1.5-3.624-1-4h3.594l2.5 3.5-1 3H1460l1 3.124 3.593 1.5 3-1.624.5-7 9.22-8.188 3-6 1.593-5.094-.594-4.094-5.625-2-4.094.5-1.5 2.094-4.093 1.5-1-3.5 4.593-4.594 5.594-1.5.5-4.624 3.625-2 2.5-5.594.5-5.094-5.125-1 1-9.094 3-3.5 1.625-7.594 2-1 1.5 8.094-.5 2 2.094 2 6.094.5 3-3.594-1-5 5.093-4.124 3.094-.5 2.5 2.5 5.125-1.5h14.781l4.094.5 3-4.594.5-3 1-2.594 3.125-7.094 3.5-3.5 3.594-4.094 1-4-3.094-5.124-12.219-1.5.5-6.594 2-6.5 3.594-3.594-10.281-14.094 3.094-2.094 5.093 3.594 2.5 1 3.094 6-.5 10.688 2.125 1.5 4.094.5 6.094-8.094 3 2-5.5 13.594 8.093 3.094 2.594-4.094 4.5-3L1576.5 3803l3-6.594-4.094-5-2.094-9.094 1.594-3.124 5.594 3 1.5-1v-6l5.593-3.594 3-1 5.094-14.188 5.125-9.594-4.125-3.124-5.094 1.124-5.093 3.5-2-2-3.094 1-3.094.5-4.5 2.594-6.719 4.5-5-.406-4.093 4-3.594 3.094-1.5-1.594 1.5-5.5-2.094-7.594 3.594-2.094v-4.5l-2.594-1-.5-3.624 4.094-2.5-1.5-3-2.094.5-1.5-3.094 3-2 2.094-4 1.5-5.094 4.094-.5 6.093 6 5.594-4.5v-6.594l2.5-7.094.5-3.624-1.5-.5-2.594-.5-2 .5-7.187 3.124-1.5-5.624 4.594-3 1-2 3.593 1 .5-2.094 1-5 .5-1.5.5-3.594 1-14.687 3-13.72L1577 3642l3.093 1 6.094 9.094.125 5.594 4 3 4.594-6.094-5.094-8.094 3-10.094 3.094-5.593-3.094-7.626-4.125-2.5.5-3.5 4.625-7.093 3.5-.594.594 6.094 4 .5.5-11.594-.5-7.094 3-7.093 3.094-4.126 2.5-4 4.093-10.187 12.594-21.312 4.625-5.094 1.5-7.094-2-6.5 4.5-13.187 10.688-3.126 3-1.5 3.093 4 6.594-7.593 8.719-9.094 8.5-24.906 2-23.781-1.594-13.22-4.625-10.093-8.094-7.5-10.78-5.594-5.626-7.093 1-2.5 3.125-1 1.5-4.626-4.625-11.093-6.687-14.188v-3.5l1-3.093 2.593-1.5 8.094-.5 7.625 1.5 6.188.5 3.5-2.126 4.593-1 3.094 3 3.5 1 3.625-3 3-4.593 6.594-6.094 2.094-4.594 4-7.593 5.593 1.5 7.22 1.5 5.093-2 1.406-12.22 1-4 7.188 3.5 6.093-2.593 10.094-14.187 8.219-4.126 4.594-1.5 2.5 6.126-3.5 3-5.594 6.093-3 15.188v8.094l8.094-3 5.593-1.594 3.094-4 6.625-3.094 2-4.594 5.594-2.5 5.594-1.5 3.593-3.093-4.093-3.5-9.188 1-4.125-7.126-5.094-8.093 3.5-5 7.22-5.594 5.5-5.094 6.687-.5-.094-15.812-.5-13.094.656-11.594zm1773.031 0-.375 5 2.094 7 2.5 5.094 4.094 5.594 1.124 5 3.5 6.094 5.094-3.094 7.094-16.188 2.5-6.593-2.281-7.907zm38.219 0-.906 5.282-2 7.624-3.594 8.688-2 6.594-7.594 11.094-5.094 4.124-.906 11.188-3.594 9.094-1.5 5.594-3 11.124 3.094 8.594v6.594l-5.094-2-4.593 1-1.5 2.594-2.5 7.594-2.5 10.624-4.626.594-4.093 1-2.5 6.594 1.5 5.5-3.5 13.188.5 3.624 4.594-2.124 4.124.5-3.624 8.124-6.594 1.594-.5 2 .5 1.5.594 4.094v6.094l1.5 2.5h8.718l9.094-6.188 2.594-4 2-1.5 1-7.093-4.594.5-3.094-3.5 9.188-2.626 10.219-1.093 2.5-5.5 2.5-8.688v-9.593l1.5-1.5 5.593-2.126 3.094-1 2.5-4 1.5-2.593h5.594l5.594 1 2.624-3.094 2.5-8.594.5-3.5 1-4.093-1-4.5-3.624-4.626-1.594-4 1-2.093 3.094-2 4.624-.5 5.094 2.5 3.094 4 5.094 3.094 2.5 2 2.594 6-2 4.624-9.188 1.094-3.594 3.5-1.406 16.188 1 9.219 3.594 4 5.094 3 5.124-2 2.5 2 4.094 8.593-.5 3.5L1880 3398l4.594 2.5 5.594 1 2.5 3.5 3.124 6.594 3.594 2 3 1 2.094 2-1 3.594-.5 3 2 4.624 1.094 3.5-3.594 4.594h-5.094l-4.593-5.093-3.126-12.626-1-5.093-1.593-3.5-4.5-.5h-3.094l-6.094-5-4.093-6.594-2.626-5.094-3.593-2 .094 4.094 3.5 6-5.094-2-4-2.5-4.594-3.5-2.093-1-6.094-1h-3.625l.5-5.594-2.5-3-4.594-1.5-1.5 2-1 8.094-2.094 4.594-6.593 7.094-5 5.124-1.5 3-1.094 4.094 1.594 3 4.593 4.094 6.094 2 1 1-4 3.5 3.5 4.594.094 4.5v3.594l-3.094 4.624-4.093 1-8.594-8.624-3.594-7.594-2.625-3-4.594-3.5-4.093 1-2.5 2 1 1.5 5.593 5.094.094 3.5-8.687 8.218-8.594 6.094-4.594 2-4.5 18.813 3.094 6.5 4.594 3.593-2.094 2.5-6.594 1-.5 8.688 4.594 4.5 2.594 1.5 2.5 1 5.594 1 5.593.5 6.219-1 3-10.188-1.094-4 6.188 1.5 4.594 2 3.5-2.093v-10.126l.5-7.093 4-3.5 2.093 5-1.5 4.594 1.5 2.5 4.125-4.094 1-6.5.5-3.594 2-3.5 3.594-.594 2 2.594-3 10.594 4.594 1 3-9.094 2.5-2 3.094 2 3.093 7.594.5 4 1.625 6.594 5.594 5.5 5.094 2.5 4.094 4.124 6.093 2.5 5.125 3 3.594 11.094 6.094 2.594 1.5-6.094 3.594 1 7.218 7 4 1 7.688 1 8.687 3.5 9.719 2 1-6.593 4-7.126 3.594 1 6.594-7.093.5 4.594-6.094 10.124-4 6.594 2 8.094 12.812 3 8.688 5.594 6.594 7.5 6.093 1.5 4.125.5 2.594 1-1.5 6.594 2.5 5.124 15.281 4.5-.375 6.594-.5 3.5 4.5 3 5.188 3 6.594 3.594 6.093-.594v-9.593l-3.593-8.126-2.094-7.593-10.688-7-6.625.5-3.593-9.594-1.094-7.594 2.594-2.5 3.5-.5 2.593 1.5 2.5 5 7.219 8.094 8.688.5 3.5 1 1-4.594-2-3.5-6.188-9.593-2-11.22 2-7.093-1.094-3.5-1.5-4.094-4.625-1v11.188l-10.687.5-.5-6-3.094-3.094-5.094-6.5-3.625-10.687 2-10.126-1.5-4.5 3-8.687 6.625-11.094 4-7.593 2.094-4.626-2.594-8.093-2.625-10.094-3.593-.5-3 3-2 7.594-3.094 5.594-2.5 6.624-1.5 3.594.5 7.094-4 6-7.094 5.594-1.094-4 2.594-4.594-1.094-4.5 1-3.594 1.5-6.093 3.094-5 2.5-5.626 3.5-6.593 3.594-8.594 2-8.187-3.594-4v-6.126l1-4.5-5.094-2.5-.5-6.093-7.718-1.5-.5-5.594h5.593l3.5-2.094 9.219 7.094 6.688 1 10.718 6 7.594 1 5.094-9.094v-3.593l-2.094-5 5.594.5 6.094 2.5 5.093-.626 3.125-.5 1-4 1.5-8.093v-9.188l6.094-2.5-.094-9.593 2.594-4.126 2-9.593 3 1 5.093 4 .594 4.594-3.094 2 .095 11.624-2.594 4.094v7.594l4.687 20.313-4 5.5-3.093 10.187 4.218 12.094 8.594 1 7.094-7.094-4.094-3v-13.687l4-14.22-1.594-8.593-5.125-12.187-3.093-6.5 2.5-6.126h4.093l2-5.593-1-8.594-3.593-8.594-2.594-6.593-1-3.5v-6.126l-1.094-5.593-4.594-5.094-7.125-2.5-9.187-1.406-.5-2.094 4.094-2 12.718 2.5 5.594-.594 3.094 3.094 6.094 1.5 4.093 4 4.125 1.5 5.594 1.5 2.5-2-.5-11.187 2-5.626 1-5.5 7.094 6.5 1.594 10.72.593 15.687-3.593 5.594-2 16.218 1.593 13.094v5.094l-.5 5.094-3 6.624.625 7.594V3381l2.5 3-3.5 11.688 2.594 5 6.094 1 6.094-2.594 2.5-4 1.593-2 .5-3.094 5-2 2.125-4.094 3-2 2-1.593 1.094-2 .406-5.626v-13.093l7.094 1.5 5.688 5 10.093-11.688 6.625-9.093-2.125-12.22-3.593-15.187 4-20.312 3-4.5 2.593 3v16.219l-2 5.093 2.625 13.688 4.094 6.5 4.094 4.094 8.687-.095 1.407-12.093 5.093-.594 5.719 4.094 4 2.5 4.594 4.5 6.187 2 6.625-1 9.094-4.094 5.094-4.094-2.594-3.5-8.594-1-5.125-2-4.093-8.125 2-3.593 8.093 1.5 5.719 1 5.094.5 1.5-6.594-3.094-8.594-5.719-10.594-7.093-3.5-1.594-5.125-5.594-.5-7.594.625h-13.312v-3.5l4.094-3.125h4.593l-3.593-9.093-8.688-5-.5-3.094h3.5l1-2.5-2-6.094zm352.344 0 4.75 9.094 3.624 8 3.594 2.594 3-.594 2.094-1.5 2.5-2 2.594-1 4-1.094 6.094 1.5 2.124.5 3.594 9.094-6.593 5.094 1 5.094 4.687 9.624 8.688 13.094 6.624 8.594 4.094 4.5 5.594 3.594h2.094l1-2.594-2.594-4.5-1-8.094 3.5-8.718-2.094-9.094 5.094 1.5 2-3.5-2-3.094 1.5-7.094 3.5-11.093-10.187-8.126-16.532-9.78zm59.812 0 15.75 11.282 9.188.406 8.718 5.594-.5 2-6.718 1.124-2 2 2.124 17.688 6.688 7.594 2.594 6.094 3 6-2.5 1-4.094 2.624 1.594 4h7.094l6.124-.5 3.594-.5 6.594-5.124v-1l-5.094-8.094.407-4.094 3.593-9.094-4.093-5.593-.626-3h3.126l12.28 9.5 8.095 4.093 2.124 5-6.124 2.094-2 1.5 4.624 5 5.094 2 3.5-7.094 11.188 5.094 7.219 5 5.093 5-2 3.594-9.218-1-4.5 11.219-.5 9.593 2.624 9.594v6.594l2.094 9.594 2.094 6.624 3.5 1-1 5.094-2 3.5.594 7.594 2.5 6.094 3.094 3 .624 13.719 4.094 8.093 1.5 4 5.094 1 1.5-6.593-4.094-11.626 5.094.5v-4.093l2.5-1.5 3.094 4 4.594 4.594 1.124 6-2.624 4.624-.876 10.188-.5 7.594.5 5.5 2.094 8.094 4.594 1 5.594 1.5-1 4.124-1.5 3.5 1 4.594 4.594 1 3.5-4.593 6.718-1.126 3-4.5-1.093-6.593-2.5-6.094 1-9.594 5.5-1.593v-3l2.593.5 4.594 8.593 3.094-.5-.094-8.093-1.5-7.626 3-4.093v-5.594l-2.094-3 8.688-4.094 2-3.5-1.5-2.593-2.594-4-3.094-1.5-2.594-8.126 3.594-1 4.094 4 5.594-9.187 1.5-1 1.5.5 1.093 5.594v4.594l5.125 11.124 5.094 2.5-2 3 2 1.5 4.594.5 3.594-11.124 2-5.094 5.093 2.5 4.5-3.594-2.5-8.094-7.687-5.5-1.594-9.093-3.594-10.626-3.625-10.187 2-8.094-3.093-1-3 4.594-6.594-3-2.094-6.594-2.594 2.094.094 4-.5 12.188h-3.593l-1.5-14.688-1.626-3-1-7.594-5.687-4-1-7.593v-2.626l-1.094-3-2.5-6.093-.094-4 1.594-2.594 10.188 6.594 3.093 5 .5 10.094 6.125 3.124 3.594 1 2.5-5.624 4.594-6.094 3-8.688.5-5.5-3.094-12.718-5.594-.5-.125-5.5 5.719.906h4l2.594-3.5 7.094.406-2 3.594v7.094l1.093 6.624v6.594l-2 6.594-5.593 3.5 1.5 1.5 5.093 1.5v3.094l3.125 4.5 5.688 12.219-.5 12.593 4.094 10.594 2.093 8.594 3.625 8.594 5.188 6.124 4.5.5 2.594-.5 2-2.624-.594-11.094-1-3.094 1-5-1-7.094.406-6.593-1-3.626 1-5 4.094-.5-1.094-6.093 2-5.594-.5-4.094-4.094-4.5-4.625-.5 1-9.593 6.625 3 4.094-6.626 2-6.093 2.5-4.094 7.594-1 .094 2.5-5.094 4.594v7.094l1.094 5.124 1.5 6.5 3.094 5.594 3.125 7.594-1.5 1.5-6.22-5-2 1.5v3l.5 3.094.595 6.094 1.625 11.124-4.125 5.094 2.125 7.594.5 9.094 2.593 5.5 3.094 8.594 2.594 7.624 2.594 2.5 1-.5 1.5-1.5v-3.5l-2.594-4.124 4.094-1 3-5.594-3.594-2.5.5-3.594 2-10.594 2-13.218 3-12.188 1-6.094 2-3.5.5-1.5-3.594-3.593v-2.5l-2.094-11.626-3.093-1.5-1 1-2-4.093.5-7.594 2-4 9.093.906 2.094 1 6-11.718 3.094 2.124-3 11.094-2.5 4.594-5.094-.5 1 5.594 1.094 5 7.094 1.5 5.125-7.094 4.5-5.594 1.5-14.218-2.125-3.5 1.5-10.688-6.688-14.094-4.094-3.5-.5-5.5zm308.813 0-.25 1.782.5 3.5.593 2.124 1 1.5 2.5 1 4.094.5 2.594-2.124-.094-5-.5-3.094-.094-.188h-10.344zm27.406 0 .344 3.688 6.187 2.5 8.094-.094 2.5-3 .344-3.094zm50.531 0 .188.407 5.624 1.5-3.5 3-3.624 2.593 1.624 5.5-1.5 4.094-.5 6.094-1 7.094 3.094 2 5.094.5 1-4.594 1-5.094.5-5 .406-5.594 3.594-4.593h4.594l3 2.5-2 5.093-2.5 5.594-.5 3-1.5 4.094 3.094 4 5.624-2 4.5-4.594 2.094-3.094 2.5-9.593 1.5-3.626-1.593-.5-3.626-3 1.626-4.593 1.968-1.188zm100.594 1.907-2.094 1.5-2.5 2.5-2 4.593-2 5.594.5 4 2.594 2.594 3.5.5 2.094-1.094 3-2 2-2.594 1.5-4v-4.593l-1.5-4-2.594-2.626zm21.406 1.874-4.594 5.126-5 9.093-6.093 9.188 2.593 7.594-.5 7.624 5.188 8 1 6.094 4.094 8.094-2 4.094 2.124 8.094 2.594 6.5 6.594-1.5 2.5-1.594 6.594-3.5 1-1.594-3.5-1.5.406-7.094-1.5-5.5 3.5-3.093 5.094-1-3.094-3.126-7.094-8-2.093-3.593.5-3.5-2-2-7.22-3.5L2755 3277l2.094-4.594 1.406-14.718zm27 4.407-8.094 3.594-.5 4.5 12.688 2 3.094 4-2 7.124 9.624-8.124 4.094 2.5 3.094-.5.5 5.5 3.594 4.624 4.094.5 6.624-2.624-5.218-7.094L2811 3267l-13.312-7zm-74.906 1.406-2.5 2.594v4.5l2.094 4.094 4.624-.095 2-3.5.5-3.593-3.124-3.5zm-134.406 7.313-2.5 2-.5 4.593 1.5 2.5 1.124 2.594v1.5l3.5 4 3.094 1.5 3.594.5 2 1.5.5 2-5 5.594 5.094 3.594 6.094-6.188 1.5-2.5-4.594-6.094-2.094-3-3.594-5.5-2.5-3.593-1.093-1.5-1.5-2zm204.812 5-2.094 1.5.094 3.593 2.5 2.5h3.094l2.5-1.593v-2.5l-2.594-2.5zm-60.094 6.874-2 1.5v4.126l3.094 2h2.5l2.594-1.5-.094-2.626-2.5-2.5zm78.5 4.126-4.093.093-2.5 1.5-1 3-1 3.594 1 2.5 2 2 2.593 2 3.594 1h2.5l2-1.5 1.5-4.593.5-2.5-1-3.594-3.594-3zm-109 2.187-2.593 1.5.593 3.5 2.5 2.5H2692l3-1.5-.5-2.5-2.594-2.594zm29 1.313-2 1.5v4.093l2.594 2h3l2.594-1.5v-2.593l-2.594-2.5zm15.782 1.5-2 1.5v3.5l3.124 2.5h2.5l2.594-1.5-.094-2.5-2.5-2.626zm-167 1.78-.5.595-1 3-2.094 1.5-2.5.624-2.5 2v3l1.5 1.5 3.094.5h3l1.5-1.5 1.624-2.624.5-2-.124-2.5-1.5-2.5zm101.312 1-2.5 2.095.5 3.5 2.594 2.5h2.5l3.094-2-.5-2-2.594-3.094zm18.406 6-2.5 2.095.5 3.5 2.5 2.5h2.594l3-1.5-.5-2.594-2-3zm107 3-2.593 2 .593 3.595 2.5 2h2.594l3-1.594v-2.5l-2.594-2.5zm-197.593 1-3.626 1.095-1.5 3 .5 1.5 1.5.5h1.626l1.5.5.5 1.5.5 2.124 2.093.5 1-1.124 1.5-2 1.5-1.5.5-1.5v-2.594l-1-.5-1.5.5-2.593-.5zm134 14.5-2 2.095v3.5l2.5 2.5h3.093l2.5-2v-2l-2.5-3.094zm-41.813 1.313-2 2V3323l2.594 2.5 3-.5 2.594-1.594v-2l-2.594-3zm-130.906 2.688-3 1.5-.5 2.594 1.5 2.5 1.094 2 1 3v2.624l.5 2 .5 1h.624l1.5-1 2-3.124 1-4-.5-1.5-.5-1.594-1.624-3zm102.906 0-2 2 .5 3.5 2.594 2.594 2.5-.095 2.594-2v-2l-2.594-3.093zm-123.187 11.219-4.626.593-1.5 7.094-2.5 2.5.626 14.188 1 4 3.093 3.624 2 3 3.094-2 2.594 2 1.5 4 2.5-.5 4.094-3.624-1-6-1.094-4.594H2541l-1.5-1.5-.5-2.5 2-5.094-1.594-1.5-1-3-1-2.094.5-2.5v-2zm200.187 1.5-2 2.093v3.5l3.094 2.5 2.5-.5 2.594-1.5-.095-2.093-2.5-3zm9.188 4.5-2 2.093.5 3.5 2.624 2.5h2.5l2.5-2v-2.093l-2.5-3zM1730 3340.687l-3 4.626-3 8.593 3.594 11.594 4.594 3.094 1 1 5.624.5 1.5-5.594 1.5-6.094.5-4.593-4.124-12.626zm596 .813-.5 2.5-3 3.594-1.5 7.594v3.5l-1 4.624 2.5 5 4.094-2 2-9.124 3.5-6.094 1.594-1.594.5-1.5-1.094-2-1.5-2-1-1.5zm-148.187 9.188-4.626 3.624-4 7.094-2 5.094-3.593 6.094-8.094 1.5-.594-7.094-13.718 6.688-.5 5 5.218 13.218 7.094 5.5v3.094l-4.5 3-13.812 3.094v3.094l.124 5.5-8.218 3.124-8.594 6.594 2.5 5.094-3.5 6.594-4 10.594-4.594-.376-6.593 13.688 8.687 3.5-1.5 5-2 14.188-8.594 8.218-6.093 3-2.126 5.594-.874 15.688 3.593 9.124h10.188l5.094.5 1.5 2-3 4.594-3.094 6 2.094 7.594 3.624 6.594 3.594 9.594 4.594-1.5 1-7.594 4-.594 1.594 5.094-3 8.094 4.594 4.624 6.124-9.218 2.5 6.094 6.688 3.5h3.5l-1 2 1.094 6.624-2 9.094 2 2 3.594 1 1-8.593 1.5-1 3.5-4.126-1-6 2.5-4.093 3.718 14.719.5 4.5 1 3.593 2.094 4 1.5 3 2.594.5 4-1 4.094-2.5 4.124-.593 5.594-1.5 4.594-4.126 2-7.093 4.5-3 2.594-5.094 5.094-3.094 2.5-4.5-3.094-5.093-2.594-7.626-4.094-8.093-7.593-2.5-4.126-2-6.093.594-3.594-2 3.5-7.094 6.688 3.5-.095-5.594-4.093-5-3.5-3.094 2.5-1.5 3.594-5.093 3-1.5.5-11.72-.095-9.093-1-12.094-.593-8.093-6.094-9.126-3.125-14.687-1.594-3-1.5-6.594 6.094 1.5 8.625.407 2.594 6.093 1.094 11.188.593 19.719 3.594 21.28.625 10.095 2.5 7.624 5.688 5.5 5.093 3 3-4.5 9.219 3.5 7.594-.624 6.187-1.5 4.5-1-1-4.594 3.094-1 5.125 4.5 8.094-2 5.594-7.688 6.093.5 5.094-4.093 2.5-9.626 3-3 2.625 6.5 4.094-1.5-.594-10.593 4.094-11.188 5.094 2 3-1.5v-4.093l-1.594-10.626 1-3.093-3.094-4-1.5-5.594-2.125-6.5-.5-10.687-6.187-7.5-2-6.626-5.688-10.093-10.219-1.5-12.281-10.594-10.719-10.594-5.093-3.5 1-5.593 3.593-3-1.593-6.626-2.594-6.593-7.094-3-11.219-3-6.093 5.094-12.188 2.624-7.719-6.624-5.093-4.5zm152.874 24.718-2.5.5-1.5.5v2.5l1.5 2.094 1.5 1 1.126 1.5.5 2v2.5l1 1.594 1.5.5 2.093.5 1.5-1.094 1.5-2 1-1v-2.5l-1-2.094-1-2.5-1.593-2.5-2.5-1.5zm-207.28 9.5-2 .5-1.5 2-.5 2.094 2 5 2.093 1 1.5-.5 2-1.5v-2.594l-1-2.5-1.594-3zm203.78 6.688-3 2.594-3.593 4-4 5.624-2 8.594 3 1 3.094 6.094 2.124 2 6.594-3.594 2-5.5 2.5-2.093.5-4-1-2.626-.5-4.5-2.093-5.593zm-592.874 20.5-2.5 1.5-2 12.719-14.313.093-.5 3-4.5 4.594-3.094 6.094 1.094 7.594-1.594 7.125 5.688 7-11.188 12.687 2.594 8.594 8.094-1.5.594 8.094-4.594 3.5.5 4.125-1.5 4.094-4.094.5-8.594 8.093-.5 5.094-2 7.094-7.718 8.625 1.124 2.5 9.688-2.5 3.5 1 2.094 2.5 2.5 5.594-1.5 7.593-3.5 10.094 1.5 3.5 3.094-.5-1 7.094-8.594 16.812 3 3.5 8.719-12.687 4-7.625 2-7.594 1.5-8.594.5-7.593 1.5-7.594 5.093-3.625 1-7.094.5-7.094 6.094-6.593-.5-3.5-5.094-2-6.718-2.5 2.624-8.094 5.594-1.625-3.093-10.594 5.5-13.187-1-6.594 3.593-.5 2.5 6.594 1.094 2 5.594-4.094 2.5-3.5-2.094-2.5-3.5-4.125 5-11.188 5.594-.5 2-7.593-3-7.094-1.094-7.625-5.594-5.5zm291.874 3.594-6 6.624-2.593 8.594 1.594 12.688-3.5 6-1 3.594-1 4.624-2.594 8.094-.906 10.594 2.5 6.594 8.218 1.5 3.594-4.094 4.5 1.5 6.688 2.5 6.124 9.094 1.594 2 4.5-3 5.594-6.094-1.5-2.594-1.594-3.5-3.5-2-3.093-4.5 2.5-16.812-4.72-10.594-5.593-18.687-2.594-8.626-3.093-3.5zm71.407 9.812-10.188 5.094-6 8.219-6.093 8.593-3.626 9.594 2.126 5.594 3.093 3.5 3 2.5.094 16.312 2 1 9.188-7.218 1.5-8.094-2.594-3-2.5-.5 2.5-6.094 8.594-11.687 1.5-8.126-.5-3.5zm256.312 9.094-1 1-2 1 .5 2 .5 1 1 2.594v2.5l1.594 2 1.5.5 2.5.5 1.094-.5.5-2-2.094-4.094-1-2.5-1.594-2.5zm-282 58.406-1.5 1.5-.5 3.094 1 2.5v3.5l-.5 4.094-.5 2.5 1 2 2.094 2.124 2 .5 1.5-.624 1.594-1.5.5-3.5-.094-4.094-.5-3v-3.594l-.5-2.5-1.5-1.5-2.594-1-1-.5zm-221.593 9.406-7.126 5.094-1.093 5.094.594 3.5 7.624 2.5 3.594 4.594 1.094 8.624 11.188 8 9.218 4.594 7.594-5.593 2.5-3.626 1-8.093-5.094-4-12.218-8.594-11.282-6zM2043.5 3528l-2.094.594-1 3 1.594 3.5 2 3.094 1.094 2.5-.5 3.624 1 2.5 3.594 1.5h5.624l2 .5 2 1.5 1.594 1 1-1 1-3.124v-3l-1.5-1.5-2.593-2-2-1.094-3.626-3-2.093-1.5-3.5-3.5-2.094-2.5zm182.906 7.406-3.5 1-3.593 1.094-.5 2 .5 2 2.593 1.5 4.094.5 4.594.5 3-1 2.5-1 2.594-2.094.5-2-.5-2-2.094-.5-2 .5-2.5.5-2.594-1zm-330.218.282-3 2 1 10.124-7.094 10.688-7.594 13.188-.906 9.624 5.094 4.094 6.124 5.5-2 6.594-15.312-10.594-4.094 7.094h-8.718l-8.094 3.094-2 4.094 10.719 6.5 7.093 2 3.094 7.124 1.094 8.594 3.594 5.594-1.5 6-5.594 3.594-1.594-.5-1.5.5-1 7.094v8.124l.594 4.094 2.5 1.5 12.719-1.093.593 3.593-6.593 5.5 6.593 3.094 16.282 6 28.5-9.687 1.624-4.126 1-1.5-6.718-3-3.094-8.093.5-3.094h4.594l2.094 4.594 11.218 3 2.594-2.094.406-4-1.5-2.5-15.312-5.594-11.188-7 4.5-6.093 1.5-3.626-6.593-2-2-4.5 9.593-4.593 10.188 2.5 5.094 3 4.124 3 3.594-.5v-2.5l-5.093-4.5-1.126-2.094 1.626-.5 4.593-.5 5.094-.5 3.5-1.094 4.594-.5 1.5-1.5-.5-2.5-2-1.5-4.594.5-3.094.5-4.093 1h-3l-4.626.594-3.093 1-6.594 1-15.812.594-5.594-2 2-5.594 10.719-1.594 10.687 2 6.688-.5 2-1.5.5-2.093v-8.126l1-3.5-2.594-5.093 7.219 1.5 7.093 5.094 5.094 1-1.5-6.594-2.094-3.5-.5-7.594-5.093-4.094-3.126-6.593-4.593-3-13.781-6.5-8.22.5-12.687-14.626zm-63.594 7.812-3.094 1-1 1.5.5 1.594 1.5 1 1.594 1.5.5 2.5.5 1.5 1.5 1.5 2.594.5 2.5.5 3.624-.5 3.594 1 3 1 2.594-.5 1.5-1.5.5-1.5-.5-1.594-1-2-2.094-1-2.5-2-3.593-.5h-2l-2.626.5-5.093-3zm-157.5 1.5-2 1.5-1 8.594-1 5.094-4.594-2-2 1.5-.5 9.124 3.594 4.094 7.094 3 2 1.5 1.624-4-1.124-3.593 5.124-.5 1.5-4.126h1.094v-3l-.593-1.5-4-1.5 1.5-4.593-1.126-1.5-3-5.094zm575.812.906-6.593 1.594-1.5 1.5 1 4.094.593 3.5-1.5 4.594v2l2.5 1.5 3.094-2 4-1.594 5.094-2 3.594-.5 3-.094 2.624-3-1.624-1.5-2-3h-3.594l-3.5-.5-2.094-3.094-1.5-1zm-31 12.282-4.593 5.624 1.593 6.094V3577l.5 2 .094 3 1 3.094 3.594-2.094 7.094-3 3.5-4.094 4.125-1.5-1-3.593h-6.219l-2-5-1.594-7.126zM1826 3567.812l-1 2.094v2l-.5 2-1 2 .5 3.094 2.094 1 2.5-.5h3.094l2-.094 3.124-1 1.5-.5.5-1.5v-1.5l-1-1.5-2.124-.5-3-.5-3.094-2.094-2-2.5zm452.594 1.782-3.594.5-3.594 2.594v2.5l2.094 2 1 1.624 3.594 1.5 2.5-1.624 2.094-2.5.5-3.594-1.594-2.5zm-500.5 6-3.5 2.5-1.5 2.594-2.594 4-.5 4.124.594 2.5 2.5.5 2.594.5 1.5-1 2 .5 1 1.5h1.124l1-2v-3.124l.5-4 .5-3.094.5-2.5-1.124-2zm-92.188 3.312-2 3.594-3.093 5-2 4.594-2.5 5.094-2 4.5v3.624l1.5 1.5 2-.5 3.093-3.124 1.5-2 1.5-3.594 1.594-3 .5-2.5 1-4.094 1-4 .5-2.594.5-1.5-1.594-1zm117.688 2.188-1.5 1-4.094.5-2 3.094-.5 3 1.594 2.5 1.5 2 .5 2.624-.5 2 1 1 2.094-.5 2-1 2-.5 3.624-.124 2.5-.5 1.094-1.5-.593-3.5-2-2.594-1.5-1-1.626-1.5-.5-2-1-2zm167.219 5-2.5 1-2.126-.5-1 .5-1 1.5-.5 2.5 1 1.594 2.626 1 3 .5h3.093l3-1.094.594-1.5-.594-2-1.5-1-2.5-1.5zm83.093 1.719-3.093 1-1.5 1.5-1 3.593v3l1 2 2.093 1 1.5.5 3.094.5 2.5-1.5 2.594-2.5 1-2.093.5-3-.5-2-2.094-1-3-1zm-109.593 4.874-1 1.626 1.093 2.5 1.5 1.5 3.094 1.5 2.5.5 3.594-1 1-2.626-2.094-2-4-.5-1.594-.5-2-1zm-126.813 9.126-2.594.5-2.5 2.5-.5 1.593-2.093.5-2.5 2.5-1 3.594 2 1.5 2.093 1 .5 1.5v2.5l-.5 2.094-.5 2 1.5 1.5 1.594-1 1-1 3-1.594v-1.5l-.5-1.5-1-2 .5-2.094 1.5-2 3.094-1 1.5-1.5 1-2.593v-2.5l-1.5-1.5-2.594-1zm148.313 1.5-3.626 9.093-1 4.094 7.22 3-.5 4.5-1.5 4.594h-5.594l-.5 2.594 1.5 1.5 8.187 4.5 4.594-2 1.5 3 10.219-5.594-1.126-4.094-5.593-8-.5-1.094-6.094-4-2.594-5v-4.093zm86.593 2.187-3 1-2.593.5-2 3.094.5 2.5.5 2-1.5 3.094-1 2 1 1.5 2.093.5 3-1.5 3.094-1 5.094-3.094 1-2-.5-2-.594-1.594-1.5-3-1.5-2zm119.782 4.094-2 .5-2.094 2.5-.406 3.594.5 3 2 2 2.624 1.5 2.5 1.624 2.594 1 2-1.124 2.594-.5 4 1 1.594-1 1-2.5-1.594-2.094-2.5-2-3.594-2.5-2.5-2-3.593-3zm-106 4-2 .5-1 2.5-.5 2-2.094 1-.5 2.594 2.094 1 2.5.5 3.124-.5 3.594-.594 3-1 1-1.5-1-2-3.093-2-2.5-1.5zm84.124 6.719-3.5 2-8.718 8.687-2.5 3.5-2 2.594-.5 2 1.5 1 2.094.5 3.5 1h2.624l3-1.5 2.094-2.594 2.5-3 2.5-3.094 2.094-3 1.5-3.093v-2l-1.594-1.5-2-1zm-224.218 7.374-1 2.126-2.5 2-1.594 1.5 1.094 2.593 3.5 1.5 4.594 1.5 4.624 2.5 4.594 1 5.594 1.5 2.094-.5 1.5-2.093-.5-3-1.594-3.5-2-3.626-3.094-1-3-1.5h-3.593l-2 1-2.126-.5-2-1.5zm178.406 1.407-2.5 10.594 4.094 9.124-4.094.594-5.094-1-3 5-4.593-1-4.626 5.094-4.593-1 1.5-7.094 1-6-8.594-4.593-5.094 1.093-3.593 8.094-2 7.594-2.5 1.5-4.126-2-3.093.5-4.5 3.594-3.594 6.124-3.5 2-3.594 3.094 1.5 4 6.188 8.594 5.094 1 6.124-3.594 5.594-5.593 3-4.5 4.594-2.126 3.094 2.5-1 11.72 2.094 6.093 3-.094 3-6 2.624-6.094 5.594-5.625 2 2.5-.5 9.125 2.094 3.594 7.094 5 1.594 4V3697l9.218-.594 7.094-1 5.094-3.594 2-9.125-.5-7.593 3-3.094 1.5-1-2.594-7.594-6.594-15.594-9.812-12.125zm59.188 6.812-3.594.094-3.094 1-1.5 2.5-1.5 4.594-.5 4 2.094 1 1 1.094v2l1 2h5.094l4.124-1 1.5-3.094 1.5-3 1-3.594-.5-3.5-.5-1-1-1-2.624-1.593zm-385.376 2-8.124 4-6.094 2.094-1.5-4.594-11.688 8.688-6.093 6.094-7.72 3.5-9.593 9.218 2.5 3.5 5.594 3-6.594 5.094-6.594-6-10.718 3.5-6.094 6.094-7.094 7.719 2.5 4-10.094 5.593-1.593 4.594 3.093 2-2 3.5-5.593 7.594-2.5 5.094 2 3.624 3.593-1.124 3-6.094L1695 3711l5.594-5 5.094-2.094 4.5-6.094 1.624.5.5 2.094 10.094-8.219 1.094-4.5 8.094-4.093 4.594 1 3.624-1.5-2.624 7-1.5 4.594-4.094-1-3.5 2-.5 2.624-3.094 2 2.594 2.5 4.594-1.5 5.624 2 12.688-3.124-4.094-8.594 3-2.5-1-4.594 3.094-3 3 1 1.094 9.594 8.594-4.594-2-5.5 12.718-3.094.5 6.594 10.688-3.094 10.219-3.093-3.626-6-3.5 3.5-2.593-3.5 4.094-4.626-1.594-1-3.5-.5-5.688-14.687-3.093-3.5 6.687-4.094-1.094-2.5zm461.782 3.782-3 1.5-.5 3.624 1.5 2.5 2.094 2 2.5 1.5 2.124-.5 1.5-1.5.5-3.124v-2l-1.624-2-2.5-1.5zm1.094 21.812-3.5 1.5-2.594 2-1.5 3.094 1 2.5 1.594 4.594 2.124 5 1.5 2.5 2.5 1 2.094-5-1.093-3.094-.5-4 .5-2 1.5-2.094 1.593-2-1.093-3.5h-1.5zm-304.688 11.313-2.594 1-1.5 1.5-2 1.093-2.593 2.5-.5 2 1.593 1 3-.5 3.594.5 2-1 1-1.5.5-3.093-.5-2zm-32.094 7.187-4.093 1.5-4.126 2.094-2 2v6.094l1 .5 1.626-.5 1.5-1 2-.095 1.593 2.094.5 2v3l1 1.5 1-.5 1.594-1.5.5-2 .5-3.594-1.094-5.5V3683zm11.688 0-2 1v2.5l1.5 2.5 2.594 3.094 1.5-1.094 1.5-3-.5-2.5-1-2h-1zm-108 1.813-1.594 2.593-2.5 3-1.5 1V3694l2.5 1.5 2.094-.5 3-3.594 1.5-1.5 1.094-2 1-2-.594-1.593-1-.5zm144.719 1.093-1.5 2.5v3l.5 2.594 2.093 1.5h1.5l2.5-1.5.594-2.094-.594-2.5-1.5-2-2-1zm-161.626 1-1 .5-3.5 2.594h-3.593l-5.094 2.5-2 3.094 2.5 1.5 1.594.5h3l3.094-1.5 2.5-1.094h3.124l1.5-1.5v-3l-.5-2.594zm293.22 10.094-2.095.5-4 2.594-2.124 2.5 1.124 3 2.5 1.094 2.594.406 2.5 1.594 2.094 1.5h2l1.5-1.094 1-2.5.5-1.5-.5-2.5-2.5-2.594-2.594-3zm72.405 2.813-8.218 6.593-7.094 3-4.5 6.594 1.5 5.094 5.094 3.5-.5 4.594 3.094 1.5 4.624-3.094 4.594 1.5 3.5-1 4.094-3.594 2 5.094 6.188.5 5.624-3.594.5-3-4.124-3.594-5.688-1.5 1-9.094-7.594-3.5 1-4zm-212.124.28-1.5 2-1.5 2.5-.5 2.095v2.5l-1 2-1 2.124 1 1.5h1.5l3.624-2.124 1.5-1 2-2 1.5-2.094v-2l-1-1.5-2-2-1.124-1.5zm-13.688 1.5-3.594 2.095-2.5 3 1 2.624 2.5 1 2.594-1.124 2-2.5 2-2 .5-2.094-1.5-1zm102.906 1.22-2 1-.5.5-3.093 1.5-1.5 1.593v3l-1 2-3 2.594-1 2.5.5 2.5.5 3.594 1 4 1.593 2.5 2 .5H2030l1.5 2.094.5 4 1 1.5 1.594-1 1.5-2 .5-3.594.5-2.5-1-1.5.5-2.094 2-.5 2.5.5h2.094l1.5-1.5.5-2-.5-2.094-2.594-6.5-1-3.094-2.094-3-2.5-2.5zm-273.718.874-4.594 3.126v3.5l5.094-.5.624 6.593-2.124 4.594 2.124 7 2.594 6.094 8.094 5.5 7.188 1.5 6.624-5 4.594-5.094 1.5-5.094 2-2 .5-3.094-2-3-10.812-6-12.688 5.094-1.5-7.094-3.093-6.124zm-32.094 6.72-6.594 1-4.594 2.593-5.593 7.094-1 5.094 1.593 6-4.093 9.218 1.5 2.5 3.593-1 2.5-2.594 2.094 1-3.094 6.094-1.5 2.594 6.188 2 2.5-4.094 4.094 1.5 6.124-3 4.094 2.5-1.593 4-3.5 1-.5 4.594.5 2.5 2.593 3.594 2.5.5L1739 3761l6.094-1 2.5 3 1.094 4.594-1.5 8.094-3.094 5.124H1740l-3 4 3.594 4.094 6.594-2.594 3.624 2.5-1.5 5.594 8.688 8.094 3.5-2.094-2.5-2 3-3 4.094 3 3.594-5.594-2.094-3.5 2-1 2.594-2.124 5.624-2.5 3.094 4-3.593 13.218-2.5 8.594 2.593 2 9.594-2 6.094-4.094-1.5-5.594-1.5-6.5 8.094-3.124 2.5-9.094 3.124.5 2.5 3.5 6.094-5.594 5.594-3.5-2.5-5.094-4.094-7.094 3-5-2.093-10.718-1.5-4-1.5-2-4.126 2.5 1.5 6.594-7.593 3-8.688 1.124-6.093.5-10.22-1.5-3.593-4.5v-4.124l-5.594-2.5-1.5-3.5-6.218-2-3-6.594-9.688 3.594 2.5-6.094.5-6.094-5.094-2.5 1.5-5.094-2.5-3.5zm188.094 10.5-2.5 1.093-2.594 2.5-.5 2.5 1.594 2 3 .5 1.124 1.094.5 1.5.5 2h2l3.094-.5 3.094.5 2.5 1 1.5.5 1.094-2.094-.594-2.5-1.5-1.5-2.594-2-1-2-2.5-2.094-2.593-1.5zm29.718 17.593-2.593 1.094-2 1.5-.5 1.5.5 1.5 1.5 1 3.093 1 2.5-.5 3.094-1.5 2-1.5.5-1-1-1.594-1.5-.5-3.094-1zm-155 .594-3.593 2.5-4.5 3.594-3.626 3-.5 2.624 1.5 1 3.126-1.624 3.5-2 3.093-1.5 2 .5 2.594-.5 1-2.094-.5-2.5-1-1-2.094-1.5zM1952 3748.188l-12.187.5-2.5 6.624-3.626 5.594-4.093 3-4.5 5.594-7.094 7.094-4.594 8.094-1 4.624 3.094 3 3-3.5 3.094-3.124 3 2.5 1.594 1.124-4.094 9.094-4.094 3-.5 4.594-3 6.594-4 9.594-.5 6.124 5.094 9.594 3.594 1 2.5-8.094 8.124-5.124 6.188 2v-2.5l5.094-1.594 5.594-3-1.5 7.594 1 6 2 .5 3.624-3 .5-3.094-1.624-5.5 2.624-8.594 2-6.594 1.5-7.094 2.5-7.624v-7.094l1-9.594-.124-5.094-2-9.594 1-7.124-1.094-6.094zM1712.406 3753l-1.5 1.5.5 3.594.5 3.5 1.094 1.5.5-.5h1l1 1 1.094 3.594 1 2.5 1 1.5 1.5.5 1.094-.5.5-2.5-.095-3.094v-3l-.5-3.5-2.5-3.594-3.093-2zm-105 .813-2.5 1-1.5 2.593-1.093 3.5-1.5 4.094v1l.5.5 1.593-.5h1.5l2 .5 1.594.5 1.5-1.5.5-1.094 1.5-3v-2l-2-1.5-1.094-1.594v-1.5zm312 1.593-1 1-1.5 1-2.593.5-1.5.5-2 1.5-1.626-.5-2-1.5-2.593-1.5-2.5 2.594-1 3v2.5l1 2.094 2.594 1 2.5-1.094h2.124l.5 2.094 1 1 2.5-.594 4.094-1 2.094-1.5 3-2 5.594-5.594 1-2.094-.5-1-6.594.095zm-183 12.688-3 2.094-2.593 2.5.593 2.5 2.5 1h2.594l2.5.5h2l1.594-.5v-2l-1.094-3.094-1.5-1.5-1.5-1zm-137.593 4-2 1.5v5.594l1 2 2.093.5h1l1-2.594.5-2 .5-1.5-.5-2-1.593-1zm144.874 23.812-1.593.594-2.5 1.5-1 1.5.5 3 1 2.094v4.5l1.094 1.5 2 1 1 2.594.5 1.5 2.124 1.5 2-1h6.688l1.5-1.594.5-1.5-.5-3-1.594-1-2-.5-3.093-2.594-1-1.5-1-3.5-1.126-2.5-1-2.094zm-17.374 7.688-1.5.5-4.126 3 1.126 3.594.5 4 2 1 2.093-1.5 2-.5 1 .5 2.094-2-.5-2-1.594-1.094-2-2.5v-2zM1341 3835l-1.594.5-1.5 2-1.5 3.594-.5 2-.5 3-1 3.094-.5 3v1l1 1h1l1.5-1.5 1.594-1.5 1-2.594 1-3.5 1.5-3V3835zm-12.812 5.594-1 1-.5 2-.5 1.5-1-.5-1-1h-1l-1.594 1.5-.5 3.094-1 3-1.5 2 .5 2.124.5 1.5-1 2.5-.5 1.5-.5 3.094.5 1.5v3l.5 1.5 1 1.094h2.094l.5 1.5-.5 1.5-2 1.5v1.5l.5 3.594h1l2-.5 1.624-1.094 2.5-1 .5-1.5v-4l.5-2.094 2-6 .5-3.594v-3l-.5-3.124-1-2.5-1-.5v-2l1.5-2.594 1-2 .5-2.5-.5-1.5-1.5-.5zm210.624 6-1.5.594-2.5 2.5.5 2 2 .5 3.094.5 3 .5 2.594.5 2-1 .5-3-1-1.594-2-.5h-1.594l-1-.5-2-.5zm-14.718 2.594-3.094 1.5h-2.5l-3.594.624-2.594 2-1.5 3-1 3.094v2l1.5.5 1.594-1.5 1.5-1 1.5.5.5 2v2l1.094 1 2-1 1.5-2 1-3.094 2.594-2.5 2.5-2.5v-1.624l-1.5-1zm-416.594 10.5-9.094 15.218-10.719 23.781-6.093 11.72-7.094 14.687-3.094 8.094-.5 2.5-3 6.124-3.594 9.594-3-1.5-5.624 2.5-3.594 2.094-2.094 1.5-1.5 3-3 4.594 3.594 11.594 4.594 12.124 3.124 15.688 4 5.094 5.688 2 3-14.688 4.094-6.594 3.5-24.312 3-15.687-1.5-3.5 1-4.626.5-3.5 5.594-5.093 4.124-6.094 5.5-21.187 5.594-20.313 4.594-12.594 3.5-9.094zM1299.313 3873l-2.626 1-2.5 2.094-2.093 4.5-1 3.094-.5 4.5-.5 4.124.5 2 1.094 1 1 .5 1-1 1.5-3.5 1.5-2.124 2.124-2.5 1-2v-2.594l.5-3 .5-3.5.5-2.094zm23.374 12.094-2 1-2.5 3.594-1.593 3.5 1.594 1 1.5 2.624 1 1 1.624-.5 1.5-3.124 1.5-4.5.5-2.094-.5-2.5zm40.813.906-2 1.094-2 1.5-1.594 2-1 3.594-1 3.5-1 2-1.5.5h-2.094l-2 1.124-.5 2-1 1.5-2.124 1.5-2 1-2.594 1.094-.5 2.5 1.094 1.5 2.5-.5 3.124-.5 3-1 2.594.5 2 1.5 2.094 1 1-1v-2.094l.5-3.5 1-2 2-2 2.594-2.124 3-4.5.5-1.594-.5-1.5h-1l-1-.5.5-.5-.5-1.5 1-2.5-.5-2.094zm12.313 12.188-2 1.5-3.626 2.5-1.5 2.624-1.593 2.5.594 1 1.5 1 1.5.5 1.624-1 1.5-2.5 1.5-2.124 1.5-2.5.5-1.5zm-88.22 2.718-1.5 11.094-2.093 3.094-.5 5.5-1 5.594v4l-.406 6.624L1278.5 3949h4.594l2-2.094 1.594-1 .5-4v-2.594l1-8.624h2.5l2-2.5 4.124-2.5.5-7.094-2.624-5.594-3.5-1.5-1.094-9.594zm111.72 12.406-2 1.5-.5 2-1.626 1.594-1.5 1-.5 2 1 2 2.126 1 2.5-.5 1.5-1.5 1.593-1.5v-1.5l-.594-1.594v-3.5zm-50.5 2.094-2 1.594-2.126 2.5-2 2-2.5 3.094-1.093 3-.5 2.5 1.094 2.094 2-.095 2.624-1.5 1-1.5.5-2.5 1.5-1.5 3.094-2.093 1-2 1.5-2 1.5-1.594v-1l-.5-.5-3-.5zm12.78 5.594-2.593.5-2 3-2 3.594-1.594 2.5-1 2.5 1.594 2.094 1 .5 2.5-1.594 1.5-2 1.594-3.5 1-2.094 1-2.5.5-1-1-1zm57.595 4.906-1 .5-1.5.5-.5 2-.5 1.594-1.594 1-1.5 1.5-1 2-1 2.594v2l1 1.5 1.5.5 1 .5 1.094 1.5.5 1h2l1.624-1 .5-1.5.5-2 1-2.094.5-2.5.5-2v-5.594l-2.124-2zM1102 3930.094l-3.5 2.5-1.594 4.594-3 4.5-1 4.624-1.594 4-2 5.094-.5 4.094-1.5 3-.5 3v4.594l.5 7.094 2.094 4.5 9.094-4.594 2.094-10.094 1.5-7.094-1.094-8.094v-4.5l1-6.624 1.094-6.094zm360.594 1.312-1.594.5-3 .5-2.594 1-1.5 3-.5 3.094v1.5l2.094 1.5 1.5.5 3 .5 2.094-1.5 1.5-2 1-2.594.5-2.5-1-2.5zm-166.781 1.406-2 1-1 1.5-1.126 6.594.626 2.5 1 .5 1.5-.5 1-1 .5-2.594v-2.5l.5-3v-1.5zm88.187 4.782-1.5 1-1.5 3.094-.5 2 1 2 1 1 2.594-1 1.5-.5 1-.5 2.094-1 1-2.594-1-1.5-1.094-.5-2.5-1zm221.906 3-1 1.5-.5 2.5 1 2.094 2.094 2 2-1 1.5-2.094 1-2.5-.5-1.5-1.5-.5-2.094-.5zm20.407 8.5-1.5 1.094v2l.5 1.5.5 3-.5 2.624 1.593 1.5 3.5-.5 1.594-1.624 1-2v-2.5l-1.594-2-1.5-.5-1.5-1zM1378 3956.406l-1.594 2 .094 2 1 2 1 2.094 2 1 2.094 1 1 1 1.5 2 2.094-.5.5-1.5v-2.594l-1-2.5-2.594-2-1-2-1.594-1.5-2-.5zm160.594 5.094-1.5 1-2 1.594-1.594 2.5-.5 4.594-1 3-1 3.5-1 3.124 1 4 1.094 1.5-1.594 3.094-1.5 3V3995l1.594 1h3.5l2.094-.094 3-1 1-3-2-2-2-1.5-.095-2.594 1.594-3 .5-1 1-3.625 1-2 .5-3 .5-2.093-1-2.5v-2l1-1 1-2.094-1-2zm314.219 2.594-1 .5-3.626 2.094-2.5 1-5.593 2.5-1.5 1.124-3.594 4 .5 2 2.594.5 2 .5 3.094.5 2.5-1.5 2-2 2.624-1.624 2.5-1.5 1.094-2.5.5-2-.094-2.594zm-677.313 4.812-1.5.5-2.5 1.594-2.094 1.5v2l1 3 .094 4.594 1 3 .5 2 1 3.094 1 2.5 1.094 2 1.5 2 1.5-1 .5-2v-5.594l-.5-2.5-.5-4 .5-4.094v-3l-.5-2.5-.5-1.594-1.094-1zm212.188 15.781-3 1-2.094 2.5-1.5 2.626-1.5 3 1 4-2 1.093-1 1-1.594 2-.5 1.5v1.5l1.094 2.094 1.5 2 1.5 1h1.594l1.5-1 1-1.5 2.5-2.094.624-1.5v-1.5l-.624-1 .5-1.5 1.124-1.594.5-1.5-.5-2 .5-1.5 1-1.5.5-2.124-.5-1 .5-2-1.124-1.5zm337.718 1.126-3.093 1-3 2-3.126 2.593-1.5 2.5 1 2.5 1 2.594-.5 4-1 2.594-2 2.5-1.5 2.5-1.5 2.594v2l1 1.5h4.626l3 1h1.593l1.5-1 1-2.594.5-2 1-1.5 2.094-1 1 .5h1l1.5-.5V4008l-.5-1.5-1-1 .5-2-.5-2-2.094-.5-2-1.5 1-2.594 2-1 2.094.5 1.5-1.5v-2.5l-1.5-2.094-2.094-3-1-1.5zm-320.312 2.874-2.094 1.5-1-.5-2-.5-2.094 1-1.5 3.126-.5 3.5.5 2.5 1.594 2.593 1 .5 2-1.094 2.094-1 2 1h2.594l1-1.5.5-2.5v-5.124l-.5-2.5-1.094-1zm-305 26.907-1.5 1v3.594l-1 3.5-6.594-.5-6.594 11.718-1.594 7 1.094 2.094 1.5 2 3.594.5 1.5 12.094 5.094 4.094.375.937h15.969l-.032-.031 1.594-5.5-1.093-8.594v-5.094l1.593-1 4 5.094.594-2.594-3.094-6.5-1.093-6.593 1.093-4.125 3-1-.5-3.5-3.593-2-6.594-3.594zm630 10.094-2 2.624-2.094 2.5-1 2.594-2.5 3-1.094 1.5-1 2.594-1 3-2 2-.5 2 1.5 1.094 1 1.5 2.094.5 1.5-1 4.094-4.094 1-2.5-.5-2.094v-2l1.5-3 1.5-2.094 2.094-.5h2.5l1-2v-2.5l-2-1.5-2.594-1.624zm-898.188 9-3.593 2-2.5 2-2.125 2.124-1 3v2l.5 1-.5.5-1 2.094v1l1.5.5-.5 1.5v1l1 .5h2.625l1-1 2.5-1.5 3.093-2 1.5-1.594.5-2 .594-2.5-.594-1.5v-2.124l-.5-2-.5-1.5-.5-1zm-32.718 12.718-3.5 2-3.594 2.5-2 1-2.594 2.594-1 2 .5 1.5 1.5.5 2.594-1.5 2.5-1 3.594-2 2.625-1.594 2-2.5.5-1.5-1-2zm11.312 5.5-1.594 1-1 2.094-.5 1.5-.5 3-.5 1.5.5 1.5.125.125h3.813l.156-.125.5-1.5 2.5-3 .594-2-.594-3.094-1-.5h-2zm321.313 2.094-1.5.5-2 1-2.126 2.094-1 2v3.031h9.22v-1.531l-1-1.5-1-.5.5-1V4056zM988 4058.313l-.406 5.312h6.125l-.625-2.812zM778.313 4061l-3 2.094-.688.531h7.75l.031-.031-1-1-1-1.594z" style="fill:#9faec0" transform="translate(0 25)"/><path stroke="#9FAEC0" stroke-width="10" d="m38.813 4063.625 1.874 113.063L42.595 4286l.594 21.813 4.312 4.687 4.406 4.688 3.594 4.906 2.406 4.312 1.094 4.281.688 2.907-.095 1.5v2.5l-.094 2-.5 1-1.593.5-2.594.906-1.906 1.906-.313.5-.906 1.188.406 2.218 1.406 2.094 1.407 3.094.593 3 .5 3.5.907 4.313.094 6.593-1.594 7.094-.5 3.813-1.094 2.874-.906 3.72-2 3.5-2.094 3-1.5 3.093-1 3L45 4403l-.313 2-.281 1.813V4408l-.5 1-1.594 1.5-1.125 2 .906 3.594 2.094.5 1.5 1.093 1.5 1 2.125 1.5 1 1.5v3.22l.188.78-.688 2.126-2 8.093-1 4.5 1 3.094 1.5 3v5.094l-.5 3.5-1 3-2.625 3.093-.5 2.5-.875 3.5-1.5 2-2.125 1.907-1.094.5-3.093 2.5-1.5 1.718-2 3.094-.188.907-1.219 3.687-.687.906-.5 5.094.5 4 1.5 4.094v4.5l.188 1-.688 3.093-2 2-1 2.5-.5 2.5.5 2.626.781 3.093.5 2.282.219 1.624 1.5 5.094 2.094 4 2 2.594.906 2.188 1.187 3.812.094 2.406-.5 2 .407 1.5.5 1V4549l-.094 2v1.5l1 1 1 .594 2 1 1.5 1.093 1.094 1.407 2.218 5.218 3.5 4.5 1.594 2.594 1 1 1.5.188 3-.906 3.094.125 3.5 1.093h6.812l1 1.5-.218 2 1.218 2.094.5.906.782.907 2.5 2 2 1.093 2.5 2.594 4.5 4.188 1 1.906.5 2v2.594l.5 3 .812 2.312.188.688 1.593 2.625 1.5 1.5 1.5 1 1.625.28 1.5 1.095.375 2 .5 1.5v1l-1.093 1-1 .5-2-.094-1 1.718-1 1.5-.188 2.375-.094.813 1.5.594 1.375-.282h1.719l2.093 1 .5.594-.093 1.5v2l.406 1 1.5 1.094 3.094 1.094 2.593 1h1.5l1 1 1 4 1.094 2 .906 1.906 1.313 1.406 2 2.094 4.375 5.187 2.5 2.625 1.625 2 1.5 3 1.687 2.5 1.594 1.782.313.812 2 .688 2.093.312 2.688.406 3 1.094 1.625 1 1.875 2.094 1.625 2 1 2.5.5 2.5.5 2.094v1l2 1 2.093.718 2.094.594 2.688.594 2 1 2.5 2.094 2.5 2.593 1.5 4 1 2.625 2 4 1.5 1.875.625 3.219-.5 2-1.125 2.5-1.5 2-1 1.5-.5 2.594v2l-.688 1.406-1.406 2.594-1 2.594v1.5l.5 3v4.593l-.5 2.5-1.094 1.813-1.312 1.5-1.5 1.094-2 1-1.094 1-1 2 .406 1.5 1 2.093 1.5 2 .407 3.625-.094 2.5-1.125 5-1.188 4-1.094 4-1.093 4.094-.907 3.688-.312 2.093-.188 1.219-.406 3.5-.594 3.781.282 5.125.218 3.5.594 2.375.406 1.5 1.594 4.5 4 2.219 4.094 4.094 3.594 4 1.5 2 2.125 2.094 3-.5 7.687 6.5 6.094 5.093 5.719 4.5 5.093 1.625 2.5 1 2.594 3 3 6.594 2.594 3.5 3.094 3 2 4.094 3.125 2 4.093 1.5 5.594 4.094 6.094 1.5 5.594-2.5 3.625-3.594-.5-3-.5-2.5-4.625-2.594 3.625-1.5v-3.5l-6.22-3 .5-2.594v-6l-3.5.5v-3.625l2-.5-.5-5v-2.593l2 1.093 1.594 1.5 2.5 14.125 5.126 2 3.593-1.5 2 2-3.5 3.594 4.094 1.5 3 3-5.094.5-1 3.594.5 2.5-2 4.5 1.5 2.094 1 1 9.188-3.5 3.594 1 3.125-2.594 2 3.094-1 5-2.125 5.093.625 4.5 4.593 3.125 7.094-3.625 5.594-1 .5-4 1.593-1.5 2.5.5 1.626-1.093 1-2V4855l2.5-.5 2.093-1-2.093-2-1-2.5 1.5-2.094 3.593-1 .5-3.5 1-3-4.593-2.094 1.093-3.5 3-1.5 1 4 2.094-1 1.5-2 6.094-9.125 3.593-3-2.5-3-2.093-2.093.5-1.5 3.093-.5 3.626 2 1.5-.5-1-2.5 1.5-4.5-.5-2.094-6.125.5-3.594 1.5h-3.094l-.5-4.5 1.594-3 1-1v-2.094l3.5 1 2.093 2.094 7.126-1 2.093.5 3.594-.5 1.5-6.094-2.094-5.594 1.094-7 3-6.125 3.594-9.093 3.093-1.5 4.626-2 9.687 4.5 3-1-1-5.594 1.5-1-2.5-1-5.094-2-5.093-1.5 1-3.594 2.5-3 1.093-2.5-1.593-2.5 1-6.094 4.093 2 5.594-4.5 2.594-2.625 1.5-5.5-5.094-3.093 2.594-3 2.5-2.5 5.593-4.094 3.626-8-4.625-5.594-.5-5-3.094-3.094-3-6 1.5-3.125-2-4-4.594-2v-1.593l1-1 5.594-15.594 4.593-13.688 4.126-6.125 6.593-6-.5-9.093 4.594-12.688 2-6 4.094-9.594 4.593-3.625 9.72-10.093.5-4 6.093-1.5 4.094-2.094 5.093-3.5 5.626-1.5 5.593.5 5.594-.5 10.313.5 2.5-3 4.093-1.094L443 4568l2.5 3.5 5.688 3.5 4-1.5 3.125-5 4.593-2.094 3.094-6.5 5.094-3.594 4.593-2.5-3.593-6.625 3-2.5 4.093-1 1-5.593-2.5-2 .5-2.5 6.126 2.5 1.5-3.5-1-8.094-1.5-1.5.5-4.594 5.093-5 3.594-2.594 3.5 1 5.094-3 4.593-.5.626 4 5.593-2.5v-4l-2.093-3.625 4.093-1 3.094-1.5-2.094-3.5 4.594.5 1-2.593-5.094-2 2.594-4.5 6.094-3.094 3.094-7.594 4.5-6.5 9.218-6.594 11.282-1.5 4.625-3.625 4-3-2.5-2-1.625-1-1.5-1-4.594-.593-3.594 4.093-15.312 10.625-4.594-5 1.594-5.125 2.5-1-1.5-2.5 9.218 3.5 1-1.5-11.718-6.593-2.594-5-1.5-2.094-4.094-7-1.594-13.188v-3.5l-.5-9.625.5-1 1.594-9.093 8.094-16.688 4.094-6.594 5.125-6.625 5.593-6.594 2-2 7.188-4.5 5.094-1-.5-4.593-3.594-3.5 2-6.594 4.094-7.594 2 2v2.5l-1 2.094 1.625 4 8.093-3.5 3.094 1-5.594 4 1.5 2.594-2 7 2.5 2.093 2.094 3.5-.5 3.5-1.594 2.594 1.094 3 3 1 5.094-.5 2.594-.5-3.594-6.094.5-5 2.594-3.593 3.5-5.5 6.218-5.594 7.594-4 9.688-6.094 1.5-5.125-1-5 3.125-5.594 1.5 2.5-1 4.594 2 7.125-.5 6 3.593 3.594 4.094 1 6.594 1 6.094-2 5.125-3.094 9.187-9.625 3.094-.5 2.5 3 3.094 5.125 5.625-1.5 4.093-1 3.594-5.625-.594-4.094-4-8-3.093-.593.5-3.5 3.593-7.094-2.593-4.5-4.625-.5-2.5-3.594 1-3-3.094-2 4.094-12.219 2.5-1.5 2.625-11.593-2.125-4.594-7.594-8.594-1.094-9.125-4.094-2.5 2.594-7.094-3.594-1.5-4.093-4-2-.5-5.125 5-5.094 4.094 2.594 6.5-3.594 2.125-3.094-7.125-2 3.5-2.094 6.625-5.593 1-6.625-.5-7.688-3-.5-5.625.5-4 12.313.5 12.187-7.594 8.188-9.593 4-4.594v-3l-8.594-6.094-2.594-4.5 1-3.625.5-5 4.594-1.594v-3H629l-2.094-2.5 1.094-3v-9.187l1.5-7.5-2.094-5.094 4.094-1 3.594-4.125 2.5 6.125-1 10.094-.5 6.594 2.594 3.5 4.125-3 2.5-9.094h4.093l1 2 1.5 2.5 3.094-1 4.594-8.594-2.094-5-4-1.5.5-5.625 1.5-1 3.094 2.5 5.594-8.594L674.405 4133l4-9.594-.5-19.813-1-5.5L683 4093h5.094l2.5-3.594h1.594l1 1.094v4.5l-1 4.593-2.594 6.5 2.594 1.594 9.218-9.187 8.594-6 .5-2.094-1-1.5v-2l8.688-10.094 2.5-1 .5-1.125-3-3.5-.594-1.5 1.594-2h12.718l7.313-4.062zm735.812 0-1.937 1.469-3 3v1.594l.5.5 2-.5 3.125-1.094-.5-.5 3-.5 2.093-.5 1.5-1.5.969-1.969zm32.406 0 .875.969h1.594l1.344-.969zm29.625 0-2.656 5.969-2.094 7.094-2 .5-1 6.624-4.593 2-2.625 4.5-4 11.688-5.594 4-7.688 12.688-4 11.624 1.5 2.094 4.594-4.093 10.688-8.626h2.5l1.625 8.126-5.125 5.593-2.594 9.594 2.093.5 6.125-8.594 4.594-4.593 5.594-4.626 1.5-2 .5-3.5-.5-3.093-.5-2.5-3.594 1.5-1.5-1v-6.594l1.5-2.5 3.594-3.5 4.094-3.594 9.593-16.218 3.125 1 3-9.094-3-7.094 1.938-3.875zm19.594 0 1.156 1.875 1.969-1.875zm21.781 0-3.718 8.469-2.625 7.094-4.594-1.594-6.594 7.094-1 10.718-5.094-1-4.593 14.094-5.125 8.094-.5 2.593-5.094 5-1 4.626-3.5 9.093-1.094 5.594-2 5 5.094.5 6.093-15.187 5.125-9.626 4.094-8.593 6.594-7.094 8.094-9.594 6.718-8.593 4-4.125h2.094l1 1-.5 9.218 1 2.5 4.094-4.593 5.094-20.22 5.031-10.468zm29.438 0-2.563 2.375-.5 5.5-1.593 4.094 5.593-.5 5.688 3.5 6.093.5 2.5-4.594-1.5-10.594-.03-.281zm48.843 0-2.5 5.281-2.5-2-4.625 2.594-3.093-2.094-4.094-1-5 3.594-1.594 6 1.094 5.094 2.5 3.5 1.5 5.594-.5 6.124-3 8.094 2 4 3.094-8.593 1.5.5 1.093 9.593h2.5l1.5 4.594-3.5 2v5.094l-3.093 4.5 2.593 4.593 6.625-2.093 4.094-3 2-6.094 2.594-1.5 1.5 3-5.594 13.688-5.093 8.624-2 7.094 1.5 8.594 4.593 1.5-1.5 4.094v4.5l-1 3.093-1 2 3.094 2.5 4.5-3 3.594.5 2.593 5 3-2-.5-5.093 1-5.5-3-1 .5-4.094 3-5.594 4.125-1 5.094-4 6.094-3.093-1.5-3-1.594-2.5.5-3.626h2.094l1.5 3.126 1.594 3 1.5-3 2.5 1-.5 3 9.218-1.5 3.594-8.126 7.094-2.593.5-6-2-3.094-3.094-2.5-6.093 5.594-4.125 6-2-4.5 5-18.188 4.125 3.5 1-5 2.593-2.594-1-5.5-1.593-2.625-2.5-2-1.125-3-1-3.093-2.5-3-4.094-7.594.5-5.5 3 1.5 1.593 5.5h6.125l-2.125-7.094-4.593-7-.875-3.781h-6.125l-.094 1.187-2.594 4.594-1.5-3 1.031-2.781zm54.844 0-1.75 1.688-.5 7.593v4.594l2.094 3 3.094 6.594-1.094 6.594 3.094 2 .5 16.218-.5 1.5 4.093 8.594 2.125-.5.5-3.094.5-5-2.625-2 1-3.593h3.625l1-3 2.594-.5 3 1-1 6.5-2 7.593 2 1.5 4.594-3 .5-3.5 4.094-6.593 1.5-4.626 2.094-.5 3-1.5 8.218-8.593 4-5.594 1.5-15.187-1.625-8.188zm84.813 0 5.844 14.188 4.593 7.093 1.5 1 3.094.094 1.5-10.687 1.5-8.625-2.062-3.063zm29.219 0v.469l.5 1.5 1.124 1.594 1 1 1.5.5 1-.5 2.094-1 1-1.594 1-1.5v-.469zm-322.876 3.969-2.5.5-1.625 3-1 2.094-1.5 3-1.5 3.5.5 2.124 1.5 1 2.125-.5 2.5-3.124 1-3 1.5-2.5 1.094-2.094.5-2.5-1.593-1.5zm-44.906 11.719-1.5.5-1.5 2.5-2.093 2-1.5 1-2 2.093-.5 1 .5 1.5 2 .5h1l2.093-1 2-1.5 3.594-3.094 3-2v-1.5l-1-.5h-.5l-2-1.5zm-27 9.593-4.093 4.094-3.5-.5-2.125 1-1.5 1-3.094 2.5.593 7.094-.5 3-3.093 4.093-5.594 3.5-1.5 5.126h3.5l1.594 4.5 4.593-4 3.5-1 3.125-3.126-.5-5.5h3l2.594 4 7.094-3 2.094-4.093 4-1.5v-2.5l-1.5-1-4.594.5-5.094 1.5-.5-4.094 1.5-4.5 2.594-6.594zm658.094 9.594-4.594 2.594-2.5 2-2.594 3.5-1.5 3.093-1 4-.5 3.126-.5 3 1.5.5 1.594.5h2l2.5-1 .594-2 1-2.126 2-1.5 1.5-1 .5-2 .5-2.093 1.094-1 2.5-1.5 1.5-2 .5-3.094-1.5-1.5-3.094-1zm-591.187 8.094-2.625 1.5-1 2-3 4-2.594 4.593-3 5.126-1.594 2.5.5 2.5 1.594.5 2-.5 3.593-6 3.5-3.626 1.125-2 1.5-2.5 2-3.093 1-3-.5-1.5zm-42.407 3-4 4.593-4.593 9.126-4.125-1.5h-2l-5.094 1.5-3.594 5.093-4.094 7.594-4.593 8.594-3.5 7 1.5 3.093h2.593l4.5 1.5 2.094-2 2 1-2 4-1 5.626 1.5 2 4.094-1.5 1-3 5.093-5.626-2-4.093 3-3 4.125 1 1-2.5-2-4.094 4-7.594 2.094-5.5 3.5-5.593 3.594-4.5-.5-3.626.5-6.093zm126.594 35.312-2.594.5-1 1.5v2.594l1.094 2 1 2 1 1 2.594.5 2-.5 1.5-1 1-2-1-2.5-1.5-1.594-1-1.5-1.594-1zm-72.406 4.594-1.594 2.094-1 3-1.5 4.093-1.5 3 1.5 1.5 1.5-.5 2.094-2 3.5-3.093 1.593-1.5 1.5-1.5.5-3-1.5-1-3.593-.5zm-127.594 1.187-2 1-2.094 1.5-3 3-1 2.125 1 2 1.5.5 1.5-1 1.594-1 2-2.125 2-2 1.594-3-1-1zm34.688 7.5-2.5 1-2.594 1.125-2.5 1.5-2.094 1-2 1v1.5l1 1h3.094l3 .5h1.593l1.5-1.5 2-2.5 1.625-2.625.5-1.5-1.125-.5zm26.625 6.625-2.125 1-2 1.5-1.594 1.5-2.5 3.094-1 2 .5 2h2.5l1.593-1 2-2.5 2.625-2.594 1-2 .5-1.5zm13.687 1-2 2-3.094 3-2 3.094-3.093 3.5-3 4.094-2.625 3.5-2 3.594.5 3 1 .5h1.125l2.5-2 1-1.5 1-1.594 1.593-2.5 1-1 2-1.5H752l1.5.5 1.5 1 1 1.5 1.094.5h2l2.5-2.5 1.093-2 1-1.594v-1.5l-1.5-1-.593 1-1.5 1-1.5.5-1.5-.5-1.594-1.5v-1.5l1-2 1.094-1.5 1.5-2.094 1.5-1.5-.5-1.5-1-1-1.5-.5zm-36.687 2-1.5 1-5.625 9.688h-3.094l-1.5 1.5-1.594 1.5-1.5 1-2 1.5-3.594 2.094-4.593 3.5-2 6.093 4.093 3.5 6.594 1 5.094-3 2.5-9.593 4.593-1.5 1.125-1.594 1-2.5 2.5-1 1-4.594 2.594-2-2.593-3zm-75 15.782-2.5 2-1.125 2 .625 2 1.5 1.093h3l2.593-.593 3.094-1.5v-2l-.594-1.5-4-1.5zm31.093 4.5-3.5 2-3.093 2.593-2.5 4-1.625 4.625.5 3 1.125 1.5 2.5.5 3.593-1 2-.5 2.094-1.5 1.5-2.625 1.5-2.5-.5-1-1.5-1v-1.5l1.5-1.5 1.5-1.593v-1.5l-1.5-1.5H678zm86.282 1.5-2.094 1-3 3-2.594 3.5-2.5 3.093-.5 2.5 1.5 2 1.5.5h2.094l1.5-1 1-1.5 1.593-2.5 1.5-2.593 1-3 1-2.5-.5-2zm-78.594 16.218-5.594 4.094-2.5 2-1.094 3-.5 2-2.5 1.094-1.593 1.5.593 1.5.5 1v4.5l1.5 1.094 2.594.5h3.5l1.594.5 2 1.5 2 1 2.593-.5 2-2.5 2.125-3.594.5-2-.5-1.5-1.625-1.5-1.5-2.594-1.5-2v-1.5l.5-2 1-2.594-.5-2-1.5-.5zm35.218 11.094-3 1-1.625 1-2 3.594-1.5 3.5-1.593 2.5 1.593 2.094h1.5l2-2.094 2.125-2 1.5-2.5 2.094-2.5 1-2.594-.5-1zm-53 16.688-2.125 1.593-1.5 2.5-1 3 1 2.5.5 2.626 1.625 2.5 2 .5 3.094-2 1.5-1.5 2.5-2.626 2.594-3 3-1.5.594-2-1.094-1.593-2-1-2 .5-2.094 1.593h-2l-1-1.093-1.093-1zm-25.406 111.812-2.593 1.5-2.5 2.594-1.625 1.5-1 1.5v1.5l.5 1.5h1.625l2-.5h2l1.593 1H645l2-.5 1.5-2v-3l-.5-3.094-2-1.5-2.594-.5z" style="fill:#9faec0"/></svg>