<svg xmlns="http://www.w3.org/2000/svg" width="1928.813" height="1007.719"><path stroke="#9FAEC0" stroke-width="10" d="M10.719 0 9.5 45.938 8.406 93.625l-.156 4.969-.156 5-1.656-.156-1.032 26.843-.562 13.594L3.906 168h153.782l.218-.406.031-1.5v-1.25l.062-.75.344-1.125 1.094-.875 1.25-.5 1.062.281.438.219.812.281.938.219.75.093.906-.343-.094-1.125-.156-1.375-.781-.75-.5-.407-.22-1.343.063-1.25.687-1 .75-.75.407-.313.5-.312.843-.532.72-.718.843-1.438v-1.25l-.219-1.312-.75-.75-.5-.532-.5-.75.062-.75.75-.25.5.282h2.313l.78-.188.345-.344.5-.75.218-.343v-.5l.125-.625-.812-.75-.75-1-.813-.75-.75-.782-.5-.75.813-1.25.312-.25.75.532.438.25 1.312.75 1.25.75 1.282.25h1.562l1.25-.282 1.281-.218.813-.25 1.562-.188 1.5-1.312.25-.282.344-.312 1.281-.75.22.312.28.407.657.937.25.75.562 1 .75.438.75.25.781-.188.5-.75.625-2 .438-.75.75-1.062 1.062.125 1.532.03 1.062.5.531.5.75.563.25.75.47 1.282.5 1.25.937 2.062 1.25.813 1.156.25h2.812l1.282.343 1.406.344 1.062.5 1.5 1.188 2 1.468 2 1.688 3.282 2.5 3.843 3 3.157 1.719 3.312 1.843 1.5.782 1.531.25 1-.25 1.063-.5.5-.75.25-.25v-.5l-.5-.75-.188-.782-.25-.5-.25-.656-.25-.437-.375-.47.313-.405.25-.282.187-.093.313-.219.5-.438.5-.656.312-1.094-.25-.75-.562-.75-.75-.812-.25-.5.594-1.156.468-.282 2-.593 1.125-.563 1.125-.937 1.594-.969.781-1 .25-1 .5-1.25v-1l-.5-1.531.25-.5.72-1.219.75-.938 1.28-1 1.125-.843.188-.157 1.344-.968.218.406 1.594.469.688.25.5.25.843.25 1.313-1 .25-.5.25-1 .562-.969 1-1.031.5-.563.75-1 .875-1.344.907-2.406.468-1.594-.156-.968-.5-1.282.281-.5.25-.5 1.063.032 1.187-.188 1-.5 1.157-.187.843-.97.25-1.03-.187-.875-.25-.75-.5-.25v-.75l.5-.5.562-.25h1.5l.782.25.5.156.75.312 1.25.25.562.032.75-.25.531-.25.5-1.25 1.313-2.5.25-.75.187-.938v-1.344l.063-.5.313-.75 1-.75.5-.406 1.531-.937.813-.657 1.03-1.312.22-.25 1.906-2.5.125-.188 1.062-1.75.5-2.062.313-2.438 1-1.25 1.094-.812 1.28-.25 1.22-.094 1.03.25 1.376.563 1.031.937.969.656 1.75.438.531.062h.219l1.594-.156 1.28-.687.72-1.22.28-1.343-.343-1.5-1-1.5-1.281-1.062-1.313-.938-.687-.937-.219-.25-1.094-1.5V79.28l.157-.687.437-1 .094-.25.563-.75.312-.313.5-.312.25-.032.281-.218.219-.594.594-.656.5-.782.75-.5.281-.5.5-.5.563-1 .187-1 .156-.718.344-1 .219-1.032.906-.812.438-.156h.843l.719.062 1.5.25h.781l.469-.187.375-.5.063-.25.344-.97-.25-1.25-.25-1.28-.344-2.063-.406-4.094.25-1.75.25-1.25.843-.656.75-1.312.625-.438 1.125-.844.563-.25.75-.312.812.219.625.03h.625l.75-.187.782-1.312.75-.75 1-1.156 1.062-1.094.781-.344.563-.406.437-.094.563.063h.562l.5.25-.062.75-.437 1.093-1.063 1.032-.937 1-.75 1-.813 1.062-.562 1.75-.781 1.75-.313.906.25 1.282.5 1.5.5.5 1.219.625.594.25 1.25.28 1.593.313.5-.156.75-.312.438-.188 1-.75 1.125-1 2.094-.812.75-.25 1.25.156 1.093.469.188.125 2 1 1.25 1.562.562.656.563 2.094-.469 1.563-.781 1-.813.687-1 .5-2.593.688-.813.218-1.25-.156-1-.75-1.031-.25-.75-.25h-1.063l-1.5.25-.812.188-.781.5-.5.25-.97.656-.53.469-.563.593-.25.844-.156.594-.094.969v.78l.062.313.531.25.25.282.719.875.437.593.563 1.407.5.937-.062 1 .562 1.5.438.25.656.75 1.156 1 1.094.594h2.406l.75.219 1.532.25h.75l.312-.125.156-.594.157-.5.437-1.094.25-.344.594-.562.406-.156.25-.032.5.157.75.5.313.5.187 1.03v.563l.313 2.282.437.968 1.75 3.157 1.438 2.53 2.25 1.563.75.532 1.312.5.938.75 1.062 1.062 1 .5 1.063.5.75.25.75.406 1.75.532.75.562.5.5.78.938 1.22 1.156.125.219.875.78.28.095.563.375 1.157.687.187.25.813.813 2.78 1 .75.25 1.313.25.25.093 1 .5.782.438 1.312.5.5.219.563.187.625.313 1.156.187 1.656.313.906.03h.75l1.532-.25 1.5-.25h.812l1.313-.343 2.78-.406 1.813-.5 2.032.312 2.312.5 1.563.938 1.625 1 .812.25h.594l1.812-.438.532-.469 1.25-.53 1.218-.407.782.312.218.625-.03.625-.25.688-.282.687.281 1.063.313.5.937.344h.5l.75.062h1.563l1.781.844.719.437.5 1 1.281 1.25 1 .657.75.5 1.313.406 1.5.187h.312l1.531-.187 2-.438 2.094-.562.25-.063 1.813-.53 1.812-.47.25-.03 2.594-.594.406-.063 1.875-.156 1.5-.094h.313l.75.25 1.062-.062 1.25.312 1 .75 1.25 1.063 2.094 1.25 1 .437 1.031.313 1.469-.157 1.281-.656 1.125-.25 1.031-.437h1.25l1.25.03 1 .563.75.344.5.188.907.562.687.188.969.062h.25l.781-.437.875-.5 1.031-1.5.25-.75.75-1.25.313-1-.219-2.25.5-1.813-.125-.437 1.844-1.375.5-.344.25.156.531-.062.219-.094.281-.188v-1l-.187-.75-.5-.812-.813-.344-.75-.5-.781-.812-.406-.688v-.812l.094-.532.562-.468 1.188-.625.718.03.688.157.906.406 1.25 1.5.438.782 1.25 1.562.75 1.25 1.25 1.25 1.062.25 1.25-.156.531-.344v-1.5l-.437-1.156-.656-1.031-.657-1.125-.281-1-.25-.75.25-.5.5-.25.531-.25h.657l.593.25.5.312.719.656.5.688.344.906.312.5.844.656.5.25.438.094.75.25.5-.25.75-.5v-.75l.094-1.344-1.375-2.468-.75-.75-1-.782-1.375-1.343-.125-.219-2.813-.844-3.5-2.406-3.25-2.687-2.312-4.157-.75-2.406.156-1.187.906-1.063 1.25-.906.75-.438h.5l1.563.063 1.75.281h1.093l1.032.469 1.5.5.468.187.75.313 1.75 1.187 1.532.844 1.562 1.156 2.938 1.406 2.812.5.813-.25 1.5-.5 1.53-1 1.063-1 .25-1 .157-.812-.407-1.75-.812-1.75-1.5-1.281-1.5-.813-1.094-.406-.437-.406-1-.5-2.47-1.438-1.5-1.25-.843-1-.25-.187-1.437-1.375-2-2.938-.25-.594-.563-1.406-.312-.906.312-1.406.594-.875.812-.5.344-.157 1.063-.5h.187l.813.032h1.093l.688.312 1.593.438 1.563.562 2 .594 1.938 1.094 1.5 1.312 1 1.063.968.687 1.532 1.063.5.25.812.75 1 .25 1.063.375.687.312h.813l.5.25.5.063.78-.25.813-.5.5-.75v-1l-.5-1-.218-.5-.75-1.313-1.938-2.562-.25-1.5.313-1.532.78-.718.813-.5.5-.188h1.25l.782.5 1 .25 1.062.5 1 .5 1.313.25.5-.094.78.25.97-.312.53-.844.313-.75-.468-1.562-.844-1.438-.594-.906-.187-.437v-.313l.187-.437.25-.75.844-.22.968.25 1.594.5 3.594 1.063 5.063 1.157h.5l.343.343 2.688.844 1.406.5 3.594 1.969 3.812 1.781 2.844 1.219 2.594 1.375 2.593.968.563.25 3.094.938h1.25l1.062-.031.844-.563.594-.5.25-.656.156-.781v-.5l.313-1.25.03-1.25.5-2 .97-1.875 1.25-1.594 1.374-1.531.219-.219 1.281-1.187 1.875-1.72 1.531-1.25 1.25-.937 2.563-2 2.344-2 .343-.437.344-.719.563-.656-.313-1.375-.687-.875-.157-.188-.343-.562-1.063-1-.125-.375-.156-.313-.219-.562-.03-.438v-.593l.28-.47.5-.78.813-.75 1.063-.407.937-.437 1.563.03 1.03.063 2.063-.25h1.782l.25.032.75.062 1.562-.687.5-.25.813-.97.53-.5.813-.75 1.407-2.78 1.093-1.157 1-1.25 1.532-1.312 2.312-1 4.406.312 4.594 1.75 5.063 1.75 3.03.75 4.97 1.282 5.687 1.875 3.313 1.375 2.03.5 1.75 1.375 1.313.937 1.188.688 1.312 1.218 1.25 1 1.407.782 3.593 2.156 2 1.719 2.032 2.03 1.468 1.72 1.532 1.937.968.844.407 1 1.53 2.062 1 1.5 1.063.938.188.156 1.062.906.188.157 1.093.593 1 .782.813 1 1.094 1.5.968 1.75 1.532 2 .343.906.407.906 1.062 2 3.032 4.5 1 1.813 2 2.25 1 .687 1.375.594 1.53.5 1.157.094 2.063.125 1.937.03 3.594-.437.406-.218 1.344-.344.406-.406.656-.594 1.5-1.031 1.032-1 .562-.75 2.063-.5h1.5l1.03.25.75.531.47 1.063.437 1.156.094.937.156.813.156 1.281.031 1.719-.343 2.75 1 1.281 1.25.813h1.312l.75-.063.844-.437 1.062-2.5.282-2.22.218-2.593.25-2.75v-2l-.718-1.437-1.5-1.063-1.094-1.031-.156-.75-.157-1.125.563-.625.5-.25.937-.25h1.125l1.25.437 1.125 1.25.75 1.25.5 1.25.97 1.844v.469l.75.75.5.781.75.25.5.5 2.155.75 5.5 1.25 3.594.594 1 .406 1.031.063 1.157.03.593-.25.313-.124.594-.406.468-.844.282-1-.5-1.5-.688-1.313-.5-1-.562-1.406-.157-.906.25-.438 1.157-.562.406-.188 1.406.594 1.406.75.625.5 1.063.75.75.25.812.25 2.532 1 5.593 1.594 3.125.469 1.032.25.968.656.75.531.594.563.5.843.594 1.594.25 1.344.187 1.5-.03 1.75.187 1.75.062 1.812-.406 1.5-.313 1.5-.5 1.25-.03.75-.563.75-.281.688-.47.562-1.905 2.188-1.782.906-2.968.719-4.782.375-2.906.125h-2.187l-1.313.25-1.312.437-.782.188-.75.75-.562 1.25-.281.75.25 1 .375 1.406.406.469.156.187.594.844 1.656 1.094.688.219.468.687 1.844 1.313 1.25 1.187.75 1.25.5 1.063.25 1.343v1.25l-.25 1.156-.5 2-.25 1.782.25 2.75 1.313 1.719 1.125.5.875.28h.937l.844-.25 1.062-.25.938-.437 1.062-.687.782-.625.5-.375.562-1 .25-.469.313-1.25.28-1 .22-.906.125-.281.625-1 .187-.25.438-.313.5-.5 1.312.063h.75l1.063.25.75.25.5.593.25 1-.062.844-.062.344-.282 2.25-.5 1.25-.968 1.906-.75.5-.344.406-.906 1.188-1.375 1.312-.813.75-.5.5-.187.156-1.625.844-.438 1.156v1.344l.406 1.156 1.344.844.906.563.344.031 1.063.219 1.125.25 1 .187.312.063 1.656.25.907.03 2.28.157.313.094 1.75.562 1.407.657 1.843.78 1.75.845.25.062 1.032.094 1.5-.5 1.312-1 .438-.344.812-1.062.656-.438 1.938-1.687.5-.25 1.5-.5 1.594-.25 1.968.187 1.032.25.5.25.75.813.375.937-.25.844-.47.75-.437.562-1.156.688-1.5.906-1.062.688-1.282.406-2.062 1-.781.25-1.75.5-1.907.969-1.062.937-.406.563-.282.78.25.845.157.312.875 1.156.875.907 3 1.843 1.25.782 1.03.75.75.75.22.312.343.938v.5l-1.062.5h-1.906l-1.125-.032-1.063-.25-1.406-.25-.656-.093-.282.03-.25.063-.468.532-.344.468.094.532.5 1.25.75.75 1.062 1.468 2.25 1.344.5 1 .563.5v.5l.125.594v.406l-.188.438-1.187.812-.469.25h-2.406l-.375-.062-.75.062-.906.313-.72.187-.28.5-.22.344.25.75.47.969.75 1 1.25.625.843.53h664l.062-.812-.25-3v-1.812l-.312-.75-.25-2.25-1-.75-2.844-.25-1.25 1.25-1.062.75-1.532-.5-1 .5-1.062 1.5-1 1.812-.25.5-.563.25-1-.5-1.28-.812-.25-1-.25-1.75 3.093-2.5 1.812-1.75 2.032-1.781 3.062-.25 2.031.75 3.375-1.75 4.844-5.063 1.281-1.25 3.063-1.5 1.562-1.25 1.032.5-1.032 3.5-2.062 3.063-1.813 3.75-.25 4.03 1.063 2.5 3.062 2.563 1.532 2.25-.657 1.813h45.657l1.156-.563 2.812-.25 2.344-1.75 1.25-3.312v-2.75l-.5-4.031-.5-2.5v-5.313l.25-1 1-2 .531-1.25-.25-.75-1.28-2.062-1.063-1-1.5-2.25v-.75l-.782-2.282-1-1.25-1.812.5-.25 1.282-1.313 2-.75-1.5-1.28-1.532-1.563-1.25-.75-.75-1.282-.75-.75-2.75v-4.062l.25-1.75 2.282 1.25.25.5 1.062 1.75 1.281 1.312 1.5.25 1.813-1.562 1.062-4 2.782-6.781 3.343-6.813 1-2 1.813-.25 3.094-1 2.562-2.062 4.906-3.75 3.844.25 2.031-.25 2.563-.25.25-.75.25-2.032-.75-1-1.813-1.25-1.78-.25-1.063-.25-.25-.75.25-1 1.062-.75h1.781l2.313 1.25 1.562-.75 1.25-2.062 1.032-1.25 1.562-.25.75 1.5-.5 1.812-.25 1.75.5 1.25 1.281 1.75v3.032h1.25l1.063-.75 1.5.25 1.812.75 2.032 2 1.562 1.75 1.281.75 1-1.25-.75-2.5-1.28-3.282-.25-.5 1.03-1.25.75-1.25-.25-1.5.75-2 1.063-.812 2.812-1.25 2.282-1.5 2.343-.5 2.563.25 1-2.25v-2.531l.312-3 .75-2 1.532-1.813 2.812-1 1.531-.5.75 1.75 1.313 2.563-.25 2-1.563 2.5-1.78 3.28-.75 1.75-.25 2.25-.563 1.813-.5.75h-.75l-.782-.75-.75-.812h-1.062l-.5 1.312.25 2.25 1.062 1 1 1.25-1.814 3.782.563 2.5 1.5.25.531 1 .5 3.062-1.031 2-1.812.75h-1.5l-1.563.5-.5 2-.281 5.563-1.813 3.25-.75 2.03-1.781 2.75-2.062 1.5-1.313 2.063-.75 1.5.75 2.5.313 1.75.25 2.782v2.5l-1.313 1.5-1.531 1.812-1.25 1.5-1.063 1.25-.25 3 1.813 1h1.531l2.813-1.75 1.812-1.75 2.281-3.812 1.563-3 1.531-1.75h2.563l1.562-.75 1-1.532.531-1.75 2.063-2.5 3.031-1.75 2.063-1.812 2.843-3 1.75-1.5 2.063-1.75.781-1.281.5-2.25h-2.531l-1.563-.5-.75-1v-1.75l1.563-.5 4.844.75 6.156-2.063h1.031l1 2.313.5.5 2.313-.5 1.812-2.813 1.531-3 1.563-3.562 1.781-4.25 2.313-4.532 2.062-3.5 4.344-3.562 2.031-1.25v-1.5l-1.5-1.75.25-1.281 2.063-1.5 1.25-2.25.812-1 .25-2.563h1.781l1.563-.75.5-1.75 1-.75 1.031 1-.5 1.75-.531 1.813 1.531 1.75.75 1.75 1.313 1.5 1.062 1.75.25 2.03-2.062.25-2.844-1.75-2.063.25-.25 2 1.063 2.25v1.75l-1.063.75-1.281-.75h-1.25v1.813l1.25 1.75-.25 2-1.25 1.75-2.375 1.532-2.031.5-3.063.75-1.281 1.25-1.562 1.5-.25 2 1.812.25h2.844l-1.063 1.812-2.031 1.75-.75 1 2.281 1.75 2.063.75 1.531 1 .5.813-1.531 1.25-2.063-.5-1.781-.5-1.25.25-1.812 1-.313-.75-.5-1-1.25.5-1.281 2.5-1.313 2.25-3.281.25-2.625.75-2.531 1.03-2.313.75-1.781.75-.25 1.75-1.312 3.313-.5 1.25-.25 1 1.812.75 1.5-.5 2.031-.5 1.563.75 1.531-.25 1.563-1.5 1.562-.5 2.281 1.25 1 1.5 2.063 2.25 1.031 1.75 2.063-.25 2.312-1 2.531.75.813 1.782.25 2.5 1.781 2.75 1.75-.5h2.625l.25.75-1.562 1.25v.75l2.312 2.312 1.531 1.5 3.094 1.25 3.313.25.812.25.25 1.25-1.812 1-1.813.25-1.781-.75-2.563.5-1.781-.25-.5-1-.812-2.5h-1.813l-2.531.25-1.813-.75-.75-1.25-.531-1.5-.25-1.062-3.062-1.5-.5-1.25-.813-1.5-2.781-.75-4.094-.5-2.312-2.5-1.563.25-2.531 1.5-1.563 1.5-1.781 1.5-1.062.75h-.75v-3.25l-.5-.25-2.313.75-3.094-1.25-1.281-.75-1.25.5-1.812 1.25-2.313 2.75-.531 1 .281 1.062 1.75.75 1.563.75.5 1.75.061 2.25v1l-1.562-.25-1.313-1.25-1.28-1-1-.5-1.313-.5-.5-1.25v-1.5l-.75-.5-1.782.25-.5 1.75-1.562 3-.813 2.063-1.78 1.5-1.25 2-.813 2v1.75l-1.5 2.03-2.344.25-1.25 1-.813 2-.75 2.813-.218 1.063h100.406l-2.875-33.563-7.25-92.656-.563-40.5-97.375 1.813-53.312 1.093-36.406.688-4.657.344-2.53-.25-19.75.5-53.313.906-62.782.25-5.156.25-56.062.594-37.75.5-22.094.25-66.906.875h-1.532l-52 .343H980.5l-76.093-.093-28.718-.25-3.344-.063-87.657-.687-114.093-1.906-69.688-.22-46.968-.187-57.375-.343-16.407-.094-45.156-.5-118.156-2.219-20-.187-18.188-.157L252 2.22l-54.094-.594L107.281 0zm1455.344 137.219-1.063 1 .25 2 .25 2.312v4l-.75 3.813-.75 4 .25 2 1.813.75 2.03 1.281.75 2.25 1.313-.75 2.032-2 1.5-2.531 1.312-2h2.313l.53-1.5v-.75l-.53-1.313-.5-.25-1.813-1-1.25-.75-.812-1.5.5-2 .812-2.312-.25-.5-.25-1-1.562-1.75-1.032.75-1.812.5-1-.5-.5-1.25z" style="fill:#9faec0" transform="translate(0 125)"/><path stroke="#9FAEC0" stroke-width="10" d="m3.906 168-2.812 72.719-.657 26.656L0 284.031l.438.156 1.75.532 1.656.375.906-.063.438.156.562.282.656.375.657.187 1-.656.187-.281.344-.906.156-.344.438-1.375.812-.75 1.063-.438h3.593l1.5-.156 1.031-.937.813-.5 1.313-.97.78-.187.97-.25 1.093-.25.438-.437.593-.5.407-.563.656-.812 1.062-.344.844-.406.781-.5.407-.344.562-.937.281-1.5.062-1.25.563-1.5.531-.5 1.063-.47.656-.75 1.188-1.187.593-.344 1.313-1.218.187-.188 1.844-1.687 2.125-2.719 1.594-2.25 1.687-1.687 1.063-1.75 1.25-1 .781-1L46 251.53l.75-.5.75-.594.593-.843.157-.219.812-.937 1.375-.563.656-.187.907-.22.406-.093.75-.187 1.156-.22 1.531-.5 1.344-.874 1.125-.906 1.25-.813.75-1.031.281-.719.75-.75.813-.5.75-.25.25-.5-.156-1.281-.188-1.25.094-.969.531-1 1.469-.687 3.656-2.594 3.094-.25 1.281.093.75-.343.75-.719 1.125-.781 1.438.031.5.312.25.25 1 .782.844.906 1 1 1.812.25 1.531-.25 1 .156 1.625-1.5.282-1.25.718-1.156.188-.188.687-.843.313-1 .25-1.25.062-1.5.281-1.25.75-2 .906-1.5 1.063-1.219.625-.531 1.125-.407 1.375-1 .75-.812.312-1.188 1.063-.968 1.281.25 1 .312.813-.187.75-.5.75-1.063.593-1.187-.312-.813-.344-1.062.219-.375.125-.563 1-1 .25-.75-.25-1-.75-1.312-.25-1 .75-.75h1.062l1.594-.094.75-.5 1.063-.437 1.28-.72 1.063-.25 1.313-.25 1.281-.437.906-.406.75-.594 1.688-.406 1.656.063 1.469.03h1.094l1-2 .78-1.25.75-1.5.813-1.75 1.563-2.03.937-2.594 1.094-1.5 1.063-1.469 1.28-.25.313.156.438.094.218.062.782.282 1 .468 1.062.25 1.063-.156.75-.344.531-.718.219-.688-.219-.937-.531-1.125v-.532l.875-.593 1.062-.5.75.5.813.75.687 1.093.75 1.25.188 1 .5.532.75.5.5.25.812-.25.5-.688.062-1-.562-1.344-.813-1.75-.5-1.5-.25-1.75.25-1.562 1.063-1.25.75-.25.5-.75.656-1 .094-1.656.5-1.25.344-.532.719-.656h1l.75.563.75 1 .094 1.28.03.75.063.5-.062 2.25.468 1 .5.563 1.032-.25 1-1 .562-1.25.156-1.843.188-.407.156-.812-.062-1 .563-.75.812-.25H155l.843.344.719-.375.781-1 .344-.594zM732 168l.438.281 2.562.563 4.906 1 1.532.25h2.75l1.5.531 1.312.219 1.063.5.843 1.031 1 1 .157.313.375.843.468 1.563.282 1.187 2.062 3.406 1.813 3.782 1 3.5.5 2.25.094.719.25.843-.062.813-.157.375-.094.375-.531.437-.5.25H754.5l-1 .188-1.312.5-.594.219-.687.25-.5.5-.062.75v1l.218.906.094.844.5 1.156.5 1.5.344 1 .25.437.188 1.25.25 1.063.218 1v.75l-.062 1.25-.156 1.281-.437 1.469-1.063 2.25-1.594 1.437-.781.75-1 .656-.25.5-.5.75v1l.031 1.032.312.562.5.75.5.563.344.5.156.187.188.094.812.5 1.25.75 3.032 1.094 2.062.812 2.344.844.719.25 4.125 1.594 1.5.375 1.625.187 1 .25 4.593 1.094 2.532.312 2.125-.468 1.531-.5 1.062-.75 1.188-.688 1.312-.5h1.032l1.5.75.812.844.5.5.656.719 1.157 1.125 1.25 1.062 3.031 1.75 4.156 1.813 3.063 1.125.875.312 4.75 1.313 5.718 1.125 5.094.906 4.594-.25 1.344-.531 1.218-.469 1.782-.75.406-.156 1.5-.375 1.719-.469 2.281 1 1.312 1.25.75 1.812.25.907-.25 1.593.25 1.5.5 2.282.907 1.562 1.125 1.688 1 1.468.562 1 .813 1.157.25.375.937 1.25 1.5 2.062.344.438.5.812.406.656.344.594.469.5.937.844 1.063.594.187.156 1.813.312h.75l1 .157.75.25 1.25.5 1.093.437 2.532 1.313 2.062.843 3.25 1.282 1.063.375.5.187 1.5.563 2.031 1.25 2.094 1.531.812.75 1.5 1.75 2.063 2.062 1 .782.781.718 1.344.938.468.312 1 .75 1.844 1.782.156 2-.062 1.75-.594 1.062-.75 1.156-.844.782-.5.5-2.312 2.062-.594.813-.687.937-.5 1-.375 2.094-.031 1.812-.063 1.5-.25 1.532-.031.375-1.063 1.5-1.312 1-1.781 1-2.094 1-1.25.593-.813.344-1.5.656-1.343.532-2.22.906-1.53 1.25-1.063.75-.25.25-.75 1.25-.531.75-.469 1-.781 2.75-1 3.812-1.563 6.188-.812 2.594v2.25l.125 1.375.25 1.343.437 1.313h449.782l2.03-.969 4.345.25L1307 336h3.47l-.407-2.531-3.625-1-1.781-1.25-1-1.25 2.78-1.25 2.063.5 2.563.75 2.094 1.75 3.53-1v-3l-3.28-2.532-5.157-2-3.312-3-2.031-2.812.5-5.25-2.313-.5-2.344 1.5-2.062 4.5-2.531 1.75-2.313.062-.75 1.25.5 2 .25 2.25-2.844-1-3.062 3.5-1.781-.5-.25-2.75 1.53-3 1.5-1.5 1.563-1.312 1.063-1.75-1.813-4.5-1.562-.531-2.281 5.281.25 2.25-2.313 2.312-4.344 1.25-6.687 2-1.5-.5.75-2.25 3.094-2.312 3.03-2.25 3.876-2.25 2.031-2.25.5-3.281.563-2.25-2.844-2-3.563-3.063-2.343-4.25-.75-2.562.5-2.25.78-1.25.75-1.5 1.063-2.282-1.062-1.5h-1.531l-1 1.782h-1.313l-1-2.032-.5-.75-2.031.75-1.563 1.25-2.593 1.032-1-.782-1.813-1.25-1 .25-.781 1v6.532l1.781 1.25 1 1.062.313 1.25-.563 1.5-2.031 2.25-.75 2.25.25 2.063-.813 1.5-1.75.5-2.062 1.25-1.281 2.5-2.063 5.281-2.281 2-1.063-1v-2.25l.813-2.5 1.75-2.281 1.781-4-.5-.75-1.531 1.25-1.813 1-2.062.5-1.75-.25-1.281-1 .25-1 2.03-1.75 2.563-.563 2.844-1 2.563-2.5 1.53-.5 1.313.25.25-2.75-.251-3.562-.562-1.5-1.75-1.75-1.032-1 .5-2.282 1.282-1.25 1.562-1.5.75-1.5-.75-1.75.25-1.312 2.313.25 2.28-.5.25-1.75-2.03-3.25-2.313-2.281-2.062-1.75-3.032-1.25-3.093-.5-2.313-.5h-2.062l-1.782 1-1.312 1.25-1.5 1.5-.781-2.75-1.5-1.5-2.876-.75-.25-2.313 1.063-2.5-.312-1.5-1-2 .5-2.562 1.062-1.5 1.25 1.25.313 2.812v2.5l.5 1.75 1 .75 1.78-1.5 1.813-.75 4.094-1.5 4.094-2-.5-2.812-2.281-1.5-2.563-.75h-1.312l-1.532-.25-.75-1 .5-2.782.782-1.75 1.75-.5 3.374 2.5 2.032 1.532 3.094-.25 3.874.75 1 3 .25 4.562.5 1.75.782.75 2.562-1.75 2.782.25 1.562 2 1.563.25 3.03 1 1.063 1 .75 4.563 1.032 3.25 1.25-.25H1277l1.813-.25 2.53.531 1.063-1.531 2.282.75v2.031l-1.032 2.25-.5 2.25.75 1.5 3.094-1.5 1.563.75h3.03v-2.25l.563-1.75 2.532-.75 1.312-.5.25-1.781-.25-2 1.25-2.25 2.594-2 2.062-1.25 1.25.75v2l-1.312 1.5.062 2 .75 1.781-1.563 2.25-1.781.75-2.062 2.25-1.313 3.312-2.531 1.25-2.063 3 .25 2.532.5 1.5 3.094 1.5 3.625-1 3.031-.75 1.563-.25.25-2.282-.25-1.75.781-1 3.563.75 5.656-.5.25 2.5-1.813 3.532.25 2 1.063 2 1.281 1.562h1l1.563-1.312.5-2.75v-2.5l.5-1 2.343 1.25 2.313.5 1.25-1.75 1.031-1.532 1.563-1.5 1.812-1.75 2.531-1.5 2.313-.25.781-1.25-.781-1.562-.75-1.75.25-2 1.531-2.25-1.531-.5-2.313 3.75-1.781 2h-3.125l-2.781-.5-1.313-1.5-.75-1.5-2.281-.5-2.312-1-1.313-1.781-.25-2.25-3.594-3.75-1-1.813-.781-1.75.531-6.312-1.531-3.5-2.062-2-3.094-.25-2.313-.75-.5-1.532-1.281-1-1.25.75-1.562-.5-.813-1.25-.75-1.5-1-1-.531-1.75-.75-3.312 2.781.25 2.875.75 4.344 1.25 5.156-1 1.25 1.5-1.312 2.312-.75 2.5 2.312 1.75 4.344 1.532 2.031-.532 1.813-.75 1.562.5-.75 2.532-1.812 4 1 2.812.812 2.75v2.75l.25 2.563 2.031.25 3.063.5 2.031 2.75 1.063.5 1.5-.5 1.812.5 1.531.5-.25-2.75-.25-3.813 1.313-3 2.531-2.25.25-2.562-1.531-1.25v-1.5l1.281-.25 2.313.5 2.062-3.5 1.531-1.782.5-2.5-.75-.75-3.344 1.75-3.843 1.25-2.063 1.032-1.531.75-2.062.25-1-1 3.843-3.532 2.063-2-.75-2-.813-1.312-1.531 1.062H1327l-2.813-3.312-3.594 1.5-1.5-2.25 1-1 .5-1-1.25-1.5-2.281.5h-1.562l-.5-1.781 1-1.25 2.562.25h1.531l.5-1-.75-1.75 2.313-.75 2.531 2.25 2.875 2.75 1.781-.5 1.5-1.25 2.063-1.25.781.75v1.75l-1.281 2.281 2.844 2.5 1.25-1 1.562-1.5 2.781.5.563 1-.813 2.75 1.313 1.5 2.281-.5 2.063-1.75.75-2.5-.75-3.031-3.844-1.75-3.063.25-1.781-1.25-.5-1.75 1-2h3.094l2.531 1.5 2.813.5 1.812-.75 1.031-1 3.063.75.531 1.75.5 2 .5 2.531H1355l1.75-.781h1.312l.25 2.531 1.031 2.5 1.5-.5.313-1.75v-1l1.25-.75 2.531-.25 1.813.5.812-.75.25-1.031-1.562-1-2.063-.5-1-2.5-1.531-1.25h-4.344l-1.312-.75-.5-1.813v-1l-.25-1.25-1.313.75-1 .5h-1.531l-.5-.25-1.313-.5-1.781.25h-2.062l-1-1.5-.813-1.75-.5-1.5 1.563-.562 2.812 1.312 2.031-.25-.75-2.312-.531-1.5 1.031-2 2.063-.25 2.281 1.75v1.25l.25 2.062 1.313.25 1.562.75 1.781 1.5 1.5 1 1.813.25.5-.75-1-3.312-1.813-3.25-2.031-3.25-.75-3.282-.25-2 .5-2.75.75-2.812.281-1.75-.531-1.75-2.812.5-2.063 1.5-1.281-.25-1-1.5-.25-.5-1.813-.25-2.344.5-1 1.25-1.562 3.25-1.531.25-1.25-1.75-.813-2-1.5-1.5-1.531.5-2.875-.25-2.531-1.25-3.594-.531.781-3.5 3.063.25 4.656 2.25 6.375-.5 2.563-1.25 2.062-2.5.25-2.313 1.281-1.937 2.063.437 2.781-.25h1.813l1.812 2.063 1.531 1.25.5.25 1.813.5 1.531-1.5 2.313.5 3.093.75 2.313 1 1.25 1.75 1.281 2 .25 2.531v1.5l.5 2.5-.25 2.312v2.25l-1.281.75-2.063.5-3.031-.25-1.312 1.25 1.562 1.25 2.031.75h1.563l1.781-.25 3.063.5.5 1.532-1.25 2-.5 2 .75 2.5 2.562 5.312 1.031 3.313.25 2.5-1.031 2.75-1 2.031-.812 2 1.062.5 1.781 1.25 2.313 1.25 2.281-4.25 1.313-4.281 1.5-2.25 1.312-1 2.031-1 .25-.813v-.75l-.5-.5-.5-1-.25-1.25.75-1.5h2.313l.5-1.25v-1.812l-.5-2.5-1-2-1.313-.75-1-.25-1.031-1 .781-2.532v-.75l-2.094-.75h-.75l-.25-.5-.25-2.25-.75-.25-1.312-.5-.75-.562v-2l1.25-1.25 1.313-1.25.25-1.75.5-2.781.812-2.5.25-1.5.25-.25-.75-.75-.812-.25-.75-1.563v-1.25l.5-.5 1.312.25 2.531.25 1.563-2.25-.813-2.75-.25-.812v-1.75l1.313-1 2.281-.5 1.313-1.25.5-1 .75-2.282.25-2.687zm675.938 0-.626 1.688-1.25 3.03-2.624 4.75-2.032 3.563-2.062 3.5-.5 4.813.75 3.75-1.781 1.781H1396l-1 2.75 1 3 1.313 2.813 1.28.75 1.75.25 2.345 1.25 2.062 3.5 3.063 2.78 2.53-1.75 1.813-3.53 4.907-2.5 2.03-1 3.063-5.813 1.782-3.781.562-1.5-1.562-1-4.094 1.75-4.656-.5-.75-1.5-1.782.5-2.312 1.75-3.594-.5-.25-2.5-.25-4.313-1-3v-2.25l.5-1.562.75-1 1.563 2.562.75 3.5.78 2.813 1.5 1 3.345-2.313 1.562-1.5h1.563l1.5 2.75 2.843.813 2.282-.5 2.062-.813 1.313.813.5 3 .5 2 .78 1.25 1.25-.75 2.563-7.313 1.282-4.5 1.812-1.812 5.406-1 6.657-4 1.78-1.75 1.313-1.281 2.282-2.5.906-.438zm94.78 0-.53 2.438.5 1.5h3.062l1.563.75.5 1.53-.5 2.25-1.563.75h-1.5l-1.562-.5-.782-1-.5-1.75-.75-1.03-1.812.25-3.094 2.28-2.062 2-2.032 1.5-3.593 1.5-1 1.813-.5 4.75 2.03 3.063 2.813.75 4.844-1.25 2.344.75 1.5-.5 2.594.75 1.812-.25 5.344 2.5 1.562 2.75 2.282 3.031.812-2.781 2.563-2.5 4.343.75 2.532-1.25-1.5-1.25-1.032-1.5.5-.25 4.094 2.5.25-1.5 1.063-1.063 1.28 1.563 3.845 2 .75-1.25-.75-2.563.25-1.5h.5l1 2.313h.812l4.094-4.563h.5l.25.75-1.25 2.25-1.281 1 .25.5 3.593.813v.5l-.812.5-4.344-.5-.5 2-4.344 2-1.062-1-1.781-.25-.25.75.78 2.25 1.25.25 2.345-1.25 3.062-.5 2.313.75 1.78 1.531 1.563.25 1.532 1 2.562.75 1.313-1.25 1.25 1.25 2.28-.75 3.095 1.5 4.124-1.75 6.126-1.281 3.374 1 2.532-.75 1.312-1.5h2.532l3.624-1-.812 2.75h-1.812l-1.5 2.531-2.594-.75-2.281 2.5 1.03 3.5-2.28-1.75-1.813-3.25-3.344-.5-2.062.75-.25 1.5-2.531-.25-2.376 1.5-2.03-.25-1 3.813-1.313-.25.25-2.813 1.062-1.25-.812-1.25h-2.031l-1.5 1-1.563-.5h-1.562l-2.282-1-1.062.75v1.75l-1.25 2.563 1.25.75 1.562 1.75-.5 1.5-1.812-1.25-2.031-2-1.563.5-.25-1.25 1.563-1.563.5-3-2.313-2.25-2.312 1.5h-1.032l-2.062 1-1.531 2.5-1.75 3.313h-1.313l2.813-6.063-.75-1.25-1.563-.5-1.562-1.75-4.844-.75-2.031 3-2.813 1.25-1.062 1.25 1.812 1.813 1.063 1.75-.563 2-1.25-.5-1.062-2-1.532-.25-1.812.25-1-.75 1.312-2.063v-2l-1.062-1.5-1.531-1.25-2.313-.25-3.844 2-2.562.25-3.844 2.5-.75 1.813 1.75 1 .313 1.75-1.813-.25-2.844 2-1.562 1-.75-1.5 1.562-4.75 2.032-1.063.5-1.75-1-.5-3.094-1.25-6.656-1.25-6.626 1.5-5.406.25-4.906-1.25-3.844-2.25-3.812-.75-2.844.25-.75 2.5-.812 3.25-.5 2.313-2.282 3.5-2.312 1.25-2.281 1.03 1 2.5.5 2.75.78.25.75.25 2.313-.25 2.032.5.562 1-1.562 1.813 1.25.75 3.124.25 7.688 2.25 2.063 2.25 3.28 1-.25 1.563-3.593-.25-4.844-1.813-2.812-1.5-5.656 2-1.532-1.25-.5-2.5-1.562-1.25-.75.5-.531.25.28 1.75.25 1.5.25 1.563h-2.593l-2.062 1-2.532.5.5-3.313.532-4.25-2.282-1-4.406.5-3.062.25-1.282 1.75-3.062 4.313-1.781.75v2.5l-.563 4.031.313 1.5 1.75.75 1.28-.5v1.5l.5 1.75 1.563 1.75 1.532.75 1.562-1.75 1.25-.75 1.313 1.25.5 1.813-1.563 2-.75 1.5.5 3.5 1.313 1.53.75 1.5-1.563 1.25-3.062 2.75-1.282-1.25-.5-4.5.25-3.03-.5-2-1.312-2-1.25-1.563-2.594.063-1.5 2v3l-.312 1.75-.5 1.53-1.782-.25-1.25-.78h-1.812l-.531 2.28.78 1.75.75 1.25 1.063 1.25-.562 2.563-.75 3.25v1.5l1 .25 1.812 1 .532 1.813.5 1.25 1.562-.25 2.063-.75.75-.25 1 .5-1.25 1.75-1.313.5-.5 2.25-.25 1.781-1.562 1.25-2.032-2.281-1-2.25-1.062-1.75-1.531-.75-1.25-.5-1.313-.75-1.062-1.563.562-2.25.5-2.75.75-1.5-.5-1.312-1.562-.5-1 3.062-1.032 2.75-.75 3-.5 3.313-2.343 3.5-5.376 9.844-2.343 8.53-3.531 6.313-3.376 6-2.843 5.813-3.594 9.031-1 3.563-.25 3.25 1.25 2 1.563.25.78-1.75.5-3.5 1.813-2.563 1.782.75-.282 3.313-1 1.5.25 1.5 3.094 2.78 3.063 4.25 1.53 1.75.688 2.782h23.188l-.281-.469.5-1.5 1.562.5 1.25.75 2.344-1.812.5-1.75-.5-1.25-1.781-1.75-.813-2.531-.5-2.75-1.812.25h-1.532l1.032-2.25-.25-6.063h-2.532l.25-4.5 1.782.75 4.124-2.031 1.25-1.5 1.782-3.25 2.062-1-1.25 5.75-1.562 6.031-.5 3.813.25 3.25 1.5 2.25.812 4.03 1.25 1.25 3.844-.5 2.844-1 1.5-4.28-2-3.25.5-3.563v-2.75l1.812-2 2.282-2.781 3.624-.5h.25l2.032-.25 1.312-1.5 2.282-1.5.75 1.25-1.282 4.531-2.312 3.25-2.281-.25-.5-.25-1.563-.5-2.062 1.5-.75 4.063.5 1.25 2.562 1.25-1.562 3v4.28l-3.032 4.25-2.843 1.063-1.47.969h10.376l.594-.969 1.53-1.312 1.813.5.313 1.781h5.656l.188-2.031.25-2.75v-3.25l2.03.75 1.813-1 1.782-.25 1.562.5 2.813-.75 1.03-1.281.5-1.25.25-1-1.03-1.5-1.25-1.5-.25-.5v-1.813l.75-1.5 1.78-.25 3.063-.25 2.094-.75 4.094-1.25 2.812-1.25 2.032-1.781.5-1.75.812-2.75-.25-2-1.562-1.313-3.094-2-1.75-1.75-2.031-1.75-1.313-1.25-1.062-1.812.812-1.25.5-3 1.063-1 2.03-1.781 2.313-2.25 1.532-1 1.75-1 2.124-2 2.032-3.313 1-1.5.812-1.5.25-1 1-.5.782.25 1.75-.25 2.874-2.031 1.532-1 2.312-2.25 2.032-.75 2.312-1h4.844l.812-1.313.5-.75 4.594-1.25 2.594 1 1.5 1 2.062.75 3.344.25 3.594.063 2.312-.313h1.532l1.812.5-1.562 2.813-.25.25-.5.75-1.532.25-2.062-1-1.781-.25-1.813.75-2.312-.5-2.032.25-1.562-1.25-2.281-.75h-3.626l-.75 1.25-1.53.5-2.063.25-3.594.5-2.312 1-2.282 1.5-1.562 1.781-1.281 2-1.813.75-1.75.75-1.312 1-.782 2.813-3.312 3.75-2.031 1.5-2.626 2.03-2.53 1.25-1.563 1.5.812 1.75 1.782 1 2.562 1.313 2.813 2 2.03 2 .563 2.75.5 3.563-1.312 3v1.75l1.062.781 2.532.5 1.312-.25 1.25-.531 3.344-1.25h2.062l1.282 1-.032 1.531-1.25 1.5-1.812.5-1.781.25-3.125.75-2.781 1.5-1.563 2-2.281 2.563-2.063 1-.25-.75.5-2 1.063-2.563.25-2.5-1.063.5-1.812.75h-2.031l-3.063 1-2.844.75-1.75 1.813 1 3 .5 1.75-.5 2-2.312 2.28-1.781.75-3.344 2.5-1.813 1.5-2.031 2.032h150.531l-1.062-13.625-1.75-22.156-2.875-34.688-2.219-27.562-1.406-19.594-2.125-25.094-2.188-25.281zm-110.562 72.938-1.062.25-1.5.75-1.531.75-1.063 1 .25.75.563 1 .5 1-.25 1.78v1l1.25.25h.28l.5-.25.75-.5.25-1.03 1.313-.75 1.282-.5.25-1-.25-1.5-.532-1.5-.5-1zm-46.718 26.406-2.282.5-1.562-.25h-1.25l-.781 1-.75 1-1.063 2.531-.75 2.75.25 1.5 1.313.25.75-.75 1.53-2.75 1.813-2.281.75-1zm-23.594 64.875-3.094.5-1 2.312-.062.969h4.5l.406-2.781z" style="fill:#9faec0" transform="translate(0 100)"/><path stroke="#9FAEC0" stroke-width="10" d="m848.25 336 .25.719.75 1.562.25.438 1 1.562 3.094 2.313.593.344 1.125.437 1.032.469.968.344 1.094.28.844.376.656.187 1 .5 1.532.594.375.219.78.375 1.095.656 1.468 1.75 2.782 4.063 2 2.843 1.468 2.844.75 1.344.157.469 1.03 2.75.75 1.5 1.813 2.28.75.75.657.563 1.78.563 2.563.031 1 .062 1.594.032 3.938.562 5 .656 3 .407 1 .125 5.968 1.406 4.844.844 5.906.406 6.157.344 3.5.125h1.03l3.345.343 1.218.157.844.125 1.813.375.25.03 2.78.97 3.845 1.593 2.156.75.718.25 2.532 1.188.812.406 1.157.813 2.25 1.937.437.344 2.25 2.062 1.813 1.5 1.843 1.5.188.188 1.5 1.062 1.312.25 1.782.5 1.625.5 2 .782 1.28.5.563.312 1.157.844 1.093 1.156 1 1.5.344 1.906-.062 1.25-.25 1.532-.75 1.375-.532 1.687-.218.563-.125.843-.313.5-.312 1.75-.125 1.094-.22 2.313.5 2.625 1.5 2.812 2 1.563 2.47 2.28 3.187 1.72.594.343.968.188 1.375.219H981l2.063.28 1.78.563 1 .5 1.813 1 2.532 1 1.312.282.75.156h1.063l1.187.062 5.156.094h1.25l3.407.188h1l2.03.218.25.032 2.595 1.5.718.625.688.687 1.843 2.094.157.219 1.468 1.937.625 1.313.407.843.406 1.032.094.312.75 1.5.719.938.594.875.593.687.938 1.063 1.062 1.437.188.313 1.062 1.25 13.344-13.563L1051 416.937l.25-.25 4.094-4 1.313-1.312L1071 425.469l8.688 8.625 24.625 24.125 9.75 9.812-3.375 3.313-13.844 13.781-18.25 18.344-.469.5h217.407l.062-.375.5-3.813.75-3.25v-2l-1.25-.75-1.032-.75-.25-1.562.25-2.5v-1.25l-.75-.5-1.312.5-.75 4.75-.813 2.062-3.78-1-.313-2.812.312-2-2.344-.75-2.062.75-1 4v2.562l.75 1.25 1.062.25v3l-3.375 1-2.78-.75-2.845-.5-.75 2-1.562 2.313-1.063-1 .313-2.813 1.5-3.25.312-2.25.5-3.062v-2l1.532-2.25 1-3.781 1.062-1.75 2.031 1.5h2.813l-.25-2.25 1.812-1.75v-2.313l-.75-1.25-.812-1v-4.25l-4.094 1-1.5 1.25-1.312 2.25-1.782.75-1.562-.5-.5-2.25.75-2.781 2.062-1.5 1.532-1.25.25-2.5.562-3.313 1.5-.25 1.281 1.063.5 1 .563 2v1.25l.5.5.75-.25.5-1.5.812-1.75 2.032.25.5 1.75.75 1.25 1.312.5-1.812 2 .812 3.531.75 5.063 3.344-3.813 1-1.5 2.844-1.75 2.062-2.031.25-2.25v-2l-.5-2.5-.562-3.063v-2.25l-.25-2-1.25-.5-1.782.75-.812.5-1.25.25-1.063-.75-.25-2.062.5-1v-.5l-.5-.75-1.78-.25-1.25-.5-.813-.5-.5-1.5-1.282-.75-.75.75-.812 1-.75.25-.5-1v-1.75l.25-1.531v-.5l-1.813-1-.75 1.5-.78 1.53-1.25.25-1.563-1.03-.75.53-.782.75-1 .25-.562-1.28 1.062-2.25 1.282-.75.75-1.25v-2l-.5-.75-1.282.5-1.312 2.25-1 .25-.5-.25-.563-1.25v-1.5l1.063-1.563.5-.75v-1.5l-.75-1-2.313-.25-2.343.5-1.5 1-.782 1.25-1.25 1.25v1.563l-.812 1.5-1.563-.5-1.75-.75-.53-2.813.78-2.5.25-1.25-.25-1-.5-1.25-.78-1.031-1.813.25-3.032.25-1.812-1-1.063-.75-.5-1.25v-2.5l1.313-1.25 1.812.25 2.532 1.25 1 1 2.062.25 1.031-1.5 1.063-.5 1.5 1.5.562 2.25.25.75v1l2.282.25h3.062l2.031.781 1.063.25.75.25.25-.25.812-.5.5-2.531 1.032-1.5 1.25-.5 1.312 1.5.25 1.5-.25 2.031.25 1 .25.25 1.281-.75.25-.5.75-1.25 1.313-1.781 1.312.25 1.5 1-.5 1.781v.5l-1.812 2-1 1.75v1.75l1.25.25 1.312-1.25.75-.75h1.282l.5 1.75-.25 1.563v1.5l1.312-.25 1.25-.75 1.031.75.5 2.5.5 1.75.563 1.5 1.25 1.28 2.562-.25 1.532-1.53 1.062-1.75 1-1.25 2.281 1 2.063 2.53.812 5.75.75 2.563 2.032 2.75 1.062 1 2.031.75 2.813-.25.25-1.75-1-1.75-1.813-1.75-1.03-1.562-.5-2 .5-.5 1.53 1.25h1.063v-2l-.563-2.25-.25-1.781.563-2.75 1.812-2 3.844-2.813.25-1.75-1.062-1.25-1.782-.5-1.5-1-1.562.5-1.563 2-1.53 1.25-.75-1.25-.5-.75v-2l.25-.75.5-1.25-.75-2.031-1.063-1.5v-2l-.25-1-1.282.5-.75 1-1.062.5-4.094-1.75-.75-1.5v-2.563l-.75-1.75-1.312-1.25-1.782-4.812-2.562-5.5-1.813-3.531-1.53-1-1.813-2-1.5.5-3.094-.25-.5-2.063-.75-3-1.063-2.75-2.78-1.25-6.47-2.281-3.53-1.25-1.313-.25-.75 1.25-1.532 1.75-1.312.5-1.563-.75.563-2 1-1.5v-1.25l-.75-1.25-.25-1.313.5-1.5 1.562-.5 2.032.25 1.562-.25v-1.25l-.812-1.75v-2.562l-.25-.75h-2.032l-2.312.5-1.563-.75-.25-1.25.5-1 .813-1-1.063-1.5-4.343-1-3.344-1.281-2.563-1.75-1.78-1-2.313-1.25-.25-1.25 3.093-.5h3.875l.75 1.75 1 1 1.782 1.25 1.562.25 1.031.25 1-1 1.063-1.25 1 .75 1.312 1.5h1.25l1.282-.5 2.062.25 1.031 1.5v1.78l.5 1.75v.75l1.25.75 1.313-.5 1.312-1 1.25.75.782 1.25 1.5 2.25.562 1.313.5 2v5.063l.25.75 1.281.5 2.313.5 1 1.75.562 1.25 1.75 1.5 2.344 1.281.25 1.5.5 2 .5 1 1.781 1.25.75 1.5 1.063 1.813 1.562 2 2.032 2 1.812 1.5 2.281 1.78 1.563 1.25 1 4 .75.5h.562l4.594.563 3.344.25 1.25 1.5.812 1h1.782l1-2v-2.062l-.5-2.5-1.282-2-2.312-1.25-2.313-.781-1.28-1.5v-1.75l.78-1.5 1.813-.75 1.5.75 1.062 2 1.782 2 1.25 1.28 1.812 1h1.531l1.063-2.28.5-2.75-.813-1.75-1.75-2-.53-1.313h.78l2.813.563h.812l.75 2 .75 2.5.25 1.25h.282l1.25-1.25 1.062-2.25 1.531-2.5 1.25-1.563 1.313.5.25 2.063-1.063 3.25-1.25 2-1.78 2.53.25 2.25 1.78-1.5 2.063-2.28 2.312-1.25 3.094-1.25 2.281-.5 1.25-.5.813-1-1.313-3.063-2.53-3.75-3.345-4.281-1.812-3-2.313-1.75-2.28-1.25-3.313-3.563-3.344-1-3.844.5-3.094 2.25-2.562 1.063-2.063-.563 1.063-3.75 2.062-2.5-.25-1-1.062-1.312h-1.563l-2.28.5-5.407-2-.5-.25-2.063 1.75-.5 2.562-2.28 1-.563-2.562v-2.25l-2.032.75h-1.75l-.812-1.75-.25-1-1.563-1.75-2.53.25-1.563-.5-.25-2.281.25-2.25-1.25-1-3.344-1.5-1.063-2.063.062-2 1-1.5-1.312-2 1.062-3.281 2.313.75.5 1.531 1.781.25 1.813.5-.25 2.5-.25 1.75v2.313l.25 1.5 3.03-.75 2.376 1.75 2.281 1.25 1.25-1 .563-1.25.75-.25 1.53 1.75.75 1 2.626-.75 1.25-1.5 1.281-.5 1.813 1 1.53-.25 1-1-.75-1.5-1.28-1.813 1.03-2.25 2.063-.75 1.813-1.25 2.781 1.25 1.813-.5h1.78l1.25 1.25.563 1.5.5 1.563-1.812 3 .5.75.812 2-.562 2.28.812 2 2.063 1.25 1 2 .25 1.25 1.281.25 1.813-4 1.28-4.28 1-4.5-.5-3.813-2.03-4.75-2.313-3.031-2.031-3.25-.25-2.25.75-3.813 1.531-2.5.094-.531h-4.5l-.187 2.531-.563 4.313-2.781 2.25-.75-4.063 1-1-1-.75-1.563.5-3.593.5-2.563-1-2.594-.75-2.53.75-2.063-.25-1.063-2.75.594-.281zm458.75 0 1 .281 2.563.25-.095-.531zm95.281 0 .062.281-1 3.25-2.031 1 .5 1.563 2.531 2.5 2.563 4.781 2.594 14.063-.313 7.53v1.75l1.063 3.313.5 2-1.563 1.75h-1.781l-2.063 3.313v3.25l1.313 2 2.781 3.031 3.125 3.5 1.781 1.25 2.063 1.063 1-2.063.5-2 3.094.25 1.312 2.5 3.031 1.563 1.563-.5-3.094-4.063-1.5-1.75-1.812-3.281-1.313-1v-1.5l1.063-2.75.75-3.313-1.813-2.75-1.781 1-2.563.25-.5-2.5.25-2.562v-2l-.25-6.281-.75-4 .25-3.313 1.563.563.75 2 .5 3.25.75 3.78.531 2.75.5 2 2.313.25.25-2-.5-3.25-.75-2.53.5-1.75 1-1.5.812-3.25v-4.063l-1.062-1.25-3.313-.5-2.031-1-1.063-1.531.25-2.5.563-1.5-1.063-1-1.781-2-.25-2.813.781-1.5 1.25.5 1.313 1.5 1.25 2.063h1.031l1.063-1.313 1.75.25v1.563l-.75 1.75-.75 2.75 1.75 1 3.093 2.031 1 1.75 1.313 1 2.281-1.5 1.063-3.531 1-3.5 1.062-1.25 1.781-1.813v-2.25l-3.094-.25-2.312-1.25-.719-1.281zm36.563 0-1.594 1.031-1.062 1.75-.25 3.313-.5 3.25-.782 2 .25 1.75 2.032-.25 1.312-2.25 1.063-2.25 2.53-.75 3.845-1.25 2.812-5.063.563-1 .156-.281zm14.625 0 .187 1.031.75 2.5 1.782.25 2.874-3.25.063-.531zm12.75 0-.031.031-1.531 2.25-4.594 4.063-2.063 4v2l-1.062 1.25-2.031-.5-4.344-.25-1.563.75-.5.281v2l.5.5 1.563 1.5 3.344 1 3.593.25 2.313-1.5 2.031-1.75 1.813-.75 3.03 1.75-.5 2.25.75 1 2.876 2 2.781 2.812.813 2.25.5 3.282-1.813 1.25-1.781-1.75-2.563-3.782-1.812-2.25-3.344-1-2.531 1-.813 3-1 1-2.062-.5-.5-1.25-.781-1.75-1.813-.75-3.031 1.5-1.063-1-1-1.25-2.062-1.812-1.781 1.562 1 1.5 1.03 1.25-1.28.75-1.25-.5-2.063 2-.281 1.25.781 1.782 2.563.5 2.28 1.5 1.313.75-.25 1-2.843.5-2.563-.75h-2.281l.5 2.25 2.031 1.812 2.563 2.75 2.03.75 1.563 2 .25 1.25h-.25l-2.562-.25-2.281-1.5-2.063-1.25-3.344-1.5-2.562-.25-.5-1.75v-2.062l.25-1 .25-1.5-.25-.5h-1.781l-1.063 2.75-.25 2.062-.5.25-2.844.5.313 1 3.031 2.25 1.313 4.313-.25 3.5 1.25-.25 3.593-1.75 1.563-1 2.031.5-.25 2.5-3.094 2.5-1.312 2.781.562 2.5-.312 3.812-.5 2.75 1.062 2 2.563-2 2.031-5.312.5-.5 2.844 1.5-.781 4.812-3.313 4.532-2.094 2.5-2.562 1-1.25-2.75-.781-1-2.563.5-5.156 5.75-1 2.812-3.594 2.75-1.281 2.25v2.063l-1.563 1.25-.5-1.5-.5-1.313-1.312-1.5-1.5.25-2.594 1.25-1.25-1-.781-1-1.25-.5-2.063 1.25-1.062-.25-1.531-.75h-1.813v2.25l.25 2.313.313 3 1.25 1 2.53-.5 2.126.25.75 1.25.75 2.281-1 .25-2.313-1h-1.312l-.75 1.25.75 1.25.25.5 1.562 2 1.25 2.25.813 2.062 1-1.5.781-1.812 1.25-.5 4.094.25 1.062 1 .25 2.562-2.062 1.25-2.031 1 .75 1.75 2.593-1 1.75 1.25v4.282l-.5 4.25-.5 3.062-.5 4v2.563l-.062 2 .563.75 1.25-1.5-.25-2.063.25-1.25.312-1h1l1.532 1 1.312-.75.75-3.5.75-4.312.531-3.25 1-1.5 1.063-.25.5 4-.813 5.312.313 3.25.5 4.313-.813 1h-2.281l-2.562.75-1.032 2.25-1 3.531.25 4.25-1.312 2.25-1.25 4.562-.313 3.25.313 1.032 1.5.25 1.562-3.282.782-4.75-.282-4.312.282-2 .5-1.25 2.312-2.781 1.781-.75 1.813-.5 1.562-1.25 1-2.5.782-2.313.75-3.75.5-2.75.562-3.312 1-3.75.5-1.282-.5-1.5-1.812-1-.75-2 1.562-1.5 2.781-2.812 1.313-4.25-.75-2-2.094-1.781-1-2.25.25-2.25 1.281-2.313 2.313-1.25 1.312 3.063.25 3 1.782 1.25 2.062 2.281v2.25l.25 3.5-.25 4.812-2.094 3.25-1 .75.5 1.282 1.282 1.5v3l-1.532 2-.75 2.562 1.75.75 3.094-2 2.781.25h1.313l3.094 2 2.812 2.5 1.281 1.25 1.25 1.5 1.063-2.25-1.063-5.312-.25-4.75.563-4.782.5-2.5 1.312-2.5 1.782-3.812 2.812-1.25 1.531.25-.25 2v1l-2.593 3.812-1.532 6.032v5l.25 5.062 1.282 5.313 1 1 3.343.5 2.563.75 1.562-.5 1.282-2.813.5-.5 1.812 1.563.25 2.75-.5 1.75-3.344 1h-2.062l-2.563 2.281-2.031.75-2.312-.75-2.844-1.781-1.563 1v1.781l1.313 1.75 2.312 3.5-.25 2.313-1.812 1-2.063-.5-2.031-2-1-3.563-.562-1.5-2.032-.25-4.125 1-2.281.75-2.562.5-2.844 1.25-1.25 2.063.75 1.5 2.562.25 2.594.25 1.5 1.75v2.75l-1.25 1.03-1.812-1.03-1.282-1-.75 1.25-.25 3.53-1.062.25-1.313-1.75-1.75-1.53-2.031.28-2.344 1.75-1 .75-3.125.75-2.031-1-1.812.75-1 4.25-.25 1.313v1.75l3.562-1.5 3.094-.75 1.312.75-.312 2.5-3.063 1.75-1.781 1.5-1.312 2.063-.25 2.75.062.625h125.593v-.625l1.063-1.563-.25-1v-1.25h.75l.531.5.75 1.5-.5 1.563.156.875h76.5l-.562-7.25h-.25l-2.125-29.625-3.719-46.313-2.906-36.094-2.532-30.718L1616.75 336zm-88.531 47.344-1.25.25-1.282 1.25-1.312 2.25-1.5 1.5-2.594 1.281-1.25 1-1.062 3.25-.75 4.313-.282 3.75.782 4.78-.532 2-1.5 3.563-1.562 1.5-2.281 1.25-1.563 2.5-.812 2.813-1.5 2.25-2.282 4.75-1.562 1.781-.531 1.75-.5 2.5-1 4.563v3.75l-.563 4.53-.75 4.25-1.312 3.563.75 4.25 1.062 3.313 1.813 5.25.5 2.781-1.813 5.25-2.562 6.563-1.282 3.03-1.312 2.5.25 1.75 1.062.75-.25 2.563.25 2 1.532-1 .75-1 .75-1.812 1.062-1.5.5-2 1.563-2.5 1.53-1.781 3.595-.5 1.812-2.75-.562-2.5 1.062-1.313 1.313.813 1.25 1 1.28-.5 1-2.063.563-2.75-.25-4.25-1.312-3.281-.25-1-1.531.25-1.813.5-1.25-1-.312-.75.562-1.5 1.25-1.063 1.063-1.75-.25-1.5-.813-3-1.25-2.812-.25-2.75 1.25-.75 1.063.75.75 1.25.78.5 1-.75 1.813-1 .5 1.25-.75 2 .5 2.562 1.782.75 1.312-1.25.25-.75.25-1.812-.5-2 .75-5.031 1.063-3.5.25-2.25-.75-.75-2.376-.75-3.03-.313-2.063-1-1.531-3-.5-1.25-.5-1 1.25-1 1.53-.25 2.063.5 1.282 1.25 2.312.5 1 .25 1.563.25.25-.5.78-2.25-.28-2.031.28-2.25h1.813l.75 1.25.25 1.75.25.5 1.532-2 1.062-1.75 1.5-.5.25 1.5.563 2-.813 1.781-.75 1.25-.25.75-.562.75v1.25l-.25 3.813-1.532 3.25-1.5 2.5-.312 3.03.812 2.5 1 3.25 2.032 3.313 2.312 2.25 1.313-.5-.75-.75v-2l-.5-2.062-.313-1.5-.25-3 .25-1.75.313-2.781 1-2.25 1.78-1.75 2.845-.75h2.062l1.25-.5-.5-1.563-.25-2 1.313-.5 1 1.5 1 2.563.78 2.5.5 2.75-.25 4.28 1 1.75 1.563.5 2.532-.5 2.374-.75.25-1.75-1.312-1.75-1.312-1.28-1.75-1v-1.75l1.812-1 1-1-.75-1.25.25-2.563.25-2.5-1.312-.75-1.782.75-1.5 1-1.062-.25-.75-1.25-.5-.5-.281-.5v-2l2.343.25h1.5l.532-1.031v-2.25l2.062-.25.75-1.75.25-3.313.25-3-1.5-2.25-1.562.25-.782 1.25-.5 1-.5-1.5v-2.5l-1.312-.75h-2.031l-2.063-.25-3.594-1.562-2.312-2-1.25-2.75-2.281-4.031-1.313-3-1-3.063-.25-4.5-.312-2.25v-2.531l1.062-1.25.5-1.5-1-.75zm25.374 67.625-1.5 1.562-1.062 2.25-.75 1.5.25 1.5 1.563.25 1-.75 1.28-1 1-2.25-.25-2zM1450 459.03l-1.062.25-.75.25-3.844.813-3.094-.313-2.562-.75h-1.782v1.563l.532 1.75.25 2.75-.782 1.25-1.562.75-1 .5-1.031 2.031-1.813 1-1.5-.25-1.062.25-.25 2.5.25 2.313.5 2 1.312 1.25 1 .25 1.313-1 1.28-1.25 2.313-1.313 1.532-1-.5-1.25-1.032-1.25 1.032-1.5 2.312-.5 2.563-.75.75-1.281 1.53-1.5 1.563 1 .75.531 1.282-.281.75-1.5 1.062.5 1.813.25 2.78.75 2.845-.5 1.812-2-.812-1.25-1.25-.25-1.032-.25-2.312-1.25-.5-1-1.281-1.813-.5-.5zm-49.5 21.656-4.094 3.032-6.968 7.5-1.532 1.812.532 2.25-.782 4-3.062.813-5.656 1-2.032 2.25-.187.625h28l-.125-.125-1.031-2-1.563-2.25-.75-1.063-1.312-.75-2.282 2.563h-2.062l-.25-3.813.25-2.25-1.531-2 3.093-3.312 2.782-2.25 1.062-4.781zm8.688 22.157-1 1.125h1.562z" style="fill:#9faec0" transform="translate(0 75)"/><path stroke="#9FAEC0" stroke-width="10" d="m1078.125 503.969-14.375 14.875 3.313 2.75-.5 2.281-1.563 2-1.562.75-.75 2.75-.25 2.313v3.25l.75 2.5 1.812 1.53 2.063 3 1 2 1.78 1 3.095.75 1 1.313-1 1.25-2.282.5-2.593-.25-2.313 1.25-.75 3.25-1.812 6.063.5 1.75h2.062l1 1-.25 1.281v.5l-1 1.5-3.344 2.25-1.562 2.25 1.812 1.25 2.282.563 2.874.75h.75l2.032-.25 2.062 1.25 1.282 1.5 1 .75v1.25l-1.532.75h-2.062l-.25-.25-1-.25-1.281-.75-1.813-.25-1.25-.25-2.062.25-2.032-1-1.562.5-.781-.25-1.5-2.75-2.063-1.563-.812.25-.75 3.063-.532.75-1.5.75-3.343-.75-2.063.75-1.062 1-2.532 2-1.062.5-2.531 1-5.126.5-3.093 2.03-1.781 3-1 3.75-1.063 5.813-.25 5.813.5 1v4l.25 4.031-2.062 3.75-1.282 3.313-2.562 3.25-3.344 2.5-1.812 1.53-1.782.5h-5.093l-3.125.25h-.25l-3.344-.03-4.094-.5-2.562 1.78-.782 3.25-1 4-.25 2.313-.562 2.75-2.031 2-1.813 1.25-1.75 1.563-1.062 1.5-.5 1.75.25 1.5 1.812 1.25 1.813-.5 2.03-1.75 1.813-2 1-2.25 2.844-.5 3.063-1.563 3.593-3.25 2.032-1.5 2.562-1.5 3.094-2.562 2.562-2 2.594-.5 2.063-.5h1.25l.25 1 .28 2.312-.53 2.75-2.563 2-5.156 2.25-5.094 2.313-3.344 1.75-1.312 1.75-2.031 1.25-2.063.5-1.812 2v1l-1.782.781-1.562.75-1.5 1h-.25l-1.781.75-1.813 1-2.312.25h-1.532l-4.093-1.25-2.875-.25-3.594.75-1.5.5v1.75l-.781 2.25-.5 1.75-1.313 1.25-.25 1.813 1.063 1.25 1.75-1 1.78-2.563 1.313-1.75 1.532-1 1.562-.75h1.5l.813.75-1.063 2.563-.25.25-2.562 2-2.032 1.25-1.312 1.5-1.531 1.75-2.063.25-3.062.5-2.032 1.25-.812 2.28-.031.25h249.53l1.095-1.624-.75-2.5-1.532-2-3.093-1.313-3.875-1.75-2.032-1.75-.5-1.5.25-.75 3.844.25 3.094 1.25 2.062 1h2.032l.75-1.5-.75-6.062.5-2v-3.031l.25-3.5-.75-1-.5-.25-.5-1-.532-1.5.782-2.563 1.25-1.5 1.062-2-.25-6.031-.25-2.75v-2.813l-.5-1.75-1.062-1.5-2.532-2.5-2.062-2.062-.75-2-.281-4v-4.031l.53-4.5.25-4.313h-3.093l-1.5-2-.5-1.5v-1.781l.5-1.25 1.563-1.25 1.25-1 .5-.5.28-1-.78-1.25-1-.25-.813-1.563v-.75l1.063-1.5.25-1 1.28-1.25.5-.5.75.5.813 1.25 1 .75.782 1.5v2.063l.25 1.25-.532 1.5-.5.5-1 1.25-.25.5.5 1 .75.5 1.532.5.75.5.25 1.031v1l-.25 1.25-.75 4v4.813l-.532 3.5.282 1.53 1.5 1.75 1.312 1.75 1.813 2 1.53 2.063 1 1.75.25 4.5.5 3.813.5 3 .313 3.781-.312 3-.5 2.5-.5 3.813-.531 3.25.78 1.5 1.563.5h1.782l1.75-1.5 2.125.25.5 1.78v1.75l-.563 1-.5 1.25-1.562 2.5-2.282 4.563-.5 2 .75 1.75 1.282 1.563 1.562 1.25 1 1.75.5 2.25-.406 1.375h62.469l-1.75-9.125-.5-9.125.5-11.531.25-8.313.03-5.281.75-3.25.75-2.25-.25-6.563-2.03-4.812-1.813-4.5-1.75-5.281-1.813-3.5-.25-2.313v-6.5l.25-6.531-.25-4.063v-2.25l-.5-4.312v-1.75l.25-2.75 2.313-4.781v-2l-1.563-3.813-2.03-.75-3.063.25-3.344.5-2.313-1.5-1.53-4.25-.75-5.031.25-3.5-1.813-3.813-1.5-2-1.532-2.25-.25-2.812 1-3.75 1.282-1.5 1.062 1.25-.812 4.5h4.343l1.313-1.25.25-1.75.5-1.5 1.062.25 1.532.75 1.25.75 2.312-2 .531-2.531.5-2-.5-2v-2l1-.75 4.657 1.75 2.562-.5 1.031-3.563.75-3 2.063-2.25 1.562-1.75 1-3.031.47-2.375zm298.594 0-3.406 11.656-.563 5.063-1.812 4.78-2.282 3.5h-3.593l-1 1.5.75 1.313 1.03 1 .5 2.75-1.28 3-2.313 1.563-2.312 2.75.25 4.25.75 1.531v2.75l-.75 3.25 2.062.25.25 2.813.5 2.25-.25 1.75-1.812 2.03-.5 4.25 1 1-1.782 7.313-1.562 4.813.312 3.5.75 4.531 2.282.75 1.312-1.75v-3.031l.75-3.75-.25-2.063 1.313-2.5 1.25 2.5.78 2.813.75.75h2.313l.782-2-.782-3.563-1.25-5-1.062-4.562-.75-3.5.25-3.032 3.594-2.25 1.562-1.25 1.813-3.312-.5-2.25-1.813.25-1.812 1.25-.782-2.75.532-1.25 2.062-1.5 2.063-1.531-.25-2.5-1.563-4.563-1.312-2.5-.25-2.25 1.062-1 1.5-1 .563-1.562 1.25-.5 2.03 1.312 1.313 1.75 2.282-1.5-.25-4.062-1-3.5-.25-2.782 1.25-.5 1.562 1.5.5 1.532 1.063 1.75.75-.25 2.843.75h1.75l1.032-2.5-.25-3.032-1.032-2.5-2.062-1-2.281-2.312-.75-1.5.5-2 1.03-.25 2.063 2 1.782.75 3.312-1.5 1.813-1 1.53.25v3.25l-1.78 7.063-1.563 6.28-4.094 5.813-4.343 3.25-2.876 2.563-2.28 2.25-.25 4.25 1.53 1.781 1.75 5.5-1 4.563v4.25l1 1.53 2.063-1.78.313-2.5.75-.5 3.343 1 1 2.25 1.282 2.28 1.25 1.75 1.812-1-.25-1.5-1.25-3.28.5-3.75 1-1.5 1.063-1.563 1.78-1 1.813-1.25 1.25-2-.25-1.25h-2.312l-2.031 1.75-1.563 1.75-2.312-.75-2.032-.25-1.812.75-.75-2.25.75-1-2.031-2.531-1-2 .5-2.75 1.03-1 2.063 1.25.75 2 1.782-.25.75-.5 2.624 3 1.25.25 2.032-1.5 1.812-1.75 1.282-.75 2.062-.5 1-.75-1.25-2.563-2.844-3-1.5-3-.562-3.562v-5l.812-2.532 1.532-3.75 1.5-1.75 2.624-1.312 2.032 1.063-1.281 2.75-3.063 5-.312 6.53 1.312 3.313 2.813 2.25 2.593.25.25-3.5-.5-2.562.75-1.75 1.282-1.25 1 1.5.25 2.5 1.312 1.312 1.813 1 1.25 1.75-1.25 4-1.063 3.813 3.844 2.5h2.812l1.782-1.25h2.874l3.344 1.75 1.5.75-1.25 2.531-1.062 4.75-1 3.563-2.594-.75-.75-3.063-1.812-.25-1.782 4.063-2.062 4-1.281-2.5.5-3.313-.75-2.25-3.376-2h-3.53l-1.063 2.25 1.312 2.313 2.032 1.75-.25 1.5h-1.532l-1.312-.5-.75 2 2.062 5.53 1.25 4.75.782 2.563 1.25 1.5 1.312-2-.25-4.312v-2.25l1-.75 3.344.5 3.344-1 1.312-.25 1.5 2.5 1.063 4-1.563 1.562-1.812-2.062-1 .812-1.782 2.25-2.062.25v3.25l1.75.5.812 3.813.5 4.5 1.282 1.531 2.312.75 1.813-.25-.25-1.281-1.563-1.75-.5-3.25.5-2.5 1.813-1.063 3.03-1 2.063-3 1.282-3.062-.75-3.25-1.532-2.25-.25-1.75.75-.5 1.532-.282 2.562.782 2.063-1.782 2.093-6 1-2.812.782-1.25 1.25-.75 1.562 1.75-.75 3.063-2.844 5.25-.75 4.03 1.75 2h3.844l2.063-1.75 1.28-2.78-.5-2-1.53-1.25.78-2.5 1.25-1.5 2.313-.813 1.782-.5.562-1.25-1.812-3.75.75-1.75 2.062-.281 1.313 1.531 2.53-1.281.75-1.75-.5-2.5-1.5-2.75-.78-2.813.78-1.25 2.813-.5 2.782 1.5 2.062-.5 2.594-2 2.812-1h2.844l-.312 2.5-3.532.75-2.343 2.813-1.75 3.25-1.063 1.25.25 2 3.094 1 2.062-1 1 1-1.25 2.031 1.5.75H1471l2.063.5 2.03 1.25-.28 2-4.876.75-3.343 1.563-2.031 1.5-.5-3.063.75-2-2.063-1-3.062 2.75-3.594.75-2.781 2.063-.813 3.25-.25 2.25 3.344-1h4.094l4.624 1 2.282-1 .812 3.28-1.062 3.75h-2.031l-2.063-2.75-1.312 2.25-2.032-.75-3.062-1.25-2.031 1.5 1.25 2 2.593 1 1.5.5.532 1.813-1.532 2.25-2.062-.75-1.031-1.5-2.063.25-2.312 2.25h-1.782l-1.812.25-1.531-3-2.313-2.312-3.312.25-1.032 1.562.5 3.5-1 1-1.312-.25-2.031.5-.25 1.5.5 2.313-.75 1-1.063 4 1.813 3.781 3.343 2 2.532-.5 4.124-1.25 2.844-.5.75-1.75 2.282-.531 3.874-1 2.032-1.25h1.562l.75-1.75v-1.25l1.532-.75 3.624-1.25 3.844-2.813 1.782-1 2.562.25-.75 3.563-3.344 1.75-.75 1.25 1 2-.5 3.531-4.343.75-4.407 1-3.312 1.25-1.281 2-.75.5-2.376-.5-2.78.5-.25.25-1.813 1.313-1.531 1.75.78 2 .5 2.75-.53 2.53.78 2.25 1.813-.75.5-.25 3.094-1 3.844.25 3.312 1.75 1.282-2.75-1.032-1.78.282-2.25 3.062-2.25 2.313-2.563 1.78-2.25 2.313-1.25 1.282.25-.25 2 2.312 1-.25 2.813-.812 3.75-2.282 2.03-3.312 1-1.031 2.75-1.313 1.25-1.812 2.25.312 2.563.5 2.25 1 2 .813 1.5 1-1.5-.25-1.75.5-2 1.28-2.25 1.313-2.062 1 .5 1.282 2.312 1.25 1.75-1.75 1.75.75 1 2.062-1.5 1.813-1.25 3.843.25 1 2-2.562 2.25.75 1.813 3.094 1.25 4.624 4.5 2.282 3.531 2.844 1 2.812-2 1.563-1.031 1-1.75 1.78-2.25-.5-3.5-.5-3.313v-2l1.813-1 1.282 2.25.25 1.5 1 1.75 1.812 1.313-.5 1-1.562 1 .5 2 1.062 1.25-1.062 3.531-1.782-.25-1 1.25v1l-1.562 1-.5 1.75.75 1.25 1.062 1.063 1.75-1.313 2.094-2 1.25-2 1.563-.5 2.53-.5h1.813l1.782-.5.5-1.781-.25-1.75.562-2 2.063-2 2.28-1.75v-2.563l-.5-2.5-2.03-4.562-1.313-3 1.063-2 1.78-2.532 2.813-1 3.032-.5 3.374-2.25 1.782-2 .812-2.562.5-3 .75-4.031-1.812-3.75-2.781-2.75-1.813-2.813-1-2.75-1.312-2.25h-1.782l-2.562.25-2.844-.5-1.5-2.312-.562-2 .812-2-.25-3.282-1.062-2.25-4.594-4-2.031-1.25-1.063-1.562.313-2 1-4 1.53-.531h1.813l1-.25 1.782-1.25v-3.25l-.25-2.5v-1.063l.5-2.5 1.062-1.5 1.813-2.5 2.53-2.812 3.595-2 2.562-1.75 2.094-2.282 1.25-1.5.812-2 1.25-.75 1.532-.25 1.812 1.25h1l2.063-1.5 1.53-1.25 1.063-1.562 1.532-2.5 1-1.5.75-1 3.874-2.781 3.844-1.5 1.532-1 .812-.25 1.75-1.25v-1.375h-125.594l.188 1.625.25 1-.75.5-1.531.25-.75 1.281 1.25 2.25 3.843-1.75 2.344-1.5 1.25-.781 2.563.25.53 2.281-2.593 2.5-2.562 1.25-2.782 1.75-.25 1.063-.312 2h1.812l.532 1.25-.032 1.75-.25 1.5 1.282 1.53 1.312 1.25 1 2 .813 1 1.25-1v-3.25l.781-4.53 1.25-1.5 1.063-.5h2.53l.5 1.75-1.25 3.75-1.28 2.53v2.25l1.28.5 2.063-1 1.5-3 1.313-3.03 1.281-3 3.063-.5h.78l1.813.25 2.313-.25.25-1-1.313-2.313v-2.5l.813-2 1.25-.75 1.031.25 1.063 2 1.75-1.25 1.53-3.281 1.563-1.5 1.563-.25 1.531.5.5 2-2.844 3.531-2.062 1.75v2.75l2.625.813 1.25.25.5 1.5v2h-3.875l-1.75 1-.531 2-1 1.53-1.813-1.28-2.281.28-2.375 1.75-1.5 1.25-1.281 1-3.094 1.75-1.5 2-1.063 2.313-.5 2.5-1.562 2h-2.781l-4.407-2-6.656-3.25-3.844-2.312-3.312-2.5-1.281-3.25-1.563-2.782v-1.5l2.063-1.5-1.563-2-2.531-1.812.781-1.5 2.063-.5v-2.25l-1.563-1.75-2.781-1.781-2.375-2.75-.438-.875h-1.562l-.531.625-1.563.75-1.375-1.375zm177.031 0 .094.625 3.844.5-.781 1.5-.75 1.75-.75 2-1.813.781-2.031.5-2.063.75-2.062 1-2.844 2-2.031 1.25-2.813 1.813-1.812 2-1.281 2.25-1.563 2.75-1.531 2.03-2.313.5-1.562-1-1-.5-1.281.25-1.25 1.5-1.813 1.5-2.344 1.75-3.562 2.563-2.594 2.5-1.781 2.25v3.813l.25 3 .281 2.75-.531 1.781-1 1.25h-1.813l-2.062-.25-1.281 1.25-.25 2 1.78 2.563 3.626 2 2.031 2.25 1.5 2-.5 1.78-1 2 1.25 1.75 2.844.25 2.062.25 2.313 1.25 1.531 2.563 2.063 4.25 1.25 3 1.78 1.563 3.376 2 .75 1.25.25.5-.25 2.5-.5 2.281-.5 3.25-.313 2.5-1 2.813-1.812 1.5-.75 1.75.5 1.75 2.562.75 3.094.78h2.813l2.78 1.5-1.25 1.5-2.843.25-4.594.5-3.593-.5-2.563-1.25-1.781.75-.5 2.5-1.313 2.313.5 2.5 2.063.25h2.031l.563 1.25-.563 1.75-1 1.75-1.531.813v.5l1.281.5 1.5.75v1.25l-3.281 1-1.813 1.75-.25 1 .5 1.531 1 1.25 1.063 1.75-.813 2.25-2.562 1-3.344-.5-3.281-.75-2.563.75-.062 1.563-.25 1.25-1.25.5-2.281-.75-2.094 1-.5 3.25-.25 2.28-1.562.75-3.063-1-1.531.75-2.844 2.75-3.562-3.25-3.344-1.53-4.094-.75-3.625-.75-1.781-.75-.75-1.75-.25-2.5v-1.063l-2.594-.25-2.562.25-.5-.75.75-1.75 1.562-1 .5-1-.25-1h-3.062l-1.313 1.25-1.781 2.5-2.562 1.25-1.782.813-1.062 1 .25 2.25-.25 2.25-1.25 1.25-1.313-1-.5-2v-2.5l-1.031-2.563-3.062-2.75-4.907-4.781-1-1.5-2.531.25h-1.312l-1.282 1.781-2.312 1.75-2.313.25-1.281-1.5-1-1.781-3.094-.25-1.562 1-2.813.781-1-1.031-.531-.75v-1.25l2.031-.75 2.875-.5 2.032-1.5 1.562-2.25v-1.313l-1.312-1.25-.5-1.25v-1.5l2.062-.75h1.531l.75-1.25-1.281-1.312-3.062-.75h-2.282l-2.625 2.562-2.781 3.5-2.562 2.75-3.844 3.563-2.594 1.25-.75-2.5-1.562-1.25-2.782.25-2.062-.75-2.594 2-1.25-.25-.562-2.063-.25-2-.25-2.25 1.812-.5 1.531-.75-1.031-1.25-3.562-.5-3.344.5-2.063.75.5 1.75 1.063 2-.313 2.25-1.25 1.313-4.625 1.5-1.5.5-1.562-1.25.5-4.063-1-1.5-2.063-2-.781-1.5-1-2.562-2.312-1.5-2.032 1.5.25 3.312 2.032 3.25 2.062 2.25 1.5 3.063v3.75l.25 1.5 2.344.781 1.812-.781 2.532-.25.75 3.031-2.532 3.25-.812 1.75v3.063l-2.063 2.75-3.281 2.75-1.062-1.5-.25-2.5-2.782-2-2.875 3-5.375 2-1.5 2.03v2.5l1 2.25 2.532-.5 2.593-1.25h3.625l2.532 2.25 2.062 3.313.25 1.25.25 4-.75 4.563.25 1.75 1 1.5 1.281-1.75.25-2.25 1-2 .813-1.813.25-2.5-.75-3-.563-2.312.313-3.75.5-2 1.312-2.032 1.5-1.25 1.032.5.25 2.532-.5 1.75-1.032 2.75.25 2 1.032 3.062 2.562 4.25.75 1.5 1.281.313.813-1.563-.813-2.5-.75-2.75.25-2.062v-1.25l-.5-1-.781-1.75 1.781-2 .25-3.032.062-1.75.5-1.25.75-1.5.25-2.062.563-.75 1 1.813.75 3 .531 2 .25 2-.5 2.03-1.031 3-.5 2.25 1 .75 1.531-1 .5.75-.25 2.813.25 4.75 1.563-2 .75-2 1.78-2 .563-2.812.25-3.5-.25-2.25-1.312-1.532-1.031-1.25-.5-1.25v-2l.5-1 1.53.25 2.063 2 .25 2.25 1.063.25 2.031 1 2.063 1.282.75-1.532 1.03-2.25 1.313-2.5.75-1.5 1.313.75-.813 2.25-1 2.5-.562 1.532-.5 2.5 1.312 1.5 1.25-1.25 2.063-.25 2.344.75 3.03-1 .5-2.532.063-3.25v-2.25l.5-1.75 1-.25 1.062 2v.75l1.532.25 2.562-.25 1.781.5.5.5 1.813.5.5 1-1.563 1.75-2.281 1.032-1.562.5-2.282 1-.75.75v2.75l1.25 1.25.782 1-.25 1.812-1.532-.25-1.812.5-1.063 1.25-1.5-.75-1.531-1.5-2.844.75-2.562 1.75h-3.594l-1 1.25-.25 1.5 1.5.75 1.781.5 1.313 1 1.562 2.813 2.532 2.25 2.312.5 4.906-3 4.844-.5 4.094 1.5 1.562-.25 1.532-.75-.25-2.5v-1.813l1-.25 3.343-.75 2.563.5 1.062.5-1.812 2.063-2.844 1.25.531 3 .5 2.5.25 1.781-3.343.25h-.25l-2.032-1-5.906-.781-2.062 3.031-1.032 1.75-.156.344h205.781l-2.125-27.032-.875-9.312-1.593-10.281-1.532-21.907-3.468-52.093-3.594-47.375zm-209.187 25.25-.75.5-1.313.75-1.312 1.812-1.5 2-.532 2 .5 3 .532 1.063.5.75 1 .25 1.562-.25.25-1.313-.75-1.75-.5-1.5.5-1 .5-1.25 1.313-1.5.75-1.562.28-1.5zm4.593 12.375-.75.5-.5.75-.812 1.5-.25 1.75v1l1.312.25 2.282.531 2.062-1.281 1-1.5-.5-.5-.5-.25-.812-.75-1.5-1.5zm66.094 120.25 2.063 3.5 1.03 2.25.5 4.281-.155.094h15.53l.032-.094.25-1.5-4.906.25-7.157-4.281-4.093-2.75-1.282-1.25zm-51.562 3.25-1.532 1 1.032 1.5.75 1.031.75 1 .562 2 .219.344H1368l-.187-2.094 1.53-2-.78-1.781-1.25-.25zm47.218 3.031-1.312 1 .312 2.844h3.532v-.594l-.5-3.25zm-5.906 1.5-2.187 2.344h4.468l-.218-1.594zm-42.844 2.25-.094.094h.188z" style="fill:#9faec0" transform="translate(0 50)"/><path stroke="#9FAEC0" stroke-width="10" d="m964.813 671.969-.22 2.5-.5 2.25-2.03 1.25-1.313 1.562-.5 2.25-.812 4.75-.75 4.313v3.25l-1.282 2.531-1.562 2 .25 1.25 1.062 1.25 1.25.5 1.032 1.25-.25 2.313.25 2.5.25 1.25.5.75.25 1.25.812 3.28.25 1.5.25 2.25-.812 1.563v1l2.062 1.25.563.5 1 1.75-1.813 2.75-1.812 4.313v2.25l1.062 2.5 2.313 4.031.75 4.063.25 3.25.5 1.25 1.53 2 2.845 1.03 2.312 1.25 3.844 2.25 2.562 2.75 1.25 2.563 1.032 1.75 2.812 1.25 3.094-1.5 9.25-2.75 6.656-2.75 5.406-3.312 5.407-3.75 4.093-3.532 1.532-2 .75-4 .25-4.312-.25-2.25v-3l1.312-1.281 1.313-1-.563-1.25.563-3 1-2.5 1.53-1.813-.75-1.5-4.905.5-2.782-.75-2.593-.75-2.563-1.75-.5-2.562.75-2.25 1.313-1.25 1.03-.75h.5l-.25 4 .75 1 1.813.062 1.782-.562 1.812-.5 2.313.562 3.843 1.25h1.782l2.312-.75 1.813-1.5 1.78-.812.75 2.812-1.53 2-2.063.75-1.812.5-.75 2.25.5 2.063.812.75.5.25.75 1.75-.5 4.781-1.062 4-.75 2.75-.782 2.813 1.782-.25 2.374-1.5h2.032l2.062.25h1.25l1.782-1.5 1.062-3.563.5-2.5 2.063-1.75 3.593-.75 2.032-.25.25-.25.812-1.781 2.563-3 2.78-2 1.563-1 1.282-1 .25-1.563-.5-2-2.032-.75-1.062.25-1.25.5-1.031-.25-.25-.75.75-1.5 1.53-1 1.313-1 1.25-1.062.532-1.75v-4.75l1.812-1.532 1.563-1.25 2.03-2.25 1.25-2.25.813-2.5.5-2.812.5-2.25 1.532.25 1.062 1.75.5 3.063-.812 3-.75 2-.75 1.5-1.282 1.25-1.312 1.03-.25 1.25.5 2 .5 2.25-.25 2.813-.25 2.75 1.562 2 2.532 1.25 2.562 3.063 1.063 2 1 4.031 1.78 6.5 4.095 8.313 4.624 9.593 1.282 4-.5 4.313-.281 2.5 1.28 2.25 1 1.5.563 2.781v2.5l-1.312 1.75-.25 2.813.75 1 2.594-.25 3.562.25 1.813 1.75 1.78 2.25 1.313 1.28 1-1.53 1.282-2 .75-2 2.874-1 .75 1.75-1.312 4.03v1.5l1.813 1.75 2.28 2.25 1.313 1.5 1.032 1.313 1.5.5 1.812-1 .813-.75 2.28-.25 1.813 2 .75 1.75 1.282 2.25 1.5 2.063 1.062 1.75.5 1.75-.75 1.25-1.812-.5-2.032-1.5-1.562-2.25-1.531-1.563-1.25-1.5-1.813.25-1.062 3.063v2l-1.282 1.75-.25 2 2.844.75h3.063l4.624 1.281 3.313 2.25 2.594 2.75 2.312 2.563h2.032l2.562-.75 2.813.25 1.28 1 2.313.25 3.094.5 1.813-.75.75-1 .5-.5 2.03.25 2.595.75 2.062-.5v-2.063l-1.312-2.5-2.032-1.75-.5-1-2.562.25-2.031 1-1.063-.5-.5-1.75 1-1.531 1.063-1.75.25-2-2.563-2.75-1.062-1-.75-1.563.75-.75 1.812-.5.25-2.5-1.25-2.5-3.344-3.312-2.812-1.25-1.531-.25-2.563-1.25-.812-.75.25-1.532h1.812l1.813.282 1.78-1.282-.25-3.25v-3.5l.5-2.562.563-2.25-.25-2-3.593-1.781-3.876-1-2.28-.75-2.313-1.25-1.531-1.75-1.313-1.25-1.812-2.313-1-2.25.25-1.5 2.874-1.5 3.282-.25 3.344 1.25h3.624l2.282-1 1.75.5 3.344 1.75 3.624 2.5 3.594 3.313 1.782 2 .75 1.5.25 2.031-.25 2.25-.75 2.25.25 2h2.312l1.063-1.5 1-1.25 2.03-.5 2.063.5 3.094-.25h1.25l1.563.75.78 1-1.03 1.563-2.063.25-2.312-.5-1.282 2.5.5 1.75.282 1.25-2.094.25-1.5-1-2.031.5-1.563 2.25-1.062 2.03 1.812 1.25 1.563 3.5.75 3.313 1.03 2.75v1.75l-.78 2.313-.5 2 1.53 1.75 2.313-.75 1.782-.5 1.25.75.562 1.25-1.062 2.25 1.562 4.031 1.813 2.5 1.78 6.563-1.28 3.25-.25 2.03.25 2.75.75 2.25 1.28-.25 1.25.5 1.313 1.563 2.032.25 1.312.25 3.313 3.5 1.03 1.5.75 2.563-.5 2.25-.5 1.25.5.75 4.845 1.25 2.062 1 1.813 1.031 2.03-1.531 1.563-1 .25-1.5-2.312-1-2.281-.5-1.313-1.5-.25-2.063v-1.75l.813-.75 1.5 2 1.53.813 1.813-.813 1.782-1.75H1193l3.094-.25v-4.5l-.5-1.812-2.031-.5-2.063-1.5-.812-2.25-.25-2.5 2.312 1 2.594 2.25 1.25 1 1.312 1.25 1-.5 1.032-2.5.25-2.25-1-1.532-1.532-.5-.5-1v-1.25l2.032-.75.75-1.25-.5-2.25 1-2.062-.75-1.25-1.282-1-1.5-1v-1.5l1.25-2 .282-2.531-.782-2.25-.5-3 .5-1.063 1.032-.75.5.813.75 1.5.25 2.75.312 3 .5 1.281 2.313 1.25.5.75.25 1.25.78.5 1.813.75.25 1.25v1.5l-.562 2.063v1.25l.812 1.5.5 2v1.78l-.25 1.5-.562 2.25.062 1.75-.313 1.25-1.25 2.063-1.531 1.5-1.562 1.25-1.563 1-.5 1.75.75 1.5 1.813.25-.5 1.563-.75 1.75v2.25l1.25.5 1.812-1 1.281-1.75 1.813-2 1-1 1.281-1.563.25-3.25-.75-1.5-.25-.75-.531-.75v-1.062l.781-.75 1-.75.563-1.5v-1.5l.25-1.25.25-1 .5-1.782.5-.75 1.312 1.25-.25 3.032.75 1.75 1.781-.5.813-2.25.5-1.5h1l1.281 3.5.25 1.25h4.906l3.313-3.75 3.344-3.032 1.562-1.5.5-2.25-.75-.75-1.562.5-.75-.75v-2l.25-2.312 1.562-.5 1.5 1.25.781 1.313.5 1.25.5.5 1.563-.75 1.281.25 1 1.25.813 1.25.5.75-1.063 1.25-.5 1.53.5 2.25v1.25l-.75 1.25-.781-.5-1-.25-1.313 1.25-.5 3.063-1.031 2.25-2.062 1.5-2.563.75h-2.844l-2.531-.25-2.562 1.25-3.594 2-1.313 2.313-.5 2.25.25 1 1.813.75 2.844-.75 3.562-.75 2.344.75 3.531 2.25 1.813 1.281 2.312 1.25 2.844-.25H1241l6.156 2.5 2.562 1.594h57.219l1.25-1.032 1.031 1.032h40.563l-.281-.532-1.313-3.562-1.031-4-1.75-4.781-1.813-5.563-.5-4.75v-4.312l1-4.75 1.313-3.782 1.781-2.5 2.563-2.25 2.312-1.25.781-1.062-.5-1.5-3.094-2.75-1.812-1-2.781-2-2.844-1.781-2.562-.75-.25 2.25.75 2.281.5 2.5h-2.063l-2.781-1.75-2.063-.75-3.594 1.75-1.562 3-2.031 3.313-4.094.75-3.062-1.25-2.844-.813-2.313-.25-1-.25-2.844.25-1.312-.75.062-2 1.25-1 1.562-1-1.812-2-3.063-3.031-1.78-2-.25-2.75v-2.813l-2.345.5-2.312 2.813-2.813-.75-.5-3.313.75-2.25.5-1.75-.5-.75-2.78 2.25-3.595 2-1.812-1-.25-2 1.25-2.812 1.312-1.25-.25-1.5-2.562-.25-2.344.5h-2.062l-.75-2 .5-2.282 2.062-1 3.094 1.032 2.062.75 2.782-.25 1.312-1.282-.75-2-3.094-4-3.062-3.562-3.844-3-2.844-1.25-4.125-1.531-3.03-1-1.563.75-2.282 1.781-.812-.25-.5-2.031.562-1-1.062-.75-2.813-.25-2.343-1.75-1.782-.25-3.062-.25-.75-.75v-2.063l-1.063-1-2.78-1-1.313-2.25-1.782-1.75-1.812-.812-2.563-1-1.53-1.5-2.063-1.5h-1l-2.032-.25-2.062-1.5-.25-3.032.5-1.5-.25-2.75-2.313-1.5-2.593-1.562-2.032-1.25-1.25-1.25v-1.75l.25-.75-.5-1-.812-.5-3.313-.781-1.78-.5-.813-2.25-.5-1.75-.5-2.25-1.282-1.563-1-1.5 1.782.25h1.25l.562-2-1.562-2-2.532-3.062-2.125.25-1.5.5-1.53-.5-.75-1 1.25-1.25 2.28-1.25.813-1.5-.25-2.25h-1.063l-1.53-.782-.75-1-.75-1.25.5-1 .5-1.75v-4.812l-1.813-.5-.25-2.25 1.062-2.5.938-1.406H964.81zm262.78 0-.343 1.156-1.312 2.25-2.532 1.75-1.062 1.75 1.562 1.75 1.032.813 1.75 3.5 1.062.75 1.563 1 1.5 2.53.78 1.5-.25 2 .5 2.5 1 2.063.813 1v2.75l-.25 2.25.5 3.063 3.032-1 1.062 1.25 4.094.5 2.312.75 1.532 2.5 1 2.281 1.812 1.75 1.813-2.5.78-2.531-.28-2.5.28-4.063-.25-2 1-1.5 1.813.25.25 3v2.313l.75 2.5.532 1 .75 1.25-1.032 2.031-1.75 2.25-2.093 3-.5 3.063v1.25l1.28.75 1-1 1.563-.75 1.782 2 1 1.5 2.062.5h1.813l1.53 2 1.313.5 2.032.53 3.874 1.25h1.532l2.312.75-.812 2.5-.75 2.75-.25 2.313.25 1.5 2.562-.75 1.032-1.75 1.25-2.062 3.624-2 3.594 1 4.094 1.812 2.313 2.5.78 2.25.25 2.5v2.313l.5 1.5 1.813 1.25 1.782-.75 2.062-2.25.5-1.813-.25-2.25-.75-2.25.25-1.25 2.063-2.25v-2.312l-1.313-1.25-.25-2.5.5-3.282.813-2.75.5-2.5 1.28.5 1 3.25.25 1.75-.75 1.782-.5 1 1 1.5 2.063.5.5.75-.25 1.5-1.5 1-.312 3.812.25 2.25.562 3.063v3l-.562 1.5-1.5.75-1.031.75v2.281l1.28 1.75.75 1.25 1.313 2 .25 2 .25 2.313 1.25 1 3.344-2.563h1.063l-.25 1.563-.813 1.5-1.312 1.5v1.75l.562 1.25.25.5.25.28.75 1.75-1 2.25-.812 1.25-.25 2v1.063l.25 1 2.062 3.5.25.5 1.813 2.563 1.03 2.5.5 1.5h1.313l1.782-2.25-.532-1.813-.75-2.25-1.062-1.5-.5-1.5.25-1.5 1.312-.25 1.032.5 1.25-.75 1.562-2.562.5-.5.813-.75 1 1.75.25 1.562 1.03.75 1.813-.5.5.25v1.5l-2.062 1.5-1.781 1-.5 1 1.25 1.25 2.03.25 2.595 1.063 1.75 1 1.562.5 3.594-3.813 3.344-5.25 3.374-4.312 1.532-2.75 2.312-4.032 2.032-3.75.25-1.5-.25-2.062-1.032-1.5-.5-1.25.25-1.5 1.032-2 1.25-2.031.312-1.5-1.812-1-2.282-.75-1.562-1.5-1.281-1.75-1-1.063-1.063-2.5-1-1.75-3.094-2.5-6.156-5.812-5.344-5.532-2.843-3.5-1.813-2-2.562-2.562-.75-2.75-.532-3.281-.25-.5-1.812-1.25-5.906-3.5-4.344-3.813-3.531-4.75-2.313-10.093-3.594-6.25-2.312-6.313-.031-.156zm134.47 0-.407.406v1.75l-.5 4.313.25 1.5 1.25 1.75.532-.5 1.5-3.75-.25-2.563-1-1.75-1.188-1.156zm3.406 0 .781 1.156 1.313.5.5-1-.063-.656zm37.344 0-.376.406-.28 2-.75 1.563-2.813 1.75-1.531 1 .5 1.75 3.343 2 1.25 2.53-1 4.25h-2.312l-.781-2.25-1.25-1.75-1.563-.75-1.812 2-2.844 9.063-1.781 4.25.25 2.563 2.593 2 2.532 2.25 1.312 2.281-.812 2.75-2.782-.25-1.562-2-5.406-2.531-1-3.25-.782-3-1.5-2.813 1-1.5 2.032-2 3.374-8.062 1.032-5.032-1.781-1.75-3.876 1-2.03 5.782-3.344-.25-2.563 1.25-3.594-2-1.562 1.25v4.25l-1.531.25-2.313-2.25-1.562 1 1.562 3.312 3.594 10.063 5.094 9.531 5.156 5.563 4.594 6.53 3.624 7.813 1 5.5.25 7.813 1.032 4.281 1.25 1.5.812 2.25v3.063l.25 2.25 1.782.75.75-3v-4.813l.25-2 2.062.5 2.594 2.5 4.594 1.75.75 2.313-.25 2.5 1.312 1 2.563 1.75.75 2.03 1.03 2h1.563v-3.03l-1.562-2.25-2.031-1.75-.5-2 3.03-5.063v-4.25l-1-4.281.25-3.25h2.313l2.594 1.5 2.563 2 .75 2.5-.5 3.031-1.313 2.25-1 1.25.75 1.75 2.563.75 2.28.313v-2.813l.313-2.25 1.25-.75 2.282 1.5v2.5l-.5 2.313 3.374 1 1.782.25.5 2.5.75.5h2.062l1.282-.75 2.562 3.25 1.563 2.53.75 2.5v3.25l1.03 1.063 1.813-1.312 3.282 1.562 1.062 4.75.5 2.5v1.813l-1.562 1.5-2.032-1-1.562 1.5.312 2.25 2.782.5 3.124 1.531 1.25 1.75h.782l1-1.25 1.062-1.781 1.25-.25 2.594 2.781 1.25 1.25 1.063 1.75-.813 2.25-3.594 3.063-2.312 5.5-1.281 3.28v2.25l1.03 1.5 3.095-3 2.812.25h1.313l2.28-.25.25-1.75-2.28-1.25-1.063-1.53-.25-2 1.063-2.25 1.25-1.75 1.03-1.313h1.813l3.344-.5 1.5-1h1.563l.78 1.5-.53 2.063-2.313 2.25-1.312 1.25 1.312 1.25 2.313-1 2.03-.25.813.75-.312 2.25v1.53l.562.25h1.5l1.782-1 1.562-1.28 1.563.5-.25 2.28v1l2.03 2 .5 1.25-1.78 2.563-2.063.5-1.812.75-.5 1.5-1.032.5-1.25-.75-1.062.75 1.062 3.5 2.782.25 3.374-1.25h2.782l2.062 1.813 2.844 6.5 2.063 4.781 1.5 3.5 3.093-.5 1.782-.75 3.062 1.25 1.063 1.5.75 1.313 1.03 1.75.032.03h1.719l.061-.03-.25-3.313-1.062-3-.75-2-.25-3.031v-2.5l-1.031-1.5-1.313-.25-.25-1.5.813-1.5.75-3.313.25-4v-2.062l-1-1.75-2.063-.5-1.062-1.25-.5-1 1.062-1.25 2.563.5 2.031-.75 2.062-2.032.75-1.5-.75-2.25-1.812-2.5-1.531-2.562-1.25-1.75-2.063-1-3.344.25-2.562-.5-1.531-1.25.25-1.25 1.031-1 5.344-1.031.812-3.5.75-3 2.844-3.563 3.062-3.5 2.844-3.812 2.313-2.75 1.781-2.25 1.062-1.532-.312-1-1.25-.25-.25-.5-.531-2 1.781-2 1.562-2.062-1.5-6 .5-1 1-.531.25.25 2.344 2.781 1.5 2.5 3.094.5h3.844l2.562 3.063.75 3.5.813 1.25 3.594.5 1.75.75v1l-1.75 1.53.25 4.75v3.563l-.563 2.5-2.281.5-3.625.25-2.531 1.75-5.157 3.063-6.156 1-4.344 1.25-1.062 1 .812 2.25 2.813 1 1.531.781 1.562 1.25-.25 1.5v2.5l1.75 1.5 2.594 1.313 1 3.5.5 1.5 1.313-.5 2.281-.75 1.562.5 1.282 2.75.25 2.03-1.031 1.5-1 2.75 3.03 1.75 2.063 1.063 1.313 2.25.75 2 2.594.5 2.78 1v1.5l-1.03 1.313h-1.5l-1.813.75-1.781 3-1.563 1.75.75 1.25 2.844-1.75 3.844-1.5h2.062l.5-1 .5-1.25 1.313-2.813.25-2-2.813-.25-1.812-1.75-.75-3.562-.25-6.5-1.031-4.282-.25-4.75 1.28.25 1.5 2.25.813 5 1 2.782 1.563.25 1.781-3.032-.25-4.75 3.062-4.062.532-.75-1.781-.75-1.563.5-.5-3.25 1.562-1 .5-2.781-.75-2.5.75-2.25 2.282-1.5 3.625-4.063 2.781-3 2.094-7.562 3.312-3.032 2.313-1 3.594-2 1.28-2-.5-1.812-1.03-1.75v-4.25l.78-1.75.75-.531 1.063 2.781.5 3.5.5 2 .25.563 1.063.5h.5l3.344-4.563-.813-2.25-.5-1.5 1.562-4.531 2.282-3.25 1.812-2.313 2.813-.5 2.344-.25 1.25-.25 1.03-1-.78-1.5-1.5-1-1.813.25-.781-1.5.281-1.562.75-2.5 2.062-3.5.75-3.282.282-2.5.25-3.562h3.062l2.063-.25 1.031-.5 1.812-2.25-.75-1-2.843.25-2.063-1-.5-1.75v-4.281l1-3 .313-.5.5-1.063 1.531-1.25.5.5 1 .5v2.313l-1.5 2.5v1.75l1.75.5 1.062-.75 2.782-.75h2.625l.75 1.25.5 2.281-.5 2.25.25 3.5-1 2.813-2.875 2-4.094 1.25-1.781.25-1.563-.25-1 1.25-.562 1.25-.5 2.78.5 3 1.062 1.75 1 2.063 1.563 1 1.531.75 1.562 1v1.25l-1.562 1.25-1.281 1-2.063 1.813-.5 1-1.812 1.25h-1.281l-1.5-.5-2.063.25-1.531.25-.25 1-.313 1.25.563 1h1.531l1 1.5.25 1.531-.5 3-1.281 2.75-2.063 1.813-4.094 4-3.093 6.78-.5 3.25-4.875 3.563-2.094 4.5v3.813l-2.031 4.781-3.625 3 .312 2 2.063 1.25v1.75l-1.563 1.313-.812 2.5v3.25l-2.031 2.28-2.563 1.75.5 3.25 2.062.75 1.782.75.75 1.313-1.25 2-.25 3v1.75l2.562 1.063 1.813 1 .75 1.5.5 2.5 1.031 2.781 1.25-.25 4.156-.281 1.75-.5-.25-1-1.812-1.5-1.5-.75-.781-1.25-.25-2.5 1.53-3.313 2.313-3.25-.5-2.312-.25-2.5.75-1.75h4.906l.5 2.75-2.062 1.25.25 3.562 2.312 2 2.032.5 3.875-.25 1.531-2.25 1.812-3.562 2.782.25h2.375l3.844-2 2.28-.75 2.313.75h3.344l3.312-.5h2.25l-1.718 2.75-6.688 1.812-5.094.75-5.656 1-2.062 2.5-3.844 2.75-4.906 2.063-.25 3.25 1 1.75 2.062 1.781 1.813-1.031 2.281-2 2.094-.5 2.312 1.25h1.813l2.281-1.5 2.062 2.5-1.062 2.531 1.812 4-.5 2-2.125 1.094H1840l-.095-1.188v-1.75l.25-1 2.344-.25.75.25.5-.5-.5-2.25-.25-1.812 1-3h2.344l3.062.5.25-.5-.75-2.25-1.312-1.25-1.781-.25-.75-.782-1-1.75.5-1 .75-1.25.78-.75 1.813.5 2.782 1 2.062-.75-.25-2.25.5-1.062 3.094-1.25 5.094-1.75 2.062-1.75-.5-3.281-.75-2.25-.812-2.75.312-1.563 1-.75 1.563.25.75 1.563.5 2.25.28 1.5v.75l.25 1h.5l2.063-1 1.532-1.5v-2.5l.5-1.813.75-.5 2.125 1.5.25 3.313-.563 2.25-2.562 3.031-2.782 2.25-2.343 2.25-.75 1.75-.25 1.063-1.313 1.5.25 1.5 1.813-.5.78 1.5-.78 3.5-1.313 3.78v1.25l1.063 1.25.75 1.25.78 1.563.75 1 1.563-1.562.5-3 .5-4.5.532-3.032.5-1h1.562l1.563-.5 1.25-.25 1.53 1 2.063-1.5 1.532-2.562 1.312-1.75 1.25-2.25 2.063-1.5 2.28-2.281-.5-1.25-.75-2-.25-2 1.813-2.563 1.5-1.25 2.844-2.75.75-1.5v-2.562l-.25-1.75-.25-2.5.5-2.282 1.313-1.5 1.78-.75.75-1.75 1.813-3.562 1.282-1.75 2.312-2 1.063-1.25 1.78-2.781 1.5-2.5 1.313-2.5.25-2.813-.75-2v-1l.75-2.25.782-1.312v-.75l-.25-2h-1.032l-2.562-1.25-.5-.25-1.281-.5-1.313-1.5-2.062-.75-1.5 1.25h-1.782l-1.312-.5.75 3.5-.25 2.062-1.281 1-1-1.812-.75-1.25-.813-1-3.594 1.25-2.812 1.312h-2.281l-1.313-1.562-1.312.062-1.75-.812-.782-1 .5-2 3.594-.75 3.594.25 2.844-.75 2.562-.5 2.063-1.282 1-1.75.28-2-.25-.75-3.343.75-2.312.5h-1.282l-.75-.75-.562-1.5-.5-1.75v-1.562l1.312-1.25 1.782 1.25 1.5 1.313 1.312.75h1.813l.75-2.063.78-2.75v-3.25l-.5-1.531-.78-1.25-2.063-1.5-6.406-2.5-2.281-2-1.063-.5-3.062-.75-4.094-.25-3.844 1.5-2.844 1.25-2.562.25-1.531-2-.5-.5-.25-1.75.75-1.313 3.093.25 2.032.25 1.812-.5.25-.75-.812-1.5-1.25-1.25-1.532-1.25-1.562-1.75-.25-1.312.25-1 1.312-.25 2.782 1.25 1.812 1.812 1.813 1.75 2.53 1 3.095 1.75 1.812 1.75 1.813-.25 2.53-1.25 1.313-.5 1.532.25 1.25 1.75 1.062.5 2.063-1 .75 1 .25 1.5.25 1.25 1.03 1.313h1.813l2.782-1.063 2.062 1 .25 1.563-.75.5.75 2.25 1.813 1 2.28-.25 1.563-.75v-2.75l-1.25-2.813.75-.5-.5-1.5.25-.75 2.032-.25 1.062-.75-.812-1.812-2.782-1-1.562-1.75v-2.5l-2.031-.75-.75-1.25v-1.782l-1.063-1-3.594 1.282-2.312.5-.75-1.532 1.5-1.75 1.562-.5v-1.75l-.5-1.25-2.562-1-.781-.75v-.812l2.03-.75-89.155 1.5-4.938-.156-53.406-.094-47.656-.25-53.844-.906-2.094-26.094-.312-3.906h-205.782l-.843 1.906.25 1.5 2.78.813 1.813.5.532.5.25 1.5-2.594 1.5-2.781-.25-3.375-1.25-1.25-1 1.78-5.72h-15.53l-1.875 1.157-2.313 1-1.062-.75v-1.406h-3.532l.188 1.656-.75 1.5-.75 2.063-2.344.5.313-3.063.75-2.5-.031-.156h-4.47zm526 29.156-9.313.25.5.75 1.063 1.75 1.5 1.5-.5 2.813.25 4.25.5 4.03-.75 3.75-1.813 3.813-.25 2.5.5 2.25-1 1.563-2.062 1 .5 1.5 1.25 2 .562 2.25-1.312 1.781-1.782 3-1.062 4.813-1.25 6.53-.5 3.75-.781 2.75-1 3.313-.563 2.75-.25 2 .25 2.063 1.063 1.75 3.593-1.75 1.782-6.313.75-5.062.5-5.782 1.062-6.5 2.563-7.812 1.78-4.031 1.313-5.813 1-4.5.782-8.062.25-6.532.5-5.312zm-512.626 67.844-.5.25-1.28 1-2.563 1.25-.25.812v2.75l.25.75.75 1.25 1.062 1.5v5.563l-.25 2.25 1.782 2.031 1 1.5 1.312 1 1.25.5 2.844 1h2.812v-.5l-1.25-1.75-1.062-.75-2.031-1.281-1.563-1.75-.25-5 .813-1.563.25-1.25-1.313-.75-.25-1.75.75-1 1.563 1 1.78-.5-.25-.5-.75-1.75-.53-1.312-.75-1.75-1.813-1zm-16.374 1-.75 1.5v3.812l-.063 3v1.5l.563 1.563 1.25 1 .781.5.25.25.5.75.5 2 .563 1 1.5 1.531 1.031.75 1.563.5 2.062-.5-.812-1.531-1.25-1.25-2.594-1.75-1-1.75-1.063-2.5v-4.063l.062-2.25-1.062-2-.75-1.812zm509.874 2.875-1.78.25-.25 1 .25.5.53.75.25 1.281-.25 1-.78 2-1 1.5-1.063.75-.5 1-.25 1.313-.781 2-.75 3.25-1.063 1.78-1.25.5-1.562 1-1.782.75-.25 2.25.75 1.25.5 1.813v1.5l-.75 2.25-1.562 2-.75 2.813-1.531 5.25-2.313 3.781-2.844 2-.25 1.5.5.75.282 1.313-.532 1.25-.75 1.75-1.312 1.75-.75 1.5-1.281 2.53-1.813 2.25-.25 1.75-1.062 2.313-1 1-.25 1.75.061.188h4.782l.812-2.688 1.5-4.062 2.594-4.782 2.813-4.75 4.906-10.843 2.281-5.75.813-3.063.25-3 2.062-3.062 1.281-2 1.5-6.282.563-2.75 1.781-4.812 1.25-3.25.813-3.531zm-475.28 1.187-1.75.25-.313.75-.25 1v1l.5 1.25 1.312.75h2.282l2.374-1 .5-1 .25-1.25-.5-.5-1.062-.75-1.812-.25zm-4.094 5.5-1 .813-.813 1.5-.25 1.5.25 1.5 2.063.25 1.53-1 .813-1.25v-1l-.812-.75-.75-1zm7.687 15.844-.5.5-.562 1.313-1.25 1-1.282-.25-1.312-.75-.75-.25h-2.031l-1.563 2.25-2.062.75-1.25 1.25 1 1.5 1.312 1h1.5l1.313.78.75 1 .78 1.75.5 1.75-.25 1.25-.5 2.313.25 1.25 2.563 3.75 2.532 1.75 1.562.75 1.813 1.813 1.78 2.25.75.75 1.063-.25 1.25-.25 1.282.75 1.312 1.25.75 1 .5.5.813-.5 1.25-1.5h1.28l.25 1v1.781l-1 2 1.25.5 4.095-2.5 3.124-1.281.75-2.25-.5-1.25-1.562-.75-3.562-1-2.594-.5-4.094-.5h-1.312l-4.094-1.563-.75-1.25-.5-1h-1.031l-1.813-.75-.5-1.5-.25-3.062.5-2.5-2.062-3.25 2.624-2-.562-2.782-.25-2h1.813l2.03.5.563-1.5-.312-.5-.25-.5-.75-.25-1.031-.25zm-296.812 19.313-1 .5v1.03l.75 1.5 1.062 1 2.563 1.5 2.78.75.5-1 .063-1.25-.813-2.25-.75-.75-1.281.5h-.75l-1.562-1.03-1.563-.5zm445.312 20.187-2.062 3-3.094 2.063-.031.03H1590l-1.187-2.593-.75-2.25z" style="fill:#9faec0" transform="translate(0 25)"/><path stroke="#9FAEC0" stroke-width="10" d="m1249.719 839.969 3.594 2.218 4.843 3.5 4.344 2 2.313.75 2.03 1.782 1.313 2.25 1.782 1.25 2.062 1.5 2.563 1.312 1.78 2 1.313 2.25.75 3 .75 4.563.532 3 .25 2.281 1.5 4.25 1.312 3.313.75 3 1.313 2 2.03.5 2.563-.75 2.344-1.25h1.75l1.563 1.75 1.28 1 1.563.78 1.25-.53v-1.25l-1-2.5-.812-2.5-1-1.25-1.781-1.563-2.063-1.25-.75-2.25-.562-1-1.75-1.25-1.532-1.781-1.562-1.75-.5-2 .5-1 2.312 1.5 1.782 1 1.812-.5 2.063-.25 1.78.75-.5 3-.28 2.531v1h1.28l1.063-.75 1.5 1.5 1.532.75 1.062.75v3.813l.75 2 2.063 1.75 1.28.25 2.313-.25h1.782l1.25 2 1.062 1.78 1.563-1-.25-3.28-.813-3.25-1.25-2.313-.562-1-1.75-1.75-1.532-1.5-.812-2.25.562-2.031 1-.25 2.844 2.531 1.25 2.25 1.063.25 3.28-1.75h1.563l.532-.75-1.532-2.031-2.312-1.25-1.031-2.25 1.28-3 2.313-.75 2.282-2.063 1.062-1.75 1-1.5.25-2-1.25-.5-2.312 1.5-1.532.75-1.312-2.5.812-2.812-.25-3-2.062-2-2.844-1.532-2.812-1.5-1.532-2.25-.5-2.25.282-.218zm59.5 0 .719.718 2.874 2.5 2.782 1.25 2.594 1 2.812 3.282v1.75l1 2 2.063 1 2.343 4.062v2.5l-2.843 2.5-1 2.313.75 2.5.5 2.25 2.53-.5 2.345-1.5h4.374l3.344.25 1.75.75.782 2.781-2.594 1.25-2.031-.75-1.25 1-1.063 2.5-.75 1.75-.25 1-1.312-1.75-1.532-.75-3.593.75-.5 2 1.78 2.063.75 1.25-1.53 3.25 1.28 2.28 1.313 1.25 1.5 3.25 1.032 4.813 1 3.25 1.562 3.813 1.813-1.313.25-5 .53-3.062v-2l-.25-2 .75-2.25.5-.5 1.563 2 .75 3.25.782 1 2.062-1.75v-3.25l.5-1.5.75-.5 1.813 2 .53 3.25-.53 3.312-1.563 2-3.062 1-1.282 1.75 1.532.75 2.312.25 3.094 4.063v2.25l2.062.5h2.782l2.062.5-.25 1.25-.812 1.281.812 2.75 1.563 2 3.03 2.25 3.095 3.563.5 3.75.25 3.28 1.312 2 1.5.5 2.063-1.75 1.53-.25 2.313.75 2.594 1.25 1.5 2.25 1.063 2.563.25 1.25.75 1.5 1.78 1.25 1.313-2 .25-2.5-.75-3.062-1.312-4.25-1.781-4.032-3.063-3-1.812-3.062v-3.75l1.312-4.531.25-3.75-1.062-3.5-.25-2.563-.25-1.5-2.032-1-2.812 2.75-1.281 3.063-1.813.75-1.312-1.5.812-3.813 1-2.25v-1.25l-.75-1.062h-1.562v-5.25l.312-3.782.25-2.5.25-2.75 2.063.5 1.53 3.5.75 4.532 1.313 2.5 3.282 2.25h2.062l2.344-2.25 1.5-3.25.312-2.782-1.062-6-1.781-3.062-3.313-4.75-3.594-3.281-4.093-5.5-2.563-5.563-2.062-2.75-2.844-5.562-3.281-4.532-2.032-3.718zm192.406 0 .719.468 1-.468zm79.688 0-4.313 3.218-2.062 3.532-.782-1.282-.5-1.5-.75-.25-1.562 2.25-1.781 2.782-2.063 1.5-1.062-.5.562-2.5v-1.032l-2.594-.25-7.406 2.032-4.094 1-.562 1.75-.75 2-3.344.75-3.844-1-5.656 2.562-2.562 1-.25 1.75.5 1.75 1.312 5.813-.812 4.531-1.532 3-1 2.5v3.063l.25 3.75.25 2.25.75 1.78 1.032.25 2.812-2.78 2.063-.5 2.03.25 1.063 1.5.75 1.53 1.532.5 2.874-.5 1.25-1.78-.25-1.75-2.062-.75-1.562-1.25-.5-3.063.25-1.5 1.812-1 3.094-1 1.25.75 1.812-.5 1.282-.25.25 2.75.25 1.563 1.062.75 2.313-.5 1.78-2.563 1-1.75 1.313-1.25 1.282-.25 2.062 1.5.75.75.75 1.25.563 1-.813 1.313-1 1 .25 1.25 1.813.5 1.78-1 .5-2.563.75-1 3.095.25 3.374.75.5-.5-.5-2-.562-1.75.313-2.5.75-1.281 2.28 2.531 1.063 2.25 1.25 1.25h1.782l.5-2 .812-1.75.5-1.781h1.813l1.03 1.281 1.75-.5 2.595-2.281 1.562-1.25 1.813-.5 1 2-1.313 3.031-1.25 2-.25 1.5 1.25.75 2.313-1.25 1.53-1.5 1.063-1.75 4.844-3.031 1.563-1.5 1.78-2 1.813-1.5 1.532 1 2.812.75h2.563l2.03 1.25 1.313 1 1.032.75-.032 1.5-.75 1.25-2.812-.25-2.031-1.25-2.375 1.25-1.5 1.781-2.594 1.25-2.531 1.5-.5 2 2.031.75 4.594-1.75 2.312-1 2.313.25.281 2-3.844 2.563-3.093.25h-2.313l-.5 4-1.031 1-2.313-1.25-.75-2.5-1.562-1.25-1.781 1.5-.5 1.75-1.313.25-1.281-2-.5-1-1.563.75-1 1.75-2.843.5-.5-2-1.063.25-2.531 2.75-3.063.5-2.093.75 1.53 4.03v3.75l.813.813 1.25-.062.25 1.562-1 1.25.5 1.75.75 1.25-.5 1.5-2.562-.25-2.281-.5-2.063-.75-1.031-1.75-.25-1 1-1.75.281-1.562-.531-.5-1 2.062-.5 2-1.313 1-2.312 1.25-1.031 2.563.5 1.75.78.25.25.75-1.03.5-2.063.25-2.031-1-1.25.75 1 1.75 1.781 1 2.063 2.531.25 1.75-1.813.75-2.781-2.25-2.063 1-2.312 2.25.5 1 2.062-.5 2.063-.75.75.25v1.5l.25 1.25.281 1.813-1.031 1.5.25 2.5 1.781-.75 1.313-1.75.5.75 1.28-.75 1.5-2 3.126-2.063 5.625.75 3.062.75 1.813-1.25 2.344-2 2.78 1.5.75 3.813 2.313-.25.563-2.313 1-2 1.781-.25 2.313.25 2.03-.5 1.063-1-.25-2.75-2.843-2.531-1-1.5.25-1h1.78l2.563-.75 2.844-2 3.844-4.313 2.562-.25 2.063 1 .25 1-1 1-.25 1 2.031.75 2.563.313 2.53 2.5-3.343 1.75-2.031.5-1.5-.5-3.125-2.25-2.031 2.25-.25 2.25 2.53.5 3.126.75.5 2.031-2.813.75-2.343-.25-2.313 2-.75 2.5-2.844 2.313-2.312 1.75-2.031 2v2l1.53 1.53 1.25 1.75-2.03 2-1.813-1.25-.5-.75-2.281-.5-2.563 1.75-1.312-.25-.5-1.75-1.531-.25-2.063 1.75-2.031 1.5-1.563-1-1.812.25v1l1.812.75.25 1.563.25 1.25 1.313-.25 3.094-1.25 1.25.5.25.75-1.25 2.5.25 2.5-1.063 1.25-1.25-1.5-1.031-.75-1.813.75-1.562-.5-1.5-.25-3.344 1-1.281.5-1-.25v-2.25l.75-1.5 1.031-1.75-.781-1.812-4.375.562-4.094.25-1.031 1.75 1.031 1.25h2.063l1.78.5.25 1.75v1.5l-1.78.25-1.313-.75h-1l-.781 2.563 2.031.5 1.063 1.25 1 1.5.28 1.75-.78 1.5-2.063-.75-2.031-.5-.75-.25-4.656 9.031-2.813 5.313-2.031 3-1.563 3.28 1 1.75 2.063-.5.781-1.5.5-1.75 1.063-.5.25 2 1.53-.5 1.25-1.5 1.313-2.03.75-1.75-.25-2 1.563-4.063 3.594-.75 2.53.5.813 3.063-2.343 1.75-.75 2 .25 2.5-.25 2.03v2.5l-.813 2-.75 3.563v1.75h2.063l2.53-2.75 2.063-1.812 2.063-.25 1.031 1-.25 2.062-1.781 2-2.875 1.25-1.25 3.25-1.531.25-3.094-.25-1.25.813-1.063 2.5-1.562.5h-1l-.25-1.5.25-3.563-1.031-.75-.75-1.5-1.313-2.25-1.781.25-.25 2.25 1.031 2.25.25 1.813-1.781 4.5.75 2 2.281 3.281 1.563 2 2.03 1.75 1.563.5 3.344 1.563 2.063-.813.25-2v-3h-2.313l-1.031-1.5v-1.531l1.531-.75 2.313-.5h1.03l.75 1.25 1.063-.25 2.563-.75 1 .25.281 1.75-1.781 1.781-.563 1.5.563.75 1.75-.75 1.531-1.5 2.063-.5h2.03l1.313-1.281.25-1.25-.5-2 .5-1.25 1.313.25 2.031 1.5 1.313-1.75.25-1.75v-2.063l.25-1.25-1.313-.5-2.781.75-.5-1.5 1-4 1.781-3.312 1.813-1.75 2.03.75v3.5l-.25 3.312h.75l2.313-1.75h2.344l1.5-1 1.813-3.062 3.093-2.75h3.594l8.219.75 2.844-.5v-3.282l1.5-4.5 3.343.75 1.813 1.25-.5 1-1.313.5.5 2.782.813 3-.313 3 2.594 1 2.063-2.75 2.03-3.5 1.313-2.532.25-1.75-.562-2.25 1.562-2.812 2.844-.75 2.313-.25h1.28l-.28 2-2.313 1.813v2.25l1.813 1.25 4.343 2 2.594 1.28 3.313-.78 3.343.78 3.063 2.5 2.031 2.25 1.313 2h2.843l.25-2.75 1.25-2.75 1.75-.78 1.094-1 .75-1 1.313-.75 1.28.03 1 .47.75.25.876-.47.187-.593-.437-.844-.313-.5-.687-1v-1.312l.687-1.032.75-.812 1.313-1.25 1.531-2.594 40.844-5.937 67.406-8.625-1.531-1.75 1.281-3 .5-3.282v-4l.75.25 1.813 1.75 1.53 1.75 2.313.5 1.563-1-.25-1.5-.813-1.25-1.5-1.312-.562-1.25 1.062-4.5 1.313-3.281 1.25-3v-1.25l-.5-2.563-1.563-1.25-2.312-.75h-2.781l-1.813-.5-.25-1.25.75-1.75h2.844l1.812.75 1.25-.75.813-3.062 1.781-1.5 1 .25.75-1.25.313-1.75h1l2.28.5 1.063-.25.5-2.75 1.563-3.532.25-2-.25-1.25-.75-1.812.75-.5 2.781.25 1.563.75.78 2.312.25 1h2.313l.75-1.5.563-1.812 2.531-1.5 2.563-.75.78.25.5 2.5-.78 1.312-.5 1 .78.5 1.5.5.813.75.25 1 .75-.5 1.563-3-.5-1.312-1.063-1 .563-3.5v-1l-.563-1.781-.5-1.5.5-1 2.594-1.25.75-1.25 1.813-7.313 1.28-6.312 2.813-4.282 2.594-1.75 1.813-1.5-.813-1.25-.75-.75-.781-1.25-.25-.75 1.031-1.812 2.563-1.25 1.03-1.25.25-1.25-1.28-.75-1.25-.25-.563-1.25.25-.781 1.813-.75 1.78.5 1.313-.25-.25-.75-1.312-.75-1-1-.531-1.25v-1l-.157-1.625h-249.468l-.438.218-.094-.218zm299.187 0 .438 1.812-.5 1.25-1.032.813-.25 2.25v2l-.5 2h-1.562l-1.281.5-2.313.781-.75 1-.25 2.75-.562 3-.25 2.313-2.032.5-.75.75 1.5 2 1.032 1.5-1.032 3.03-1.25 3 .75 2.25v4.563l-1.312 3.75-2.281 5.813-2.313 4.781-1.562 1.25-.5 3.25v1.563l-.5 2-1.032.5-1.812.25-1.781-.5H1855l-.75 1.5.75 1.5 2.063.75h1.53l1.313.75v4.03l-2.062 3.25-1.281 2.313-1.563 1.5-1-.5-.562-1.25.562-1.25-.312-1.562-.5-.25-1.782.5-.75 1.312.25.75.5 1.75-.25 1.25v1.25l-.75 1.5-1.312 1.063-.5 1.75-.25 1.75-.531 4.531-.5 3.5-2.563 2.5-1.812.75-3.594 1.563-2.281.5h-1.813l.062.75 9.438-1.25.5-.063 4.093-.437 3.594-4.063 1.313-3.781.75-3.75 2.312-3 3.094-4.063 2.531-5.312.813-2.75 1.5-3.25 3.093-5.532 3.594-6.562 3.625-7.781 1.781-3.5 1.563-5.313.75-5.812.5-8.032.781-4.562.75-4 .813-4.031.75-3.25.5-3.25 1.062-3.563.469-1.562zm-392.25 2.968-2.562 4.032-1.532 2.5 1.25 1 4.907.75-.813 4.312-3.312.75-4.094-.5-3.344-1.75-.75-1.812-1.062-.75-1.782 1.312-1 1v.75l2.782 2.25.75 1.5.562 3.313 1.25.25.25 1-3.062.5-2.032.5 1.25 3.25.782 1.25-1.032 4.781h1.282l3.374-1.25 3.532-.75 2.062-4.781 3.344-1.75 2.563-1 1.78 3.25-2.03 1-2.313.25 1.313 1.281.25.5 2.03 6 2.063.75 3.032-.5 2.624-.25 1.532-4-1.531-3.531.75-3.25 3.593.25 1.782-2 .75-3.563-1-1.75-2.032-1-4.593-2.25h-2.376l1.813-3.562v-1.5l-3.062-4.5-2.282-1.782-3.093.5zm21.25 41-2.062.75.25 1.282.25.75-.25 2.25v2.75l.25 1 1.062 1.312.75 1.75v-1.75l-.25-1.312.25-1.25.5-1.75 1.813-.75.53-1v-3.032l-.78-1zm-20 .25-1.062 1.282v1.25l1.062 2 .75-.25 1.563-1.25 1.03-1.25-.25-1.032-1.78-.5zm-11.062 1.282-.25 2.25 1.312 1.5v1.75l-1.562.75-.25.75v1.812l.5 1.25 1.812.75.5-.75.563-1 1.25-2.062-.75-4.75-1.563-1.75zm62.124 3.25-1.562.5-.25 1.25v1l-.812 2.25.312 1.312 1.5.5h1.563v-.75l.25-.75.53-1.562.5-.5 1.563.25.75-.75v-1l-.25-.25-1.062-1-1.5-.5zm-38.5 1-1.5.25-.562 1-.5 1-1.562 1-.75.812-.25 1.25 1.25.5 1.812-.25.813.5 1.5.75 1.53-1-.5-1-1.03-1.812.28-.5 1.5-1.5-.25-.75zm-201.124 2.75-.25 1.5 2.812 2.062 1.813 1.25 2.03 2.75 1.063 2 1.25 2.063 1.532.75 1.812-1.563v-1l-2.062-3-1-1.75 1.25-.75.562-1.562-.562-.5-2.282-.25-3.343-1-2.313-1zm199.312 6.562-1.25.5-.312 1.25.312.813 1.5 1.25h1.813l.25 1.5-.5 1v1l.75.25 1.78.5v2.281l-.5 3.75.25 1.5 2.063-.5.5-1h1.782l1.312 1.25.5 2 .563 1.313 1.75.5.53-.25.75-.25.5-.563.25-.75.313-2.25.25-3.25.25-2.531-.75-1.75-.812-1.5-1.781-2.25-2.563-2.063-2.312-1.25-1.782.5-3.343-.25zm324.5 6.688-3.594 2-.5 1.5.75 1.312 1.282-.25 1.25-1.062 1.062.25 1.563.5 1-1 .25-1-.25-1.25-.75-.75zm-19 .5-1 .5-1.062 1.25.25.812.812 1.5 1.5.5 1.063.25 2.28-.75-.25-1-.75-.812-.53-.75-1-1zm-1.312 13.875-1 .75.5 2v2.031l-.75 2.25-1.032.75-1.562 1.25-1 1.25v1l1 .5 1.312.313 1.282-.313 2.312-2.25 1-1 1.063.5.75.5 1.03.25h.5l1.063-1.25-.312-.75-.75-1.25-.5-2.281.75-.75-.25-.5-1.281-.25-1.5-1zM1511 936.03l-.75 1.75-1.062.75-2.032.25-2.562 1-2.031-.5-2.563-1.75-1.812.5-.25 1 .5 2v1.313l-.25 1.5-.532 1.75-.75 1.75-1.062 1.75.812 2.281 1.5 1.25 1.282 1v-3l-.25-2.531 1.562.25 1.813-.75 2.03.25-.25 1.5.5 2.781.75.75.25-.5.313-1.5 1.75-.25 1.282-.75 1.312 1.25 1 1.5.5.5 1.313 1.25.78.75 2.063 1.5.25 3.063-.312 2 .312 3.5v1.03l1 .75.75.75 1.032.75.5-.75.5-.25.312-2.28.5-1.5 1-.25 1.813-.75.25-1.5.28-3-.78-1.563-1.813-1.5-1.5-1.75-1.812-1.5-1.282-3.031-.75-2.75-2.062-3.25-.75-6.063zm-9.75 20.094-.5 1-.25.563.5 1.25v1l-2.062.25-.782.5-1 1.25-1.312 1.25-1.531 1-.25 1.5 1.28.53 2.063.5.75 1v.75l-.25 2 1.282.75 1.812-.25.5 1.5.5 2.063 1.313.25.25-.5.75-2.312-.5-2 1.53-.5.5 1.25 1.813-.25.25-2.5.532-2.782-.282-2.5-1.25-2.75-1.812-1.75-1.781-1.312-1.563-.75zm11.313 9.063-.313.5v3.28l-.25 1.5-.5 5.563.5 1.5 1.313.5 1 .5.25 1v1l.78.5 1.813.25-.25 1.563-.562 1.75.312.03 3.032.47.5-1.75 1.312-1.563-.25-2.25-.812-1-1.25-1-1.032-.75v-.5l-.25-2.312v-1.25l-1-.75-1.562-1-.75-1.75v-2.25l-.781-1.532zm-16.72 8.28-.25 2.063.25 2.25.75 3.5-.25 3.563h3l-.687-1.5.25-1.563.532-1.75-.25-3-.782-2.5-1-1.062zm9.75 6.063-1.28.5-.25 1v1.063l.25.75 2.03.75.5 1h2.595l-1.032-2.25-1.25-1.563zm57.72 17.344-1.313.25-1.25.75-.562 1 1.062.813.75.5 1.313.75.5 1.5.75 1.75.28.25h2.813l1.032-.5v-1.5l-.282-.75-.75-.25-2.062-1.75-1.281-2.313zm-5.907 7.563-1.562.75-.5.5v1l.25.78 1 .25 1.562-.25 1.032-1.28-.782-1.5z" style="fill:#9faec0"/></svg>