<svg xmlns="http://www.w3.org/2000/svg" width="2975.594" height="1819.313"><path stroke="#9FAEC0" stroke-width="10" d="m2137.906 0-6.593.094-7.22 1.5-6.593 3.094-12.187 7.218-10.126 5.594-3.593 2.094-5.094 2.094-8.187 2.125-13.22 2.093-8.687 2.594-13.812 2.594-5 2.094-3.594 2.625-5.094 4.5-4.5 5.593-14 45.094-55.312-16.187-28.5 14.875-16.688 19.812 4.594 59.094-5.594-2-10.312-2.906-9.188-3-7.218-1.5-5.594.125-6.094.5-6.594 2.593-.718.5-4.375 3.094-3.125 3.094-3 3.094-6.094 8-5.5 9.718L1834.5 200l-11.594 13.813-72.593-.5-199.907-4.407-193.218-6.593-28.094-1.219-24.094-.781-148.187-5.625-142.126-5.282L961 187.313l-88.406-3.407-125.5-4.312-191.5-7.406-52.282-1.688-18.406-.594-76-2.593-43.906-1.5-112.594-4.907-43.594-2-20.406 70.907-15.219 52.5-1.937 6.718h2209.469l.875-3.843 1-3 3.593-2.594 3.626-1 4.593-.594h2l2.594-.5 2.5-1.094 1-5v-1.5l-1.594-2.093v-3.5l.5-3-1.093-2.5-2.626-3 .5-2.125-1.5-3.5-5.687-1.5-7.094-1.375-3.093-2-2.126-3-2.093-2.5v-5.625l1.906-12.094-1.5-3-2.594-1-2.593-3.5-1.5-1.5-2.626.5-6.593 6.094-3-.375-1.594-2-5.594 5-6.093 4.093-3 7.594-8.626 9.188-4 3.125-1.5 4.5.5 5.593 1.626 1.5h1.5l2-.5 2.093 3-.5 4 2.094 2 1.094 3.5-2.5 7.094-1.5 4.594-1 2-2.094-.5-2-2h-1.594l-2 1.094h-1.5l-3.093-1.5-4.126-1-2.093.5-1.5-.5-.5-3.5 1.5-3.5 7.093-2.594 2.5-1 1.126-1.094.874-6.5-4.593-3.5-4.094-1.5-6.187-1-3.5-1.406-2.626-2.594-2.593-.406-3.094-2h-2.5l-1 4v5.594l-.406 3.5-1 2.125-4.094 1.5-3.594.593h-2.5l-1 5V274l-.5 2-2 1-4.093-2.5-.626-4 .5-2.5-.5-2.094-1.593-.406-2.5-.5-2.094.5-5.5 8.094h-2.094l-2-3-.094-3-.5-2-1-2.5-3.125-2v-1.5l1-2.594-.593-4-1.5-4.5-2.594-3.5-.594-2.094 1-3 1.5-4.593 6.594-4.125 5.187 2.5 4.625 4 4.094 1 3.094 1.5 3.594 1.5 3.093 2.5 5.125 1.906 1.5-2-5.218-7.5-1.5-2.5-2.094-2.5-3.094-4.094-5.719-3.406-6.593-1.5-5.594-1.5-3.594-.906-4.094-1.5-3.625-2-5.687-.5-4.5 2.125-4.094 1-1.594-.407-1-1 1-3.093 2-2.5.5-1 2.094-2.125-5.219-4.5-5.093-.875H2223l-.5.5-3.594 2.593-4 1.5-3.094-.5-2.125-1.5.5-4 2.5-1.5 2.625-2.093.5-4-.125-3.625-1.5-4-.094-1.5v-1.5l-.5-5.594 3.5-3.5.5-5.094-1.093-7-1.094-5.094-.5-1.5h1l3.094-1 4.093 3.5 5.22 9.5 1.593 7.094 2.094 9 5.187 9.594.5.5 4.219 5 1 4 2.094 1 2.5 1.5h3.593l2-1.594 1-2.5v-1.5l-.5-2-.593-5.594-6.188-11.5-4.719-10.093-3.593-11.125-5.813-15.594L2228 129l-3.688-12.594-1.125-6-1.094-4.593-1-5.5-.593-8.125-.094-6.594-1.094-7-6.125.5-1.375 16.719.594 3-3.094-.407-4.625-1-2.094.5-4.5 1.094-7.187-2-6.22-3-4.593-5-4.094-3-12.812-4.906-6.188-3-2.593-3.5-2.094-4.5 1.5-2.594 4.594-.5 6.187 2 8.219 7 1.094 1 7.093-.094 8.688-3.093 5.625-3.625 7.094.5 3.593-.094 4.094 1.5 4.094-2.094h3.5l-1.094-8.594-1.094-15.094-.593-11.125-.094-7.093-1.625-12.5-1.594-.094-7.594 3.093-6.594 4.094-6.593 3.625-3.125 1.5-2.5-.406-7.688-4.5-8.812-6.5-7.688-7-4.594-3-5.218-2.5-6.094-2.5zm124.782 241.813-2.094 1.593.094 3 1 2.5 1.625 1.5 3.093 2.5 3.5 1 4.094-2.093.5-2.5-1.594-3-4.593-2.5-2.625-1.5z" style="fill:#9faec0" transform="translate(0 125)"/><path stroke="#9FAEC0" stroke-width="10" d="m171.25 289.031-9.937 34.657-25.125 88.125-2.375 8-21.22 74.687-14.28 49.406L88 579.031h1945.469l.03-.03.063.03h37.937l-1.312-3.343-2.594-4.5-3.094-5.094 1.5-5h4.094l4.094 2.406-.375 7.594 2 2 3.593 2.5 4.094 1 6.188-1.594h2.5l2.125 3-.375 1.031h8.375l-.313-1.125-7.812-12.5-.594-5.093 3.594-4-3.594-2.5-3.094-2.5-6.187-2.5-2-2-.125-6-2.594-4.625v-8l5.5-9.188 5.594-7.094 7.625-10.094 6.5-7.718 3.093-2 2.5-1.594 5.188 2 2.094 7.094.625 9.094 3.593 13.5 4.688.5 5.5-3.094 9.812 3.5 6.594-.094 2.594-3.5-3.094-5-2.594-3.094-8.218-1.906-3.594-1.5-3.094-.5-2.094-4-3.093-4v-9.094l.875-4.5 2-8.093 5.125-7.125 7.593-1.094 8.688 3.406 6.719 2.5 3.093-2.5 1.5-2.594 2.5-2 5.5-12.218 5.094-2.594 4.594-3 5.094-4.094 3-3.094 5.625-2 9.187.907 4.594-4.625 1.906-13.594-5.094-.5-9.593 12.219h-2.5l2.875-10.125 3.5-14.688-5.594-.906-8.688-1.5-3.093 6.593-3.5 4.625-3.5 6.594-2 3-6.72 1.094.407-12.594-3.094-7.594 3.5-2.5 11.688-10.218.5-5.594-3.594-1.5-9.094 7.688-2.093-4-3.625-2.5-3.594-3-5.688-2-8.218-3.875-8.188-1.5 1-4.5 3-3.125 13.906 3.406L2158 375.5l3.094 6.094 6.719 1.906 7.593-5.594 7.188.5 4.094.407 5.125-4.625 14.28-1.094 9.72-2.094 15.187-8.187 11.813-2.625 5.593-2.594 4.094 5.5 2 .5 4.094-3.094 8.094-8.094 3.625-3.093 5.593-2.625 8.094-2.094 4.594 2.5 3.719 4 1.5 1 5.093-3.594 3-3 5.094.406 4.094-2.5 3.594-1.093 3.5-4 2.5-3.125 2.125-2 3.5-3.594 2.875-15.688 5.125-5.093 2.593-2 7.094-.125 5.688 2-.5 2.5.5 2.625-.5 1.5-1 2 1.5 1.5 1.125 1.5v1.5l-1 1.593-2.625 1-2 3.5-1 3.594-1 2 .625 3 2.5 2 4.593-1.5 4.094-5.594-.094-4.093 1-2.5 4.594-2.125 1.5-1 2.594-3 2-3.094 2.5-4.5 2.5-3.594.5-4.594-1.094-6.5 2.5-2 3.094-2.593 4.093-2.625.031-.157z" style="fill:#9faec0" transform="translate(0 100)"/><path stroke="#9FAEC0" stroke-width="10" d="m88 579.031-7.687 26.157-20.126 68.625L23 801.093l-17.875 67.97h2356.219l-13.532-14.75-9.406-16.5-9.812-19.625-7.282-10-1-3.094-1.624-2.5h-2l-2.094 1.093 4.218 11.5.095 6.125-6.72-1-2.093-6.5-1.094-6.5-1.5-3.125-5.687-1.875-5.125 2-3.594-1.406 5.094-5.593 4.125.375 6.593.5 1.594-3.094-2.187-15.094-.625-6.5 1-5.094.5-2.5 1-2.593-1.094-3-1-1-4.094 2.593h-3l.406-5 3-5.593-8.718-4.5-13.875-12.5-9.313-12-2.687-13.125-4.125-6.5-3.594 1.5-.5 7.625-3.5 2.593-3.094 1-3.5 2-1.906 6-4.188 1.188-1.593-11.594-3.22-13.594-9.78-5L2218 689.5l-2.594-.5-12.812-2.406-9.188-5-2.093-1-10.313-11.5-6.812-12.594-4.094-10 .406-5.594-7.687.094-14.22 2.687-10.186 3.625v3.5l4.593 1.5 4.594 2 7.719-2.625 7.593 1.407 3.188 6.5 3.094 9.093.625 5.625-1 4.5 5.593.5 2.594.875 4.094 4.5 4.719 4 1 7.125-.907 4-3.093.594-3.125 2-2.5.594-2.594-3.094-3.094-.406-2 1.5 2.094 6.5-3.094 1.594-4 1-4.094.093-3.093-3.5 2.375-11.187-2.5-1-8.188.594-11.187 11.218-3 7.094 2.093 5.5 1.594 1-1 4.094-2.594 1.5-4 2.594-1.593-.5-3.625-4-2.594-4.5L2122 714l4.094-7.094-2.594-3.5-7.094 4.594-5.593 4.094-3.625 1.5-1.5 4.593 2.125 6.5 1.593 3.625-3.593 3-2.5-2-2.125-4-1.094-1.5-4.594-1.5-.5-3-.094-4.5 2.094-2.625.5-3 4-.5 3.094-2.593 3.5-5.094 1.5-3.5 4.093-4.594v-3l.907-6.594-4.594-1.5-9.188 4.688-5 5-4.125.594-11.28-.407-6.22-4.5-3.593-5-7.188-5-5.594-5-1.625-3 1-4.593 7.625-2.094 3.594-3.5 3-4.094 4.594-3.594v-3.5l-8.188-.406-9.718 5.094-4.094 3.094-4.594-1.5-3.094-1.5-2 2.5-2.906 14.718-5.719-4-1.593-11.625-.094-5 8.593-11.687-7.687-3-.5-3v-3l6.594-3.094h5.093l2-3.094 4.594-3.125 6.625-2-.5-7.593-3.625-2-11.281-7.5-3.719-4-10.094 6.718-4.093-1 2.5-7.125 3.5-3.5-.594-9.593 2.062-2.563zm1945.563 0 17.843 7.969 12.407 10.406 3.093 1.5 1.5-.5 2-1 2.594-2.593 3 .5 4.094-3 1-4.125-2.094-3h-3.594l-2.5-2.5-1.406-3.657zm60.374 0-1.624 4.563v3l1.593 2 2.5 2.5 12.407 11.5 2.093-2.5-5.812-11.094-2.782-9.969zm9.47 47.875-5.095 2-4.624 4.594-3 5.094-1 4.5.624 3.593 1.5 2.5 2.594 1 4.594-1.093 3-4 1-1.594V638l1.5-2.5 2-3.094.5-2-.5-2.5zm25.28 22.5-1.093.5-1 1.5-1.5 4.094-3.5 2.5-4.594 3.094-2.5 2.5.5 2.5 1.5 1.5 2.594 1 3.093 1.5 2.5.5 1.626-1 .5-1.5-.126-2.594 1-3 2.126-2.5 2-2.094 1.5-2.5v-2.5l-2.626-3z" style="fill:#9faec0" transform="translate(0 75)"/><path stroke="#9FAEC0" stroke-width="10" d="M5.125 869.063 0 888.5l4.813 24.594 3.093 15.718h6.688l102.812 1.5 26.094 1.594 1 .094 16.406.594 21.406 1.093 5.188.22 121.594 6 66 3.78h2.312l2.781.125 6.407.188L413 945.187l33 1.407 24 .906 33.813.312 69 .782-1.22 23.718-1.187 20.5L611.5 986l4.406-21.188 3.188-2.812 2-3.094.593-3-.687-5.219 41.094-.78 22.812 2.28 33.282 4.125 25.218 1.094 1.907 6.094h2.593l16 .594 9.594-5.907 38.813-5.28 14 .28 29 .625 13 .188h9.187l81.688 2.187 33.718 1.125 12.282-.125 50.718.72 79.282.405.5.094 27.718 1.281 17.282.907 65-.5 22.124 1.406 5.5.406 21.594 1 48 1 71.688 1.5 1 16.594 107.5-4.313 90.5-4 18.406-.78 31.813-1.313 59.28-2.5 38.907-.782-.406 37.782-.5 47L1761 1110l36.312-7.813 1.094 5-1 3-1 4.125.5 5.5 2.187 10.094 1 6 1.594 7.594.625 4-.5 4.094-1.5 4.5-1 3h664.875l1.907-3.688 2.906-10.094 3.094-7.125-4.688-10 .406-12.593.375-13.094-3.687-5.094-5.688-6.5-2.625-4.5-2.593-8v-6.094l6.593-2.625.407-9.5h-6.094l-6.688-3.5-7.219-4.875-4.093-5-7.813-4.5-8.187-4-4.094-.406-3.094.5-4.5 1.5-4.125 5.094-4.094 1.594H2393l-2.594-1.407-1.594-1-3.125-5.093-2.594-5-5.187-10.5-3.094-7.094-3.719-6.5-3.093-4.5-2-1.5-2 3.094 3.093 5.5 3.594 6.5 2.625 5.5-1 4.093-1 3-1.5 2.5-4.625-.375-6.687-6-5.188-5.5-3.625-8.125-4.687-6-6.094-5-10.906-6.875-1.5-7.625-4.688-6-4.625-2.5-.594-5.5 10.72-6.187 6.093-4.094 2.594 2.5 3.593 6.594 3.094 2.5 2.125.5 1.5-.594 5.094-4.594 1-3.5-1.094-5-7.219-4 3-5.625 2-4 1-2.593 1-4 1-4.594 3-4.5 7.22-1.094-1.126-4-3.594-1-5.093-3.5-2.594-.5-2-.5-1.594-3 1-3 2.5-3.094 9.688-2.625 2.093 6.125 2.594 4 1.625 3.5 4.688 6 3.593 7.594 8.313 11.5 7.281 11 1.625 8.594-2.625 3-5.594 4.094-3.5 3.593-1.5 1-1 2-.5 2.625 1 3.5 3.094.5 5.125-3.125 2.5-6.093 5.094-3.594 6.094-3.094 6.187 4.5 4-1 .5-3-8.187-9.594-3.688-5-10.312-13.5-13-19.125-4.094-9-2.719-8-1-4.593-.094-4 1.5-3.594 3.594-1.5 1.5-1-.094-12.094-4.594-6-7.656-8.344zM2741.5 884.5l-8.687.594-12.813 1.593-7.187 2.625-7.626 4.594-3 4.594-1 4.5-.5 4.094 2.626 1.5 5.093-4.094 2.5.5.594 2.5-2 2.5 1.5 2.5 3.094 3 3.094 2.5 3.124 4.5 3.094 3.5 3.094 7.094 5.188 8.5 8.312 9.5 6.688.406 9.218-1.594 9.094-7.593 1-5.625-4.594.625-7.593 5.593-5.72 1.594-5.093.5-2-2.5-3.187-4.5 1.093-2 1-1.594 2.5-1.5 4.594-5.593 3-6.625 4.5-4.594 7.188-4.094 6.124-2 7.094.406 6.188 1.407 7.719 2.5 4.593 2.5 7.188 4.875 7.219 3.5 7.187 5 6.813 7 6.187 8 4.188 12.125 4.124 9 1.688 10.093 1.594 11.094 1.094 9.5.624 8.594.095 9.093-.407 12.125.094 10.594.594 8.094.625 5.5 1.094 13.094.5 5 1.187 9.094v9.624l.094 8.094 1.125 6 2.094 4 3.094 3 4.594-.5 1-4.093-1.094-3-2.594-4.5-1.594-9.626 3.5-3v-7.593l-.125-6.094-1.593-9.5 1-1 7.093-7.187 5.625-3.126 4.594 1 3.094 1 2.094 2 1 2 .593 4 2 1.5 1.625 4 2.094 3 3.094 3.5 1.5 1h4.094l6.718-1.093 4.5-3.594 5.188 3.5-5.594 3.594.5 5 .594 4.094-5.094 1-3.094-3.5-3.625.624-3.093.5-1.5 1-1 1.594 1.093 3.5 2.5 2 3.125 1.5 3.594-.593 3.094-.5 3 2 2.094 2.5-5 6.593-1.594 2.5.594 3.5-.5 4.594.094 4 1.625 6.594 1.593 8 3.188 13.594-.813 13.906h32.407l-.282-1.094 3.5-6.094 3.094-1.5 3-1.593 2.594 2.5 3.594 1 1.125 3 .78 3.78h6.313l-1-5.405-3.718-12-6.782-19.594-5.406-22.688-6.906-24.093-9.406-21.626-4.188-13.093-9.906-21.594-13-25.594-12.5-22.093-11.5-19-10.281-13.5-9.813-11-11.906-10.5-14.906-9.5-17-8.407-22.094-7.312-27.094-7.281-12.312.093-10.188-.406z" style="fill:#9faec0" transform="translate(0 50)"/><path stroke="#9FAEC0" stroke-width="10" d="m1799.313 1159.094-1.5 4.594-.5 2 .5 2 .593 2.124 1 2.5v2.5l-1.5 3-1.5 2.594-2.5 4v3.5l-.5 4.094 1.594 5 1.594 4v10.594l1.093 3 1.5 2 2.626 3.094 2.593 3 1.094 3.5 1 3 1.594 3 1 2 6.593 3.718 28.313 15.907 19.094 10.687 28.5 40.094.406-3.5 3.594-1 4.218 8.5 1.594 4.5 2.5 1.5 4.594-2 1-5.094 3-3.5 1.594-.5 1 6 2.093 6.5h2.626l7.593-5.094 10.688-5.093 4.594-10.72 2.5-5.5 7.125-5.593 8.093-6.094 1.5-5.593 1.5-11.126 2.5-8.593 4.5-5.594 4.094-6.094 1.906-8.093-.5-9.5-3.218-7.626-.5-3 2-4.593 3-4.5 1-7.594 3.5-7.594 1.125 10.094-.907 11.594 2.594 2 2.594 7 2.5-1 2.594-3v3l.625 9.094-1 7-12.125 16.812-9.688 9.094-1.906 10.594v4.624l-1 7.5-2.5 5.094-10.094 15.688-14.687 17.312-9.22 7.594-7.593 8.188-6.594 7.124-.5 1.5 2.594 4 16.406 3.876-.406 3 36.406 9.312 1.094 8.094-3 13.094.5 3.5 1.094 2.5v5.124l-1.5 3-1.5 2.094-1.5 2.5-1 2.5-.5 3.5-.5 3.594-.5 4.5.594 4.594 1 3.5 2.625 4.5 4.687 5.5 1.219 11.5h46.812l1.563-9.906 1-4.5 2.094-3.094 2.5 2.5 1.625 6.094-.907 7.5-.281 1.406H2115l-2.187-2.094-1.126-8 2.126-.594 1.5-5 3.5-2.593 5.687 7.5 5.188 9.593 1.25 1.188h6.718l.75-6.281 3.5-7.626-1.593-13.593 3.5-7.594 5.093 1.906 5.688 12.094 2.718 9 8.188-1-2.187-15.094-10.907-15.093-6.218-13.5-1.688-9.126 1-9.593 1.406-10.594 7.094-11.094 1.094 12.094.593 7.5 2.126 5 3.093 7.594.094 6.5 5.188 10.594 8.719-1.594 8.187-.094 5.094 6 .625 9.094 3.687 7.5 1.594 7.093 3.094 9 2.625 8.125 2.219 2.782h2.906l2.562-10.5.407-6.5-.594-8.094-1.625-7.5-1.594-8.094-10.187-4.906-1.094-6.094 6.094-3.594 5.093 1.5 5.188 2.5 2.5 1 5.719 1.875 4.093.5 4.094-2.093 3-2 1-3.5 5.094-1.094 1.625 4 4.594 4 6.093-2.094 2.594-3.5-.094-4.5-6.687-8-7.22-1.5-10.78-8.5 5.093-4.594 3.5-3.5 10.282 1.875 6.718 5 8.688-1.093 6.093 1 3.72 5.5 2.593 4.5 2 1.5 4.594-2.094v-5.5l5-6.094-.594-15.094-3.187-11.125 4.593-1.5 7.188 5.907 3.093-2-3.593-6-1.594-4.594-2.594-4.5-2.218-12.094-5.188-12.5 2.594-3.094 9.812 9.5 4.594 1.5 6.188 7 1 2-6.094-.906-.5 2 4.093 5.5 4.626 2 4.687 4 4.094 4.5 3.093.906 1-5-2.093-7 1.5-2.625-1.094-3-6.094-3.5-1.593-8 6.093.407 4.594-2.5-.594-3.094-3.093-4-3.626-2.406-4.093-6.594-4.094-4-4.187-6.5 1-2.5 8.28 6 3.5 1.906 1.595-2.5-2.094-3-3.594-6.5 3-1.094 6.094-3.5 3.593-2.125 1.5-2 2-1.5 2.126 1.407-1.5 4.593-1.5 7.125 1.093 2.5 5.594 2.5 7.188 3.875 6.218-1.5 5.094-2.093 2.5 1 1.594 2.5 2.093 3.5 2 2.5 2.126 2 6.093 1.5.594 3.5-4.594 4.593-5 7.625-4.093 7.094-2.5 3 4.093 2.5 4.594-5.094 5-6.625 7.094-8.593 2-5.094.5-5-2.094-5.094-3.094-8.5-.094-4 5.094-2.594 5.688 1.5 6.093-2.125.5-.593 4.625-2 3.594-2 2.5-.594 1.094 1.5.5 2.094-5.594 7.593-1.5 4-5.594 4.625-3 5.594 3.594 2.5 3.594.406 6.094-5.125-.5 5.625 2.718 15.094-6.625 2.594-14.28 5.187-10.095 10.125-.5 6.094 1.5 1.5 9.188-2.094 3.594-3.625 2.5-4.5 5.093-2.093 5.22 3 2.593 9 3.594 5-3.5 4.093-5.594 2.125-11.813-1.406-6.187 1.5-2.5 3.094 3.094 4 5.218 3.5 6.094-1.594 5.094 1.5 4.094 3-1.5 3.5-17.282 8.188-.406 6.093 2.594 5 4.094 10.625-1 4-2.907 10.094-1.593 2.5-1 3.094 3.718 6-1.5 10.594.094 5 2.094 7.093 2.094 4 .094.407h97.156l1.563-1.782 2.562 1.782h52.906l.813-1.282-4.188-10.125 8.688-2.093 9.625-15.688 3.5-6.094 2-4-.125-9.625 7.125-6.593L2571 1387l2.5-4.594 3.5-3.594 5.688.5 3.125 4 .5 4.5.593 3v4.094l1.594 1.5 1.594 6.5-1.094 2-3.5 5.094.5 2.5 9.188-1.594 11.312-6.094 7-11.218 4.594-8.594 10.719-3.094 10.687 1.406 10.906 9 1.5-1.125 7.094-1 10.188-8.187 10.812-1.094 4.094 2.5 3-.094 1-3.5-2.594-4.5 5.094-6.125 9.219.406 12.375 6.407.5 6.093-5.594 2.594-6.094 2-1.5 3.125h-3.594l-3.593-1-1.407 8.594L2692 1406l2.5 2.5 2.594-.5 6.094-5.094.906-7.594 15.313-11.312 20.406-10.188 6.593-3.125 4.594-6.094 3 1 4.594-1.593 7.719-.594 13.281-3.094 16.406 2.281 14.813-6.687 16.781-5.219 13.813-4.094 12.28-1.687 7.126 1 9.187-3.594 14.313-2.219 13.281-3.187 9.719-2.094 8.781 5 5.594 5.5 3.125 1.5 3.093 1.875 2.5-5-3.593-4 5.093 1.406 5.688-2 8.094-4.687 1.625 3.594-6.125 10.593 5.718 3 8.5-16.187 3-10.219-4.218-13-.094-10.594-.594-5.093-5.594-2.907-3.594 2-4.124 3.094h-4.594l-2-1.5-4.094-2.375-.094-4.125 4.094-5.594-1.094-2-4.594.594-2.5 2-6.625 4.125-1.594-3-1.093-6 2.5-7.125 3-9.094 6.093-3.093 8.72-.094 1.5-2-1.126-9.094 1.5-2.5-1.5-3.5 6.125-4.125-1.125-5.094-5.687-6.5-1.594-3.5 2.594-2 5.093 1.906 4.72 5.5 2.5-2.5 3-5.093 4.093-1.5 3.188 9.5 2.093 8.593 1.625 4.5 1 2 1.688 17.594 1.687 16.219 2.219 14.094.094 6.5-2.094 2.593.094 3.5-1 4.5-.406 9.594-.5 9.594-5.5 8.125-6.5 17.687 3.094 5.094 8.125-12.687 4.5-9.094 4.375-17.219 1.406-19.187-.687-19.72-2.813-23.093-2.281-26.781-1.219-18.625-1.094-16.094-2.094-3 .5-4.594-8.718-.406-4.094 6.594H2950l-2.594-7-1.5-4-10.718 10.719-6.594 7.093-4.094 2.094-.5-6.094 6-12.687 4.594-5.625 1-1 3.5-2.5 2-5.094-1.594-7-1.812-7h-32.407l-.093 1.719 1.624 11.594.188 13.687-4.094 5-7.094 8.219-5 7.094-12.312 6.187-9.094 5.594-27.094 9.812-11.218 3.688-10.188 5.125-5.094.594-3.5 1-3.624 4.593-3.594-2-4.094-1.5-7.687 1.094-7.126 9.219-2-3.5-5.187-2.5-18.812 7.187-6.188-.906-24.5 10.813-12.687 8.187-4 6.594 2.093 3.5-3.594 3.125-5.624 1.5-2.5 3.594-5.094 5.093-1 5.5-3.594.094-1.5-4.093-2.594-.407-4.594 1-8.718 3.094-6.594-.375-7.187.594-9.72-.5-16.905-.813-10.282-1.906-5.094-3.5-2.624-6.5 3.5-1.594 5.718 1 7.094-.593 6.188-2.094 6.624-1.594 7.188 2 4.094 4 5.093-1.625 3.626 1.5 3.093-2.5 3-1.094 5.188 2 4.593-1.093-1.593-4-7.188-4.5-7.219-2.907-14.874-1.406-29.72-.187-26.593-1.813-39-10.687-40.594-16.313-10.312-8.5-5.094-4.375-12.406-12-14.407-10-12.374-13.5-3.72-11.625.907-11.094 5.688-11zm1155.78 0 1.313 6.312 2.188 14.094 1 3 3.594-.5 1.5-4.594-1.594-9.093-1.688-9.22zM2953.5 1237l-1.5 5.094-2 4 .5 2.094 3.094 1.906 2.094 1h2l1-2.5v-3l-.594-4.094-1-2-1.594-2-1-.5zm-.687 38.406-2 1-3.126 1h-1l-1 2.094.5 2 2.126 2 2 .5 2.093 1 1.5-.594.5-1 .5-4.5v-2zm-13.5 86.282-2.5 2.124-.5 5-1 3.094-.5 5.5.593 4-.5 2.594-3 2.5-3.593 2.594.593 5.5 1.5 5-6.093 4.594-3.5 2.124 1.093 6 1.094 8.594-.406 15.094-2 9.594-1.313 3.5h10.688l4.219-28.781 5-16.72 2.906-15.687.5-6.5 1.406-5.093 1-7.626-.5-2.5-.594-2zm-364.22 33.812-.5.5-4 .5-3.093 2.594-.5 2v2.5l-.5 2.594.594 3 1 4.5 1.594.5 2.5.5 3.624-1.094 1.5-1.5 1.5-3.5-1-3.594-1.124-3.5.5-3.5-.5-2zm-355 24.906-2.905 19.094.5 2.594 4.718 3.5 8.188.406 3.5-.5 2.094.406 2-2.5-10.282-14-.593-7.093zM2119 1448.5l-2.125.594h3.563z" style="fill:#9faec0" transform="translate(0 25)"/><path stroke="#9FAEC0" stroke-width="10" d="m1973.719 1449.094 7.687 73.094 1.688 19.718.5 5.5 3.593-1 5.626-4.093 3.593-1 3.094 2 4-.626 2.094-4-2.094-6.093-1.594-5v-3l-.094-2-3.125-5.094-8.78-11-4.595-9.5 1.375-5.094 5.72.5 6.687 8.5 4.093 4.5 4.125-1 3.688 11 5.594 2 8.812.407 3.5-6.626-1.594-6 1-8.093-.125-5.5-2.093-6-5.188-8.094-2.094-5.5-1-6 2.375-14.687.344-2.22zm54.406 0-1.719 8.219-1.5 4.593-.5 6L2025 1472l3.594 6.5 5.718 4 3.594 2.5 3.094 9 .594 2 2.718 18.594 2.094 8.594v3l-2 1-5.218-.876h-1.5l-2.5 3-5.188-1.406-6.094.5-5.093 2.594-4.126 4.094 5.72.906 12.78 2.406 6.72 1.5 6.187 7 1.094 10.094 2.125 4.5 2 1.5 3.093-2.594 1-6-.593-3 .5-3.093 1-5.5 10.687-5.22 4-6.5 10.813-1.593 12.28 2.406 3-1.093.5-2.5-.5-4 1-3.626 1-4.5 1.5-3-1.593-4.593-1.594-4-3.593-2 1.5-9.594 7.687 6 4.094-3.5 3.093 2.5-.5 4 2.126 4.5 4.093 2.5 1.594 2.5 1.5 2 .594 6 .5 6.094 2.093 1 3-4.594-1-3.5v-2l.5-2-1.093-4.594 2.5-2 .5-2.5 2.5-7.093 4.093-2.126 5.626 1 2.593 1 1.5-1-2.093-6.593-2.126-6-3.093-5-1.594-4.5 1-4.594-10.312-15.5-2.094-5-2.157-.906h-3.562l-1.469.406-.406-.406zm102.813 0 3.968 3.812 2.5-1.593.25-2.22zm71.093 0 .969 1.219 1.5.5.438-1.72zm178.657 0 .906 4.594-8.594 9.218-1.906 9.594-2.5 11.094-2.5 7.594-4.594 3.5-14.187 8.218-4.626 5.594 2.126 6.594 2.593 1.406 3.5-5.5 5.594-.594 3.594 4 5.218 2.5 4.594 3.5 3.094-4.093 6-9.126 12.688-12.187 15.312-7.687 7.188 2.374 7.218-.5 6.094-2.093.406-11.594.5-6.594 2.5-5.5 1.5-.593 3.094 4.593-.906 8 1 7.094 1.093 2h3.626l14.28-2.187 8.72-3.126 9.187.907v-1.5l-.094-8.594 3.406-18.594 2.032-2.312zm101.28 0 1.032.719 3.688 17.593.624 5-5.624 5.594 1.5 2.5 5.718-1h2.5l2.094-.594h8.188l5-2.593 2.624-1.5 7.094-4.126 5.094-4.593 7.594-7.688 5.781-9.312zm437.313 0-1.187 3.094-4 7.124-6.094 7.094-3 4.094-.5 2.5 2.094 1.5 2 1.5 1.594.5 1.5.5 6.624-.594 8.688-7.093 2.969-20.22zm-593.875 69.219L2314.188 1532l-6.094 3.094-5.594-1-5.594 3.094-4.593 3.5-4.626 7.124-5.093 2.594-3 2-5.094 3.594-6.094 6.094h-1.5l-3.593.594-2.626 2-2 5.624-5.593 2-4 4.094-2 5.594-2.5 8.094 2.593 6.5 8.72 1.406 8.187-5.094 4.5-5.093 8.218-3.126 6.094-2.5 3-5.093V1571l-2.593-5.5 4.593-1.5 2-.094 5.594-2 5.094-6.094 6.093-3.125 7.72-3.593 6.093.5 20.906-17.907-3.218-7.5-7.688-4zm91.407 40.5-10.22 1.593-11.687 9.688 1.594 7 2.688 8.094-3.594 2.5-7.188-8-3.093-2.5-15.907 4.218-6.593 5.594-3.5 9.094-9.72 5.094-6.093 3.124-6.094 6.094-6.093 8.594-5.5 14.688-5.5 13.718-11.22 4.594-3 7.094-2.5 7.094-4.093 6-8.094 11.718-5 9.094-2.5 4.594v5.5l.094 7.594.594 8.624-2 5.5-.5 3.5-4.094 2.094-2.593-1.5-1.5-2-3.094.5-3.625-.406-3.094-5.5 2-5.594 3.594-3.093 6.625-1.5-.5-6.126-34.406-4.687-4.594.5-7.219.594-5.094.5-2.5 2.094-2 4.5 6.188 9.624 12.406 16.5 10.906 11.5 5.594 3 7.219 4.876 8.781 5.5 4.594 1.5 3.125-.095 2.5-2.5 2.5-11.593 3-9.094 4.5-5.094 5.594-5.625 8.687-5.093 59.813-10.094 27.093-2.313 37.907-4.375 20.5-.625 8.187-.094 6.594.906 9.312.5 10.188-.593 7.719 2.406 6.593-.625 7.688-.5 5.625-.094 6.187-2.094-.593-4-16.907-2.906-2.593-1.406-2-2-2.594-3-1.625-7.594 1-5-2.188-8.594-4.093-8.5.406-4.094 1.5-3 2.594-4-.095-6.593-11.312-2.907-11.812-7.5-4.688-3.5-1.5 1.594 2.094 5-7.094 2.594-7.187-3-1.126-6-.5-4.094-4.687-1.406.406-12.094 4.594-.594 4.688 10.594 4.718 2.406 3.594-.5-2.687-5.5-2.126-8.093 1-11.625-1.093-6.5-1.594-5-1.594-3-3.093-4.5-3.72-10.594-4.593-.5-12.187 9.219-3 5.593 4.187 9.5-2.5 4.094-5.094 3.594-4.093 8.094-4 5-3.626.625v-5.625l1.407-8 1.5-5.594 2.5-3.594-.5-3 .406-11.594 3-13.093zm-192.72 29.874-6.187.126h-3.5l-2.593 2 1.593 7.593 5.188 5 4.593 1 3.126.407 7.093-1 4.594-3.626 1-4.593-2.594-4.5-6.718-1.406zm-22 8.813-10.093 8.094-7.187 5.594-7.126 3.624-11.28-.906-4.095.594-2 3.5 1.094 7.094 2.594 2.5 5.594-1.094h4.593l9.22.406 9.78-1.093 7.626-2.626 3.593-4.593 1.5-4.5-2.093-4 .374-6.594-.5-4.5zm-57.687 19.094-5 6.094-5.093 3.124-6.72 3.594-3.5 2-1 3.594.5 2 3.595 4 12.312-3.187 5.094-4 3-4.126 3.093-1 2.5-2.593-3.593-.906-6.094-1 .5-2.5 2.5-3.094zm396.407 4.094-6.72 1.5-5.593 3.624-3 4.094-2 5v5.594l1.594 5.5 1.094 1 1.5-.5.5-2-.594-4.594v-5l3-6.093 5.094-3 2.124.874 1.5 3.626 1.594 2-1.5 3.5 1.5 2 3.094 2 .594 8-.906 16.187-2 2-3.094.094-6.188-2-3.593-4.5v-4.5l3-3.594 3.093-5.093 3.5-2.5-.5-.5h-2.593l-3 1.5-3.126 4.093-5 3.094-6.687 5.594-3 4-4.094 2.625-3.593.5-8.22-4.406h-1.5l-.5 1 4.095 7.5 1.124 9.593 2.688 5.5 5.094 2.5 15.406 2.407 7.188 11h-5.094l1.594 4.093 5.124.407 3.594-2 7.688-.094 2-3.126.5-1 .5-3.5-1.688-12.093 2.282-34.781-.594-9.626-2.188-11.5-2-4.5zm338.093 21-1 4.5v1.5l-.5 1 4.688 7.5 10.812 8.5.5.5 2.688 7 .094 11.624-2 8.594-4 11.188-6 8.594-3.594 6.124-7.594 10.094-6.593 8.094-4 5.094-5.594 5.094-4.125 2.624-3.5 2.5 3.125 3.5 3.594 2 5.593-2.624 10.094-12.188 8.219-7.094 5-4.093 2.594-3 4-3.626 2.593-2.5 1.5-3.093.407-6.5 1-2.594 4.593-3.5 4.594-1.594 5.719 3 3.594 6 3.093 5.5-1 5.594-6.593 4.594-7.094 2-3.125 1.594-3 1-.5 3.124 3.625 6 1.094 3-.5 1.5h-3.094l-4.625-1.906-2.094-1-2-1-2.094 2-3 3.094-3.593 4.5-4.5 2.094-5.22 1.594-4.593 1.5-4 3.624-4.094 6.594-7.093 4.594-2.5-.5-2.094-2-2.125-1-1-1.5-1-2-1.094-3.5-2.094-3.5-2.593-4-2.094-2.5-5.625 1.594-6.594.5-6.687.594-8.72-.376-6.093 2-12.781.188-8.219-.5-10.187.094-6.22-.406-8.187.125-4.093 1-2 1-.5 2.594 4.093 4.5 5.188 2.906 2.625 3.5-.5 1.594v1.5l-1 1-3.625.5-3.594 1.593-2 1h-3.594l-2.093 1.094 1.093 3 4.094 2 5.219 2.906 10.781 4 7.219 3.407 6.094 2.5 7.687 3.406 8.813 4 8.687 1.875 6.219 1.5 8.187 2.906 10.813 3.406 8.187 1.5 11.188-5.187 11.812-.625 8.688-.094 7.719 1 10.687.906 9.813 1.906 9.187 1.907 8.719.374 10.687-3.093 3.094-2 3.594-2.594 6.125-2.594 8.094-3.093 5.593-4.126 3.594-5.593 3-9.094.406-8.5-6.312-16.594-3.594-6.5-5.781-11.093-6.219-9.5-5.187-10.5-4.72-12.126-4.78-11-3.594-7.5-5.219-10.593-3.687-7.5-3.594-7.5-5.719-6.5-4.687-5-1.5-1.5-6.22-6-4.687-4.5zm-207.812 68.5-8.688 1.624-3 1-1.593 2 .593 2.594 1 4 9.782 5.407 4.624-.5-1.624-4 1.624-2.626 3 1 2.594-1.5 3-2.593 2.594-4-9.312-2-2-.406zm36.094 29.406-5.594 1.594-7.688-1-4.093 3.124 4.687 4.5 4.594 3 1.094 4 5.718 5 8.688 1.376 9.719 1.906 2.5-5-.5-5.594-.626-4.5-6.187-4.5zm-461.376 63.219-3.5 2-4.124 2.593-8.188.5-1 1.094-1 3 .5 2.5 4.188 3.5 4.124 1 4.094-.094 6.094-1.5 2.594 1.5 1.5-.094 3.593.5 1-2-.5-2-4.187-5-1-1.5-2.094-2.5-1-2-1.093-1.5z" style="fill:#9faec0"/></svg>