<svg xmlns="http://www.w3.org/2000/svg" width="6256" height="7325.313"><path stroke="#9FAEC0" stroke-width="10" d="m1672.688 0-7.094 2.906L1658 5.313l-4.094 4.5-2.219 6.093 4.626-3.5 4.093-2.406 1.5-.5L1666 6l4.094.094zM1603 51.688l-11.812 6.406-2.5 1.5-1.094 1-1 .5-13.281 8.406-13.313 9-7.187 5.906-6.626 4-8.687 4.407-1.5-2.125 5.688-4.5 4.124-4 2.094-2.5 3.094-5 10.094-1.375 8.219-5.407-3.5-1.593-.907-1.125 1.5-1.5 10.688-3.782 1.5-1.5-1.407-1.593-3.093-.125-11.594 3.906-7.688 4.906-3.125 3.5-3.187 5.094-6.094 5-6.219 5.5-5.593.906-4.594 2.406h-.5l-.5-1 1.094-2.593-1-2-.407-1.625 5.125-2.875v-2.125l-1.5-.5-5.125 3.406-4.593 3-2 1-4.094 3.5-.594 1.5-2.594 5.594-5.218 5.5-13.188 3.312v-1l10.188-6 .094-1-2.5-.5-23.875 7.594-4.625 2-9.594 1.312-4.5.407-5.594 1.375-8.187 3.406-9.125 2.906v-1.594l6.218-4.5L1446 103l11.313-5.906 2.5-1.5-4-1.094-28.125 15.813-1 2 .406 1 2.5 1.093.5 1.594-4.094 1.406-10.594 3.407 3.907 3.593-4.625.407-6.5.875-1.188 7.718-17.812 26.188-1-2.594.125-3 2.593-4.094 9.407-12.093-.907-2.5-4-.72-45.406 21-2.094.5-1.5 3-3.093 2.5-1.625 2.595-.094 4.625-2.688 7.093-12.719 4.782-12.28 7.406-2.595 1.5-2.906-2.094-3.094-.094-4.124 2-1 2 2.406 3.094-13.094 2.812-10.687 4.282-5.126-1.094h-1l11.813-7.406-1-1.594-3 .406-12.312 7.406-8.094 3.875-14.281 7.407-.22 4.593-4.593 3.5-8.594 3.907-8.594 1.312-5.624-1.094-2 .875-3.094 1-3.5 2.5-8.188 4.407-5.093.406-15.813 6.812-4 .875L1152.406 253l-22.906 8.094-10.687 4.406-9.125 3.406-13.782 5.781-22.5 11.719-9.718 6.5-12.282 5.781-5.593 3-3.125 1.407-12.282 6.906-7.218 7-8.188 5.406-1.187 5.094-16.407 10.406-.094 4.094 3.375 8.312-3.687 4.5.5 1 2 1.094 3.594-3.5 4.093-.906 3.5-2.5 8.219-1.813 1.5-2.093 5.594-1.907 2.594-2 1.593-4.5 1.625-2 5.094-.375 4.094-5.125 4.094-.875 2 1.094-.594 3.594-3.188 4.5-3.625 5-5.687 4-19.906 8.687-9.594 2.907-2.594 2.5 10.5 3.312.406 1.594-14.906 12.906-2.719 6.594-3.687 5.594-4.594 3.906-1.094 3.094 1.5 1 1.5.593 2 .625 10.5.688 5.094 1.187 4.406 3.719 2.375 3.594 2.907 5.687-.688 6.125 1 1.594 5.5 1.688 3.5 1.093 4 3.719 1.906 3.094 2.5 1.094 9.094-.282 7.094-2.906 6.094-.406 12.093-1.188 11.313-8 10.687-4.312 11.313-5.906 8.094-1.282 1.5-.5 7.218-4.5 8.594-2.812 10.594-.313 16.312-6.781 10.688-2.812 9.187-4.407 26.5-8.593 9.219-5.907 6 .125 8.188-3.312 2-1.5-.407-2.594 3.625-.906 1.5-2.594 5.094-2.406.594-2.594-2-.5-6.094.906-10.594 2.782-7.218 2.906-8.094 3.406-3.594.906-2.5-1.125-2.906-4.093-7.5-.688-7.094-.719-9.094 3.407-5.125.406-3.5-2.188-.5-1-.375-2.125.5-2 2.594-3L1160.5 350l.094-2 .5-1.594 16.406-8.812 7.687-3.907 7.125-2.375 13.782-7.906 9.218-3.312 4.5-1.5 1.094-2-1.5-1.594-12.219 5.906-6.593.406-.5-.125.593-2.5 11.72-4.875 7.593-3.406 20-10.219 3-1 9.094.719 7.218-4.906 8.094-4.406 8.188-4 3.718-5.5 4.094-4 5.094-2.5 4.594-2.407 17.312-4.687 15 2.406 10.188-1.812 6.093-.907 5.5 1.125 9.72-4.906 5.593-1.906 8.094-1.313 19.312-7.281 14.188-4.812 3.093-3 1.313-9.188 9.187-5.406 1.125-3.594 1.594-3 21.688-1 12.812-8.406 12.188-7.406 9.312-6.5 9.781-11.594 1.125-1.5 1.188-8.094.594-4.094-2.407-3.718-13.187 1.312 1.094-2.094 9.718-3.312h2l.594-3.594-2.5-4.094-3.5.875-7.094 2.407-9.312 6.5-10.188 5.406-2.718 7.094-3.094 5-2.594 1.5h-3l-6.094.312-1.406-2.594-.5-1 2.688-5.625 36.312-22.187 3.094-2 14.312-9.406 14.875-9.407 4.625-2.5 2-1.5 3.188-4.5 20.5-14.875 7.094-4.5 5.218-3.906 4.094-2.5L1559 99.5l2.594-2 4.5-2.5 3.093-2 4.125-2.5 4.594-2.907 3.594-3-.906-2.593-4.594 3-5.188 3.406-6.125 2.5-15.28 9.906-5.72 4.5-6.093 1.875-4.5-.094 14.312-8.406 3.594-3 4.094-3.5L1571 83.312l5.687-6.5 5.625-5 9.782-6.5 13.406-12.5zm6.313 8.406-3.626 3.5-.593 3.094 1 1.5 2 .125 2.5-.5 2.094-3.5-.876-1.125-.5-.5-1-1.094zM1511 61.906 1508.406 65l1.5 2.594h3l1.5-1 1.594-1.5-.5-.5-.5-1.5-1.406-1.094zm-17.312 8.407-.095 5.093 3-1 5.094-2.406-1.5-1.094-1-.5h-.5zm-12.282 8.375L1470.187 82h-3l-6.093 3.906-8.188 2.907-3 1.5-5.093 2.375-14.313 6.406-4.094 4.5 1.907 1.594 3 .5 8.78-5.875 5.095-3.5 6.625-3.407 6.593-2.406 5.594-1.906 5.594-2 13.719-5.281zm115.906.625-2.124.5-1.5 2.5.406 1.5.5 3.093h.5l2.5-2 1.094-2.5zm-180.718 32.28-2 .407h-1l-1.594 1-1.594 3.5.5.594 1 .5 1-.5h1.5l3.094-1.906zm116.5 14.907-3 2-1.094 2.594h2l2.5.094 3.594-2-.5-1-1-1.094zm-152.688 2.188-2.593 1.406-1.5 1.5 2.875 2.719 2 .5 1.625-1.5 2.093-4.5-3-.125zm140.282 9.906-1.5 1-2.594 2-1.594 5 3.5-.406 4.188-3.5.5-.5zM1298.406 281.5l-1.5 1.5-.5 1.094 1.406 2.594 1.5.5 2.5-.5 1.094-2-1-2.594-.406-.5zm22.781 35.906-3 1.5-4.093 2-2.594 2.5-2.594 1.907-2.594 2.5 4 2.687 9.688-2.312zm2.813 50.282-4.594 3-1.594 2-4.124 3.5-3.094 4.5.906 1.625 3.094.593 2.5-2 5.719-4.5 2.093-2 1.5-2 .594-2.093-2-2.125zM990 371.5l-7.594 1.906-3-.094-6-1.125-2.093 2.5-5.22 5.5 1.407 1.625 3.094.5 7.093-1.812 8.125-2.406 7.094-1.907-.906-2.594zM1910 856l-19.187.594-25.907 2.5-7-.688-2.094 1.5.5 1 5 1.188h2.094l1.5 1.094-10.719.718-34.374 2.907-6.626.78-9.093 1.407v2.5l-4.594-.594-.906-2-8.094.782-7.594.812-5.594.906-.624 2.594v2l-6.094 1.406-7-4.718L1755 874l-7.094.906-4.094 1.907-4.624 4-9.094-.22L1724.5 882l-1 .5.406 5.188-11.5 13.5-10.094 3.906-9.718 2.312-16.688 1.188-3.093 1.906-9.22 6.5-2.593 2-12.906 9.906-7.594 3.407-12.187 3.78L1616 941.5l-9.5-1.312-8.812 6.5-8.188 4.406-13.906 9.906-4.5 2-6.688 2.406-4.093 5.5-5.813 8.594-9.906 13-11.906 10-6.282 9-3.218 10.188-16.188 20.125-13.406 12.875-8.281 7-22.125 16.906-2.594 2.5-12.406 13-5.188 4-10.187 2.812-12.625.688-5.688 2.406-6.594 4 1.188 13.313.906 25.593-1.812 9.094-7.282 10.594-7.812 10.5.406 5.094 4.406 2.718 1.906 5.188.688 15.312 3.187 12.282 7.907 9.906 15 4.5 9.218-1.906 22.688 3.625 11.594 1.28 9 1.72 13.093 2.875 9.125 23.218.375 4.094 2.313 6.688 3 2.125 5.094 1.593 3-.906 12.312-5.906 12.281-6.281 7.126-.907 4.593-1.906 6.188-6.5 3.718-7.594 2.594-5.093 2.281-8.125 1.22-9.688.687-7.594-.907-5.093-1.5-2.625-3.5-1.094-5.5-.688-6.093 2.5-3.188 3.5-4.594 3.907-7.312 8-4.594 2.5-4 .375-1-2.094 1.594-2.5 5.187-5.5 6.22-5.5 6.78-11 5.22-6 5.187-5 5.718-5 7.688-8 6.906-11.594 4.688-6 2-1.5 1.312 8.188-.219 10.218-2.687 8.594-2.688 7.594-3.218 7.094-1.688 5.125.406 5.093 2.282 9.188.906 7.719-.313 8.687-2.687 10.688-4.313 9.625-5.78 8.5-8.22 7.5-7.187 4.375-12.906 8.406-9.188 7-6.219 3.906-4.187 6.594-2.687 6.5-1.907 17.906.188 12.188 1.406 5.218 3.406 4.594 3.5 2.688 4 2.125 5.5 4.187 4 3.188 2.406 5.125-.218 7.187 2.906 3.594 1.5 2.093h1l.594-1.5 1.593-3 4 .125-2.78 10.094-.595 4.094-.125 3.594-3.093 2.906-.594 3.594 3.094-.407 6.093.625 6.125-1.406 4.094-4.5 2.594-3.5 2.687-6.094 2.125-3.5 4.094-3 4.688-6 6.718-3.906 6.188-8 3.312-11.218 1.688-6.094 1.594-4 3.093-3.594 4-18.187.72-8.72.093-5.593 1.594-4.594 2.719-5 14.781-7.906 12.312-6.906 11.282-6.781 5.812-8.625 4.188-8.594 1.625-4-2.219-12.281 1.094-3.625 4.218-6 3.594-4 5.094-3 7.719-1.375 5.875 3.187 1 .594 3.906 6.719h1.594l2.5-1.907 3.625-3 4.281-8.593-1-1.125-3.5-1.094-2.5-3.594-1.406-3.094.218-10.718 2.407-15.782 5.875-14.718 6.312-7 7.688-8.5 7.625-.375 9.593-.313 11.188-3.312 3.594-.375 6.125-1.407 9.187-6.406 5.813-10.094 10.281-5.906 7.312-11.094 3.688-7.593 5.219-4.5 5.093-2.407 6.594-.906 2-1 5.313-9.594 9.875-12 4.625-5.5 2.593-3.093 6.782-7.5 7.125-2.407 1-.5 5.593-.906 4.094-.906 7.594-2.906 11.719-3.782 12.375-10 9.718-6.406 8.782-7 4.125-2.406 5.593-1.5 3.5-.406 6.094-.875 4.594-2.407 2.719-5.593.5-3.125-3.907-6.188-3.406-4.594-6.5-4.312-4.906-5.688-2.781-9.812L1913 967.5l3.688-6.094 6.125-3.406 10.593-.812 12.688-2.282 5.594.688 11.125 1.219 8.593-2.907 18.688-.593 9.594-1.313 5.5 5.688 7.5 3.812 4.906 3.188 7.094 1.625 6.125-4.907 8.187-4.5 3.094.094 11.594.813 6.5.594 2.625-3.5 4.187-7.094 5.594-3.406 3.594 1.093 1.406 2 3.094-2.5 2 .094 7.5 3.22 11.625 1.78 2.093-.5 1.5-2 .094-3-2.687-13.906-.406-5.594V923.5l2.093-4.5-2.687-12.406-1.5-3.094-12.906-11-16.907-10.093-11-5.813-13.5-4.906-1.5-1.094-4-2.094-7.5-4.812-10.687 3.906-7-.094-3.5-1.687h-2.625l-13-1.813-1.094 1.5.5 1 7.5 1.188-.094 4.125h-1.5L1992 871l-4.594-.593-8.093-.094-10.5-1.813-2-.594-.5-1.5 4.093-.906 1-1-4-1.687-5.5-1.625-11.593-1.282h-1.5L1935.688 857l-17.688-.906zm259.594 67.906-1.094 1.5-3.594 3.5-6.594 3-1.5-.593-4.124 1.5-1.5 2-1.094 2 4 1.093 4.594.594 4.5.594 3 .094 2 2.625 9 2.687 5.624 1.188 4 .125 1.5-2 .594-2.125 1.5-.5 2 .125 3.094-1 2.094-1.5 1-2-2.5-2.125-3.5.406-3.5-.5L2187 934l-2.906-3.093-3.5-1.094-2-.625h-.5l-1-.5-4-1.594zm-785.688 192.688-10.718 4.906-9.688 5.406-3.687 3-17.5 14.407-15.5 12.375-10.407 11.5-14 16-5.718 6-3.594 3-10.188 2.812-9.093 1.406-9.72 3.782-2.593 1-9.812 6.406-14.094 19.094-2.594 3-5-1.688-2.094 3-6.593.406-2.625 5.094-.594 1-4 1.906-13.281 2.782-4.813 9.625-5.687 6.5-3.813 11.593-4.187 5-2.907 17.782-8 13.625-10.5 17.187-3.718 6-.5 1-2.594 2-2.594 4-7.812 8-8.688 5.406-8.187 3.407-12.813 4.28-17.187 1.095-3.5-2.094 1.187-6.094-3.094.406-13.718 3.282-9.188 4.312-2.594 1.5-10.218 4.906-4.594 1.407-4.594.875h-1.5l-21.687-4.094-3.813-7.281-3.594-1.125h-.5l-3.5 1-5.218 4.406-6.094 3.5-4.688 4.406-6.406 11.594-11.812 6.406-4.094 5-6.906 9.5-2.094 3-6.781 9.094-2.125 3.5-2.094 2-15.594 18-12.312 8.406-23.094 11.688-15.906 8.312-10.188 2.813-8.812 5.875-17.375 8.812-10.313 6.813-7.094 2.875-9.312 4.906-16.281 4.719-13.813 5.78-2.594 1-16.812 3.595-6.594 1.406-3 .406h-21.812l-10.094-.187-8-2.313-12.594-4.406-6.094.906-7.218 2.906-11.688 2.782-3.906-3.188-3.594 1.406-3.594 3h-2.093l-4 .907L654.5 1520l-7.687 2.406-8.72 3.282-7.593 2.906-9.094-1.281-18.406-12.22-11.594-3.28-15.718 1.093h-1l-19.188-.5-21.312 2-14.782 4.282-11.218.718-14.282 5.282-18.406 6.125-2.5 1-17.5 9.187-26.5 25.406-8.812 8.5-9.375 8.907-12.625 16-12.875 9.875-10.407 10.5-11.312 6.312-7.094 2.406-10.906 8.907-6.281 5.875-1 1.625-11.5 12.375-11.407 9.406-1.5 1-9.812 4.312-6.594 2.907-12.312 4.78-10.094.813-11.781 3.782-20.407 4-2 .5-11.718 2.718-26.5 4.5-10.688 2.688-21.5 7.094-16.312 6.312-9.688 2.313-7.687 2.78-12.22 2.813-13.905 7.188-21 8.219-4.5-.72-6.5-3.687-8-2.812L64.5 1730l-3.094 4.5-14 10.406-1.5.407L25.313 1756l-7.813 8-11.812 5.313L0 1771.5l2.406 7.688 2 3.625 2.782 4.875 4.406 7.312 3.406 5.094 2.688 3.906 2.406 1.688 3 .125 3.219-1.72 3.593-1 1.782-.093 3-.313 4.406-.375 1 .094 2.5.5 2.219 1.094 2.28.406 2.095-1.093 1.625-1.407 1.687-3 1.906-2.718 3.594-5.094 4.188-2.406H66l2.188 1 2.312 2.218 2.406 2.594 2.188 2.313.812.875 1.907 2.718 1.78 2.688.407 1.719.188 2.093-.094 3.094-.094 3.594-1.594 2.5-1.719 4-1.781 3.094.281 3.625.406 1.375.907 1.218 2 1 1.312.282h1.281l3.594-.688 3.5-.406 4.625-.688 1.375-.218 2.219-.094 2.594-.407 2.406.22 1.5-.5 2.187-.407 1.5.187.813 1.407v2.093l-1.094 1.407-.5 1.5.281 1.718.907 2.094-.594 2 .187 1.406.219 1.094.781 1.406.907 1.094 2 1.094 1.312.5 1.281.406 4 1.188 5 .218 4.094-.718 1.719-.094 1.406-.188 2.5-.312 2-.407.594-.094 3-.312 2.594.719 3 .687 2.312 1 1.594.813 3.094.593 1.312 3.188 1.281 4.125-.187 2.281-.094 1.813.781 3 1.906 4.687 2.406 4.594.5 1.312.688 1.094 4.594 7.406 2.5 2.688 1.218 4.125.188 1.687.094 1.407.813 3 1.906 2.687 2 .719 1.094.875.812.812 1.375 2.094.906 2.594.313.812.406 1.407-.125 2.5-.594 2.406-.5 2.594 1.219 2.5.594 1.093 1.906 2.094 2.375 1.813 2.313 2.187.406.313 1.406 3.593 1.375 2.688 1.406 4.312v4.313l-.094 2v1.594l-.062 1.187h2141.438l-5.469-6.094-8.312-13 1-2.5-1.907-5.593.625-4.594 4.594-2.5 5.5 4.687 1.094-4.5 3.594-1.5 1-1-2-2.093-6-1.094-3.282-13.313-3.312-10.312 2.187-10.688 2.625-1.406 4.5 1.094 1.688-6.594.594-3.594-1.5-3.593-1-.5-3.5.906-2.188 7.687-3.094-.094-4.5-.094-3-.625-4.5-3.093-1.406-5.688-8.719 1.906-8.093-.218-6-4.688-1.782-6.719-10-9.187-.406-.406-3.594-1.907-1.406-6.093-2.812-9.782 1.093-4.5.719-8.718-11.594-3.282-6.5-3.218-6.5-2.594-5-3.188-.906-7.718-6.812-13.407-5.407-8.28.219-6.095.094-6.125 1.188-7.593-1.5-1.094-2.5-1.5-9.594-2.813-2.906-7.187-12.782-16.594-5-2.094-10.312-14-2.594-21-3.812-14.906.125-3-.313-10.219 1.688-8.687-8.375-5.813-10-9.28-6.407-7.813-5.312-10.907-1.5-.5-3.5-2.593-5.094.406-1.5.5-1-.094-1.594 1.5-2.093 6.094-2.125 1-2 .5-2.5-1.594-1-1.094.5-1.5 2.625.594 2.593-3 .5-3.094-8-4.219-3.5-1.593-1.718-15.907-2.782-10.78-4-1.626-3 1-1.093 1-1.125 5 .406 6.219-2.094 2-2.5.906-3.594 2.5-4.093 1-5.125-.219-8.5-2.187-5-3.719-3.875-6.687-.813-8.688-.406-8.125.219-7.687-2.407-7.688-4-.625-3 .5-5.218 4.406-8-3.187-7.5-6.813 1.218-7.093-1.906-4.094-5-1.719-5.094-.594-6-2.187-6-3.719-3.406-4.594-7.094-2.187-6.593 1.406-6.22 3.875-6.593.906-7.5-3.187-7.5-3.813-6.406-5.687-.594.5-7.812-9.906-4-4.094-8.5-3.313-5.594.907-6.594-.094-8.594-.22-12.593-.78-9.625-.22-7.594.813-10.188 1.313-8.093-.125-7.5-.688-8.625-2.187-6.594-.219-10.094-.687-5.5-3.22-9.5-4.78-3.406-2.594-10.094-2.813-10.594.813-6.218 1.375-13.188 4.312-18.312 5.688-6.094-.094-9.688.812-9.093-.218-1.5-.594-10.125 2.406-8.782 4.906v4.094l-1.093 1-4.5-1.687-4.125 1-2.594 3 .906 8.093-6.187 5.5-12.907 10.5-7.906 12.5-2.187 6.594-2.813 11.188-5.094 1.906-7.812 10-6.188 4-5.093 4-8.22 5.406.5-3.094 4.813-9.593 3.094-1.907 3.594-4 5.219-4 5.78-11.093 1.095-3 2.718-8.125 2.188-5.594 4.094-3 3.218-10.094 3.688-6 5.312-8.594 5.188-8.093 4.219-3.907 15.875-9.406 21-13.812 5.218-5 7.282-7.5 2-2 6.218-5.5 6.282-11.094 1.718-4.5 9.688-5.406v-1.594l-4-.594-5.5-3.687-5.094 1.5-5.594 1.375-1.5 1-6.718 4.406-3.594 1.5-9.594 2.312-6.187 3.907-5.22 7.093-7.187 2.907-12.718 4.28-14.282 7.313-5.218 4.5-5.188 5-9.812 11-22.094 13.782-2.594 2.5-25.906 23.906-7.188 7-7.312 8.5-4.094 3-10.594-3.781-3.906-2.72-1-3.593 3.188-7-.375-2.094h-2.625l-10.782 7.407-3.593 5.5-2.125 2-4.094 3.5-.594 2.5v1.5l-.094 3.093 6.094-2.406 5.5 3.688 2.906 5.718.406 3.5-2.625 4.594-6.187 5.5-5.813 8.5-14 14.5-6.187 8-6.813 8.5-11.593 20.688-3.282 10.625-3.718 7.093-10.782 5.907-5.625.28-7-2.687-.5-.5-5-4.218-.281-5.594 1.5-2.5 3.188-5 5.218-7.594 2.188-5.5 1.5-1.5 8.594 3.188 2.093-3.5h1l.625-3-3.218-15.875-3.594-20.5-4.406-5.72-1.282-8.687 5.094-21.406.5-3-.812-7.187 3.718-27.5 7.5-18.22 3.188-6.5 5.906-16.187 4.5-17.312.5-1.5 1.906-16.781 2.375-14.22 5.907-14.687.718-9.218-.906-2.594-3.406-8.688-13.313-14.593-6.375-5.813-4.625-.594-1.781-9.718-5.406-6.282-1.906-3.093-1.5-1.125-3.094 2-1.594 1.5-1.406-1.5 2.812-56.188-8.625-22.094-7.375-7.906-46.312-6.594-22.688-5.718-14.218-16.594-4.5-25.688-4.688-14.406 5.406-14.687 9.375-11.5 3-16.813-.875-8.687-4.812-6.813-4-3.687-9.094-.72zm478.907 306 1.374 3.594 2 3.624 3 1.594 5 1.188 3.126-3.5-2-2.594-2.907-2.094-3.094-.593-2.5-.126zm24.5 12.812-1.126 3.594 2.5 1.5 2.5 2.594 2 .094h2l1-1-1.374-5.094-3-1.594zm2285.093 246.688-9.094.906-3.125-.094-6 .906-12.28 4.875-1.5.5-10.22 3.907-5.093 2.5-15.688 2.812-9.094.406-10.718-.718-7-.095-16.188-2.312-28.312-4.094-10.594-.594-13.188.813-12.218 3.281-15.282 4.406-12.125 1.813-7.593.875-5.594-.094-10.688 3.906-7.218 4-24.907 9.313-10.28 7.875-16.813 8.406-19.407 10.406-2.593 1.5-36.688 14.188-16.312 8.406-32.688 13.219-11.219 4.375-1 .5-18.28 2.218-9.595.407-2-.125-13.718-.188-18.188-.812-31.812-4.094-7.594-1.188-32.406-2.093-16.688 3.281-29.406.5-6.594-.094-22.812-1.406-19.094-3.907-3.594-.593-34.812-8.282-14.594-2.312-8.594.406-10.094-.219-9.218 1.907-17.282 4.812-12.218 3.906-10.688 2.782-5.594-.094-2.5 1-1 1.5 2 .593 5-1 2.594.594-.594 2.5-7.125 1.406-4.593 1-4.5-.094-4.094-.094-2.5-2.593 3.594-2 5.593-1.407.625-2.5-2.625-.593-9.093 3.375-4.594 2-4.094.906-26.406 6.219-17.406 5.781-11.188 4.906-8.094 2.906-13.218 1.282-13.688-1.782-8.406-7.812-5-6.688-3.906-4.718-3.594-1.594-5.094 3-6.594-.094-5.125 2.906-10.78 9.5-6.22 5.5-15.28 11-21.595 15.406-6.218 4.5-19.5 13.875-19.407 11.313-17.5 12-2 .906L3115 1893.31l-10.688 6.375-7.218 3.907-23.407 7.218-32.687 14.188-5-5.188-5.5-1.625-5.094.407-6.219 5-7.28 12.093-3.595 4.5-4.093 5.407H4116l.594-.782 8.218-4.5 5.594-2.406 1.094-6.094.594-4.625-1.782-17.875-2.312-15.812-1.406-6.688-3.282-13.312 3.875-25.406.407-25.5 1.906-23.407 1.687-9.687-1.28-10.188 4.405-26.406 6.282-10.594 6.218-12.218 8.282-11.094 6.218-6.5 1-1 11.782-10.5 8.312-8.5 2-3.094 1.094-1 2.594-4-15.688-2.312zm-1874.719 152.312-2 .5-1.093 2.5 2 2.594 1 2v1.094l1.906 2 3.094 1.094 1.5-1 1.5-1.5.593-2v-2.5l-.875-2.094-1.5-1.094-2.5-1zm15.5 10.5-.5 2-.094 1.594 1 2.5 3.5-.406 1.594-1.5.625-2-3.125-1.094zm24.72 5.594-1.595 3 1 2.594 3 1.094h1.5l1.094-3-.906-3.094h-1.594zm-10.907 37-1 2-.594 4.094h2.5l3.594-2.406-1-2.594-1-1zm533.594 16.188-2.594.5-2 1.5-4.188 4-7.218 8-3.594 2.5-2.094.5-1 1.5 1 1.5 1.406 4.124 1 3.094.875 5.094.407 4.094-.094 5.094.03.406h58.345l1.125-10.5-1.5-3.594-5.407-7.687-3.406-5.22-2-1.593-1.5-3.5-2.875-6.687-2.5-2.626-2-.093-2 1-3.125 2.5-4.094.906h-3.5l-3.093-1.594-2.407-2.094zm-259.407 25-1.5 1.5-1.687 7.718-4.594 1.407-5.094-.126-3.5 2-6.78 4.407h60.374l-1.5-2.906-3.406-4.688-7.094-2.094-3 .407-5.594.374-4-5.687-7.625-.094zm1529.125 15.812-.624.5-.126.594h5.75l-1.5-1.094z" style="fill:#9faec0" transform="translate(0 125)"/><path stroke="#9FAEC0" stroke-width="10" d="m188.438 1945.594-.125 3.312-.125 3.407.718 5.187 2.188 4.688 1.219 3.812 2.5 5.594 1.187 2.094.813 1.5 1.875 3.624 1.406 2.594 1 3.094.906 4.094.313 1.094.593 2.5.407 3.124V1998l1.28 4.188 1.313 2.718.594 1.094.813 1.5 1.78 3.188 1.22 2.906.593 1.219 1.782 3.78.125 1.813-.125 3.094-.094 4.594-1 3.5-.094.594-.313 3.624-.094 1.376-.094 2.312 2.688 3 93 32.406 49.5 17.188 128 43.594 17.5 5.812 116.5 39 37.812 12.688 15 5.124 65.313 22.188 38.875 13.188 83 28.124 27.718 9.782 109.907 38.812 73.093 47.594 41.188 27.094 61.718 40.5 2.375 4.594 3.125 3.718.375.407 4.125 2.5 3.5 2.187 3.375.188 2.625.218 3 .594 1.375.594 1.625.812 1.875 2 1.5 1.594 1.5 1 1.5.188h2.5l1.625-1.376.188-2.624.594-2.876.593-2 2.22-1.906 1.28-.593.5-.22 1.5.595 1.5 1.124 1 1.5 1.5-.5 1.72-1 1.093-.312 1.312.906 1 2.094-.125 2.094-1.093 1.906-.5 1.594-1.594 3-.094 2.5.594 1.594.594 1.124 1.812 1h3.688l1.406-.124.5-1.876.5-.624 1.094-1.376 1.593-2.624 1.907.218 1.593 1.5.407 2.094 1.906 1 .406.094h1.281l3.907-1.187 2-1.407 2.718-2.406 3.875-1.906 3.907-1.282 3.593.188 2.125.5 1.375.406 2.407 2 2.5 2.094 1.312 2.219.781 1.187.407.813-2.094 2-1 2-.094 2 1 1.593h2l3.594-.406 1.906-1.187 1.187-.719 3.5-1 4.813-.906 3.5.312 1.906.406 3 1 5.094 2.188 1 .5 2.906 1.719 1.5 1.093.875 1.094 1.5 2.094 1.406 2.094.313 1.718.5 2.407 1.781 3.187 1.906 2.094.5 2.094-.687 2.5-1.219 2.5-.375 1.312-.219.688 1 1.125 1.313 1.093 3 .594 3.187-.312 2.094-.5.813.625 2.093 1.187 3.5 1.188 3.22 1.125 5.78.187 1.907.094 1.687-.187 3.5-.219 4.219-1.375 2.5-2 .906-1.5.375-.906.219-3 .781-4 .625-3.094.188-4.125.5-2.687.406-1.5 2.187-6.094 1.313-1.907 1.5-2.093 1.906-.5 2 .094 2.5 3.093 2.375 3.813 1.906 2.594 1.407 2.093 2.406 1.313 2.594.094 2.593-2 2.72-2.906 1.687-1.5 3.093-1.282 2-.406 1.5-.219h3.594l4 .72 2.5 1 3.125.093 2.375.406 1.625.094 4.594-2.312 5.094-1.375 2-.625 1.593-.375 3.594-1 4 .687 4 1.188 2 1.625 2 3 1.406 1.875.5 2.5.813 3.125-.094 1.5-.125 1.094.812 3.593 1.407 3.594 2.406 2.594 2.5 2.219 3.5 2.593.687.5 1.094.313 3.594-.313 2-.406 2.219-1.906 1.593-2.5 2.188-2.5 3.219-2.781 1.187-.22 1.219.126 2.5 1 2.5 2.094 5 6.187 1.594 2.094.406.5 1.875 1.719 1.219.687 2 1.094.5.125 2.406 1.187 3.094.594 2.906 2.094 2.875 1.812 1 1 .406.688 1.5 2.5 1.906 1.219 2 .593h2.094l2.594-.812 2.5-.5.812.125 3.313.187 4.5-.187 3.594-.906 2.28-2.5 2.126-2.813 2.187-2.5 1.907-1.687 2 .093 2.593-.094 2.5 2.688 2.407 1.719 3.093 2 2.407 1.375 2 1.125 2.906 2.687 3.375 2.188 4.719 3.219 4 2.593 1.5 3.094 2.28 2.906 1.407 4.188.906 1.625 1.407 2.594.906 2 1.375 1.187 2-.594 1.625-.594 1.187-.5.907-1.312 2-.594 3.5.094 3.093 1.719 2.407 1.594 5 5 3.906 1.687 5.594 1.313 1.093-.219 4.5-1 3.188-2.375 3.625-2.312 3.187-2.407 2.594-.906 2.594-1.375 1.406-.219h1l3 1.094 2.5 1.625 1.5 2 1.406 3.188 2 3.593 1.907 2.094 1.406 1 .375.313 3.5 1.687 2.312.625 2.5.188 3.5.593 3.094 1.094 2.594 1.813 3.406.187 2.719-1.375 2-2 2.875-3.312.406-.407 1.219-1.093 1.281.312 1.313.594 2.906 1 2.5 1.094 3.187 1.093 2.5.594 3 2.719 2.094 2.781 2.406 2.719 3.407 2.187 3.5 1.094 3 .813 2.406.687 1.594.625 3.5 2.094 2.687 1.687 2 1.5 2.406 2.719 3 2.781 1.094 1.594.813 1.125 2.406 2.188 2 1.5 3.5 1.312 3.187.5 1.688.5 1.812.594 3.094 1.594 3 1 2.5 1.593 2.5 1.719 1.406 1.594.5 1.5-1 1-2 1.5-1.093 1.906-2.094 2.5-.5.5-.313.5-1.093 2.5-.313 3.094-.594 3.5.907 6.687.28 2.094.313 1.406 1.313 3.219.875 3 6 4.188 2.812 1.312.5.188 2.5 1.593 3.313 1.094 2.5 2.219 1.875 1.594 1.5 1.593-.375 1-.719 2.407-2.594 3.5-3.593 1.406-2.813 1.906-1.687 2.5-2 2-2.22 2.375-2.093 2.313-2.594 1.906-2.093 2.5-2.594 3-1.5 1.906-1.625 2.5-1.094 2.594-2.594 2-2.406 1.781-.406.406-2.875 2.813-5.625 4.906-2.688 2.375-2.093 2.625-2.094 2.5-1.313 3.188.313 3.593 1.281 2.5 2 2.813 2.313 3 .593.687 2.907 2.219 2.687 1.594 3.5 2.187 3.5 2.5 1.906 2.594 1.407 2.813 2.406 3.406 3.187 2.594 3 1.187 3.188 1.813 3.5 1.187 4.312 2.219 2 1.594 3.5 2.593 1.688.907 1.312.5 4 .687 3.688-.781h3.5l3.219-1.094.906-.312 4.594-1.407 3.687-2 4.719-1.187 1.5-.5 1.375-.094 2.5-.5 5.125-.906 4.594-.907 2.906-1.312 1.5-.375 1.594-.406 2.593-2.407 3.188-.906.625-.094.875-.313 2.406 1.72 2.906 3.187 1.188 2.406.906 2.5 1 4.094.906 2.406-1.187 3-1.719 2.406-1 1-1.094 1-1.187 2.5.875 1.281 2.625 1.907 2.375 1.094 3.5 2.312 3 1.5 2.406 2.312 1.5 1.282 2.406 2 2.407 1.594 3.78 1.718 3.626.188 5.687.906 4.407-.188 4.593-1.406 2.5.594 3.094 1.5 2 .812 2 .688 1-.406 1.594-1.406h2l1.719.5.5.124 1.78.594 2.72-.406.78.187 1.626.72 3 2.593 2 1 2.5.594 2.594-.406 2.593-.782 1.094.094 1.906.313 3 .594 3 1 3.407 3.187 2.906 2.719 1.875 3.094 1.625 6.78.375 3.626 1 3.781 2 3.094 2 3 3 2.219 2.406 2.187 1.5 2.5h.5l2 2.594.5.406 2.719 1.5 3.781 2.219 2.5.875.5.219 4.219 1.28 1.594.72 2.28 1.093 4.126 1.188 2.375 1.719 1.906 2.593.906 2.094-.094 2-.312 1.094-.281 1.406-.72 2.094 1.407 1.906 2 1.813 1.906 1.5 1.5 1.187 4.5 5.406 3.782 3.906.718.688 3.407 4.313.875 3.187v2.094l-1.188 2.406-3.406 1.813-2.406.906-2.5.5-3.094.375-2.594 1.406-1.687 1.594-3.125 1.5-3 1.406-2.594.5-2.5-.094-2.594 1-1.312.594-.875.594-1.407.812-1.593 1.906-.22 1.188-.28 1.406-.625 3.5-.594 2.5.5 3.094.906 2.594 1.813 2.312.5.406 2.687 2 2.5 1 2 3.594 1.406 2.594 2.407 3.219.5 1.874.78 2.72 1.313 2.405 1.407 2.188 1 2 1.375 2.406 1.406 3 1.906 2.094 2.188 2.187 2.5 1.125 2.5 2.188 1.906 2.094 1.5 2.594.906 4.218.188 3.594-.5 2.812-.094.782-.282 3.5-1.125 3.312-.687 3.188-.906.812-2.907 4.094-.687 3.594-1.188 2.719-.5 1.187-.125 2.5v2.687l-.094 3.407-1.593 5.094-2.094 2-2.094 1.312-3.625.812-1-.406-1.5-.719-3.5-1.187-3.5-2.188-3-1.125-3.5-1.093h-2.594l-1.5-.094h-3l-1.593 1.5-1.094 2.5-.5 2-.094 2 1.093 1.406 1.594 1.781 2.688 2.625 1.625 1.594 5 2.594 2.875 2.5 2.625 3.187 1.187 1.5 1.313 1.625.375 4 .406 3.094-.156 3.656h421.281l1.594-2.469 2.593-4.093 1.688-7 6.812-11.094 9.282-5.906.625-5.594 1.593-5 3.688-8.094 3.094-2 5.218-4.406 2.688-8.594 8.406-15.125 11.594-21.094 6.312-7.5 6.688-3.906 3.219-9.094 6.281-8 8.719-4.906 7.093-1.875 6.688-3.5 9.812-7.406 8.688-3.406 12.219-.688 2.593-2.5-.406-5.125.594-6.094 1.594-1.5 4 .094 9.718-3.375 9.188-2.906 5.094-1.406.625-2.5-7.125-1.688-1.5 2-5.188 3-11.187 3.782-6.125-1.094 1.625-3 7.093-.406 2.094-3.5 4.594 1.094 2.5-1 .594-2-6.094.406.5-2 4.094-1.5 5.125-1.906 3.687-8.594 3.688-3 3.218-9.094 5.094-2.906 3.594 1.094 1-.5-.406-4.594 5.625-1.906 1-1-.907-2.594-5.093.406-4.625-.594-4-3.594 3.125-.5 1.5-2-7.5-1.625-.907-5.593.188-13.281 4.719-5-.5-1.5-5-1.626-3-3.093V2764l2.093-1.5 5.594-1.906 1.594-2.5-1.906-7.094 2.218-7.094.688-11.219.094-2 5.719-10.093 8.406-10.5 3.594-4 9.687-3.406 7.219-2.876 9.688-5.906 1.093-2-1-1-10.093-3.812-5.5-4.188-.407-1.5 1.094-4.594 2.625-3.5 2.5-1.406 3.094-1.5 3.093-4.5.095-2.094v-1.5l2.593-3.5 5.813-7.5 2.593-3 2.5-1 4.594-3.5-1.375-4.625-1-2 1.594-4 4.094-2 2.687-4 1.125-7.593v-1l2.094-2 2 2 3 2.594 1.094-4 2.593-3.5 1.5 1 2.5 1.124-1.093 3.5-1.5 3.094 2.406 3.094 4.094-1 2.093-5 .22-6.594 2-2 1 .5 2 1.594 2 3.594-.126 6.594-2.187 5.5-5.094 4.5-3.594-.594-5-5.188-2.5-1-1 1.5 1.375 3.094 7.625 3.687 1.375 3.625 1 2-.594 5.094 2.407 7.188-1.688 8.094-3.125 5-2.594 2-7.187 5.406-1.594 3-3.219 7.094-2.593 4-4.594 2.5-3.094 3-2.812 10.124-2.094 3-8.094 3.375-5.125.907-1.094 1.5.5 2.594 2.407 5.624 1.406 3.594 7.5 9.281 1 2 1.406 3.625.281 10.188 2.907 7.187 1.406 6.125-1.094 4.594-1.719 10.094 1.813 11.187 2.406 4.72 1.375 6.093-.094 6.094-.594 6.594-1.687 6.124-.125 9.594-3.188 5-1.093 4.594.906 4.594-1.125 5.594-1.594 4 1.406 5.624 1 1.094.407 5 5.093 1.188 3.407 4.594.687 15.812 2.906 9.187 1.5-1 2.907-14.687 4.593-2.406 5.313-11.594 4.687-7 7.688-3 6 1.687 3 6.72 2.5.5 4.125-1.907 2.094-4.594 5.187-8 2.094-1 9.125.188 9.687-.281 4.5 2.593 3.094-.406 6.719-6.5 14.281-7.406-3.187-14.781 2.187-8.626 3 2.125 3.719-7 9.781-11.5-1.281-7.718 1.094-4.5 3.593-2.5 11.688-4.406.625-2.5-4.5-5.688-1.906-4.594 1.093-3.5 1.5-2 1.594-1.5 15.313-1.312 2.093-4 6.313-11.594 2.094-3.5-2.813-14.813-9-8.28-.406-1.5.5-2.595 1.125-2.5 3.594-5.5.906-15.812 1.5-2.5 6.187-1.906 15.813-3.781 4-.407 3.594 1.094.406 2v2.594l1 1.5 4.5 3.719 1 2-.719 5.093.5 1.5 10.594 5.781.812 8.72 2 1.093 2.688-7.094 3.125-1 1.5-1 2.5.594 2.594.594 17.093 5.906 5.594 1.594 3.906 3.719 8.688-2.907 4.5 3.094.625-3-.406-4.094 4.593-2.5 6.594.188.594-5.594 2.812-16.188.594-3.625 1.594-3.5 3.625-1.5 3.094-1.5 1.593-4 6.594-1.875 6.594.094 11.625-21.593 5.094-.906 1-1.594 7.093-.813 6.594 2.594h.5l1 1.094 7 5.719 9.5 8.78 2.813 8.22 2.687 20.906-3.187 10.094-6.72 4 .407 5.093-2.594 3.5-5.593-.594-3.594 3.5-3.313 11.094-1.093 4 2.5 6.688-2.22 5.625-5.593 3.875-7.687 3.406-4.813 10.594 3 6.219 6 2.093 3.906 6.688 4.094 1.125 1.906 4.594v2l-9.187 3.406-6.5-5.219-5.5-3.094-1.5-1.594-4.625-.094-2.094 2.5-3.094 5.094-4.593-.594-2.407-6.218-4.593-.094-3.907-6.688-8.687 2.375v3.125l5.375 9.188-1.594.5-5.5-3.188-3.187 10.688 5 1.593 7.187-2.906.406 3-1.593 5.125.406 6.094-3.219 7.594-.5-2.094.094-5.094-4-4.125-3 1.5-.594 4 1.407 4.125-4.594 2.5-4.094 5-3.812 11.594-10.688-1.219-3.125 4.5-.594 4-.093 3.625-3.5-2.125.312 11.219 3.5 3.594.5 3.593-5.312 10-7.813 7-8.094.407-7-4.688-4.593.875-1.594 2-4.094 4.5-4.812 8.5 1.312 11.813 2.875 9.187 3.5 4.125 1 1 6.125-2.406 5.5 4.687-2.125 5.5 5.906 11.313.5.594 6.907 10.187 14.5 11.5 4.093-.875 1.907 2.594 4.093 1 8.719-2.313 6.5 3.094 4 6.219 3.375 3.594 1.906 7.187 3.594.125 3.625-2.5.594-5.625-3.5-3.094-1.407-4.593-4-3.094.594-6.594-3.781-14.312-1.406-6.188-1.813-13.719-.781-8.687 5.188-6 8.187-2.406 6 1.687 9.625 2.719 2.094-1-2.5-3.594.593-4-2.5-3.125 1.594-3.594 3.594-4 1.625-2 1.094-6-.313-9.187 1.219-9.094 3.688-8.625 5.593-2.375 18.719 3.375 4 4.125 3.094.094 2.5-1.5.187-7.094 6.594-3 1.625-1.406-1-1.094-.5-1-5.125-.125-1-1 .125-4.093.5-1.5 8.688-4.406 2.093-2.5-2.5-2.594-5.5-2.188-3.5-2.094v-2.5l2.594-3.5 1.625-1.5 5.594 1.094 3.5-1.406 4.687-5.594 3.594-.406 4 .094 2 1 6 5.719 5.125-.906 4.688-8-1.407-4.094.594-4.125 4.625-.875 8.5 6.281h1.5l6.094.594 3.593-6 3.094-.5 2.5 3.625 3.5-.406 5.907-13.094 3.593-3-2.906-8.219.625-3 5.094-4.5 8.187-5 6.594-.281 2.625 1 .875 4.094 2.5.593 1.625-3.594 1.5-.906 3.094-.5 3 .594 3.5 3.594 3 1.125 7.687-.906 4.5.593 3.094-1 3.125-4.5 4.688-4.5-1.5-2.594-3.5-2.593.593-4 1.094-6.625 4.719-5.5.593-5.094-1.906-7.687 1.594-4.5 5.219-5 3.187-10.594 2.594-2 1.625-1.5 3.594-3v-3l-3.5-4.219-.907-2-1.5-3.094.095-5.594 1-1 6.406-13.093.094-8.125 2.093-4.594.625-1.5 1.282-14.687 4.593-5.5 11.407-8.5 5.093-2.407 6.625-.406 6.188-8 .594-6.094 1.093-3.094 4.125-3.906 7.188-3 1.5-.406 4.094.5 3-.406 8.593 1.219 5.125 1.093 7.188-7.5 4.187-6.594 8.72-3.906 5.093-.906 3.5 1.094 2.094.5 6.5 2.219 4.5 3.093 2.593.594 4-.5 5.5 3.219 8.625 1.687 3.094-3 9.188-.906.5-2.5 1.093-2 8.72-4.406 6.593-.875 6.594-.406 6.093-.407 15.72 1.813 7.093 1.594 9.094.687 12.093 3.313 14.22 4.78 13.093 4.313 12.094 5.313 6 2.687 4.5 1.594 4.593 2.594 6 2.719 4 2.093 7.5 6.688 13.625 5.812 11 8.5h.5l2.094-.094 1-1.5-.5-2.5-2.5-1.594-1.906-3.125-1.5-3.093-4-2.094-1.5-2.594-.406-6.094 1.093-3 2.125-3.5 1-4.125 20.688-18.375 4.594-2 8.593.188 3.5 1 6.625-1.406 14.188 1.312 3.594 2.094 3.5-1.5 2.593.094 1.625-7.094 5.094-2 2.094-2 9.687-3.312 7.625 1.125 7.594 1.187 6.5 3.094 7.094 3.219 6 3.687 17.687 3.813 1.407 3.094 3.093-.407 7.125-2.5 19.782 4.406 4 2.188 3 .5 3.093-.906v-4.094l2.125-2 7.094-.906 10.188.219 5 .593 2.593-1.5.125-5.594.594-5.093 2.094-5.625 1.094-1.5 2.5-2.5 5.218-3.375 2.594-2.5 4.594-4 2.094-7.625 7.312-7 4.188-9.094 2.093-4.594 6.813-13.594 4.687-6 5.125-4 4.594-3 5.188-4.5 2.593-3 1-2 1.625-3.5 3.094-4 5.188-7.093 4.218-4.5 7-7.813 10.5-11.187 7.688-6 8.187-3.906 6.625-.907 5.594-1 6.594.688 3.5.5 15.687 6.406 4.5 1.594 4.5 3.125 2 .094 2.125-3.594 2.594-3 5.188-5 2-2 4.593-2.406 5.125-1.5 5.594.594 3 3.093 10.094 3.813 1 1 2.906 7.187 2.5 2 1 2.094 3.906 8.719 3.5 1.594 2.094-4 4.094-3 1.594-1.5 1-1.5-.407-3.094 1-1 3.125-2 7.594-1.906 5.594-1.907 6.094 1.094 7.093 2.125 6 3.688 6 2.093 1.5 2.594 1 2.625 3 .5 3.5 2.594 2 4.094 9.625 2.187 1.5 1.625 2 2.094 7.5 3.094 3.594 1.593 5.5 3.22 3.094-2 2.5-.5 5.094 1.593.906 2.094 4.594.593.5.5 2 .5 5.093-.906 2-.5 2.625 1.125 3.5 2.594 1.5 1.5 3-1 1.5.594v2.5l3.594-.907h4l3 3.094.406 4.625v2.094l1.5.5 1.094-1 1.5-3.5 3.188-4.594-3.094-.5-.5-1.625.594-2 2-2 3.593.125 3.5 4.094 4.5.594 2.907 9.187 2.5 1 8.218-3.875 5.094.594 5.5 2.594 5.594 2.187 7.5 5.219 6.5 4.687 6 4.094 10.594 7.313 6.593.094 5.5 2.718 7.625 1.094 16.688 4.281 12.094 3.813 11.593 4.812 7 2.594 4 3.594 6 10.312 4.5 4.094 4 3.688 6 5.218 5.907 8.188 20 23.687 8.312 15.407 10.406 17.5 5.5 4.593 5.094 1.625 6.094-3.906 8.594 3.188 5 5.093.406 4.125 2.5 3.094v3l5.5 1.688 4.094 3.093 6.5 4.125 11.093 3.782-1.78 14.718 5.905 11.282 6.594 6.218 6.5 1.594 7.688-1.906 3 1.094 2.5 2.5 3.906 7.718 3.5 3.094 3 2.594.5.594 12.094 7.312 8 5.688 3.093 2.593 4-1 2.125-4 2.094-3 2-1 6.594-.375h4.594l10.218-1.312 10.188-.906.5-5.094-2.406-4.094-2.5-3.594-4-3.125-6.594-3.093-3-3.594-3-2.594-.5-1.594 3.594-.906 3.093-.5-2.28-20.406-3-3.094-3-2.594-.407-4.5-.906-6.218.593-8.594 2.625-2.5 3.5-.5 8.688 1.687.5-.5.5-3.5-2.906-6.187-2.5-4.594-5.594-.094-2.406-4.625-2.5-5.094-3-5.687-.907-3.594.5-3.5 3.22-6.625 2.593-6.5 3.687-5.094 3.5-2 7.125.094-.406-6.093 1.594-.407 6.5 1.125 3.094 1 4.5.594 2.593-1 1.5-1 .625-6.094-4.5-5.625-1-1.093-.406-1v-2.5l1.5-1 4.688-9.594.812-13.188-3-3.125-2.5-6.687-.906-7.094-.406-5.094 1.593-3 3.125-8.125 4.188-6.093 3.594-4 6.593-3.407 3.625-2 3.094-1 3 .625 9.094 4.688 4.5 3.094 2.5 3.093 5 3.125 6.594 1.094 3.5 4.188 1.5 2.5 2.906 4.718 1 1h2.594l1-2.5.5-.5h1.5l3.593 1.594 6.625.594 2.875 3.594 1.625.593 1-.5.094-6.093.5-.5 5.594-.5 4.5-.407 5.594.625 6.5 5.188 5.094 3.594 2.406 3.093.5 1-.094 6.625 6.5 8.782.5 3.593-.594 3-.594 4.625 2 4.594v2.5l-2.125 5.094-.593 4.5-.094 3.094 1 4.093 3 5.125 2 1.094 2.5-1 2.094-2 1-.5 3.593-.5 1.5-1-.375-5.594 3.094-5-.5-2-.5-.625-2-3.593.594-4 2.594-2 2-3h2.593l12.625 1.718 2.594.594 2 2-.594 3.094-.5 2 1 2.594.875 1.5v5.093l11 10.313 2.5.094 1.125-2.094-1-6.094 1.594-4 .594-2.5-2.5-2.593-1.5-1.625 1-1 3-.375-.406-1.625-3.594-2.094-.906-1.5.5-1 2.5-1-.5-1-3-2.094.218-11.687-1-2.125 6.594 2.218 4 2.094 4 3.094 1-.5-.906-3.594 1.5-1 3.094-1.5 8.093 2.188.907 2.625 2.093-.5 10.5 7.28 2 .5 2.625-1-.5-1.5-1.5-2.093v-2l2.094-.5 7 3.688 4.594 3.625 1.906 4.093 2 2.594 5.594 1.594 3 3.594 5.406 7.218 4 3.594 3.094 2.094 4.5 2.094 3 2.625h1.5l1.594-1.5-3-3.625-2.5-2.094-2.594-.5-.5-1.5-.406-2.594-.407-6.094.625-9.218 2.094-5 6 3.625 8.688.687 4.5.5 10.218-4.906 2.5 1.594 2 2.625 2 1.5 1.5 3.593 2.5 2.594 2 1.5 4.5 4.188 4.5 9.218 2.5 2.594 2.5-1.5 1-.5 1.594-.5 1 .5.5-1v-1l-2.5-2.094-1-1-2-1.593 1.094-4-4-3.625-6-5.688-.5-1 .5-1.094 1.5-1 9 8.282 1.594.5 6.5 4.218 4 .594.593-.5-.5-2.094-.5-2-.5-2.593 3.625-.407 3 3.094 3 2.594 9.094 2.094 3 2.625 4.5 2.093 2.094.594 3-1 3.594-.5 2 2.594 1.906 4.094 1.594.5.5-1.5-1.407-6.594-5.593-1.594-3-4.094v-1.093l2.593-.907 3 3.094 1 .5 1.5-1.5 1.625-.5 2.5 1.094 7.5 7.719 7 5.187 1-1-1.906-4.594 5.5 1.594 5.094-.5 3 1.094 2 6.094 2.5.125 1.594-1-1-2.625-3-3.594-2.5-1.5-.5-1.594.5-1h2.593l4 2.094 7.625 1.719 2-2.5 3.594-.5 3.5 1.093 1 3 1.5 1.094h1l1.594-2.5 2.5-.5 4.094.094 2-.5 3.093-1.5 4.125-2.5 5 .594 2.594 1.625 1 1 5 2.094 5.594 1.593 4 2.594.906 3.594.5 1.5 6.594-1.375 6.094 1.094 2 1.5 5.593.094 7.125.593 8.594 3.72 9.094 2.187 8.594.593 4.5 2.094 3.093 1.125.5 1.5 7 6.688 2 .593 2.219-10.187 2-4.5 3.594-3.5 2.094-1 1.5-1 4.093-.5 4.625-.906 5 1.093 5.094.5 3.094-2 2 .094 3 2.625 5.094 1.594 2-1-1.907-5.719 1-1 1.5-.5 6.125 2.219 4.594-6.094 1.5.094 1 1-.594 7.094 9.188 1.094.812 10.719 1.594-1 1.5-5-.406-3.625 2.594-3-2.5-2.594v-1l3.593-7.594 3.125-4.5 1.594-4.094 1.594-4v-3.593l-1.906-3.125-.5-4.5-5-4.688-2.5-4.094-.407-6.093-3-2.125-2-.5-5.593-.594-4-3.594.406 5.094-3.5-.094v-4.094l-4-5.094-.906-2.625-.5-4.5-3.5-2.093-2-1.094-.5.5 1.906 4.594-1 3.593-2.594-.094-2-1-.406-3.593-7.094-2.094-3.594 2-.125 5.094-.5 2-2.593 3-3.094 2.5-6.5-4.688-1.906-6.125-4.5-5.094-.5-.593-2.5-5.094-6-3.594-.5-5.125-6.5-1.094-5.594-2.093-7-8.313-4-4.594-.406-3.593 1-2.5-5-2.094-3.5-4.094-1.5-2.125-5.5-6.687-3-3.594-2.5-3.094-5-3.625-2.5-4.094-2.5-2.593-.907-5.094 1-4.094 2.719-5 3.594-6.125 2.5-1.5 5.094-1.875-.407-1.625v-2l2.125-2.5 2.5-2.5 4.094-.5 2-2 5.094 1.625 1.5-1.5 1.094-6.125.094-4.094-4.5-2.593-5.594-2.094-10.094-5.219-4.5-3.094-4.094 1.407-6-.594-3.5-4.594-3.093.5-4 1.375-1.625 1.5h-2l-4-2.594-2-3.593-1.5-3.594-5.5-1.594-4.094-2.125.719-13.187-3.407-7.188-2-2.5-5.093 2.375-1.625 1-3-2-1-.094-2 1 2.406 6.719.5 1.5-1 1.5-1.594 1-6.5-5.719-1.5-3-.906-4.594-2.5-1.093h-2.094l-4.094 7-1 1-2.093.5-2-.5-3.5-3.094.094-5.625-2.5-1.594-4.594-2.594h-.5l-1.625 8.594 2 3.094-2.094 2-4.5-3.594h-2l-.594 1.5-1 5.094-4.187 5-2.5.5-9.219 1.406-4 1.406-4.594-1.593-4-3.094-4-1.125-3.093-1-5-3.188-4-1.5-1-2.593 1.593-3 2.5-3.594 1.594-3-.906-5.625-.5-1-3.594 4.5-3-5.094-2-.594-2.594 2-2-1-2.5-4.093-2.5-1.594-3.5-1.125 3.094-3.5-3.594-1 1.594-2.594.5-1 2.594-2 4 .594 6.125 1.625 1-2-7.5-3.719-2.5-2.094.5-3 3.094 1-1-3 .5-1 7.187-3 3.5.094 2.594-4.093 3 .094 1 1 3 3.594 1.125-1.5v-4.594l7.187-4.5 1.5-.406 1.094-4.094 4 .594 2.094-1 .5-2 1.219-9.188-1.594-.5.094-2.094v-1.5l2.5-1 8.594 1.188 1.594 1 2 1.094 4 2.625 1 2 1.406 5.093 3.094-.906 2.093-4.594-1-2.593-1.5-3 .625-4.625-2.5-4.094-2-4.094.094-2.594-2.5-4.593-3.5-5.625 1.094-2.594-17-17.5-3.5-4.188-1.406-7.593-.094-31.625-.906-7.094.094-1v-5.094l-.782-16.906-3.406-5.594-3.5-2.594-1.5-1.593.594-6.625-1-2-4.5-4.188-3-7.094-1.906-5.718-2.875-6.594-5.22-26.594-1.5-5.594-2.28-10.812-13.813-29.188-15.5-18.093-3-3.625-.406-4.594 1.094-6.094-3-3.594-6.5-4.718-14.094-6.282-10-5.718-16.281 1.812-8.625.813-1 1.593-.094 2 3 2.094-3 2.5-4.594 2.5-3.5-4.187-1.094 4.593-14.719 2.282-10.687 5.5-24.594 16.406-.094 3.594.781 15.812-5.187 12.094-4.719 6.094-7.594 3.406-5.094-.5-4-3.688-2.5-2-4.406-7.812-2.094-.5-3 2.5.407 8.219-1.094 1.5-9.625 1.875-3.594 1.406-11.281 9.5-9.219 5-12.687 3.406h-1l-7.219 3.906-.5.5-13.094-2.718-2-1.594-2-4.094-.5-1-2.406-8.687.125-5.125 1.094-5.094 2.5-2.5 4.593.094 3 3.125 1.407 6.593 1.5 1.094 4.593-.5 1.5 2.594h2v-1l-.906-3.094-4.5-5.594-4.5-5.718-2-2.594-4-5.094-9.5-6.812-4.781-14.282-.5-1.593-1.5-2.625-2.5-4.594-4.906-6.688-5.094-2.093-7.625-.125-2 1.5-9.594.312-3.594-1.5-6-2.687-4.5-1.625h-2.093l-10.719 5.906-12.781 8.5-7.219 5-16.281 7.906-22.5 10.813-23.407 8.875-9.093.812-12.719 1.906-10.094-3.312-4-3.594-6.406-15.906-3.875-4.594-2.625-.594-3.5-.5-13.188 1.782-7.093.906-15.219-.781-5.5-3.125-5-3.094-4.5-5.688-1.375-7.218v-4l-1.5-.594-3.125 3.5-6.5-1.594-2.094 5.594-4.687 4-5.594 1.906-8.125-.594-10.094.282h-1.5l-4.594-1.094-6.593.406-7.5-2.094-6.594-1.718-6-4.094-5.5-5.688-3.406-7.218-2.5-3.594-4.5-5.688-4.313-16.406 1.719-10.187 6.687-8.72h-1111.78l-2.72 3.595-5.687 4.5-7.125 2.406-1.5 2-6.781 7.094-1.094 4-4.625 4-11.188 4.906-7.093.906-4.094.406.281 9.188-5.687 7.5-9.813 11-13 18.594-9.094-1.688-2.093 2.5-.094 3.594.375 4.094-.5 2.5-5.782 10.125-5.718 8.593-3.594-.094-2 3-.188 6.594-5.218 6.594-7.594-.188-6.5-4.718-2.406-2.594-.5-3.594 1.125-3.5 6.187-6.5.094-7.094-1.406-5.718-4.5-3.594-4-1.094-5.094 1.906-10.187 3.875-9.594.813-6.625-3.094-10.281-15.5-7-6.812-.813-8.688-1-4.094-.406-1.5-6.094-1.125-1.5-.593-7.5-3.188-8.594-.219-7.093-.593-11.22 1.312-14.5 15.5-.593 5.094-3.687 6.094-6.907 16.593-10.093 1.407-11.22.812-11.093-.812-5.594-.594-10-6.313 1.188-7.093-7.375-10.782-9-8.406h-1.5l-18.313 1.688-6.5-4.688-7.906-6.812-.5-1.594 3.594-4-2.375-7.688-3.906-7.218-2.313-10.188-2-4.094-1.406-2.625-7.281-14.093h-60.375l-1.532 1-8.093.312-8.594 2.906-4.625-2.125-2 .5-3.188 6-6.593 4.5-7.22 5.407-3.187 4.593-8.093 1.313-14.72 1.812-12.093-3.312-4-2.094-1.5-4.219-3.406-4.093-3.094.406-2 1.5-2.187 5.094-3.094 4-10.219 3.406-13.187 2.187-18.813 2.22-8.094-.22-16.187-.28-24.813-2.5-17.593-4-17.094-6.907-8.5-4.313-6-4.687-1.5-1-2.5-2.594-3-3.219-1.438-1.593H188.436zm2654.093 0 .375 3.719.906 6.593 1.876 6.688v3l1.906 4.219 2 1 2.5.593 3.094 1.594.906 2 .5 3.594-1.094 4.594-.594 5 .281 6.218-.093 7.094-1.188 8.094-1.594 6.094-.125 3.624 1 3 3 3.188 2.5 1.5 3 1.094 4-.406 3.125-1 2.594-3.5 1.594-3.5 1.093-4.594 1.094-4 1.625-4.094 2-1 3.094-.906 4.594-1 2.5-1.406h3.593l2 1.624-.093 2.5-1.5 1.5-1.594 1.5-1.594 3.594-1.5.5-1.5.907-1.625 2.093.5 1.5 1.906 3.594 1.5 2.094 2 3.094h3l4.094.124 6.125-4 4.188-6.5 3.593-3 2.594-4 1.625-4.624.688-6.594-.907-5.594-.406-5.094-.5-4.093-1.375-2.626-1.5-1-2.125 1-1.094 3-3.593 3-1 1.5-1.594 5-1.094 3.126-1 1.5-2.125.5-3.5-1.626-3-3.093-2.5-1.094-3-2.594-.375-3.093.594-4 2.093-5.126 2.094-3.5 3.719-8.093 3.688-7.094 2.312-13.187.062-.72zm1287.032 0-.376 1.906.5 2.094 2.5.5 3.626-1.906-.5-2.594zm632.843.5-3.5.906-3.093 1-4.126 3.5-3.093 3-2.594 4.094-2.594 5-3.093 7.094-2.626 6.124-5.593 2.876-5.688 6.124-4.594 4-4.125 2.5-6.093 2.876-7.188 2.5-1.5 2-1.594 2.5-1 4.124-.125 4.594 1.5 4.594 2.407 4.594 3.5 4.094 3 4.124 3 2.594 2.5 1.594.5 1.5 1 1.094h2l1-1 1.593-1.5 1.5 1 2 1.094 1-.5-.5-1.5-3.375-5.188-3-6.187.594-2.5 1-.5 2 .593 5 6.594 2.406 5.688 1 4.124.375 7.094.907 6.688.906 4.594 1.5 5.124 2 4.094.906 3.594 2 5.094 1 1.5.406 4.594.5 3.124-.625 2 .5 3.094 1.5 2 .5 2.094-.094 2.5 1.5 6.188 1.407 4.624 1.5 3 5.5 4.188 4 2.094 3 3.094 3 4.624 2.5 2.094 4 3.094 4.5 3.594 2.5 1.594 1.5 1.624.5 1.5 1.5 1 2.593.095 3-1.5 1.5.5 1.5 2.093-.5 1.5-1.093 2.5-1 4.594-.594 3-1.094 4.594v3.125l.375 4.594 1.5 3 .5 2.093v1l.5 2 1.5.594 3 .5.5 2.094 2.5 1.5 5 1.625 5.125 1.094 5.594.593 2.5.094 3.5 1 2.5 3.094 2.5 2.125 4.594.594 4-.5 2.093-1 2-2 .594-1.5-15.281-30.313-2.5-3.093-2-3.594-2.5-5.094-.406-3.625-.5-2.5h-1.5l-.5 1-.094 3 .5 2.625.5 1.5v1.5l-.594 1.094-1-.094-2-.5-1.5-2.625-1-2 .094-3.094.594-4v-2.594l-1-3.093-2-1.5-1-3.094.094-2.5-.5-3.625-1.407-4.094-2-2.594-3-2.593-4.093-1-2-2.094-2.407-3.625-1-3.094-2-3.594-2-1.5-3-2.593-3-2.094-1.5-2.625-.5-3.5 1.625-3.094 1-1 .594-1v-1.5l-1.5-2.594-.5-1-1-2.093.594-3.5 3.094-6.094 1.593-6.125 1.125-6.094 3.688-9.094 3.094-5.093 4.093-2.907 5.625-2 3.594-2 3.5-1 1.094-2 .594-6.593.593-7.094 1.125-8.219 1.594-6.594 3.188-7.593 1.593-6.094 1.5-2.5 2.625-2.5 3.594-2.5 5.594-2.406v-3.594l-1.906-3.125-2.5-4.094-4-2.094-6.094-2.093-5.594.406-3 1-6.094 2.875-7.218 1-7 .406-6.094-1.687-2-.5-2.5-1.094-4.594-3.125-.406-2.5-1.5-2.094zm-1946.812 5.219-5.188 4 3.5 4.593 3.907 6.188 3 2.594 4.593-.376 1.5-.5.594-5.124.094-3.5-3.5-4.188-3-3.094zm1374.312.78-3.593 2-1 .407v2.094l2.5.5 2.093-2 .5-2zM2700 1979.594l-2.594 3-.5 2.095-.593 4 3.375 3.718 3.625 2.094h3l3.593-1.406.5-4.094-3.406-4.687-.5-2.5-1.906-2.126zM4400.094 1987l-2.5 1.5-1.594 1-1 1.5 1 2.5 3.5 2.594 3-.906 3.094-3-.406-3.594-1.5-1.594zm-1565.5.906-2.094 1.407-2 .5-.5 2-.094 4.093 2 2.094 3.5 2.594h2l2.594-6-1.906-4.094zm1346 9.907-3.094 1.5v2.5l1 2.593 2.5.5 2-2 .094-2.5-2-2.093zm343.719 50.687-3 .5-3.125.406v1l-.5 1.594 2 2.5 4 .094 2.125-1.5 1.093-3-.5-1.094zm209.375 27.094-1 .5-.5 1.5 1.5 2 1.5 1.594 3-.5.5-1 .125-2-1.5-1.594zm42.218 63.719-2.593 2v3.093l.5.5 4 .094 2.093-1-1.5-2.093-.5-.5zm-11 24.28-3.093 1.5v2l2.093-.405h2.5l.5-1 .5-1.5zm.907 8.22-4.125 1.5-1.5 2.5 1 2h1l1.5.093 1.5-1 2.125-2.5zm14.593 6.78-5.093 1-4.625 3-3 .407h-2.594l-2.5 1-2.094 2.5-.5 4 1.406 3.094 2 1.594 1 .5 1.594-.5 1.5-2 2.094-3 1-1h2.094l.906 2.624-1.5 4-1.594 3.594-3.687 6-3.125 5.594-1.5 1.5-.594 2 1 2.594 2 2 2.5 1.094 2.5 2.124 2 2.5 1 3.594 1.5 2.094 1 1 2 .5 2 1.094 1 1.5 2 2.094v2.5l-.594 3.124.5 1 1.5 4.094 2 2.594 3.406 7.188 1.5 3-1.093 3.124 1 3.594 3 4.094 4 5.594 1 1.594 1.875 2 4 5.218 1.5 4.094-.5 2-1.594 1h-1.5l-4.094.406-.5 1.594-.5 2 2 3.094 4 2.594 3.5 1 2.594.124 1-1.5 1.094-3.624v-6.094l.125-5.094 1.093-2 1-1 2 .5 3 .594h2.094l1.5-2 2.094-3.5.5-2.094 2.094-1.5 2.5.094 1.5 1 1.625-1.5 1-4 2.093-2 3.594-3.094.5-3.5-.906-4.094-1.5-2.093-2.5-2.5-2-4.625-1.406-4.094-1.5-4.594-2-4.094-.875-3.593-.5-5.125-.907-4.594.594-5.094-1.906-8.187-2.5-5.625-2-4.594-2.406-7.187-4-4.094-4-3.625-6.5-3.688-8.094-1.594-8.094-.218-6.094-1.094zm14.688 104.095-3 1-3.094 1 .5 1 1 1.5 1.5 1.124 3.594-1.5h.5l-.5-3.124zm-24.406 4.812-2.5 1.406-.5 1.094-.094 3 1 2.594h1l1.5-1 1.593-.5 2.5-2-1-1.5-.375-1.094zm19.218 8.906-2.093 2.5V2303l2.5-.5 2.593-1.5v-2.5l.5-1-2-1.094zm-40.593 3-2.125 2 .5 3h.5l2 .594 2-.5h.625l.5-2.5-1-1.594zm-9.72 2.907-1.5 1.5-.593 2 2 1.593 2.594 1 2.5-4-.906-2.093zm56.313 1.28-1.093.5v3.095l.5 4 2 1.624 4-1.5 1.593-4.5.094-2.624-2.094-.5h-1.5zm-36.093 3.595-2 1.406-1.125 1.594-.5 1-.5 3 1 1 3 .624 2.625-2 1-2.5-.5-3.124zm47.687.124-1.594 1-1 2.094 1 2 5.5 1.094.594-3.594v-1l-.5-.5-1-.5zm4.406 8.782-2.093 3.5 1.5 2.594 2 1.5 2.593-1.5v-3l.594-1.594-3.094-1.5zm-44.812 14.094-3.594 1.406-1 .5-1.594 2.594 1.5 2 1.5 1.124H4767l1-2.5.594-3.624.5-1zm-14.781 6.406-3.125.906.5 3.094 2 1.094 1.5-1h1.125v-3.094zm-10.72 5.406-2.593 1 1 3.094 2.5 2 3.094-1.406 1-3.594zm114.813 20.5-2.093 1.5v2.594l2 2h2l2.593-.906-1-2.594-1.5-1.5zm217.282 51.906-3.5 1.5-3.094 5.094-2.594 3.5-.594 5.094 4.094.5 2.5-3.5-.406-2 4.094-4.094 4 1.094 3.125.094 1-2.094-2-2-2-1.594-3-1zm-167.282.688-.5.5-.094 2.094v1.5l1.5 1 1 .124 1.594-.5 1.5-1.5v-1.624l-.5-1-1.5-.5zm249 3.5-2.093 1-1 3-8.72-.094-4.5 1.5-1.093 2v2.5l2.406 5.187-.5 1-5.593.907-.5 4.593 8 3.72 5.093 1.593 5.5 3.594 17.688 2.812 9.594 2.688 1 1.5-5.094.906 3 3.594v2.093l-2 2-.594 1 4.094.625h1.5l1 2-3.094 3-1.094 4.094-1 3-4.093 1.5-3-.5-2.625-.094-.5 4.094-3.094 1.5v2l3.5 2.094 10.094 1.687 3.125 1.5-2.625 2.5-9.094-2.094-3.094 1.5-8.594-1.687-5.593-.594-6-.625-7.22 4.5-3.593 2-2 2.5-6.187 8.125-5.125.375-8.094-3.094-6.094 3.407-1.094 3.593 1.5 1.5-1 2.094-3.093 4.5-1.125 1-1.5 1-1.594 4.5-1.094 5.625-1 3.094-2.094 2.5-4-1.594-2.593 1-1.5.5-2.125 7.094-3.188 6-1 1-.5 1.594-.5-.094h-1l-.5-1.5-7.5-5.72-2-3.093-6.094.406v-2l2.594-2.5 2.5-2 .594-3.093v-1h-2l-3.094 1v1h-2l-4.094-3.094-4-3.125-1-2.094.594-1 2.5-3 1.594-.5.5-3.094 2.094-3-4-5.593-6-2.72-4.094-.5-3.094 2.5-2.094 5.5-2.093 3.626-2 1.5-.625 3-3.594 3.5-2.5-1.5-2.5 2-.594 3 2.406 8.687-1 2-6.218 5.5-1.094 6.094-.5 2.594 2 3.5-4.094 4.125-.094 2.5-1.094 6.094 2 1 2.094.094 3.5-2 2.594 1 1.094-6.094 1.5-1.5 2.593-1.5 3.5-1.406.125-3.594-.5-5.094 1.594-5 1.594-2.125 1.5.625-1.594 6.594.406 9.594-1.125 2.593v2l7.125-.906 2.5 1.5 2.594-2.5 2 .125 1 2-.5 2-4.719 4.5-1 2.094 2 2.5 1 1.094h2.5l2.125-3.5 1.5-.5 1 2.5-3.125 4.093-7.093 3.407.5 2.093h3l3 2.094h1.5l4.218-4.5h4l1-.375 1.094-6.625 3.594-1.5 2 1 2.5 4.125 2.5 3.094 3.5 2.594 1 3.093-.5 1-5.094-.094-.5 1h-1l2.406 4.094 2.594 2.094 5.094-2.5 1.5.5 1.5 2.125-1.094 2.5-4.594 2-.5 2 .5 1 4.594-1.406 2 .5 1.5 3.593 2.5.5 2.5.594 2.094-3 4.094-5.594 1.093-6.593 2.125-1.5 3.094-5 2.594-1.5 5-.407 4.594 1 1.5 1.594-2.594 3 4 9.219 4.5 2.094 4 1.093 2.094-1.5 3 1.5 1.5-.906.094-8.187 1.625-2.5 5.875 11.28 1 4.626 2.5 2 3.625-2.5 1.5-.5 3.093.594 3.094-6.594 1-1.5 1.594-1.5 1.5.5 1.5 2.094.906 3.593 3.094 2 6.094-2.406 14.312-7.5 1.5-1.5 2.594.094 5.5.625 7.219-6.625 3.187-6.5 2.5-2 4.094.5.906 6.125 4 2.594V2596l-2.094 3.093-3.093 1.407-2 2.093-1.625 3.5-.5 2.5.406 3.594 3.594 1.125 3-2 4.625-1 .5-1 1.593.5-1.5-4.125 1.594-4-2.094-1.594.594-1 2 .094 4 2 5.094-.375 2 2.094-4.594 1.906-1.594 4.094v5.594l3 1.5 3.5 3.687 5.094 2.125 4.5 1.5 5 2.188 2.094-3.594 5.094-.906 6.625-1 6.593 3.187 2.5 3.625 2 .5 3.594-4 1.594-9.218 2.094.094 3.406 7.125 6.094 1.593 6.625-2.906 5.687-5.5 1-2.594-2-3 .094-4.093 5.719-7.125.5-3.5 4.094-4 .593-5.094v-1l-.5-3.094 4.688-10.594 1.625-2 8.187-8.593 3.188-7 1-3.125 1.625-3.5-1.5-3.094-5.5-4.094-3.5-5.187-3.125-.5-2-.625-7.594 5H5309l-9.5-10.282-4.5-4.593-8.093 1.375-2.594-1.094 1.094-5.594-1.5-2.5-.5.5-4.5-2.594 1.093-3.593-.5-4-1.906-9.22-1.781-14.28-3.625-3.125-.875-6.094-1-2.594-1-1-2.5-2.094-5.625-.593-3.5-4.125-5-.594v-2h1l2.125-1-.5-3.5-1-4.594-2.5-2.094.594-3.593-2-6.125-2.407-5.094-3.593-.594-6.094 3.5-.625 3.594h-.5l-3-.594-2-1.5 2.125-3.594-3.625-2.093-10-6.22-11.094-6.28-7.094-.125-4.593.5-3.5-.594-2.594 2-4-.5-4.125 1.406-10.094-.094-10.687-1.219-.5 1.625.5 2.5-1.594.5h-1.5l-2-2.125-.406-3zm-61 4.812-2.5.407h-1l-2.093 2.5.5 4.093 3.5 3.094 4 .094 3.093-3.5L5099 2426l-1.5-2.094zm14.688 5.282-3.594.906-1 2 .906 3.594 2.5 1.624H5112l1.594-4.5-1.5-1.624zm-168.406.218-4.094 1.407v2.093l.906 2.5 4.094-.406 1.594-3.094-1-1.5zm-15.782 3.282-3.093 3.5v3.124l4.375 6.094 4 4.188 4.125 3.094 3 .5 5.093-.876v-2.124l-2-4-3-3.094-2-2.094-4-3.594-2.5-2.593-2-.5zm107.282 14.718-3.5.5h-1.5l-.094 2.5 2 2.094 2.5 2.094 3.093.5.5-.5.5-3.594-1-2zm40.625.594-2.625 1.5-.5 3 .5.594 1.5.5h2l2.625-1.5-.5-2zm66.375 2.406-.5.5.5 1.594 2 1.5h1l1.5.094 1.125-.5.5-1-.5-1.094-1-1-3.625-.094zm15.218 2.782-3.093 1.5-1.5 1 1.5 4.124 3.5-.5 2.593-1 1-.5-.5-3zm-108.593 3.624-3.625 1.5.5 2.5 3 1.594 2.125-.5.5-1v-2.593zm-27.907 2.094-3.093.5-1.5 2 1.375 4.094 4.625.094 2.593-1.5.5-3.094zm146.5 4.094-4.593 2.5.5 2 4 2.094 3.593-2 1.094-3-1.094-.5zm-52.812.313-2 .5h-1l-1 .5-1.594 3.5-.5 2.5-1.594 2-1 1.593-1.593 1-1 .407-1 1.093-.5 1.5.375 2.5.5 2.594 1.5 3 2 1.594.5-1v-1.5l.125-1.594-1-1.5.5-1h.5l2.5.5 1 .094.593-2.094.5-2.5 1.094-3.593 3.094-2 2.5.593 2.5 2.094.5 3.5-1.094 1.5-2 .5-1.594.5-3 3-1.093 2v2.094l1 .5 4.093-1.5 5.594-.375 1-1v-3.125l1.594-2.5-.5-4.594-.406-1-2.5-2.594-1-2-.5-3.593-3-2.094zm-27.906 3.687-3.594 1.5v1.5l.5 3 3 .094 3.094-1.5 1-2.5-1.5-1.594zm-21.782.188-4.093 2-.625 4 3.125 1.624 1.5-.5 1.5-2.5.094-1.5-.5-2.124zm-19.812 3.312-4.594 1.406-2.094 1.5 1 3.094 3.5.594 2.594 1 3-1 2.094-3-1-1-1.5-1.094zm-20.906 2.188-2 1.5.5 2.124.906 2h1.094l2.5-2-1-2.5h-.5zm120.718 1.218-3.5 2.5.407 2 .5 3.594 2.5.5 1.593-.5 2-4 .094-2-1-1.094zm11.688 1.188-2.5.406-2.094 4.094.5 2 3-1 3.594-.406.5-1-.5-2.094v-1zm9.594.094-2 2-1.094 3.5-1 1.625 1.5 3 4.094-3 1-3.5zm-42.782 13.125-1.5.5-3.093 1.5.5 1.5 2 2.094 1.593-.5 2-.5-.5-3zm10.188 1.187-3.094.5-1 .5-.5 1 1 2.5 2 .594 1.5-1h.5l.094-2.094zm-155.781 2.407-3 .5.375 3.093 2 2h1.5l2.125-.406 1.5-1-1-3.094h-.5zm87.78.187-1.593.5h-2l-2 1-.094 1.5.5 2.594 2 .5 2.594-2zm-114.78 10.094-1.625 3.125 1.5 2.5 2.5.094h1.125l.5-1.5-.5-2.594zm67.375 2.5-2 1.5-.094 2.5 1 .625 1.5.5 2.593-2zm65.218 18.219-2 1h-1.093v1l1.5 2.093 2.093-1 1-1.593-.5-1zm9.594.094-2 .5h-.5l-.5 2 2.5 1.093 2.5.5-.5-2.5-.406-1-1.094-.594zm-7.687 10.093-1.5 1 1.5 2.094 1.5.5 2-1 .593-2h-1.593l-1.5-.594zM4597 2549l-3 1-.094 3.094 5.594 3.593 5.906 7.72-.594 7.093-3.625 2.5 2.5 3.594-1.093 6.093-4.094 4-3-1.5-4.594-1.593-1.5 1.5 1.5 1.5 6.5 2.718 6.094 4.094 5 4.688 13 10.906 12.594 6.188v-2.5l-11-9.782-.407-3.094 5.625-4 1.5-1 2 5.688 3.5 2.5 8.094 2.688 9.094-.376 2.594-.906 5.593-2.5.5-3-5.5-5.719-5.593.907-2.5-2.094-.407-2 5.5.094-1.875-4.094-9.625-7.812-5.093 3.5-3.5-.094-5.5-5.594 1-3.594 4.593 1.094 5 2.094 4.219-4.5-1.5-2.594-6-5.687-2-3.5-4-5.22-2.594 1 .5 6.095-4.625-1.594-3-1.594-2.593 1.5-4 .5-3.094-1.094-5.5-5.719zm82.188 1.813-3.094 2.5 2.5 2 1.5 1.593 1.5 1 5 4.188 1.5 1.5 2.093 1.093 3-1-1.5-2.593-1.5-1-2-2.094-.5-1.5-3-2.594-2.5-2.594h-1.5zm-15.282 3.78-2.5.5-2.593 1-1 2 .874 4.095 2 3.124 1 3 1 2.594 2.907 4.594-.5 3.5-1.5 1-1.094 1.094-1.5 2.5.406 2 2.094.5 3.5.094 3.5 2.125 5.594.094 3.593-1.5 2.126-4-.5-1.594-1-1-1-.5-2-1.625-1.5-2-1.5-1.594-1-1.5V2571l-.5-1 .593-2.5.5-3.093-.5-2-.5-.5-1.406-2.594-2-2.125-1-2-3.094-.094-1.5-.5zm-77.218 7 1.5 3.595 6 4.718 6 1.594.624-1.5-4.5-3.187-3.624-2.626-5-2.593zm93.312.907-2.5 1 .406 4 1.5 1.594 2.094-.5 3.5-.407.594-3.093-1.5-2.594zm40.094 2.594-3.094.5-1.5 2v1.5l1.906 3.593 3.094 2.126h1l2.5-2.5-.406-2.126v-1.5l-.5-2-1.5-1.093zM4440 2566l-4.094 2-1.093 3.5 1 1.594.5 2 1.5 3.593.374 2 .5 3.126-.5 3-.093 1.593 1.5 1.5h1.593l2.5.094 1.5-1 3.125-1.5 2.094-2 2.5-2.5 3.094-1.5 1.094-3 1-2-.5-2.594-.5-1-1-1.093-2.5-2-3-1.125-1-1-2-.094h-2.094l-1.5-1-1.5-.094zm260.188 7-.594 3 1.5 1 .5 2.594 1 1 .5-.5 1 .5.5.593.593-1 1.5-1.593v-1.5l-2-2-.374-2.094zm-225.782 1.188-2.593 2-1 2-.126 2.5 6 7.218 5.5 2.688 3.626 1 .5-1.5 2.093-3.5-1-4.094-2-1.594-1.906-4.094-1-2.5-3.594.376-1.5.5h-2zm567.188 2.624-3.594 2-.5 1.5 2 2.094 2.5.5 2.094-1 1-1 .594-3.5zm-21.781.188-3.125 2 .5 1.5 1 1.094 1.5 1.5 1-.5 1.125-1.5-.5-2zm-32 1.594-.5.5-1.125 2.5 2 2.093 2.125.5 2-.874 1.093-2.126v-2l-1.5-.5zm-469.907 1.812-1.5 1.5-1.093 1 1 1.594 2.593 1h.5l1.5.594.5-.5.5-3.094.594-1-1.5-.5zm170.5 0-2.593 4.594 1 3.5 5 2.094 5.093 2.718 3.5-1-1.5-2.624-2.5-2-2.5-3.094-2-2.094-1-1zm27.907 2.5-2.125.406-2 3.594.406 1.5 2 2.594.5 1 5.594.594 5.125-.407 3.093-1.5 1-2 1-1.593-3.5-1-4.593-.594-3-1.594-2.5-1zm235.875.781-1.5 2.5.906 2.626 2.094 1.5 3.5-.907 1.625-3.094-1.5-2-1.5-.5zm-52.782 3.313-3.593 4 .5 2.594 1 1 2.5.094 2-.5 2.593-3.5.094-3.594-2.594.5zm161.688 8.906-2 .5-3 1-1.094 2.5 3 4.594 3.594-1.5 1.5-4-.906-3.094zm-574.906 3.906-1.594 2v2l1.5.594h1.5l2 .5h1.094l.5-1 1.5-1.5-.5-1.5-1-.5-1.5-.594zm623.5 4.876-3 2.5.406 3.124 1.5 1 2.594.594 1.5-2.094v-1.5l-.875-3.624zm-518.282 15-2 .5-1.593 4 2 3.624 1.375 4.094 2.5 2.594 4.125-2.5.094-1.5-.5-2.094-1-2.5-.5-.594-2-1.5zm675.282 10-3 1-1.094 1-1.5 1 .5 1 1.5 2.124h3l2.094-2 .5-3zm-839.875 39.406-1.625 2-.188 10.718-2.594 6.5-2.093 7.594.875 4.594 1.5 3.094 13.625 6.812 5 .094 3 4.094 5.093.094 2.094-3.594 5.094.594 3.5-1.375 2.094-4.125-.875-6.594-4.907-8.687-14.5-19.094-6.5-2.125zm-177.5 21.593-.625 3.126 3.5 4.593 4 2.094 2.625 1 1-1v-3l-.907-3.094-4.593-2.094-2-1.5zm-549.625 21.5-3.094 2-1 2.5 2.5 4.626 1.5.093 4.094-3 .5-1-1-1.593-.875-2.5zm751.125 11.72-.625 2 5 5.593 1.5 5.688 2 1.5 9.625 2.218 2-1 .593-3.5-3-4.094-4.5-4.218-7.093-.594-3.5-3.094zm-103.125 1.405-3.5.5-.094 2v1.5l2 3.094 2 .5 2.093-2.5 1.5-1.5-.5-2-.375-1.5-2.125-.094zm-605.188 8-.594 3.5-.5 3.094 1.5 1.5-1.093 1.5-1.5 1-.5 1.5 3.875 9.781 3 3.126-.094 1.5-3.5.374-5.188 4-3.5 1 3.5 1.626h3.5l4.094-.407 1.094-2.5 2-1 4.5 2.094 6.593.594 1.5 3.093 2 3.626 3.5 2.093-.094 2.5-.5 2.5-1.5 1-5.094.5-2.093.906-.594 6.094 1 1.594 3.5 1.094 2.5 2.5 2 1.093 2.594-.5 4.187-6 .5-1.5 1.5-.5 4.094.626 1 1-1.094 4.593 1.5 1 2-1.5 1.594-3.5 1.625-1.5 2 .5 1.5 2.594.375 3 7.719-2.406v-1.5l-1.5-1.5-4.5-3.188-1-2.5-.407-2.094 1.5-2 5.594-.906 2.094-2-2.875-9.719-6.219 3.407-2-1-3.906-5.688-.5-4.594-14-13.406-7.5-4.219-6.5-3.687-6.094-2.094zm737.406 10.282-4.593 2.5-5.72 7 3.5 5.718 4.5 2.094 14.095 8.281 12.125 8.907 6.375 11.218 12.906 18 8.594 5.688 2.5 4.688 2.812 11.218 6.5 7.188 12.094 5.312 7.094-.906 13.718 5.813 14.688-.313 4.5 4.594 9.094 3.718 14.312-5.406 5.688-5.5-1.5-5.594 2.718-7.624 13.782-5.876 3.625-4 1.093-8.624 8.407-15.688-2.5-4.094-19.22-7.406-4.5-3.094-6.187 3-4-3.594L4612 2770l-9.906-16.906-3.5-1.594-.5 2.5 4.406 8.813-.687 11.093-7.126 4.5-6.093-1.094-5.594-3.624-26.687-11.594-20.72-10-5.593.906-15.187 3.406-10.22-1.719zm-799.5.312-3.093 1-1 3 1.5 2.094h3l1.593-2.5v-1zm184.782 1.094-6.188 4-.094 3.5 4.594 3.188-.594 3-5.094 2.5-1.125 2.5 2 1.5 6.125-.376-.5 3.594-4.625-.094-1.093 6.094-2.594 4.5-2.094 1-4.094 6.5-4.625 1-.593 4 1 2.594 5 2.593 8.093 2.22 5.125-2 2.594-4.5 7.188-2.407.5-2-2.5-2.094v-1.5l1.218-8.719 1-1 5.188-5 .5-1.5-.406-4.093-.5-2-2.407-6.094-4.5-8.812zM3672 2760l-2.5 1-2.094 3.5-.594 2.594 1 1 1.5.5 2.594-.407 1.5-2 .094-2.593-.5-2zm653.094 18.906-7.188 2.406-3.094 3.5-2.125 3.5 1.5 1.594 3 5.094-1.093 3 1 .594h3.593l1.5 1.093v1.5l-2.187 6.626-2.594 6.5-6.219 7.093-6.687 3.406-3 1-2-1.124-3.094-.5-4-4.688-2-1.5-2 .5-2.594 1.406-4.125 3-2.5 2.5-3.093.5-3-1.094-6.594-2.624-6-2.688-5.594-1.094-8.094-3.594-1-.124h-3l-2.625 1.5-3.093 2.5-1 1-4.688 4.5-2.5.406h-3l-2.594-.594-11-9.312-4-1.594-3.125-1-7.593-.688-13.188.781-26.406.626-12.594-3.72-2.094 1-3 .907-.125 1.594 6.125 4.593 3.5-.374 4.594-1 2.5.093 1.594.5 5 3.094 2-1.5 2.094-.906 2 1.5.406 3.594 3.5 5.625 10.094 1.687 12 14.406 3.406 8.688-2.688 11.219-3.125 4.5-6.687 4-6.188 8-9.406 13.093-5.594 3.907-5.625.375-3.593 2-.5 1-1.688 12.718-2.719 6.594-6.187 6-22.5 10.813-24 11.281-6.813 8.5-.593 7.219-8.282 13-3.718 6.593-2.594 4-3.094 4.5-3.594 2.5-11.5 16.094-.5 3.5.375 7.563h771.282l-.657-1.375-2.5-4.094-2-3.594-17-18.5-7-4.687-15-19.5-9.5-11.813-2.5-1.594-2.5-2.593-4-4.625-6-5.188-21.812-3.812-3.5-1.094-5.594-2.094-8.594-2.687-10-5.719-31.312-12.687-13.313.28-9.593 3.407-15.282 2.406-4.125.906-9.593-2.218L4616.5 2915l-8.094-3.687-4.5-1.125-4.094.5-2.625.906-5.093 4.5v1.094h5.093l1 .625.907 3 .5 1 2.593-.407 1.5.5 4 6.188-.094 1.5-7.187 5.5-3.5 1.406-4.594-1-4.5-6.687-2.5-1.125-2-.5-11.719 3.906-2.593-2.594h-2l.094-3.094-1-.5-3.094 1.5h-1.5l-1-1.093-4.5-5.125-5.094-2.594-11.5-11.906-6.5-2.594-4.5-4.187-5.5-5.72-6.094-3.093-6-5.187-7-6.22-3.5-5.593-3.406-7.187-8.094-2.22-6.625-2.593L4455.5 2847l-13.094-7.312-15.594-10.5-19.218-4.282-6-3.218-3-6.594-21.188-9-9-4.687-2.5-5.094.094-2.125 3-1.875.594-1.625-2-3.5-2.5-5.188-4-2.094h-2l-9.281 4.907h-3.5l-11.125-5.313-7.594-.594zM3618.312 2783l-3.125 1-.5 3.5 1 1.594 2.407 3.093 1.593.5 2.5-1.5 1.125-2.5.5-2-2-2.093-1-1zm514.594 12.094-2.094 6.093-.625 3.626.5 1 2.5 3.093h.5l4.125.594 1-.5.5-3.594-1.406-3.594-1.5-3-1-1.124-1-1-.5-1zm-29 2.093-4.094 2-2.5 1-1.125 1.5-.5 2.5.5 1 1 1.126 1 .5h1.5l3.625-2 1.5-1.5 1.594-2 .5-1v-1l-1-1zm17.188 2.813-3 2.5-.594 2.094v3.5l.5.5 2.5 1.093 2-1 2.094-3.5-1-2.593zm-1337.407 5.406-2.593 1.406-1.5 1-.594 3.094 2.5 2.594 3.594-.5 2-1.5 2.093-3-.5-1-1.5-1.5zm927.125 2.094-1.625 2.5-.094 9.688.407 3.5 2.5 2.624 1.406 6.094-1.094 4.594-2.625 6-3.594 1-1.5 1.5 1 2 .813 8.188-.5 1-1.719 7.624-6.187 8-7.188 4-5.719 8.5-3.093 4.5-3.094 4.594-.219 11.094-2.594 2.5 2.407 4.688-3.094 3.5v4.5l1.781 9.218 2 6.094.406 5.594-1.593 2.593-2.094 6-1.594 1.5-2.625 3-7.187 6.5.187 20.813-2.594.5-1.593 4.094-1.094 5 3.5 3.093-.594 5.126 5.5 9.187 9.594-.312 3.094.624 3.5.5 2.5 1.594 8.593 2.188 6 4.593 7.594 1.72 5.625 1.093 3.094-2.5 7.094-1.906 9.187-4.407 2.813-10.593 4.093-5 12.313-4.407 6.687-9 4.594-1 3.625-2 1.594-4 1.594-7.093 1.187-9.094.125-5.594.094-4.594-2.906-9.218 1.687-8.594-3.5-7.187-3-3-2.875-7.72-3.906-9.187.188-10.719 3.218-8.593 4.094-5.5.094-6.094-2.312-14.312-1.5-1.5-.5-.594-1.875-5.094 2.093-6-.406-1.594-3.594-2.094-5.5-4.624-2.5-3.594-3.5.406-.5-2 1.094-2.594 2.094-3 4.594-1.906 2.5 1 1.406 3.594 4.094-2 3.125-2.907.094-2.093-3.5-4.094-1.5-2.094-4-1.594-3.094.5-5.625 2.376-5.594 1-10.187-.688-2.5-1.594-1.907-4.094-5.093-1.624-7.594-2.688zm-841.312.5-3.594 1.5h-1.5l-1.094 4.5-.625 1.5 1.5 3.094 2-1 1.125-1 2.5-1.407.594-3.593.094-2.5h-.5zm752.687 13.188-6.093.906-5.594 2-.594 3-4.094 3.5-.5 1.5 4.875 6.718 1.907 8.688 3.5 4.094-.594 2.5-1.5 3.093-4.688 3.407 2 3.593-1.125 4.626-2.187 8.093 1.094.5 3.5.094 4.593-1 5.5 1.688 4.72-2 2.093-6.594 4.094-4.5 5.312-8 4.094-2.5.594-8.594-1.5-3.094-.907-5.593.125-6.125 2.094-2 4.094-1 5 .125-.906-2-5.594-.625-7.094.406-6.094-1.187-4-1zm1019.907 6.718-2.5.5-1 1-2.094 1-.5.5v2.5l.5.5 2.5 1.594 1.5-.5 2.594-.5 1-2.5v-1.5l-1-1zm-1143.407 31.781-2.093 1-1.094 4.626.5 4-1.594 4.593-1.219 7.594h2.5l2.72-4 3-.906 1.28-12.188-.5-2.594-2-2zM4019.5 2897.5l-3.5 1-.094 3 1.5 2.094 2 .5 2.094-.407 1.5-2.593-.906-2zm-1188.906 58.188-1.094.5-1.5 1-1.594 4-1.594 3.624-1.624 3.5.5 2 2 2.594 2.5 2.594 3 2.094 3 .094h2l.624-1 .5-1.5-.406-2.594-1.5-1.5-2.5-2.594 1-3 .594-3.094.5-1.5 1.594-.5 2.5-.406h3.094l1-1-.5-1.5-1.5-.5-.5-.094zm-11.688.312-1.5.5-.594 3 .376 3.094 2 1.093 1.624.5 1.5-.5 2.094-4-1-2.593-1.5-.5zm40 34.313-.594 1.5-.5 1.593-2.124 5-1.094 2v1.5l2.812 10.281.406 6.626.407 2.75h25.719l1.25-1.25v-1.5l-1.376-3.126-1.406-5.093-1-4.094-1-.5h-1.5l-2.594.406-1.5.5-1.5-1.5-.5-2.594-.406-1.5-1.5-1.124-2-1-1-3.094-1.5-3.094-2-.5-2.5.406h-.5l-.5-1-1-1-.5-.594z" style="fill:#9faec0" transform="translate(0 100)"/><path stroke="#9FAEC0" stroke-width="10" d="m1957.938 3021.563-.032 1.03.407 3.095-.219 2.124-.094 1.876.688 4.218.5 5.407 1.406 3.593.594 2.407.5 1.374 1.906 3.72 2 3.187.312.406 3.907 3.813 1 1.78.687 1.22 1.906 2.187 1 2-.094 3v.594l-1 1.5-2.125 1-2.5.906-2.593 1-2.094 1.406-2 .5-1.313.688-1.093 1-1.594 2.5-2.188 2.906-.718 3.906-.688 3.688-.5 1.219-.906 1.687-2 2.5-3.188 2.906-2.625 1.5-4 3.5-.593.5-6.282 5.5-5.625 4.782-3.187 1.906-2 1.312-5.688 5.282-3.5 3.406-1.718 3-1.594 3.094-.594 3.624-.219 1.282-.094 1.5 1.594 7.219 1.906 3.687 1.813 3.594.687 1.5.5 1.719.907 2.5.5 3.593-1.094 3-2.094 2.5-3.125 2.5-1.187 1.5-.907 3.782.907 2.718.406 2-1.594 2.407-2 1.374-.5.407-3.406 3-2.594 1.906-2.719 2.5-.687 2.406-.5 2 .781 2.594-.094 2.5-1.094 1.406-.594.5-3.093 2.5-2.719 2.282-2.094 3.406-1.094 2.906-.094 2.094-.312 1.219-.094 1.5 1.281 1.374 1.5 1.626 2.125.78 3-.905 1.594-1.376.781-.812 1.5-1.687.625-.907-.406-2.593-.906-1.626-1-1.593.687-3 .5-.906h2l2 1.624.907 2.094v2.5l1.5 4.094.812 2.094.281.594 1.907 2.218 3 1.688 2.5 1.594 1.312 2.624.594 2.094.406 2.5 1 1.594.281.688 2.719-.594 3.094-1.5 1.5-2.188 1.687-3 2.125-2.312 1.5-1 1-.5 1.188.312.906.282 1.5 1.124 1 .095 1.594-1 1.094-.907h1.093l1.313.313 2.5.594 2.094.5 2.593-.5 2.625-.813 2.594-.906 1.281-.094h1.625l2.5-.406 2 .5 3.094 1 3 2.218 2.5 1.094 1.5.188 2.094.124 2.5-.312 1.5-.906 2.594-.5 1.406.719 1.187.5 1.407.5 2 .5 1.093.187 1.5.094 2.125.219 1-1.406 2.688-3.094 4.812-3.219.782-.406 3.906-1.375 1.312-.219 1.188-.187 1.687-2.5 2.719-3.907 1.781-4 2.125-2.406 3.782-4.406 1-.781 3.312-2.313 3.594-2.5 1.094-.781 3.218-2.125 3.094-2.375 2.688-1.906.718-.407 2.094-.687 3.406-1 2.5.594 3.5 1.187 2.5 1.594 1.375 2.125 1.813 2.375 1.906 2.125 1.5 2.375 2.406 3.219 2 1.5 3.875 2.406 2 1.094 1.219 1.28 1 3.126.406 2.5.375 2.875-.5 2.812.813 2.313 1.594 3.281 1.5 3.094.906 3.5.5 3-.313 4.125-.687 2.094-.5 1.406-1.313 3.5-2.593 2.094-2.094 3-1.094 1.5-1.812 3.687-.688 4.5-1.219 3.406-1.687 3.5-3.813 2.907-2.875 2.187-.406.406-3.719 4.407-4.187 5-3.094 4-2.719 3.687-.875 1.219-1.812 5.594-3.313 6.5-1.281 2.28-3.906 8.813-3.5 6.594-1.094 2.5-.906 2.906-.313 1.094-.187 3.594-.313 2.125-.5 2.875-.687 4.625-.188 3.5.282 3.094-.594 3-2.188 1.406-2.5 1.5-3.718 1.187-1.688 1.313v2.594l.281 3.187.907 2.094-.594 2.5-.813 1-1.375 1.906-.718 3-.094 2-.094 2.5.906 2.219-.125 3.094-2.188 2.28-2.187 2.407-2.625 2-2.688 3.094-2.093 2.906-.407 1.406-.5 2.907-.187 3.093.781 4.094.813 5.594.094 3 .094 2.625.218 4.594 1.375 2.593 3 2.688 2.5 1.125 2.125 3.094 2.5 2.593 2.5 2.907 2.875 2.687 2 1.594 2.5 1.625 1.5 2.594 1.407 1.5.718.5 2.875 1.78 2.719 1.813 4.406.688 3.282 3 3.593 3.5 1.907 3.625.593 1.187.813 1.407.594.687 1.093 1.594 2 1.625 1 2.094-.094 2.906v2.594l-1.094 2.093.094.907.594 2 1.313 4.093 2.406 2.688 3.406 3.219 1.375 2.687 1.406 3.094 1.313 2.625 19.781 2.594 13.906 5.78 9.22 1.407 5.093 1.094v-2.094l-6-6.187-2.406-6.594-3-3.625 2.5-19.781 2.093-3 3.594-.407h2l1-1.5-2.375-5.093.094-4.094 1.094-4.5 5.687-4 4.625-3.906.188-7.594 3.687-5.5 3-2 3.625-.406 2.594-1 3.188-7.594 4.093-3.406L2145 3411l3.094-1 5.718-2.906.5-2 3.782-9.094 14.5-13.906 2.093-2.5.625-4.594 6.282-9.5 17.718-19.906L2214 3322.5l8.812-10 6.282-7.5 7.718-4.906.094-3 .188-9.187 1.094-3.5 3.218-9.094 5.188-7.5 3.719-5 7.187-3.406 3.594-2.5.594-3.5-1.875-6.094.5-2.625 2.093-4 5.188-2.375h2l2.594-.906 2.718-10.094-1.906-3.625.5-3.594 2.688-4 5.625-3.406 5.687-4.5 3.094-4.5 2.219-5 5.687-4 4.313-15.094 2.593-4.094 8.282-5.406 5.125-2.406 3.687-5 1-2.5 2.688-3.5 1.625-7.594-2.5-2.094-1.407-4.093-.5-2 .782-10.72 3.125-4.5 3.093-1.5 2.688-8.5 1.094-3.093 3.625-5 3.593-1.906 1.594-2 2.094-3 .594-6.594 4.812-8.094 5.688-9 4.718-5.5 1.188-10.093 7.906-12.094 1.688-10.125 5.218-5.5 2.282-12.094.03-.031zm900.28 0 .47 3.343 3.5 3.594-.095 4.594-.5 1.5.407 2 1.5 1.594 3.093 1.124h4l2.594-1.406 3.625-2.5 1-1.5 1.094-3.5-.406-3.593 3.093-3.5 2.094-1.5.25-.25zm1199.97 0v.124l.406 5.126.312 9.593-.594 6.594.376 6.094.406 5.594.906 8.218 2.406 7.594 1.5 7.188 4.281 11.218 4.5 8.188.907 6.094 1.406 10.718.906 4.094 1 1 8.5 10.813 5.906 9.28 6 9.72 5.5 5.687 4.376 4.594 5.5 6.719 5.124 3.187 6.5 4.594 15.688 3.812 5.5 3.188 5.094 2.594 1.5.5 13.093 6.312-1-2.5-1-2.094-.5-.5-4-1.593-.5-1 1-1.5 1.126-.5 2-1.5 4.093 2.093 5 .094 16.782 1.313 14.718 2.687 8.5 4.688 5 6.219 1 5.593-2.812 15.188-3.688 4.5-18.906 9.906-6.187 2.906-13.22 2.907-1.593 1-13.812 6.906-17.188-2.906-2.094.5-4.593 1.5-14.813 7.28-25.406-3.874-10.094-.219-7.687-.594-14.72-.812-4.5-2.594-.5-1-4-2.594-2-.5-2.093-.593-4.5-.095-4.594 1-4.094 2.5-3.624 1.376-6.094.906-5.688 3-1.5.5-4.594.906-5.124 3-7.688.406-8.094-.218-3.094 1.5-3.624 2.5-1 2-2.094 5-1.094 1-6.094 5-4.719 3-5.593 3.5-3.594.906-6.594 1.406-1.094 1.5v2.094l-1.124 6.594-3.688 7-7.687 4.406-1 2.094-3.126 1.406-4.093 2L3929 3304l-4-.5-4.594-1.594-5.5-4.718-1-.5-1.5.5-1.094 2-4.124 5-3.188 5.5-2.594 4-10.312 7-2 1.5-2.594 3.5-.594 3.5-1.594 2.5-1.5 1-3.124 3-2.594 1.5-2.5-.594-3.594 1-1 3-.594 4.094-2.594 1.5-4.624 1.406-1.5 2.5-4.188 4.5-1 2.5-1.594 3.094-.594 5-1.124 7.124-1.594 4.094-1.594 2-2.094 6-3.219 9.594.907 2.094 2 2.5-1.594 5.594-.5 1.5-.594 2.5-.094 6.625-.625 5.093.5 2.5.906 3.594 1 3.594-.093 7.094 1.312 10.218 1 4 1.5 2.094.375 3.094 1.906 7.094 1 4.125-1.093 5.5 1 3.093-.095 5.594-2.093 4.5-.125 2 .5 2.594 2 3.094 2.406 6.125.5 1.5-.594 4.593 1.407 8.594 1 2.594.406 1.5 2.5 4.594 2 5.125.875 4.093-1.594 7.594-1.187 8.094-.095 3.594-.125 9.125-2.687 6-1.5 3 .906 3.093 2.094.5 1 1.594-.594 4.5-6.812 11.594-2.188 5.594-.812 18.218v1l-.594 5.594-.594 4.594.5 2.5.906 7.594 2.375 8.218.407 5.094-2.688 7-3.219 10.594 1.407 9.719-.188 13.687-4.312 10.094-.688 11.094-.5 2-2.812 11.125-8.406 19.187-3.782 15.594-5.312 7.594-5.094 4.406-3.812 14.219-5.782 12.593.406 3.5-7.718 7.5-4.688 5-2.219 8.094-4.687 10-2.312 13.688-8.282 10.5-7.719 3.406-3.093 3.5-1.594.5-3.5 2-3.687 3-4.626 4.5-3.78 9.5-.5 2.594-1.595 5.5 3.5 5.125-1.218 10.687-.094 3-11.906 11.5-5.188 9.5-4.719 2.5-17.187-4.406-7.094-1.594-7-5.187-.5-5.125.594-3 3.094-5 .094-2.094 7.312-12 1.094-5.094-.406-6.594.812-15.218 1.594-8.094 21.906-27.5 16.906-8.781 7.907-12.625.5-1.5 2.187-7.594-2.906-8.594 4.219-6.5.5-3.594-.907-4.593.5-3.5 2.688-8.625-.406-4.594-1.375-6.094.593-5 2.594-2.5-1-2.594-1.5-4.593-.906-6.125.594-2.5 2.125-6.094 1.593-5.5.094-1 1-4.594-.406-5.594-.406-7.093-.375-1.5 1.5-2.5 3.594-2 11.187 2.687 1.5-.906-2.687-22.406-2.313-9.688-2-2.094-4.594-1.093-5.593 1-6.22 4.375-4.187 6.625-8.187 3.875-5.125 2.406-2.094 4.094-5 23.218-3.094 5-.812 17.782-6.781 10.5-11.5 15-4.094 5.5-.625 2.125-4.094.875-1.094 6.125 5.5 5.093 2.094-.406 2.594-4 1.625-3.594v-2l1.5-1.5 5.094-.406 6.093.094 3.594.094 2.5.5.406 6.125-3.593 2.5-1.5 2.5.906 4.594-1.125 7-2.188 7.093-9.812 10-2.594 4-4.781 12.594-5.406 17.219-5.813 10.5-2.594 2-2 2-1.593 3.5-7.094 24.187-5.406 22.813-.095 2.5.5 4.094-4.125 1.906-6.093-.625-5.188 2.5-8.594-2.688-6.125-1.687-5-5.625.625-1 .094-5.594.094-6.094.594-5 2.594-3 .625-6.093 1.094-4.094-2.5-3-2-2.125-2.407-7.688-4-6.593.594-3.594-3.906-9.719.625-7-1.406-4.594.5-4.093.094-6.094.812-12.125L3639 3791.5l2.312-11.187 4.094-6 5.406-14.625 1.594-4 .5-3.594 3.187-6 1-1.5 1.094-2 1.625-2 2-1 6.594.094h1l2.094.125 1.5-1 1.093-2 .5-2.625-.906-7.094.219-8.093.187-12.188 1.72-12.625-.907-7.594.594-3.093.5-2 .687-7.094 1.125-6.594-.5-3-1.5-1.125-4.625 3-2.094 4.5-4.093 2.5-4.188 7-3.625 3-7.281 7-7-4.687-2-2.594-1-2.5 1.094-4.094 3.593-4.5 4.813-8.5 4.781-14.625 1.125-2 6.188-5.5 3-2.5 6.812-8 3.594-4 3.781-10.594 1.219-10.593.5-1.594 4.187-4.406 2.094-7.594 3.625-.5 5.375 12.781 3.5 1.625 3.625-1 .094-9.125 1.188-8.594-2.5-5.093-3.5-4.094-4.5-.094-4-4.719-2.406-7.594-9-13.906-.376-3.5L3680 3540l-1-2.593-6-4.594-4-7.219.094-5.594-2.906-9.187 1.125-2 5.687-8 2.688-7.625 1.625-5 2.093-2.5 8.688-3.375 3.594-.5 2.5 2.094 5.125-3 3 3.093 2 2.594-.125 7.094-.094 3.625.406 3.5 1.094 1 2.5 2.594 2-1.5-.907-8.594 2.125-4 .094-3.125-1.906-7.594.5-2 4.188-8.594 2.125-2 13.281-6.406 6.312-10.5-1.812-11.687-5.406-9.813-2.875-9.687-1.5-1-4.125-1.094-3.594 1-4.688 10.5-5.218 8.094-2.688 4.5-15.406 10.906-12.688 2.281-6.093-2.094-6-6.687-1 .5-14.125 19.5-6.782 9.594-10.906 17-2.812 12.687-2.594 4-8.281 11.5-1.219 8.594-2.906 19.312-5.688 8-4.687 5-15.5 17-22.625 12.313-4.688 2.875-3.094 6.625-2.218 6-5.875 16.687-5.125 6.5-9.282 7.907-1.093 4.093.375 2 3.906 9.688.5 4.125-1.688 9.094-2.812 12.093-10.781 11.5-5.407 14.594-4.593 3L3501.5 3714l-27.594 6.094-13.218-3.281-6.375-10.219-3.5-3.094-2.5-4.093-5-7.22-4.5-5.187-18.219-2.812-4.594-.594-4.094.906-2.593 2.5-1.625 5.594-.094 6.594-1.094 4-2.594 3.5-2.094 3-5.718 4-6.282 13-3.218 9.125-7.5 20.687-11.782 4.313-1.5.5-12.718-3.719-5.594-.094-10.5-7.312-6.406-11.282-14.407 4.282-2.5 1-4.687 4.406-5.688 6.5-2.218 7.594-2.688 11.125 1.188 14.78 1.406 11.095 4.5 30.625.406 6-.094 6.093-.125 4.594-7 23.688-.594 3-1.593 6.625 1.187 15.187 1.406 11.188-3.78 11.125-2.626 3.5-1.687 10.593-23.813 18.907-8.094.28-22.906-4.405-6.187 5.406-13.907 7.906-4.593 2.406-22.5 8.282-12.907 4.312-11.78 5.906-5.22 5.407-2 2-3.5 21.78-.28 18.22 8.687 27 1 .593 1 .5 6.312 17.907 4.281 12.187 2.75 11.063h2311.625l.125-10.157v-3.593L5492 4058.5l2.187-9.094 7.219-10.5 7.906-20.218 1.188-13.188 2.687-6.5 2.125-9.594 1.594-6.093.5.5-1.313-13.72 3.72-10.093-11.126-12.812-5.875-11.782-2.406-9.093-1.5-6.125 2.187-12.188 1.22-13.094-2.813-15.812 1.812-22.281-5-11.22-.5-1.5-.812-12.187-15-22.5-1.5-5.093.094-6.625 2.906-24.282-1-.5h-1l-3.594.407-3.094-.5-4.5-2.125-4.125-.094-14.187-3.688-10.094-6.719-8-8.187-14.719-4.313-.875-7.093-7-10.782h-3.125l-10.593-5.218-10.5-15.907-3.407-6.593-2.375-12.188-3.218-30.5-2.5-4.094-10.094-5.218 1.687-8.594-3-2.094v-2.5l2.625-3.5 2-2 3.594-1 6.594 2.094v3.594l2.5 1 2.594-2 2.5 1.593 4.593-4-1.5-3.093-9.093-6.188-4-.594-5.094.5-1.5-3.125.094-7.593 4.594-.907-4-4.687 3.218-10.094.5-.5 8.282-16.094 5.718-2 3.594-6 4.594-4h3.094l6.625-2.906 7.187-1.406 4.594-.5 3.594-6 7.625-.406 9.187.593.406 6.625 2.5 4.094-2.593 2.5 1.5 4.094 4 8.094 7 2.093 4 7.22 9.593 4.687 10.188 1.093 10.594 4.22 2.5 1.593 10.625 6.187 21.875 2.813 1-.5.5-1.5-.5-1.5-2.5-1.094-2-5.094-2.375-7.625-4-4.593-4.625-2.594-14.188-2.188-10.594-6.312.094-5 .188-14.188-5-5.218-.5-4 3.625-2-.5-4.594h-2.5l-3.625 3.5-3.094.406-.406-3.5 7.125-4.5 9.187-.406 4.094-4-1-2-8-7.688-1-2.125.5-2 2.594-1.5.5-1-3-4.093-1.5-1-1.5-1.094-4-5.594 1.125-3.594 2.593-3v-2.5l-4-4.125-1-2.593-.5-2.5 2.094-3 2.094-4.094-.5-1-9.094-3.094-4.094 2.406h-1.093l-1.407-4.125-9-14.28-2.5-1.5-5.093-1.595-1.5-2.625-4-6.093-3.407-7.188-1.406-14.719-3.906-9.187-9.094-6.688-2-3.125-5.906-9.687-.5-5.594-6-5.219-7.406-16.78.5-2 2.625-3.095.5-2-.5-1.5-6.5-2.125-1-.5-.5-1.593 1-1.5 1.593-2 1-1.5-.5-1-4.5-3.094.5-.5h3.5l2.594 1.594 1 1-1.094 4.593 1.5 1.5 10.094.625 4.094.594 4.094-4-1.375-7.594 4.593-3 .594-5.125-3.5-5.093-7-6.188h-2.094l-1 2.5-6-8.719-12.218-3.187-2-2.094-.375-5.594-7.125-5.125-4.5-3.687-3-1-2.5-2.094-3.375-12.219-1.625-.5-4.594 1.407-3-1-1-1.094-.5-1 .719-9.594-1.625-1.594-5-1.625-2.594.5-1 .5-.594 5.625-3.5-.125-2-3-3-7.187.094-2.5 1.5-1 6.094-2.5.625-4-1.5-2.594-3.5-2.594-3.5-5.625-2.5-5.093-1.5-1-2 .406-1.625 4.094 3.906 11.718v3.594l-.594 2-1.5 1-4.093-2.094-15.094-7.812-4.625-2.094-8-7.719-2.5-.593-3.594.5-2.5 1.5-2.687 7.593-6.094.907-6.125-1.094-4.094 3.5-2.5-.5-3-2.594-2.5-3.594-.5-1h-1l-1.094 1v5h-1.093l-4.5-4.125-1 .5-.5 1.5-1.594.5-1.5-.5-1.5-1.593-2.906-7.094-2.5-3.094-4.594-1.594-4.125-.125-7.094.5-11.594-7.28-6.5-4.72-4-2.593-7.093-6.094-9.094-2.188-7.5-5.718-3.625-2.094-10.5-7.688-4.5-7.718-4-6.188-1-1-5-1.594-7.188 1.375-7.593 1-.5 1 .906 6.625-1 1h-1.625l-2.5-.625-7.5-6.687h-2.594l-5.094 2.5-4.093 2.406-15.22-3.219.5-1 2.626-1.5 2.594-2.5 6.093-2 1-1.5-1-1.5-1.5-.5-4.093 1.407-6.094.906-7.125 1-7.094-1.094-5-6.219-2.5-1.093-6.094-2.594-2.5-2-2-5.188-9.093-2.125-3-2.093-3-4.594-4.5-4.594-3.5-3.094-2.5-3.125-1.5-3.093-4.5-5.094-6.5-4.188-5-6.125-2-2.093-14.594-14.907-6.5-2.687-4.125-2.094-5.5-.5-10.688-4.312-11.093-.094-6.094.406-6.625-2.094-17.875 5.281-11.125-2.187-16.188-3.219-1.5-1.594-4.593-1.093-1.5.5-1.094 4.093-2.625 2-2.5 1.407-7.094.5-5.187 1.906-5-.094-12.22-3.219-7.5-3.594-7.593-5.187-5-4.719-4-5.094-3.5-6.687-3.406-9.219-2.281-13.187-.22-22.907-2.374-8.093-2-3.094-.344-.75h-771.281zm-1202.875 23.53-3.626 1.5-1.593 2.5-.5 3.095-.094 2 .5 3 2.5 2.624.5.594 3.5 1 2.094-2.5 2.093-4-.875-6.093-2.5-1.626zm-53.5 6.595-2.626 2-.5 2.624 1.407 3 2.094.594 2-.5 1.624-2-2-3.593zm5.374 11.812-2.593 1.5v2l-.094 1.594 3 1.5.594-.406 1.5-.5.593-2.594-1-2.5zm-39.78 8.906-4.595.407-5.718 4-.906 20.28 6.124.595 10 10.906 4.594-.906-1.406-9.188 2.688-9.094-.782-9.718-5.094-1.594zm45.593 3.407-2 .5v1l-.094 4.093 2.5 3.594 1.5-.5 2.094-1.5v-3.5l-1.406-3.594zm722 29.5-2 1-3.187 4.5v3.593l.374 1.5 2.126 1.094 2 2 2.374 3.594 2 2.594 1.5 4.124.907 3.094 1 1 1.5 2.094.5 1.5.5 2 1 1.094 1-.5 1-1.5 2.219-7.094.593-4.594-.906-5.093-.906-6.126-2-4.593-2.5-3.094-2.5-2.094h-3.5zm-75.094 52.593-1.094 2 3.876 10.688 1.406 7.219 3 3.093 4 5.094 4.906 8.188 9.406 15.406 2 4.094 3.406 7.218 1 2 .376 6.688-.095 2 4.094-.406 3.719-6.594.094-4.594 1.687-10.594 1.125-8.593-1.906-6.626-4.312-12.78-1.5-3.095-8.907-11.812-10.093-5.312-7.594-1.594zm1996.688 260.407-2.094 1.5-2 2-.094 3.093 2 2.594 1.594 1.5h3l2-.406 1.094-2.094.5-2.5-1-2.5-1.5-1.594-1.5-.5zm-2118.188 55.78-14.312 1.313-3.594 3.5-3.688 6-3.218 8.094-.594 4 1.906 7.188-.594 7.625 1.875 6.093-1.28 14.188 1.405 7.094 5.594 3.718 9 6.188 5.406 10.312 4.5 3.594 7 6.688 9.375 18 5 1.125 4.22-3.5 5.593-1.407 4.094-3.5 6.093-.906 4.125 1.594h4.594v-4l-1.5-1.594-5.5-4.094-6.5-6.718-2.406-8.188 3.687-36 3.5-23.312-2.5-3-5.5-3.688-3.5-6.687-7.5-6.22zm2152 80.22-2.594 5-1 2.593-1.125 3-1 2 1.5 1.594 2 1.5 3.625.594 1.5-.5 2.094-2.5 1-2.594-.5-1.5 1.594-3 1-3-.5-1.094-1-1h-2.5l-1.5-1.093zm55.281 15.375-4.093 1-1 1-.594 2 1 2.125h1l1.594.5 2.5-2-.5-2zm16.22 7.812-2.095 1 .5 4.094 1 1 1.5 2.594.375 2.5 2.5 4.125 1.5 2.093 2.125-.5h2.5l3.094-.5 1.5-3 .094-1.5-1.594-1-1-1.593-3-3.125-.5-.5-2.5-.5v-2l-3-2.094-1.5-.5zm-11.313 6-4.094 4-.094 1.5.5 2.094 2 1.5 1.094-.5h1.5l2 .094 1.094-2.094v-1.5l-1-.5-.5-.5zm-2281.5 10.688-10.282 3.906-9.312 6.906-5.313 13.594-5.78 13.594-.595 4 .875 6.718.407 2 5.593 2.094 3.5 3.594 4.625.594 3 2.125 8.188-1.907 4.5.094 5.687-2.906 1-2.5 6.72-5 2.593.594 2.5-1 1.094-4-4.407-6.188-1.5-3.093.625-7.594.594-2.5 5.188-4.5 12.718 1.187.5-1.5-7.5-8.187-10.125-1.719-8.093-2.187zm2122.812 24.312-.5 1-.5 3.094 1 2 1.5.5h.5l2-1.5.094-1 .5-2.5-.5-1.5-2.5-.094zm8.781 33.594-2.593.5-2.594 3 7.094.594.593-2zM5472.5 3757l-1 .5-1 2.594 1.5 3 1.5 1.594 1.5-.5h1.5l1.594-1-.5-3.094-.5-1.5-1.5-.5z" style="fill:#9faec0" transform="translate(0 75)"/><path stroke="#9FAEC0" stroke-width="10" d="m3177.344 4097.563 2.969 11.843.093 22.282L3177.5 4155l-7.093 24.688-.594 2-4.313 12.625-3.312 14.593-2.188 7.594 2.094 1.594.5.5 1.594-6.094 2-.406 1.5 4.5-.5.5 3 1.094 5.719-5 1.5 1.125-5.22 8-7.187 1.375-1 .5-5.093-3.188-1.094 4.594-2.906 19.719 2.687 21.78-.187 11.22-.813 14.187-6.094 31.313L3146 4345l-2.312 12.094v1l-1.688 10.094-1.093 4.5-12.094 21.625-15.219 23-6.906 15.593-10.188 27.188-4.187 5-4.125 4.906-6.781 8-1.094 3-4.313 11.594-10.187 29.219-14.125 18-4.688 5.5-5.687 9-1.125 2-4.781 9-3.813 16.687-7.906 9.906-1.594 4.094-4.187 8.5-22 30.5-32 24.188-3.72 3.5-24.874 24.312-1.125 7.594 1.312 8.594 8.813 20.406 3 6.219 3.375 6.093 4 7.188L2965 4762.5l4 7.688 9.813 16.906 1.281 14.219 3.5 5.093 3.5 1.594 2.5 4.594 5.094-.406 1.5 3.5-.688 6.625 2.094-1.5 13.094 6.78-7.094 2.407-2.594-.5-7.687 1.406-5.406-8.218-.407-5.094-3.5-4.594-1.5-3.594v-2l-1.906-2.593-1.094 2-.094 4.093 2 5.594 7.188 24.906.094 18.688-.188 9.719-.094 10.093-.593.5 10.187 31 3.188 45.094.5 4.094-4.594 26.219-3.781 11.593-.5 2.5-4.813 10-1.094 6.094-.593.5-2.625 4-2.594 5.5-3.188 6.5-6.312 9-6.281 8-9.907 13-3.718 4.5-4.688 6.406-5.187 5-4.219 6-8.906 12.5-2.594 4-3.594 4.5-3.187 2.907-2.125 6.093-2.188 7.5-2.094 5.594-2.218 7.5-1.188 8.594.406 3v2.5l.282 11.219.406 7.093.187 5.125h2238.72l-8.095-3.531-7.218-2.687-3-.5-6.094-.625-10.188-.688-9.218-2.094-5.094-.094L5086 5150.5l-4.594-1.094-8.593-.094-3.125-2.125-6-4.594-5.094-2.094-6.094-.593-4.594-2.594-4.5-3.625-5-6.594-3.093-2.094-4.5-3.593-16.907-31.594-3-6.125-9.406-19.375.188-10.125-1.5-4.094-7.375-18.281.5-1 .5-.5 1.093-.5 3 .094 3.594 3.094 1-.5v-1.094l-2.5-4.5-.906-7.594-2-5.125.594-1 1-1h1l1.5.5 1 7.125 1 .5.5-1.5 1.718-12.625 2.094-3 .594-3.594 3.5 1.094-3.688 11.625h2.5l2.594-4 1.594-5 .719-7.125.094-12.094 1.187-9.093 2.094-8.594.719-9.594-.5-3.625-2.719-20.187 1.125-10.594 1.094-1h.5l12.593 6.187 1.594.5.5-.5 1-2-1-.5-9.094-5.187-2-2.5-1-2.094.094-6.625-.406-6.5-1-4.594 1.813-15.187 2.093-3.5v-2l-.406-4.094-.5-3.5 1.625-7.625-.406-3 1.094-4.594 2.593-4 3.594-2.406 2.125-5.094 1-.5 1 .5 1 2.094h2.094l2.5-2 1.094-4.5-1.907-5.594 3.594-8.093 1.719-8 1.594-3 4.187-10.594 2.125-2.5 1.5-1 4.094 1.594 2.094-3 2-1.5 3.187-8.594 1.125-2.5 2.5-1 3.688-5v-2l-2-1.094v-4.5l7.312-7.5 3.594-3 2-1.5 5.187-.406 6.094 1.094 3.5-1 7.219-1.407 6 6.594-3.094 4-1 2.125.375 1.5.5.5 2.125-.5h1l3.188-6 2-2 2.094.5.5 1.094-.594 3 1.5.5 10.187 3.687 8.625 1.094 2.094-.5 1.5-.375 2.094-4.125 1-1 1.594-.375 1-.5 1.5.5 2.5 2.594 2.093.5 1.625-4.5 2-2 .594-5.594-3-3.125v-2l1.094-2 3.094-2 4 .125 9.218 4.594 3 4.094 1 1.593 5 .5 1.594-1 4.094.594 6 5.125 5.094 2.094 2.5.594 6.593 1.093 1.125-.5.5-2-6.5-8.687 2.094-4 1.094-5.594-1.5-5.625-.906-7.594-1.407-5.093 6.125.094v-2.5l5.188-3.5v-2.5l-3.5-3.594v-2l.5-2.094 3.687-3.5 5.719-6.5 12.781-7.906 18.407-3.313 13.812-.78 24.906 7.905-8-14.812-4.406-9.688.094-12.125 2.594-4.5 4.718-6.5 6.782-10.093 6.218-6-2.312-16.188-.406-8.094-.407-10.718-.375-5.5.5-4.094-.406-8.094 1.688-10.094 2.218-9.125 4.782-16.093 4.093-36.907 8.5-27.78 2.625-5 6.282-13.095 3.593-3.5 4.72-5.5 8.687-7.5 9.312-2.906 12.688-3.406 13.312.687 12.094 5.72 5.5 8.687-12.406 15.5-3.594 1-.5 1.5.5.5 2 .094 3.094-1.5 5.593-2 4.22-4.5 4.687-10.594 6.218-6.5 2.094-7.5 6.406-16.688 7.188-6.5 8.812-12 5.188-6 4.187-6.5 10.813-11.593 7.187-2.407h2.5l10.125 6.782 2.594.5 4.094-1.5 2.187-13.094 1.125-5.594-2.812-25.312 1.812-13.688 4.282-16.687.5-2.5 1.593-7.125.125-6-1.906-9.188.5-2-1.406-7.594-.5-4.093-.813-15.72 3.407-24.78 5.406-22.72-2.188-28.405 4.375-19.188 3.313-20.812-3.906-15.188-2.688-24.906-.5-1.5.063-4.031zm2633.969 568.843-10.813 4.907-7.687 3-7.126-1.625-.5-.5.5-3.094-1-.5-6.093 1.406-12.407 15.094-9.28 4.906-11.22 2.406-4.593 1-11.188.907h-.594v4.5l-2.625 3.5-4.187 10.093-1.594 6.594-.594 4-9.406 15.594-.5-.5-9.219 5.406-3.093-.5-9.188-.594-6.594-.094-10.718-.718-10.688-.094-3.094 1.5-4.125 3.5-17 10.906-19.375 4.781-5.125 3h-.593l-11.688-1.187-34.219 3.687-6.093 1.906-15.407 4.907h-.5l-5.375 20.593-3.125 8.094-2.093 3.5-.094 1 2.5 4.625-6.094 5-1.594 4.5-6.718 6-5.688 5.5-10.312 6.5-14.907 3.781-33.687 5.22-21.906-2.814-.594 6 9.687 2.188 6.719-2.5 11.094 2.719 19.406 2.281 10.594 3.719 4.094 4.094-.594 5-2.094 7.093 1.406 3.5-10.812 9.5-5.688 9-7.812 11.094-4.688 3L5451.5 4915l-4.594 3-1.594 2 .5 1.5-.125 9.093 3 3.594-2.093 3.5-6.782 18.125-3.718 6.094-.5.5-5.594-.094-1.094 1v1l1.5 3.093-3.594 4-1.125 6.5-2.093 5.094-2.594 5.5-7.813 5.5-1.593 5-6.782 13.594-.625 7.094-5.687 4.406-2.594 4.594-6.312 12.5-3.594 1-4.094 2 .5 2 2 1.5-.594 7.125v3.5l-4.718 5.593-11.5 18.5v4.094l-6.688 3.907-7.719-1.094-5.093-.125-1.407-4 1.719-11.094-2-3.094.5-6.093-2.5-4-3.5-.594-2.094 1.5-2.625 7.093-4.687 9.5-6.688 1.907-3.218 6.093-1 2v1l1.5 4.094-.594 1.5-1 1-2.094 2-.5.5-.594 5-.5.5-5.625-.094-2.093 1.5-3.594 4-3.094 5.594-1.594 3.5-6.218 7-10.5 16-2.594 3.5-5.688 8-4.625 1.5-1.593 6.594-3.688 4.5-5.937 7.937h828.437l1.281-13.937-4.375-12.688-1.812-22.312-3.906-11.188 3.312-18.218-2.906-13.688-2.5-10.094 1.812-15.719-2.5-9.593-1.312-17.688-5.906-16.312-.188-22.282 2.094-4.5-2-5.625-5.5-6.593-1.5-8.094-1-1.594.594-8.094-4.5-6.125-3.282-17.187-1.5-2.094-.5-7.594-6.5-5.125-2.5-2.593-1-1.5v-1l2-2.5.094-1-.5-1.5-2-4.094-5.5-10.688-.406-6.125-1-1.5-8.094-7.187-8-11.188-7.5-13.812-1.5-4 .094-10.188-3.5-4.625-2.406-7.093-1-4.5-3.5-3.094-2.5-9.688-5.5-5.124-1.5-5.594-8.5-9.188-2.5-3.593-1-4.5-2.406-9.22-4.594-6.593-5.906-12.687-2-2.625-6.094-3.094-5-7.094-6.594-6.187-3-2.125-1.5-1-4.593-.5-5.594 1.406-1.5-1-4.5-8.688-1-3.5-2.5-2.093-4-4.625-8.219-2.094-4-2.094-1.5-1-2-2.594-1.594-.5-6.593-.593-12.72-4.72-5.093.5-11.594-5.187-10.187-1.218-10.125-6.188-3.094-1.5-4-5.094-9.594-4.718-4.594-1.094-6.593-3.094-1-1.5-.5-2.094-1.5-.5zm-412.126 44.407-1.593 9.593 3 4.594 2.5 1.594v-3l6.218-3 .5-3.5-4.5-3.094zm-20.28 32.187-4.094.906-3.626 1v2l1.5 1.594 4.126.5 4.093-.906.5-4.094zm34.406 134.594-1.626 1 1 2-1.5 2v1.5l2 2.094 1.5 2.5 5.126.625 4 1.593 2.093-1-1.5-1.093-3.093-2-1-2.625-4-2.5zm-3 29.812-8.72.907-2.5 1-1.593 4 1.406 6.093 2.594 2.594.406 4 3.5 4.594 1 1 2.5 6.094-2.093 6.625 1.874 5.093-4-1.593-2.5-5.625.126-6.094-5.626-.5-1.593 2-3.688 7.5-1.594 10.594-1.125 6.125 8.625 3.093 5.594-1.906 1.094-6.094 5.187-3 4.625-.406 11.688 3.688 4.594-6.5 1.593-5.594-1.375-3-.5-4.594-13.718-7.312-9.5-8.188 4.593-3 2.625-2.5zm11 54.782-1 1-1.126.5v2.5l-1 2.5.5.5 1.5 1.125h1l2.126-2 1-3 .093-2.625-.593.5zm-30.72 4.718-2.5.907-1.093 3.093.5 3 1 1 1-1 1.594-2.5h1.5l-1-3-.5-.5zm-11.78 7.407-3.126 1-1 1.5 1 3 1 .5 1.5-.5 2.126-.907.5-1 .5-2.093-.5-.5zm-13.22 30.187L5362 5008v3l.5 1.5 1 1.094 2.5 2.5 1.5-1 1.094-1.5.5-2v-2.5l-1-1.594-1-1zm24.313 12.906-3 2-1.094 2.5-1.5 1-.125 1 1.625 1.594h1l3.094-1.5 1.5-.5 1.594-4h-1.594zm-26.5 41.688-3.719 3-1.5 2.5v1l-.094 1h1.094l2 .094 1.5-.5 1.625-2 .5-1v-1.594l.594-.5z" style="fill:#9faec0" transform="translate(0 50)"/><path stroke="#9FAEC0" stroke-width="10" d="m2910.781 5173.531.125 2.969 1.406 7.594 1.5 4.094-1.124 5.5 1.406 4.125L2917.5 5208l6.406 12.688 3.406 7.718 1 3 .376 3.594 4 6.094 1.5 3.094 1.406 4.625 4.5 7.093 3 4.094 3.406 6.688 2.906 8.625 4.406 12.78 3.376 9.595 2.906 8.218 3.406 9.094 2.813 12.688 2 5.625 1.374 8.187 1.907 8.594.906 6.094.906 5.5.906 6.125 1.876 6.593 15.718 63.5 8.781 24 16.407 48.282 2 4.625 9.312 20.875 11.281 24.5 20.72 43.312-.72 4.188 2.626 2.906 10.78-4.281 2.22-6.125-3.5-4.094-4.126-1v-1.594l4.22-2.906 12.187 1.219 9.594 4.187.5.5 4.624 2.688 9.688-.875 12.906-8.313.5-.5 3.188-7.594 1.094-2 7.718-1.312h3.594l1.5-3 9.906-6.406 3 .125h1l2.594-2 7.188-1.407 3.624 2.094 7.688-2.406.5.5.5.594-2.594 1.406-4.219 3.5-3-1.094-3.593-2.094-.5-.5-3.594 2-8.187 3.407-5.22 2.875-4.687 7 2.906 8.218-2.124 8-7.188-.593-5.187 4.375-1.126 6.625-1.593 1.5-4.594-1.125-3.5.406-4.312 8-.5 1-4.594 1.5-5.688 2.906-5.219 3.406-3.5-1.593h-4.093l-4.094 1.875-3.094-.5-4.5-2.688-.406-7.5-1.406-5.594-3.094-1.093h-.5l-8.187 5.375 6.374 12.812 4.907 10.688 12.812 26.5 3.906 9.218 3.376 7.594L3108 5712l9.188 26 6.906 17.813.812 9.593 12 46.688L3142 5835.5l.5 2.5 7.406 42.594 5.188 51.594 3.094 29.406 1.124 24.719-.718 11.687 2 30.813-.094 3-.406 26.28-.188 34.313-.906 21.688 1.906 11.719.406 3v31.28l-1.906 49-2.812 14.095-1.094 4-5.5 21.625-.281.718h2796.125l1.75-3.937 7.218-8.5 8.188-1.406 11.312.625 13.875-5.407v-2.5l1.125-5 8.281-8.5 8.72-3 7.187-5.906 6.187-2 9.219-2.906 1.094-3.5 5.187-2 5.625-1.906 3.594-.5h1.5l7.094 4.625 8.593 6.687 2.094 1 9.5 10.313h4.125l2.094-4 6.688 1.093 8.093.594 5.125 2.094-.5 3 .781 12.094-2.593 6.5-4.188 8.125-4.125 4.218h101.688l.531-2.125.281-17.218-.281-17.594 4.781-20.688 3.813-15.593.593-2 4.22-11.125 3.593-6.5.188-11.594.218-13.188 3.594-7.5 10.406-12.5.094-4.593-.5-5.5-2.312-16.72-7.907-19.28-2.5-9.125v-1l-1.374-6.594 1.687-16.688 2.688-8h.5l4.812-13.593-1.5-9.125-1.406-10.094.094-1-.375-13.188-1.907-11.093 3.188-8.625 1.594-9 1.125-5.594 5.281-10.5 2.094-7.094 2.218-10.094 5.688-7.5 8.813-8 7.78-13 5.813-12.093-.5-4.5h.5l-.906-7.125h-.5l-3-7.094-2-4.094-.5-3-.5-2.094 4.313-10.5-2-9.593-4.5-8.22-10.907-19.78-2.594-4.125-4.5-5.594-1-3.5-2.906-7.688-10.5-21.312-2-4.594-2.406-6.594-5-9.093-5.594-4.625-1-2.094-1.906-9.594-3-6.594 1.094-9.593-1.375-9.625-4-9.094-2.407-12.188-2.406-11.718-.906-3v-1l-1.5-5.594-2.906-9.594-2-7.594-1.5-4.593-.5-1.5-2.875-8.625-3-5.594-5.313-23.906-2.812-25.782-.875-8.093-.813-13.625-1.406-9.594.094-8.094-1.5-7.594-2.875-15.218 2.188-8.094-1.313-16.688-2.375-14.718-1-5.594-.5-34.906-4.406-18.188.687-16.687-3.781-20.813.094-6.5-2-5.594-4.5-8.718-.406-7.094-4.594-5.594-.906-6.594-2.407-13.093-7.5-9.22-2.406-16.187-5-5.218.125-9.094-3.406-11.094-7.5-15.312-.312-16.688-5.282-24.312-8.906-27.375.5-5.282H5259.97l-.782 1.063-16.093 20.5-15 13.5-8.282 6.906-1.5.5-1.5-1-11.218-5.187-4-4.125-4-4.094-13.688-8.281-7.094-1.125-.5-.5v-1.5l.5-2.094-.5-.5-7.625-3.094-1.5-4.094-1-.5-2.5-1-2-2.593-2-2.125-1.093.5-1 1.5-1 .5-1-.5-6.094-2.657z" style="fill:#9faec0" transform="translate(0 25)"/><path stroke="#9FAEC0" stroke-width="10" d="m3149.719 6249.531-7.719 18.875-2.406 20.594 3.5 30.406v2l-6.594 27.188-8 42.719-1.906 25.187-1.281 13.688-10 41.718-9.22 28.594-4.78 12-5.907 15.094-5.406 17.5-14.094 44.219-8.094 20.5-11.812 31.593-10.094 23.594-1.094 1.5-12.124 21.406-7 16.094-1 1.5-22.688 35.906-21.5 31.907-18.812 22.375-3.188 4.406-11.594 16.5-15.594 16.812-12.124 16.5-1.188 10-11.094 20-7.406 14-2.094 4-22.906 47-19.812 47.594-.5 1.5-2.782 13.094-2.719 7-11.78 30-10.595 19-11.624 18.906-2.594 2.5-25.094 26.813-39.594 39.093-15.219 14.907-18.593 12.687-16.594 11.813-23.406 18.687-35.781 24.094-6.72 3.406 37.22.813 11.374.28 24.22.5 82.78 2 92.126 2.095 3.593.125 59.406 1.5 139.782 1 49.219.375 135.687 1.406 108.5.906 120.406 2.188 23.5.406 81.906 1.312L3671 7252l237.094.906 58.406.094 19.406.313 275.094-.219 33.188.219 16.406.094.906 71.906 109.188-5.812 36.406-1.407 111.593-4.093 82.407-3.188 30.5-1.125 184.906-6.375 116.906-4.906 53.407-2.906 41.5-2.407 46.78-2.406 38.72-2.094 2.593-.094 11.282-.687L5412.406 7273l3.688-4 3.594-4.5-2.5-2.093.5-1.5 3.125.094 5.093-1 3.094-2.407 1.094-3.593-3.5-4-6.188.406-.406-2.5 3.094-1.5-.5-4.094 4.718-3.406 9.688.594 6.094 3.093 1.593-2.5-9-15.687.126-8.094-3.626-2.125.126-2 4.5 1.125 5.78-8.5h2l-1.593 5 2.5 5.594-1.094 8.094 9.5 17.187 1 2.125-.094 5.5 3 4.094-.125 8-.593 5.594 3.5 2.094 3.093-2 .625-5.594-1.906-5.5-5.906-16.813-4.406-15.593-3.907-15.188-1.875-12.719 2.782-11.5 10.312-9.5H5461l4.093-.375 5.094-4 5.906-12.5 5.813-11 2.594-8.625 4.187-7 6.813-10 6.312-6 4.594-.875 3.094-4.5 4.593.094 2.094-1-.5-4.593-6.094-4.125-2-3 3.22-5.594 5.093 2.094 3.5 2.625 2.594 2 3.093-3.907 3.094.5 1.406 6.594 2 2 .594-5 2.625-6 1.688-5.094.593-12.593 1.313-13.125 4.187-7.5 7.813-10.5 9.781-6.875 5.125-1.5 1.594-.407 13.281 2.594 9.625 6.188 2 1.625 1.094-3.125 2.094-2.875 4.593-3 1.094-2.5-.5-3.125-3-4.5.625-5.594 2.688-6.5 2.093-6-1.5-3.094-11.687-9.187 1.094-1 .5-1 4.593 1.093 5 6.094h4.094l3.125-1.406 3.188-4 8.812-7.5 7.781-8 9.313-6.906-1.5-5.594 3.687-4.5-3.5-8.094h2.594l1.625-6-2.5-7.594.594-7.093 3.094-.407 3 2 2.593 2.094 1.5-1.5 3.094 1.5.125-9 1.688-13.094-.907-4.593-4.5-6.625-1.5-4.094 2.094-2.406.125-7.594-1.5-5.594-.5-2.5-1.5-1-1-1.094-2-1.5v-1.5l1.5-1.5h3.094l1 3.594 2.5 2 2.687-7.5-1-4.094-2.406-7.593 2.625-7 1.094-7-1.406-8.625 5.687-1-.5-2 2.313-16.094 2.312-18.188 4.094-6 .687-7.5.594-10.093 7.813-10.5 2.093-5 1.72-6.125 3.687-13.5 1.687-9.594 2.125-6-1.5-2.594-2.5-4.594-1-2-1.406-7.593 1.094-6 .5-1 4.687-4.5 6.219-.407 2.5-2.5 3.687-7 6.313-9 .5-.5 3.687-6.593-4.593-5.125-.407-3v-1h.5l1-1 3.094-2.5 2.125-1.5 3.688-6.5 9.406-15 12.5-15.5 9.281-9 13.906-7.375 10.813-2.907 14.406-6.406 10.375-6.906 14-13.5 1.5-2.5 3.125 2.094 5.594-3 3.094-3 3.593 1.625 7.72 1.593 6.593-1.406 15.906-2.906 4.688-7 3.687-8.5 7.813-8.5 7.187-4.5 6.313-6.906 6.312-17.594 3.875-22.188 1.625-4 4.188-6.5-.907-8.593 3.72-12.625v-1l-3.5-7.094-8.5-11.188-.407-5.093-.5-3-.5-4.125.594-3v-2.5l.5-1.5-.813-15.688 4.406-18.594 3.094-7.5 1.625-3.093 6.781-13.5 5.813-7 2-2 3.687-3.5-1-5.125 2.594-3 8.813-7.875 7.687-5 9.313-1.907 12.812-.312 6.594 2.594 2.5 3 2 1 .594-2 1.5-4-2.907-12.594 1.22-7.594 5.093-2.5 2.594-2.5-2-2.5-11.188-2.687-.5-1.5-3-6.125-4.125-3.094L5946.5 6286l-5-6.094-2-6.093 1.687-12.125.625-3 4.031-9.157H3149.718zm2938.969 0-3.188 3.282-3.594 2.375-3.093 2 3.593 2.125 9.688-1.907 5.094 2.094 11.218 6.188 2.5-.5 6.188-2 23.5 5.312 14.719 3.188 5.093 4.625 4.594 1.593 2 4.594 4.594-3.5 6.812-9 9.907-12.5 2.062-7.969zm-22.094 1.469-1 1.5 6.094 6.188 3.5 3.5 4.124 2.625-5.218 5.5 2 2.593 4.094-4 .124-5.093-1.5-1.5-7.624-9.22zm23.406 9.906-3 1.5-3.187 6.5-1.126 2.5 2.126 1.094 2.093-2.5 1.5-4.094 2.094-2 2.5 3.094 6.094 3.094 3.594 2.094 10.218 1.125v2.5l-3.593 1-3.126.375-7.187 5-.594 2 2 4.625v2l-2.593 3-2.126 1-4.093 2h-2l-1-2.125-1.094 1v2.5l1.5.625 10.313-2.407h2l.593-3 2.594-2 1 1v2.5h3l7.688-3.406 1.124-3 2.188-9.594 3.094-3.5v-3l-6.094-2.593h-1.5l-6.187.375-6.126-1.594-4.5-5.094-4.593-1.594zm90.406 11.094-2.093 1.5-1.626 4.5-4.593 5.594-7.688 1.906-4.593-4.094-1-2-7.626-5.218-14.78-.094-10.22.812-3.187 3.5V6281l-1.094 8-4.218 5-1.5 2.5-12.782 2.406-11.812 2.406-4.688 3-4.718 8-5.188 5-5.094 3-7.218 3.875-1.094 1 1 1.125 5.219-1.5 3.5 1 5.187-4.906 7.313-8 2.093-3 2 2 1.094-5.5 3 .5 6.094 4.094 5.594 6.594 2.5 3.093.406 4 1 2.625 1.594-2.5v-3.625l6.718 1.625 4.094.094 5.5 5.594v3.5h-4.094l-.094 4-5.125-1.094-3-6-2-1.093-2.593 2.5 1.5 5.093-9.188-1.093-9.219 1.875-11.875 3.906-7.718 6.5-5.688 7-2.594 5 1.5 2.5 3.594-7 3.094-3.5 6.312-6.5 9.188-4.906 12.812-1.875 8.188 4.093 8.094 5.188 8.218-1.5 6.688-5.406 2.687-10.094 5.219-6.5 7.781-7.5 2-2 6.219-6.5 3.688-7 6.718-5.5 10.875-11.5 3.219-5 1-4zm-117.718 9.813-1.594 2-2.094 3 1.5 1h1.094l2.5.094 1.5 1 1.594-1-.5-1.5.5-2-.5-.5-2-1.094zm-8.282 9.5-2.093 1.5-1 1.5-1.126 2 .5 2 2-.5 2.126.593h4.093l.5-.5v-1.5l.5-2-.906-2-1.594-1.093zm29 9.375-3.593 3.5-1.126.5-1.5 3.5-7.28 7h-2l-1-1h-.594l-.5 5.5 1 .5 6.687-5.5 5.188-4.875 2-2 3.718-3.5v-3.625zm-32.5 22.906-1.093.5-1 .5v3l.5.5 1 1.5 1 .5 2 .094 1.593.5 1.5-2.5h1.094l-.5-1.5h-1.094l-1.5-1.594-1.5-1h-1zm0 38.312.5 2.094-1.093 2v4l-.126 2.5 1.126-.5 1.5.094 1-1.5 2.093-2.5-1-2.094-.5-2-1-1v-1h-1.5zm-223.812 211.907-6.188.5-6.593 2.875-11.407 8-5.718 6-1.094 2.5 2.593 2.5 4.626-.375 4.593-2 4.688-5 3.094-1.5 6.718-3.407 5.094-2.5 2.594-2.5-.5-2zm-142.594 176.5-2.687 7.5-3.72 10-7.28 11.093-1.72 11-3.905 21.688-3.782 17.594-1.312 15.125-.094 12.593.406 5.094 3 6.094 2.5 3 2.594.094 3.594-3.5 8.218 1.625 2.094-7.5 2.594-4 .187-15.219 3.219-8.5 2.406-20.187-.906-12.094-.312-11.125-1.5-6.094-3.407-10.094-.5-6.593 1.813-14.094 1-2.5-1-1zm-13.5 122.375-1.5 2-1.094 2 .5 2.5 1 .125 1.5 1.5 1.5 2.5 1.594-2 1.5.094h.5l-.406-2.594.5-3.5.5-1.5-2.5-.5zm-10.812 6.906-.594 4.094.5 2h2l2.594 1.625.5-4.125 1.625-2.5-2.5-.5-1.125-.5zm-3.688 8.594-3.687 3-1 3.5-.125 3.5 1 1 1 2.125 2.625-.5 1.5-1.5.593-2v-2l1.094-2v-1.625zm-218.812 374.5-2.594 1.5-1.594 4-2 3.406 8.594-.281 1.094-3.5.5-1.5-1.5-2z" style="fill:#9faec0"/></svg>