<svg xmlns="http://www.w3.org/2000/svg" width="984.625" height="1121.156"><path stroke="#9FAEC0" stroke-width="10" d="m264.906 0-.03 40c6.044-8.479-.05 10.615 6.656 3.813 5.106-6.313 17.423-2.79 20.093-11.313.745-7.677 3.07-14.733 1.97-20.25-4.595-7.616-12.335-3.383-19.938-7-2.872 1.115-6.767-2.833-8.094-4.75zm23.719 3.938c-1.578.14-4.3 1.429-.125 1.5 1.599-1.264 1.072-1.585.125-1.5zm6.938 3.343c-.578.047.342.937 1.125.313-.593-.264-.933-.328-1.125-.313zm3.78 3.688c-1.51.188-3.653 2.261.532 2.5 1.054-2.048.375-2.613-.531-2.5zm6.188 1.156c-4.03.3-7.972 5.4-.812 3.969 1.645-.45 1.605-2.635 2.531-3.782-.546-.187-1.143-.23-1.719-.187zM1.344 73.094l.125 1.406L0 76.406l.031 1.813 1.063 1.875-.282 1.5.656 1.969.25 2.28.782 1.47.968 1.906.438 2.594 2.187 1.312-.906 1.563.875 2.03 1.406.688-1.437 1.688 1.469.281.625 1.813-.219 1.593.25 1.313-1.375 1.25.844 1.656-1.281 1.625 2.03.531 1.657 1-2.344 1.75 1.813-.687-1.031 1.625 1.687.156-.094 1.531 1.312.75-.406 1.406-.344 2.626.688 1.5 1.625.75-.75 1.937 1.5.375-.906 1.469 1.531 1.156.781 1.688-.062 1.968 1.407 1.938 2.343 1.281-1.406.375.094 2.656.125 1.844-1.063 2.063-.25 1.812-.593 1.531-1.907.469.75 1.875-1.468-.531.375 1.469-1.938.937 1.688.156-1.22 1.719-1.28.563 1.5.53-.657 2.22-1.656.312 1.469.563-.656 1.843-2.282.344.72 1.469 3.124 1.125-1.75.031-1.344.437.625 1.313 2.407 1.844-1.438.531 1.031 2.062 2.375-.28-1.25 1.53-1.75.094.625 2.625 1.75 1.688-1.5-.438-.28 1.594-1.188 1.531 3.093.688-2.25.093 1.125 1.5 1.375.5-1.156 2.407-.437 1.718 2.062-.625-.844 2.063H11.72l1.594 1 1.375 1.5-1.407-.563-1.656.063-.5 1.5 1.531-.344.938 1.375-1.844 1.875-1.406 1.25.594 1.531 1.343.844.062 1.563-1.75.062 1 1.969 1.344 1.406-.5 1.438 1.813.78-.407 1.47-1.593 1.343 1.593-.437 1.188 1.375-1.625.312-.219 1.97 1.531-.188-.25 1.468 1.313 1.5-1.75-.906-1 2.281 1.562-.718.688 1.406-.938 1.281-.593 1.313-1.782.78 2.25.25-.5 1.376.625 1.375-1.312.094-1.313 1.5 1.532.5-.688 1.687 1.875 1.344-1.625-.719-1.75 1.625 1.531-.687 2.032 1.03-.094 1.72-.532-1.313h-1.468l1.28 1.156-.937 1.688-.78 1.625-.876 1.406 1.438.25-.062 1.438-.813 1.375 1.156 1.468 1.5.625-2 1.063.438 1.469 1.75 1.187-1.344-.031.656 1.906.938 2.844.156 1.312 1.438 1.032-.062 1.343.03.032H720.22l.031-.125 1.344-2.844-2.125.344-1.657.812-3.343.063-3.157.937-1.062-1.719-.594-1.562-1.812 1.125-1.875-.25-1.344-1.281-2.469-.094 1.032-1.469.53-1.406-.468-2.563-.625-1.406.438-1.344-.563-2.468-1.906.406.375-1.844 1.25-1.687-.438-1.938-3.406.031-1.531-.375-1.344.094-2.75.813-1.5-1.22-2.25-1.718-2.594.281-3.593.625-.438-2.312-2.125-1.563-1.125-1.968-1.812-.094-1.657.281-3.093 1.188L671 218.25l1.125-1.344-1.406-1.469-1.407 1.032-1.28.062-1.126-2.344-2.156-1-.094-2.843-.593-1.313-.125-1.937 1.625-4.563-3.907-.844-2-1.718-.25-2.688-.843-1.969-1.407-.062-2.187 1.094-7.625-.438-.188-1.812-2.156.437-2.094 2.188-2.093.28-1.5.907-2.032-.687-5.062-1.063-3.344 2.25-.844 3.625-1.375 1.438 1.5 1.906-.875 3.406 1.063 2.313.344 2.062 2.125 1.688.5 1.625-1.407.75-4.312.718-1.594.75-1.812.907-1.5.343-1.094 1.375-1.438-.156-.718-2.25-1.063-1.75-.625-1.562-.125-1.313-2.937-6.812-2-1.844-1.125-1.906-1.625-2.75-2.063-4.25-.875-3.782 2.594-5.593v-2.5l-2.438-.875-1.718-2.188-2.313-3.344-3.812.032-4.875 1.312-11.125.125-3.157-.719-3.125-3.656.438-1.906 1-2.188.312-1.968 1.782-.532 2.968.219 1.813-.656 2.094-.188-.032-1.562.688-1.594-1.188-4.844-2.906-.625-8.937 1.313-21.157-10.594-1.937-.25-2.5-2.031-2.563-.25-.656-4.438-3.812 1.469-13.313-.75-12-.094-2.969-2.687-6.03-.063-11.845 3.094-1.78 2.406-1.157 1.657h-1.594l-2.719-.813-2.593 1.531-1.625 1.532-3.5 1.156.53 2.531.595 1.281-.157 2.282-1.406 1.906-3.906.781-1.938 1.219-2.125.437-1.906.72-1.906-.032h-3.281l-2 1.062-1.875-.125-2.157-.718-.968 1.78-1.72.5-2.28-.093-2.094.313-2.313-.657-3.656.032-1.906.53-1.313-.187-4.875-.843-1.718-1.157-.407-1.5.907-1.53.28-2.563.47-2.375-.188-1.75-.875-1.688-.625-1.687-.187-1.625-1-1.75-1.625-2.97-1.375-.28-4.5-.125-3.782-.282-1.312.188-2.188-.219-2.437-.906-1.656-.094-1.72-.406-2.155-.656-4.594-.032-2.875-.5-1.375.344-2.969-.312-1.281.312-6.031-.312-1.313-.438-4.031-.531-1.875.312-2.438-.593-1.375-.219-1.312-1.5.437-4.219-1.187-2.437-1.781-.657-2.094-1.5-2.219-.5-2.531 1.125-1.813.22-3.28-.595-2-1.03-5.095 1.28-1.812 1.938-1.75.469-2.281-.782-4.907-.75-3.656-.375-1-1.875-1.312-.75-1.594.125-2.781-.468-1.375-1.938-2.282-1.75-2.812-.75-.531-1.469-1.907-2.156-1.593-1.719-1.782-1.093-.937-1.375-.219-3.25.094-1.813-1.156-2.937.906-2.188 1.469-.844-.219-.562c-2.741-1.547-7.336-1.359-10.25.031-4.287-1.439-13.328-10.089-13.875-1.687-3.264-2.57-2.266-2.168.719-4.844-4.307-5.868-4.962-19.6-14.281-18.156-5.222 3.558-12.463.21-12.97 8.812-3.37 7.432-11.943 6.856-18.593 8.594-10.144.005-10.601-10.396-11.812-17.625-.477-5.201 3.924-4.557 7.875-4.844zM324.03 96.688c-3.557 1.222-12.28 5.926-4.062 2.624 1.075-.913 3.69-1.411 4.062-2.624zm483.157 120.25-2.688 1.593-2.344 1.438-6.562 1.969-4.531 4.093-1.5 1.5-1.563.125-2.406.281-1.281 1.282-2.188.093-1.187 1.47-3.532 2.405-2.25 2.157-2.343 1.656-2.563 2.781-1.781.094-3.063 4.281-2.593 1.313-.532.625h61.688l-1.031-1.407-.907-3.156-1.03-1.406-1.313-.688.656-1.468-1.875-.782 2.25-2.156.219-2.406-1.657.656-1.312-.625-.125-1.469-1-1.625-1.469-1-.625 1.438-1.312.031.312-2.031-.437-7.219-.063-1.75-1.219-1.844-3.5 1.282zm38.843 23.218-1.468 1.219-1.907.281-2.593.781-1.875 1.594-5.72.563-2.155.875-3.938.625h45.219l-.875-.594-1.313-1.062-1.843-.688-4.688.313-2.594-1.032-1.593 1.281-1.72.157-1.405.281-1.563.063-6 .125-.687-1.563 1.78-1.937-1.312-1.032zm51.25 2.188-2.343.75-1.97.406-2.968-.156-2.531.937-2.656-.187-2.97.125-1.812-.531-3.312 1.75-1.938.218-1.5.438h40.25l-1.125-.688-2.062-.906-2.281-.687-3.125.062-2.063-1.406-2.312.281-1.72.094z" style="fill:#9faec0" transform="translate(0 125)"/><path stroke="#9FAEC0" stroke-width="10" d="m16.438 246.094 1.125 1.312-.532 2.156 1.032 1.313 1.125 1.781 1.437 1.063.688 2.094.218 2.656-.468 1.656.718 1.813.344 2.25 1.375 1.375-.781 2.906-.313 2 1.188 1.406-.375 1.375.906 1.563 1.5.437v1.688l2.344 2.093.156 1.375-.969 1.344-.094 1.969.062 1.531.844 1.625.031 1.344 2 .969.469 1.406.094 1.969-.094 1.312 1.531.906.594 1.438.125 1.469.344 1.968-.47 1.344.688 1.281 1.438.438.875 1.875.219 2 1.406.562.875 1.75 1.187 1.469-1.375.094 1.344.843-.469 2.438 1.844 2.594-1.594 1.593 1.532.094.78 1.313.095 1.28.312 2.345 1.313-.063.406 2.156.781 1.625.282 2.25.687 1.625-.156 1.594.125 1.375.906 1.375-.562 1.375 1.75 1.281 1.406 1.094.5 1.594.125 1.469-.469 2.28.281 1.938-1.812-.187.344 1.375 1.968-.438-1.812 1.032 1.531 1.156L48 350.25l.875 1.875-1.687 2.062 1.594 2.094 1.53-.031-1.468.562 1.438.563-1.282.219.47 1.781-1.876 1.594 1.438.656-1.375.437-.282 1.375 1.47.188-.72 1.812-.53 1.782.812 1.5.156 1.875-.25 1.343.312 1.5-2.093 1 1.375.25.53 1.532 1.876-.375-1.344 1.062 1.563 2.438-.22 1.375-.218 1.593-.437 1.407-.72.125.595 1.312.406 1.813.281 1.656 1.563 1.094-1.688 2.312 1.625.156-.562 1.313-1.47.594 1.345.843.187 1.625-1.125 1.875-.312 3.844.187 1.438.625 1.5-.437 1.5 1.406.531-.313 1.469.47 1.5-1.5.062 1.437.813L50 412.719l1.438-.219.312 1.437-.406 1.563-.5 1.344 1.469.968-1.031 1.47 1.468.25-1.343 1.093.968.469h746.938l37.219-25.844 67.28 2.531 21.345 1.031 42.187-96.875L984.624 261l-1.375.25-8.968 2.875-1.313.406-1.75-1.594-1.656-.437-.813-1.688-1.406.75-1.875 1.438-1.406.062-1.563-1.343-1.343-.157-1.907.157-2.437.093-2.031-.656.125-1.312-1.407-.25-1.28-.063-1.47-.219-1.5.125-1.5.813-2.187.719-1.375-.5-1.906 1.406-1.188 2-1.375-.375-.562 1.75-2.688.437-1.375.625-1.687-.218-1.594-.875-2.125-1.438-1.188-1.594-1.53-1.156-1.313.688-1.906-.719-.812-1.656-2.438-.969-.375-1.594.375-2.375-.5-1.625-1.344-2.062-1.343-.688-1.375-2.969-2.032-.75-.375-.218h-40.25l-1.156.344-.531-.344h-45.219l-2.156.344-.25-.344H762.28l-1.406 1.656-3.281 1.063-1.813.843-4.406.281-1.937-.125-1.344.282-1.844.906-1.75.219-1.562 1.656-2.875.688-3.094.28-1.531-3.187-1.938.375-2.937-.25-6.844 2.813-4.219.875.344-1.625-.313-1.719.688-5.031z" style="fill:#9faec0" transform="translate(0 100)"/><path stroke="#9FAEC0" stroke-width="10" d="m52.375 421.094.438.219.406 1.75-.406 1.437-1.75-.062.5 1.28-.188 1.438.938 1.406.25 1.5-1.094 1.282 1.5.875.625 1.406-.125 1.969-1.031 1.5.625 1.375-.407 1.344.062 1.343.125 1.781.563 1.375v1.344l.094 2.281-1.313.22.813 1.468-1.438 1.75-.937 1.625 1.375.313.625 1.468-.313 1.813.782 1.625.094 2.281 1.656-.062 1.437.343-1.031 1.75-.187 1.75 1.687.594.188 1.281.53 2.406 1.345-1.125 2.25.032-.72 1.406.47 1.469-1.407 1.687-.531 1.438.656 1.406.219 1.375-.25 1.375-1.437-.344-.157 1.625-.218 1.719-.188 1.312.625 1.344-.156 1.313-1.375 1.218 1.125 1.563-1.781.75-.188 1.312.469 1.47-.062 1.5-.094 1.405 1.25 1.313-1.25 1.656 1.656-.25-.687 1.344 1.375 1.281-1.407-.312 1.438 1.093-1.469.688.25 1.625.625 1.469-.219 1.656.594 1.562-.281 1.282-.938 1.406.188 1.687.094 1.407-.031 1.53v1.563l-1.469-.28v1.843l.188 1.312-.157 1.5.594 1.47.438 1.468-.938 1.75 1.5.5-.125 1.406 1.5-.344.563 1.313-1 1.312 1.343.22.157 1.405.562 1.844 1.344 1.375.063 1.656.781 1.532-.062 1.75.125 1.5.281 1.937.094 1.688.25 1.75.75 1.5-.218 1.343.312 1.563-.594 1.656.563 1.469.812 1.562h1.594l.188 1.344-.438 1.781-.656 1.344 1.344.469-.844 1.344 1.375 1.375.656 1.312-.344 1.375 1.438-.781-.5 1.812 1.5-.312.625 1.375 1.625 3-.25 1.312 1.5 1.907.375 1.625 1.5.75.437 1.937 1.5.438 1.438.406-.469 1.344 1.344.78 1.219 1.782-.125 1.406.343 1.625-.656 1.594-.281 1.688 1.406 1.468-.219 1.532-.062 1.937.094 1.375.062.969h546.657l.156-9.5-.094-13.25.188-49.219.53-6.5.438 1.656 2.282 1.438 1.75-1.125 2.125 1.344 1.53-.5 2.095.125.656-1.407-.281-1.437 1.468-1.875 2.094-1.844-.906-1.687-2.813-.594 1-1.781 1.063-1.875 2.75-.469 2.656.781.406-2.344.688-2.156 2.719-1.75 3.437-.093 7.031 7.687 1.75.906 4.97-3.625 13.468-7.656 35.969-21.281 11.687-7.313 22.938-16.5 40.593-28.531 6.688-4.656H52.377z" style="fill:#9faec0" transform="translate(0 75)"/><path stroke="#9FAEC0" stroke-width="10" d="m81.625 596.125.031.406 1.5.688-1.312.812-.657 1.875.157 1.282.78 2.062 1.032 1.906v1.313l-.5 1.75-.5 1.406.438 1.563 1.437.468-.406 1.407.469 1.343-.5 1.625.687 1.344.469 1.375.125 1.563.969 1.75-.094 1.78.687 1.438.188 1.625.25 1.875-.438 2.219-.156 2.656-.906 1.313-1.063 2.875-.437 1.75.468 2.062.094 2.719.125 4.813.907 3.75.53 2.218-.468 2.969.125 2-.469 1.438-.063 1.625-.406 3.218-.156 1.938-.25 1.843.156 1.375-.156 2.97-.344 1.937-1.031 3.093-1.438 1.094-2 3.313-2.28 2.281-.47 1.5-.656 1.438-1.031 2.406-.625 1.437-2.594 2.782L70 697.03l-3.03 1.594-5 3.563-1.345 2.156-5.28 3.843-3.157 2.72-1.438 1.062-.718 1.5-.75 2.781-.282 1.875-.562 1.875 2.906 3.75 5.094 6.656 1.625 2.813 2.25 3.031 2.281 5.969.25 1.531.844 2.656.531 1.532 1.063 1.375 2.843 4.812 1.188 1.688 1.531 1.312 2.313.281 1.687-.25 1.688.063 2.03.218 2.376 1.063 2.812 2.094 2.125 1.187 2.063.938 3.094 1.031 2.5 1.938 1.656 1.625 1.094 3.093.28.719h479.907l.219-1.031-.406-3.063 3-2.718.28-1.407.845-1.531 1.156-1.281 1.344-1.594.28-1.469-.218-1.562.125-2 .25-2.657-.812-2.25-3.375-1.718-1.375-2.094-1.25-3.094-1.532-2.5-1.75-1.843-.187-2.125.219-1.657.03-1.312-2.468-2.25-1.437-.844-2.094-2.062-1.563.062-2 .969-1.343.312-1.438.063-2.937-1.063-3.125-.218-1.782-2.125.22-2.125-.407-1.688.437-2.844-.625-2.156.157-2.031.093-1.875.907-3.844.437-4.437.469-2.063.375-2.312.781-1.97 2.5-1.312 2.156-1.437 2.063-1.438 1.406-1.781 1.781-2.031.438-1.688.219-1.812.937-2.407 1.313-1.156.5-1.875-.594-1.531-.344-2.094 1.813-2 1.406-1.062.219-3 2.03-4 2.845-2.5 2.03-1.5.97-1.532 2.562-2.375h2.156l-.125-1.53 1.375.03 1.907-.406 1.5-1.187 1.656-.188 2.5-1.219 2.25-.687.187-1.719.625-1.781 1-1.469 2.313-1.156 2.156.75 1.469.844 1.312.28 1.407.095.687-1.688.906-1.437.532-1.5 1.093-2.157.25-1.343 1.75-1.532 2.125-.625 2.438 1.532 2.531 1 1.344.218 1.312-.5.313-1.5.875-2.093.469-2.594.75-2.781 1.718-1.25 1.594-.594 1.625-.375.125-18.75-.062-14.969v-.781z" style="fill:#9faec0" transform="translate(0 50)"/><path stroke="#9FAEC0" stroke-width="10" d="m96.563 771.125 1.28 3.5 1.313 2.094.594 1.312L99.969 889l-.094 57.125h550.594l-.72-.687-4.812-.97-4.187-1.28-2.5-.875-2-1.157-1.781-2.343-3.688-2.875-2.187-2.594-1.407-2.813-.125-3.5-.968-1.906-.407-1.781-1.062-1.657-1.75-1.375-1.469-.625-1.75-.312-3.812.219-1.344-.157-1.656-.343-3.25-.469-1.844.156-3.281-1.218-1.625.437-1.907-.812-2.437-.563-1.656 1.188-1.344-.97.219-1.718-3.47-4.562-1.687-.157-1.437-1.156-1.656.063-1.125-1.72.437-1.53-.219-1.97-1.28-1.937-3.688-2.218-1.938-2.22-2.312-3.062-5.688-5.593-2.094-1-2.062-1.688-2.594-1.375-2.031-2.25.062-1.562.438-2.188.656-1.562 2.031-3.594.313-2.75 1.062-3.032.844-2.437-.437-2.469-.032-1.531.782-2.312-1.47-3.563.22-1.625 1.843-1.469 1-6.187-.5-2.719-.75-1.75-1.125-1.375-.125-2.125-.062-2.062-.031-1.375 1.093-3.657-.25-1.562-1.812-2-2.125-1.907-.969-2.343.219-1.344 1.125-1.937 2.344-1.97 3.468-3.405.907-1.625-.75-1.438-.813-3.5-.687-2.062.062-2.47.563-1.655-1.813-2.188-.062-1.656.406-2.063 1.562-2.625-.718-2.25v-1.468l-.375-2.563.843-1.469-.03-2.187-.845-1.5-.187-1.813 1.375-.875 1.781-1.437 1.219-1.688 2.906-3.281.438-2z" style="fill:#9faec0" transform="translate(0 25)"/><path stroke="#9FAEC0" stroke-width="10" d="M99.875 946.125 99.719 1021v100.031l82.875.125 70.687-.281 40.032.031 1.906.156 38.062-.156 137.063.25h62.5l84.719-.187 147.437.03-.094-2.625-1.843-1.843-.5-1.688-.813-1.406v-2l1.313-2.687.125-3.22-.907-1.53-2.875-3.126-.937-1.968.062-2.063.594-3.875-1-1.375-.187-2.219.062-1.906.625-3.625.156-3.5 1-1.812.47-1.906-.063-2.157 1.062-4.156.375-1.531-2.312-3.344-.657-2.281-.562-1.813-.469-2.125-.25-2.469-.844-1.75-1.843-1.812-1.563-2.062-.531-2.75-1.313-2-1.593-1.032-2.47-3.719-.718-1.78-.437-2.095-2.438-3.187-2.75-2.062-.625-1.594-1.5-1.75-.719-2.156-1.375-1.438-3.53-1.531-1.438.312-1.407-.594-2.062-1.5-2.188-.468-2.906-.156-1.5-.594-2.687-.313-2.22-1.531-1.655-2.719-2.188-1.25-2.562-1.593-1.47-1.907-.937-2.437-1.843-2-1.75-.219-1.563-1-.406-3.156-2.531-2.375-2.688-.375-2.875-2.406-2.844-1.313-2.593-1.875-1.532-2.687-1.968-1.25-2.5-2.22-1.375-.78-.282-2.344-1.562-2.531-.406-1.688.625-2.156-.157-1.844-.875-1.281-.03-2.25-1.188-1.344-1.844-.906-.5-2.031 1.344-2.532-.625-2.343-.907-2.063-2-1.437-3.218-4.375-1.313-.782-1.312-.187-2.375-1.844-1.688-.469-2.375-1.437-3-2.938-3.25-.875-3.187-1.062-.844-.781z" style="fill:#9faec0"/></svg>