<svg xmlns="http://www.w3.org/2000/svg" width="1316.875" height="1183.844"><path stroke="#9FAEC0" stroke-width="10" d="M798.125 0 755 2.094l-29.375.937-76.656 1.75-39.75 1.344-50.657.531-62.53 1.782-56.657.093-103.5 1.906-39.125.375-63.875.157L1.781 7.312 0 10.282l.563 1.905 1.625 4.594-.97 2.031 1.095 3.063 2.812 1.062 2.25.063 3.875-.969 1.781 1.594 2.594-2.688-.375-2.406.625-3.969 3.063-1.437 2.593 1.5 1.907 2.562.718 2.188-1.875 5.344L15.5 29.28l.281 2.563-.406 2.718 1.813 3.5 2.03 1.313 1.876 1.687 2.187 3.813.125 2.25-1.062 3.562.468 1.875 1.907 3.22 1.062 2.374.375 2.219-.063 2.156 1.063 2.156 2.406 3.125.156 3.313-1.937 1.781-4.5 2.531-.125 2.188 2.344 1.344 6.906-2.125 2.312 1.062 3.313 2.625 3.875.563L44 83.312l.03 1.97-.937 2.624.938 2.5 7.093 3.219 3-.281 3.469.843 2 2.625.563 2.094-.344 2.688-2.156 4.281.625 3.844 1.625 2.25 2.03 2 3.532 1.5 1.781 2.656.313 3.031 2.094 2.5 2.75.375 2.093 1.25.844 3.094-1.469 2.469.938 1.906-.719 1.906 1.156 2.219-1.593 3.094-2.313.468-1.687 1.782.593 3.125 1.594 2.843 1.875 1.47 3.563.718 3.75-1.125 3.406.812 2.562 2.688 3.625 1.469 1.188 1.968 1.156 4.938 2.688 1.906 3.937 2.125 3.875 5.344 2.656 1.187h4l3 2.5-.156 3.032-.719 1.843v1.782l2.344 1.937 3.563-.031 3.125-1.594 3.343 1.813.469 4.687 2.438 1.938 4.406 1.281 4.125 1.844 9.312-.938 2.438-2.844-.094-2.593 1.656-2.906 2.969-.532 3.031.969 1.844-.281 2.844-.938h1.812l3.875 2 1.406 2.406-.625 2.688-2.25 2.938.25 2.312 2.313 2.188h689.281l-.156-.25-2.063-6.407-.093-3.219.656-2.718 4.469-5.438.312-3.312-1.281-2.563-3.094-3.469-4.687-8.375-.782-2.906-5.062-10.562 1.031-5.375-1.562-5.344-.75-4.5-.688-2.125-1.187-5.625-.125-5.937.656-2.157-.75-3.281-.219-2.062.406-2.626 1.313-2.437-.5-4.437.531-2.25-.437-3.063 1.656-2.844 1.594-3.844-.594-3.312.406-2.062 3.781-8.72 1.032-4.374.875-2.063 3.406-5.312 3.594-2.25.187-2.688-3.062-.968-2.22 2.75-2.25-.032.157-2.156-1.75.281-2.625-.437-1.125-2.125.5-2.906-1.906.593-3.156-1.687-2.094-.563-.469-1.906 1.406-3.969-1.812-.156-.563-2.187 1.72-1.876-1.063-2.28-4.75.062-2.188-.563-2.156-1.218-1.344-1.844-1.062-3.688-1.532-1.968-3.562-1.907-1.688-1.968-.187-1.782.687-2.375-.25-3.718-2.5-1.094-11.03-3.157-.595-1.906 1.032-4.125-1.97-1.844-4.03-2.687z" style="fill:#9faec0" transform="translate(0 125)"/><path stroke="#9FAEC0" stroke-width="10" d="m166.844 197.188 2.156 2.03 2.5.657 4.125.625 1.406 1.813.219 4.375-.937 2.593-2.407 1.625-5.656.219-2.594 1.656.094 2.781 2.719 2.532 1.938.969 3.78-1.438 2.876-1.875 2.344.5.906 1.844.312 2.25-1.718 4.656-3.22 2.344-3 .719-3.75-1.22-5.75-4.25-3.25 1.282-1.437 2.844.563 5.625-.438 5.156-2.156 2.219-6.656 1.094-2.438 2.28-2.25 4.032-2.062 3.031-.938 2.594v2.688l1.25 2.812.157 2.875-.688 1.938-1.25 1.78-3.594 1.063-3.343-1.187-3.032 1.875-1.187 5.062.625 2.406 1.125 2.438 3.375 3.781 2 1.75 3.562 1.813 1.719 2.281 1.156 6.75 1.438 1.938 1.781 1.375 2.5 1.343 3.063.844 2 .906 2.218 2.563.438 2.437 2.406 2.563 1.906.75 1.688 2.094v2.562l2.469 2.594 3.53-.219 3.095-1.781 2.968.906 1.188 3.625-1.594 2.625-3.031 1.281-1.469 2.031-.094 2 .844 7.688 1.5 4.156 3.594 4.188 4.468 2.062 2.25 1.438 1.75 1.656 1.969 3.125.344 2.094-.406 1.969-1.407 2.593.625 2.031 1.938 1.625 2.031.688 1.781.188 2.656-.407 2.5 1.531 1.22 3.063 1.468 2.531 2.063 1.719 2.28.844 3.376.25 3.594-1.219 3.28-2.437 2.095-.22 1.78.5 1.97 2.063-.438 2.938 2.125 2.187 2.969.031 2.312-.656 3-1.156 3.938 2.531-.313 3.344-2.844 3.812-.53 2.532-.063 9.906h771.5l2.843-3.469.344-3.156-1-4.406-3.312-5.375-1.219-4.188-.281-5.437-.75-2.313-.594-3.094.031-4.218-.906-2.625.031-2.219-1.656-5.938-1.781-1.53-2.47-.907-3.187-3.75-1.562-3.25-2.969-2.594-1.718-2.625-3.438-1.906-6.062-6.344-10.375-6.937-.938-1.813-3.187-1.094-2.563-2.156-.656-2.219-2.157-1.718-3.78-1.156-2-1.625-3.188-1.188-5.907-4.031-2.875-2.5-4.78-6.594-.376-5.25-3.031-3.344-2.594-5.531-1.468-2.437-10.5-2.438-2.938-4.281-1.219-7.281-2.218-3-8.563-4.032-2.344-2.375-1.5-2.781-2.312-2.094-1.25-2.031L887.5 243l-5.75-4.656-2.469-2.219-7.406-6.25-2.781-3.625-.094-3.562.906-3.25.094-5.563.5-2.844-1.125-2.531-1.969-2.812-5.875-4.157-4.281-2.625-1.125-1.719z" style="fill:#9faec0" transform="translate(0 100)"/><path stroke="#9FAEC0" stroke-width="10" d="m230.219 394.5-.156 24.469.187 38.906-.781 49.438-.375 45.312.125 39.219h836.719l-.157-4.719.844-4.312 2.344-5.157 1.125-3.968 1.812-3.22 5.219-6.374 2.969-2.594 1.594-3.375 1-1.875.28-4.844 1.188-3.843.157-2.5 1.53-3.22.938-3.093.125-2.75 1.594-2.312 2.031-4.25 1.813-2.438 2.219-4.625 4.53-3.406 2.25-2.532 1.532-3.187 1.281-5.687-.5-1.844-.312-3.406-.094-2.844-.75-2.406-3.125-4.813-1.375-2.375-.531-3.906 1.312-3.625 4.313-3.781 1.624-3.438 1.72-3.156 3.874-2.688 4.657-3.844 1.093-1.968.594-2.375 1.094-5.75-.844-3.031-5.281-3.47-2.25-1.124-2.938-2.344-4.031-2.25-2.125-.656-5-5.063-5.375-3.062-2.469-.25-2.906-.875-6.312-.094-1.907-1.156-2.843-1.25-2.532-1.875-9.156-4.688-2.906-.937-4.406-.25-1.844-.906-2.375-.125-2.219.875-1.812 1.312-2.25 4.156.061 2.125-.843 2.25-2.5 3.938-1.531 2-1.876 1.031-5.343 6.094-2.313 1.062-3.156.594-2.906-.719-8.282-5.187-1.468-3.188-2.375-2.062-1.844-2.094-1.188-2-1.156-5.156-1.344-3.594.062-4.844-.656-3.281-1.719-2.969-.937-2.875-4-8.469.031-1.906 1.906-1.906.5-1.844.625-.781h-771.5z" style="fill:#9faec0" transform="translate(0 75)"/><path stroke="#9FAEC0" stroke-width="10" d="m229.219 591.844.062 21.5-.281 18.281-.031 45.125-.75 64.969.187 47.468h1006.47l-.314-.53-.968-6.032 1.562-6.156 3.938 1.187 3.25-1.468-.156-3.344-1.47-2.125-4.093-4.563-1.781-2.937-.062-2.344-.188-2.687.125-3.063.813-4.5-.906-1.844-2.907-1.937-6.968-1.75-3.938-2.469-2.125-4.281-3.594-2.375-.312-1.782-3.188 1-3.187.063-3.156-1.687-.47-1.875 1.345-4.188.156-2.687-1.844-3.5-2.594-2.032-3.937-2.312-2.875-2.282-2.375-2.406-2.063-3.031-2.812.156-2.188-1.375-1.781-.093-2.375.093-2.219-2.656-.03-3.156-.313-1.813-2.844-1.593-7.281-4.22-2.219 1.657-3.531 4.344-2.031 1.5-2.438 1.312-4.156-.25-2.813-1.125-3.03-2.281-1.47-3.406-1.156-2.407-1.469-2.906 1.594-3.843 1.188-1.813 2.437-.031 3.188-2.063 1.312-2.968-2.25.062-1.219-2.687-2.468.875-6.25 1.156-2.125-.281-2.22-1.782-4.75-6.406-3.75-2.156-1.562-3.063-2.562-.375-3.125.313-2.156-1.125-3.625-2.938-1.72-2.312-.03-3.532-.656-1.78-5.657-3.47-2.75 1.344-9.156-6.312-4.812-4.719-1.344-3.156-4.906-8.344-3.125-3.281-1.907-1.219-4.343-1.656-1.844-1.532-4.406-6.75-1.094-2.718-.875-3.032-.875-5.656-.563-3.125-.53-2.875.03-3.25.406-2.531v-.156z" style="fill:#9faec0" transform="translate(0 50)"/><path stroke="#9FAEC0" stroke-width="10" d="m228.406 789.188.031 8.968-.312 78.313.094 48.937-.344 9.5.312 1.969.032 49.625h1085.125l.312-1.375-.844-2.875-2.375-1.625-4.812-.281-2.781-2.188-1.625-3.312.125-5.907 1.687-2.03 3.438-1.313 2.875-.125 1.187-2.5.938-3.594 1.906-4.094L1315 947l1.656-6.031.219-4.938-1.219-2.437-2.625-2.625-2.219.03-3.343.938-5.875 1.907-2.938-2.344-.562-2.5v-2.625l-2-5.156-4.032-2.813-2.5-3.031-1.468-3.813-1.844-3.656-.969 2.031-4.687-.687-4.844-.406-.5 2.687 1.187 2.656 2.688 1.813 2.656 1.094 3.469 3.312.5 2-2.375 5.656-1.781 1.22-2.657-.907-6.093-6.125-4.531-2.406-3.25-1.188-3.125-2.437-1.125-1.75-.25-2.907 1.25-3.25.625-2.562-.282-2.656-2.156-4.282-4.656-3.843-2.75-4.032-1.906-3.562-.594-2.344-3.531-6.875-1.125-2.937-.938-6.25 1.656-4.219-.125-2.125-2.312-1.187-3.813.5-3.812-5.125-1.781-3.625.5-2.532.562-3.375.938-1.843 2.562-2.313 1.219-2.219 2.844-1.218 5.312-.594 2.906-1.688.938-2.343L1253.5 827l-.281-2.437-.688-2.657-1.625-4.968-1.093-2.657-2.22-3.281-4.843-5.469-3.281-5.812-2.125-6.094-2.469-4.437z" style="fill:#9faec0" transform="translate(0 25)"/><path stroke="#9FAEC0" stroke-width="10" d="m228.219 986.5.031 68.188 51.844-.063 47.531.282 89.281-.188 171.906.438 53.907-.281 27.968.406 51.75-.438 99.657-.187 39.562.625 123.156-.438 116.188.25h2.688l5.062.282-.344 2.312-.625 1.906 1.906.969 1.313 1.75-1.906-.312-.563 1.875 2.625-1.094.313 2.406.937 2.688.406 2.375-.718 1.78-1.125 1.97 1.812.343-.844 2.282 1.97.625 2 .53 1.78 1.438 2.188-.062 3.844 1.188 1.718 2.094 1.313 1.843-.094 2.157-.469 2.687-.812 2.281-1.5 1.813.187 2.062.313 1.75-1.25 2 .406 2.063 2.031 1.312 1.063 2.75-1.094 1.969-1.844 1.281.657 2.25-1.563 2.313-2.437.187-2.094 1.407-1.875 1.093-.75 1.782-.406 2.03-1.782 1.376.875 2.094-1.312 1.812-2.5.781-1.25 1.875-1.75.031-2.906 1.313-1.97 1.562-1.874 1.063-1.094 2.094-2.094 2.343-1.781-.375-1.812 2.875-.313 2.469v2.5l-.062 1.813-.75 1.875-3.094 2.53-1.937.595-1.125 1.843-2.438.657-2.843.812-.97 1.813-.405 2.437-2.25.781-1.782 1.969.438 1.969-1.031 1.969-1.875 1.03-.031 2.813-1.47 2.438-1.687 2.031-.937 2.25-.188 2.125-1.812 2.094-2.688 4.719 132.375-1.375.657-1.813 2.187-3.187.781-2.25 1.313-11.032.594-3.156 2.437-2.875 4.625-2 2.906-.812 5.219-3.25 1.656-2.22.375-3.593-.406-3.031-2.625-4.406-2.219-2.25-3.687-2.313-3.531-3.219-4.875-3.687-2.594-2.313-2.5-3.843 2-3.282 3.375 1.125 5.25-.593 1.844.312 7.843 2.906 2.969-.343 1.938-.72 3.03-2.218 3.438.875 1.969-1.344-.156-4.562-1.844-2.563-1.844.72-4.781-2.72-2.25-2.187-4.344-3.125-1.562-5.25 1.781-2.813 2.031-.625 3.719.157 4.188 1.187 3.03.219 2.595-.625 2.53-2.406 1.157-2.875.688-3.532-.844-2.875-2.219-4-3.375-5.03-.562-1.782.343-3 3.938-4.563.75-2.687-.594-3.656-2.344-2.594-1.375-3.094-1.75-2.094-2.312-4.906-1.844-5.594.906-2.968 2.813-3.344 2-.844 2.937-.156 2.219.75 3.219.5 4.125 2.062 1.156 2.125 1.031 3.094.438 4.594-1.313 4.156-1.968 2.969-.844 1.844-1.406 5.468 1.5 2.938 1.906.969 2.406.156 2.156-1.031 1.938-1.875 2.687-3.344 1.844-3.031 1.781-4.5 1.25-6.438.875-3.812 3.032-6.344 1.03-6.156.813-2.657 2.563-4 2-1.031 2.344-.687 2-.031 1.75.78 3.062 3.938 1.531 5.032 2.125 2 4.032 4.687 1.78 1.094 2.595.03 2.093-.655 4.313-4.157 1.437-2.406.75-4.625.25-3.5 1.719-2.344.969-3.218 2.031-1.844 2.219-1.563 1.281-1.781-1.75-3.031-.406-2.938-2.5-2.468-3.344-4.313-.344-2.594.688-3.437 2.719-3.719 2.968-1.437 2.313.968 4.281 1.094 1.875-.031 1.344-2.063.312-1.437z" style="fill:#9faec0"/></svg>