<svg xmlns="http://www.w3.org/2000/svg" width="670.125" height="1092.75"><path stroke="#9FAEC0" stroke-width="10" d="m520.469 0-6.563.25-95.437.219L379.03.125l-39.062.25-86.313-.344.938 2.438 1.5 1.969 1.719.843 1.843 1.75 4.438 2.219 1.156 1.625.625 2.313-.031 3.78-.344 1.532-.687 1.563-5.5 3.906-5.125 2.843-1.313 1.313 2.063 3.438-.282 1.343-1.625 1.469-1.968-.531-1.72-1.375-1.53-1.782-2.22 1.625-5.218 1.657-6.625 3.187-2.062-1.187-.657-1.375-.437-3.563.312-2.781-2.125-3.437-2.375-1.094-2.312.03-2.594 1.75-.75 1.376-.219 1.812.594 2.594 1.188 1.5 2.218 3.688 1.344 3.28-1.625 2.22-.969 1.25-.781 2.687.781 2.781 2.594 4.563.938 2.406v1.875l-1.157 2.031-2.281 1.313-3.562.75-2.407-.094-3.5-1.75-.781-1.625.656-3.718 2.907-2.063.843-1.5-.5-2.031-2.093-4.875-1.532-.125-3.656 1.968-1.062 3.25.312 1.313 1.625 3.719-.437 2.781-1.907.625-2.531.75-.812 1.813.406 2.187 3.687 4.281 1.344.75 3.188.5 5.437-1 3.031-.031 1.594.875 1.156 2.188-.656 3-2.594 3.28-2.781 2.25-2.562 3-2.157 1.532-1.562.469-1.75.031-2.469-1.531-.937-2.656.937-3.907 2.344-2.594-.469-2.374-1.813-2.282-1.375-.531-1.906.969-2.156 2.187-1.812 2.938.375 4.344.625 2.062-.97 3.625.188 2.469 1.031 2.594L204.5 92.5l3.125 3.313 1.438 2.156.968 3.437-.937 2.344-1.813 1.531-2.625 1.375-2.031 2.344-1.219 3.281-.469 2.031-.125 2.5 1.125 4.813 1.97 1.781 1 2.031.405 1.5-.125 1.313-.875 2.094-1.812 2.219-7.125 4.937-3.094.531-3.844 3.281-2.156 3.625-.031 1.657 1.781 5.969-.75 1.53-1.5.563h-1.625l-1.5-.625-1.343-1.562-.094-1.594.375-2.031 1.875-3.219.937-4.219-6.656 1.75-2.437.031-3.157-.812h-2.75l-1.468.875-.75 1.687.187 2.407 2.656 2.718 1.344 1.47.969 3-.094 1.812-2.156 3.687-2.375 1.969-1.313.125-5.78-.563-1.313.594-2.282.531-1.468 1.157-.594 1.5-1.125 5.375-.25 1.875.031 2.406-1.469 3.75-1.687-1.125-1.938-.125-2.28-.75-3.938-3.219-.813-2.562-1.531-1.125-3.219.406-1.406 2-.031 1.625.375 2.062.718 1.344 3.25 3.969.844.531h512.656l.438-2.625.187-3.656 3.5-32.563-.656-1.437 1.094-2.438 2.687-26.78 3.063-26.438 3.187-24.344 3.47-38.438-6.032-2.468-1.313-.907-2.53-2.437-1.72-2.781-.593-2.032-1.5-3.593-2.563-3.75-1.156-1.844L651.25.062 528.531.187zM585 1043.188l.75 1.562z" style="fill:#9faec0" transform="translate(0 125)"/><path stroke="#9FAEC0" stroke-width="10" d="m140.5 181.781 4.094 2.531 1.969-.812 1.468.594 2.656-.875 3.282.687 1.844-.219 2.218.407 1.5 1.594.281 2.343-.28 1.406-1.376 2.157-1.844 1.781-1.937.938-2.094.218-3.281-.844-3.5-2.468-2.125-2.125-1.437-.781-1.5-.25-8.344 6.093-.813 3.031.625 1.438 2.281 2.625 4.657 3.219 3.25-.375 1.437-.719 3.188 1.125 1.156 2.813-.75 1.906-1.437 1.844-1.094 1.937-.219 2.031-.25 4.094-1.719 1.031-2.375.406-2.187-.28-2.094.874-1.469.281-1.437.063-1.563-.562-2.312-.313-3.219.594 1.5 4.844 1.688 1.28 1.843 3.595-.281 1.312-.937 1.594-1.344.562-1.625.156-2.813-1.093-1.031-2.25-2.844-6.406-2.812 1.78-2.75 2.313-3.406.063-1.688.281-2.344 1.875-.375 1.25.406 2.375 1.72 1.188 6 1.5 2.03.843 3 1.5 1.75 2.625-2.937 3.969-5.469 5.656-3.281 4.656.031 1.688.969 3.281 2.031 2.625 1.844 3.063 4.094 2.125 3.281.781 1.5.781 1.531 1.469.594 1.813-.5 1.78-1.688 1.72-2.375 1-2.656.25-5.094-3.407-5.968.5-4.094 1.313-1.469-1.469-1.594-1.125-1.625-.281L97.094 276l-.938 2.969.625 1.844-.312 1.968-.625 2.438.03 1.312.75 1.5 3.188 3.438 1.532.812 1.843.125 2.032-.219 1.625-.5 2.406-1.468 1.344-.469 1.593.375 2.47 1.906 1.437 2.219 1.625 2 .03 1.375-1.843 2.625-3.594.844-3.656 1.812-1.531.25-1.375-.25-1.313-.5-5.875-3.437-6.375-6.656-1.843.437-4.72.375-1.343.313-2.406 1.625-1.375 2.25-.219 1.25.156 1.406 1.344 1.875 1.844 1.031 5.437 1.281 2.125 1.156 6.032 5 .906 1.375.75 3.063-.688 2.625-3.406 2.656-1.625.313-3.281-.281-3.781 2.375-5.688 1.687-.781 2.125.281 1.313 1.781 3.28 2.125 2.126 5.063 4.656.031 1.563-2.312 2.187-2.438 4.5-1.312.875-1.47.438-1.593 1.28-.719 4.032 3.438 1.063 1.969.187 3.75-1.094 1.812-1.125 1.188-2.656-.125-1.594-.75-2.125-.313-2.312.156-1.469 2.25-2.125 5.438 3.875 2 1.781 1.25 5.375-.5 1.25-1.406 1.656-.625 1.407-2.438.531-1.656.5-4.25 1.938-1.563-.594-1.406.437-2.5.781-.719 1.532.469 1.656 2.906 2.375.563.313h12.594l.125-.063 2.625-2.469 1.843-2.625.375-1.719-.093-1.656-.375-1.312.593-2.469 1.47-2.031 1.624-.906 1.938.125 1.875 2.218-.094 3.75-.781 1.688-1.094 1.656-1.344 1.813-3.375 2.687-1.312 1.313h529.28l9.282-92.25.813-5.625 5.28-47.282 3.782-36.406.125-.719zM585 1043.188l.75 1.562z" style="fill:#9faec0" transform="translate(0 100)"/><path stroke="#9FAEC0" stroke-width="10" d="m88 364.063 3.063 1.656 3.906.531 1.594-.281 4.03-1.906zm16.594 0-.313.312-3.5 5.219-4.031 3.125.156 3.062-.531 1.844.438 3.031.25 4.156 1.374 1.72 1.376 2v1.25l-.5 1.406 1.874 1.468 1.438 3.656 2.563.97.406-2 .812-1.438 1.125-4.625 1.125-1.375 2.156-.875 3.563.969.875 2.125-.187 1.343-1.157 3.813-1.187 1.687-1.625 2.313-.969 1.312-1.937 1.094-2 .375 1.374 9.031-.218 5.688-.375 2.406-.688 1.563-2.469 1.5-1.843.406-3.313.156-4.031-1.344L93 419.875l-1.469-.187-2.687.218-1.781 1.125-1.626 2.625.282 4.125 3.656 1.938 1.75 2.375 2.063.531 2.03.875 5.407 5.094-.375 1.937-.562 2.125-.563 1.75-1.562 1.094-2.313.531-2.406 1.5-.813 2.281.125 1.47-.531 2.5L90.5 455.5l-2.281 1.875-2.781 4.469-.094 1.531-2 3.094v3.156l.875 1.531 2.156 1.938 2.844 1.219 2.156.468 1.938-.125 2.812-1.25 2.063-2.781.53-2.781-1-6.188.938-1.781-1.312-1.406.562-1.875 1.969-1.125 3.5-.969 1.813.563 1.906 2.312 1.219 3.031.25 1.75-.657 1.438.407 1.25 1.843 1.625 1.25 2.719-.156 1.718.063 3.5-1.157 2.813-3.031 3.437-3.562 3.406-1.97.625-2.25.125-1.874 1.375-1.344 1.407-2.5 4.656-.625 2.219.125 2.469-.656 3.562 1.687 1.344-1.687 3.719-.25 2.28 1.344 2.25 1.593.376 4.813-.313 2.062.719 4.344.875 6.344 2.406.437 1.438-.437 1.5-2.219 3.093-2.344 1.75-3.312 1.313-3.688 2.563-1.781 1.968-.594 1.469-1.25 1.875-1.281.594-1.562 1.625-.22 1.25.25 3.375.626 2.25 1.219 2.625 1.406 1.625 1.375 1.156 1.531.406.781-1.406 1.594.156 5.219-2.343 5.594-1.5.187-1.438 1.5-2.844.156-1.687 1.563-1.532 1.125-1.406 1.906 1.125 1.688 2.344.718 1.969-.125 2.343-.875 1.813-1.031 1.313-2.094 1.687-1.406 1.719h498.406l2.813-29.094.969-8.406 2.625-28.563 5.25-53.156.343-5.312.407-2.063 1.875-17.781 3.812-37.906zM585 1043.188l.75 1.562z" style="fill:#9faec0" transform="translate(0 75)"/><path stroke="#9FAEC0" stroke-width="10" d="m117.375 546.344-.719.875-2.5 1.343-5.844 3.875.938 2.22 3.344 2.905 7.375 2.907 4.469 2.812 1.437 2.938-.531 1.593-1.969 1.438-3.844-.531-3.25-1.313-2.406-2.218-4.531-7.532-4.344-2.562v1.718l-.625 2.625-3.031 6.907.25 2.687 1.375 2.532 2.875 3.312 3.375 2.25 4.562 2.188 4.375.906 4.594-2.844 1.563-1.031 2.906.687 1.969 1.907.593 1.25-.375 3.843-1.281 1.375-3.531 1.594-.125 2.625-1.281 2.906-.563 3.313 2.031 2.437 1.313.532 6.062 1.312h2.188l2.281.375 3.469 1.094 2.875-3.563 1.125-3.968 2.937.218L145 599l-2.812 4.625-.407 2.563-1.687 2.53-1.969 2.095-2.219 1.906-3.594 1.406-.812-1.312-1.281-1.594-2.875.718-.875 3.125.844 3.313 1.906 2.906-2.031 2-.532 2.782-.062 4.437-3.063 4.688-.687-1.594-.313-3.344.375-2.312-1.25-.688-2.25-2.281-3.281-1.407-2.156 1-.531 2.282-1.563 2.093-2.562-1.906-1.626.157-1.593.562-1.563 1.375-1.531 2.188-1.656.343-1.75-1.312-1.313-.219-5.75 3.75-1.312 4.594-.656 4.906.53 2.406 1.688 2.625 3.469.532 2.438.937 3.843.344 1.875-1.469 1.781-.562 1.876-.063 2.374.563 1.438 1.03 1.5.563.438-4.468.5-1.344-.22-1.657-1.124-1.437-.594-1.687.094-2.22 3.125 1.47 3.156 2.718 1.594.375 2.562-.281-.219 3.625-.593 1.719-2.407 3.375-2.062.687.094 2.813-.907 1.75-8.75 5.593.157 6.313-4.313-.562-2-1.813-2.687-4.125-1.344-.937-2.469.125L93 663.125l.437 2.563L94.47 667l1.656.906 10.094 2.375 1.343 1.063.563 1.312 1.031 2-3.812 4.969-1.25.875-2.75.875-8.875 1.031-2.25 1.875-1.594 1.969-.75 1.406-.125 2.938-.313 2.781 1.375.125-.218 2.219.5 1.812-2.25 1.469-1.625.313L84.094 701l-3.407 3.469-1.5 1.875-2.5 1.593-3.125 1-.812 1.532.281 1.437 1.906 2.313 2.344 2.25-.312 1.968-1.438 2.22-1.469.968-1.343.063-2.657-1.5-1.156-2.938-.125-2.562.156-1.563-.906-3.062-2.687.937-3.25.25-2.407.906-1.312 1.657-2.875 10.906-.594 2.968-.062.938h545.875l-.97-26.125 13.095-125.687 2.937-30.47zM585 1043.187l.75 1.563z" style="fill:#9faec0" transform="translate(0 50)"/><path stroke="#9FAEC0" stroke-width="10" d="m54.844 728.625-.313 4 1.875.625 1.907-.094 3.156-.53 2.062-.72 2.563-.437 4.375-1.438 2.031.344 1.469.938.562 1.468-1.469 2.188-1.843 1.25-3.406-.063-2.188-.78-2.656-.313-5.844.03-3.281.688-5.375 8.5-.407 2.594-.03 2.406.843 9.75-.5 4.063-.5 1.343-3.781 2-2.844-.218-5.219-1.782-1.968-1.125-1.5-1.312-3.22-3.062-1.5 1.25-1.53 1.968-.47 2.282.25 1.937L28.689 770l1.875 1.406 1.812.875 3.188-.093 2.062-.47 4.281-1.78 3.719.156 1.688 1.281-.282 3-.468 1.594-1.313 1.656-4.281 3.625-1.875 1.219-6.063 2.344-1.875-.875-2.75.218-2.187.563-1.313 3 1.5 1.687-.437 2.657-.188 3.375.219 5.187.375 2.563 2.875 6.593 3.719 3.594 1.5 1.625-.094 2.781v3.094l-1.187 1.406h-4.876l-3.218-2.312-.969-1.313-1-2.125-1.344-6.25.438-1.406-.657-1.5-1.5-.437-4.062 3-1.156 2.03-.406 2.595.843 1.843.938 3 1.187-1.28 1.313-.72 1.812.97-.718 1.312-.22 2.875.345 2.062.03 1.344 1.313 1.625 1.344.781.625 1.406 2.469 1.907 1.875 1.875.125 1.375-.188 3.937-1.812 3.719-3.625 1.781-3.032.969-1.937.312-1.969.094-2.469-.281-6.343-1.188-3.75.188-1.406 1.062-1 1.469L0 848.281l.563 1.688L2 851.844l3.625 1.875 4.438 3.968 1.25 1.5 1.124 2.938v2.344l-1.53 3.437-1.344 2.031-4.032 5.813-.062 2.687 2.5 3.094 3.406 2.688 5.75 5.562.531 1.344.25 1.531-.25 1.781-.593 1.657-1.375 2.093-1.25 1.282-2.282 1.53-6.531 2.72-2.219 1.343 25.782.157 197.593-.188 119.907-.593 12.312.625 2.813-.907 1.406.563-1.281 1 1.343.718-.531 1.532-1.031 2.75.125.187H609l-2.75-63.187-4.906-102.563-.625-16.531zM585 1043.188l.75 1.562z" style="fill:#9faec0" transform="translate(0 25)"/><path stroke="#9FAEC0" stroke-width="10" d="m361.844 910.906 1.156 1.657-1.969 1.03-.687 1.376-1.469.937-.875 2.719 1.313 1.281-.75 1.907 1.5 1.468-1 1.344-1.75-.5-.782 1.688 1.313 1.5-1.344 1-1.344-.625-.187 1.625.437 2.53h-1.437l-.156 1.75 1.937 1.782-.906 1.344-.406 1.437-1.625-.625-.47 1.594-1.25-.312.938 1.406-.5 1.406-.125 1.406 1.469.594.281 2.313-1.937-.344-1.563.312.531 1.657-1.406 2.093-2.094-.187 2.313 2.75-1.531.812-.219-1.375-1.625.563.25 1.968-1.875.25.5 1.782-1.469.531.469 1.406 1.344 1.469-.719 1.625 1.313-.75-.625 1.656-.125 2.25 1.343.094-1.531.156-1.687.656 1.343.625-1.344.75 1.75-.343-.78 1.406.03 1.594-2.156-1.094.156 2.5-.375 1.531 1.47.781-.188 1.938-1.5.812 1.406-.187-.906 2.562-.563 1.75 1.375-.718-.875 1.343-1.344 1.25 1.657-.093.03 1.968 1.407-1.218.531 1.531 1.844 1.375-.437 1.281 1.656.594-1.156 1.656-1.72 2.813 1.345.343.187 1.844 1.25.219-1.5.188 1.625 1.5-.437 1.593 1.75 1.032-1.625.343 1.156 1.688.281 2.375 2.344.531 1.656-.875-.906 1.469-1.906-.25-.25 1.312 1.625.313.406 1.875-1.406.281 1.906.531 2.344 1.188.437 1.5.594 1.468-.25 1.25.969 1.72 1.968-1.22-.625 1.5 1.5.97-.062 1.718 1.875.281-.313 1.469 2.125-.094 1.688.188 1.031 2.03 1.75 1.094.75 1.282.844 1.625 2.156 1.375-.031 1.375 1.281.375.125 1.375-.437 1.375.875 1.375-.157 1.937.688 1.532-1.313 1.312.125 1.406.844 1.344 1.063 1.625.687 2.438 1.25 1.28.875 1.563-.125 1.782 1.281 1.25 1.25.937.907 1.344 1.312.719.688 1.312-.407 2.094-.218 1.5 1.468 1.594-1.5 1.343-1.437 1.032.25 1.874-1 1.625 1.531.72 1.344 1.905-.344 1.844 1.313 1.157-1.282.75 1 1.874 2.407 1.594-.532 3.875 1.188 2.157 2.562 1.312 1.532 2.719.718 2.062 1.125 1.438 2.25.906 1.938-.875 1.875-1.906 2.281-.5 1.281 1.5.532 1.406 1.156-.75 3.375.781 2.625.157 1.719-1.626 3.343-.094-.437 2.688.625 1.563 2.031-2.094 1.75-1.063-.562-2.656 2-3.594.968-1.875 2.063-1.812-.844-3.188.688-1.719 4.687-3.062 1.688-.125 3.187-3.375 5.813-3.812 2.406-2.407.5-1.812-.375-1.438-1.813-1.906-1.093-2-1.469-.656-3.125 2.344-3.219.468-4.5-1.5-2.156 1.063-.188-1.438 1.75-1.187.875-3.781-.78-1.626.437-5.437 1.75 2.688-.219 3.78-.188 2.345.313 2.437 3.375 1.563 2.906-.72-2.187-.343 3.375-5.5 8.281-2.875.875 2-.813 1.531 2.782-.781 3.406.906-2.219 1.031 2 2.188 2.938.656 1.937-.312.625 1.344-3.844.312-1.812 1.344-.125 1.375-1.75-1.344-.5 5.438 2.875 1 2.469-1.157 4.437-1.375 4.938-1.5 6.531-2.844 7.562-2.5 3.125-1.656 3.532-1.312 1.5-.563.875 2.125 1.75-.312-.125-2.344 2.718-1.5 4.75-1.781 2-.219 3.344-1.031 2.75.125 1.625-.406 2.25-.563 8.344-1.187 11.344-.157 1.343.438 1.625-.031.344-1.75-1.593-1.969-1.532.5-1.218-1.375-1.407.375-2.156-1.219-1.562.688-5.063.03-1.719-.437-1.531.5-1.594-.219-2.844.47-1.343-.188-3.156-.094-1.47.812-2.25.5 2.188-1.469.531-1.968 2.438.781.031-2.156-1.75.406-1.812-1.375.062-1.313 1.875 1.25 1.625-1.75 2-.468 1.969-.75 2.25-2.125 2.031.875-2.156.531-2.188 2.031-1.562.375-1.125 1.531 1.156 2.594 1.594-.75 2.219-.219 1.843.5 2.844-.156.813-1.312 2.093 1.031 1.563-.969 2.875.625 1.687.781 2.5-.468.22-1.344 1.905.719 1.844-.813 1.344.156 2.344 1.344-1.282 1-2.218-1.25 1.312 2.188.5 1.25 2.094 1.343 2.375.97 2.469 1.687 1.937-.125 1.281 1.375 2.125.218-.53 2.22-2.626-1.845-1.781.125-1.344-.125 3.344 2.282 2.719 1.593 7.187 5.157 3.031.281 1.625.594 1.72-.219 2.905-1.281 1.782-2.032 3.343-1.125 1.313.5 2-.312 3.781-1.625 2.094-1.375 1.312-2.75-.125-1.781 1.25-1.219-.406 3.844 1.094 2.093.031 1.5 1.594-.562.812 1.437-.218 1.313-.032 1.562 2.032.25 1.343.407 2.5-.344 2.75 1.031 2.157.438 1.78.875 1.345-1 .812-1.344.313-2.188.53 1.938-.78 1.656 1.406-.219-1.281 2-.032 1.5 2.657 1.657 1.687.468 2-.094 2.813-1.968 1.468-.532 1.375-1.53.22-2.063-1.032-1.438-.469-1.562-1.687.468-.313 2.063-1.25-1.531-.375-1.782.344-2 .625 2.125 2.063-1.343 2.28.625-.093 1.718 2.25-.094 1.969.938-.75-1.844 1.625-.437 2.094-.813.562 1.344.344 1.531-.313 2.063 1.063-.563-.219-5.094-1.594-1.437-.312-1.281 1.75-.344-1.438-34.031.157-2.094-.5-3.219.218-1.25-.156-1.625-.437-10.625.062-3.781-.219-1.594-1.968-51.906-1.063-24.25H361.844zm163.312 134-1.968.125 7.093 2.938 2.5 1.937 1.625.813-3-3.563-1.906-.281-1.719-1.125zm52.25 19 .469 1.282.625 1.312 1.719-1.125-1.532-.969zm-22.812 10.594-3.375 1.656-2.782.188-2.062.219 1.469 1.312 1.843.156 4.5-.156 1.438-.344 2.094.219 4 2 2.625.625 2.281.062 1.438.5h4.656l1.781.563 1.375 1.25 6.156.28 2.5-.187 3.063-.969-5.282-.75-4.218-.187-3.188-.969h-1.687l-1.438-.531-2.187.094-2.625-1-2.219-.375-3.062-1.687-4.563-.657zm-65.094 1.344-3.219 4.25-1.625-1.531-2.687.562-9.031-.156.468 1.469 6.563 1 3.5-.657 1.594.125-1.063 1.282-2.875-.063-.594 1.282 3.719-.469-2.344 5.656.469.469 4.875-7.75zm33.469 1.281-.813 1.906-2.531 1.438 3.344-.344 1.437-1.969zm-15.344 6.219-3.156.719 4.031.687 3.75-1.25-2.219.031zm4.625.156h1.844l-1.532-.094zm83.594-.062-1.032.844 2.625 1.594 1.282.156 1.937.281 1.625 1.063 2.875.343 5-.5 5.094-1.093-2-.907-1.375-1.125-2.562.188-4.22 1.687-1.28.094-5.282-1.375z" style="fill:#9faec0"/></svg>