<svg xmlns="http://www.w3.org/2000/svg" width="9193.469" height="5303.188"><path stroke="#9FAEC0" stroke-width="10" d="m91.813 0-10.5 125.188-1.407 24-8.593 103.218-2.719 33.781-1.188 14.407-5.218 63.5-2.5 31.312-3 36.281-10.594 121.407-15.5 200.5-2.688 32.812-6.718 85-1 12.438H8930L8917.563 720.5l-1.688-22.094-19-248.218-31.312-408L8170.657 89l-39.594 2.094-691.907 36.594-77.28 3.5L6997.562 146l-143.594 6.406-32.094.906-48.218 1.875-33.094 1.5-16 1-16.594.407-32.094.906-50.218 1.406-44.688 1.406-50.187 1.375-33.125.907-31.094 1.406-64.188 1.813-78.312 2.28-16.594.407-79.812 2.313-33.094.78-18.594.5-128.5 3.5-15.5.407-16.594.406-37.093 1.406-15.625.375-64.188.72-16.094.405-32.093.375-46.72.72-33.593.905-15.594-.125-98.812 2-161.094 2-224.906 3.625-24 .282h-70.281l-31.625.312-47.688.094-16.094-.094-32.093.282-32.625.218-32.094-.218-96.406.218-122.375.5-249.907.282-45.218-.5-14-.094-481.782-5-192.093-2.188-195.22-4.406-534.905-12.5-139.875-5.094L2781.875 158l-463.5-16.906-448.812-22.282-17.5-1.406-32.094-1.5-230.687-11.812-51.125-3L1308.563 86.5l-59.688-3.188-7.5-.625-182.906-11.28-40.094-2.813-159.406-9.907-28.594-2.093-95.219-7.094-8.5-.688-15.093-1.312-561.094-43z" style="fill:#9faec0" transform="translate(0 125)"/><path stroke="#9FAEC0" stroke-width="10" d="m20.188 883.844-4.594 56.75-2.688 33.218-2.406 32.282-.594 8.093-2 25.125-2.218 28.282-5.594 71.218-.09 1.688 1.313 1.906 1.093 1.094 1.594 1.094 6.313 3.093 4.281.907 3 2.312.719.594.375.812 2.406 4.375 4.094 7.5 1.312 5.625.5 1.282 2.094 6.312 1.812 5.281.5 1.5 1.282 3.813 2.125 6.094 2.281 3.593 2.719 4.313 2 3.094 1.375 1.718 1.125.688 2.687 1.812.906.688 6.782 7.812.125.688.593 3 1.5 8.594.09.593 2.813 3.313 5.5 6.5 5.093 5.406 3.094 6.5 4 8.188 3.094 6.312.906 1.781 3.313 6.313 3.375 6.312 3.5 2.875 1.125 1.407 2.375 2.812.406.781.812 2 1.188 2.907H99.5l1.5-.688 1.5-.906 3.188-2.094.625-.312 4.593-.407 2.594 3 .406.407.688 2 1 3.093 1.5 4.5 3.719 3.625 3 2.875 7.093 6.72 2.188 5.187.906 6.218v.688l-.312 4.406-.375 7.188-.407 3.093-.09 3-.219 5.813-.906 8 .906 4.594 1.594 4.406.406.687 3 6.313.09.594 1 5 .218 2.718.407 4 .593 5.688.5 2.094.594 2.718 2.906 1.875 3.188-1.187.5-.188 3.219-2.5 3.281-.406 4.906-.594 1.5.094 5.094 1.5 8.406 9.094.906 1.594 1.5 3.594-.718 4.218-.594 4-1 2.094.09 1.406.125 5.094.875 3.594.312.406 2.406 4.188 2.407 3.625 3 2h.375l3.125.094 1.593.094 2.407.094 2.5.094h.5l1.281 1.125 1.094 1.094 6.906 3.78.594.626 7 6.281 2.812 4.219 2.313 3.281.687 4.094-.594 8.906-.218 1.813-.875 4.187-1.407 5.313-.5 1.906-1.906 5.687-.406.813-2.5 5.281-1.281 3.719-.625 2.375-.188 1.906.09 2.594.312 7.406.688 2.406 1.906 5.188 3.906 3.625 2.688 2.187 1.906 1.094 4.594 2.719 5.812 5 2.594 4.5.188 1 .218 2.875.282 4.125-.375 4.875-.125 1.219-.188 2.593-.09 2v.594l.09 3.406.313 1.594.593 1.813.688 1.906.719 1.281.187 2.219.688 3.687-.5 3.313-2.282.875-1.906.5-1.187.5-2.625 1.219-2.5 2.28-1.094 2.813-1 2.5-.281.688-2.907.906-2.5.719-1.812.375-.688.406-2.5 1.594-1.218 1.625-1.594 2.281-.781 1.219-1 .875-.719.625-3.094.781-.687.313-2.219 1.28-2.5 1.626-.594.687-5.812 5.407-4.094 3.906-.781.875-1.719 2.312-.281.5-1.407 4.407v.687l-.218 3.906 2.5 4.688 1.5.719 3.5 1.687 4.906 2.406 1.812 1.094 1.688 1.094 4.094 2.625 3.406.594 1.719.187.281.094 5.719-.187 4.093.312 3.407 2.281.281 2.719-1.688 2.281-2.218 2.906-3.094 3.188-.406.906-.688 3.906.5 1.313 1.406 4.594.594 2.094 1.313 2 2.187 3.406 1.406 1.5.782 1.406 1.312 2.188 1 1.593 1.313 4.219v1.094l.09 2.406.09 4.094.188 2.5.406.5 1.812 2.406 1.688.375 1.812.125.688.094 1.5-.312 4.594-1 3.625-1.282.5-.125 1.281 1.625 1.812 3.594 1.907 4.594.375.594 1.406 1.5 1 .406 1 .094 2.5.312h.406l2.594.094 4.5-.312 3.594-.281 1 1.28.125 3.126-.125.687-4 8.813-1 2.094-.594 1.406-1.906 2.094-1.594 1.593-.5.188-4.594 2-5.187 1.625-1.907.594-2.593.187-3.125.313-6.375-2.22-3.5-1.187-1.5-.406-5.625-.406h-.5l-9.594.906-10.594 2.219-1.187.594-7.313 3.28-2.187 1.313-1.5.907-5.719 3.406-4.281 2.594-4.219 2.687-1.594 1.813-2.812 3.093-2.375 7 1.375 2.594.5.313.968.406h11.938l3.719-.906 1.375-.22 2.218-.187 1.282-.094 2.718-.218 1.219 1.625h8803.657l-11.22-156.813-1.187-15.812-16.5-229.875-7.718-108.5-.375-6.625-9.5-95.375-.125-.72-.282-2.905-.5-7.094-19.875-260.75H20.172z" style="fill:#9faec0" transform="translate(0 100)"/><path stroke="#9FAEC0" stroke-width="10" d="m169.156 1768.313 1.438.593 1.5.188 1.406.219 4.094-.626 2.594-.28.906-.095zm24.469 0 2.063 2.78 1.218 2.22 1.5 3.093 1.407 1h.781l3.5-.094h.594l3.5-.406 3.406 2 2.812 1.281 2.094 1.407 5.5 3.593 1.594 2.313 1.219 2 .687 1.187.688.407 4.906 3.406 2.906 1.906 3.813 2.594 3.281 4.094 2 5.218.312 4.282.09 1.5.188 1.406.125 1.687 2.375 1.5.5.313.906-.094 2.594-.219 9.125-.781 6.375 1.687 2.718.906 2.282 1.094 2.125 1.219 3 1.594 3.375 1.594.906.906 4 3.594 1.406 1 4.5 6.187 1.906 2.625.594.875 2.594 4.406 1.906 3.813 1.188 2.594 2.125 1.312.593.281 2.5 1.594 2.407 1.719 3.375 1.906 1.406.688 3.594 4.687.312 1.125 1.906 8.688.688 2.187 2.312 7.906.5 1.594 4.282 10.313.625 1.093 3.687 8.719.594 1.375 2.5 5.625 1.219 2.188 2.687 3.906 3.906 5.687 3.688 4.594 4.906 3.906.688.313 3.906 1.594 4 1.593 3.094 1.219 1.812.688 1.094.093 4 .22h1l4.094.187 1.406.094 1.094.5 2.5 1.594 1.312 1 .594.718 2.5 2.5 1.594 1.688 2 .406 3.5.906 4-.5 2.625-.406 1-.5 4.875-1.906h.906l1.312-.094 1.407.406 2.093.5 2.282 4.906.218.594 1.5 3.094 1.407 3.094 2.281 3 .594.5 2.5 1.718 3 .594 3 .406.5.094 4.625-1 2.5-.5 1.281-.312 2.406-.188.813-.094 4.5 1 1.593.375 1.5 1 2.407 1.313 2.093 1.094 4.282 2.312 3.218.594 3 .312 1.782.188h1.718l3.594-.688.406-.125 1.594.407 3.5.812 4.313 1.188.781.312 3 1 .719.281 1.687 1 2.5 1.5 1 3-.812 2.219-.375.688-1.719 3-.5 1-.781 1.718.5 3.282.593 1.718 1.5 5.094.594.781 5.406 7.813.5.406 6 4.281.594.719 2.5 2.594.313.5 2.187 4.312.594 4.782-.188 1.718.06 3.282-.313 1.218-.781 1.594-.5 2.688-2 3.093-3.5 5-.593 1.313-.5 4.312.687 2.688 2 3.594 4.594 2.812 1.219.5 2.187.688 5 1.5 6 1.718.687.188 6.219 4.187.407.625 1.593 2.282 1 3v.812l-.06 2.688-.219 5.218v1.782l.312 1.593.688 2.219 1.406 2.281 1.313 1.5 1.687 1.907 6.313 4.5 2.187.593 7.5 2 .594.407 1.906 1.718 2.906 2.782 2 1.812 1.094 1 2.094 1.688 2.219 1.5.593.5 3.5 2.718 2.407 1.782 1.093.812 1.782 1.906 2.5 2.5.718.782 1.594 2.312 3 4.594.188.406 1.5 3.5 2.906 6.781 1.5 3.219.406.906 4.406 8.688.5 1.094 2.594 1.218 3.406 1.5 2.5.5 3.094.688 2.5.5 5.5 2.187.313.719.593 1 .282.906.312 1.375-1.5 3.313-.187.687-.907 3.719-.812 2.094.5 5.5.5 2.312.719 1.5 3.593 8.375 1 1.625 3.782 6.782 5.312 6.812 1.688 2.406 1.125 1.375 3.875 5.125.312.282 6.188 5.5 2.218 1.093 2.907 1.407.875.406 2.812 1.094 3.188 2 1 2.5 1.125 2.5.06 5.218 1 4.282.407.718 3.374 4.5 1.407 2.188.219 8.594-.313 4.093.5 4.813.406 3.906.188.406 1 4.375-.06 4.5-.09 4 1.907 4.719 3.281 4.281 2.406 3.219 1.406 1.906.282 1 .312 3.5-.5 2.594.594 4.188.09.906 2.218 1.094h6.282l1.312.093 5.406-1.78 4.188-2.22 4.219-.687.375-.094 3.125.594 3 1.594 2.187 1.593 6.906 7.219.688 1.188 4.219 7 .687 2.718 1.313 4.375 1.187 3 1.094 2.125.406.688 1.688 2 .812.812 1.313 1.594 1.875 2.281 1.625 1.813 2.281 2.312.812.375 2 1.125 2.094.688 2.5 4.906.313.781.5 1.719 3.5 3.781.375.219 1.5.906 2.906 1.594 3.094 1.688 3.812 2.718 3.5 2.188 6.688 6.187-.282 3.625-1.406 2-1.406 1.688-.688.906-.906 1.281-.906 1.907-.781 1.593-.719 3.5-1.188 1.907-.593 2.593-.407 5.625.782 4.282.218 1.5 1 6.906-.5 2.094-3.406 4.812-1.094.781-.906.719-5.594 4.281-2.218 2.719-.5 2.781 1 1.719.406.781.719.907 4.281 2.593 1 .219 3.906 2.188 3.094 2.906.719 3.187.06 1.313-1.719 5.5-1.093 3.094-1.188 4 .09.593.906 5 .688 1.219 1.719 2.781 1 1.125 4.687 3.188 1.5.5 2.406 1.406 3.5 1.906 1.5 1.594 1.907 1.594.374 1 1.313 2.906-.09 2.906-1.593 3.5-.5 5.188.374 3 2 1.594 2.313-.188.406-.406 1.188-1.313.406-.281.5-1.594.5-1 1.406-2.718 2.594-1.282.687-.312 3.626-.594 1.687-.094 1.906-.125 2.688.125 1.312.375 3.188 1.219 2.219 1.281 1.093 3 2.407 6 1.5 2.219 1.687 2.594 2.313 1.406 2.687 1.781.406.406 2.407 2.719 2.281 2.5 2.312 2.875 1.5 2 2.281 3.125 1.219.875 1.688 1.406 1.719.094h2l2.5.407 2.5.312 2.374.406.626.375 3 2.407 1.093.906 1.281 1h1.719l3 .094h4.281l3.219 4 .688 1 1.093 1.719 2.407 3.687 5.593 5.094 1.626 1.5 2.281 3.906.09.906.5 2.688.813 6-.594 4.719-.406 1.78-2.406 7.595-3 4.718-.594.907-.5.593-6.906 8.407-3.781 7.874-.219.907-.781 4.719.09.874 1.407 3.126 2.187.78 2.5 1h.906l1.594.22 3-.22 1.906 1 1.5.813-.719 3 .126 2.782v2.624l1.781 1.782 3.312.594.407.124 2.593-1.124 1.5-.688.5-.406 3.594-4.281 2.313-2.813 1.593-1.812 1.907-2.188 1.093-.906 4.094-3.594 1.187-.406 3.126-1 .781-.188 2.906-.218h1.094l.812-.095h4l3.688-.406 3.093-3.093 1.813-1.688.09-.594 1-3.406.219-.594.187-1.406 1.094-2.219 1.093-3.593.219-.5 1.407-2.407 1-1.375 4.593-2.218 3 .718 3.781.782 6.813-.688 1.5-.094 3.094-.406.812.281 1.188.406 7.5 4.719 3.594 3.688.312.5 3 4.593 1.688 2.5 2.312 3 5.813 7.594 2 2.5 1.093 1.625 1.907 4 .375 2 .312 6.688v2.187l-.094 2.906-.5 3.5-.406 2.313-.406 1-1.407 3-1.187 1.406-2 2.594-1.813.5-1.875.5-1.218.5-2 .781-1.282 1-.406.406-.594 1.657h8104.75l-43.562-598.438-10.688-156.625h.594l-5.219-79.5-2.687-47.187-.188-2.688H193.61z" style="fill:#9faec0" transform="translate(0 75)"/><path stroke="#9FAEC0" stroke-width="10" d="m954.282 2652.75-.407 1.063.282 3 .406 3.187-.406 6.406.218 1.594 1.688 1.313 1 .78 3 2.595.094.718 4.125 2.907 7.281 3 2.313 6.28-1.813 11.72.406 1.187 1.813 2 .594.094 2.406.219.687.094 1.313.094 5.687.594 1.907.812 1.906.906.594-.125 1.5-.187.687-.188.406-.218.907-.594 3.687-1.5 3.094-1.313 3.5-1.593.812-.282 3.813-.812 5.875-.188 2.719-.406 1.406-.312 1.594-.594 2.5-.906.593-.282 3.094-2.625 3.812-3.093.782.312 4.719 1.594 1 3.187.687 2 1.812 3.719 1.782 1.188 1.719.812.687.094 2.219.094 2.875-.187 2.719.094h2.906l.687-.188 3.813-.812.781.094.594.718 2.719 3.094 1.28.906 4.407 3.375 2.312 1 3.782 1.625 2.906 1.594h.406l3.688-.219 4 .5.625-.187 2.594-1.906 4.5-4.907.094-.5 1.593-5.281 1.313-4.219 2.781-2.687 2.5-2.5 1.219-1 5.281-2.813 6.625-2.375 5.094-.406 4 1.094 5.281-.094 2.813-2 2.687-1.313 1.125-.593 4.875-.313 2.813-.5 3.312-.281 5.875-.5 1.125-.906 3.188-1.094 5.593-.906 3.907.593 2 .813.593.281 5.5 2.313 1.719.906 2.781 1.687 4.719 2.5.781.5 1.094.5 3.906 2.5 2.5 1.5.313.5 3.594 6.407.812 3.312.094.594.594 4.781-.406 5.406-.188 3.594v3.313l-.219.687-1.687 8.906-.188.813-1.406 4.781-.094 1.719.281 1.781.219 1.313.094 1.812-.312 2.188-.188 1.093-1.719 3.5-1.281 2.313-1.094 1.281-.812 1.5-1.094 1.813-.312.312-2.282 2.188-.812 2.406-.906.5-.688.906-1.5 2-1.5 1.875-.312 2.406.906 2.594 1.594 2.5.406.625.687 1.781.407 1.719.812 4.094-.594 3.594-1.812 4.906-1.906 3.094-1.907 3.312-2.375 3.875-2.906 8.125-.719 9 .407 2.281.094 1 .5 2.907-1.282 4.687-2 5.406.094.907 1.313 6.093.094.813.687 3 .72 4-1.813 3.781-.594.406-2 2.094-5.719 3.219-2.687.594-1.813.812-5.187.688-1.907-.094-2.093-.22-1.813-.187-1.781-.094-2.594-.218-2.406-.094-3.219-.5-.781.312-6.406 1.781-3.407 5.407-.406 7.593-.281 5.125 1.281 5.094.406 4.5.094.5 1.125 3.5.282.906 3.093 5.782 1.72 1.093 2.687 1.907 1.312 1.312 1.406 1.906.782 1.782.406 1 .187 1.812-1.093 3.688-.688 2.718-1.406 4.594.5 2.5.312 1.688 2.282 1.906 2 1.5.812 1.187.5.5.406 1.125 1.094 2.375-1.219 2.219-.78.781-1.595 1.219-1.906 1.281-.812 1-.5 1.219-2.594 5.594-.406.906-.188 2-.594 3-.906 4-.406.906-2.594 4-.5.782-1.312 1.406-1.5 1.312-.407.375-2.593 2.313-7.594 6.812-8.688 7.688-.812.687-1.094 1.5-1.906 6.907v2.718l1.094 3.688 1.593 5.812 1.813 5.282-.188 4.906-.312 7.312-1.313 13.688-.187 3.094-.313 5.5-1.28 3-4.095 9.406-1.812 3.687-4.5 8.719-4 6.906-.094 10v1.188l1.281 3.812 1.313 3.5-.688 5.5-1.125 3.188-1.781 2.187-3 3.719-1.219.906-1.375.594-3.906 1.688-1.812.312-2.407.281-5.093.813-2.188.5-.812.312-2 1-2.407 1.5-1.093 1.094-.407.688-.5 1.718-3 9.188.125 2.312.5 3.188 3.188 6.906 2.5 2.281 2.094 1.813.312.406 2.406 3.594 1.875 2.687.125.719.688 3 .094 1.5.406 2.594.187 7.187-.094 2.72-1.187 6.5v1.78l1.187 6.313.094.594.813 5 .406 2.812.594 2.781v3.72l-.094 1.5-.719 5.593-1.187 10.187-.688 3.313-.125.687-.781 4.22-1.812 2.593-2.688 1.312-3 .188-3.094.094-3 1.5-3.625 1.5-1.375.906-3.218-.406-2.688-.406-.812-.282-3.094-1.406-1.906-1-2.094-.312-5.094-.688-4-.812-3-.5-1 .218-1.406.282-1.094.5-2.094 1-2.625 1.812-.781 2.594-.812 2.906-.782 2.406-.625.907-.781 1-1.5 1.687-1.812 2-1.5 5.313-.188 1.187 1.688 6 1.906 6.406-.313 2.5-.687 6.188.812 3.312.188.907 3.312 1.875 2.875 3 .907.125 3.218.687 4.594 1 4.5-.187 4.406.875 7.188 4.625 2.406 3.28 1 1.5 1 3.095 1.688 2.906 1.593 4.5 3.5 8.906-.094 2.594-.5 2.906-.281 1.813-1.219 3.28-1.5 2.907-.281.313-2.125 1.593-2.281 1.688-2.094 4.219 2.094 4.78.187 1.595.313 1.812-.907 2.5-1.093 1-2.094 1.594-.5.219-3.125 1.28-2 .907-1.375.906-.625.5-3.5 2.782-3.094 2.406-2.094 1.406-.906 1.188-4.406 6.718-2.281 3.688-1.313 2.812-1.906 2.907-.375.5.187 3.687 1.313 1.406 2.094.907 1.187.187.813.188 5.28-.594 8.813 2.406 2.313 2.313.187.375 1 1.718 1.313 3.907.375 1.28-.094 2.813-1 2-4.5 3.188-.5.406-1.906 1.313-2.594 3-1.281 2.78-.125.813-.375 2.094-.22.906.095 1.5.219.782 3.406 5.812 1.5 1.688 1.094.718 1.406.907.5-.125 2.094-.094 1.5-.282 1.5-.5 2.093-.625 3.594-1 2 .72 1.5.093.406.313 2.5 1.687.594.5 1.219 1.188 4 4.312 3.375.907 1.406.406 2.719.687 2.875 1 4 2.094 2.125 1.719 1.781 1.594 4.594 4 1.906 2.28 3.906 10 .5 2.626 1 4.594-1.093 4.593-.72 1.188-1.093 1.625-2.687 3.187-7.094 4.5-4.219 3.188-5.594 5.312-.094 1.907.5 3.906 2.782 3 3.312 3.594 2.5 3.906 1.406 2.594 1.188 5 .906 4.187.688 2.094.718 1.406 1.907 2.719 1.781 3 1 .875 2.906 2.406 3.5 7.313 2.5 4.593.813.719H9123.22l-2.437-32.406-2.219-29.313-3.094-41.593-6.594-92-1.593-22.313-.907-10.281-1-14.22-1.093-15.78-1.219-16.313-1.094-15.812-1.187-16.188-5.219-72.594-2.688-35.406-1.218-15.812-3.594-46.782-2.281-32.718-12.313-174.782-1-15.312-4.687-66.781-7.219-97.72-.906-11.905-.625-8.438H954.283z" style="fill:#9faec0" transform="translate(0 50)"/><path stroke="#9FAEC0" stroke-width="10" d="m1094.282 3537.219.78.687 2.72 2.188v5.406l-1.72 3-3.093 3.406-2.906 3-.281.5-2.125 3.407-2.875 4.593-1.907 4.282-1.594 3-1.218 5-.406 3.624-.375.688-2.125 2.313-.594.187-3.094-2-3-1.812-5.187-5.188-2.907-1.687-4.5-2.626-3.5.313-3.219.594-4.374 2.312-3 1.594-2.625 1.188-2.688 1.312-6.594 3.094-1.094.5-2.5 1.218-.718.376-2.406.906-2.282.312-.812.094-3-1.5-3.094-1.5-2-1-.906-.406h-.906l-.594-.187-2.5.593-3.188 1.188-3 2.125-1.812 1.281-2.188 1.719-1.593 1.187-.907 1.094-1.906 9.313-.5 2.593-4.312 6.594-.875.906-1.22.907-1.78 1.5-1.72 1.28-2.187 3.313-1.218 2.407-2.375 4.687-3.625 5.094-3.688 4.5-.406 1.406-2.781 8.906-3.907 3.688-1.312.812-3.094 1.813-1.5 2-3.812 4.781-2 2.594-.875 1.312-1.5 3.5-.5 1.5.187 2.188 1.906 3.406 1.594 2.813 3.5 1.187 2.094.719 1.906.594 2.5.906.906.5.5.781 1.282 1.813-1.282 7.093-.906 3.813v.687l.188 2.094 1.312 3.594.313.406 2.593 3.906.688.594 1.5 1.5 2.594 2.906 2 2.313.5 1.281 1.5 3.219.312.687 1.594.688 3.5 2.719 3.5 1.5 2.312.406 1.094.687 3.688 2.313 3.625 4.375 1 1.625.28.594 2 6.593 1 4.594.313 7.5-.593 1-2.22 3.813-.78.78-2.625 2.5-3.688 3.5-1.406 4.126.312 1.5 4.188 2.281 2 7.719-.188 1.187-1 4.594-1.906 6.094-2.5 5.219-1.094 1.28-3.218 3.626-2.782 1.281-1.312.5-4.281 1.594-4.125 1.312-3.782.594-3.593 2.406-1.907 1.5-1.218.907-2 1.78-.782.407-1.906.813-1.594.906-4 .375h-1.718l-2.282.219-2.312.28-.594.5-1.687 1.72.187 1.28 2 10.407.406 1.094 2.594 4.5 2 2.812.594.688 3.406 3.719 1.594 1.687 1.219 1.594 1.875 2.312.406.407.219 1.78.28 2.907-.78.906-1.72 1.907-1.78 1.906-2.72 3.187-1 1.188-3.5 4-2.405 5.406-.594 11.813-1.406 4.187-.094.594-1.594 5.406-2.594 3.906-2.219 1.594-.5.813-1 3.687 2.407 2 3.093 1.906h.407l3.5.313.406-.313 3.687-2.312 4.125-3 2.5-1.688.688-.593 6-2.813 3.187-1.906.407.219 5.093 1.78 1.313 1 2.093 1.907 1.72 4.219 1.374 5 3.407 2.781 4.593.5 3.407-.5 1.218-.187 2.875-1.5 1.813-.813 1.812-1.594.688-.187 4.093-.719 4.72-1.187.374-.094 3.5-.813 1.219-.312 1.906.718 2.5 1.5.375.407 1.625 1.28-.812 4.595-.688 3.5-1.625 3.625.625 1.875 1 3.218 2 .907.594.28 1.5.22 1.5 1.093 2.688 2.094 3 3 1.812 2 1.406 2.188 2.282 3.625 2 2.5.718 1.28 2.094 4.22.688 3.375v1.218l.093 3.407.126.593 1.187 6.094 2.594 3.094 3.5 2.812 1.094.094 3 .313 2.625.781.875.406 4 1.688 4.5 2.312 4.5 2.094 1.125.719 3.28 1.687 3.72 2.094 1.593 1.219 4.406 3.5.5.5 2.782 3.375 4.719 14.625.5 1.687 2.093 6.407 4.094 3.28.688.813 1.812 2.094 2.5 5 .594.719 2.594 2.594.625.094 3.687 1.093 4.594-2.406.406-.594 2.313-3.593 3.187-2.813.594-.5 3.406-1.094.688-.187 3.406-.406 3.5-.407 2.5-2.187 7.406-6.813 2.188-.906 1.406-.375 1.094-.312 2.406-.313h1.312l3.188.5 3.594-.875 4-2 1-1.625 2.406-4.281 2.812-3.906 2.188-7.407.594-2.093.312-1.688 1.313-4.906 1.78-2.719 2.5-4.187 2-3.313 3.595-7.187.718-3.813-.312-4.781.094-3.813.125-5.28-.125-4 .125-1.126 1.281-1.687.5-.594 2.406-1 .813-.313 4.594-.187 6.187 1.5 12.594 8.687 6.218 4.313 2 1.5 4.407-.813 2.593-1 1.688-2.593.906-1.407 1.594-2.78 1.094-1.5 2.5-3.313 3.906-1.813 2.312-.375.782-.312 4.125-.594 1.187-.219 3-.875 3.594-.406.906-.219 2.188-.5 2.5-1 2.625-.594.781-.187 1.312-.219 1.407-.187 3.594.094 4.093-2 2.594-4 2.094-3.406.125-3.688.094-1.906.281-3.094v-1l1.406-3.406 2.594-2.406 1-1.094 3-1.906.719-.594 2.781-.906 1.219-.5 1.281-.282 1.125-.312h5.094l4-.094h.5l3.094-1.094 4-2.719.906-.687 1.906-3.094 3.094-4.219 1-5 .187-.875 2.094-9.812 2.625-2.407.594-.5 1.687-2.906 2.407-4.187.593-1 1.22-1.688 3.593-5 .687-1 4.313-3 1-.719 2-.593 4.594-3 1.5-.594 5.187-5.313.5-.5 6.719-4.5 6.406-1.593.688-.094 3.812-1.813 1.688-2.094.687-1 .813-2.187.812-4.125-.219-.688-1.187-3.593-.906-2-.907-2.22-2.28-5.093-1.813-3.906v-3.781l.812-.813 1.688-1.781 2.906-2.219 2.281-1.594.625-1.812v-2.688l-.125-.687-.594-1.406-.187-.5-.094-2.094 1.094-2.5 1.28-1.125.907-.281 2.594-.313h1l2-.094h2.906l1.906-.906 1.813-1.406.687-.282 3.313-4.093 5.875-1.907 2.406.282 1.906.718 3.688 1.594.312.688 2.5 6 .313 1.406.187 1.594.688 4.906 1.219 1.406.687.813.5.094 1.219.187 1.781-.187 3.719-.813.375-.094 2.5-1.5 3.312-1.594 1-.5 2.5-1.593.813-.5 2.687-.813 5.5 1.813.313 4-.219 1.374-.188 3.626-.094 3.687.282 1.813.5 3.093.718 4.594.5 1 2.375 4.688 1.625 2.718 1.282 1.907 1 1.28 1.5 1.813 1.312 1.5 2.188 2.188 1.312.906 1.406 1.594 1.376 1.218 3.125 3.094 3.28 3.407 1.22 1.374 1 1.626 1.375 2.5-.375 2.78-.813 2.595-2.094 6.124-1.5 3.594-.812 1.907-2.688 2.687-1.219 1.094-.187.718-.687 1.876.78 2.718.5.782 1.72 2.718 2.593 1.094 3 1.188 1.781.312 1.313.094 2 .313 3.313.406 3.875-1.813 1.312-.687 2.688-.906 3.625-1.5 2.593-.594 1.5-.313h.5l.5-.094 1 .094h.688l5.812 2.188 5.594 7.625.594.781 2.812 3.813 6.094.094h.406l3.188-.313 2.5-.5 3.5 1.406 2 .907 1.5 1.906 3.219 4 4.187 6.281 2.313 5.313 1.687 4.093 1.188 3.72 1.125 3.5-.22 2-1 1.5-1.78 1.78-2.5 3.313-4.22 2.094-2 .906-.593.781-1.5 1.906-1 1.22-.094 8.374-.094 2.313-4.219 9.906-.406 1.094-.594 1.406-2.5 5.906-.281.594-3.125 5.906-1 5.594-1.187 6.406-2.5 4.875-.5 1.125-1 2 2.187 1.875 4.125-2.375 4.5-1.406 5.188-.594h.906l7.593.188 1.688.094 6.625-.407 4-.5 4 .407 2.594.593.406.22 3.688 2 1.187 2.905 1 3.188v.687l.406 4.407.313 4.593.187 3.907.313 1.218 1 4.5 1.906 5.594.5 2.281 1 2.72 1.094 4.405.281 1.875-1.094 4-.187.72-.406.78-1.407 1.907-2.281 3.093-2.219 1.813-3.906 2.687-.594 1-.593.907-1.188 5.406-.5 2.5-1 1.094-1.5 1.593-1.312 1.5-.313.813-.281 5 .281.406 1.406 2.594 2.719 4.812-.219 3.5-.406 7.094.313.781 1.093 1.907 4.313 2.812 2.781 1.281.406.22 2.219 4.905-1.406 2.188-.594.406-2.219 1.094-3.906 1.906-4.094 3.781-.5.407-.187 8.218.594.782 2.812 2.406 3 .5 1.5.187.5.125.875-.218h.625l.5.094 4.5 1.5.5.312 2 2 2.188 2.094 2.906 2.812 1.094 1 2.406 2.188 2.406 2.406.875 1.5 1.719 2.688-.094 1.625-.313 3.093-.812 4.782.312 1.625.406 2.593.188 2-.094.594-.5 3.094-.812 1.219-1.375 2-.22.78-.593 3.22 1.094 2.187.5 1.594.312.594 1.188 3.218.219 2.907-1.625 3.593-.094 2.782-1.188 2.625-1.312 2.687-1 2.094-1.407 7.094v7.625l1.219 3.28 2 5.595.406.906 3.188 4.406 1.594.906 4.5 3.282 4.718 3.5.375 3.125 1.219 8.093.5.688 3.188 3.5 3.218 3.406 3.594 3.906 5 5.282 2.5 2.5 3.281 5.218.719 1.5.281 1.094 1.125 4.406-2 1.907-1.625-.125h-1l-.781-.094h-.719l-1.687-.094-.313.406-1.875 2.5.5 2.906.875 5.094.219.687 1.688 5.22.5.5 6.093 7.78 2.219 1.313 5.094 1.594 5 3.687 4.312 5.813 2.688 3.906 2.593 10.406 1.094 3.188 6.5 12.5 4.813 5.093 5.687 5.407 9 8.687 1.719 1.813 1.906 2.187 2.594 2.813.281.312 1.906 2.188 2.72 2.906 2.5 3.094.687 1.312 1.906 3.188.094.593.594 5.72-.688 1.374-1.406 2.906-.313 1.407-1.375 5.593-.218 1.094.5 4.906.406.907 1.187 2.593 3 3.72.313.28 4.312 3.5.5.407 4 2.906 3 1.781.282.625 1.906 3.375-3 4.906-1.5 2.407-.313.812-1.5 3.688.625 3.156h7502.75l-.562-7.656-7.688-106.5-1.125-14.188-.687-9.312-.406-6.407-2.688-34.5-4.219-55.093-24.28-325.188-1.313-18.312-3.907-56.313-1.593-21.375-1.094-15.719-.688-8.593-.5-6.813-.906-13-7.719-99.875-1.78-23.906-1.22-16.313-2.593-34.093-.844-11.282H1094.28z" style="fill:#9faec0" transform="translate(0 25)"/><path stroke="#9FAEC0" stroke-width="10" d="m1686.282 4421.656.5 2.656 1.187 1.188 2.688 3.5 4.625 3.406 2.187 1.594.813.906 1.875 2.094.718.594 1.781 2.094 2.72 1.906 2.28.594 1.313-.095 2.906-.093 2.094-1.188 4.094-2.125 1.594-.875h.5l4.218-.719 5.5 1.594 1 .406 6 3.407 1.594 2.5-1.812 3.687-1.375 1.313-2.5 2.812-.72.688-1.28 1.812-2.22 2.781-1.5 2.094-1.593 2.406-.406 1.094-.094 5.5 4.906 3.906.5.313 4 1.594 9 3.812.406.188 4.094 2.5 1.906 2.406.375 1.094.813 2.5-1.188 3.5-.218 2.906.094 1.687 2.312 1.5 1.5 1.094 1.906 1.125.5.094 7.094.281h6.094l.719.313 2.687.906 3.594 1.281 2.5 5.219v2.781l-1.281 2.313-2.407 5.093-.406.5-.812 3.813v2l1.625 2.406 1 .875 3.375 3.406.625 1.094v12.906l1 2.813 1.593 4.094 1.782 4.687 1.5 4.406-1.375 5-2 2.22-2.22 1.874-1.093 3.313-.5 5.187-1.5 5.625-.094 6 .188 4.375.312 2.719.406 9.187v5.594l-.718 3.313-.407.593-1.875 2.594-5.218 3.313-4.782 1.312-2.406.094-3.906.094-2.594-.312-2.5.219-9.719.687-2.187.094-3.188 2.406-1.125 1.906-.875 2.594.594 4.219.594 4 .812 5.094 1.188 5.593 2.594 4.594 1.718 1.5 2.782 2.406 2.093 1.5.313.594 2.094 3.5.812 1.406 1.188 5.594-1.407 4.719-1.28 2.281-.22.594-1 3.125.72 1.5.5.594 2.187 2.093 1.5 1.594 1.812 1.813 2.406 2.593.375.407.813 3.093 1.094 2.907 1.218 3.5.5 1.906 2.375 9.687.625.907 3.875 4.687 4.907 5.813 2.218 2 2.5 1.78.5.407 2 1.094 2.375.812 2 1.313 1.407.687 1.093.907.813 2.093-.094.594-.312 3.594-.407 3.125-.187 2.594 1 1.5.406.187 3.188.813 3.593.094h3.625l.781.094 5.22 1.219 4.28.875 4.407.312 3-.094 2.906 1.906 1.687 1.375.813 1 3.187 3.906 1.094 1.407 1.219 1.187 1.187.906 4.594 4.094 1.313 1.219 2 1.687 3 2.594 1.312 1.5.781 1 3.313 4.125.094.594 1.687 7.594.313 3.906-.5 1.281-1.813 1.5-3.093 3.125-.594 2.281.187 2.407.813 2.5.312.406 1.375 2.094.625.406 3.375 1.781 6.407 1.125 5.312-1.219.906-.187 4.282-2.719.593-.375 3.125-2.219 16.875-9.593 2-1.188 8.22-5.125.78-1 2.813-3.094 1.5-1.78.687-.22 3.125-1.28 2.5-.72 1.875-.406 3.813-.875 1.812-.406 2.188-.906 2.406-1 1.594-.5 5.5-1.5.5.187 5.406 6.125 1.406 1.5 1 .594 4.875 1.406 6.125 1.594 6 3 2.5 1.187 4.094 2.313 7.188 4 3.812 5.281 4.688 6.406 3.906 5.094 1 1.125 4 3.188 2.187 1.906.907.281 6.406 2 2.687.719 14.125 6.281 4.188 2.5 1.812 3.625-.312 2.688-4 7.687-.5 3.625 2 4.188 3.312 4 2.782 2.312.312.5 4 5.875.406 1.719 1.188 4.5.812 2.906 1.782 1.188 1.906 1.312 2.406 1.594 3.781 2.594.313.406 1.187 2.687.72 3.313.687 4v1.187l-.094 4.407v5.093l-.407 2.094-.187 3.5-.594 7.219 3.875 3.5 1 .594 3.406 2 3.907 2.5 1.687 1 1.406 2.093.22 2.5.28 3.407 3.5 3.593 2.313 2.313 2.5 2.781.406.5-.219 2.906-.78 2.594-1.126 3.5.906 3.125 1 5 .907 4.875 2 9.906 3.093 4.094 3.907 5.313 1.687 4.312.219 2.875-.219 1-1.094 4.813-2.687 3.406-1.719 1.406-.5.375-1 .625-3 1.688-3 1.812-3.187 1.875-.907.906-1.593 1.907-6.313 7.312-1.687 1.281-1.907 3.907.313 1.187.406 2.125 2.594 3.5 2.781 2.094.813.687 3.594 3 2 2.22.5.5 2.812 2.374-1.094 7 1.375 3.125.313.781 3.5 3.5 1.5 1.594 1.906 1.219 1.094.594 2 1.312 1.187 1 4.313 3.594 4.094 3.781.312 3.625-1.406 1.281-5.688 5.313-1.812 8.094-.188 1 5 6 .782.687 3.593 2.5 2.219 1.719 2.188 1.906 3.312 2.594 8.688 5.906 4 2.5.218.5.375 1.781-.375 2.22-2.312 4.28-2.5 4.907-1.188 5.687-.906 2-3.594 4.625-2 2-.906 7.188-.094 1.187.094.625 1 2.781 1.406 4.094 5.875 10.719.625 1.281 1.375 2.219.5 4.406-.094 3.5-.094 5.188.188 3.593.906 3.5 1.5 2.594 1 2 .406.625 1.688 2.375.5.313 3.5 2.812 3.125 2.375 2.375 2.719 1.218 1.594 1.188 1.687.5.906 2.594 4.594 2.125 3.406 5.187 4.72 1.188 1 2.718 1.687 1.282.812 2.625.781 2.5.72 3.875 1.687.406.906.406 1.281.5.813 1.906 3.187 1.282 1.313 1.125 1.187 3.093 1.813 2.594.906 2.906 1.5h.5l5.188.281.406.125 2 1.094 3.406 1.906 4.782 7.094 1 1 1.312 1.094 3.188 1.093 2 1.313 2-.5.906-.219.719-.281 3-1.813 3.687-2.093 1-.594.5-.094 1.906 1.375 1.594 4.125.094.781.313 3.313.5 5.094.406 3.593 1.5 4.907.594 1.593 1.78 4.407.813 1 10 12.406 2.313 2.594 3.187 3.5 4.313 4 2.5.312 1.5.375 3.687-1.594 1.407-1.187 2.187-1.813 1.219-1.187 2-1.594 3-2.312 2.781-1.094 1.219-.5.687-.5 1.907-1.813 2.093-2 2.094-5.5 1.313-4 .906-4.687v-1l.187-3.5-.187-6-.906-3.094-2.594-6.406-1.625-4.094-4.594-7.906-.594-.906-1.406-2.688-2.187-1.906-.5-.406-.72-1.188-2.187-3.406.5-2.719.188-1.375 2.125-2.5 1-2.219 1-2.5 1.5-2.093.375-1.094.625-1.906.375-2.907.625-3.687 1.687-2.719 5.094-4.594 2.594-2.281 4.812-2.625 1.407-.781.687-.313 3.406-2.906 1.188-1 1.812-2.281 2.407-4.406 2.78-4.313.907-1.687 3.813-5.407 2-2.5 3.5-4.093 3-1.907 1.687-1.093 3.5-1.094.906-.313.5.094 2.594-1.094 3.094-1.406 4.719-.687 4 .812 2.187.375.813-.187 1.5-.5 3.093-2 .688-.407 2-2.687 2.719-3.5 1-1.313.5-.593 8.406-4.813 3.281-.781 4.594.094.719.188 2.78 1.125 4.126 1.5 1.594.593 2.5 1.188 2.5 1 2.906 1.094 1.594.718.906.782 1.375 1.312 3 3.188 1.719.218 1.093.407 5.594 2.187.5.5 3 2.406 3 2.5h.406l3.188-.094 4.5-.625 2.719-.375 5.093-1.812 5.688-.406h.406l4.5.312 2 1.594 1.594 2.812 1.625 1.688.281.5.5.094.719.219 3.5-1 4.094-1.313.5-.187 4.593-1.22 1.313-.187 2.281-.218.5-.094 2 .812 2.313 1.281 1.687 1.22 2.906 2.187 1.907 1.218 1.78 1.094.72.188 3.406.812 2.5.406.687-.125 2.407.625 3.093 1.094.407-.094 3.593-1.5 4.313-1.406.781-.313 3.406-1.5.688-.406 4.406.5.719.125h1.875l2 .5 3.219 2.188 2.093 1.687.407.313 3.093 2.093 3.407 1.813.593.094.5.188 2.5.906 2.594 1.094.813.5 1.687 1.125 2.406 4.875.188.625 1.5 3 .406.5 1 1.093 1.094.907 1.719 1.5 2.593-.407 2-1.718 1-.875.688-.22 3.312-2.593 4.094-3.094 1.219-.906 3.281-1.687 3.406-1.72.688-.405 3.5-.782.625-.094 1.375-.218 2.719-.282 3 .875.906.5 1.5.907.375.593 1 2 .5 3.313.125 1 .687.312 2 2.188.907 1 2.093.594h.407l2.093.094.5.218 3.907 2.188 2 1.094 1.406 2.124 1.5 3.5.875 1.5 2 2.594 3 1.281 3.406.126 2 .093 2.594-.5 4.5-.406.625-.094 2.5-.719 3.094.72 2.78 1.405 2 1.782 3.907 3.906 4 1.187 3-.187.406-.406 3.094-4.094 5.313-7.406.5-.688 1.687-3.406.406-.906 2.407-6.688 1.5-3.719.593-2.093.594-2.688 1.313-4.406.5-1.313 1.406-4.093.687-2.782 1.188-2.906.312-2 .5-3.5.313-5.094.094-6.625-.406-5.093-.688-4.688-.218-1 .812-5.906.094-1.313 1.187-4 1.407-4.687.094-.688 2.718-3.5 4.907-2 .781-.312 3.219-.906.781-.188 4.906 1 .688.094 2 .5 10.812-.593 3.313-2.407-.313-11.593 8.5-8.407 10.688-3 1.218-5.312 2.407-1.688 13.593 4.188 3.188-1.281 2.719-.5 5.687-1.094 6 .875 6 1.5 3 2.625 2.406 2 .5.594 1.282 2.78.312.72 1 3.093.313 3.594.187 1.094.813 3.406.281 1.313.594 1.593.718 2 2.5 1.313 2 1 3.094 1.5 3 1.28.406.095 1.5.625 7.782 2.375 2.218.625 3.282 1.094 3.906.187 5.812-3 1.282-.687 3.812-1.5.406.094 11.5 3.593.407.22 1.187.374 4.906 1.5 1.094-.187 3.594-.313 1.594-.187h3.312l1.188.5 5.218 4.812 3.594 3.281 2.813 2.094.875.719 2.125 1.781 2 1.219 3.375 1.406 4.125.375.5-.094 3-1 .687-.406 3.406-3.5 1.407-1.375 1.093-1.219 4.407-1.281 2-.719 1.5-.687 1-.219 9.375-2.687 4.125-1.094 2.281.094 3.312.094 1 .219 2.282.78 4 3 4.125 3.095 1.5 1.218 3 1.782.593.312 1.282.5 1.718.594 2.907-.188 1.5-3.218-.719-.782-3-3.5-2.281-2.593-2.219-2.625-1.281-1.5.781-1.782 1.719-1.718.5-.375 3.875-.22h1.125l1.375.313 2.625 1.407 2 .78h1l3.593.22 2.5.094.5.094.407.187 1 .719 2.093 2.281 2.188 1.5.906.406 3.188 1.407h9.718l3.782-.5 4.906-1.313.812-.187 2.782-2.188 1.312-1.125 1.094-.875 2.406-2 2.906-2.312 3-1.5 1.907-1 1.187-.594 1-.594 1.313-1.406 3.593-5.594.688-.406 4.094-.5.718-.094 2.907.594 4.187.28 6.594.626h.812l2.188-.125 7.5-.281 2.812-.313 3.282-.281 1.718-.719 2.407-1 .875-.781 2.312-1.906 3.5-2.594 3.906 1.781.688.313 1.406.687.5-.094 1.094-.312 1-.5 2.812-1.5 1.907-1 .5-.094 2.5-.282 1.093 1.375.094.813.313 2.906.594 2.5 1.187 4.094.219.5 1.687 3.5.313.406 2 2.688.781.812 2.313 3.781 1.593 2.407 1 2 1.188 2.812 1.5 4.094 1.5 4 1.406 3 .719.812 2.094 2.282 3.187 2.812 1.594 1.781 1.5 1.72 1.312 2 1.907 3.78 1.093 2 .5.407 3.094 2.906 1.719-.094 3.094-.219h.406l3.594-3 .906-1.5 1.781-6.094 2.813-3.906 3.406-.5 2.187-.375 1.594-.219 2.313.594 2.687.719 2.906-.094 3-1 4.688-2.406 2-1.313.5-.281 2.406 1.094 1.594.593 1.219.407h3l1-2.5 1.5-1.407 1.28-1.187 1.407-1.719.594-.406 3.625-2.875 1.187-.906 3.188-1.313 5.219-2.094 5.593-1 1-.094 7.813-1.5.375-.094 4.719-2.312.5-.188 2.187-3.125.406-.5 1.094-3.187.219-.594 2.875-3.406 3.312-2 .688-.313 1.5.125 1.312.094 5.313-.593 4.594-.125 4.593-.282 6 3.688 3.5 2.219 5.688 1h3.125l3.5.094 2.687-.22h.407l.406.22 3 1.28 2.687.907 1 .219.594.094 1.406.281 4.094-.187 3.5.5 8 3 .813-.407 1.78-.781 2.626-1.312 1.687-1.094 7.188-5.594.625-.5 2.594-1.719.687-.5 5.813-1.093.906-.188h4.094l1.5.5 2.187.688 1.813 1.187 3.187 2.125 1.719 1.094 1.875.906 3.125 1.5 3-.406 2.594-.313 1.906-.906 4.594.625 1.093.594 1.907 1.094 3.187 1.5 1.813 1 1.906 1.406 4.687 3.781.688.906 2.219 2.813 1 1.906 1.187 1.875 2.219 3.906.687.407 2.094 1.312 2 .594 3.406-1.094 2.688-2.312 2.625-2 .5-.188 3.094-.812 1.593-.5 2-.5 3 .094 1.5.312 1.188-.219 2.5.72 5 1.093 4.625 1 .687.187 2.594-.5 1.906-2-1.312-5.187-.094-.813-.5-4.093-.094-1.407-1-2.093-1-1-1.313-.094h-.78l-2.313.312-1.188.188-1.906.312-6.188-4.125-3.218-2.094-1.282-.906-1.125-.5-3-.5-2.093.219-2 .281-4.5-1.281-.594-.813-.594-1.687.906-1.594 1.375-2.219 1.313-2.093-.094-2.5v-1.407l-.219-.687-2.093-2.406-2.907-3.188-2.593-2.906-2.5-4.813-1.594-5.187-.594-1.719-.812-5.781-.094-8.094-.094-3.719 1.78-7.687 1.907-2.313 5.313-4.687 1.28-1.219 3.126-4.187 1.5-3.688-1-2.406-2-2.594-2.313-3.906-2.187-2.719-.5-2.594 1.187-2.781 1.813-.312 1.281.094 2.906.094 1.188.312 3.5.813 3.125.78 2.5.595 2.187-1.5 1.907-3.188 2.093-2.5 3.5-5.187 2.594-4.5 4-7 1.594-3.72-.188-3.28-.406-4.625-.687-2.875-.22-.907-1.374-3.093-2.125-3.5-3.594-4.407-1.406-3.593-.281-.813-1.094-7.312-.219-1.5-.094-3.375.813-1.125 3.093-3.875 3.5-2.625 1-.688 7.688-2.594 1-.406 5.219-1.594 2.5-.812 7.093-3.094 4.688-2.187 2.094-.72.812-.405 2.688-.282.906.282.812.312 1.282.594.406.312 1.594 1.782 2.812 3 .406.5 2.094 2.625.688.78 2.625 1.407.5-.094 4.593-.594 2.688-2.5.812-.812 3.094-3.5.5-.5 2-4.407 1.406-2.906.407-4.594.094-2.093.094-2.407.312-3.5.688-7.187.312-.719.781-1.781.5-2.5 1.72-2.594 3.78-2.219 3.313-.5 1.406-.28 3.688.187 2.906 5.093 2.5 4.407 2.406 4.5.281.593 5.907 11.313.687 1.281 3.313.906 3.5.907.593-.313 3.907-1.281.906-.406 4.687-2.094 1.22-.219 3.5 1.313 1.187.812 2.187 1.875 1.719 1.813.187.593 1.5 3.72v.593l.407 3.594.187 1.687 2.625 3.313.594.593.5.407 1.5 1 1.906 1.5 2.781 2.593 1.094 1.094 2.906 2.719 5.22 4.906.28.281 1 3.72.907 3.28 1.312 4.72 6.594 6.593 1.187 1.281 1.22 2.406.78 1.72 1.5 3.374 1.094 1.219 1.813 2.094 1.812 2 .188.406 1.906 3.406.406 2.094.281 1.406-1.78 2.594-3.626 4.5-1.375 2.781-1.219 1.813.094 4.906.5.781 1.907 2.813.5.312 5 .594 4.593-2.219 2.125-.594 3-.906 2 2.125 1.094 3.281 6.5 2.594.781.625 2.813 2.188 2.312 3.687 2.375 3.719 3.5 5.406 4 4.688 1.5 1.906 2.22 2.5-.907 1.594-1.688 1.312-.718.094-2.282.188-3.5.312-.812.188-1.906.593-.907.313-4 1.594-1.375 2.093-.625 1.813.625 1.906 3.5 3.406.5 1.375 1 3.22 1.188 4.905.406 1.375.281 13.313.313 1.406 1.187 5.188 2.22 2.312.78.594 4.5 1.594h2.125l5.188-.782 2.906.282 2.688.218 2.812.594 7.688 4.5 1.812.781 4 3.813 1.5 3.094.5 1.406.688 1.812.593 2 .313 1.875.312 1.625.688 3.875 2.094 4.907 1.593 1.593 2.625.72 2.5.593 3.5.5 1.094.187 4.5 3.125.281.594 1 1.594 1.5 2.594 2 3.5 2.313.593.906.125 2.094.282 1.094.094 1.406.812 1.5.5 1.594 1.094.906 2.094.094.812.5 2.188-2 6-.281 1.218-.313 4.594 1 8.906.5.907 1.906 4.187.407.906 2.093 4.594.5 1 2.407 3.094.5.5 3.593 3.094.407.406 3.78 3.594 6.595 2.406 6.906 2.594 5.719 1.5 8.5 2.218 5.5 2.282 5.593 2.218.407.188 9.875 2.406.906.188-1.5-210.782 8-370 8.719.094 190.5 1 14.28.094h5.313l53.782 10.813 99.812 1.5 118.594 1.687 22.312.313 24-5.5 134.907 4.406 53.28-8.5h221.407l43.688-.125h56l24.906-.281 110.5-.594h67.094l33.812-.125 13.5-.094 56-.281 9.094-.125 14.219-.094 39.78-.281 19.907-.125 11.594-.094h1l16.312-.188h7.5l8.782-.218 2.625.125 13.187.375 52.094 2.312 5.406.188 28-.282 36.094.094 12.719-.312 9.875-.188 7.906-.187h.594l15.812-.125 16.188-.094 15.812-.094 16.313-.188 32.5-.218 61.093-1.188 15.782-.312 20.312-.188 21-.094 25.813-.219 11.687-.187 16.813-.313h4.093l16.782-.406 11.718-.187 16.282-.313 15.718-.281 16.282-.094 15.812-.125h2.5l16.313-.375 36.093-.719 16.282-.281 15.812-.312 25.5-.188 52.406-1.312 22.407-.407 8.593.094h.5l3.094.406 15.188-.28 80.312-1.72 15.406-.28h1.907l31.593-.5 47.907-.813 28.875-.5 42.718-.907 11.688-.28 36.594-.907 160.812-3.906 60-1.813 215.094-5.875 51.812-1.406 181.094-2 8.188-.5 146-5.313 47.312-1.906 49.406-1.781 326.907-13.094 2.28-.125 96.72-4.5 79.593-2.875 2.907-.125h.375l15.906-.5 12.594-.5 53.312-3.187 8.094-4.188 2.219-1.219 17.875-.78 107.812-5.22 49.406-2.593h2.688l13.5-.688 70.312-3.312 236.407-12.188 3.187-.219 28.813-1.593 6.78-.407 9-.5 109.813-5.406 36.094-1.781 1.813-.094 103.28-6.312 9.22-.188 9.187-.5 7-.312 13.813-.907 2.5-.187 26.5-1.5 5.593-.313 8.407-.593 7.78-.5 25.907-1.407 47.813-2.593 8.28-.5 31-1.907 16.313-1 24.688-1.5 5.094-.281 11.406-.719 59.406-4 81.5-5.906 81.406-5.781 56.282-3.594 18-1 16.312-.906 11-.813 51.313-3.781 15.187-.5 18.813-1.625 13.687-.875-4.437-60.656h-7502.75z" style="fill:#9faec0"/></svg>