<svg xmlns="http://www.w3.org/2000/svg" width="7413.5" height="3411.406"><path stroke="#9FAEC0" stroke-width="10" d="m106 0-.094 1.594L102.187 77 85.312 432.906 78.968 565.25h6104.594l-.062-.75.188-1.312.718-1.782 1-3.218.782-4.5.218-2-.406-2.594-.594-4.407-.906-4-.187-1-1.907-3.375-1.812-3.218-.406-.688-2-3.406-1.875-1.594L6173 524.5l-3.094-2.594-1.812-1.593-1.188-1-7-7-6-4.72-4-3.187-2.812-2.218-4.406-3.188-2.282-1.687-4.406-2.907-6.594-4.093-1.218-.72-3.094-3.093-8.5-6.687-1.094-1-6.312-8.125-3.375-4.375.687-3.72 1.688-9.5.312-1.28 1.5-2.72 2.594-4 2.406-3.687.594-.812 2.594-3 1.906-2.094 1.594-2.906 6.125-11.407.375-.78-6-9-1.094-1.907-1-.906-4.688-1.594-3.593-1-3.625-1.5-3.094-.906h-3l-3.594-.094-3.094-.094h-1.312l-1.781-.219H6086l-1.406.219-5 1-1.406.281-2.282.406-14.718 2.907-.782.187-4.312-.187-4.594-.094h-1.812l-4.875-1.22-5.125-1-4-2.78-3.875-2.813-.72-.594-3.405-2.5-.5-3.906-.594-5.187v-1.313l-.281-2.187-.125-4.594v-.719l-.375-4.781-.125-1.125-3.5-5.281-3.594-4.22-4.094-2.093-4.094-.687-4.593-.594-1-.313-6.625-3.5-9.594-7.406-2.781-1.187-4.5-3.313-5.72-1.781-6.187-2-3.406-1.125-2.094-.375-5.218-1.219-7.594-1.906-2.906-.688-2.282-.094-11.718-.406-3-.187-.594.094-4.094 2.093-3.187 1.5-2.625 1.813-1.594 1.281-5.094 6.313-2.812 2.281-4 1.5-7.688-.281-1.906-1.094-5-3.625-.094-1 .5-3.5.812-5.781.375-.594 1.313-3.719.312-2.094.375-3.406-.875-2.094-.718-3.406-2.188-3.281-2.906-4.406-.688-.719-3.5-3.281-7.625-4-1.875-.313-4.125-.406-3.187-.375-3.906 1-3.094-.406-1.5.5-2.594 1h-4l-2.594-.5-5.125-1-4.593.187-1.282-.281-3.312-.313-8.188.5-5.125.813-4.593.687-5.094.688-3.313.219-1.78.094-7.907-.813-10.813-1.375-1.78-.5-6.595-1.5-2.812-.625-2.406-.281-4.594-1.5-4.188-1.313-4.406-1.093-3.094-.688-3.218-.812-2.594-1.5-.594-2.5-.906-3.5-1.188-9.407-1.5-2.5-1.406-3.28-2.594-2.313-.812-.594-4.188-1.906-.625-.313-6-1.781-.593-.094-11-3-23.282-2-8-4.125-6.718-20.688-.5-17-1.907-3.406-24.593-9.406-15.188 4.125-18.312-3.219-9.688-8.781-.5-.219-3.594.094-3.5-.781-4.718-3.313-1-.5-8.407 1.22L5586 194.5l-9-3-7.313-.907-10 1.72-1.5.874-1 2.813-2.093 3.5-4.407 2-.375.094-11.406.5-5.406-1.188-5.094-.094-4.719 1.875-5.5 3.5-5.5 5.719-3.28 4.906-8.72 6-4.874 1.094-5.313-.594-3.187-1.406-3-4.313-2.72-2.5-2.905-.593-6.094.312-1.188-1.406-.406-4.219v-6.5l-1.313-2.687-1.875-.5-2.718.187-5.5 1.625-23 7.375-2.688 1.906-5.406 6.094-6.594 5.813-3 2-16.719 3.093-16.78 2.594-5.813.5-4.094-.187-3.188-1.094-2.218-1.906-1.688-3.313-.719-4.094.407-5.78-.594-4.126-1-2.875-1.688-1.125-5.312-.687-7.906 1.187-5.094 2.719-3.594 2.781-7.594 12.406-2.218 3.5L5327.5 237l-3.188 3.812-5.218 3.188-3.782 1.187-4.218-.094-3.188-.5-3.5-1.906-5.594-5.375-3.218-4.625-1.782-4.875-.906-4-2.906-3.219-7.5-5.5-4.313-2.094-6.375-1.593H5267l-3.594 1-5.5 7.78-7.094 8.5-4.718 5.313-4.782 4.094-5.906 2.094-5.812 1.219-6.594-.5-4.906-1.22-3.407-2.187-16.375-18.812-6.718-6.781-6.5-5-2.282-.313-7.718.719-14.188 3.687-11.812 6.313-3.594 3.094-.406 4.406 1.093 3.187v3.813l-2.28 3.5-.5 6.781-3 10.594-4.407 7.5-2.813 7-16.28 23.719-4.22 4.78-8 6.313-5.187 5.313-6.313 4.094-9.78 4.406-11.907 4.594-15.594 3.593-1.812 1-17.5 3.594-18.188-1.594-17.906-6.906-9.313-15.406-22.093-15.281-15.5-15.813-12.5-7-16.5-22 1.718 2.906-2.125-.187-3.093.5-2.594.375-5 .5-2.094.219-4-.094-.594-.125-3.625-.875-.875-.22-4.718-1.405-6.594-2.375-5.688-2.5-.812-.407-5.313-2.312-3.375-1.688-2.312-1.406-9.188-6.594-1.812-1.312-6.813-4.188-7.28-4.406-2.22-1.187-4.187-1.5-2.688-1.125-1.812-.282-5.594-.906-2.312-.312-13.5-3.5-1.688-.594-24.719-9.188v-.812l-11.78-3.594-8.22-3-8.093-3-4.188-1.812-5.594-2.5-7.718-6.094-4-6.188-1.188-1.5-2.406-3.093-3.094-3-3.594-2.813-5.125-3.187-2.875-1.313-3.625-1.5-3.187-1.594-3.5-2.218-4.094-.688-4.094-.812-5.125-1-3.593.125-2.5-.313-1.094-.094-5.594-1-1-.219-4.094-2.093-1-.5-3.906-2.5-2.719-1.594-.78-.906-2.813-2.594-.5-.594-3.407-3.594-2.093-2.406-3.5-8.594-1.407-2.218-1.78-3.407-3.595-7-2.625-4.5-2.187-4.375-4.594-8-4.094-7.125-1-1.593-3.718-6.782-2-3.812h-3.5l-19.5.5-12.188.187-119.312 1.407-145.282 1.312L4019 83.186l-228.313.407-94 1.218-4.187.094-282.906.407-161.907-.625v1l-159.375.625-226.906-.407-64.312-.218-388.907-5.375-366.687-6.313-61.5-1.812-173.094-5.375-28.906-.907-67-2.218-243.594-6.688L1426 55.687l-61.813-2.5v-4l-229.875-4.594h-2l-95.5-3-71.125-2.281-1.375-.125-43.406-1.594-44.5-1.688-17.5-.593-34-1.72-16.406-.687-30.594-.812h-.719l-46.28-2.5-15.313-.688-15.907-.812-47.093-2.406-65.188-2.5-3-.188-26.594-1.094-6.812-.218-21.313-.875-15.28-.625-51.595-2.188-2.625-.094-5.78-.312-10-.407-52.595-2.593-15.312-.688-7.688-.406-6.625-.313L331 11.593l-15.313-.782-18.875-.906-91.906-4.719-70.5-3.687zm6136.594 558.094-1 .218-3.188.688-2.406.813-3.187 1-2.407.78-1 .595-4.718 2.906-.25.156h37L6260 564l-3.594-3-4.218-1.312-1.876-.594z" style="fill:#9faec0" transform="translate(0 125)"/><path stroke="#9FAEC0" stroke-width="10" d="m78.969 565.25-21.563 450.344-4.5 94.906-.312 4.906-.907 19.469h6517.626v-2.281l-.126-3.781-.374-4.22-.313-4.78-.5-1.22-1.812-.78-3.688-2.5-11.312-.313-7.594 3.094-7.406 14.094-10-1.282-4.094-5.219-.281-3 2.5-10.28 7.78-5.5 4.5-6.72.595-2 .312-3.5-1.812-2.874-.782-3.407-6.218-4-1.688-.594-4.312-2.812-16 3.688-10.188-4.594-2-3.5-.687-1.281-1.22-3.126-3.405-9.187-1.5-11 1-13.312 5.906-13.094 2.094-12.5-2.594-13-5.781-5.281-1.22-2.313-8.187-4-16-3.594-6.218-6.906-2.376-5.312-2.5-6.688-6.812-6.312-12.312-6.5-6.094-8-.906-3.594-.5-.781-1.282-3.407-1.093-4v-2.5l-.22-4.593.313-2.5-.218-3-.095-2 .22-2.625-.5-3-2.72-6.875-2.28-4.407L6416 898.5l-.687-3 .187-3.094.313-.718 17.093-3.375 11.188-16.72-5.594-8.28.188-8.625-2.688-12-7.187-9.875-12.22-6.72-3.406-2.78-8.874-13.907-3.22-18.406-1.28-8.5-1.813-3.187-.312-1.5-7.876-7.625L6368.189 758l-9-15.812 1.5-12.188 6.5-12.594-7.594-20.093.094-18.313 12.625-16.094 1.781-1.812 4.313-5.188 3.187-4.5 2.594-6.218.812-7 .5-9.094-.312-12.907-2.282-8.78-3-7-4.5-5.72-6.906-3.875-6.812-1.718-9.375-1.907-11.219 1.313-12.594 2.188-1.406-.094-5.594 2.093-5.906 2.125-3.906 2.188-.688.406-2.906 1.094-4.781 1.687-2 .719h-7.907l-.812-.094-3.281-1.625-3.125-1.5-3.782-4-2.218-2.281-1.875-2.22-3.125-4.5-3.594-5.374-2.094-3.125-1-1.875-4.5-6.813-2.562-2.25h-37l-4.25 2.657-.5.406-5.688 4.875-1.687 1.125-2.907 1.875-4 1.625-2.406.875-1.687.125-3.219.281-3.781-2.187-4.813-2.594-.812-.5-4.875-4.906-.219-3.094-.031-.563z" style="fill:#9faec0" transform="translate(0 100)"/><path stroke="#9FAEC0" stroke-width="10" d="m51.688 1134.875-14.594 310.938-.094 3.093-6.907 146.594-5.062 109H6764l-4.188-1.187-4.906-.907-5.719-.5-5.593-2-3.688-2.219-3-2.28-1.5-3-1.594-5.095.5-3 1.782-3.5 1.812-2.624 2.5-1.782 3.594-3.219 3.687-2.374 4-3.22 3.125-3.093 1.5-4 1-5-1.625-6.094-1.781-5.312-2.812-6.282-2.688-6.5-3.5-4.5-5.406-4.406-4.188-1.219-6.625.907-4.781 3.406-1.5 4.406-1.406 5.406-.188 5.094-.312 3.094-2.188 4.687-2.5 3.407-2.718 2.5-7.094 1.093-3.5.5-3.594-.5-4.812-1.5-.5-.187-2.407-.813h-4.593l-4-1.5-4.282-3.187-3.406-3.813-5.219-7.687-2.093-4.406-2-5.5v-4l.718-5.094.688-4.094 1.594-4 2.593-2.812 2.719-4.282 2.281-2 3.125-1.906 1.375-1.594 1.407-2.718-.782-2.407-2-5-3.218-3.78-8-3.907-8.782-4.813-4-2.375-4.812-4.625-2.5-4.093-1.594-4-.5-4 2.188-5 2.406-5.594 3.906-6 2.781-3.313 1.907-4.375 1.5-5 1.718-5.125.375-6.593-1.093-5.5-2-4.907L6656 1498l-4.906-4.313-4.407-5.187-3.875-4.313-2.906-4.28-.906-4.5-.594-2 .5-7.595.688-3.125.406-2.375 2.906-2.906 3.5-2.312 2.781-.907 4.125.5 4.282.125 5-.906 4.5.188 4.593-1 3.125-1 1.875-2.188.813-3.094-.313-4.5-1.5-4.906-3.187-3.406-2.906-2.594-4.094-1.906-6.188-2.094-2.812-1.312-3.906-2.688-2.5-3.5-.594-5.094.187-4.906 1.219-4.719 2.688-5.5 3.593-6.093 4.125-7.282 5.375-10 7.219-12 2.594-6.125 1-6.093v-6l-1.5-4.407-4.188-4.687-2.406-1.906-3.219-1.094-3.593-.406-3.688-1.282-3-.718-2.312-1.407-3.782-3.187-3.812-2.906-2.313-2.782-1.687-2.906-2-3.406-.688-4.5.594-6.188.688-5.125-.095-3.875-1.593-5-1.5-3.625-2-2.28-4.313-2.72-4.5-2.5-5.093-2.875-4.688-3.125-1.219-1.093-2.781-2.688-3-5.906-1.906-4.906-.313-4.5-1.093-4.594-1.594-3.813-4.5-5.687-2.906-3.906-2.813-3.907-.281-3.5-.219-2.78 1.5-2.095 1.813-1.406 3.312-1.094 3.188-1.406 2.906-2.719 2.594-2.5 2-3.5 1-4.593v-4.5l-1.5-3.594-1.688-4.313-1.406-5.375-1.313-4 .313-3.5.406-3.906 1-4.094 2.281-3.906 1.813-3.719 1.094-5.687-.594-3.813-4.094-4.875-4.125-2.718-3.781-.282-4.406-1.218-4.094.094-4.094.5-3.625 1h-3.594l-2.781-.282-2.812-2.218-2.594-2-1.813-3.375-1.781-4.625v-1.313H51.687z" style="fill:#9faec0" transform="translate(0 75)"/><path stroke="#9FAEC0" stroke-width="10" d="m25.031 1704.5-3.718 80.313-19.907 412.093L0 2221.188l401.906 16.406 159.594 6.5 323.813 12.094 12.187.5 278.688 8.812 28 1 252.093 7.625H6914.5l.188-.625 1.718-4.687 2-4 1-5v-4.626l-.218-4.78-1.876-4.907-1.5-3.906-3.218-3.781-2.5-2.22-5-1.905-5.781-2.094-4.22-1.688-3.405-2.312-3.094-2.281-.406-.907-2.282-2.093-2.593-4.5-1-4.813 4.093-11.812 3.782-7.594v-8.688l-2.594-6.218-10.781-10-.313-.188-5.094-5.094-2.718-7.406.218-2.906 1.407-3.281 3.78-3.813 2.5-3 3.22-3.5 2.874-5.094 2-3.5 1-5.093-.5-4-1.5-5.813-1.28-4.406-1-6-1-7 .687-5.094-.406-4.594-.688-3.406-1.906-4.5-4-5.187-2.406-4.407-2.282-4.406-3-5.812-.906-5.5v-5.376l1-3.812.5-2.312 1-3.876 2.906-2.718 1.907-1.688 1.593.688h.5l4.407.5 4 1.594 3.187 1.406 4-.406 3.688-1.594 2.5-2.594 1.624-3.5-1.124-4.5-1.594-2.812-2.5-3.782-5.094-3.5-6.687-2-5.126.594H6868l-1.594.188-3.5.312-5.906.313-7.594 1.093-6 .188-5.593.094-3.907-1.781-3.718-1.594h-.688l-3.812-4.813-2.282-3.906.094-6 .094-4.594 1.813-4 3.594-6.093 4.593-7.594 2.719-5.5.781-4.125-.5-6.5-.781-4.5-2.5-4.875-2.406-4.719-2.594-3.5-1.5-3.5-1.719-3.281-.906-3.813-3.594-13.593-3.093-12.094-.594-9.5 2.094-5.625 6.593-3.094h7.719l3.594 1.5 2 3.219-.219 4.593-3.281 6.782-1.406 5.625.906 9.094 1.594 1 1.812-.313 15.781-8.688 6.313-5 2.687-4.718 1.5-7.688-.687-10.093-1.5-4-2.5-4.5-4.719-4.5-3.281-2.094-.813-.5-4.406-1.313-5.187-.687-5 .875-5.094.406-5.313-.594-8.281-2-6.906-3.593L6804 1857l-1.907-2-4.781-3.187-2-2.906-1.625-4.5-.5-4 1-3 1.5-1.594 3.406-1.813 3.813-3.312 3.5-2.281 3.687-2.72 3.5-4.093 1.313-2.406 1.281-4.094-.094-5.094-2.687-4.406-2.313-4.281-3.187-5.406-2.094-3.907v-3.593l1-3.5 1.187-4.094 1.906-3.5 2-4.125.5-3-1-6.375-1.5-6.406-1.312-4 .719-5.407 1.687-4.406 2.313-3.687 3.093-3 2.594-2.407 1.313-3.687.687-4.5-2.406-5-3.406-4.313-2.375-3.812-3.719-2.281-3-1.22-3.594-.5h-5.594l-4.312.407-3 1.719-3.906 1.781-5.188-.094-4.594-2.687-3.406-1.813-4.312-2.687-4.188-1.313z" style="fill:#9faec0" transform="translate(0 50)"/><path stroke="#9FAEC0" stroke-width="10" d="m1456.281 2274.125 227.313 6.875-6.5 280.5-1.281 56.5-4.907 225.781h5423v-.375l-.593-4.312-2.126-5.406-2.28-4.782-3.594-4.906-6.407-6.906-6-3.594-13-9.094-2.593-5.5.187-8.593.406-9.407-.312-5.593-2-5.126-2.906-5.374 31.312-15 4.688-7.313 2.124-16.094-3.5-9.312-5.5-3.406-8.812-13.782-12.812 2.907-5.876 4.28-1.124 31.813-9.282 8.094-1.312-2.312-3.688-3.688-7-.687-4 1.687-8.906 2-9.812.188-9.5-2.094-5.594-3.594-2.406-5.5 4.312-13.406-.187-5.906-10.5-21.188.5-5.594 6.687-8.5 9.813-7.906 3.5-12.812-2.5-6-15.626-12.876-3.28-20.406-4-7.906-17.407-16.187-22.906-4.126-17.781-10.28-9.22-27.407-6.187-6-20.5-9.5-3.5-7.906-2.406-12.688 5.094-16.593 8.906-10.313 22.5-13.594 4.594-6.218 3-9.782-.094-2.218-.906-3.876-2.282-4.406-3-5.406-1.312-3.906-2.188-4.906-1-5.5.094-4.094.688-4.594 2.719-6 1.093-4.812-1.593-9 .093-4.594-3.218-5.688-3.094-5.093-1.406-3.313-1.188-4.187 1-4.626 1-3.5 1.688-4 2.406-2.093 4-1.406 4.5-1.876 5.313-.812 3.687-2.312L6934 2355l3.094-4.094 1.5-6.5v-10.093l-1.188-3.313-4-4.312-4.593-4.5-4.72-4.376-4.5-5.624-4.687-9.594-1.593-6.281-1-7.313.5-4.5.5-6 1.187-4.375z" style="fill:#9faec0" transform="translate(0 25)"/><path stroke="#9FAEC0" stroke-width="10" d="m1670.906 2843.781-1.312 61.032-2.281 100.593-8.407 383.594 159.907 3.688 70.375 1.5 132.718 2.312 66.688 1.094 114.906 1.812 35.313.782 40.093.718 20 .282 254.782 4.124 205.718 2.5 2.407.095 14.5.093 46.5.5 419.187 2.813h13.813l156.093.094 314.282-.5h1.312l293-1.5 71.094-.5h17.094l96.218-.812 57.594-.5 231.188-4.094 24.906-.5 166.594-2.906 195.624-3.688 210.094-3.406 30.406-.594 54.5-1.594 92.594-2.625 3.188-.094 381.312-10.406 2.094-.094 29.687-.687 284-8.094 70.72-2.219 95.28-3.281 289.72-11.625 3.093-.094L6620 3345l194.594-8.5 8.718-.406 182-8.688 205.5-10.312 80.875-3.094 9.72-.687 85-4.22 27.093-.687-1.906-7.718-4.5-5.875-18.594-6.5-11.5-10.625-12.406-1.688-7 2.688-8.188 3.406-7.094.312-5.125-.906-6.5-2.312-7.28-5.782-3.907-5.812-2.906-6.906-1.5-5.5-1.5-7.375 1.312-5.22 1.406-3.687 3.188-3.312 2.812-3.781 1.375-3.72.407-4.187-1-3.593-1.407-5.22-.28-4.187 1-4.093 2.093-3.72 2-2.187 4.5-4.093 3-3.125 1.187-3.688.313-3.906-.594-4.781-1.094-4-2.218-3.313-2.5-2.687-4.594-2.125-4.313-.594-3.875.312-6.406-.718-6.219-4.375-4.375-6.907-2.312-17.593-7.688-6.72-15.406-5.593-16.594-17.094-3.218-7.718-.688-9.375 9-18.907.5-11.593-1.719-7.22-5.5-8.905-11.375-6.188-27.718 1.094-18.407-8.688-7.875-3.593-2.312-2.407-1-3.218-.094-4.375 3.687-17.125-2.187-5.5-7.906-6.5-17-1.688-14.688-10.687-10-4.22-6.406.813-23 10-5.5-.906-5-4.094-.719-5.5 3.125-7.906 19.688-10.187 3.812-3.907 1.875-7.312-4.375-13.094-12.5-14.406-3.625-22.688-14.187-23.718-2.407-7.875 3.313-10.313.906-3.687.094-4.532z" style="fill:#9faec0"/></svg>