<svg xmlns="http://www.w3.org/2000/svg" width="5256.906" height="7768.875"><path stroke="#9FAEC0" stroke-width="10" d="m110.281 0-1.187 44.781-.5 22.313-1.094 25.094-.187 7.187-3.407 106.813-2.593 101.906-.72 25.187-1.28 37.906L88.5 691.094l-3.187 96.687L83 834.594l-1.5 45.187-.594 15.313L79 944.28l-4.5 132.094-3.187 97.813-2.72 97.687-.28 13.594-.282 9.344h5026.063l-3.594-111.532-.5-16.187-.687-23-.22-7.719-.687-16.094-.593-16.093-.313-6.907v-10.312l-.312-4.875-.282-11.719-.406-14.187-.594-16.594-.718-17.125-.594-15.594-.188-4.406-.312-12.781-.281-5.813-.407-10.781-.312-5.406-.094-8.72-.5-7.374-.094-10.313-.594-16.593-.5-16.094-.219-3.813-.187-12.906-.313-4.781-.28-11.813-.5-14.093-.72-17.72-.5-16.093-.593-16.094-.594-17.093-.594-16.22-.5-13.093-.625-18.594-.594-16.187-.593-16.125-.094-2.688-.407-14.5v-3.187l-.312-11.406-.188-4.22-.312-9.374-.188-6.719-.312-11.406-.5-16.188-.594-16.593-.094-3.22-.812-14-.094-3.187-.188-12.906-.219-5.187-.187-8.407-.406-7.687-.282-10-.5-16.125-.5-16.594-.125-3.687-.5-13.5v-2.594l-.375-5.125-.5-10.5-.406-13-.094-3.188-.406-13.5-.594-16.593-1.812-49.5-.594-16.22-1.719-46.78-.687-18.72-.594-16.593-1.719-47.406-2.375-65.594-.625-15.094-1.094-31.187-1.906-49.5-1.094-31.219-.687-17.781-.407-15v-1.719L5049.406 0h-216l-33.594 1.375-33.313.906-16.312.5-113.094 2.813-49.187.875h-1l-14.907-.094-16.406-.094-14.187-.312h-85.594l-46.5.312-16.906.188-17.907.219-2.593.093-12.219.688-14.875.906-2.125.219-15.281 1.187-14.313.813-32.687 2.187-14.407.594-43.906 1.594-75.187 2.219-75.907 2.593-4.406.407-7.406.093-89 .907-28.688.406-16.406.187-13.78.094-36.626.5-13 .219-16.375.187-133.625 2.094-92.594 1.312-118.78 1.407-11 .187-50.907.594-7 .094-30.407-.094-94.593-.406-11.719-.094-15.5.219-163.094 1.594-2.187.093-14.219.094-34.875.312-154.625-.312-5 .219h-70.688l-252.312-.5-9.781-.125h-.407l-166.593 1.312-46.094.5-94.406-.187-74.219-.72h-11.594l-21.687-.093-23.313-.093-44.594.093-3.687-.093-28.625-.094-15.281-.125-32.313-.094h-5.687l-47.5-.281h-.594l-27.625-.125-18.5-.188-80.781-.5-76.813-.312-19.5-.188h-29.687l-47.094-.187-16.406-.125-33.219-.188-15.375-.093-16.906-.094-65-.406-30.813-.219-32.687-.188-32.813-.312-134.906-1.188-149.875-1.312h-3.406l-108.719-2.781-116.094-3.719-80.5-1.375-148.78-3-26.907-.5-114.094-2.125-1.313-.094-5.406-.406-2 .406h-1.094L478.405 8.47l-64.219-2.875L307 1.375 284.5.188l-2.688-.094L279.905 0H110.28z" style="fill:#9faec0" transform="translate(0 125)"/><path stroke="#9FAEC0" stroke-width="10" d="m68.031 1294.813-.718 24.874-.313 9.594-1.094 46.313-2 72.5-2 79.594-.5 22.187-.218 8.594-1.282 39.219-.5 22.187-.312 11.594-1.906 73.5-.594 22.219-.188 5.5-2 51.28-1.906 69-.406 14.72-2.281 53.78-.625 13.5-.094 3.22-.594 15.593-.594 16.094-1.094 32.219-1.625 50.187-1.093 34.406-.188 4.407-1 24.094-.5 16.78-.594 10.907v3.219l-.718 12.875-3.5 71.406-.594 13.406-1 17.313-.594 14.875-.5 11.812-5.219 134.188-.78 13.5v2.219L28 2451.594l-.094 3.187-.5 13.5-.094 2.594-.813 14-.094 1.594-.812 13.5-.094 1.625-.407 15-.687 16.594-.594 16.093-.5 14.188-1 26.156H5133.03l-3.719-101.25-1.218-32.687-5.282-143-3-85.094-5.812-151.625-2.188-55.188-1.812-53.093-6-236-3.188-139.313-1.218-54.281-.5-24.813-.188-6.906-1.906-82.094-.594-28.906-.5-21.5-.594-29.781-.312-18.125v-3.094l-.906-28.062H68.03z" style="fill:#9faec0" transform="translate(0 100)"/><path stroke="#9FAEC0" stroke-width="10" d="m22.313 2589.625-.907 24.063-.593 16.687-.625 17.094-.5 12.125-1.875 50.281-.407 15.094-.906 32.719-1.406 48.78-.781 14.626-.125 1.5-1.375 33.187-.72 14.594-.593 15.594-.812 18.625-1.594 32.187-.781 17.094-.22 15.094v1.125l-1 16.094-.593 14.5v4.093l-.812 42.813-.375 27.5-1.813 49.281-.187 11.719-1.22 59.875-.78 48.719L0 3319.28l42.188 39.313 26.406 24.594 3.594 3.5 10.718 10.093 46.688 44.094 17.719 16.813 3.187 3 27.406 25.5 2.188 1.406 29.812 28 7.688 7.187 12.219 11.813 21.28 20.375 21.407 19.812 52.094 48.594 6.594 6.219 9.312 8.687 17.594 16.406 21 19.594 2.094 2 81.125 75.906 4.375 4 101 95 35.53 33.25h4570.5l-3.03-92.75-.594-19.718-.5-13.5-2.688-83-1.406-40.281-1.687-49.813-.22-7-1-30.687-1.593-47.907v-1.5l-1-20.594-.687-15-3-62.906-1.5-32.687-2.22-47.5-.093-1.219v-7.406l-.406-16.594-1.688-73.687-.812-35.72-2.407-108v-1.28l-2-69.5-.375-14.594-1.625-52.625-.78-28.375-.5-16.625-.72-28-1.5-53.594-.5-16.094-2.375-81.5-3.406-114.812-.375-10.344z" style="fill:#9faec0" transform="translate(0 75)"/><path stroke="#9FAEC0" stroke-width="10" d="m603.219 3884.438 42.687 39.937 17.782 16.719 37.406 34.687 17.5 16.406 10.406 9.688 104.594 98.094 22.5 21.218 33.219 30.907 7.093 6.593 29.782 27.782 45.218 42.125 24.5 23.093 34.907 32.782 10.5 9.906 49.093 46 95.188 89 54.406 50.813 38.813 36.093 28.593 26.594 37.282 35 28.406 26.219 32.219 30.187 60.375 56.5 90.218 84.313 65.688 61.281 25 23.594L1668 4880.28l29.094 27.406L1759 4965.97l102 95.625 1.594.094 73.094 68.281 9.5 8.812 43.343 40.5h3224.782l-5.813-161.5-.906-24.093-1.688-48.313-1.5-40.906-.718-17.094-1-24.5-1.375-39.5-.125-1.687-.688-23.719-1.312-49.781-.5-16.594-1.875-69.719v-1.687l-3.5-126.094-.125-2.313-1.875-138.593-.125-2.407L5186 4260.47l-.812-25.094-1.782-54.78-9.687-296.157z" style="fill:#9faec0" transform="translate(0 50)"/><path stroke="#9FAEC0" stroke-width="10" d="m1988.531 5179.281 5.875 5.5 37.5 34.688 49.094 46 6 5.719 6.5 6.187 53.688 49.719 5.5 5.187 137.812 128.813 49.594 46.5 8 7.281 8 7.219 19.5 18.594 12.094 10.906 67.125 63v1.187l142 132.313 21.093 19.594 2.407 2.187 12.593 11.719 36.188 33.5 29 26.875 9.5 8.906 31.594 29.813 2.718 2.5 47.407 44.187 74.78 69.5 26.72 24.719 16.187 15.094 2.406 2.187 54.907 51.594 18.5 17.125 13.687 12.594 30.813 28.687 12.593 11.813 122.282 113.906 72.218 66.875 10.907 10.312 47.375 44.313 52.718 49.594 2.594 2.406 27.531 26H5226.72l4.875-10.125 4.094-11.594.406-1.187.594-1.407 2-4.812 5.906-7.594.5-.594 6.594-5.593 5.218-1.313v-10.687l-.906-29.22-8.906-286-.906-27.5-2.688-74.374-5.187-145.813-3.72-104.312-.093-3.375-.688-16.625-.906-20.688-6.594-172.093-.125-2.22-12.875-357.687z" style="fill:#9faec0" transform="translate(0 25)"/><path stroke="#9FAEC0" stroke-width="10" d="m3375.531 6474.094 10.063 9.5 22.594 21.093 37.718 35.407 12.188 11.281 51.406 48.094 37.094 34.625 31.094 28.875 20.812 19.406 188.906 176.406 34.094 31.907 3-.095 18 17.094 34 32 51.188 47.094 13 12.406 87.125 80.688 11 10.406 179.28 167 10 9.313 3 3.093 46.595 43 43.5 40.782 17.125 16.125 16.5 15.5 27 24.78 15.5 14.5 42.593 39.813 29.5 27.407 13.594 12.5 99.594 93.093 51 48.094 19.5 18.094 9.594 10 19.406 17.5 8.812 8.094 16.282 15.218 16.906 16.094 1.719 1.594 14.875 14 24.5 23-1.688-6.094-.5-2-.906-4.187.094-2.313.125-2.594.094-3.218-.313-3.5-.406-6 .5-6.875 2.625-7.125 1.687-2.875 4.313-4.813 5.375-4.094.906-.718 3.72-2.094 4.093-2.406 2.093-3.782 1-1.812 2.094-7-1.187-5.781-1.907-4.313-3.687-4-4.312-3.313-2.188-2.28-1.125-.907-3.594-2.812-2.5-.782-1.78-.812-1-.406-2.22-.875-3.093-1.407-5.813-2.593-3.375-2.22-2.125-1.405-2.5-5-.375-3.5 2.5-4.094 5.188-6.5 4.906-3 5.094-3 4.406-1 1.594-.406 5.593-1.282 7.72-.406 9.186-1 7.188-1.406 5.625-1.906 4.094-4.094.5-1.094 2.594-6.406.593-3.281-.5-4.813-.406-1.687-.687-3.5.312-1.813.875-4.594 2.719-8-.219-3-.187-5-.095-1 .407-3.593.281-2.5.094-1.5.219-3.126-1.5-6.5-1.813-6.874.313-5.22-1.313-4.28-1.187-2.313-1.094-2.188-3-2.812-2-4.594.094-6.406-.219-3.094-.281-4.5-.094-1.594-.625-4.406-1.375-4.594-1.125-5.406-.875-4.219.375-3.78-.688-5.313-.687-5.188-.406-4.906-.407-2.594-1.5-8.5-.094-.906-2.906-9.5-4-7.906-.687-4.282-.407-2.218-1.718-7.5v-6.594l-.188-1.406.906-8 .688-5.688.906-6.406-2-5.188-1.094-4.906-.718-3.093-2-7.126-.188-.874-2.594-7.22-.5-1.28-5-9.126-3.593-11.093-.813-2.281-6.5-18.313-.687-2.094-25.813-50-7.687-13.094-.5-.718-7.313-12.907-1.906-3.593-3-6.407-2.594-9.875-1.906-5.906-1.906-6-.282-1-1.312-4.094-1.188-3.5-.312-1.312-.594-2.188.5-11 .188-1 .906-4.125 2.094-3 .625-.875 2.375-2.625 2.625-3.093 2.375-2.688 1-1.094 1.218-1.312 1.594-2.406 2.094-3.5.5-2.5-.5-2-1.5-2.907-2-5.187-1.094-5.188-.312-1.406-1.094-6.094.406-2.406.594-3-1-3.719-2-5.875-2-3.625-3.594-2.375-2.594-2.125v-3.593l.407-2.5 2.5-1.688 4.78-2.406.72-.406 3.375-2.782 1.218-1 1.782-1.625 1.906-2.593.406-4 1.094-5.688.219-6.5-.813-2.406-.5-1.594-2-5-2.5-2.312-2.594-1.688-3.593-2-2.907-3.406-.593-3.188-.5-2.5-2-3.718-2.22-3.407-3.78-3.875-3.72-2.718-1.78-3.5-1.72-3.5-1.5-9 1-6.094.22-.906.875-3.594 1-4.094.718-2.5.907-3 .687-2.219.406-1.78.407-1.595v-3l-.72-2.718-2.28-2.782-2.625-2-4.782-3.312-3.312-2.906-1-.907-3.906-4.28-2.282-4.907-.718-4.5-.282-5 .782-4.594 1.406-3.906.5-1.5 2.594-6 1.5-7.594.5-3 .625-3.094-1-4.5-1.22-3.5-.905-2 .125-3.625 1.28-3 .907-3.5.406-1.593-1-2.407-1.718-3.093-1.875-3.5-.72-4.282-.28-5.812.187-4.313-.406-2.78-.406-2.22-.282-5.78-2.593-6.5-2-3.095-1.5-1.5-2.125-2-2-4v-2.625l1.718-2.375 1.594-2.406.813-.906 1.28-.906 1.313-1.407 1.407-4.093.78-2.594-.093-2.813 1.094-2.093 2.218-2.407 1.375-2.593.5-1-.5-3-1.5-2.5-2.687-3.782-1.406-2.312-1-1.5-1.407-2.688-1.687-3.312.312-2.5.875-2.094 3-1.5 2.5-.312 1.125-.188 2-.5 2.594-1.5 1.5-2.5.781-1.219.5-.687.907-1 3.5-1.594 5.218-2 5.594-3.5 2.688-.812 1.593-.5 2.407-.688 2.093-1.219.5-2.28-1-1.5-2.593-1.5-4.094-1.095-4.594-4-1.719-2.5-.593-1-5.282-5.125-6.625-5.28-6.093-6.407-2.094-2.188-2-2.406-2.094-2.406-2.219-4.188-1.875-3.812v-5.594l.594-5.5-1.094-3.906-3-6.188-6.812-4.906-4.313-3.812-4.28-2.282-2.72-3.406.125-1.812.282-2.188.406-7.312-.188-4.782-1.312-5.5-3.813-3.312-4.5-7.906-2.187-6-2-5.282.187-2.5.125-2.5 3.188-6.812.187-4.594-.687-4-1-5.812.5-4.188 1-1.906 1.312-2.313 4.875-3.593 3.907-4.907 2.906-3.687 1.812-4.094-.812-2.906-3.094-2.5-2.719-3.406-3.187-1.282-3.813-1.406-1.5-2.312-.5-4.782.5-3 2-1.906 2.22-3.094-1-4.125-1.72-3.375-2.375-5.125-1.812-4.687-2.688-3.906-4.406-3.782-3.812-4.406-1.282-4.406 1.782-7.594 3.312-3.812 5.5-6.188 5.688-4 5.593-2.312 7.22-2.188 10.593-.812 4.312-1.188 4.594-1 2.688-.906 2-1.594 4.093-2 3.407.906 4.312.375 2-.187 4-2.094.688-.406 4.312-2.406.688-.407 4.218-2.687 2-2.313.594-.687 2.594-3.094 2-2 2.594-3.5 3.906-3.406 2.812-2.094 5.188-1.906 2.906-3.188 3.688-1.906 2.093-1.5h3.625l2.875 2.781 1.22 2.813 1.5 3 3.593 1 3.312.187 4-1.187 4-3.188 4.688-4.218.687-.688 4.407-3.406 7.719-5.5 9.28-2.813 7.22-.875 5.593-1.312 6.594-1.406 4.5-1.188 6.313 1.688 4.093 3 3.594 2h3.594l2.594-1.5 2.625-2.407 5.093-1.093 4.094-.5 3.094 1 3.219 1.812 2.375 4.281-.594 2-2 2.5-3.094 2.5-1.594 3.125v3.5l1.5 3.5 3.594 2.782 5.688-.782 6.125-1.906 9.78-6.094 8-5.406 4.5-2.812 3.595.312 4 1.5 3.5 4.188 4.125 5.906 4.093 2 4.594 2.5 6-5.313.5-.5 7.313-5.593.687-.5 5.188-4.782 5.906-4.906 5.812-.719 7-1 7.188 1.72 5.812 1.687h7.688l5.094 2.5 5.625 5.5 2.093 5.093 5.094 5.125 3.5 3 4.094 3.188 4.219 6.187.687 1.22 2.313 4 3.78 2.593 4.813 2.312 1 .282 3.688 1.406 2.5 2.5 2.594 3.5 2.625 4.687 3.5 4.907 3 3.593 2.593 4.5 1 5-1.593 5.125-3.5 3.282-.625.718-3.188 3.594-.5 4.406 2.594 3.594 4.594 2 3.625-.5 4.5-.719 3.687 1.813 4.594 2.5 3 3.687 4.094 1.813 5.812 1.187 4 1.407 2.5 4.812.906 7 1.594 6.781 8.188 7.125 11.218 5.594 4.782 2.781 6.312 1.22 8.594-1 9.719-2.5 10.5-4.095 7.374-3.406 4.626-1.406 3.593-3.094 5.407-2.812 1.78-.282 4.407-.625 5.094.72 4.406-.407 5.594.5 3.094-.5 3.124-2 .095-1 1.28-3.594.407-2 1.813-1.906 3.093-4.094 2.094-4.5v-7.594l.094-8 2.125-9.125 4.687-12.875 4.094-10.718 4.094-5 2.125-3.5.5-4.094-1.406-2.5-2.813-3.313-3.406-3.187.406-5.188 2.313-4.718 4-2.688 5.5-2.406 5.781-3.094 2.125-4 2.094-8.5 2.593-7.094 5.313-7.5 3.5-8.125.406-.875z" style="fill:#9faec0"/></svg>