<svg xmlns="http://www.w3.org/2000/svg" width="1426.188" height="2699.813"><path stroke="#9FAEC0" stroke-width="10" d="m751.813 0-5.407 3-2.812 1.5-.782.406-4.312 1.5-4 1.782-4.187 1.906-3 1.312-2.625.594-3.688-.094-3.5-.719-2.687.313-1.907.094-3.593.906-3.72.906L703 14.812l-2.906 2.282-.782 1.219-1.718 2.28-1.407 3.22L695 27.188l-1.5 3.406-1.594 1.906-2.312 1.5-2.782 1.188-1.906.624-.906.282-3.187.812-3.72-.094-2 .375-2.5.406-2.093 1-1 1-1 1.313-.094 2.406.5 1.5 1.094 1.5.5 1.5v2l-.594 1.094-.406.906-.687.688-1.313 1.593-4.687 2.813-5.125 4L653.594 64l-3.094 2.5-2.5 2-2.094 1.406-.406.281-2.594 2.313-2.218 2.5-1.594 2.5-1.688 2.906-1.5 3-1.718 2.781-1.594 2.219-1.094 3-.187 2.5-.907 2.187-1.312 2.22-1.094 3.5-1 6v1.093l-1.594 3.906-3 3.094-1.906.906-2.594 1.875-1.718 2.5-1.875 2.625-.625 2.188-1 2.5-.5 3-.875 2.312-2.72 3.781-.093 1.5.406 3 1.782 2.5 2 2.594.625 1 .5.719.5 2-.5 2.5-1.22 3.5-.687 1.406-.718 1-3.594 6-1.406 2.594-2.094 4.5-2.594 5-2.5 5-1.094 3-1 2.594-.5 2.187-.812 1.906-1.281 2.72-.313.78-1.687 2.5-2.5 3.5-2.72 1.907-1.687 1.406-1.812 1.781-1.281 1.719-1.125 2.5-1.188 1.781-1.5 3.5-2.687 6.406-2.907 4.72-2 2.874-3.593 4.719-3.907 4.687-3.812 2.907-5.094 4-3.687 2.312-3 1.688-2 .5-2.125 1.094-1 1-1.875 1.812-.5 2.094-1.22 1.594-.905 1.406-2.188 1.594-2.906 2.093-.688.719-2.5 1.281-2.593 2.5-2.313 1.407-1.312.5-2.5.094-1.594.312h-.906l-2.594 1.688-1 .718-.406.5-2.688 2.907-2.594 3-2.5 6-1.593 3.593-.313.782-1.687 3-.5 1v1.218l.375 1.594 1 1.5 1.5.313 2.218-.407 2.094-.5 2.5-1.906 2.688-1.687 1.5-1.72 2-1.687 2-1 2.218-.593 1 .5.5 1.5v1.593l-1.218 2.907-1.594 2.5-3.188 3.875-4.218 3.5-2.094 1.906-.5.5-3.188.906-3.5.906-2.5 1.407-3.218 1.28-3 1.5-2.594 2-1.906 1.813-1.282 1.594-1.906.813-1.5.5-1.594 1.875-1 1.718-1.093 2.5-.907 1.782-1.906 5.625-1.094 2.593-1.593 1.907-1.625 2-1.5 1.5-.594 2.5-.594 2v1.593l-.312 2.407-1.375 1-1.625 1.375-2.094 1.5-2.094 2.406-2.594 1.906-3 2.5-2.093 1.5-3.313 1.906-1.687 1-1.407.907-5.093 3.875-1.22.906-6.687 3.5-6.312 2.718-5.188 1.282-1.218.593L424 380.5l-3.5 1.813-4.187 2.375-5.125 2-6.188 2.406-4.187 3.406-3.625 3.313-1.375 1.375-4.5 3.625-3.625 2.593-2.594 1.688-1.5 1.718-.188 2.782v1.218l-.093 1.282v1.718l-.22 1.188-1.405 2.188-1.688 2.406-1 2.906 1.5 3.5.406.406 1.907 1.782 1.78.812 1.595 1.094 3.718 1.406 2 .5 1.5 1.594 1 2 .5 3v2l.5 2.593.688 1.75h1020.719l4.875-19.843 2.312-9.188 2.188-17.406-6.688-1.187-3.5-1.907-66.312-37.906-13.782-7.594-20.312-12.312L1207 274.187l-50.187-27.093-10.5-5.594-7.125-4-70.782-39.687-6.593-3.5-7.22-4.625-28-18.594-13-8.688-22.593-15-105.906-65.594L827.5 47.094l-37-22.907z" style="fill:#9faec0" transform="translate(0 125)"/><path stroke="#9FAEC0" stroke-width="10" d="m396.094 444.938.312.75 3.094 6 1 2 2.594 3.625 3.719 7.875 4.78 8.812 3 5.094 1.813 2.312 2 2.188 2.188 1.406 1.906.906 2 2.094 2.094 2.906 1.312 2.5.906 3.094.875 3.688 1 3.625.22 3.28 1 3 .906 2.907 2.093 3.5 1.688 2.594.312.406 2.5 3.5 2.406 4.313 3.875 5 2.22 4.875 1.406 4.718.093 3.782-1.094 2.906-1 2.093-2.218 2.407-1.5 1.812-1.5 3.094-.907 2.5-.875 1.813-1.718 1.687-2.094.406-2 .094-2.594-.688-.812-.5-1.188-.312-2.594-1h-3.125l-3 .5-3.093.906-1.594.594-1.5 2.094-1.094 2.906.094 2.594 1 2.5 1.594 2.5 2 2.093 2 2.407 2 2.593.906 4.5-.094 1.5V592l-.093.687-1.125 3.5-.875 2.22-2.22 2.405-1.687 1.282-1.219 1.218-1.375 1.282-1.718 1.5-.406.5-1.094 2.406-1.188 2.906-.5 2-1.5 3.594-2.5 4-3.594 3.906-1.5 1.406-3.125 1.688-3.187.687-2.5 1.907-1.5 2-2 2.093-1.406 2.813-1.594 2.812-1.687 2.188-1.125 1.406-.375.5-1.125.594h-.375l-2.22.312-2.5-.625-3.5-1-.5-.187-3.093-1-3.594-1.094-3.594-.719-3.625-.5-2.5-.093-.5.093-2.593.313-2.094 1.5-1.5 1.906-1 1.781-.594 2-.5 3-1 2.625-1.5 3-2 3-2.812 1.782-3 1.093-4.688 3-3.219 2.813-1.187 1.906-.406 1.781.906 3.313 1.406 2.187 4 4 1 1.125 1.781 1.782 1.22 1.812 1.5 2.594.906 3-.625 2.5-1.594 2.406-.906 2.094-.375 1.594-.407 1.906-.906 2-.187.594-1.625 1.593-2.094 2.5-2.094 3.407-3 6.218-2 6-1.5 6.594-.906 4.406-.094 1.094 1 4.5 1.094 2.5 2.312 1.906 3.5 1.782 3.907.718 4.187.594 3.094.5 1.812 1.5 1.094 3.594-.5 3-1 3.094-2.406 2.312L337.5 765l-2.594 2.5-2.718 2.406-2.594 3-1.781 2-1.5 3.406-.72 1.875-.405 2.625-.094 2.5.5 2 1.5 1.094 1.406 2.094 1 1.094 1.813 2.718 1 3.5.5 2.594.5 4 .28 5.406-.093 2-1.094 3-1 1.188-.593.687-1.625.313-2.5 1-1.594 1-.5 2v2.5l.719 1.906.5 2.281.375 1.407 2 3 1.5 5 1.125 5.093 1.093 4.813-.093 2.187V851l-1.125 4.687L330 859l-.094 2.5v1.594l2.282 5.406 4.406 4.687 4.094 2.813 3.406.906 3.594 1.281 4.625.72 4.187-.595 4-1.906 2.594-2 2.906-2.219 2.594-1.875 2.219-1.5 3-1.5 1.593-.406 4.094-.312 7.094.718 6.719 1.094.5.188 6.687 2.218 4.906 2.094 3.5 2.594 2.407 2.187 1.5 1.72 3.093 3.405 4.782 5.282 4.906 5.406 2.469 2.406H1129.5l1.688-3.406 5.718-4.5 4.094-2.094 4.594-1 7.219-1 2.5-3 2-8.594 1.593-10.125 2.5-7 2-6.593v-1.5l-.5-9.094-.5-6.5 1-8.094 1-8 1.5-6.594 3.094-7 3.594-4.625 4.594-3.5 5.625-4 7.687-1.593 5.094.5 5.719-4 2.5-4.5 4.093-6.094 4.594-6.094 1.5-5 .5-4.5 2.094-5.094 4.594-4.5 5.625-4.625 3.093-6 1.5-4 1.5-4.593 4.094-4 4.594-3 2.594-.5 5.125-1.594h5.093l1.094 9.594v3.5l-2.094 6.093-4.593 7-4.625 7.125-4.094 2-4.594 7.594-2 6-2 5.094-1.594 6-1 4v2.094l1.594 1.5 5.594-.594 4.094-2.5h7.218l4.594.5h3.594l3 .5 3.594-2-1.5-3.5-4.094-3.094-1.594-3 2.594-4.5 4.094 1 8.218 3 3.094 1 3 1 3.094 1 2.594-2-2.594-5.094-6.094-2.5-4.094-2-2.593-4 4.093-2h5.094l5.594-4.125 1-6 1.594-3.5 2.5-1.093h5.718l3-.5 3.094-5 2.594-4.094 2-1.5 4.594-4 1-2 1.625-3.094 6.375 1.188.125-.594 2.187-12.688 3.5-21.625 2.813-13 .281-1.593 1.5-7.594 1-5.5 2.5-4.906 3.719-5 4.281-8.188 7.094-12.812 4.406-7.907 1.5-2.593 6.593-11.594 5.72-11 5-11.687 1.28-2.907 11.5-26.812 10.625-27.907 1.375-4.093 5.407-15.5 5-13.5L1407 483.5l5.813-22.187 3.28-13.5.72-2.875z" style="fill:#9faec0" transform="translate(0 100)"/><path stroke="#9FAEC0" stroke-width="10" d="m428.063 895.906 1.125 1.094 2.625 3 3.593 3.5 1.688 3.406.812 4.188.594 3.5-.5 5v4.593l-.5 4.125v6.875l.5 3.625.406 2.094.188 2.5.406 9.094v9.094l.406 6-.219 3.5-1.093 4.593-.5 2.5-1.781 7.813-.813 3.594-1.094 3.093-1 3.5-.093 3-.625 3-.094 1.625.312 2 .5 3.594 1 3.907 1.407 3.093 1.187 3.407.906 3 .188.593v1.5l1 5 .812 4.688.907 3.094.78 2.124 2.22 1.5 2.5 2.094 2 .594 3 1.594 2.687 1.906 2.313 2.313 2 1.5 3.093 2.5 3.5 1.687 3 1.094 2.594.094 4.094-.875 2.594-.906 4.5-1.407 5.625-2.5 2.375-.687 2.5-.5 2.406-.313h.719l2.187.407 3.406 1 3.282 2.093 2.125 1 2 1 3.687 2 1.688.907 2.812 1.687 2.594 1.813.406.406 2.094 2.281 1.406 2.813 1.688 2.687 1.718 3.406 1.782 3.813 2.218 4.875 2.188 5.125 2.906 9.5 2 9.281.906 7.813 1.282 7.093.906 3.5 2.094 3.5 3.406 3.594 2.812 3.406 2.094 2.594 2 2.5 6.188 7 3.406 2.906 2.312 2.313.5.187 3.094 1.907 3.5 1.093 3.094.594 2.5.594 2.094.5 3.125 1.5 1.875.719 2.5 2.093 2.125 1.5 2.28 1.5 4.095 5.313 4.406 5.281 3.219 4.219 2.187 2.781 1.406 1.719 4 7.094 2 4.593 2.188 5.907 1.5 5.28 1.594 4.313 1.906 3.688 1.094 3.906 2.125 3.406 2.5 4.094 1.593 3 1.282 1.594.312.406 1.688 1.719 1.906.781 6.094 3.594 6.125 4.125 3.593 1.781 4.188 1.813 4.594 2.187 3.625 2.094 4.093 2.719.5.28 4.594 2.907 5 4.219 2.594 1.375 3.406 3.312 1.906 1.688 1 1.125 2 2.875 2 3.625 1.407 3 1.5 3.594 1.78 3.5 2.095 3 1 2.5.312 2.593 1.094 3.094.719 1.813 1.5 2.593 2.093 1.907 2.5 2.093 2.094 1.5 2 1 3.594 1.5.906.5 1.688 2.094 2.218 2.094.594.625 3 2.5 3.406 4.375 2.594 4.406 1.688 4.813.218 6.187-1.5 3.813-.406.78-2.094 4.5-3.562 3.688h605.187l.657-2.562 1.625-8 3-11.625 1-5.594.5-6-2-3-2.625-.5-5.594 3-5.594 2-7.187-1-7.72-3-5.687-5.5-2.5-2.5-.593-3 2.093-4.094 4.594 1 4.094 3.594 2.594 2 4.625-.5 2-3.594 1.093-2.5h4.094l2.5 3.5 2.094 2 5.594 2.5 4.125-.5 3.593-2 2-8.593 4.094-9.5 2.594-7.594v-11.125l-.094-7.5 2.594-7.094 2-4.5 3.593-7.094 4.125-11.093 1.5-7.5 2.594-9.094 2-12.625-.5-9-.594-6.094.5-11.094 2.094-7.5 4.094-7.093 2-9.5.5-2.094 1-6-2.094-10.625v-12.594l1.5-12 1-9.094v-8.593l.5-7.5-1-2.5-.5-1.594-2.094-5.5-.5-7.5-.5-7.625-2.125-8.5-1-9.594-.094-6.094-2.5-3.5-1.594-6-3.093-9.093-2.5-7-2.594-4.5-5.719-7.594-2.5-1.5-4.594-3-2.593-2-4.094 1.5-2.625 2v3l4.219 2.594 2 5 .5 3.5v5l.593 6.093 5.594 1h3.594l2.5-.5 3.625 3.5v4l-2 4.094v3.5l4.594 11.5 5.687 12.594 2.594 6.625v5l1 7v2.594l.625 3.5 1 4.5v4.5l.5 10.093 1.094 7.094-1.594 9-1 6.594-2 7-3.625 7.625h-3.594l-3.594-.5-3 2 1 4.594-2 3-.593 1.5-2 3.5-4.094-1-1-2.5-3.625-1-2.594 3.5-1.5 3.093-1.5 1.5h-3.094l-1.593-2v-3.593l2.093-4-1.593-4.5-2.5-3.5-.594-3.094h3.594l4.687 1.5 6.594-2.5 1.5-3.5-2-3 4.125-3.625 6.594-3 5.093-4.5 2.094-5.594.5-7-1-3.094-5.187-2-4.594-2-4.625-1.5-6.688-.5-4.593 3.094-5.094 1-3.625 2.5-2.5 5.594-2.594 1-6.094.5h-2.593l-5.094 4-4.125 3.125-3.094 4-4.094 2-3.593-2-1-5 2-3.625 8.187-5 4.594-4 4.625-1.594 5.187-1.5 1.5-3 2.594-2.5 3.5-1.594 2.594-.5 4.125-3.5 3.594-3 2-2.5 4.593-2.093 4.094 2 6.219 1 2 3.093 2.094 1.5 2.593 2.5 1.5 2h3.094l.5-4.093-1-5.5-.594-6.5-.5-5.094-4.093-4.5-3.094-5-3.625-5.125-7.188-3-18.406-2.375-8.187-1.5-5.219-3-6.594-1-7.687-2-4.094-3.625-7.719-4.5-5.687-5-9.719-6-11.781-4.5-8.219-1.5-4.594-3.5-6.187-4.594-6.594-4h-4.719l-1.5.5-4.594 5.594h-7.687l-9.219-1.5-7.187-6-4.094-3-4.625 5.5-5.594 11.125-10.781 6.594-6.125.5 2-2 1-3.594-1.5-4.5-6.688-5-5.593-1.5-6.719-2-11.281-6.125-9.719-5-7.188-3.5-5.593-11.594-.594-6.5-14.313-11.094-9.812-3-8.688 3.094-5.093 10.594-3 8-3.594 4.125-12.813 1.5-6.687-1.5-4.625-2 6.125-5.125 5.094-3.5 7.187-4 5.094-5.094 6.219-6.5 2-5.594 3.093-4 5.094-1h6.719l8.187 3 5.594 2 3.594 2.5 3.125 5 2.5 3 4.094.5 2.593-5v-5l-.5-4.093 1-3.5.5-4 1.5-3.594 2.094-4 3-3.5 2.094-4.125.5-4-1.594-5-1-7.094 1-5.5 2.094-4.5 1.812-3.687H428.062z" style="fill:#9faec0" transform="translate(0 75)"/><path stroke="#9FAEC0" stroke-width="10" d="m719.844 1346.875-.438.438-4.218 3.374-3.594 2.907-3.688 2.406-2.593.813H702.5l-3.906.093-4.094.5-2.5.907-.594.187-3.312 1.406L685 1362l-2.5 2.313-2.594 1.874-2.093 2-.5.313-2.125 1.594-2.094 1-2.407.406h-2.593l-.594-.187-2.594-.5L662 1370l-4.687-2.406-.407-.188-4.718-1.906-3.594-1h-3.5l-3.094 1-2.594 1-2.093 2-1.907 2.594-2 3.312-1 3.782-1.718 4-.594 4.5-1 3.5-1.907 2.5-2.593 2.124-3.094 2-3.594 1.782-2.5 1.812-2.093 1.907-1.813 2.187-1.406 2.188-1.407 2.124-2 2.094-1.593 1.5-3.094 1.407-2.906 1.28-3.188 1.313-3.093 1.594-3.813 1.406-4.594 1.5-4.093 1.5-2.72 1.188-3.093.906-3.594.906-3.093 1-3.125.907-3.094.28-5.688.407-2.906-.094h-1.187l-4.125.906-4 2.281-8.188 5.5-10.5 6.907-6.406 3.187-5.188 3.125-1.312 1.094-2.282 1.906-3.5 3-3.125 2.375-2.093 2.406-4.281 4.907-2.313 2.906-.906 1.094-3.188 2.906-3.719 2.781-.375.313-3.718 2.687-2.781 2-2 1.219L472.5 1484l-5.5 1.812-4.187 1.375-4.125 1.406L455 1490.5l-3.094 1.906-2 2.188-2.719 2.812-1.187 2.406-2.187 3.375-1 3.5-1.5 3.125-1.625 3-1.5 3-3 3.281-3.094 3.594-3.688 3.219-4 3.188-5.719 2.812-6.687 2-6.594 2.094-3.594 1.187-6.218 2.313-6.906 4.406-4.688 3.406-1.594 1.094-.906 1-3.312 3.188-2.5 3-1.188 2.5-1.312 3.406-.375 2.687-.72 4 .407 4.406.406 4 .281 4.594.907 4.625.906 4.5.906 3.094 1.406 4 .875 3.094.5 3-.093 4.5-.5 3.406-.281 1.594-1 4.5-1.625 3.593-2.5 4-2.5 3.313-.594.688-3.5 3.406-3.188 2.312-.5.188-2.718.687-4.375 1-5.907.219-6.593-.219-6-.687-3.625.187-1.782.313-.906.094-2.906 1.093-1.781 1.407-.907.5-1.718 1.218-.688.5-1.5 2.282-6.312 5.812-5.688 4.781-1.094.72-6.312 3.905-9.406 4.094-10.375 3.688-6 1.406-6.125 1.188L263.5 1671l-5.594 1.5-5 1-5.093.594-5.813.406-8.094-1.312-8.312-1.594-6.188-.594h-5.094l-5.125.406-4.093 1.094-3.594 1.094-1.5.593-4.187 1.907-4.125 2.406-5.094 3.094-6.594 5.093-5.687 6-14.72 12-24.687 18.407 7.688 6.906-4.094 2-8.187 3.5-4.5 2.594-.626.406-4.5 2.5-1.093 1.094-2.594 2.5-6.187 5.5-6.126 6.593-3.093 3-2 3-2.094 1-2 2-1.594 2.126-1 3-1.5 3-1.094 3-1.5 4.593-2 4.5-2.124 4-1.5 3.5-2.094 4.094-.125.344h1122.469l-1.532-.25-7.593-1-4.126-1-3.593-1-1.094-5.5.5-4.5v-5.094l.5-3v-2l1-4 2.094-2.094 1-2.5 2.094-3 1.5-2v-2.5l-2.594-3.594-1.5-3-2.094-5 3.594-4 3.094-3.124 4.624-4 2-8.094-.5-5.5 2.5-7.5L1211 1711l5.188-1.5-1.094-4.5-4.094-1-4.094.5-2.5-1-.094-3.5 4.094-2.594 5.688-1.5 5.093-2.5 3.125-5.094 2.5-7.5.5-4.5 1.594-4.124 2-1.5 4.094-1 4.094-1.5 2.593-2.5-3.093-4.094-3.094-1-5.094-.5-3.594 1.093h-4.125l-3.593-1-2-.5-1.094-1.5 1-4.093 2.094-.5 3.593-.5h6.625l3.094-.5 2.094-4-.594-3.594-.5-6.5 2.094-6 2.5-8.094 5.094-9.094 3.093-6 3.125-4.124 4.594-4 2.5-1.5 3.094-1.5 2-2v-3.594l-1.5-2-3.094-1-4.594.5h-5.625l-6.687.094-6.188-.5-6.125 1.5-3.093-1-3.594-2.5-4.594-3-4.094-4.094-3.125-1.5-5.593-1.5H1198l-4.594.594h-1.594l-2-1.5v-5.594l-.5-2 8.188-.5h3.5l3.594-1 3.593-1.094 4.125 3.094 2.094 2 5.594 5 5.187 1 6.125 1 4.094 1 3.094-.5 3.094-3 1.5-2.094 2.593-.5 3.625.5 2.5-3 1.5-4.5.5-3.594 1.094-2-.5-1.5-1.094-3-.5-2 2.094-2 1.5-5.593 2-4v-1.5l-1-2-3.094-2-2-2.5-1.625-1.625.5-2.5 2.625-2 .5-2v-2.5l-1.5-1-3.125-2-2.593 1.5-2 2.5-4.594 1.5-6.188-2-3.125-2-1.5-4 2-5.594 2.125-2 1-2 4.594 1 4.594 1.5h4.594l1.593-2 3-3 2.125 1.5 2.594 1 3-1 1.594-4.094-2.094-3-3.094-2.5-6.125-2h-10.28l-2.5-.5-1.095-3 5.094-6.594-2-2.5-4.594-4-2.125-1.5-.5-2 3.125-3h4.094l3 3 3.594 5 4.094 3 3.093 1.5 3.625 1 4.594-1.5 3.094 2.5 1 4.5 2.094 3.094 3.593-.594 5.625-.5 2.594-7.5-1.094-5.593 7.188-5.5 2.094-3.5 1-6.125.5-2-.5-4.5-5.688-1-7.219 1.5-5.593 2.5-5.594 2.125-2.094-3.125h-5.094l-5.125 1.125-3.093-2.5-2.594-3.125-5.094-.5-3.094-3 .5-4.5 5.594-2.5 4.688 5 9.218 1.5 6.688 1 6.094 2 5.093-2 4.125-1.594 5.188-3.5 3-2 4.094-3 3.093-2.094 6.72 1.5 1 .5-.5 2.594-1.5 3-1.595 5.5-2 5.594v5.5l.5 6.5v11.625l.594 4.094-1.094 8-1.5 4.5-1.5 4.593-3.125 7-1 4.594-2.5 8-.5 7.594-1.593 7-1.5 7.125-2.5 7.5-3.594 3.094-2.094 2 .5 4 1.594 2.5 3.094 3 2 4.593.5 5-1 6-1.5 5.594-2.594 4.5-1.5 3.5-1.5 3.094-1.5 8.5-1.094 8.625-1 7.5-1 7.094-.5 4.5v8.093l.5 5-.406 8.094-1.594 10-1.5 8.594-.5 8.5.5 9.625.094 10.094v4l-2.594 7.093-3.093 7.5-1.5 3.5v3.094l-.5 5 1.593 5 1.5 4v4.594l-2.5 4-3.093-.5-3.625-1.5-2.094 1.5-.5 2-.5 3.125h2.594l3.625.375 2 1.625 2.593 3.5 3.094-.5 1-.5.5-2.625 2.094-3 1-4 1.5-5 1-6.094V1722.5l1-8.093 1.5-5.5 1.594-4.5 1.5-9.094v-8.125l1-6 1.5-9.094 2.5-9 1.125-8.594-.625-9.093-.5-10 2.5-17.094.5-13.625 2.125-9.594 2.5-13.594 1.5-10.593 2.093-7.5 2-9.094 2.5-11.625 1.5-20.094L1305 1506.5l-.5-10.093-.5-5.5 2-11.094 2-5.625 2.094-7.5 2-5.094 3.594-8.5 2-6.594 2.125-7.5 2-10.093.5-6.5-.5-7.094v-5.5l-1.625-2.5-.5-.5-3.594-2.125-7.188-1.375-9.218 1.5-7.188 5-6.594 2.094-8.218-3-5.188-.5-6.094-6.594-1.593-7-2-13.625 1.5-3 2-1.5 1.093 3.5 2 5.5 3.594 7.125 4.688 3 2.5 3 3.125 2.5 5.093-1 7.188-3.625 5.594-3 2.125-1.5 2.5 1 3.593 1.5 6.688.5 5.094-5.594.5-10.5V1368.5l1-12.593 2.343-9.032zm553.969 165.719-1.126 2-.5 3.5-.5 2 1 2.5 3.126 1.5 1.593-2.5v-3l-1.093-3-1-3zm-1 52.312-1 1.5v3.094l-1.5 3.5 1 3.5 2.093.5 1 .5 1.5-1.5v-3l.5-3.094-2-4.5zm-31.5 163.688-1 2.5.5 1.5 1 1 1.093 2.5 1.5 3 1.5 3.094 3.094 2 2.094 1.5 3.094-.5.5-2.5-1.094-3.594-2-5-3.094-2-4.594-3zm-11.22 35.719-3.093 1.093-.5.5.5 2-.5 1 .5 1.5 2.094.5h3.094l4.624-1.5 2-1.593v-2l-2-1-3.624-.5zm28.22 6.5-2.626 2.593-3 5-3.093 7.5-1.5 9.094-.906 2.844h7.093l2.532-4.344 2.5-7.094.593-5.5.5-6.593z" style="fill:#9faec0" transform="translate(0 50)"/><path stroke="#9FAEC0" stroke-width="10" d="m80.969 1797.844-.875 2.656-.5 3.5-.5 3-1 4.594v3l-.5 2-.594 1.5-1 1.5h-2.5l-2.594-.5-1-.5-1.594.5-1 2-.5 2-2.312 4.5-2.312 4.594-1.094 1.624-3.407 3.282-2.187 1.719-1.5 2.5-1 3-.5 4-.5 4.093-.5 4.5-.594 2.5-.5 4.5-.5 3-1.5 3.094-2.093 3-2 2.5-2.126 2.5-2 2-2 2.094-1.593 2.5-1.5 2-1 2.5-1.594 2-1 1-.5 1-3.094 2-3.593 1.594-2.625 2-2 2-1.5 2-1.594 1.5-2.5 2-2.094 2.5-1.5 3.124-1.813 5.376-.78 2.124.5 5.094 1.593 6.907 1.5 7.093.594 1.907.5 1.687 1.5 2.5 3.093 3 4.125 2.5 2 1.5 2.094.5 2 .5L29 1954l.5 1.5v1.594l1.5 2 1.094 2 1.5 1.5 2.093 1.5 7.22 2 3 2.5 2.093 2.5 1.5 3.594.5 3.5-.5 4-2.5 5.5-1 3.624-1.594 3-1.593 2.688-1.5 2.313-2 2.5-3.126 3.093-3.593 3-1.5 2-.5 3 .5 1.5 1 2 1.812 1.188 1.282.906.5 1v4l-.5 5.5-1 4.094v4.5l.5 1.5-.5 2.5-1 2.5-.5 1.5-.5 3.094.5 2.5.5 1 2 6-1.594.906-1.407.812-1.593.782-9.407.5-9.28.406H5.312l-1.625 3.5-1.094 2.5L.813 2074 0 2077.094v4l4.5 10.219 7 10.374 2.688 3.407 7.718 8.5 7.188-4.5h6.719l4.093-1.594 6.188.5 5.593 4.594 6.72 6.5 3.093 2 7.188 3 9.218 9.594 10.781 11 5.126 10.124 3.593 9.094 6.188 5.5 4.094 2.5 5.124 4.5 4.094 7.094 6.188 3.5 5.594-2 7.218-2.5 3.094-1.094-1.594 4.094 1.094 5 5.094 3.5v5.094l3.594 5 1 14.094 1.625 3 4.593 2 4.094 3.5 4.594 5.124 7.219 7.5 2.093 3H178l2.094-3.5 1-5 1.5-.5 1.594-1.124 9.218 1.5 6.688 2.624 2.5 6 .5 6 .094.532h665.218l2-4.25 2-4.094 3.094-1.5 6.094 4 3.594 2.094 5.218-.594.5-10 4.094-5.594 3.5-2.5 2.094-12.593 1-7.5 8.719-4.126 3.093-.5 9.688.5 5.719 3 1 2.5.5 6.626-.5 2.5v1.5l-5.625 6.593-5.688 3 2.594 3h2.594l-1 4-.594.5-2.5 2.594-2.094 2-3 2.5-2.594 1.5-4.593 2.5-3.625 1.5-.125.844h41.53l9.907-3.938 7.688-3 9.218-5.5 10.688-7.093 10.812-6.626 5.594-4.5-.5-1.5v-1l-.5-2.5-.5-2-1-3.593-1.094-4-2-2-3.093-.5-5.625-1-1.094-1 .5-2 1.094-2.5-1.094-3.5-2-1.594-5.188-1-2 .094h-1l-.593-2.094 1.093-3v-3l-4.718-3-9.688-3-8.687 1-8.22 2.5-5.093 4.594-.094-11.594-2.5-12.593 3-3.5 12.782-4.094 3.625-7 .5-17.125 3.593-6.094 6.688.5 2.5-5-1-7.094 2-2.5 4.594.5 1.125 4.094L983 2112l2.5.5v1l-1 4.094 2.594 7.5 3.594 5.594 2.625 4 5.093 4 4.094-3 7.188-4.594-4.688-9.5-3.594-5.094-1.5-6 2-4h5.188l1.5-4.093-5.094-9-5.687-.5-1.5-3.5 4.593-5.594 8.688 1 2.094 5.094 6.125 1.5 3.093-4.094-2.593-7-13.313-12.625-4.187-7 .5-9.094-8.719-9.5.5-11.594v-3.5l4.094-1.5-3.594-9.593-1-7-2.094-7.094 3.594-1.5 7.219 4.5 5.093 3.5.5 7.594 1.594 4.5 4.594-.5 6.094-.5 9.312 1 7.688 1.5-1.594-7.094 3.094-3 5.625 2.5.593 5 8.188 1.5 7.094-4 6.718 5.5 5.688 3.5-1.594 3.094-1 3 3.594 3.5 1 2.5-4.094 1-1.5 1.5.5 4.093-.5 3.5-1 4 1 1 1 1.5 5.688-4h6.125l5.687 1.5v-6.093l2.5-3.5 6.688-7-2.094-4.094-.5-4.5 1.5-3.5-5.594-5-6.687-2.5-4.125-2.625-2.094-4-2-2-4.094-1-1-4.5-.594-3-3.5-2.5-3.093-3.094-1.125-4.5.5-6.5 1.125-3.094h3l2.093 3.594 3.594 1 2-4.094 1-3 .594-2.5 4.594-2 4.125-.5.5-5.593 1-7 2-5.094 5.187-3 3-2 1.594-.5 2 2.5 2.594 4.5h2.625l.5-4.5-1.125-4.5 1-2.625 6.218-2 2.094 2 3 3.625 5.188-.625 3-1 2.125-2-1.625-3.5-2-3.5.5-3.094.5-1.5 3.625-3.5 1.5-3V1920l3.593 1.094 3.594-.594.5-1-2.094-4-1-8 1.5-2.593 2.094-1 1 1 3.594 1 6.219-2 2.5-2.5 3.593.5 2.594 1.5 2-.5 2.594-4 .5-1.094 1-5 4.594-3.5.5-3-.5-4.125 2.125-1.5 1.5-2.5 2.593-3 6.094-1 6.094-4.094 3.594-2 2.625-2-.5-2-3.625-1-3.094-.5-1-1 1.5-4.094 1.5-2.5 2.094-4 6.125-3 2.093-1.093v-6l1.5-4.5 2.594-.5 4.594 2 3.594-.5 1-4.094 1-1.5 2.625-1.5 1.5-2 .5-2-5.625-1.5h-5.094l-2.594-.5-2.594-1-1-2-1.5-2v-2l4.094-.125 3 .5h2.094l3.594-.5.5-3-2.094-2.5-1-2.5 1.5-6.594v-2.5l-.5-1.5-4.656-.75zm1166.219 0-2.188 6.75-6.094 4.5-3.593.5-2.626.5-1.5 2.094v2l1 3 .5 2 1.626 4-.5 4.124-1.5 5-2.126 4.5-2.5 3-2.593 3.094-3.094 5v5l-.5 3.094-3 2-3.094 5.5-2.093 5.594-2 3.5-4.126 3-3.093 2.5-2 2.094-2.094 3-1.5 5-2.594 3.5-3.5 4.624-2.093 4.5-1 5.094-.5 3.5-1 5-2.126 4.5-3 4.594-4.093 8-4.094 6.094-4.594 9.094-3.093 5-3.126 4-1 4.124-.5 3-1.5 3-3.593 1.5-3.594 2-2.5 2.594-2.594 5-1.5 3.5-1.593 4.5-2 4.094-4.626 4.5-2.593 1.5v2.5l-.5 3.594-2 8-2.594 4.094-3.094 2-4.593 1-1 1-.5 3.5v5.624l-.5 4.5-1.5 3.5-4.626 4.594v4l1 2 1.5 1 3.126-2 3.593-4.093 2.594-6 3-5 3.094-6.626 1.5-2 3.094-4.5 3.124-6.093 3.5-6 4.594-6.094 5.688-9.594 5.094-5 3.124-6 2.5-3.593 3.594-7.5 5.094-8.126 4.594-10.093 2.594-6.5 3-4.5 5.124-6.594 4.688-7 4-7.094.5-4 4.094-6.093 5.719-9.5 3-5.626 5.093-8.593 5.688-8.5 3.5-9.094 4.594-10.594 2.124-7.5 3-7.093 2.594-6 3.094-9.126 2-6.5 3.094-5.593 3.5-5.5 1.094-3.5 3.5-5.094.093-.156zM1221 1829.313l-2.094 1-.5 1.5-1 .5v2.5l.5 1.5 1 1 1.594 1.093 2-.593 1.594-2v-3.5l-.594-1.5zm-39.406 56.374-1.594 1-1 1.126-2 1-2.094 1.5-2.5 2-.5 3 .5 3 1 1.5 3.594.5 2.594-1.5.5-1.5.5-2 2-2 3.094-2v-3.126l-.5-1.5-1.594-1zm-17.906 24.72-1.594 1-1.5 2.093-1 .5-1 2 1 3 1 .5h1l2.094-.5 1-1.5 1-2 2.124-2.094.5-2-1-1zm-9.188 35.78-3.094.5-1.5 1.5v3h1l1.594 1 3.5.5 2.094-2v-2.5l-1.594-2zm-23.594 18.626-3 .5-1.593 1.093-.5 2-1 1 .5 2 2.093 2 4.094.5 1.5-2 1-4-1-2.093zm-17.312 32.28-2.594 1.5-.5 1-1 1-.5 2 1 2.5 1.5 1.5 3.094.5 1.5-3.5 1.094-2v-1l-.594-1.5-2-1zm-31.781 4.595-.5 1.5v5.5l.5 1.5 1.5 1.5 6.187 1 2-1.5.5-3-1.5-1-2.094-2-1-1.5-1.5-1-1.593-.5zm23.093 48.718-1.5.594-1.5 1.5-.593.5-.5 1.5 1.593 2h2.5l1.094-.5 1.5-1.5v-1.5l-.5-2.094zM1064 2081.688l-4.687 1-6.126.5-12.78-.876-4.094 2-1.126 2 2.126 3-1.5 1.5h-4.126l-3.093-2-1 1 .5 2-.5 3.094 1 3.5 2.094 4 2.5 4.5 1.624 4.594.5 6v7l-1 5.094-2.124 4-.5 1.5-3 2.5-4.094 1.594-3.594 2-2.594 4.5-2.5 4-1.093 3.124 1.593.5 3.594 1 2.5 1.5 1.594 2.5-2.094 1.5-2.5 1-4.594 1.5-3.093 2-1.625 1-5.094 9.594-4.094 3-3.594-.5-2-2.5-1.093-2-3-2-1.125-.5-3 1.5v1.5l-1.594 3.094v1l.594 4.5 1 3 1.5 2 4.718 3.5 3 1 1.594 3.094 1 4.5 2.094-1 2.5-2 3.094-1.594L1019 2187l7.188-6.094 10.718-6.5 8.688-5.093 5.719-5 7.093-9.126 5.688-9.593 2.5-6.5 1.5-4.5-1-6.094-2.594-2-.5-2.5v-6l2.594-1.594h3.094l3.5 1.5h5.718l4.094-2 3.094-3 .5-4.5v-4.093l1.5-6 .5-5.626-4.094-.374-1.5 3.5-4.187 1-1.5-.5-2-2.5-1.626-3-1-3.126-1.093-5-3-.5zm-90.187 54.5-1.625 1-2.5 1-2.094 2-3 2.624-1.594 1.5.5 2.5 1.594 1.5v4l-1 2.5-1.594 2.594-2.5 5-1 3 .5 3.5 2 2.094h3.594l3.593-2.594 2.125-1.5 4.594-1.5 4.594-2.5 1-3.5-.5-3.593-2.094-2-3.093-1.5v-2l1.093-5.5.5-5.626-2.093-3zm14.875 11.624-2.594.5-.5 3.5 1 4 .593 3 1 2.594 3.625 1 1.5-2.093v-2l.5-2.5v-3.5l-1.5-2.5-1.125-1z" style="fill:#9faec0" transform="translate(0 25)"/><path stroke="#9FAEC0" stroke-width="10" d="m203.188 2248.844 1 5.062 1.5 3 4.125 4 3.593 9.094v4l-1.5 4 1 3 1.594 2.594 13.813 8.5 4.687 6 4.594 2.5 3.594-3.5 2-4.5 1.5-3.5 3.125-2 11.78-.094h7.22l2 2-.5 6.594 4.093.5 5.188 1.5 3.594 2v5.5l-4.094 4.593-3.594 1.5 4.094 5.5 5.594 3.5 8.312 6.125 7.094 2.5 7.219 2.5 5.687 2.5 2.5 2 .594 8.594 1.5 5.5 2.594.5 3.5-2 2.625-2.5 4.093.5 6.688 3.5 7.219 11.5.5 7.094-2 4.5-2.625 4v4.094l3.125 1.5 3.093 3-.5 4-2.594 1-4.625 1-.5 3.593.5 2.5h4.625l7.688 4.5 5.094 7 4.719 6.625 3.593 3.5 2 1.5 8.188-2.5 5.719-2.5 2.5-4.625.5-6 1.5-5.593 1.093-4 4.094-1.5 5.594-.5 2.094-2.5 3.5-2 11.312 1.5 12.313 1 18.5-2.594 1-3 2.093-3.5 7.094-1 5.188 2 1.5 2.5-1 3.5 2.625 2.5 3.593 8.594-5.219 4-.5 4 4.125 3.593 6.688-1.093 11.813-.5 10.78 3 17.407-3.5 7.688.5 8.218 3 8.188 3.5 8.218 6 5.688 2.5 6.094 2.593 8.312-.094 4.094 3.594 3.594 6.5 2.5 5.5 5.218 5.125 2 3.5.5 5-.5 5.5 1.094 6.094 1.5 5.5 1.094 9.593-1.094 7-2.5 6.094-3.593 6-.5 2.5-1.5 5.094-3.625 8.5-6.188 8.625-2 4-2 6.594-1.594 8-2 7.5-3.093 9.093-4.625 4.5-5.094 5.594-4.594 6-5.094 5.594-1.593 5.5-1 5-1.5 7.625-2.625 8-4.094 10.094-1.5 4-4.094 7.093-1 2.5-1 3.5-.5 5.094v2.5l-1.094 3 1.094 4.5 1 2 .5 2.594-.5 4.5-1 5.5-1.5 4.625-5.687 3-.5 4.5 1.593 3.5 3.5 5.594-.5 1-2 4.5-1 2.5 2.5 1.5H515l4.406 1.406h7.75l5.844-.406 8.688-2.5 6.218-1.5 7.688-2.094 9.218-2 5.594-1 10.782-3.5 2-.5 3.625-1.625 4.593-3 4.094-4.5-1-4-4.594-1-3.093 1-2.625 1-3.5.5-1.094.5-3.594 1.5-6.094.5-3.593-2.5.5-2.5 3.093-3.5 9.688-.094h3.093l4.625-1 5.688-2 .5-.5v-5l-1.094-3-3-1.5-3.593-.5-2.625-1-.5-1.094-1.094-5 2.593-2 4.125 1.5 4.094 2.5 4.094-2 1.094-3.5-.594-2.5-1.5-3.094-2.094-2.5v-2.5l1.094-.5 2.5-1.5 1.594.5 3 3.5h4.093l4.125-1.5 6.188-3 3.594 1 1.5 2 2.093 2 .5.5-2 4-.593 2-1 2.594-2.5 2-4.688 2.5-3 .5-2.593-3h-4.125l-1 1-2.094 1.5-.5 4.5 1.593 3.594 1.5 4v4.5l-1.5 7.094 3.125 3 1.5-1 1-1.5 2.094-3.094 5.094-3.5 6.094-4 5.218-3.094 5.094-4.5 5.094-6 7.188-6.594 7.218-5.5 10.188-8.093 7.218-8.125 4.094-7.5v-3.5l-1.093-3.5-3-2.594-3.125-4.5v-2.5l-1.094-3-2-3-1.094-2-1-3.094 1.594-1.5 5.593-.5 3.625-2.5 1.5-6 2.094-7.594 2.5-6 2.094-4.093 4.594-4.5 2-1.5 2.093-2 1-2 .5-4.625-1-4-1.593-1-1-.5-1.5-6.5-2.094-10.594-1.594.5-6.093 5.5-6.72-10.5 1-6.094 1.095-5 6.625-1.5 5.093-1 5.688-1 3.593-1.5h2l2.625 3.5.5 3.5v1.5l.5 2.5 1.094 6.594-1.093 4.5-2 4.5-.5 4 2.093 6.094 1.5 2 2.594 3.5 1.5 3.5-1 2.5-2.594 2.625-4.093 2.5-6.625 2-2.094 5.5-1 3.093-2.594 4.5-.5 5.5-.5 3.594 2.094 10 3.593-2.5 1-1 1.5-1 2.625-3.5 4.594-5.594 4.094-3.5 5.594-5.093 4.593-7.5 3.625-6 4.094-9.125 5.094-9.594 4.094-7 4.093-6.594 5.72-6 4.593-6.594v-5l-2.094-6-1-.5-2.093-.5-8.72 2.5-4.093 2.5-4.094 1-1-1v-1l1-5.5 1.5-4.593h-3.593l-5.125.094-3.594-1.594-1.5-1 3.593-4 12.813-1.5 2-4v-4.125l1-4.5v-3.5l2.594-3 1-.5 4.093-1.094 1 1.594-.5 2.5-.5 3.5-1 3.5-1.5 4.5v5.625l1 2 1.625 1 2-.5 3.094-2 2-1.5 1.594-4.125 1-3 2-5 1-3 4.688-2.594 4.125-3 3.5-6 3.093-4.593 1.5-5L766 2438l2.094-6.094 2-3.5 3.593-4 4.125-6.594 3.594-5.5 5.594-6.125.5-5.5-1.5-1.5-4.094-1.5-3.593-1-1.625-2 2.125-1.5 3-.094 2.093-.5 2-3.5.594-2.5-.094-4 4.094-2 4.188.5 3.5.5 5.718-1.594 5.094-4 4.094-4 3.594-6.093 4.625-11.094 2.5-7.5 4.593-7.125 8.188-9 9.812-8.094 9.188-2.5 9.719-3.594 5.187-3 3.5-13.593-3.094-6-2.5-2.5-4.593.5-5.72 2-3.093 3-5.594 4.093-4.593 3-5.625 3.5-5.188-2-4.594-3.5-1.5.5-1.593.5-1.5 3-.5 2.094.5 1 1.5 2 1.093 2.5v3l-.5 3-2.593 3-3.625 2.594-2.5 1.5-5.188 3.5-3.5 4-1.594-.5-1-3 2-7.5 3.594-11.594 1.5-2.5-1-4.594-5.594-2-8.812-3-9.688 1.094-7.718-2.594 3.125-3.5 4.093-5.5-4.093-6.593-4.72-3.5 5.72-5.5 5.593 3 4.594 3 3.594 1 2.594-3.5 3.625-3.5 2.5.406 3.093 3.594 5.094 3 7.188-.5 7.718-4.594 15.407 1 7.187 4 7.188-.5 5.625-6 4.093-5.125-1.593-6.5-3.625-7 3.218-6.844H203.188zm700.375 0-.375 2.75-1 3v5l-1.594 4.594-1.5 3.5-3.094 3.5-2.5 2.5-2.094 5.124-.5 2 1.594 1h2l3.594.5 3.593-1.5 4.125-4.624 3.594-4 4.594-3 7.188-5.094 7.625-7L936 2252l8.688-3 .406-.156zm-15.25 10.25-3.625 2.594-1.5 2-2 2-2.594 3.5-1.5 3v4.624l1.5 2 1 1h2.593l2.625-3 2-4.124 2.094-4 1.5-7-1.593-2.094z" style="fill:#9faec0"/></svg>