<svg xmlns="http://www.w3.org/2000/svg" width="632.469" height="474.562"><path stroke="#9FAEC0" stroke-width="10" d="m394.808 0-.656.125-.907.469-.656.5-.094.062-.125.031-.375.188-.281.062-.281.094h-.688l-.844.125-1.03.781-.563.97-2.532-.095-.562-.03-2.063.124-1.625.625-.53.625-.032.594-.437.781-.813.594-.937.656-2.625 1.25-.5.469-.22.031-2.218.281-.687.625-.344.094-.813.25-1.156.625-.187.313-.532.906-1.78.75-1.845 1.062-.625.188-.562.406-1.219.188-.812.812-1.032.094-.343.312-.782.688-1.03.25-1.188.625-1.938 1.312.063 1.094-.063.094-2.094 2-1.03.094-1.595 1.687-.28.375-.188.281-1.22.313-.75.687-1.343.5-.812 1.313-1.625 1.437-1.125.969-.407.375-1.156 1-.156.125-.031.031-1.594 1.125-.187.125-.282.188-.03.03-.126.126-1.062 1.031-.25.25-4.531 4.5-1.407 1.406-.937.97-.656.655-.094.094-2.313 1.906-1 .813-.031.031-.094.063-2.719 2.562-2.437 2.594-.906.812-2.22 2.032-3.343 4.656-.281 1.156-.75 2.969-3.156 3.031-.907.906-3.312 2.813-.75.25-.563.625-.812.437-.813.657-1.656.656-.219-.063-.125-.281-.281-.062-.187-.032-.157-.03h-1.468l-.594.374-2.969 1.281-2.062 1.657-2.094 1.718-1.156.157-.5.343h-.688l-.094-.03-.25-.157-2.468 1.656-.062 1.469h228l.125-.781-.094-.625-.375-.782-.437-1.468-.157-.875-.03-.969.062-.656v-.875l-.094-.5-.188-.625-.593-1.313v-.781l.093-.844.25-.375.75-.687.344-.375.156-.25.188-.657.156-.812 1.156-2.719.188-.969v-.312l-.125-.562-.375-.938.094-.969v-.75l-.032-.25-.062-.312-.031-.125-.313-.844-.031-.687-.156-.844-.5-.719-.5-.5-.125-.187-.032-.188-.03-.062v-.032l.03-.343-.062-.594-.156-.188-.375-.125-.063-.093-.094-.188v-.094l-.03-.25-.063-.156v-.031l-.594-.75-.031-.125.031-.031.031-.219v-.125l-.344-.406-.562-.375-.406-.156-.063-.063h-.031l-.031-.031-.281-.5-.125-.094-.438-.437-.562-.813-.125-.687-.157-.344-.312-.438v-.124l.031-.032.281-.312.063-.156.062-.188-.062-.25-.281-.562-.032-.032v-.062l-.093-.375-.063-.313-.562-.53-.032-.095.032-.156.218-.406.063-.344v-.219l.031-.187v-.125l-.031-.094-.063-.28.032-.095.56-.406.095-.125-.375-.438.406-.781V38l-.063-.125v-.156l.375-.594.094-.031h.188l.093-.094-.031-.281-.219-.281.063-.75v-.094l.062-.063.313-.125v-.28l-.188-.25-.03-.126.374-.281.313-.719v-.093l-.22-.313-.124-.219v-.062l.062-2.594-.03-1.25-.032-.406v-.031l.156-.375.469-.594.281-.469.031-.062v-.032l.063-.187.344-1.063.156-.5.219-.343.687-.625.156-.313.032-.375V23.5l-.063-.75-.031-.312-.094-.25-1.156-1.25-.281-.406-.125-.125-.25-.188-.594-.344-.188-.156-.093-.062-.031-.063-.125-.156-.344-.594-.25-.094-.063-.062-.156-.75v-.406l.125-.844.313-.406.312-.157.219-.468.219-.875.28-1.375v-.125l.063-.22.157-.593.156-.437.156-.344.219-.281.344-.344.125-.094.53-.344.126-.218.031-.063v-.093l.062-.625-.093-2 .125-1.813-.031-.437-.032-.125-.062-.063-.406-.406-.125-.156-.313-.47-.219-.468-.062-.219-.031-.125-.063-.343.094-.313h.031l.25-.437.563-1.72h-.75l-.407.032h-.78l-1.688.031-1.813.063-2.125.03-1.219.063-5.312.188-.813.031-2.468.094-6.375.25h-.97l-1.874.062-7-.062-4.188.125-4.75.093-12.218.563-9.375.469h-.188l-4.812-.063h-10.25l-.594-.031-7.938-.437h-.468l-.782-.063-4.03-.094h-.032l-3.25-.062-1.813-.031-6.03-.063h-1.157l-.469-.219-.469.063-.437.094-.438.03-1.437-.374-1.656.562-.282.344-.406.438h-1.062l-1-.375-.25-.094-.688-.938-1.937-.062-.5-.469-.5-.219-.625-.25-.5.063zM287.933 78.656l-.125 2.844-2.188 1.938-.843.468-.375.219-3.094 1.156-.344-.062-1.25.031-1.687.031-2.094.469-3.188 6.5-.25.406v.031l-.218 1.032-.438 1.218-.25 1.188.469 1.344.062 1.75 4.469 1.218.312.22.281 1.25v.062l-.218 1.437-.031.875.094.531.156.47.719.187.468.218 1 .844.219.594-.156.875v.687l.375.282.469.218.468.032h.625l.625-.22.688-.53 1.594.562 1.812.656h.063l.812.657.375.28 1.844-.25h.062l.563.282.312.625.062.125v.969l.062.562.25.75.031.063.406 2.062-.094.969-.094.594-.468.531-.97.438-1.03.125-1.782 1.062-.968.875-.782.438h-.03l-1.313-.188-.656-.875-.563-.25-.719-.062-.5.25-.968.25-.594.5-.563.562-.53.469-.126.812.094.75.438.282.875.312 1.343 1.313 1.094 1.5.406.53.094.157.062.063v.062l.188.656.344 1.407.562 2.375.188.812.531 3.125.031.219.062.312.406 4.063.313 3.187v.094l-.031.281-.062 1.656-.062 1.72-.062 1.437-.344 2.656-.5 1.563-.656 1.593-.844 1.25-.594.406-.344.094-1.562.375-.844.375-2.125.875-.906.031h244.906v-.25l.031-.406-.093-.031v-.438l.062-.25.281-.218.125-.188.032-.281v-.281h-.063l-.156-.344-.188-.375-.093-.125-.188-.063-.031-.718.156-.219v-.156l-.343-.313-.47-.844-.187-.156-.25-.25-.437-.344-.813-.218-.093-.125-.032-.219-.28-.187-.688.062-.094-.031-.063-.125.063-.188v-.062l.187-.219v-.062l-.375-.22.282-.562.062-.125.031-.468v-.438l-.125-.281-.343-.5-.188-.094-.125-1.437-.031-.125-.125-.157-.188-.093-.125.062-.218.344-.188-.031-.375-.313-.5-.031-.312.187h-1.157l-.437.375-.875-.28-.031.062-.532.125-.125-.031-.125-.094v-.031h-.062l-.156.03h-.031v.032l-.032.156.188.313v.062l-.375.469-.125.219.312.687v.125l-.093.157-.344.375-.469.312.031 1.281.063.563-.063.187v.063l-.062.156-.625.563-.313.187v.031h-.187l-.188-.093-.406-.25-.906-.688-.281-.406-.5-.156-.157-.094-.125-.188-.062-.125-.031-.125.062-.25.438-.875.28-.437-.062-.375-.125-.469v-.125l.47-.875.03-.125-.062-.156-.75-1.156-.063-.25.157-.625.125-.188.125-.125.375-.25.25-.469.093-.593.5-1.188.031-.312.313-.938.031-.344-.125-.406.031-.187.22-.313.28-.156.188-.188.062-.03.125-.25.032-.032.125-.406.468-.844.25-.281.407-.375.562-.813.063-.344-.063-.718.031-.72.032-.124v-.063h.03l.063-.156.375-.625.75-1.312.313-.657v-.062l.03-.094-.343-.531-.062-.156-.157-.782-.406-.468-.437-.313-.657-.594-.093-.187-.063-.563-.093-.25-.125-.28-.188-.22-.562-.437-.188-.375v-.125l.188-.75.156-.344.531-.5.406-.219.219-.343.125-.282v-.093l-.125-.156-.562-.532-.063-.187-.031-.031v-.062l.031-.407.188-.563.406-1 .031-.156-.031-.031-.156-.469-.594-1.094-.969-1.28-.125-.282-.281-1.188-.281-.718-.282-.625-.062-.313.25-1.687-.094-1.938-.375-.875-.094-.437v-.313l.094-.344.438-2.656v-.5l-.156-.532-.219-.593-.312-.282-.438-.25-.25-.093-.344-.469h-.03l-.032-.031-.219-.125-.468-.406-.063-.25.438-1.938.156-.875.062-.812.719-1.407.313-.687.343-1.188.031-.062.032-.125-.032-.531-.156-.875-.156-.594v-.125l.312-.531.282-.157.406-.53.062-.157.22-1 .062-.719.281-.406v-.094l-.094-.187-.062-.282.031-.25.094-.187.437-.406.063-.188-.032-.031-.03-.469-.032-.312v-.188l.156-.125.032-.031h.093l.156-.031.094-.063.156-.406.344-.25.188-.031.25-.25.125-.25.687-.406.063-.22.28-.593.22-.344v-.375l.03-.062.313-.25.063-.469.625-.437-.094-.375.531-.157.22-.125.28-.343.094-.032.375.094.094-.031.281-.594.281-.875.25-.687.032-.094.03-.156zm-16.688 77.813-3.156.25-.562.219-1.157.906h7.625l-.687-.094-1.875-1.281z" style="fill:#9faec0"/><path stroke="#9FAEC0" stroke-width="10" d="m266.37 157.844-.437.344-2.781 1.75-.75 1.125-.438.687-1.562.656-.72-.219h-.03l-.469.282h-.03l-.439.5-.312.375-.312.125-.157.093-2.03 1-3.532 2.657-.813.437-1.093.594-.938 1.281-2.156 3.656-1.125 1.313-.062.094-.031.03-.063.063-1.031.813h-.313l-1.031.062h-.595l-.624.032h-.031l-.062.062-.219.188-1 1.03-1 .75-.156.126-.625.469v.03l-.125.032-.844.406-1.062.469-1.063.125-1.969.219-.75.093-1.062.75-1.781.563-.625-.094h-.125l-1.407.219-.125.062h-.03l-1.282.657-1.188.75-1.156.718v.032h-.125l-.406.062-.406-.094h-.031l-.875-.156-.438-.093-.625-.125-.906.312h-.719l-1.25.031h-.781l-1-.375-.531-.219-1.125-.437-.531-.094-1.063-.218-.562-.125-.188-.032-1.187-.25h-.031l-.594.094-.781.125h-.063l-.062.031-.063-.031h-.062l-.188-.031-.344-.094-.375-.062-2.156.593-.187.032h-.125l-.782-.063h-.218l-.72-.062-.968-.094-.5-.031-2.031.343-.781.157-.25.03-.938.157-1.031-.031h-1.063l-1.093-.031-.563-.219-.281-.094-2.125.031h-.031l-.25.032-2.407.28h-.03l-.813.095-.469.062-.781.313-1.094.437-.875.156-.906.22-1.188.405-.343.125-.125.063-.532.187-1 .375-1.937.438-.5.312-.25.157-1.219.75-.687.437-1.282-.125h-.094l-2.062-.781h-.031l-1.125-.813-.844-.625-.125-.093-.062-.032-1.406-1.03-.5-.345-.875-.375-.156-.062-.25-.125h-.031l-.75-.313-.094-.093-.407-.281-1.375-1.094-.562-.438-1.188-.969-.187-.125-1-1.625-1.313-.687-1.437-.5-.688-.25-.25-.406-1.125.125H159l-.844.062-.97-.062-.905-.219-.625-.156-4.72-.656-1.28-.407-1.063-.344h-1.437l-2.407-.687-1-.469-.406-.062h-.03l-.47-.063-1.468.406-2.282-.125-.75-.125-.218-.03-1.47-.22-1.655-.25h-.062l-.407-.062-1.03-.156-.782-.094-.094-.031h-2.344l-.656.031h-.281l-.72.063-.25.03-.5.032-2.218.219-1 .093-2.375.22-1.375-.188-1.094-.031-.843-.032-.313-.03-.875-.032-1.156-.031h-.344l-1.531-.063-1.063-.062-1.28-.032h-.157l-.594-.187-.25-.063-.063-.03-.468.03-1 .094-3.657.25-1.062.094-1.406.094-.625.03-.062-.03-.688-.344-.437-.031h-.062l-2.344.28-1.313.157h-.156l-.875.125-1.406.25-4.781.844-.782.156h-.03l-4.72 1.625-.25.094-1.718.281-2.313.406-.562.188-1.875.594-1.906.437-1.188.25-.312.094-.47.093-.624.125-.156-.062-.031-.031-1.344.594-.5.187-3.313 1.094-2.406.781-1.75.688-1.531.562-2.406.5-1.438.313h-.03l-4 1.156.624 1.031.094.156.438 1.344.03.188.22 1.53v.438l-.032.875.094.594.094.688-.03.468-.095.969-.03.469v.093l-.032.5.031.094.344.844.156.25.157.937.125.438.062.594-.157.562-.437.313-.188.343-.375.532-.28.218-.188.47.03.53.063.438.03.219.064.406-.282.969-.062.156-.03.125v.031l-.376.469-.406.562v.563l2.375.656.406.094 1.032.281.25.094 1.062.281.406.75.031 1.063-.53 1.906-.407.844-.313.687.031.969v.469l.031.625.657 1 2.28 1.343.657.375 1.063 1.157 2.343.218 1.094.938.375.687.125.219v.031l.281.5.282 1.031v1.063l-.031.687v.688l-.313.844-.219.562 1.657.188.312.75.125.343.313.75.812 1.47.219.03.312.063.5 1.156-.094.656-.125.313-.094.219-.187.343.156 1.438.188.687.03.125.126.5.25.032.406.906-.188.812-.718.875-.282.313-.187.25-1.438 1.25h448.5l-.906-4.563.375-.656.219-.594-.281-.656.156-1.469.062-.093.47.156v-.438l.093-2.343.125-3.907v-.406l.093-4.125.032-.219v-.125l.343-9.687.313-5.406.031-.938.031-.844.032-.218.312-8.72.188-4.062v-.25l.156-3.03.281-9.813v-.219l.031-.906v-.719l.031-.063.063-2.843.031-.688v-.156l.063-1.406.062-1.969.031-1.094.063-2.281.062-2.25.063-2.188H276.28l-1.813.063-.469-.063h-7.625zM70.058 237.031l-1.094.969-.25.219-1.062.906-.125.125-.844.219-.188.062-1.062.281-.625.47-1.406 1.03-1.72 1.282-1.218.093-1 .313-.969.531-1.437.781-.781 1.563-.282.625-.03.375-.063 1.5-.03.594-.75.5h-.47l-1 1.062-.28.344-1.313 1.375-.062.312-.125.47-.656 1.25-.22.218-.061.062-.062.063-.281.094-.125.468-.438 1.657-.03.125-.126.437-.187.25-.563.813-.062.062-.531.125-.406.094-.532.125-.28.062-.095.032h-.03l-.47.093-.625.157-.593.125-.782.343-.125.063-1.468.625h-.031l-.219.062-.875.25-.437.125-.031.031-.813.407-.906.468-.594.5-.906.782-.25.093-.594.25-1.219.532-.687.312-.344.406-.094.125-.406.344-.031.063-.22.187-.312.094-.03-.031h-.063l-.468-.125h-.157l-.625.062-.812.938-.094.062v.031h-.031l-1.469 1.344-1.344.969-.53.406-.5.688-1.188 1.656-.188.281-.906.844-.688.594-.375.375-1.687.718-.406.313-.25.187-.938.75-1.187.938-.125.094-1.344.968h-.031l-.437.344-.875.594-.125.094-1.344.812-2.5 1.469v.031l-.594.375-.969.656-.187.125-1.344.875-.469.344-.375.25-.094.062-.063.032h-.03l-1.188.687-.625.344-.282.156L4 286.5l-.469.282-.281.125-3.219 1.437-.031.25v2.563l.031 6.218v3.469L0 302.874l.031 1.282v10.5l.031 1.562h501.75l.156-4.781h-.781l-.5-2.094-.406-1.75.875-3.125.156-.5 1.563-5.594 2.625-9.437 2.312-8.219.156-.594 1.719-6.125.688-2.437 2.375-8.438.875-3.093 2.312-8.22L519 240.938l.75-2.594h-.938l-.25-1.312h-448.5z" style="fill:#9faec0"/><path stroke="#9FAEC0" stroke-width="10" d="M.058 316.219v.531h10.406l.469.031v-.031l5.937.063h1.844l4.469.03h4.844l2.5-.03h6.812l3.656-.032h1.219l4.469-.062h2.687l6.688.031 6.25.031h.719l2.375.031 3.125.063 2.469.031h3.781l6.219-.031 4.187-.063 3.906-.062 2.47-.031 1.687-.031h10.656l6.188.03h6.218l2.97.063h.186l1.126-.031 5.062-.062 5.344-.063h.218l3.813.063h1.531l1.907.03h.03l2.594.063h.063l3.281.031h10.719l5.813-.03 9.156-.063h.03l10.407-.063h3.875l5.094.031h6.094l9.312.032h6.875l.906-.032 1.594-.03 1.563-.032 2.625-.031 1.875-.031v.03l3.343-.062 1.844-.03h1.656l.094-.032h6.844l1.531.031h7.001l2.156.031 11.469.125h1.344l.468.031h1.375l.532.032h.562l2.438.03h.094l.53.032h.345l8.968.063h.5l5.438-.032h5.656l5.906-.03h20.844l2.969.03 5.687.063h2.469l9.719-.094h.937l3.625-.031h5.563l.53-.031h9.407l.469.25.562.187.344.219.094.063.281.625-.03.25-.376 1.062.031.125.219.219.312.062.5.219.563.688.187.093.157.688.406.437.219.125.5.063h.187l.031-.063-.03-.344v-.062l.093-.125.156-.062h.375l.188.218-.031.563.062.219.125.218.843.438.125.531.031.125.031.625v.469l.094.281.47.844.155.468v.532l-.406.5v.406l.125.625.28.125.376.094.187.156.25.687-.062.157v.062l-.187.125-.062.063-.062.062-.125.219v.25l.062.219.062.093.062.063.062.094.219.156.53.031.157-.094.094-.03.375-.376.188-.031.187.156.344.406.219.22.469.218h.156l.03-.031.282-.281.375-.688.031-.031.062-.063.344-.125.406-.062h.063l.5.093.25.157.062.062.156.156.031.032.094.25.125.125v.03l.125.095.157.03.094-.062.125-.187.156-.344.094-.406.03-.063.095-.125v-.03l.094-.095h.063l.062-.03h.03l.095.03.125.032.094.062.062.031.03.063.032.031.03.063.064.28-.063.813.219.563.156.25.219.187.375.157.312-.032.5-.25.219-.093.281-.032.75.75h.25l.719-.093.25.125.094.125.094.312v.438l-.125.625-.031.343.03.157.126.312 1.062.469.532.5.312.187h.281l.063-.03.438-.313.125-.031.03.03h.282l.031.032.094.062.031.032.031.062v.406l-.03.094-.126.5-.03.156-.064.063-.125.281-.03.031-.095.125-.25.094-.562-.094-.313.094h-.062v.031l-.094.125-.375.469-.156.219-.063.062-.062.156-.094.47-.094.812.031.156.062.156.188.188.03.03h.032l.156.032.25.063h.219l1.062-.313h.031l.219-.031h.03l.032.031.03.031.064.031.062.094.063.094.25.125.094.031.281.063.344.218.25.594.156.281.156.407v.062l.062.75-.156 1 .063.625.03.094v.125l.313 1.281-.03.187v.032l-.032.062-.03.031-.126.063-.687-.156-.438.03-.187.25v.22l.125.28.594.595.25.437.312.75.125.625v.281l-.125.157-.469.406-.063.219.094.28.094.095.25.062.313.594.094.656v.656l-.031.719v.187l.062.813.03.187.376.875-.062.594-.094.188-.156.03h-.094l-.157-.155-.125-.094h-.062l-.03-.031h-.063l-.125.031-.375.094-.094.093-.03.094.093.188.062.156v.155h-.03l-.095.063-.094.063h-.062l-.343-.063-.25.063h-.062l-.25.187v.22l.625.655.25.5.218.282.063.125.594.312.469.5.25.844.25.562.281.282.313.218.312.032.156.125.719 1.218.156.563.031.25-.125.156-.406.125-.156.188v.468l.03.125.095.094.531.094.125.093.438.313.437.437.219.375.03.125v.188l-.155.312-.062.375v.188l.03.125.282.062.469-.125h.5l.156.094.03.031.032.032.03.062.032.094v.031l.125.469.03.25-.03.218-.219.782-.03.343.061.22.031.093.031.094.062.093.031.063.063.031.031.031.938.25h.062l.875.125.156-.062.656-.407.188-.25.312-.03.75.124.438.407.218.125h.531l.062.03.313.126.03.03.189.25.062.063v.063l.063.375v.375l.094.375.218.125.75.187.219.125.156.157.094.312v.125l-.469.531-.125.438.031.219.188.093.406.094.969-.219.969-.406.468-.031.344.125.469.312.219.282.718.625.157.093.343.032.157-.032.187-.093.25-.532h.031l.062-.093.188-.157.062-.093.062-.063.094-.031.375-.219h.375l.156.094.344.406v.031l.063.125v.063l.03.375.032.125.094.187.218.5.031.094.125.125.282.094.468-.063.5-.28.407-.126h.187l.469.219.094.062h.125l.219.032h.092l.282-.188h.03l.282-.312.563-.282.219-.03.218.03.125.157.094.187.063.188v.312l-.312.969-.188.219-.063.375.063.28.188.407.218.313.188.125.25.156.781.093.375.22.219.28.062.25.187.563.125.344.438.406.469.344.187.156.313.312.125.375-.031.22-.094.155-.438.313.125-.031.094.062.125.063 1.469.906 2.594 1.563 2.718 1.593 3.625 2.188.094.062.125.094.282.156 1.562.969.875.531 2.063 1.281 1.812 1.094 1.25.719h75.875l-.437-.688-.532-.875-.093-.125-.782-1.187-.968-1.531-.063-.094-.156-.25.062-.687.032-.125.062-.47-.031-.218-.031-.656.062-1.094.063-.969.28-3.25.095-1.062.062-1.344.031-.094.094-1.656.281-2.937v-.188l.031-.562.094-1.063v-.469l.031-.156.094-1.969v-.093l.031-.125v-.188l.125-2.094.188-2.875.687-9.375.031-.343.094-2.25v-.344l.156-2.781.094-1.75.406-5.594.063-1.875.469-6.844v-.031l.25-3.594v-.03l.187-2.126v-.312l.094-1.125.156-3.125.281-3.782.282-4.375.03-.437H.052zm626.719 74.969-1.313.375-.75.156-.812.187-.563.125-.812.188-.875-.094-.157.094-1.093.719h-.22l-.75-.063-.374.313v.03l-.031.032-.188.344-.25.437-.437.813-.157.562h.282l2.406-.281h.062l.094-.063.344-.218.187-.094 1.25-.906 1.313-.625 1.312-.563.875-.437zm-202.75 4.218.312.188 1.406.937.813.531.531.344 3.188 2.094.156.094.187.125.344.218.688.407 1.937 1.156 1.625.969.031.03 1.532 1.032 4.718 2.719.688.406 3.187 1.719.97.531 1.593.906.25.157.094.03.656.376.031.031.188.125h.03l.376.219 1.031.594.125.093.031.031.531.282.125.062.563.344.469.281.656.375.094.063.343.187.875.5.157.094.937.562.906.5.188.125.25.157.812.468.594.344.063.031.593.344.094.063.875.5 1.063.656 1.812 1.062.844.47.594.343.53.312.095.063.53.312.47.282 1.53.906.657.375.375.281.156.094.188.031.719.031-.22 1.625-.187.719-.468 1.75-.22.687-.25 1.063-.124.625-.281 1.125-.157.562-.03.188-.032.031-.063.25-.03.156-.75 2.5-.313.688.718.312.157.063.062-.031.125-.125.063.156.125.25.156.031.344-.312.093-.094.063.094.125.125.125.156.031.062V435l-.031.032-.094.125v.03l-.094.344-.03.094h-.032l-.312.5v.031l-.032.063-.156.187-.031.032-.094.125v.03l-.156.188h.031l-.125.188V437l-.031.094-.156.28v.032l-.031.031-.25.407-.063.093-.125.344-.25.656-.031.25v.437l.031.032v.031l.031.031v.438l.031.03-.03.032v.094l.03.312v.531l-.03.031v.25l.062.344v.031l.093.094.157.281.03.031.032.094h.375l.031.031.282.313.375.219.062.062h.031l1.031.406.532.22h.25l.03.062.095.28.187.032.313.063h.03l.126.03.468-.03.063-.032.031-.125v-.03l.063-.188v-.032l.03-.03.22-.282.343-.406h.032v-.031h.03l.782-.25.031-.032h.031l.688-.125.719-.093.343-.063h.032l.218-.062h.032l.312-.125h.031l.532-.125h.03l.407.03h.031l.5.188.438.188.437.187h.031l.407-.03.093-.063-.812-1.375-.031-.063-.032-.031h-.03l-.094-.063-.313-.156-.062-.031-.032-.031-.062-.063-.188-.25-.218-.218-.094-.125-.031-.063-.25-.531-.032-.063v-.218l-.03-.22.03-.093.032-.281.03-.031.063-.375.063-.438.344-.187.125-.094.53.125.063.031.032-.093.156-.344.094-.094.187-.281h.125l.219.469-.094.343-.031.125v.032l.125.25.093.218.157.25.062.188.125.125.094-.094h.031l.094-.125v-.031l-.063-.344v-.531l-.156-.344-.062-.125-.25-.219v-.03l-.063-.438.031-.188.219-.937.063-1 .093-.25.031-.094.094-.187.063-.188.125-.187.093-.125.063-.094 1-1.438.344-.53.343-.47.125-.093h.032v-.032l.125-.062.312-.188.063-.062.093-.063h.031l.032-.03.062-.063h.063l.03-.031.095-.063.593-.406.344-.219.781-.719.688-.28.093-.063.75-.282.375-.187.938-.594.25-.375.156-.594v-.03l.156-.47.094-.375.438-.156.468-.219.188-.093.187.125.188-.25.312-1.157-.03-.218-.094-.375v-.032l-.188-.25.094-.593-.031-.094v-.125l-.032-.406.125-.375.188-.5.064-.405-.031-.063-.031-.062-.282-.407-.125-.156-.156-.25-.312-.469-.313-.531-.031-.031-.375-.594-.375-.594-.125-.25-.094-.125-.344-.562-.562-.906-.969-1.563-.656-1.094-.188-.312-.468-.625-.407-.75 2.532-1.563 1.062-.625 1.031-.625.75-.468 1.688-1 .594-.375 1.406-.844 3.969-2.313 2.312-1.406 1.719-1.062.125-.063.281-.156 2.125-1.281-.812-1.313-.5-.812-1.094-1.782zm193.968 0v.031l.282-.03zm-16.687 9.344-1.188.469-.625.25-.406-.094-.281-.219-.188-.156-.875.25-.093.063-.063.03-.781.5-.625.376-.531.344-.375.25-.125.093-.875.25v.031l-1.813.438-.031.031-.437.531-.75.907-1.313 1.562-.594.719-.156.187-1.5.782-.187.093-1.375.125-.813.063-.469.75-.75 1.25-1.125 1.312-.219.25-.843.375-1.282.532-.78.343-.376.157-.187.093-.031.031-2.282 1.875-.875.438-.343.625-.063.062-1.531 1.188h-.031l-.563.125-3.406.625-2.344.312h-.031l-1.969-.218-1.937.406-.063.031-3.281.969-.375.094-1.125 1.062-.406-.062-.625-.063-1.907-.219-1.218-.125h-.032l-.28.032-2.376.343-.312.063h-.157l-.25.031-1.03.156-.188.031-.344.063h-.219l-.937.031h-.875l-.375-.031-.5-.063-1.032-.125-.687-.062-.719-.094-1.562-.03h-1.688l-1.156.062-.844.062-1.125.063-.437.03-.157.126h-.03l-.094.093-.094-.03-1.031-.376-.72-.281-.405-.156-.22-.094-.124-.031-.406-.156h-.032l-.843.03-.22.032-1.218.063-.406.093h-.031l-.219.063-1.313.312-.156.031-.062.032h-.063l-.156.062h-.031l-.094.25-.031.188-.188.656-.062 1.156-.063 1-.187.594-.031.062-.125.063-5.875 2.25-.25.125-.188.062h-.03l-.126-.062-5.094-1.969-.468-.094-.813-.156-.906-.156-.344-.063-.375-.062-1.031.25-.125.187-.219-.062-.281-.063h-.063l-1.062-.53-.688-.626-1.468-1.875-.125.031h-.407l-.093.125-.157.844-.062.375.062 1.813-.25.5-1.562-.094-.281-.031-.032-.407-.03-.468-.563-.532-.657-.093-.562-.063-.188-.03-.468-.063-.282-.032-1.187-.5-.531-.437-.532.469-.375 1.937-.28.563-1.188.562-.344-.156-.531.156-.344.063-.125.03-1.375.313-.75-.375-.625-.343-.719.218-.719.282-.625.28-.28.126-.532.469-1.25.5-.281-.063-.469-.094-.531.125-.25.25-.344.344-.719 1-.344.5-.125 1.531-1.093.5-.094.032-.156.062-.188.094-.03.031-3.063-1.375-1.282.375-.062.094.125.406.187.5-.125.406-.687.906-.781 1.032-.125.156v.031l-.47.563-.03.062v.188l.03.25v.187l-.124.219-.188.344-.5.906-.343.625v.031l-.625.563-.407.03-.28-.437-.126.031h-.062l-.5.032h-.032l-.03-.032-.47-.187-.437-.156-.5-.188-.312-.031h-.032l-.5.094h-.03l-.313.156-.22.062h-.062l-.375.063-.718.094-.657.125h-.03l-.782.25-.312.375-.188.25-.031.03-.031.157-.032.188v.062l-.062.031-.188.094h-.062l-.437.031h-.032l-.187-.031-.313-.062h-.03l-.282-.063-.063-.031-.03-.063-.063-.218h-.094v-.032l-.563-.187h-.03l-.782-.313.156.407v.062l-.062.063-.219.187v.031h-.031l-.094.032-.062.03-.032.063-.03.031-.063.188v.062l-.031.032-.22.093-.03.032v.093l-.032.031-.312.282-.031.03-.094.032-.094.156-.03.032h-.063l-.188.03h-.062l-.032-.03-.093-.063-.063-.062v-.032l-.031-.03h-.031l-.063.03-.03.063v.031l-.032.156-.063.125v.031l.032.063.093.031.125.031-.062.125-.063.25-.03.063h-.22l-.03.062-.032.063h-.063l-.093.062h-.031l-.157.188v.031l-.03.156v.062l-.688.907-.22.344h.032l-.156.218-.094.25v.032h-.031l-.219.28v.188l.031.094v.094l-.125.312v.281h.032v.156l.03.157v.313l.032.124-.031.063v.062h.031v.124l-.031.032-.031.063-.063.062-.25.406h.031l-.218.438v.156l-.032.031h-.03v.031l-.032.532v.156l-.156-.031h-.062l-.032-.032-.031-.03-.094-.094-.062.062h-.032v.031l-.343.157h-.031v.03h-.032l-.062.032h-.031l-.032.031h-.124l-.125.031h-.344l-.063-.03h-.093l-.063.03h-.03l-.032.032-.031.03-.063-.03h-.062l-.063.062v.031l-.156.281v.032l-.031.03v.032l-.031.031v.031l-.032.063-.03.094v.03l-.032.063-.031.032-.031.093v.031l-.032.094v.063l-.03.03h-.032l-.031.032v.031l-.031.094-.032.062-.03.063v.031l-.032.063-.063.062v.031l-.093.063-.063.062v.032h-.031l-.094.062-.093.063-.875.718-.094.094-.063.031.063.594.031.656.031.344.032.344-.5.593-.407.47-.187.25-.063.155-.062.063v.031l-.188.375-.125.281-.062.094-.063.188-.03.187-.032.125-.094.313-.094.375v.093l.032.157v.093l.03.094v.094l.032.218.031.157.031.156.032.094.03.187.25.438.126.218.156.22.563.124.468.125.72.156.624.532.125.53-.469.72-.343.468-.032.032-.03.03-.032.063.031.157v.03l.031.094v.094l.157.094.093.062.563.25.844.032 2.562-.25.625-.063h.125l.313.344.125.125.437.25.281.156.22.5-.126.5v1.062l2.875-1.062 1.563-.563 1.093-.53.125-.063.063-.031.25-.125.187-.094.344-.156.375-.188.063-.031.28-.125.688-.344.094-.031.375-.156h.094l.562-.22.188-.062.125-.03.875-.313.187-.063.219-.031.063-.031.406-.094.312-.094h.063l.187-.062.969-.25h.031l.094-.031h.406l.188.03h1.156l-.094.438-.031.22h1.219l1.719.03 1.343.032.344.03h1.281l1.688.032h.125l.25.031h.687l.469-.094.25-.03.719-.126.031-.03 1.375-.22.687.032h.25l1.25.062h.032l.187.031.188.031.218.063h.125l.938.187 6.219-1.437 2.75-.656 2.125-.657 2.562-.812 3.219-1.344 2.594-.562.406.75.344.656.28.187 3.345-.093H520l.125-.031 1.719-.344 2.156-.531.281-.063.75-.25.97-.281 2.312-.719.5-.125.53-.187.72-.22 6.5-1.968 1.125-.437 1.187-.5.5-.22.594-.218 1.5-.75 1.406-.687 4.25-2.094 4.781-2.063 7.094-2.812.531-.219.75-.25.094-.031h.063l.062.031h.031l.188.063.625-.375 1.375-.5 2.625-.907 1.437-.531 2.531-.875 2.5-.875 1.97-.687 1.312-.47.562-.218.25-.094 2.281-.843.97-.375 3.405-1.25.313-.125.5-.188.156-.062 5.781-2.47 3.5-1.718 1.844-.906.031-.031 2.72-1.313.343-.187h.031l1.594-.782 2-1 1.312-.625.032-.03 2.406-1.188.156-.063.25-.125 2.719-1.344.344-.156 2-1 .5-.25.718-.344.938-.406 3.562-1.531 2.313-.969.187-.094.125-.062 4.97-2.406 1.655-.782.563-.28 2.562-.626 1.657-.875.687-.375h.031l.157-.25.656-.875.594-.812-.094-.313-.563-.344-.406.188-1.375-.063h-.219l-.093-.03-.375-.157-.22-.25-.093-.094-1.625.032-.656.125-.469.125-.281.03-.094.032-.469.187-.656.25-.562.22-.157.75v.03l.094.407-.062.593-.125.157-.375.53-1.032.345-1.53.5-.626.593-.625.594-1.687.813-.875-.188-.032-.031-.28.187-.094.032.03.5.157.656-.156.344-.282.125-.156.03h-.062l-.282-.468-1.187.031-.25.282-.063.312-.218.688v.03l-.031.032-.938.5h-.562l-.344-.156-.219-.125-.594-.594-.5-.75-1.03-1.594-.126-.156-.031-.031.187-.782-.156-.875-.406-.375-.625-.593-.25-.25-.031-.063h-.031l-.5-.219-.22.094-.312.219-.062.062-.594.438-.344.812h-.03v.032l-.282.28-.313.157-.03.031-.25.125-.845.032h-.062v-.032l-.344-.218-.906-.625-.938-.407-.937-.03-1.563.28-.375-.375-.656-.625-.75-1.687-.031-.031.062-.094.188-.344.281-.5-.281-.344-.031-.03h-.063l-1.25-.063h-.062l-.375-.188-.688-.375h-.031l-.469-.25h-.03l-.22-.312-1.187-1.594v-1.406l.625-1.156.062-.094.688-.531.187-.063.25-.062.438.062h.062l.125.188.375.406v.031l-.03 1.219v.844l.062-.032.718-.437.032-.031.5-.282.28-.187.157-.063 1.063-.656.03-.031.907-.906 1.281-2-.03-.032-.032-.312-.563-.156h-.03zm9.5 4.813-.125.75-.313.406-.687.344-.188.343.094.344.219.219 1.469-.094 1.156.469.25.25.469 1.094v2.218l.125.094.687-.469.063-.375.093-.812.094-.656.219-1.875-.219-.782V411l-1.281-.531-.219-.094-1.062-.437zm-131.531 23.812-.125.094-.032.312-.187.031-.031.22.375.312.312-.094.031-.094-.062-.25v-.375l-.094-.062zm-12.97.844-.312.656-.812 1.719-.281.687-.032.031-.125.344v.031l-.75 2.188v.031l-.406.625v.031l-1.094 1.97-1.312 2.437-.156.312h-.031l-.688 1.25v.031l-.344.688-.344 1.781-.125.594-.125.687-.03.188v.062l-.157 1-.094.532.344.218.031.031.031.032.063.218.031.063.125.25V453l-.125.656-.031.062-.031.031-.219.188h-.031v.062l-.188.5.032.375v.063l.03.031V455l.063.063.094.125.875-.688.094-.062v-.031h.03l.063-.032.032-.03.062-.063.063-.031.03-.032v-.062l.032-.031.031-.063V454l.031-.063.032-.093.03-.032h.032v-.03l.031-.095v-.03l.031-.126h.032l.03-.062v-.063l.032-.062v-.031l.062-.094.032-.063v-.062h.03l.157-.344.094-.094v-.03h.031l.063-.063.062-.031.031.03h.125v-.03l.125-.032h.094l.125.032h.281l.125-.032h.156v-.03h.031v-.032h.032l.343-.188h.032l.156-.125.093-.062.094.094v-.312l.031-.032v-.031h.032v-.156l.218-.469v-.031l.25-.406.032-.032.03-.062h.032v-.063h-.031v-.03l.03-.094-.03-.125v-.282l-.031-.125v-.187l-.032-.062v-.094l-.093.062.093-.25v-.062l.032-.031.093-.25v-.031l-.031-.063v-.312l.031-.063.219-.25.031-.031.094-.219v-.031l.156-.219.188-.344.656-.875v-.03l.031-.157v-.031l.031-.031.25-.313h.031l.032-.031h.03l.032-.094.031-.062.094-.031h.156v-.032h-.031l-.094-.03v-.095l-.03-.187v-.062l.062-.157.062-.156v-.031l.094-.156.031-.063h.063l.093-.031h.094l.187.094.063.03v.094h.031l.063-.03.125-.126.03-.062h.095l.062-.031.25-.25v-.125h.031l.219-.125.062-.22.032-.03.125-.125v-.031h.03l.126-.063h.031l.125-.125-.219-.562v-.032h-.03l-.407-.218v-.032l-.281-.28h-.407l-.03-.063-.095-.188h.032l-.188-.25-.094-.156-.03-.031v-.032l-.063-.375v-.343h.031v-.5l-.031-.281v-.25l-.031-.063v-.03l.03-.032v-.156l-.03-.031v-.062l-.032-.063v-.5l.032-.25v-.031l.25-.688.125-.344.03-.03.063-.126.25-.375.031-.031v-.031l.125-.25.063-.094v-.031l.094-.219h.03l.126-.219.094-.125.062-.062.125-.188.063-.062.28-.469.032-.031v-.063l.094-.343h.03v-.063l.032-.031.063-.094v-.25l-.094-.093-.031-.032-.313.282-.062.062-.063-.031-.281-.063-.125-.062.031-.094v-.03l-.031-.032-.031.031-.063-.031-.25-.063v-.03h-.03l-.595-.25zm12.97 2.125-.22.062-.03.5.062.719.281.344.282-.031.062-.97-.093-.312zm-21.563 16.75v.031l-.062.031-.157.313-.312.625-.031.062.062.156.063.032.093.03.094-.124.25-.594.188-.375v-.031l-.125-.125-.032-.031zm-3.687 5.469-.125.03-1.094.282-.25.031v.031l-.156.032h-.063l-.25.062-.094.031h-.03l-.126.031-.531.125-.844.125-.687.094h-.031l-.282.031-.75.125-.718-.187-.094-.031-.594-.157-.031-.062-.25-.219-.469-.062-.5.25h-.031l-.219.125-.156.187-.375.469-.344.469-.125 1.25.094.25.375.093.062 1.5-.125.5-.562.813-.188 1.062-.156.844-.219 1.094-.25.312-.125.157-.125.125h-.968l-.438.343-.25.22-.406.343-.406.312.03.094.438 1.188-.03.656-.032.375v.062l-.625.594-.125.094v.031l-.031.031-.063.125-.187.5.093.563.375.593.282.063.406-.219.156-.062.094-.032.156-.093.25-.125.438-.063.406-.062h.062l.157-.031.062-.032.688-.687h.03l.782-.219.063-.031.187-.125.25-.188.844-.53.094-.063.312.093.781-.406.594-.344.094-.062.187-.156.063-.032.156-.155.406-.344.063-.063.343-.062.157.062.187.094.25.375.75-.813.5-.5.469-.343.25-.188.094.063 1.156-1.438.187-.219.313-.375.031-.03.313-.313 1.468-1.5.719-1 .469-1.063-.281-.437-.094-.125-.188-.313-.218-.468-.032-.032-.343-.75-.094-1.093-.063-.72-.093-.155-.063-.063-.187-.281-.094-.156-.031-.032-.031-.03h-.032l-.78-.063z" style="fill:#9faec0"/></svg>