<svg xmlns="http://www.w3.org/2000/svg" width="527.688" height="973.5"><path stroke="#9FAEC0" stroke-width="10" d="m392.125 0-3.562 1.281-1.97 2.688-.78 1.812-.72 1.969 1.376.75L386 9.969l-.875 1.187-1.594.563.063 1.312-.875 1.313-.063 1.719-1.062 1.375-1.063 1.843-1.625 3.532-3.719 1.625-.312-1.282-3.437-2.625L370 21.594l-1.562.406-2.47 1.969-1.187-1.344-.093-1.125-1.97-1.031-.906-1.407-1.28-.03-2.344 1.437-2.688-1.157-2.437 1.438-.125-1.406-1-2.563-1.125-1.093-1.594-2.094-1.063.281-2.656-1.594-.937-1.875-.375-3.5-.125-2.468-1.97-1.22-2.78-.312-.72-1.344-1.562.782-1.375-.063-1.219.969-2.125 3.5-1.406.063-1.75 1.78-2.875.876-1.25 2.562-3 .344-1.531 1.281-1.937-.406-.688 1.25 1 1.406.719 2.063-.125 1.437-1.531 1.907-3.625 1.218-2.188 4.344-1.219-.625-1.312-2.312-1.813-.5-1.937 1-1.063 1.28-1.25.313-.844 1.063-2.406-.563-.969-1.281-1.125-.437-1.625.406.032 1.093 1.343.907 3.125 2.718 2.5 1.438.438 1.188 3.25 1.03 1.125 2.5.406 2-1.281 1.126-.906 1.093-.25 1.594-.125 1.282-.844 1.187-1.125.656v2.188l-.938 2.656-1.843 2.219v3.187l-.438 1.657-1.875 1.78-.625 3.22 2 1.593.406 2.657-.687 2.093-2.563 2-.53 1.406-2 .782.124 1.187-.5 1.5-2.281 1.969.031 1.344-1.562.656-1.344 3.563-2.719.156-.344 1.031-1.5.563-.218 1.468-.5 1.625-1.188-.312-1.094.406v1.219l.375 1.719-1.406 1.656 1.125 1.031-.781 1.438-1.375.374.687 1 1.438 1.25 1.75.594-.625 1.438.25 1.219-1.281 1.874-.844 1.594.062 1.219-.03 1.344.155 1.187-.406 1.219 8.906.75-2.875 1.438-.562 1.906-2.063.625-1.562-.906-1.156-.282-1.625-1.656-1.125.188-1.313 1.25-1.656.75-1.188.156-1.593 1-1.719 2.5 1.062.656-1.5 1.375-.75 1.031 1.188.063v1.281l1.187.469.22 1.375 1.187 1.062 1.031 1.813-.063 1.531 1.938-.125.344 2.188-.219 2.187-.25 1.625.531 1.75-.5 1.625-1.344.313 1.5 1.375.75 2.093.22 1.125 2.155 2.625.97 1.688.187 1.312 1.062.844-.156 1.969-1.031-.406-.75 1.187-1.094.75-.219 1.125-1.5.813.844 1.437-1.188 1.281-1.03.875-.938 1.875h126.375l-2.969-46.781-4.75-90.312zm-25.469 48.281 1.375 2.032 1.031 2.406 1.032-.688 1.906-.343 1.031 1.874v1.876l-1.75 1.718-1.031 3.407-.375 2.218L367.656 66l-.875-4.437-.844-1.688 1.907-2.219-1.375-2.062-1.188-5.125 1.031-.844zm-11.75 21.594 1.875.031H358l-.531 1 .844 1.875-.157 2.063-2.062 1.531-1.063 2.219-.344 2.718-1.718 3.22-2.438 3.75-1.031-.157-1.187-.031-1.72.687-1.718-.5-.5-2.562.844-3.594-1.375-2.219-.844-1.344-1.719.5-1.031 1.532-1.906.844.344-1.032.53-1 .532-1.031-.187-1.375 1.718-1.531 1.375.187 1.219.344.344-1.187h2.062l1.219-.844 1.375-.531 1.719.687 2.75-.5 1.375-1.531zm-20.375 22.281 1.375 2.063-.344 3.25 1.375 2.219 2.22 1.53.53 1.344-1.375.532-1.906-.688-3.25-1.031-3.094-.187-3.437-.688h-2.25l-2.75.5-1.531-2.031-1.875-1.219-2.594.688-1.719 1.53-1.875-2.374 1.031-1.531.688-1.376 2.906.344 3.438.188 3.969-1.375 1.53.687 2.063 1.719 2.594.844 2.063-.844.843-2.719z" style="fill:#9faec0" transform="translate(0 125)"/><path stroke="#9FAEC0" stroke-width="10" d="m275.469 158.906-1.563.719-.093 1.594-1.094 1.219-3.469 1.593-1.031 2.313.625 1.625-1.719 1.5-.5 1.031 1.125 2.188.125 2.156-1.656 1.156-2.125 3.656-2.094 1.219-1 2.094 1.063 1.469 1.187 1.593-1.156 2.906.437 1.844-1.25 1.875-.906 1.625-1.031-.093-2.5.937-.844 1.25.156 1.438-1.469.937-1.5 2.281-1.375.563-.406 2.375-1 1-3.656 1.094-.25 1.75 1.156.625.5 1.343-.344 1.063.407 1.406.344 3.531 1.718-.531-.406 2.438 1.625 2.062 1.063 1.031.937 2.063 1.719 1.937-.594 1.563 1.844.969-1.063 1.562.344 1.844.688 1.437-.688 2 3.75 2.438-1.437.625.78 2.187-.624 1.625 1.219 1.407 2.218.625-.719 1.312 2.157.156 1.656-.75.219 1.907.594 2.968-1.063.75 2.656 2.563 1.813.687-1.375.469-1.25-.031 2.375.75v1.281l-1.875-1.062-.344 2.875.781 4.093-.719 1.063-1.5.937 1.25.375 1.688-.5-.812 1.032-.375 1.78 2.687-.655-.062 1.593 2.03-.531-.593 1.469 1.375.093-1 2.407-2.875 1.625-1.375-1.313.125 1.063 1.563 1.875-.75 1.594-1.875-.375-.657 2.375-2.187.406-2.063-.875-4.437.25-1 1.781-.188 1.906 2.938 2.656 2.656 1.657 1.313 1.625-.532 2.094-1.969 3.218-1.375.781-2.03.282.468 1.156 1.594 1.281.969 2.406 1.468 1.344v1.063l-1.844-.063-1.218-1.656.531 1.031-.844 2.125-1.219-.969-.187 2.657-1.094 2.719-2.844.843-2.187-.625-2.062 4.156-1.563.313-1.031-.687.625-1.25 1.344-.532.187-1.312-1.531-.031-.5 1.25-3.25 2.718v1.219l2.125 2.063-1.406 1.562-2.657.531-.562 1.344-.375 3.594-.344.844h170.281l-1.937-42.688-1.125-36.531-.875-17.906-7.438.187-1.219-.656-1.406-1.563.406-1.062-.312-1.438-3.594-3.156-2.937-5.125 1.25-.969 1.812 1.219 1.375-.125 1.563-3.031 1.219.812 1.53.157.157-1.375-1.844-5.094 1.5-1.406.281-1.72-.562-2.624-.094-5.75 4.625-2.219-.687-2.719-.344-1.062 1.719-1.531 1 .125-1.625-25.657zM403.688 192.5l-.657 1.125.656 1.531.344.188-.125-2.844zm-.375 12.25-1.094.281.125 1.969 2.406 2.875-.219-4.312zm1.468 6.031-.093.844-1.5 1.406-1.5-.562-1.47 1.156-2.718.5.063 1.75 1.53 4.188 2.688 1.906 3.469-.25.063.031z" style="fill:#9faec0" transform="translate(0 100)"/><path stroke="#9FAEC0" stroke-width="10" d="m239.125 321.813-.5 1.25-1.219 1.218-3.656.875.594 2.813-1.531-.188-.407 1.375-2.625 1.594-2.25 2.188-3.125 1.468-3.031-.531-3.344 1.063-1.469 2.656-1.53-.344-1.75-1.656-1.563-.25-1.563.594-2.875 2.125-3.219-.188-1.03.531-2.376 3.156v2.625L199.22 344l-1.5.719-.344 2.406.938 1.313-1.032 1.437 1.031 4.031-.562 1.031-5.031 1.657-2.469 2-2.687 1.469-2.5.28-2.47 1.282-1.218-.25-2.469-1.656-5.812-2.438-2.813.656-2.031 1.688-1.062 1.656-1.688.688-2.594-.75-4.781.437-5.719.125-.969 2.406-4.375 2.313-3.75 1.25-3.75-.062.407 1.937-.375 4.875-1.438 2.031-1.656.594-.531 1.156-1.969.688-1.562 1.719-1.22 2.218-1.124 3.406.937 1.063 1.75-.906-.062 1.125-.781 1.344.375 1.03.156 1.626 1.25 3.156 1.312 1.438.594 1.937-1.625 5.313.344 2.437-1.563 2.344v1.375l.063 1.5-.5 1.406-1.156.969-.5 2.906 2.125 3.438 2.437 5.843.438 1.281 1.406.032.312 2.656-.531 1.312.281 1.407v3.843l2.313 1.97-.688 1-.344 1.468-1.125-.156-2.03 1.187-1.126.688-.031 2.187-.562 1.469.843 3.875 1.188 1.437 1.031-.218 1.094-2.563 2.5 1.375-.125 2.531-1.375 1.844-2.156.469 1.53 1.156 1.595.625.156 1.75-1.75.344-1.25-.969-2.469 1.031 1.063 1.563.218 1.094-1.625 2.343-.718 1.907-3.032.406-.125 1.031 1.313.563.562 1.25-2.093.75-2.313 1.625-.281 1.031.844 3.719-1.313.718-.187 2.438-1.125.406-1.97-1.5-.655 1.125-.157 1.281.282 1.22.437 2.124-.469-2.031-1.968.031-.907 1 .25 1.969h294.938l-4.188-124.656-1.75-38.282z" style="fill:#9faec0" transform="translate(0 75)"/><path stroke="#9FAEC0" stroke-width="10" d="m120.406 484.75.188 1.656-1.281.688-2.094 1.969.093 1.343 1.22 2.188.25 7.031 1.812-.969 1.343.313 2.22 1.094-2.72 1.875.563 1.25-1.813 2.843-1.375.813-2.03.562-.126 1.75.531 2.938-.312 3.781-.719 1.656-3.125 2.188-.875 1.437-4.094 2.875-1.562 2.438-1.688 3.25-2.218.718-.219 2.032 1.531 3.656-1.844 1.156-2.53.594-1.063 3.5 1.343 3.906.188 4.125-1.813 4.438 1.563 4.281-.313 1.938-1.75 1.875-1.28 3.437-2.657 3.188v2.156l-.063 2.093-1.375 1.125-2.28 1.063-1.438 2.906-1.813 3.375-1.844 1.25 1.594-1.281-1.125.094-.844 1.03-1.625.876-4.906 3.25-2.031.156-.969 2.281-1.812 1.47-2.782 4.78-2 1.72-.062 1.03-1.531.032 1.125 1.187L67.03 601l-.219 4.469.938 1.53.062 1.876-.656 1-.312 1.312-.063 1.125L64.937 615l-.5 3.187-.03 3.094-3.688 2.094-.094 1v1.781l-.781 1.125-.625 2.781v1.157l.531 1.562 1.188 1.313.093 1.937-5.843 5.188-1.75.5-3.876 2.218-2.25 2.375-.28 1.344H218l.031-.094.281.094h52.907l-.407-.375-.875-1.437-.562-5.188.656-5.469.406 3.75 1.5 3.938L275 646.28l.875 1.375H289l-.563-3.5-1.687-3.281.187-2.406 1.375-1.407 2.22-1.28.468-1.626-1.531-3.625-5.313-8.406-1.437-3.281-2.625-3.438 3.937-.625 1.906 2.063 1 5.125 1.47 1.406 1.53.281.72 1.875 1.437.188.062-2.563 1.219-1.562 1.344.218.312 2.532-.875 1.25.281 1.187 3.188-.125v-1.437l-1.5-2.438.25-2.562 1.719.78.5 3.157.968 1.531 1.344.47 1.625-2.282-1.156-1.75-.938-3.844-1.656-1.656-2.312-4.969-1.688-.281-2.25-4.125-.844-2.125-.406-1.094 1.125-1.906.063-2.313-2.375-3 1.062-1.312 1.188.031 1.75 2.688.187-2.313.375-1.219 1.125.907.719 1.78-.219 3.438 3.406 1.75.938-2.156-1.906-2.156 1.656-.312.594-2.22 3.812 5.345-1.5.812 1.625 2.875 1.094 1.219.375 3.5.687 1 4.063.5-1.531-3.719 3.406-1.312 1.094 3.125 1.281 1.062 3.219 1.031.468 1-1.28 2.438.5 2.375-1.438 1.875 3.812 5.593 1.625.282.125-4 3.219-2.594-2.594-2.125-2.437-3.437 7.25.968 1.906-.906-1.844-2.937-2.5-1.813-1.562-1.906-2.938 3.25-2.281-.125.781-2.5-1.156-2.188-1.063-2 1.22-1.5-2-1.75 1.75-1.156-.313-1.531-4.75-2.844-3.75-3.812-1.407.375-1.843.312-.532 2.313-1.187-.813-1.063 1.219-.843-3.594 2-.437.781-1.22 2.594.438.625-1.875.656-.375 1.375 2.594 1.75-.219.656 2.032 2.969 1.093.812 1.782 3.72 3.218 1.218 3.907 2.531.593 4.094 2.188h3.625l1.125.687 1.031 1.375-1.375 2.438-.125 1.531.719 1.281 2.812 1.032.438 1.093-1.375 1.407 3.594 2.78-.282 1.907-2.75 1.094-2.187-.188-.938 1.813 1.157 2.468.75 6.313-.5 2.813 2.218 4.406 4.375.468 1.407-4.156-2.688-4.156 1-.031 3.406 2.5.375 1.187-1.187 3.125 5.125 5.75-2.094.313-5.875-2.656v2.406l1.625 1.656 2.094.281 1.125.907 1.937.562.97 1.156 1.343-2.687 3.687 2.969.594-3.25 2.156-.75 2.125.593-1.156 3.657 4.281.218h61.125l-.125-.03-3.062-65.563-1.281-17.375-1-46.188-1.125-33.75zm156.969 79.969 1.188.531-.97 1.25.813 1.75 1.25-.125.406 2.219 1.438-.219 1.156-.125.375-2.219 2.313-.937 1.281.656-1.812 3.313-.188 2.656-1.812 1.156-1.125-1.156-1.094.281.406 1.875-2.625 2.375.531 1.188 1.719 1.406 1.969 3.093-1.656 1.094-2.313-3.531-1.781-.969-.375 1.375.812 1.782-.219 1.812 2.063.781.969 1.407-1.281.218L276 586.47l-1.906-2.594-.719 1.313 2.469 3.625 2.281 1.562-.406 1.5.906 4.094-1.562-.25-.688-2.813-4.125-.937 2.156-1.907-.406-2.25-2.937-1.093 1.187 2.937-.719 1.219-1.5-1.469-1 .188-1.469-2-1.312-.719-3.594.281-2.156-.687-3.531-1.094.125-1.469 2.031.282 1.781-1.438 1.781.375 2.625-1.969 1.47.657 1.093-.313-.125-1.281-3.281-4.594-.094-1 2.281.344.688-1.907-1.563-1.218 1.25-1.25 2.25 2.156 1.063-1.25 1-.281 1.812 1.656.782-1.75 1.343-1.812.594 2.937 1.531-.562 1.313.468.656-1.156-2.562-2.25-2.563-1.219-.875-1.25.813-1.312 1.812 1.656zM205.75 599.5l1.094 4.844L210 607.53l3.469 3.5 1.25 2.282-.969 1.218-3.406-1-.188 1.625 1.875 3.188 3.75 4.062-.719 1.657 1.282.718.5 2.375-.438 1.063-1.656-2.313-3.437-.687-2.282-3.438-2.531.344-.406-2.781-1.156.718-1.125-.562-1.72-5.844.907-3.875-.031-2.031v-1.125l-1-2.125-2.969-2.875 2.156-.375 2.875-.156.969-1.407zm97.125 14.188-1.562.312.062 1.344 2.813 4.625-1.407.812 1.469 1.407-.281 1.718 2.781.782 1-.563 1.563 2.031.812-1.156-1.187-3.281-2.97-3.688v-1.718l-3.062-2.625zm22.75 6.312-.219 1.063 1.281 1.562.313 1.469 1.344.625-.625 1.406v1.531l.625 1.157 1.031.406 1.156-1.125-.375-1 1.75-.094-1.406-2.5-.719-2.031-1.437.281-.969-2.094zm-18.656 5.781-.375 4.625v2.5l1.625-1-.969-1.937 2.25-.844-.125-.937zm-10.313 3.657-.281 2.218 1.406 1.844 2.656 1.625 2.625.438-.062-1.782-1.937-2.781zM295 633.156l-1.156.313-2.219 2.187-1.969 4 2.125 3.688.938 3.5-.063.812h30.625l-.062-.125-2.156-1.562-1.782-.719-2.5.156-2.25-1.531-3.125-3.344-1.25-.125-.906 1.219-1.437-.969-1.97 1.844-2.093.313-.937-1.157-.5-2.906-2.813-.937-1.531-.97-1.938-3.124zm22.188 1.063-2 .218-.782 1.47 1.031 1.593 1.188-.187 1.281-1.938zm-93.75 10.125-2 2.156.687-1.969zm107.968 2.093.938 1.22h3.312z" style="fill:#9faec0" transform="translate(0 50)"/><path stroke="#9FAEC0" stroke-width="10" d="m47.031 647.656-.593 3 .406 2.813-.094 3.468.313 1.782-.782 2.125-1.53 2.593-1.376.313-1.156 5.219.406 1.75 3.281 3.156 1.032 2.563.156 1.28-.375 3.688-.469 1.782-2.406 2.968.5 6.032-.906 2.437-.438 2.313-.062 2.812-1.094 5.875-1 8.688-2.5 2.875-.75 2.468.219 4.375.468 1.188 2.5 1.75 3.157.062.312 1.094-2.656 3.438-2.5 5.25.437 1.5 1.625 2.718 1.313 1.25.594 1.5-1.907 4.094-1.406 7.156-2.25 4.844-1.406 2.406-3.813 2.032-.75 2-.125 2.78 1.282 5.095-1.22 2.875-.593 2.437.656 3.344-.062 2.531-3.063 3.438.407 1.625 1.25 1.937-.125 1.719-1.094.812-1.156 1.532.375 2.406-.125 4.625-1.407 1.906 1.375 3.469 1.344.718 1.875.5.031.532H459.97l-.125-1.625-1-3.157 1.25-4.125.219-4.125 1.28-2.093-1.28-4.532.28-1.03 2.094-1.313-.375-2.532 1.125-4.406-.093-1.125.875-2.031 1.062-2.031-.812-1.25-1.219-.094.438-1.562-.594-1.75-2.531-1.844-3.125-.375-.594-1.782-.281-1.968L454 764.78l-1.656.188-.438-1.313-.875-2.062-1.844-.375-1-2.063-2.406-.5.063-2.156-1.063-1.437-2.625-.907-.656-1.125.656-1.531h-1.844l-1.093-.469.937-1.218 1.938-.625-1.375-1.094-.281-1.688-1.22.469-1.124-1.937-.188-2.344.094-1.344-1.188-.187-.5-1.063-1.062-.187-.406-1.344-1.844-.875-.031-2.594-2.563.438-1.75.218-1.187.031h-1.344l-1.031-2.375-1.813-1 .094-1.78-1.656-.376.312-1.781-1.406-1.781.812-1.438-.593-1.625-1.094-1.219-1.406-3.53.187-2.532-.656-1.031v-1.313l1.281-.656.063-1.438-1.094-1.812-.063-4 1.344-2.563 1.531-.468 1.344-1.22.719-1.374-.125-2.094 2.031-1.281-.125-1.75-1.125-1.688-.281-1.093 1.687-5.844-.156-1.125-.875-1.531-2.25-.657.219-1.28 1.281-1.563-.594-1.188L423 678l1-1.563V675l1.25-1.156.5-1.688.875-1.594-.563-1.343.75-2.25-.75-2.032-.28-2.53-1.345-1.345-.28-1.687 1.468-.594 1.219.094.812-3.938-1.125-1.218-.594-2.657-1.5-.843-1.062-2.157-1.438-.406h-61.125l1.282.813.312 1.78-2.375-.25-1.625 4.813-1.594.657-4.187.375-.969 3.875 2.375 1.468-3.094.157-.843 2.343-1.344-.312-1.406-1.906-1.344-.063-1.125 1.844-.437 2.313 1.156 5.78-.375 1.47 1.531.906.938 3.125 1.937 3.718.406 2.72-.281 1.53-1.219-1.312-.531-3.937-4.25-5.782-1.687-5.5-1.407-2.281 1.125-1.812.063-1.813 1.219-1.062-.72-1.157-3.593-2.562-2.406.5-4.625-3.125-1-2.438-1.563.719-4.531-3.375-1.344-2.219h-30.625l-.125 1.157-1.875 3.156-1.312-2.094-.344-2.219h-13.125l.063.094 3.187 4.969 1.063 4.78 3.53 3.97-.03.968.187 2.157.375-2.25.844 1.75.062 1.625-3.812 1.312-1.656 1.406-1.813 3.313-2.187 2.656-.157 1.031 1.25 2.25-1.5 1.875-3.718 2.25-1.344.126-.813-2.125 1.063-.907 1.156-.093 1.188-2.688 1.062-.812 1.781-4.25-.375-1.375 1.469-7.313-2.75-4.344-.312-2.125 1.375-4.593-3.844-3.657h-52.906l2.156.75 1.281 1.094-.469 1.906 1.907 2.22 1.656 4.312 1.125 1.406 4.219 2.687.812 1.782-.906 3.53.906 1.595 2.844 3.062 1.031.219 2.25-.594-.25 2.75 1.594 3.188-1.563 3.656-.03 1.718 2.155 3.844-2.25.031-1-1.875-.75-2.78 1.157-3.126.187-2.062-4.469-2.688-1.656-1.812-1.344-2.782-1.25-.312-1-2.344.375-1.219-.25-2.125-5.156-8.718-3.594-2.875-.5-1.938.47-2.5zm285.313 0 1.937 2.469-.25.781 1.281.375 1.407-.625 2.531.188-2.187-2.782-1.407-.406zm-201.188 48.157 1.313 1.25.562 1.843-.687 1.157.687 1.062 2.531 2.406 2.813 1.688.406 1.593-1.406.157-.344 4.625-1.156 2.687.281 1.032-1.094 2.25 1.063 3.718-2.5 2.5-1 2.25 3.656 6.469.438 2.875-.281 1.219-6.032-4.907 1.094-2.343-1.437-4.657-2.407-1.968.375-1.125.25-1.719 1.75-.562-1.594-2.688-.437-1.281-.594-1.75-1.719 1.781-.28-1.531.5-1.813 3.78.188-1.312-1.844 3-2.406-1.375-1.157.438-1.125 2.156 1.125.531-1.062-.219-1.094-3.219-3.75-.156-2.218z" style="fill:#9faec0" transform="translate(0 25)"/><path stroke="#9FAEC0" stroke-width="10" d="M31.156 810.594v.093l-.562 1.688 2.468 3.469.126 2.093-.5 1.688-1.938 1.469-.469 1.53 1.063 2.313.281 2.032.938 1.406.124 1.031-.562 1.406L30 833.875l-1.562 1.156-1.375 2.25L25 838.937l-1.281 2.25.406 1.688 1.531 2.312-.625 4.75.125 1.188 1.25 2.75 3.813 3.156-.157 1.719-1.437 1.75-2.312-.25-1.125 1.25-.563 1.531-.156 1.531.937 2.47-4 4.124-1.312-.812-2.875 2.375-4.063 1.312-2.687.281-3.844 3.188-.062 2.906 1.03.625.47 1.625L8 887.437l.719 3.438-.031 1.312-1.563 1.594-.344 1.469.094 3.219-.562 1.25-1.875 2.156-3.157 2.437-.843 3.063L.406 910l.344 2.656-.75 2.875 1.031 2.5 1.125 1.313.375 1.343.688 6.657.75 2.093.125 2.563.594 1.5 5.656 5.312 2.531 4 .125 1.97-1.719 1.187-.531 1.03.969 1.813 1.375-.218 1.937-1.22.719-1.937 1.844.157 1.656 2.593 1.938 1.594 1.187 5.719 2.469 3.344 1.375 2.718.062 1.063 127 5.063 174.532 5.812h8.656l3.969-5.25 2.812-5.281 3.281-3.907 2.688-2.312 5.75-1.531 11.219 3.406-1.157-19.844 5.188-6.594 9.094-4.875 18.187 5.657 2.813-10 1.625-4.125.843-1.75 3.5-3.844 16.469-3.438 10.281-6.093 4.313-.75 3.125.03 4.594 1.5 9.843 8.063 3-1.5 1.75-1.468 2.625-1.188 22.875-.969 2.032-7.062.062-4.531.594-4.47-.344-4.03 4.531-3.594 2.313-3.344 1.594-3.625 1.03 3.188 2.532 4.25 3.531 3.5 3.344 2 8.906 3 2.938.593 4.75-.187 4.719-1.531-1.782-7.907-1.53-4.062-2.25-4.563-3.938-6.375-1.5-.656-2.782-.437-11.062-9.157-9.344-19.062-.625-6.031-1.25-.782-7.25.657-1.062-1.469-3.844-.969-2.688-4.718-3.375-1.22-1.281-1.843-3.312-2.75-2.532-2.656-5.562-4.407-.688-2-.062-.593z" style="fill:#9faec0"/></svg>