<svg xmlns="http://www.w3.org/2000/svg" xmlns:xlink="http://www.w3.org/1999/xlink" width="5676.906" height="6308.344"><path stroke="#9FAEC0" stroke-width="10" d="M5560.406 0 5484.5 2.688l-819.406 24.406-158.5 4.312-130.281 5.782-624.407 9.218-29.812-1.906-31.281.094-37.407.219-68.312.375-444.281 2.5-34.313.125-87.312.094-16.876.094-117.906.812-7.812.188-50.281.687-32.813.407-16.406.312-13.906.094-15.876.188-36.906.406-243.719 1.094h-14.874l-96.5-.188-14.813.094-175-.187h-21l-30.312.094-3.094-3.5-3.094-4-60.5-.407-16.906-.187-13.406-.219h-17.376l-30.312-.187-139-1.407-161.187-2.093-24.626.094-8.187-.282-5.594-.218h-3.594l-52.906-.407-40-.28-145.219-1.72h-15.874l-138.5-1.593h-15.907l-62.094-.782h-15.906l-31.812-.718-32.907-.782L1029 32.19l-31.813-.687-29.28-.813-81.5-1.687-115-2.813-139-3.187-452.813-12.094-7.188 247.188-3.094 105.718-19.843 682.72H5558.78l-1.969-63.032-3.312-132.688-1.188-46.312-5.125-136.188-4.28-114 35.905-2.125-3.312-99-3-91.78-3.406-101-6.282-188.407-2.406-72z" style="fill:#9faec0" transform="translate(0 125)"/><path stroke="#9FAEC0" stroke-width="10" d="m149.469 1046.531-1.563 53.782-.406 12L136.094 1492l-9.594 344.594-3.812 130-.5 14.594-.376 16.625-.5 15.093-.5 16.094-.406 15.094-1.562 54.781h5472.312l-2.562-84.781-.094-1.594-14.313-484.094-4.094-129.812-.094-1.5-11.187-349.688-.031-.875z" style="fill:#9faec0" transform="translate(0 100)"/><path stroke="#9FAEC0" stroke-width="10" d="m118.844 2098.875-4.938 172.531-2.719 99.782-.78 28.218-.907 31.688-6.812 239.406-.282 10.688-.219 6-.187 7-.312 9.125-.282 11.593-1.406 42.782-.687 23.812-3.407 115.906-.219 6.5-.28 10.188-.813 34.312-.594 30.188-.406 16.719-.281 7.5-.626 17.093-.78 26.282-.72 23.218-1.093 32.782-1.563 49.062h5535.313l-4.656-158.344-.282-8.718-2.218-63.875-13-421-1.188-37.22-6.187-191.593-5.157-171.625z" style="fill:#9faec0" transform="translate(0 75)"/><path stroke="#9FAEC0" stroke-width="10" d="m88.531 3151.25-1.031 32.063-1.094 46.78L85 3280.189l-7.187 256.625-1.407 49.5-5.094 184.78-3.718 133.095-.406 14.812L60 4182.313l-.625 21.312h5581.594L5638 4004.594 5634.906 3801l-1.218-73.687-1.282-121.813-.812-81.906-.281-28.406-2-168-2.5-23.688-1.407-40.812.188-36.282v-15.718l-1.75-59.438z" style="fill:#9faec0" transform="translate(0 50)"/><path stroke="#9FAEC0" stroke-width="10" d="m59.375 4203.625-.281 10.188-7.188 257.28-1 32.5-.5 14-.219 9.313-.687 24-.187 9.282-.126 5.406-.78 27.906-.5 20.594L45.5 4689l-1.094 38.688-1.719 62.906-2.78 100.812L34.5 5084l-.594 21.188-.219 4.812-.374 16.688-1 32.125-1 35.28-.5 16.22-1.282 45.656H5668.5l-8.406-287.781-14.281-485-1.407-47.5-3.406-229.875-.031-2.188z" style="fill:#9faec0" transform="translate(0 25)"/><path stroke="#9FAEC0" stroke-width="10" d="m29.531 5255.969-.125 4.437-.5 16.094-5.594 196.188-1.125 39.218-2 71.407-.375 17.187-.625 20.406-1 32.907L8.595 5987.5 8 6004.906l-.812 25.188-1.594 72.812-.782 21.907-1.312 40.5-.406 15.187-1.781 61.188L1 6253.813 0 6296l30.188.688 575.906 11.656h194.468l3.25-167.75 1.094-80.5.5-16.688 3.688-177.593-.094-17.22.5-16.687.406-19.218h3.594l23.5.406 15.812.5 82.688 1.719 15.812-.125 79.594 1.812 15.906.406 51 .782 128.188 3.125h16.812l47.5.28 146.5 1.5 15.782.5 30.093.407 33.219.406h15.781l79.719.688 15.781.5 53.125.312 31.594.407h15.906l81.094.687 15.781.5 129.719 1.094 240.406 1.406 206.782.5 1.5-2.594 1-2v-1.5l-1-2-1.188-1.406-2.094-1.812-2.312-1.875-2.813-4.407-2.781-4.906-2.094-1.812-2.312-2-6.406-4-3.594-.5h-4.906l-.688.125-1.219.094-2.375.5-3.125.78-2.875.626-6.218-1.625-3-4.875-3.907-4.813-2.375-1.906-1.906-1.906-1.594-.594-2.625-1.094-2.5.594-3.093-.781-1.782-3.406-.312-1.813V5775l.5-4.5.406-2.812-.219-3.5-2.187-1.375-3 .187-3.688-.094-7-6.312-12.406-13.906-3.094-4.375-1.718-2.407.312-.718 1.406-3.094 1.875-3.5 1.313-4.188-.688-3.406-1.906-4-3.906-4.812-1.406-1.282-3.594-2.5-2-2.593-.5-2.5 1.5-3.5 1.406-3 4.281-4.907 4.907-3.312 3.093-1.5 3.813-1.5 3.406-.5 3.188-1.5 2.406-1.594 1.406-1.594-.094-2.593-1.906-1.907-1.5-1-2.5-.218-3.594-.282-3.125.594-1.5-.812-.5-2.282 1.5-2 2.219-1.5 1.906-1.593 1.5-1.72.281-2.5.719-4.905.5-4 1.594-3.5 2.281-3.594 1.406-1.688 1.407-2.093-.095-1-1.218-2.407-2.5.094-3 1.688-2.5.219-2-.813-1.281-2.5.78-3.594 2-2.5 2.5-2.093 2.313-.907 1.813-3.187.281-4.125-.781-1.375-2.5-1.406-3.625-.813-4.094.313-3.594-.094-3.593-1-2-3 .5-4.5 1.78-4.625.22-.5 3-4.094 2.28-2.406 3.907-1.594 4.719-1 2.375-2.188-.188-3.5 40.907.407h17l16.28-.125 47-.094h31.72l79.593-.188h56l87.594-.312 52.094-.188 115.719.094h109.28l46.5-.187h15.813l21.813-.125h41.594l20.28.125 17.907-.125 20-.594h15.813l48-.094h18.406l7.094-.5 16.406-.094 47.094-.313 47.593-.5h47.594l16.313-.094 15.906-.5h63.375l16.406-.094 16.813-.5h69.093l8-.094h4.594l32.094-.625 27.719-.593 19.78-.282 11.626-.312 7.094-.094 63.406-1h16.375l15.312-.5h15.407l15.28.094 48-1.094h14.813l15.907-.312 7.687-.094 8.094-.094 47.5-.72 13.812-.187 15.813-.312 78.594-1.188 14.593-.187 311.813-4 239.875-3.813 81.219-1.187 31.593-.406h1.5l14.813-.313 9.187-.281h1.094l6.094-.125 16.906-.281 17.313-.5 227.687-5.813 303.313-7 16.406-.406 36.5-1 12.187-.281 17.188-.407 230.719-5.593-2.72-95.407-5.687-195.53H29.531z" style="fill:#9faec0"/><use xlink:href="#state_outline" width="56769" height="63122" style="fill:#ff0;fill-opacity:1;stroke:none" transform="translate(5470.825 4107.059)scale(.01116)"/></svg>