<svg xmlns="http://www.w3.org/2000/svg" width="8060.813" height="3055.688"><path stroke="#9FAEC0" stroke-width="10" d="M2452.906 0 2451 3l-1 2.406.5 6.594-.687 4.5-.22 1.5-.593.906-1.594 2.688-1.218.594L2442 24.5l-.594.813-.593.875-1.125 1.718V35.5l-1.282 2-1.812 3.188-2.688 4.406-1.218 2-3 3.406-2 2.188-2.188 2.5-1.812 2.625-1.094 1.687-.281 3.594-.125 2.594v.906l.312 5.219 2.094 3.5 2.812 4.687 1.188 3.906-.688 10-.218 3.282 2.125 7.406.78 2.906-.093 3.594v6l1.406 8.594-.406 5-.5 2.5-1.313.906-2.28 1.594-3.095 1.125-2.406 1.093-.594.407-2.718 1.687-2.782 3.313-.812 1.875.5 2.5.406 2.125.281 2.093-.687 1.282-1.188 1.906-1.625 2.719 1.907 2.593.906 2.407-.594 1.687-2 1.813-1.406 2.5-.406 6-1.188 2.375-4.094 7.312-4.5 4.688-.5.5-5 5.312-3.312 3.313-.813 2.187.125 7.313.875 2.187 2.72 2.906 1.093 1.282 1.594 3 1.093 2.218.625 1.688-.625 2.5-.5 1.312-.593 1.094-1.594 2.813-.406 2.375-.407 2.125.813 1.687 2 4.406 1.187 2.688 4.125 16.312 1.282 3.282 2.218 3.312 5.594 4.188 3.781 2.812 1.407 2.594-1.188 2.5-1.594 1.312-1.312.5-.594-.094-2.812-.125-2.188-1-3.219-1.5-.593-.281-1.907-.406-3.593-.5-3 .812-6.282 1.781-3.125.907-3.375.906-2.718-.5-3.094-.5-4.813-2.312-6.875-1.5-2.718-.594-3.407-2.5-3.687-2.813-6.094-2.187-2-1-2.094-1.688-.718-1.812-1.5-3.594-2.188-5-1.219-.812-1-.5-3 2.218L2334 256l-5.406 4.093-4.407 1-9.187 2-3.594.907-3.406 1.5-4.188 1.906-4.125 1.781-9 6.406-13.093 9.313-3.594 4.688-6 7.812-6.594 5.594-2.719 1.812-7.375 3.094-3.125.781L2242 312l-2.906 2.187-1.688 1.406-2.719 2.313-2.187 3.406-3.813 6.281-3.093 5-12.782 21.313L2146 465.094l-9.906 20-1 1.593-3.594 6-5.188 11.719-2.437 3.063h4759.344l-3.22-6.875-4.593-5.094-3-11.5-3-15.688 1.094-11.5 1.594-4.125-1.5-3.5-1.5-13.094 1.093-8.5 4.72-6.093-2.095-2.5-1.5-5 1.094-7.094 3.594-3 1.594-4.5v-8.094l1.593-1.5 3.625-9.5 4.188-3 4.5 5.094 3.094 1.5.5-3.5 1.093-3.594-1.5-4 .625-1.5 1.5-4 7.188-7 4.094-4-.407-6.125 2.625-6 4.594-4.5 2.094-2.5-1.5-6.594-1-7.5 1.594-2-1.594-3.593-.406-5-8.688-4.094-7.719-6.094-4.593-5-2.5-7.625-6.094-4.5-7.688-4.094-4.5-8.093-10.218-11.094-3.5-8.094-2.594-1.5h-1.5l-5.188-2.625-3.5-4.5-2.625-2.594-5.093-.5-4.094 2.5-4.094 2-9.219-2.593-11.78-3.094-9.72-1.5-8.187-7.094-7.688-2.625-3.125 1-6.593-2-16.407-7.687H6748l-9.688-7.094-4.125.5-8.687-.594-7.188-3-3-5.125h4.594l6.094 2.625 6.687 1 7.22.094 3.5 2.5 6.187 5.094 4.593-.5h3.125l14.282 4.594 9.218 3.094 9.188.5 7.687 3.625 7.125 6.093 2.094 2 10.688.594 10.312 2 9.188-2.906 7.718 1 3.594 4.094 4.594 5 5.594.125 3.593 2.5 4 5 7.22 9.093L6881 270l4 8.594 3.094 3 7.718 4.094 4.5 7.125 6.688 5.093 3 2.5h2.094l1-2-1-2-2-1 .5-4.593-2-5 4.593 2 2 6.593 3.625 2.5 6.594 7.094 2.094-1.5 1-1 1.5 1 1.5 1.5 5.594.094-1.5 1.5-3 1-.594 1 1 4.5 2.594 3.5 1.5 6.594 3 2.5-.5 5.625-.594 3 2.094 4-3.188 8.593-6.219 8-3.593 5-3.594 7-1.094 3-.5 7.594-3.094 2.5-2.125.5-4.093 4.5-5.188 9-4.219 9.594v8l-2.593 7.094-.094 3 .5 4-1.094 20.625-1.594 12.593-.125 10.094 2 6.5 1 2.094 2.625 1.5 3.5 6 2 6.094v4l.5 3 2 6.625.906 3.656h331.375l-.593-1.875-1.5-.5-3.094-3.5-1-4.594-2.5-1h-7.719l-7.187 1-6.188 3.906-6.625-5.5-3.094-3.093-3-5.5-3.093-2.625-5.594-3-2-4.594-4.094-5.5-5.125-3.094-9.687-8.094-8.594-5.593-3.094-.5-4.625-2.5-1.5-5.125-3.094-1-.5-3-1.5-3-8.687-5.094-3.5-3.594-1-4-2.094.5-4.625 1.5 1.125-7.594-2.125-2 5.219-8 2.594-1.5 1.5 2-2.094 2.5-.5 3L7140 419l6.187-3.5 1 1-.5 2.5h1.5l4.625-.5 3.094 2.094 4 5 4.094 5.094h5.093l3.594 3 4.625 2.625 7.688 5.593 3 3 4.593-.5 1.094-4.5 2.625-2.5 1 2.5-1.125 2.5-.5 3 1 3.094 2 3.5.5 4 5.125 4.594 2.5 5.594 2.094 5.5 3.5 2 2.094 3.125h5.593l5.72-3 5.593.5 4.094 2.093 3.593-2-.5-1.5 4.594.5 2.625-1v2.5l1 2.594 5.594 3.5 6.094-2 5.687 4.094 3 2 1.5 2 2.625.594 2.5 3H7280l5.093.625 7.22 4.5 2.5 4.593L7303.5 504l8.625 3.469h64.78l.407-.563-6.719-1.593-6.093-5-2.5-3.125-6.688-1.5-4.5-4.594-5.719-3-1-6.594-3.5-2.5-3.093-4.094-1.407-8v-3.593l-4.093-5-3.594-4.625-1-3.5-7.594-4.094-5.125-2-3.094-4.094-5.093-3-1-5.5-3.594-1.594-5.594 3-3.125 1-3.594-2-6.093.407 3.593-3 5.594-1.907 5.219-.5v-4l-1.5-5.093 1.594-3-1.594-2.5-2.5-1.625-3.094-3.5 1.594-4-3.594-1.5.5-3.094-3-2.5-2-4 2-3.5 2.594-2.5 3.094 5 1.5 2.5 2.5 4.094 3.093 2 1 6.625 4.594 2 .406 5 3.094 4.593 5.625 1h6.688l3.593 2.594.407 3.5-.5 8.094h6.593l3.594 1.5 3.625-2-1-3 2.594-6.5 2.594 3.5 2 6.594-2.594 5-1.594 2 .5 4 4.094 7.125 4 1.5 2.094 2.593 4.093 3.5 3.5 6.094 3.594 5 4 4.094 9.719 5.094 5.094 5.5 4.093.125 4.72.5 5.593.5 5.094 1.593 2.593-2.5 8.72-3.5 3.093-1 4.594.5.5-2 2.093-1 6.72.594h7.093l6.687-1.5-2.5-2-2.593-.5-8.688-.594-6.125-3.5-1.5-5.593 2.625-3.5-3.125-2.5-4.594 2.5-4.093-1.125-1.5-3.5-2.594-2-2.5-4.594 8.187.594 3.5 4 6.22-4.5 4.093.625 5.094 8-1.094 6.093 3.094 1.5 5.093-1.5 6.72-4 1.5 1.594v4.5l3.093 1.5h2.5l2.594 1.594 5.093 3 3.094-.5 2-2 3.719-2.5 5.094.5 4.093-1.406 10.813-3.5 5.094-3.5 1.593-7-1.5-3.594L7488 436.5l-5.094-3.594.594-5.5-1.5-5-1.5-3.093-2.594 6.093-2.594 1.5-4.625-3.093-3.594-2 6.72-5.5 2.593-1.5 2.094-7.125-3.094-5.5-7.594-5.594-7.719-4.094L7452 389l-7.188-2.094h-3.625l-3.094 2.5-3.593.5-3.594-2.593-4.5-4-5.719-2.125-5.594 1 .5 2-3.593 4.5-4.594-1-1.094-3 2.094-4.5 6.687-4.5 3.594-2.5 4.625 3 3.594-.5 3.594.625 4.593 3 1.594-4-2-7.625-5.594-6.094-5.093-6.5-.5-7.594-3.5-6.5-6.094-6.094-6.719-3.093-5.094-.5-8.687 1.5-5.094-2.625-3.125-5-7.094-5.594L7374.5 313l-1-5.5-1.5-1-6.188.906-3.5-.5-1.625-2.5-2.5-4.593-4.094-2h-5.593l-2.594-2.625 2.094-5.5 6.687-5.5 4.625 1 .594-3-1.5-4.5 4.594-4.5 2.5 13.125-1.594 2-2.5.5-2.594 2 3 3.5 5.688 2.093 2.5-.5 7.187-5 7.219-1.5 4.594-.5 5.093 6.094 1.5 6 6.72 1.094 13.78 1.594 5.22-.5 3.593-3 2 1 2.594 3.125.5 2.5 4.5 3 7.187 6.093.5 2 1.5.5 2.625 1.094 3.5 3 1.094 2.5.906 5.094 2.094 6 3.5 3.094 5.094 2.5 5.687 3 2.5 4.125 2.5 6 .5 4.093 8.719-.5 6.187.594 3.5 2 4.72.5 4 3.094 3.593 9.5 1.5 5.094.5 2.5 2 2.5 1 2.625 9.687 5.093 4.094 4 3 6.594 2 7 5.625 3.594 13.281 4.594 8.72 4.625 20 2.593 18.374 4.094 15.406 4.094 11.22 1.094 7.187-.375v-3.125l-3-5.5-6.594-3.094h-5.719l-4.094 3-2-1 2-2-2-3.094-5.593-4-1.5-6.094-3.094-3.5-2-1.5-2.094 2.5-1 2.5-3.125 1.5-2-.5 2-4.093.625-4-3.625-4.5-4.594-.125-3.593-4.5-1.5-4.594h-3l-7.188.5-2.125 3.5-7.687 5-3.094-.5 1.094-3 4.593-2.5 2.594-6.094v-7l-2.5-4.094 2.125-1 6.094 3.094 1.5 4.5 2.5 3.094 4.187-3.5 5.094 4 2 6.094 4.125 2.5 4.594-5 2.594-9-.407-4.094 2-6-4-8.594-3.593-5.5-3-2.594-1.5-2-7.188 1.5-4.625-1.093.5-5.5 4.125 1 6.188-1.407v-3.593l-5.094-3-3.5-7.625-1.5-6.5 3.594-6.594-3-3.5 2.5-2.5 4.093 2 5.72-.406 1-5.594-1-3.5h-2.5l-6.22 1L7569.5 301l-3.094-5.094-3-6h-4.594l-2.125 2-5.094 3.5-3.093 3.5h-1.594l2.094-6.593 5.687-5.5 7.719-1 3.594-2.407-2-2.593-5.188-.5-6.125 2-4.094-1.625-4.593-.5-3.094-3-2.5-3.094-1-5h-2.094l.594-2 3-1 .094-3.5-1.5-5.594 5.094 1.594 2.5 8 1.5 4.094 6.094 3 6.718-1 3.594-2 6.188-3.375 4.125 5 .375 10.593 1.5 10.594 4 4 6.218-2 5.594-.406 5.188-5.5 3.125-1v3.5l1.5 3 3.093 1.594-1.093 1-4.125 3-3.594 3.5-2.094 2 1 5.5v2.5l-.5 2.5 1.5 4.125-1.094 4-1 4 1 4.593 5.594 3.5 2.5 3 2.094 3.094 4.094-1 4 2.5 2.625.094 6.187-1.5 2 1.5-1 3.5-3.094.5-1.593 4.5 1 3.094 1 6.5 1 4 1 2.125 1.5 1.5 1.093.5 3 3.5-.5 5.094 1.5 4.5 2.5 2.5 4.094-1.5 1.594 1.593-.594 3 1.5 4.5 2.094 1.5 3 2.094 2.094 2.5 3 1 6.125 7.594 1.593 2.5 2.5 3.125 4.094 4.5 3 5.594 4.094 5 1 4.593 1 5.5-.594 6.094-.594 7-1 7.094 2 8 .907 11.625 6.593 8.094L7684.5 497l5.094 7.094 6.125 3.375h35.75l-.875-.656-2.5-5.5.5-5.625 1.094-5.5 1-3 2.125-1-1.5-6-6.72-.594-2.5-2.5L7720 473.5l-.406-11-6.094-6.593-4.094-3.094-5.093-1 3.187-11.625-.5-7.5-2.594-1-4.093-.094-4-2.5-1-4.5-2.125-4.594-2-5.5-.875-8.094-1.5-13.093-5.5-11.125-3.625-7.594-4.594-5L7670 365l-4.5-12.594-4.5-9.093 1.594-7.5-1-3.125-2.094-6-5-6.094-1-5.5 5.188-7.594-.5-5-6.688-2.094-3.594-2-2-4.5-3-6.593-2.5-10.125-.5-2-4.5-15.094-4.593-6.094-6.625-8.094-3.5-12.593-5.094-7.625-3-6-6.594-4.094-2.594-2 3.594-3.5 1.594-6.594 6.719-10 .094-6-3-7.594-3.594-7.593 1.594-9.5-.5-4.125-2-6.5.593-5.594-2-2.5h-3.093l-2.094-2.5-6.125-1.594-6.188.5-2 2 2 2 5.688-1 3 2.594.5 4-3.094 1-4.594 6.5-1.593 4 1.5 2.594 4.593-.5 2.094.5.5.5-2.094 3v2.5l2.594 1.625 2 1.5v4.5l1 2.5 1.5 3.593-2.094 3.5-4.093.5-2.5-3.093-4.094-2-2.625-5.125h-2.5l-1.094 3 1.5 6.625 1 7.5 2.5 4.093 4.094 5.594.5 7-3.594 1-5.687-1-5.594-7.594-1.406-9.593-5.094-4.625-5.125-2.5-3.094-4.594-9.094-10.094-4.593-5-3.594-.094-2.625-3 2.125-2.5v-3l-3-6.594-5.625-3-.5-3.625 2.125-2.5 10.187-1.375h4.594l2.594.5 2.5 5.594L7570 156l2.5-1-3-5.594-1-6-5.093-8.594-.5-4-2.5-.5-5.72 5-9.687-1.625-7.187-3.093-5.125-2-4.094-2.5-3-2.594-3.094-5.5-3-6.094-2.5-10.094-4.593-5.5-3.5-7.625-2-4.5.5-3.593-3.5-7-4.594-9.594-2-2-3.625-.094h-1.594l-6.687 4.5-4.594 2-6.719 1.5-11.687-2.594v-4.5l3.593-6.125-1.5-2.5-2.593-1.5 4.687-2 2-4.5 5.719-2.5 5.594.5 5.093 6.125 7.188-4 3.125-1-4-6 2-3 2.594 2.5 2.5 1.5 2 6.094 2.593 2 5.094-4 2.594 1v-4l1.125-4-2.625-3.094-4.594.5-.5-2.5 3.094-3-1-3.625 1.625-3-4.125-6-2-3.594-.281-3.906-77.5 3-82.5 3.125-23.813.875-45.5 1.5-18.687.719-58.813 1.906-36.406 1.281-51.5 1.72-13.094.28-44.781 1.594-.813.125h-3.593l-5.907.094-20 .594-46.406 1.312-193.906 4.375-65.094 1.407-.906 8-126.781 2.5-88.594 1.718-103.719 1.782-27.687.593-161.594 3-193.313 4.125L5952 56l-121 2-7.687.094-124.125 1.594L5631 60.5l-89.312 2.094-71.188 1.594-17.5.5-14.906.625-5.594.28-10.312.595-32.281 1.625-7.72.375h-4.093l-42 .312-1.5.094-4.687-.094-28.72.5-14.374.313-9.219-.125-27.187.218-22 .094-8.22-.094h-130.78l-32.813-.094h-29.281L4913 69.594h-44.093L4719.094 72.5l-35.406.687-31.781.625-92.813 1.688-18.594-.188-50.093-.625-63.907 1.5-36.593.907-4.22-.094-79.374-.907-99-1.406-89.219-1.5-185.187-1.5h-7.22l-21.5-.094L3741.095 70l-37.406-.406-144.594-8.687-1.094-.094-153.5-9.125-36.187-2.094-166.219-3.5-22.594-.5L3147.314 44l-7.125-.406h-4.688l-140.593-6.781-186.22-9.407-40.28-2.093L2744.314 24l-17.906-1-106.22-10.094-88.593-10zm5197.688 3.688L7629 4.594l-1.094 3.719.5 6 1 3.593 1.5.5 5.188-5 1 3.5 4.594-1 .5 5 5 6.594 2.125 5.094-2.125 6 1 6.5-3.688 3.594-3.594.906-2 3.094 1 2.5 2 3.5 1 3.5-1.593 3.625.5 2.5.5 7.5 1 3.593v4.5l-.625 2.5v2.5l2.125 1.5 3.593.594 6.594 6.594 1.5 4.5.5 4 .5 3 2.5 2.594 1.5 2 1 1.5v3.5l-3.594 1.5-3.593-1.5-2.5-.5-1.625 2v3l3.125 4.125 1.5 5.5.375 4.5v3.593l1 1 2.125-1.5 2.093-2.5 2-.5 2.094 1.5-.594 3 .5 3.5.5 1.594 2.094-.5 2-2 4.094-.5v3.5L7673 154l1.094 2.094 1.5 3 2 3.5.5 2.5-5.688 1.5-3.593 1.5-.5 1.5 2 3.094 2.593 1.5 5.094-.5 2.094 2.5 1.5 4.125v4.5l-.594 5.5v5.593l2.5 4L7687 207l2 7.5v4.094l1 4.5 2.5 4.094 2.594 3 2 4v4.125l.406 7 1 7.593.5 4 2.5 8.594 2 4.5 1.5 6.094-1 3-1.594 4-1 3 .5 2.5 2 1.594 4.094 1.5 4.094 1 2 2 2 5.625 2 6.093 1 10-2.594 9.094 2.5 3 2.594 3 3.5 4.594 5.719.5 4 2.594 1.593 1.5 1 1.5-1.593 4-5.125-1.5-2.094.5.5 6.5 2.594 1.625 2.5 1.5 4.625.5 5.093.5.594 1.593 5.5 13.094 3.5 11.594 5 14.594 5.094 11.625 2.406 13.593 2.594 8.594 2.5 6.594 6.5 17.094 2 9.625 1.5 7.093 2.5 8.5 2.5 10.594-1.594 3.5-2-4.5-3-9.094-2.5-8.593-2.094-2-.5 2.5.5 6.093 1.5 7 2.5 9.094 3 8.594.907 4.875h34.687l-5.812-10.281-7.094-15.094-6.094-11.594-10.594-23.812L7777.813 422l-9.5-22.687-4.625-9.125-4.5-13.594-6.094-15.688-2-5-4.5-10.093-3.5-8.625-4.094-8.594-4-6.5-6.094-13.188-4.5-16.593-7.5-26.72-6-19.687-6.5-26.218-4.5-16.188-6-21.187-8-36.813-6-17.594-7-28.218-4.5-13.688-5-19.594-1.906-18.718-5-16.094-1-9.094-1.5-10-1.5-5.094zM7603.5 5.594l-36.812 1.594 3.718 3.312 1 6-1 2.5-2.593 2.594-2.625-.094-2.5-.5-3.094-1-3.594-3-3-3.094-4.094-4.5-1.593-1.719-10 .407-15.907.593 3.407 3.625 3 3.5 4.093 4.594 3.594 5.5 1.5 3 2.5 3.094 3.594 2 1.5 1 5.719 1.094 4.593.5 4.594 1.5 1 2-.5 3.093-2.594 3-4.218 3-1 1.5-.5 3.5-.594 3-2 4-2.094 1.5v2.5l1 2.625 3.5 5 4.094 5.094 2.594 2 2 2.5 2.625-1.5.5-2v-2l-.5-2.5v-4l1.593-.5h2l2.094-1.5 1-2 1.594-3 1-1 1.594-.5v1.5l1 4.5 2 3.5 2.5 2.594 4.125 1.5 4.593-.5h1.594l2.5-.5 2.094.094 3.594 1.5 3 3.5 2.625 3.094 1.5 2 2.593.5 2-.5 2.594-2.5 1.594-2.5 2.5-2 4.094 1 2.625.5 2-1 1.093-2.5-2-1.5-3.093-1.5-2.125-.5-2-1v-3.594l1.625-6.5-1-7.594-.5-6.5-.907-7.094-1-5.5-.5-5-.5-5.593.094-5 1.5-5.5.094-2.125v-2l-1.593-1.5-1.5 1-2.094 4.5.5 3.625-2.594 1.5-1.5-2.625.5-4.5-2-2.5zm-85.406 8.594-2.094 3v3.125l1 3 2 1.5h1.594l2.094-2.5.5-3.5-2-3.5zm117.406 6.718-2.594 1.5-.5 2v2.5l2 2.094.5 1.5 1.5 2 2.094 1 2 .5h1.594l1.5-1 .5-1.5-.5-2-3-3-.5-1.5-1-3.094zm-12.312 2.5-.594 1.5.5 2.5-1 4-1 1-.594 2.5L7622 38l2.594 1.5h2.594l1-3-.5-2-.5-2.094-.5-2.5.5-3-.5-2-1-1.5zm13.218 12.094-2.593 1-1.5 3-.5 2.5.5 1.594 2 1 2.593-1 2-2 .094-3-1-1.594zm-161.593 10.688-3.125 1.5 6.625 10.125 3.593 1.5 10.282-2.407 6.125 1.5-1.5-6-6.72.5-4.593 1.907-3.094-2-3.5-5.5zm154 47.218-1 1-1 2-1.125 3.5.5 2 2.125.5 2-1.5.593-1.5v-5.5zm18.5 5.594-.625 2.5v2l.5 2.594 3.125-1.5 1.593-1-1.093-2.5-2.5-2.094zm-9.313 1.5-2.5.5-2.094.5-.5 2 2 2 1.594.5 2-1 .5-2zm28.406 52.5-2.093 1v3.5l2 1.5 2.093-2.5v2l2.594-.906-1.5-3.594zM7653 164l-1.594 1.5-.5 2.5 3.094 1.5 2 .594 1.594-2-.5-3.094zm-80.594 8.094-2.093 2-1 3 1.5 1.594 3.093-.5 1.5 2 2.094-1-1-7.094zm89.188 11.094-1.094 2-1 4 3 .5 4.188-1.5-1.594-4zm20.5 65.5-3.594 1-3.594 3.5v2.125l2 3v8l1.5 4.093 2 2 2.094 2.5 3 .094 3.094-1 1.594-.5 2-2.5.125-4.093-2.625-1.5-3.094-1-2.5-1.5-2-2.594 1.5-3.5 3.094-3.5-1.5-3zm-13.5 32.218-1.094 5 4.594 3.594 4.094-4.5-1-3.594-3-.5zm24.594 4.188-3.094.406-2.094 3.594 2 2.5 3.594-1.5 1.594-3zm-9.375 14.5-2.5 2 .375 3.5 3.625-.906h1.593v-2.594zm-20 1.906-1.125 6.594 1.625 2 5.093 2 2.5 2.094H7674l2-1-.906-6.094-4.094-2.5-3.594-2.094zm-740 10.5-2.125 5.094 1 3.5 4.625 4.094v2.5l2.5 4.5h2.093v-4l-1.5-5-2-2.594-2.093-2-.5-4zm744 5.688-5.625.906-.594 3 3.094 1.594 2.625-1zm3.5 7.5-2 1.5.5 5.125 2-1.5 1.5 2.5 2.093 2 2-.5 2.094-2-1-4-3.094-2.5zm48.093 15.906-1.5.5-2.593.5-1.5 1.5v4l3 1 3.593-1.406 1.094-.5-1-4.094zm-30.5 35.094 1 4.5 4.094 6.625 1 9.093-.594 4 .5 2.5H7699l1.594-1-1-8-3-10.093-4.094-7.125zm-5729.5 89.218-3.093.282-2.125.406-2.688 1.312-.687.782-1.72 2-5.78 6.906-1.907 2.312-6.218 4.282-1.875 1.718-1 2.407-.813 2-2 2.875-1.406.906-2.688-.5-1.593-.188-2.625-.5-2.688-.406-3.187.813-1.813 2.28-.406.595-1.688 2.406-2.218 1.812-1.282.782-3.593-.094-3.625-1-3.594-2.594-.5-.406-3.5-3.594-2.406-.906-2.5-.594-3.094.312-7.5 5-10.188 4.688-5.218 2.312-5.094 1.875-3.094 1.125-1.75.657h173.344l-.188-1.282-3.593-9.093-3.625-9-1.375-5.688-1.407-2.094-2.5-1.218-5.406 1.593-3 .907-7.812 1-10.282-1.688-3.5-1.5-3.218-2.5-4.5-1.312-2.594-.688-2.406-2.219-2.188-2.5-4.594-3.5z" style="fill:#9faec0" transform="translate(0 125)"/><path stroke="#9FAEC0" stroke-width="10" d="m1852.25 507.469-1.656.625-4.781.219-4 .187-7.813-.5-2-.094-2.594.906-2.093 1.281-3.313 3.813-2.812 2.5-4.688 1.281-3.906 1.125-2.188.594-1.718.5-1 1.188-1.688 2.093-2.406 3-12.188 6.219-6.5 5.188-2.812 2.312-3.688 5.781-5.593 10.313-41.407 71.187-6.812 3.406-.594.72-.906.374-5.406 2.5-3.094 2-3.5 2.406-6.688 6.22-1.406 1.374-5.312 5.719-2.594 2.781-3.781 2.719-2.72 1.906-5.905 1.375-6.594 3.125-2.188 1-5.312 1.688-3.281.187-2.125 1-2.094 1.406-3.594 2-6.906 3.813-4 3.406-1.5 1.281-5.781 2.094-3.313-.094-2.687-1.28-2.5-1.72-1.813-2.187-2.094-2.5-1.093-1.407-2.22-.906-2.5-1.187-6.093-.813-12.312-1.687-4.094-1.5-1.281-1.594-.313-2.625.906-2.5 3.282-8.875.625-3.125-.625-2.781-2.782-5.313-4.906-1.78-.812-9 5-5.5 5.218-10.5.282-6.126 4.5-5 7.812-5.594-.906-3.687-9-4.313-1-1.5-9.188-7.187-3.906-2.719-.187-.688.28-6.5-4.405-4.312-6.875-6-2.907-2.094-6.312 1.5-7.688 6.22-9.718 1.686-11.875 6.094-12.22 6.5L1525 586l-22.187 10.313-1.125 5.875-.282.312-10.093 4.688-3.72 1.812-7.187 4.907-6.593 3.781-7.22 4-4.187 1.125-6.718 1.687-2.5 1.5-2.875 1.688-3.313 2.719-1.594 1.5-2.5 5-.812 3.593-.594 2.813.188 2.687v1.813l3 8.281.906 2.594-1.281 3.406-2.22 2.813-2.093 2.5-.5 1.093-.594 1.813-1.312 3.375-.906 2.625-1.688 2.375-3.594 2.906-5.093 4.094-2.72 2.812-2 2.688-1.5 3 .22 3.125.593 7.687-17.593 2.313-1.72-5.625-2.28-3.688-3.407-3.187-4.406-3.906-7.406-4-5.594-4.313-3-2.187-4.594-2.5-6.093-1.094-5.72 1-10.187 3-7.718 2.187-4.282 3.313-1.406 1-.687 2.594-1 3.687.687 5.813-.594 2.5-1.218.687-2.688 1.313-3.594-.219-6.812-2.781-1.594-.594-1.5.5v2l1.094 2.281.906 3.72 4.813 10.28 4.875 12.406 1.718 4.188.282 3.406v3.5l-1.5 2.719-1.688 2.875-.594 1.906.782 2.094 4 2.125.5.281.906.813 1 .781.406 2.5-.594 1.5-3.906 4.313-2.187 1.906-2.813.406-5.187-.125H1317l-3.187 1.313-.625.812-.5 2.5-.094 3.5.718 4v4.594l.188 11v1.281l-.688 2-1.812.625-5 1.5-4.188 2.094-2.625 5.594-3.78 4.687-8 6.813-7.72 8-3.093 4.5-3.094 8.593-.594 3.5-1.5 3.5-2.219 2.719-2.875 2.094-3.625 2.5-5.687 4.687-7.188 7.594-4.5 2.719-2.718.781H1240l-2.5-.594-3.406-1.5-4.782-3.5-2.125-.906-4-1.781-2.593.281-4-1.281-4.188-2.906-2.219-1.5-3-1.188-3-.625-13.28-2.375-1.5-.312-2.095.312-5.125.375-2.093.219-3-.719-2.094-.5-3.094-1-2.5-.5-3.594 1.219-3.625 1.406-5.593 3.5-9 5.5-9.594 5.875-7.688 2.906-3.906 1.5-4.594.219-2.5-.719-2.812.5-3.5.594-3.188 1.406-5.625.5-6.687-.906-2.594.813-4.219 1.687-1.875.813-1 3-1.625 6.593-1.5 2.907L1077 896l-3 5.687-1.5 2.719-4.313 8.187-5.187-2.5h-2.313l-2.687 1.313-1.594 1.187-2.594 1-2.218.907-3-.688-4.188 1.781-2.594.313-2-.906-3-1.5-7.125-1-4.593-.688-4.688.688-3.219 1.812-4.28 3.688-5.313 3-1.907 2.593-2.187 2.907-.594 9-1 2-1.906 3.406-.188 2.687-.125 2-.28 4.313-1.595 1.687-2.125 1.5-.687.407-2.813 1.093-2 1.313-1.593 1.187-.407 2.094-.375 2.625-1.406 2.281-1.594 1.407-2.625 2.5-2.875.906-6.5 2-2.218 1.781-2.094 3.5-2.313 4.906-2.687 5.813-3.813 3.406L956 991.5l-2.906.187-2.688-.594-2.719-3.187L946 986l-1.094-1.313-3.594-2.594-3.125-1.406-7.593-1-6 1.125-1.782.375-3 .313-2.812 1.812-4.906 3.688-2.782 3.906-.812 3.687-2.406 3.719-2.188 3.281-5.219 3.5-4.593 1.313-4.5 1.281-3.688 1.406-2.094 1.407-3.812 2.593-4.469 5.157h6792.625l.844-1.063-1-1v-3l-3.594-2.094 1.594-1 4.094 1.594 1 3.5 2.5 1.5v1.5l.03.062h136.72l-1.438-2.75-1.5-2.094-1-2.5v-4.5l-1.5-3-2-2.093-.5-3h-2.094l-1 2h-5.625l-5.594-3.625-5.593-6.594-3.594-5.5-2-5.094 1.094-4 1.5-5 3.093-.5 1.094-1.5-9.781-1.094-4.094-3-3-3.093v-4l2.094-4.5 4.094-4 1.593-3.5 1.594-6.125 1.5-2 5.219.125h3l7.187 2.5 8.72 6.093 3 4.594v5.5l-3.22 6.5 1.594.594 5.625.5 4.594-2 4.187-4 2.594-4 3-2 1.625-1.5-1.5-2.5 1-2.594.594-3.5-1-7.5-2.5-5.094-3.094-4-1-3.593.594-4.5-2.094-2-2-6.625.594-4.5 1-1.5.5-2-2-2.594-7.094-6.094-4.125-4.5v-2.5l2.125-9.594-1-4-4-3.593-2-5 .5-4 4.094-3 1.594-4.125 1-4-1.5-5.5-.407-6.094 2.094-5.5 4.625-5.5.5-1.5-1.5-1-1.5-3.594-1-2.5-3.125-3.594 1.125-4.5 1.5-1 1.594-2.5-1-.5-1.594-.5-2.5-3-1.5-1.093 1-2.5-1-3.5-1.5-2.5-2.625-.625-1.5-3 1.125-1.5-1.125-1-5.594-2.5-3.5-5.094-.5-3 .5-2.5-1-4.594 2.094-1.5.5-2.5-4.5-9.594-1.5-6.5 2-1 .125-2.593 2-2 .5-1.5-2.5-2-4.125-3-5.594-1.125-3.093-5-.407-5.094-3.093-1.5-2-3.5 2.593-6.094-.5-4-2.593-1-6.094-.094-1-2-3.594-3.5 1.094-5.594-2.5-7.5 1-2.5-.5-1.125-6.594-2-1.625-1.5-3-4.094-6.094-3.5-1.593-.5 2.593 4.5-3.093 3-4.594-1.5-5.219-.094-1-5 .625-5.5 1.594-3.593 2.5 2.093 5.187-4.5-2.593-2.093-1.5-2.5-2.594-1-6.094-1.594-3.125-2.5-6.594-1.5-1-2.125-2.093-1.5-7.094-2.5-9.719-3.094-5.187-.5 2 5.5 2.593 2 2 7.094-6.187 5.5v3l1.5 6.125-4.219 5-7.687-1.125-4.094.5.5 2.5 6.687 2.625 8.22-2 8.187-1.906 6.187 3 2 2.5 5.125.593 4.594 4.5 5.594 3.094 4.593 1.5 2 2.094 4.094 3-.5 2h-2.594l-7.093-2.094-4.594.5-1.594 4h-4.625l-.5-2.5-1-3-3.094 2.5-2.093-2.094-3 2-2.094-1.5-2.5-3.5-6.219 2.5-1.594 4-2.5 2.5-8.687-6.093-8.219-.594-6.094-5-6.093-5.125-9.813 3.5-6.187 5 1.5 6 6.093 3.625 8.72 9.094.874 10.593-1 5 2 1.5 5.719-1.5 5.594 2.594 6.093 7.094 3.094-1.5 4.625-7 7.188-1.5 3.593 4-4.687 3-4.094 7.625 2 5.5.5 3.594-2.625 9-4.094-10.594-6.593-1-5.594-4.625-4.594-5.094-1.625 2-2 3.5-4.094-3-3.093-1-6.188 5-2.5-.5 3.094-9.094-2-1.5.5-4v-6.093l-1.906-8-6.188-3.094-4.125-1-2.594 2.5-2.5 4.5-4.593-4.625 1.5-5 5.187-2 2.125-3.5-1.5-3.5-8.719-2.594h-7.187l-4.219 5-3.094 2h-2.5l-1.593 8-4.688 4.5-5.125 6-2.094 3.5-8.687 4-4.219 1-4.594 5-.5 4 2.5 8.594 1.907 13.625-7.188 5 2 6.594 5.5 13.094 4.094 8.093-2.094 6.5-7.312 13.094-4.594 8.5 3.406 18.219 4.094 4 2.5 9.094-.594 5 2 10.093-2.625 6-1.094 7.594-2.093 5 1.5 9.125-2.094 7-4.094 3.5 1.5 6.094-3.719 7-3.093 7.094 1.5 3 3.093 3.5-.094 3.593-2 4.5-.593 2 1.093 2 .907 4.5v4.594l-2.594 3.5-2 2 .375 4 .5 7.125-.5 4.5-2.094 1.5-.5 2-1.094 2.5-2.5-.5-1.593 1 .5 1.5 1 2v5.094l-2.094 4-1 2-2.125 2-2.094 4-2.5 2h-2.594l-1.5 1-4.187 3.5-3.125 1-4.594-1.5-2.5-1.094-2-4-1-3.5 2-4-3-.125-2.594-2.5-.5-1-1-3-4-5.094-2.593-1-3.594 4-1.625 1.5v2.5l-2.594 1.5-3-.5-2.594-1.5h-1.5l-2.593.907-2-.5-1.5-3.5.5-2-2.594-.5v3l-2.125 3.5-5.594 2-3.094-1.594-2-.5-3.093-3-2-1.5-1-3.594-1-2.5-5.219.5-2 1.5-1.594-1.5-3.5-1.625-3.094-3-1.5-2 .5-4 2.094-6.594-1-.5-2.094 1-3.593 2.5-3.5-3-3.094-5.093-1-6.5 4.094 1 2.093 4.5 1 2.593 8.188-4 3.625 1.5 4.094 2.5-1.094 4.094-2.125 5v2.5l5.125-2.5 4.687 1.125 3.5-.5 3.094 1 1.5 4.5 2.594 1.094 2.5-1.5 3.625-2h6.687l6.094 2.594 2.594-3 5.219-1.5 5.093 2.5 6.594 4.093 5.094 3.5 4.125-.406 2.687-12.094 1-8.093-4-4.5v-3.5l-1.5-3.594-2.593.5-3-2v-1.5l-1.5-1.594-2.094 3.094-2.625.406-1 2.594-2.094-.594-.5-4 1.594-3.5-1.5-.5-1.094-1 .594-4.125-1.5-6 3.625-3 .5-1.5 2.094-3.5 1.093-4.594v-4.5l2.094-3.5 1-1v-2l-1.5-3.593 1-3.5 1.094-3-2-1.5-1.594-2.5-.5-3.094-1.5-2.5-2.5-4-2.094-1.094.094-4.5-1-2.5-2.593 1.5-1.594 4-2 .5-1.594-.5-.5-2h-1l-.5 1.5-2.625 2-.5 3.5-3.594 2.5-2.593-2.5-.5-3.125-2-3-3.094-2-3-2.094-3.094 1-2-1-1.125.5-2-1-.5-2.5-1-1.593-3.594-2-2.593 1.5-3.094 2-1.5-1-2-1-1.094 1.5-3-1.094-2.125-2.5-2-3.5.625-4.594 2-5.5-1-2.5-1.5-1-1-1.5 2-.5 1.094-3.5h1l1.594-1.5 3.593-2h1.5l3.594-2 2.625.5 2.5 2-.5 2 .5 2.594 1 4 1.5 1.5 3.594 2.5 2-.906 1 2 2.594 2.5 1.5 4.5 1 3.093 1.5 3 1.5 1.5 1.593 3.594 2-1h2.094l1.5-2.5 1.5 2 1.625 3.5 2-.5-.5-2-1-2.5 1.094-4 1.5-1.5.5-1.5.594-2.094 4.593-4 2.594 1.094-1.094 4.5-2.593 5h-1l-1.094 3.5 1.5 4.125 3.094-3.5h3.593l2.094.5 1.5-4.5.125-6.125-1-3 .5-5 .094-4.094-.5-1-.593-1-.5-1.5.093-2.5-1-2 4.094-5L7516 840l.5-3v-3l-4.093-3.094-.5-1.5.593-2.5-3.593-3.5-2.5-2.594-1.5-7 1-2-2.5-1.625-.5-2.5-.5-6 3.093-2.5.5-5.094.094-5.5-1.5-3-1.594-2-5.093.407-2.5-4-.5-1-4.094 1.5-1.125-2.094-1-1-3.594 1.5-4-4H7479l-1-1.594-1.5-1-2.593.5-1-5-2.594-.5-2-3.625 2.094-3.5 2.593-2-1-2.5-.5-4.094 4 5.094-1.5 3-2.593 4.5 2.593-1 2 .625 1 1v2l2 2.5 2.094-1h3.094l2 2.094 1.625-.5 3-.5 2.094 2.5 2.5-2 1.093-1.5 2 .5 2.594 4.594h3l3.594.5 6.219-4.5 2.593-3.5 1.5.5 2.094-2.5-.5-2 .5-4.5.094-2.594-.5-4 1.625-7.5 4.094-8.594 3.687-6 3-2 1.094-1v-4.5l-.5-3.625 4.125-2.375 3.594-.5 2.094-5.625 1.593-.5 2.5-3 .094-3-7.687-9.594-3.594 8-4.594 2-5.125-2-4.593-4.594-2.594 5 .5 3.094-6.688 5.5-7.718 4-1.094 3.5-1.594 2-2.594 5.5-4.625-1.5-.5-3.094 2.125-2-2-2-3.125-.5-4.593-4.093-3-4.5-5.094-2-.5-4.094-2.594-2.5-4.5-4.125h-5.219l-2.5-1.5v-3l-1-4.094-3.593-5-3-1.594-5.188 3.5-3-3.5 2.5 1 2.094-1.5 3.094-3h3.593l4.125 3.094 4 5.5 2 5.594 2.094-1.5 3.094-1.5 4.094 2.5 3 3.625 2.593.5 3.5 2.5 3.625 2.594 1.5 2.5-.5 3 1 2.5 4.594.094 2.594-3 3.594-3 4.593-.5 1.625-2-2.625-2.094-2.5-2h-2.593l-5.094-3-.5-4.594 2.594-3 2.093-7-.5-1.5-2-3.125 2.125-1.5.5-3 4.094-2v2.5l1 1.625h5.094l4.594 3 2.593 3.094 4.625 2 2 3 3.594 3.594 1.5-1-1-2.5 2.094-2 2.5 1.5 1-1.5 1.094-1.5h2l3.093 1.5 1.5-2 .125-4 2.094-6.094-2.594-3.5-3.5-5.5-2.125-1.594-1.5-2.5-3-2.5-5.093-2.625-3.094-2.5-7.094-5.593-7.719-4.594-7.093-3.5-3.094-1.594-3.594 1-5.094-1h-2.125l-.5 1.5-4.593 1-11.282-1.594-8.218-.625h-6.188l-1.5 1-3.094-1-5.125.5-2.593.907h-3l-4.688 2-7.594-2-6.718-3.594-3.094-.5-3 2-3.094 1-4.594-.594-4.125-1-4.687 1.5-2.5.5-4.188 4.5-2 1-4.125 1-3.093-1.594-4.094 2-5.688 1.5-4-1-.625.5-2 .5-3.093.5-2.594 1.5-3.594-.125-2 1.5-2.594 2.5-5.718 1.5-7.688 2-3.5-1-1.594 1v1l-3.625 2.5-11.28 3.407-7.72 1.5h-2.093l-1 2.5-3.094 2-5.094 1.5-4.719 2-1.5 1v1.5l-5.687 4-5.094 3.5-2.594 2.5-2.625 1.5-.5 1.5-3.593 2-1.594 2-.5 3 2.594 1.5 2 2.5 7.218 2.593 3-1 3.594 3 2.094-.875 2 .5 4.094 1 1 3.5 1.5.5 4.593 4.094 1.5 4-1 2 .5 1.594 2.625-.5 4.594-3.5 5.094-.5 4.094 1.5 3.093 6.094-3.593-.5-3.594-2.094h-1l-6.188 3.5-4.125-1-1.5 1.5-5.687.5-2-2.594-.5-3.5 1-2-3-3.094-2.094-.5-4.594 1.5-2.125 1.5-2-1-3.093.5-4.594 2.5-4.094-1-3.094-2.125 1.094-3.5 1-2 .5-2.5h-2l-5.594-1.593-2.625-1.5-2-1.5-5.687.906-7.094-1.5-7.719-2.094-2.593 2v2.094l-3.094 2.5-3.094-.594-3.594 1.5-1.5 4-1.125-.094-1-2.906-3 .5-3.687 4.5h-2.5l-1.5-2h-3.094l-2.594-2.094 3.594-1 2.594-1 2.094-3 3.593-1.5-.5-3-3.093-1-1-2-2.594-1-1.5-2.125-2-.5 3.594-2.5 4.093-3h2l-1.5-2-3-3.5-4.093-5.594-1-2.5.5-1.5v-2.5l-2-3.094-6.094-6.593-5.094-2-1.5-1.5-2.094-.5-5.125.906-4.687 3-5.094 2-4.594.5-1.5-1-2.625 2-2.093 1-4.594 3h-2.094l-2 1.5-2.594 1-3.125-.625-2 1.5-3.093 1-3.094 2h-2.594l-4.594 3.5-6.218 4-8.188 3.5-7.219-.094-2-1.5-1.093 1.5-10.282 7.5-9.812 5.5-6.094 1.5-2.094 1.5-2.5 1-3.625.5-3.093 1.5-2.594.406-10.813 2-8.687 1.5-4.594-1.093h-5.094l-2.625 1-1-1-1-.5-2.093.5-4.594.406-12.313.5-10.78 2.375v1.5l-2.595 3.125-1.5-.625-5.718.5h-3l-4.094-1.5-1.594 1.5-8.719-.594-6.187 1-8.188 1.5-5.125 1.906-4.093 1.5-6.688-1.5-2.5-2.593-5.719-.5-2-3.5-5.593-1.594-2.594-1.5-2 1-.594 4-3.594 5.187-1-2.187.094-8-4.093-1.625-4.125-.5-1.094 3.5-1.5 4.625-1.094-2.125-2-1.5-6.687 6-6.72 2-5.593.5-1.5-4.094 2-1.5 6.688-3.5 1.125-3.5-1-3 .5-1.5.5-2-.5-3.594.5-2.5 2.093-3.5 4.688-7 7.219-6.5 8.187-3.5 2.094-2.5 2.094-1 2.625-4.5 4.093-3 1.5-4 2.594-2v-3l-.906-9.593-1.5-3.594-2.594-3.5-7.187-1-4.125 2.5-7.688 4.375-3.594-3 5.688-4 2.594-3-2-14.594-.875-8.094-2-6 1-6.093-7.72-2.5-3.5-5.094-7.093-10.125-4-11.594v-9.594l2.688-14.5-.5-5.593-5.094-7.094-7.094-15.625-1.281-2.719H2123.876l-1.281 1.625-1.906 2.406-2.594.688h-2.594l-4.094-1-6.593-2.5-2.625-.594-2.594 1-1.5 2.5-1.594 3.594-1.594 1.812-2 2.313-6.593 3.375-2.625 2.125-2.594 2.281-3.781 1.719-2.407.375-7.593-1-.72-.094-15.187-1.094-9.5 1h-2.812l-3.781-.5-2.313-1.187-2.594-1.407-.812-1.906-1.188-3.187-1.906-6.5-.906-5.844H1852.25zm5061.469 0 1.094 4.437 2.5 5L6924.5 518l4.594-2.5h3.094v2l-.594 5 .5 10.594-4.188 5 4.094 11.594-.094 2.5-2.5 3.125-.094 4 .5 4v2l5.594 10.093 7.593 11.594 3.094 3.094 9.219 1.5 3.5 4.094 5.187 2 5.094.625 9.219-1 3.094-1.5 9.281-7.5 5.219-8.5-1.094-2-4.625 1-2.5-2.125v-1.5l-1-1.5-5.188.5-2.5-3.094-4.093-3-1.5-2.5 2.593-1h1.5l2.594 2.5h2.5l2.094 1.5 5.125-.406 2 3 1 1 3.594-1.5 3.593-.5 2.594 3.125 3 .5 1.594 2.5 2 8.593 1.5 6.5-.094 4.594 8.094 11.594 10.218 13.719 5.594 4.5 9.188-1.407 5.218-1 11.782-1 12.312 2.094 12.813 1.594 4.093-.5 2 2 1.594-4 7.188-4.5 13.906-5.906 14.906-4 3.594-1.5 2 .125 2.094-1.5 3.125-3.625v-2.5l4.687-9.5 8.188-8.5 4.718-3 8.188-10 9.312-9.094 5.188-.906 2-3-1-2.094-6.094-1.5-5.094.5-4.718 2.5-4.594-4.094-5.594-.5-6.187 1.406-3-4.5h-5.625l-4.094-7.093-6.094-3.125-5.687 1-2.5-3-3.125-2.094-5.094 3.5-1-2 3.594-5.5 5.625-2 4.094 3.094 7.187-.5 7.094 4.125 3.625 5 3.094.5 2-.407 3.093 4.5 5.594-1.5 6.719 1.594 11.781.5 2.594-3.5-1-2.5-7.188-1-5.093-3.094 1-2 4.093-1-1-7-2.5-8.093 3.094-5 2.094 2 2.5 11.093 1.5 2.5 1.5 6.094 4.125-2 1 .5 3.093 6.5 2.5 5.094 4.094-1.5 6.688-2 4.125.594h3.594l7.187-4.5h3.594l12.312-2.375 3.594.5 3.094-1.5 4.125-.5 7.687-1 5.094 3.593h6.594l.625-2.5 4.093-3 7.188-1.5 4.094-2.5 1.5-3.5.625-4-3.125-1-7.188 1-5.094-2.093-7.718-1.5-6.594-4.125-3.594-1-.406-1.22h-331.375zm398.406 0 .063.03 6.625 2.095 3.594 2.5H7326l2.094-2.5 4.594 3.093 3.5 3 6.219.625 4.093-2 2.5 2.5 6.688 2 3.125-.406 2-4.094 15-5.406 1.094-1.437zm383.594 0 7.687 4.219 9.188 5.125 12.219 9.593 7.093 4.594 4.094.5 2.594-5 5.719-2.5-5.125-5.5-4.5-8.594-3.22-2.437zm87.094 0 1.093 5.719 1.5 6.5.407 3.625.5 3v2l.5 5 .875 11.093 1 4.594 1.5 3 4.125.5 4.093 1.594 2.094.5 1.5 2 1 1.5 3.094-1 2.594-.5 2.625-2.5 3.593-2.5 7.688-5.5 4.094.094 5 10.625 2.5 11 3 9.594 3.625 10.593-1.125 5.594-.5 1.5.406 6.5-1.5 5.094 2 5 4.594 2 7.625 12.219 3.5 6.5-2.125 4.093 2.125 3 3.5 1.5 7.687 1.594 8.188 2.5 6.125 5.094 6.093 8.125 2 7.094 3.094 3.5L7895 674l3.5 5.5 5.094 8.094 4.594 5.594 3.5 6-1.094 7.625 2.094 4-.094 2-1 3.094-.5 2 .5 3 4.593 2 2 1.593v2l.407 8v6.094l1.5 7.5 2.5 7.594 3.5 13.125 3 10.094 1.5 3.5 4.593 1.093 3.625-.5 1 3 1 4.594 4.094 5 1 2.594.5 2.5-3.094 3-2.125 3-.593 4 1.093 1h3l2.625-.875 2 2-1 3 1 4h2.594l2-1v4.594l.5 4.5 3 2.593 2.594 1 1-4 .594-4.093 1.5-3.5 3.093.5 3.125 2.093.375 4-.5 6.5 5.125 2.094 3.594.5 5.094-5.5-7.5-18.187-12.094-23.72-3.594-8.593-1-2.5-12.625-31.781-9.5-19.219-3.093-10.094-1.5-3-5.5-11.687-11.688-18.719-13.094-24.187-8.125-16.72-6.093-12.093-7.094-14.094-6.5-13.187-8.594-13.625-8.219-13.188-5-9.093-10.593-19.22-10.688-16.593-10.594-18.187-2.812-4.938zm30.5 52.719-.625 3 1.5 2.5 2.625 2.625 1.5-.5 2.093-1 .5-2-4.593-2.125 1.093-1.5-2.093-.5zm-26.72 3.406-.593 2.5v2l2.094.5 4.094 1.5 3.625-2-1.5-3-3.625-1zm29.095 10.219-1 3.5h6.125l1.593.593 1-.5-2-3.093-3.593-.5zm-10.782 5.5-2.5.5-1.593 1v3l-.625 4v6.5l-.5 4.093-2.594 3.5 1.5 3.5 3.594 1.594 4.125-.5h6.593l3.094 1 2.5 3.594 2.094 2 3 2.5 1.094.5 1 .094 2.625-4.094 3.593.094h3l.094-8.094-3.093-4L7834.5 595l-.906-11.5-2.5-2.093-3.187 9.593-3.594 1.5v6l-.625 4-3.5-1-1.594-3-.906-8.093-2.094-4.5-3.5-.5-3.594-2.594zM7672.188 638l-10.282 2.906-.5 3.5 2 3.594-4.593 2-4.125-1.094-5.594 2-1-3.5 1.5-5.5-3-.593-19.594 7-19 10.375-4.594 3.5 2 3.625 8.688 5.093 13.719 15.688 4.093-1.5 8.282-7 4.625-10.594 14.375-1.906 6.218-5 9.188-1.5.094-10.094 1.625-4.5-3.125-4.5zM7815 676.5l-6.187.5-3.625 3-.5 4v1.5l3.5 7.594 9.218 3.594 11.688 11.125 1 7.093-.5.5 10.219 10.094 4 8.094 6.593 5.094 6.688 5.125 5.5 8 3.594 4.093v6l-.594 5.094.5 8.5.906 4.594 1.594 2 2 4 4 9.094 4.594 4.125 4.625 3.5 7.187 2.093 5.094-2 3.594.5 6.125 2.594 3.593 2 2.594-2.5-3-7.594-2.594-7 .094-6.593-3-9.125-4.593-5.5-4.594-2.094-4.625-5-2.5-4.094-2-4.5-3.094-2 2.094-3.594 6.125 1.094 3.094 7.594 4 4.5 4.093 4.594 4.594 3.5 3.594-1-2-9-3.5-8.094-5.094-6.094-6.094-10.094-5-10.593-4.593-9.125-3.594-4.594-3-4-2 .5-2.125 5.5-5.688 2.5-5.187 3.5-3.5-2-1-3.094.5-5.5 4.687-7 1.094-6.094-8.687-5-9.22-5.093-7.687-4.625-7.093-2.594-6.72-1-5.093-.5zm85.813 38.813-2 1-.5 1.5v1l-.125 1.5.5 1 1.125 1.5 1.5.593 2.593-.5 2-1.5.5-2-1-1.593-1-.5-1.5-1zM7911 726.406l-1.5.5-1.094 1.5-.5 1 .5.5 1.5 1.594 2.094.5 1-.5 1.094-2-1-2zm2 6.594-1 .5h-2.094l-1 1-.5 2v2l1.5 3 .5.5h1.5l1 .094 1.094-1 1.5-2.594.594-2-1-3-1.094-.5zm-53.687 56.594-1.625 1.5-1 3 .5 4 3.125.093 1.5-3.5 2.093-2.093zm11.187 8.094-2.594 1.5v2.5l2.094 1.625 3.5.5-.406-4.625zM7899.094 809l-3.594 2 .5 3 3.594 1.5 3.594-1 2 1 .625-4.5-3.125-1.5zm-15.906.406-3 1-1.094 3.5 5.094-2 1.625 1.5 2-.5-1-3zm44.625 11.282-3.125 1-1.094 1-1.5 1.5 1 1.5 2.5 2.625 4.219-1.5v-2.5zm26 15.812 1 3.5 2 .5 1.593-.5 1-1.5-2.5-2zm35.78 7.688-6.187 2.5 1.5 4.625 5.594 8.093 4.594 7.5L7995 873l4.594 3v8.594l-.094 3 .5 3.5 1 3.094 3.093 2v4l3 4.125.5 6 3 3.093-.5 7L8011 925l3.593 3 1.5 4.5 2.594.594-.594 3-2 2.5-5.187 7.5 1 1 3.094 2.594.5.5 3.093-2.5 4.094-2.5 6.125 3 3.094 5.125-.094 6-3.125 7.593.906 10.094 6.094 16.094 4 11.594 4 7.625 1.969 5.937h8.875l-1.125-3.844-.907-6.593-3-8.625-2-10-2.5-9.094-2-12.594-1.906-11.094-3-12.593-5.5-19.72-4-10.593-5.094-9.094-3.5-9.593-3.5-8.625-4.093-8.094-3-7.594-3.594-4-3-4.594-4-8.5-5.625-9.093z" style="fill:#9faec0" transform="translate(0 100)"/><path stroke="#9FAEC0" stroke-width="10" d="M875.531 1018.25 874 1020l-2.906 3.188-3.188.718-7.218 1.594-3.688 1.813-2.5 2.093-2.406 2.094-8.5 4-5.188.594-9.218-.594-2.094.406-4.281 2.688-6.72 7.594-3.687 2.312-3.5 3.594-3.093 3-7.813 9.5-3.5 5.594-1.906 3.125-.5.5-4.906 5.375L784 1081.5l-3 1.594-5 2.906-5.687.594-6.125-.906-5.5-2.375-4.594-.813-8.688-.594-7.218.094-4.782.594L731 1083l-2.094-.5-5.718-1.094-2.875-.593-3.813.28-4.594.407-4.5.406-3.718-.094-2.594-.5-2.5-2-3.094-3.218-3.312-4.188-2.5-3.219-.375-.5-2.5-2.093-2.907-1.407-1.718-.5-2.782-.781-1.812.781-2 1L674 1066.5l-3.812 2.812-4.375 1.282-5.72 1.218-8.093 2.094-3.687 1.5-1.125.5-3 .094-3-.594-.594-.094-9.094-3-4.594-.812-10.718-.688-5.282.188-4 .187-2.093.219-4.125.406-3-.718-3.188 1-2.094.593-4.5.5-4.593 1.719-4.125 1.406-1.375.5-3.313-.312-11.5-1.188-3.594.282-1.593.406-3.813 1.594-2.5.5-1.5-.688-1.594-.812-4.093-2h-.72l-1.593-.095h-2.812l-2.375.094L531 1076.5l-2.594 1.594-2.218 1.406-2.282 3.312-4.812 4.188-5.281 3.094-8.125 4.593-6.375 3.719-2.813 2-.906.906-1.594 1.782-3.5 3.812-6.312 5.188-5 2.593-20.875 4.719-4.625.188-5.875-1.5-2.625-.688-5.594.781-4.594.625-2.906.282-2.688.812-5.718 5-4.688 6.5-.5.5-5.5 5.688-2.312 2.312-.782 3.5-.718 2.5.312 4.594-.906 4.406-1.406 2.688-1.875 1.718-2.72.782-2.093 1.5-1.687 1.812-1.625 1.406-3.282 1.782-1.5.906-2.593.5h-.625l-1.5.187-3.094.813-4.688 1.187-3.718 1.813-3.782 3.687-3.906 3.813-2.687 1.906-1.625.906-2.188-.625-5.094-1.281-3.312-.812-2.281 1.406-1.625 2.312-1.5 2.282-1.282 1.093-3.218 1.313-1 .906-1.188 1.5-.594 2-2.5 2.188-3 2.406-4.406 4.812-6.906 4.5-2.188 1.5-2.5 3.782-2.593 5.593-3.625 4.625-10.282 8.375-2.5 1.5-.718.219-.782.406-2.406 1-.5 1.282-.687 1.718 1 1.875 2 2.625 2.093 3.875 2.5 6.719 2.688 7.281-.094 5.313-.188 6.312-.218 1.782-.594 3.718-2.188 4.782-2.625 4.5-2.78 3.312-8.095 7.094-6.5 4.187-1 .313-1.218 1.406-.594 2.5.594 3.688.593 3.593 1.125 3.5-.218 4-.407 4.125-1.187 3.375-2.906 5.813-.594 4.906 3.094 5.094 5.718 5.187 3.5 4.907 1.094 3-.219 3.5-1.187 2-2.188 2.406-4.718 2.812-4.407 2.594-3.28 2.281-4.595 8-3.312 3.125-2.906 1.875-4 1.719-4.782 2.188-3.718 1.812-10 3.406-2.094 1.594-6.5 4.906-2.813 3.5-2.78 2.688-5.407 2.812-3.094.282-2 .218-3.594-1-6.718-1.812-2.282-.594-2.625.406-4.28 2.875-4 6.125-2.095 1.375-1.625.407-3.093-.407-2.907-1.5-4.187-3.093-2.094-1.5-6.594-.5-9.718.312-2.594.094-6.406.594-5.407 1.906-3 1-3.093.813-3.094-.22-4.188-1.687-4.625-2-3.093-3.093-2.282-4.22-1.5-6.687-1.218-5.593-2.594-3.626-5.188-3-4.625-.78-2.593.28-5 .907-2.907 2.094-3.78 2.906-5 6.219-3.72 2.78-7 3.5-3.187 1.813-6.094 6.188-11 7.406-1.312.906-3.907 3-2.593 2.094-3.188 1.313-1.719 1.374-2.687 2.313-3.406 21-5.594 36.094-6.844 43.437h1713.125l1.719-2.718 4.594-3.5 3.718-2 1.5-.907 2.094-1.218 2.594-1.282 2.406-1.093 1.188-1.407.906-1.593 1.5-2.126 1.312-1.187 2.282-1.812 2.312-1.188 1.594-.5 2.5 1.094 1.5 2.5 2.406 3.719 1.094 4.874 1.406 3.126 1 2.093.594 2.407-.594 1.093-1 1.407-.219.218h5215.25l-.53-.437-.5-3-3.595 1-4.125 1-2-3.094-1.593-2.5 3.593.5 1.625 2.094 2.5-1.5 2.594-3 2.594 1 1 2.5 3 3.5 1.406 1.937h23.156l1.032-1.718 1.093-2h-4.593l-.5-4.126h1l2 2.126 4.218-2 2 2.5 6.094 2.093 4.094 1 4.594-1-5.094-5.093-1-1.5-3-1 3.594-1 5.593 2.593 6.625 2.5 2.594-1-2.594-3.5-2.5-2.093h-3.625l1.625-3.5-1-2.5-3.125-1.5-4.593-1.626-4.094-4 4.094 1.5 4.593-.5 3.125 3.126 2.594-2.5 6.094 6 2 2.593-.5 2h5.594l-.5 2.5L7058 1521l5.094 2.5 4.093 2 4.532 3.531h7.687l-.406-2.437-3-4 1.5-2 3.594 2 1 3 1.906 3.437h7.25l1.062-.343.5-2.5-1-2.5 4.094 1 2.094 2.5-.438 1.843h13.125l.125-.218-4.125-3-.5-2.626 6.125-.374 2.594-3.5-3-3.626-2.094 2-3-3-2.125 3-1.5-.5v-4l-4.093-3.593-4.094-3 .594-3.594-2.594-.5h-3.594l-2-2-2-2.094-2.594.5-1.625 2v3.594l-2-1.594-3.093-.5-2.5-1-2.094 5-4.094 1-3.094-2.5 4.594-.5.5-2 1.594-3.5 4.094-1.5-1.5-3.093-3.594-3.5-5.094-1-1-3.626-4.094-2.5-4.625-.593-5.093-3.5 5.218-.5 3.094-2 2 2 5.594 1.094 2.094-.5 3 2 3.593 1.124 2.125-1.5 2.5 4 1.594-2.5 2-5.5 1.594 3.5-.594 3.5 4.594 2.594 4.094-2 2.093 1.5 3-.5 3.125.5 1.5 1.094h4.094l4.594 3.5 2.594 3.594h3.593l5.125 1 6.594 2.094 4.094 5 2.5.624 3.094-3.5.094-2.124-2.594-4H7132l-3-2.094v-2.5l2.5-.5-.406-4.5-1.594.5-1.5 1.5-2.594 1-3.593-1-.5-2.094-2.5.5-1-3-1.125-1-4-2.594-1.594-2 1.094-2.5v-5l-3.594-2.593 1.594-1.5 5.625 1.093 1 .5-.5 3 2 4.5 2.593.094 1.5 1 4.094 2.5.5-4-1.5-2 1.594-3.593 1.5 2.093 2.5 4 1.594 1 3.125-4v-2.5l.5-3h4.093l1.5 3.5 1.094.5 4.094-.406h2l-3-2.594-2.594-2.5-2.5-5 2.094-3.093-2.594-1-2.594.5-5.593-2-1-1.594 4.093.594 3.594-1.5 4.094-4 3.594-.5 2.125-2 1.5 2 1.5 3.593 4.093 3h3.594l-1.5-6-2.594-1.093-2.5-2-1.5-2.5.5-2.5-1.5-2.094 2.594-3 4-.406.594-2.094-4.094-1-3.094-3-1-2.5-3.593.375v3.125l2.593 2.5-.593 3.5-2 3-4.125-2.5-2.594-.5-1 2-1.094 4-2.5.5-1.594-2.5.594-4.125h-1.594l-1.5 3.5-2.093 1h-4.125l3.125-3 1.093-3.5 3.094-3-2.094-2.5v-2.094l3.594-.406-.5-2.094.594-3-3.094-.5-1-4-2-.594v-1.5l1.5-2-1-4 3.594-3.5-1-5.093-1.5-1.5h3.594l3.125.593-1.625 3.5 1.5 1.5 4.125-.5 3.593 1.5 2.094-3-2-4-5.094-2.593-4.093-1.5H7124l-8.187-.594-5.125-.5-6.094-1.625-3.594 1.5.5 1 2.5 2.625-.5 3.5 3.094 1 1.5 2 2 1.594 2.094.5-2.094 2 2.594 3 4 .5 1.125 3.593-4.625-1.593-.594 1.5-1 4.593-1.594-2.093-.906-5-3.594-5.094-3.094 1 .5 5.094-.593 5.5-1.5 2-.5 4-1.125 2.093 2 4.5-3-1.5-3.094-2.593-2-1 3.094-2.5-2.094-2-1-1 3.594-3.5 2.125-2-1-5.094-3.625-1-4.094-.5-3.594 5.5-3.094-1 .594-2.625-3.594-2 1.5-2 4.594-.5 2.094-2.5 3.594.5 1-2.5 2.125-1.5-.5-2-6.125-.5-4.094-5.094-2.594.5-2.5.5 1 3-1.594 2.5-.5-3-3-2-3.093 1-1.5-2.594-3.625-1-3.594-.5-1.594 2-3.5.5-3.094-2.093 3.594-1.5 2-.407 3.094-1 .594-2.593 2 2.593 2-1 4.125 2 4.093 1.594 4.688-4-1-1.594-5.688-.5-3.093.5-9.22-3.093-1.5 1.5-3.093-1.5-2.5 1-3.594-1.094-3.593 1-2.125-1-3.594.5-5.094-.5-4.094 2-1.5 1-3.093-.625-1.625 2.5 1.125 2.625-2.625 3 .5 4 1.5 3 2-3 2.625.5.5 3.094 3 2 2.593 2-2.593.5-2.5-.5-2.625-1.5-1 1-1.094 3.5-2.5-.5-2.094.5 2.094 2.5-1.594 2-1 4 2 3.093 1.5 2 2 .5 2.094-3.5h2.094l3.625.5 3 3.094 3.093.5 2-1.5 2.594-1h4.094l1.5 3.094 4.094 2.5h-4.594l-3.594-1.594-2.594 1.5-3.5 1-2.593 1v3l-3.625-1-.5-4-3.094-1.594-2 3.094-2.094.5-1 2 1 2.5-.594 3 4.094 2.5 4.594 7.594 1 .5 4.094.125 6.125 4 .5 2h-2l-4.125-2.5-5.688 1-5.094-1.125-2-3-3.093-1.5-2.5 3-2.125-5.594-2.5-2.5-9.688.906-9.812 5-5.094-3-4.094-.094-5.687 2.5-1.5-.5-2-4-4.625-3.093 1-4.5-2-1.5-6.594-1.626 4.094-2.5 5.125-1.374 4.593 4.5.5 6.093 4.594.5 3.594-1 2.5-3 2.594 3 4.125 2.094 3.593-2 2.594-3.5 6.094-.5 4.094-1 1.625-4.5-3.625-5.594-2.5-3-4.094-.5-4.594 3-3.094.907h-6.218l-1.5-3.5 4.125.5 4.093-1 2.094-3 4.594-2.5 5.719-1 1-4.5-2-2.5-4.125-1 6.218-3.5-.5-3.626 1-3-3.5-1.5-4.093.5-3.125 3-2.094 4.5-3.594 1.5 1.5-3.5 1.594-2-1-2.593-3.594-.5-4.594.5-3.093-3.094 4.093-1.406h6.188l6.719-3 4.093-1 .5-2.5 2.594-2 1-2.5-2-4-3-2.594-8.187-.5-6.72-.094-3.593 2.5-1.094 3-4-1-3.593-.5-4.625-4.094-3.094-2-2.5 1H6970l-3.594-1.625-2-2-3.093-1-5.22 4-2.5 4.5 3.5 3.125 3.595 2-1.094 3-.5 4-3-4-2.594-2-3.094-1.625-5.593 3.5v3.5l-2.625 3.625 1.5 3.5-1.094 3.5-2 2.5v-4l-2-6.125-2.5-5 .5-3 6.719-4 3.593-6.093-1.5-2-6.218.5-3.5-3-3.594.406-6.188 2.5-4.093.5-3.625 3.5-2.594 5-.5 4.594-1.094 1.5-1.5-3.094-3.594-1-2 2-1.093 3.5-3-1.5-3.72 3-2.5 2H6894l-2.594 3 .5 5.5-2.593 4-2.125 3.094-.5 2-6.594-4.594-2.594-2.5h-2.5l-2.094 3.5-3.593.5-1.625 3 4.625 5.5 1.5 2.594 1.5 4 1.593 1.5 1 4.593-3.593-3.593-4-7.094-5.72-4.5-2.5-1-.5-4.094-3.093-2 4.188-3 5.125-2.5 1.093-2.5 5.094-2 3.594 1 4.594 1.594 2.5-2.5.625-5.094.5-3 4.093-1.5 2.094-1 1-2 6.688-5 1.125-1.5-1-3 2.5 1 3.093.5 3.594-4.5 2.094-2 .5-3 .5-1.5 2.594-.5 4.625-2 2.093-.5 1.5 1.5 1.594-1-.5-3 4.094.5 7.094-.406 6.218-1.5 3.094 1.5 3-1.5 1.594-2-2.594-1.5h-6.594l-7.218-4.594-5.094-5.094-1-2H6920l-4.094.875-2.093-1-4.625 1.5-5.094-1-2.594-2.093-1.5-.5-2.5-2-5.187-1.5-3.625-.095-3-.5-4.094-1.5-2.5-3-3.594.907 1.5-4v-2.5h-2.5l-11.812 1.906-10.782-.5-3.593-1.625-3.5-3.5-5.625-4.094-.094 4.094.5 3-1 2 1.5 4 .5 3.625-2.094 1.5v6l-3.594-5.125h-2.5l.5 4.125-4.719 2.5-4.093.375-2 1.5-4.594-.5-3.094-.5-4.594 3-3.625-1.094-5.687 2 1.094-4 2-.5 4.593-.5 2.125-2-1-2 2-.5 3.094-1 4.094 1.094h3.094l4.593-1.5 1.125-2 1-3h3.094l.5-3-1-3.094-.5-3.5 2.094-2v-3.5l-1-7.094-3.5-5-6.688-3.093-.406-3-4.594-3.594-5.625-5-3.093-.625-6.688-.5-6.094 1-5.718-1.094-6.094 1.5-9.188-2.094-4.625-4.5-8.687-2.093-3.594-1.5-4.094 1.5-1-4.594-4.125-.5-8.593-8.125-2.094-4-10.313 4.406-12.28 6-5.095 2.5-5.718 3.5-1.594 3 .5 2.5 2.094 1.594-.594 4.5-2.5 3 1.5 3 4.594 2.625 2 3.5-.5 2-2.594 1.5v2l-1.094 5.594-4.094 3.5.5-5.594.594-5.5 1-3.5-2.5-1-6.219-1.125-1-3.5.625-6.594h-3.125l.625-5.5 1.5-3-2-3.594 5.094-2.5 1.094-4-2.5-5.5-3.094-7.093-.406-6.094-2.594-3-4-4.5-2.094-5.625-2.5-1.5-5.125-1.594-7.187-2h-2.5l-5.094-4.094-6.719-4.593-3.5-2.5-4.093-2.5-5.094-3.594-5.094-2-4.594-5.625-3.625-2.5-5.093-2.094-3.594-3.5-1.5-1.594h-6.594l-2.094-1.5 1-1-3-1.5-4.125-1.593-1-3.5 2.5 1 3.625 1 7.688.094 3.094-.5 2.5 4 4.593 1.094 2.625 3 4.094-1.5 4 5.093 8.688 2.625 3.093 3-.5-6.625-1.5-2.5-6.593-7.093-11.688-12.094-6.219-.094-1-2.5-1-3.5-4.593-2.594-2.5-2.5v-3.5l-4.594-2.125-2 .5-2.094-1.5-1.5-3-3.594-.5-4.625.906-4.593-6-3-1.594-7.188 1.5-5.719-3 5.22-.5 6.093-.5-1-5.5 1.094-2 2.5 2v2.5l4.593 3.094 1.5 2.5 4.125 2.5 2.594-.5-.5-2.5 4.094 1.5 3 3.094 5.094 2 7.718 6.125 3.594 1.5 1.5 1.094 3.094-1 2.5 1.5 1.594-1.5 2-.5-2 2-1.094 2 3.094 2 3.593 2.094 3 2.5 2.125 1.5 2 1.093 1 1 2.094 2 11.188 9.094.5 2.5.5 2.625 2.5 2.5 5.093 6.594 8.72 6.094 5.093 4.5 4 5.593 2.094 1.5h2l4.093 1.094 2.625 1.5 7.094-.5 3.594-3-2-4-1.5-6.594-.5-3.5.594-1v-5l3.093 2.5 3 5-.5 3.594 4.625 2 1.5 4-2.125 3.125 1.5 2.5-2.593 3 1 3 3.093 1.5 6.125 3.094 2.094-.5v-2l2.594-.5.5-2.5 1.594-2.5 2.5-.5 5.718.5 8.188.594 4.594-1.5-.5 1-2.594 3-6.688 1.5-5.125-.594-2.593.5 1 1.5 3.093 1.594-1 1.5-2.593 1.5 3 2.5 5.718 3.093 8.094 3 3.594 1.594 1 1.5 2.594-1 8.218-1 1.594-1.5.5 1.5 6.094.125 6.687 1 5.125 1.094 2-.5 2.094-2 1.5-1.5 1.594-2 1.5.5 1.594.5 1.5-.5h2.593l-2.093 2.5-3.594 2-2.094 2 1 2 3.094 1.594 4.594 1 5.593 2 15.907 2.093 5.718-5-.5-6 2.594-8.594-.906-8-1-6.593 3.094-9.5 4.718-9.094-1-4 1.594-4.5 7.688-7 1 2 1.5 4-2.5 3 1.5 5.094-3.688 6.5-3.094 10.594-.625 7.5 1 3 3.125-2.5 6.188.093 5.094-4 5.593-.5 3.625 4-5.625 1-3.093 4-7.688 2-3.594 2.5-2.625 3.5-2.687 9.094-1.5 1.5v4.5l4 6.625 7.687 4.594 9.72 2.5 9.687 4.594 2.593 2 3.5 2.094-.5-4.594 4.72-2 6.593 3.594 5.094 1 1 3.093-8.188.407 2 4.093 5.094 4.5 4.187-3 7.22-2.875-1.095-2.125 1.594-2.5 4.094 1.125h9.187l7.72.594 8.187-3 2.593-4.5.625-4.094-3.125-4 3.125 1 4.594-1.5 1 4.594-.594 6.5-1.5 4 1.5 3.094 6.094 3 12.281 2.594 4.125 1.5 5.094.093-7.094-8.093 7.188 1.5 4 1.094.094-3.094-4.094-3 .5-2 1.594-2-2.594-2.094-2-5-4.094-2.5.094-7.594 2.5 3.5 5.094 1.094 2.094 3 1 2.5 5.125 2.594-.625 4v3l5.125-.406 1.594-3.594-2-4 6.093 1 .594-3-2-6.5 4.094-6.094 2 2.094v4l-.5 2 2 2.5v6.094l.5 2h4.625l3.594.5 3.5 2.624 1.5 4-3 .5-2.594-1.5-3.625 2-3.094-1.624-2 1-2-1.5H6986l-2.093 5.5h-3.594l-.5 2 4.594 3.624 3.5 2 .5 4.5-5.094-.5-4.125-2.5-.5 2.5 6.625 5.094 8.187 2.5 12.813 3.094 9.187 3.594 4.094-1 4.094 1 12.219 5.719 3.093 2 8.688-.5 7.719 1.093 2.593-1-1-2.5-1.593-2 .094-2.093-3.594-2.5-2-6.626.5-4.5-1.5-3.5-2.5-2.593-1.594 2-2.125 3.594-2.594 7.5-4.593 3.5-.5-6 2.593-6.094-3.593.5-3.5-1.5 3.093-3.5 4.594-2 2-2-1.5-3.094-5.594-2-2.593 2.5-3-3-5.094-1.094 2.5-2.5 3.094-1.5 3.593.5 1.5.594.094-5.594 2.5 2.094 2.625 5 4.5 2 1.594-4.5-4.094-3-3-3.594 1-3.5.594-2-7.719-4.593-4.093-3 .593-3.5-3.093-6.626-2-1.5-4.094 3.5-7.688-.093 2.594-3.5-1-2-9.219-5.594 3.125-1.5 9.688 2.594 3 2 6.187-.5 3.625-3.5 1.594-4-1.5-6 2.594-9.094 2.094-2.5-3.094-2-3.094-1-6.594-1.594-4.625-2-3.093-4.094-.907-5-2.093-4.125-5.594-4.5-2-3.093-2.094 4.093-1.5 3-1-4.593-1-5.5-2.094-2-2.625 4.5-3 1-2.593 3-6.188 4-5.594.406-6.218 4.5h-3.094l-2.094 2.5.5 4.094-6.219 3.906 2.625 3.594h-3.625l-3.093-1.594 2.093-5-1.5-1.5-4.093 2-2.094-.5-4-5.594-2.594-1-5.094 2-6.718-.594-5.594-4-1.5-5.625-1.5-3.5-3.594-4.593 1.094-3-3.094-4.5 1.594-4.094 2 2.094 2.594 3.5 2 5.093 6.593 6.5.5 4.125 4.625 1 4.594-2.5 7.188 1.094 3.593 3 7.625 1.594 4.688-3 2-1-4.094-2.594 3.094-1.5 2.594-2 .593-5 3.5 2.5 3.125.594 6.188-3 1.5-3.5 2.594-2.5-1-2.094 4.093-1 5.125-1.406 4.188-2 4.594 2 2.5 1 1.093-1.5 3.625-4-1-3-5.125-5.594-2.093-1.5-4-2.5-2.094-2.594h-5.094l-6.594-3.125-1.125-2.5-2.5-1.5v2l-1.093 7.125-3.594.375-3-2-4.594-3-1.594-3.093-8.718 2-3.5-4.094-5.688-2.5-3-4 1.594-5.094 2 4.094 4.094 3.5h4.593l2.5 2.594 7.72-4 4.093 4.5h1.5l.594-3.5 1.5-3-3-1.5-2-4.594v-7l2.093.5 2 1.5 3.625-5-.5-3.5 6.188-5.5-.5 5.5-1.094 5-3.594 6.094-1.125 2.5 3.125 2 1.5 3 3.094.593 3 4 6.188 3.625 9.718 1 4 5.594 5.594 5.594 4.094 1.5 6.687-.5.5-1.5-3-2 1-2-1.5-3 2-2 6.72 2.5 6.093-.5 2.094-4.5-1.5-5 4.093-2 4.625 2 5.188-2.5-.594 3.594-5.094 2.406-1 1.594.5 3 6.594 1 5.594 2.593 1.594-1.5 3.593 1 5.625 6.625 1.5 2 2 .5 2.594-4.5h3.594l7.187 2.594 4.125 2.5 1-2.5-2-3.5 2.594-8.594 1-1.5.094-4 4.094-2.5 1 3.5-1.594 3-.5 5.094-1.594 3 .5 3.5 3.094-1 7.094 3.594 2.094-2 2.625-3 2.5-.5 2.093-2.5h3.594l3.594 1 3 1.594h4.094l8.312-6 3.094-13.094 1.594-4.5 4.625-2-3-2.5-3.625-1.094-5.094 1-2.594-5 1.594-3.094-1-3 3.594-1-.5-6 3.125 1 1.5 1.5 2.593 2.094-.593 4 1.5 3 4.687-3 1.5 1-1 2.5-.094 3.094 4.094.5 1.594 2 .5 3.5 2.5 1.094 5.593 2.5-1.5 5-.593 4.593-2-1.5-1.594-.593-1.5 4.093-.594 4.5-1.5.5h-1.594l-.5 4 2 3-2.625 6.125v2.5l1.5 4 3.125 1.594-3.125 1.406-3.093 1.5-1 2.594 2 2.5 2.093.5h5.625l4.094 3.094 6.594 2.5 2 3.594 3.094 1h4.093l-2.093 2-2 2-3.094-1.5-5.594-3.094-5.094-2-3.625-2.5-3.093 1.5-2.5-1.094-1.594-1-3 .5-1.5-3-2.094-1.594-1.5 2.594-4.219 3-3.093 3v1.5l1 2.5-.5 5.5.5 4.094 2.5 3-2.594.5-1.5-.5-1-2-2-3.094-.5-5-2-4.094-.5-2-1.594-.5-2 1.5-3.094-1h-2l-2.125 1.5-5.593-1.625-3.594-1.5h-2l-2.594-1.5-4.094-2.093-2.625 1-3.5-1-2.093-1-1.5 1-2.094 1-1.5-1.094-4.094 2-8.219.5-3.593-1.5-2.594-1.094h-4.094l-9.719 2.5-3.593-.5-2.594-.094-1-.5-1 2.594 3.5 4 5.187-1.5h3.625l3 3.094 2.594 2-4.719-.5-3.5-2.094-1.093 2.594 5.718 2 6.594 3.593 2.5 4 .5 4-1.594 13.094 3.5 2.625 3.094 5 .5 2.5 4.094 2.094 3.594-2-.5-2.5 2.593-1.5-2.593-3.594 3.593-1.5 2.625-2.5-2.5-4.5-1.625-2.5 2.625.5 3.594 4 2 1 3.594-1.406-.5-2.594-3.094-2.5-.406-3-2.094-4.125h2.094l3 2.625 1.094 2h4.093l-1.093 2.5 2 2.594h2.593l4.125-2-1 2.5-2.125 2.5-1 3.5 3 2.094 5.125 1 5.188-1.5.5 1.5-1.594 1.5-2.5 1 2.5 1.5 3.094.593v2l4.094 2 2.5 1 3.093.594v1.5l2.5-.5-1 2.5v2l3.5 2.125 1.125 1.5-3.125.5-4.093-2.125-2.5-4-3.594-2.094-1.594 1.5h-1l-2.5-3-2.594-1.5-2.125 4-2.5 1.5v-5.094l1.125-3-2.125-1.5h-4.593l-4.094-1-1.5-2.593-2-2-3.094 1.5-1.094 2-.5 5 1 1.594-2.625.406-2-.5-2.093 2.5-.5 2.5 3.093 1.594.5 1.5-3.093-.5-3.094 1.5-1 2 2.5 1 1.5 4.5-2.5-2h-3.594l-.594 3.5-1.5-2-2-.5 1.5-2.5 1.094-2-1-2.094-3.594 2-4.218 2.5-2 5 3.5 2.594 4.093 4 1.5 2.593 2.625 2.5 8.094 1.594h2.094l.5-2.594 1.094-3 1.5 2.094.5 1.5 1.5 2 2.593 1 2-1.5 1.625 2 1.5.125 1.594-3.125-2.094-2v-2l-3-1.5.5-1.5.5-4.094 3.094 1.594 2 2 2.094 2.5 2.5.5-2 2 .5 2.625 4.094-1.5 3-.5-.5 4 1 2.5h2.093l1.5 3.094 2.5 2.5 3.125 2.594 2 2.5v4.5l-3.125-2-4.093-2.594-2.5 1.5-1.094 2-2-3.5v-2l-1.5-1.5-.5-2-3.094-3.094h-1.5v2l-4.094 1.5-.5 1.5 3 4.094-2-.594-1.125.5-2.5-1.5-2.093-2-.5.5-.5 5-2.594 7.594-2.594 4 1 1.5 1.5 2.5 1.594-2v-1.5l3.5.5-1 1-1 1.5V1296l1.5 3 7.594 4.593 3.593 1 3.125 2 1.5-1.5v-2l3.594-1.5 3.094-2.5-1-3.5-6.594-.5v-1.594l4.094-1.906 4.094.5 2 3 2.593 1.5 1 2.594 2-1-3-4.094 2.625-2.5 2.5 3.594 3.594 3v1.5l2 3.125-4.594-1.125-2.625 2.5 3.125 2.625-.125 1-2.5.5-5.093-2.125-.094 3 1.593 2.125.5 2 3 .5 2.594.5 1-3 1.625 2.5-.625 3 3.625 1.594 1 3-3.625-.5h-2.5l2 1.5 3.625 2 2.5 1 2.594 3.094 3.094-1 2.5-3 1.093 2-1.093 2-.5 1.5 3.593.5 3.594-.407 1-.5-1-2.594-1.5-2 1-3-3.594-2 1.094-2v-2.093l-4.094 1 1-3.5-2-2.5-2.5-4.094-1.093-1.5.593-.5h3.594l.5-3-2.094-1-4.5-4.625-3.093.5.5-1.5 2.593-3v-2l-.5-2.5 3.094.5.5 4 .5 1 1.5-1.5 1.625-2 1.5 1-.5 2.625 3.594.5 2 2 2.5 3 1.594-2-2-4.5 2.5 1.5 1.593.5 2-1.5-.5-2.5-2-3 3.094 1.5 2-1-.5-3-2-1.5-4.094-.625-6.187-2-1.406-6.094 2 .5 2 2.594 3.593-.5 3.594 3.5 3.125-.375-2.125-4.125.125-3-2.625-1 1.625-2 1.5-2v-4.594l2.594 1 1 1.094 1 4.5-1 3 2.5 1.5 4.094-2v2.125l-3.094 3.5 1.5 3.5H7172l-.094 2.5-.5 3.594-2.594.406-1 2.594-2.125.906-.5 6.594 2.5 1.5-.5 2-2.594 1 1.594 3.594 2.5 2.5 2.625 1.5.5-3-2.125-2.5.125-3.094 3.594-1.406 4.593 1.5 2 5.5-.5 2.593 2.5.5 1.594-5.5-2-4.594-4.594-3.5v-1.593l-1.5-1.5.5-.5 1-2.5 3.594 1.5 2.094.094v-2.094l3.5.594 2.125-2 2.094-3.594 2.593-3 1-2.5-.5-3-2-.5-3.593 1h-2.094l2.094-3.594-1.5-2-4.094-1.5v-2h2.094l2-3.5 1 2.5 1.593 1.5 3 .5.594-2 1.5 1 2.594 1.094 2-1 2.625-2 4.094-.5 1.5-2-1-1.5-2-.594-2.094 1-2.5-.5-3.625.5v-1l2.625-2.5-2.625-2-1.5-6.625-3-2-4.188 3-3.093 4h-2l1.5-3-1.5-1.593-.5-3H7186l1.594-1.5-.5-2.5h1l2.594-1 3.125-2.5v-2.5l-1-2.5-.5-1.5-2.625 1.5-1.5-1-1.5-1.094-5.188 1-4.093 1-2-2.5H7178l4.094-1.5 4.594-.5-1-2.5-1.594-2 1.594-.5 2.5 1.5 1.625 2.5 3 .5 2.594.594 1.5 3v3l2.5 1.5 3.093.593 2.094-3 2.5.5.094-2.5 2.5-3.093.625-3 2 2.093 4.594 1.5 3.094 1.5 5.093.625 1.5 4v2l-2.593-2.5-1.5-.5-3.594-.125-3.5-3h-2.594l-2.125 2 .5 2v3l-1.5 1 1 2.625-1.594 2.5-2-2.625h-1.593l-3 1-2.594-1v2l1.5 2.5H7204l1.5 1.625 3.093 2 5.094 4.094 3.5 4 4.625 2.094 2.594 3 .5 2.5 2 2.5 1 2.094-2.094 1.5 1.594 2.5 1 2 2 1-1 1.5-1.094.5v1l1.594 1.093-.594 1.5-1.5-.5-1-.593-1 2.593 2 3 2.5.5 2.594.5-.5 1.5-1.094.5 2.094 3.625-2.594-.5-2-1.625-2.625-1-2 1.5-2.094-2.5-2.5-3.093-1.593-.5.5 2.5 1 2.093-1 1.5 1 1 2.593.5v1.5l1.5-.5 3.094 3.625 4.125 2.5-1.625 1-1.5 1.5 1.5 2.5.5 4.594.5.5 3.625-3.5 2 1 2.094 1h2.5l2.094 2.094h1.5l2.5 2.5v1l-1.5 1.5 1 1.5 2.093-1 1 1.5 1.5 1.094 1.5 3-2.593 2.5-1 .5-.5 2 3.093 1 1 2.093-.593 3-2-.5-.5 2-5.188.907-3.625-.5-2-1.5-2.594.5-2.5-.5 1-2 2.094-1.5-3.094-1.594-3.093.5-5.094-2h-3l-3.594-1.094h-2.625v1l-.5 2-1.5-1.5-.5-2-2.094-1-1-1.5-1.5-.094-1.093 2.094 1 2h-2.5v-2.594l-1.594.5.094-2 .5-2-1.594-.5-2 1-2.594 1-1 .5.5 2-1.625 2 1.625.5 2.5.5v2.094l-2.625.906-.5.5-2 1-1.593 1 2 4.094 2.093-2.5 3.125-2.5 2.594-1.5 2.5 1.5-.5 2.5-1 2 2.5.594 2.594-3.594 1-1 1.094 1.094-.094 2.5 2.093 1.5 3.094-1.5 1 .5v3l-1.094 1.5 1 2.593-2.5 1-2.593-.094.5 2.094v3l3 1.5 4.187-3.5v-1l2-1.5 1.125-3-1-4.094 1-.5 1.594 1.094 1.5-2 .5-2.094 3.094-.406 1 1.5 2.093 2 2.5 1.5 1 1 2.594-2.5 2.625.094 2.5 1.5 2.594-1 1.5 1 1.5 1.5 2.094 2.625 1.5 2-.5 1.5 3 2.5 2.093-1 2.594-1 2-1-1.5-1.5-3.094-.5-2-2 2.594-2 3 1.5 3.625 3.5 2 .594.594-3.594-1-4-2.594-3.5-.5-3.125h-1.5l-1 1.5-1.125 3.625-1.5-.625-1.5-2-.5-2-1.5-2.5v-2.5l1.5-1 3.125-1.5 1-1.5-.5-2.094-2-3-2 .5v-1.5l-2.125-2.5-1.5-2.594-.5-1.5 1.625-1.5 1-2 3.094-.5 1 1 1.594-4.5 3.093-1.5 2-2-1-1.5-3.093 1-2 1.5-3.094-1.5 2.594-2.593 3.593-.906.5-1.5-2.593-1.594-2-2h-4.094l-1.5-2-1.594 1-2 1.406-.5-2 1-2-1-2-1.5-2.5h3.094l3.5 3.5 3.094.594 2.093-1.5-1-2.594-1.093-3-2-2-2-1.5 2.5-1 2.093 1.5 2-1 .5 1-.5 1 2.094 2v1l1 .594h1.5v4.5l3.125.5 1.5 1.5-.5 1.5 3 2.094 2.094 1 1 2 1.5 1v5.093l1.5 4 3.5 1.5 2.094-.5 2.593 1.094 2.5-.5h2.594l1-1v-3l3.125-2-.5 2.5.5 3-.5 2.5 1.5 3.125-2.625-.625h-4.094l-1.5-.5-1.093 2.5-.5 2.5v4.625l1 4 2 1.5 3.593.094 2.094-1 2.5 1h2.125l.5-2.5v-1l3.594-2 1 1.5-.5 3.5 1 2 3.594.094 3 1.5 2.593 2.5 2-2.5 3.094-1 2.125-1.5h2.5l-3 3-2.125 2.5 1.5 2.094v2l-2-1-2.094 1.5-2.593.5-1.5 1.5-2.594-.594-3.094.5-2.5-2.5h-2.125l1.125 1 1 2-2.125 2 2 1.5 1.625 2.594 2-2 3.594.5 3.094-.5 1.5 2.5.5 1.5 3.093 3.594h5.094l1.5 2 2.125 1.624h5.094l2.5 2.5H7339l.5-1.5 1.593-1 3.594-1.5 1.5-.906.5-1.593 2.625-2 1.594-3.5-1-1.5-1.094-2.5-3.5-1.5-1-1.126.5-2.5-1.5-.5-1.625-1.5 2.125-2 1-2-2-1.5-1.5-1.093 2.5-1.5v-1.5l-1.5-3 .594-6.5 2.594-2 .5-3.094 1-1.5 1.093-4 1.5-2-1-1.5v-1.5h3.594l2.625 3.5 2.5 1.094 5.188-2 2.5-.5-2.094 3-1.5 2-5.094 1-2.625 1-1.594 4.5-2.593 3.5v4.5l1 4.094 2.593 1 2.5-.5 1.5 2 3.594-1 1.625 1.624-1.125 2.5 3.625 2 4.094.5 1.5 1.594 3.094-2 2.593 1-1.593 1-1.5 3-1.094 3.5L7375 1348l2 3 2.5 2.5-1.5 1.5.5 2.094 1.5 2 2.093-3 3.094-3 3.125-1 1-2 1.5-1 1.094.5 1.5 1 2-.5v3l.5 1.5-1 3.094 3 2 2.594-.5.5-2 1.593-1.5 4.094.5h3.625l2-3.5 1.594-2.5 5.594-2.5 3.593 2.124 2.094 1 2-1 4.125 1.5 4.094 1.594 3 3.5 1.094 2 1 1.5-2.594 3-.094 4.094-2 1.5-3.125 1 5.125 2 3.594.5 6.687-4-1.5-2.5-3.094-3 1.094-3.5 3.094-1 .5-1.5 2.625-2 4.094-.5 2.5-2-1.5-3.594-3.594-2.5-2.5-3 .5-2.593.094-1.5 3.594-4 2.5.5 1.593-2 3.594-.407 1.5 1.5.5 1.5 3.125 1.5 3.594-.5-.094 2.094-.5 1.5 4.594-2 2.593.5h1.5l3.594-3 .094-1.5 3.625-3 3-.5h3.594l1.094-1.5 2-2-.5-1.5v-1.5l2.593-2.5 2.594-1 5.125-1.5 2.094-1.5.5-1.5 2.594 1.5 3 .5 3.093 1.594v-3.594l1.094-2.5 2.625-4 4.094-4-.5-1.5-2-1.5-2.594 1-3.125-1.094-3.594 2.5-2.093 2-3-1 2-2-.5-2.5-1.5-1.5-4.094-.593-1.5-3 2.594-2 1.5-3.5 1.093-4 1.594-4 .5-2.626 3.625-1.5 2.594-3.5 3.094.126 4.093-2.5.5-1.626-4.093-3.5-2.5-1.5 1-1.5h2.593l2.5-1 1.594-1.5h2l2.125.5h2.594l-3.094-4-3.125-2.093.625-2-.5-1.5h-1.125l-2.5 3-.5-2.5-1.594-.5-2.5-.5 1.5-1.5 6.22-2-1.5-1-1-2.594 2.5.594 2.593-.5 3 1.5 2.594.5 1 2 3.593-.406 3.594 2 3 1.5-1.5 1.5.5 1.5 2.625.624 3-.5.594-2.5 1.5-2.5 2.094 1 .5 3-1.594 1.5-1.094 4-1.5 1-1.625 3 .5 1.5 1 3.594.5 2 3.125 2 4.094-1.5 2.094.594.5-1v-3.594l.5-2.5 4.187-3.5 2-3.5.125-3.5-1.5-6.593v-5l-2 .5-2.625-2.126v-3l3.125-2 1.094-2.5h2v-2l1.094-1.5 4.093-1 4.094-3.5 2.125-6-4.125-2.093 3.125-2 2.594-1-.5-7.5h-5.594l-4.125-2.594-3-5 3 1 4.625 2.5 5.094-.406 1.094-2.094.5-2.5 4.687-7 1-2.5.5-1.5h1.125l3.094-1 6.594-3.5 2.593-1.5 2.594-.5 3.625-1 3.094-1.5v-2l.5-3-2-2.5-3.094 2.5h-3.625l3.125-3.5.5-2.094-3-2.5-3.625-1-6.687-1.093h-3l-6.188 1 2.594-3v-5.626l2.094.626 6.093 2 3.594-2.5-2-8.626 2.625 1.626 2 2 4.094 1h2.594l2 2.593 1.5-.5 4.187-5.093 2-2-2-1-.5-2.5-1-2.5 2.625-.5 1-2v-1.5l1.094-2h2l3.594-2 .5-2.5 1.093-1.5 2 2h3.094l6.719-1.5 4.594-1.5 8.187-3.907 4.125-3-1-2.093v-2.5l2.094-1.5 2.094-2v-1.5h-5.688l-1.5 2-2.625 2.5-3.594 3.5-1-.5 2.594-4 .5-3.126-.5-2v-3.5l1.125-2 1.5-4 2.094-1 2 1 2.594-1.5h5.593l1.594-1-.5-1.5.5-4 1.125-2 3 .5 1.094-.5v-1l1-2 2.594-1.5 2 1 5.187 1.126 3.625-2-2.125-4.126v-1.5l.125-3.5-1.625-1.5-2-1.593-2-3.5-2-3-5.094-3.094-.5-2.5-2.093-3-3.5-3.094 4.593 1.094 2.5 3.5 1.594-1 1.5-2v-4l1.125-4.594 2.094-2.5-1-3 1-6.5 2.094-2.593 1.593-2.5-1-5-2.093-.5-1-2 .5-2.626-1-3-4.094.5.75-.937zm6798.094 0 1.969 3.563 2.094-1 4.125-.5 3.593 1 3 4.593 1.5 1 3.094-2h2.094l-2.094 2.5-2.094 2-1.5 1.5-2.593-3.5-.5 1.5 1 5-1 1.5.5 1.5 1 2.094-2.125 3-.5 3.5 1.5 3 2 2 1.625-.406 2.593-2.5 1.5.5 1 1-2 1-1.093 2-2.125 2 2.125 1 4.093 3.094 4 4.5v3l-.5 6.125 2.5 3.5 2.5.5.594-1 4.594-1 5.594-.907 4.718-2 .5-1.5 3.594-4 3.094-1 3 1.5 1.594 1.5h2l1.125-1.5.5-3.5v-3l2.593 4 2 4.094 1 5-.593 3h-1.5l-2.125 1.5-4.094 2H7730l.5 3-1 2.5-2.594 1.5h-4.593l-3.125 3v1.5l12.812-.406 4.094-2.5 4.094.5 3.125-1.5 5.687-.406 11.813-3 4.093-.5 2.5-1.5 6.188-2 2.094-2-1.594-1.5-5.594-4.5-2-4.594-.406-5.5 2-1.5 2.594-3.5 3.625-1.5 2.593 1.5 2.5-1 3.094-1 1-2 1.594-1.5 5.719-3 6.093-.5v-4.5l.594-5.5 3.594-3 2.094-3.5 2-1 2.125-2 1.593-1.5h3l2.594-1-2.5-3.594-1-2-.656-1.25zm372.031 0 1.032 3.156.5 10.594.406 5 1 4.594.906 14.094.5 9-1.187 25.218-1.625 7.594 1 3-1.594 9.094-1.594 3v6l-3.094.5-2.593 5-1.125 5.094v3l3.625 4.5-.125 3.625-3.594 4 .5 4.5 3 3.5-1 5.593-1.781 26.188-.125 14.094-.594 16.625-1.594 6.5v3.593l-.594 5.5-1.093 9.594v9.594l-2.22 11.5.907 18.719-1.594 8-2.718 13.593-2.594 5.5-3.594 3-2.094 5.094-2.093 4.5v4.5l.5 4.594-1.625 5.5.5 6.094.406 5v1.5l1.5 6.125v8.5l-.594 9.593-2.094 8.5-1.593 8.094-1.125 10.094-4.188 9-2.594 4-7.718.5-20.5 6.406-7.688 1-6.187 2-4.625-1.094-3.594-.5-4.094-2.5-3.094 2 .5 5-1.593 4-4.125 2.5-7.188 5-7.687 5-7.22 7.5-5.687 6-4.093 3-6.22 2.5-3.593 1-7.687 3-6.22 4-4.093 2.5-3.094 2h-2.093l-5-5.593-3.625-6.625.125-3-4.72 3.5-3.593 4-1.594 4-.5 5.625-3.093-1.125.5 1.5-2.125 4.125-5.094 4.5-1.094 3.5-4.094 4.5-4.593 2-5.22 2-6.593-1.625-2.094 3-3.593-3h-3.125l-4.594 4-2.594 4 2.594 3 3.5 2.125h4.094l4.625-.5 4.187-2.5 12.313-6 14.375-6.907 11.312-5 7.688-3 7.218-3 8.188-2.406 6.719-3.5 5.687-3 6.094-1.5 5.719-2 6.187-1.406 8.688-3.5 6.218-1 7.688-2 7.719-1.906 6.093-2.5 8.782-1.5 8.218-.375 10.188 2.593 6.594 1L8005.5 1459h5.094l4.094-1 1.625-2.5 1-6 2.687-10.094.594-9v-11.093l2.719-11.625 2.093-8 2.188-13.594 1.594-16.688 2.218-11.5 1.094-12.593 1.094-10.125.594-7.594.5-7.5 1.125-5.5.5-5.094.593-7 2.594-8.594 2.094-7 2.719-13.593 2.78-31.22-.405-11.593.625-18.187.687-22.125 2.813-27.688-.5-9.594 2.687-12.593.594-8 2.094-9.625 1.625-9.594 2.187-18.594.094-14.094 1.094-15.093.125-7.625-1-8-.407-10.594-1-2.5-.5-2.594-1-5-1-6-1.375-4.75zm-338.156 65.156-2.594 1.5.5 3 2 .5.5 1 1.594.094 1-.5.5-5.093zM8041 1102.5l-4.094.406-2.093.5-.5 1.5 2 2.094 4.187-2.5zm-36 80.906-2.594 3 .5 4.5 2.594.5 2-2.5 1.094-3.5zm-491.187 102.907-3.625 2-.594 2.5v1l4.594 1.093 3.125-2.5-.5-2.093zm8.375 32.28-2 4 1.5 3.5 3.125.595 1-3.594-.5-4zm-534.688 27.095-6.594.5-2.093 2.5 3.093 1.5 5.594.625h6.094l2.094-3-3.594-1zm218.313 5.312-4.625 2.5-.5 1.5-.094 2 3.093 3.094 4.125 3 2.5-.5.094-3-1-3.5-2.093-3.594zm55.78 3.906-1 .5-2.093 3-6.594-1.593-3.093-1-3.625 2-2.094 4-1.5-.5-.5-2-2.5-.5-3.594 1.5 2 4.5 2.5 3 .5 3.093 2.094-.5v-4.093l4.594-.907 4.125-3.5 4.687-1 7.094 1h3.594l2.125-1.5 3.093-2-1.093-1.5-2-1-2.125 2-3 1-1.094-1zm66 14.5-3.593.907 3.594 3.593v4l-3.594 5.5-.594 4.594 3.594 2.5 4.094 1 4.094 2.094h2.5l6.718-5-4-6.094-2-6-4.093-3.094-1.5-3zm594 1.407-2.593 1.5 2.5 4.093 3.594-.5 1.594-3-2.5-1.593zm-26.187 4.375-2 1.5 2 2.5 2-.5 2.094-3-1.5-.5zm-805.593 6.406-2.125 1-2 .5-1.594 1 .5 1.5 1 1 2.594 1 2.625.5 3-1 1.593-2.5v-1.5h-3.093zm823 .312-1.5 1.5 3 3 4.593-1.5-1.5-2-1.5-.5zm-28.22.782-2 .5-1.093 1-.5 1 2 1.5 2.094 1.5 2.594-2-2.594-3zm11.813.625-2.093.5-1.5 2 4.093 3 3-1 .594-3zm-28.218 1.28-.5 2 1.5 1-.5 3.595 2.5.5 3.125-1.5.5-3-3.5-2.594zM8007 1398l-2.094 2.5 2.5 6.094 2.594-8.5zm-65.812 19.813-2.594 1.5v3h2.094l1-1.5 3.125-.5 1.5-2h-1.5zm-137.5 85.875-3 1.406-4.188 2.5-16.406 7.5-9.281 5-11.313 6-7.531 2.937h16.625l16-6.343 11.906-7 5.688-6.5zm-45.594 5.218-3.094 1.5-1 3.5 2 4.094 3.094.5 2-1 .094-5.5zm-571.406 4.188-1 .5-1.594 1.5-1 3.094 7.094 4.5 2.125-2 3.593-1-2-5-2.593-1.5zm557.5 3.312-2.094 2v3l2.094 2.094 3.5.5 2.625-4-2-2.594-3.125-1zm-12.875 7-2 3.5 1.062 2.125h4.656l1.469-4.625-3.094-1zm-702.5 3.407-2.625.5-3.5 1.718h8.343z" style="fill:#9faec0" transform="translate(0 75)"/><path stroke="#9FAEC0" stroke-width="10" d="m25.656 1529.031-19.75 125.47L0 1689.593l173.594 9.219 41.406 2 70.813 3.593 64.78 3.188 5.907.5 3.094.094 27.094 1.219 2.312.094 76.094 3.187 31.312 1.125 6.688.281 12.906.813 26.094.906 25 1.375 29.5 1.5 41.219 2 .5-5 52.875.813 12.312.5 59.813.5H764l23 .906 303.906 4.187 18.594-.094 33.5-9.5 56.813-16.094 68.187-19.312 4.188-1.188 28.218-8 1-.312 9.782-2.594 15.906-4.812 10.719-2.782 42.093-11.093 4.094-1.125 23-6.094 1.594-.5 2 1.094 1.406 1.125.406 2.5-.312 2.375-1 3-1 4.625-.5 3 .5 1.5 1 2 1.5 1 2.094.28 2 .313h3.125l3.687-.718.906-.188 3.594-.594 2-.5 1.688-.218 1-1 .406-1.282.5-2.218.594-2.282.718-2.218.282-1.875 1.312-1.125 2-.5 1.594.625 2 1h1l2.094-.5 1.812-1.407 2-2 2.594-4.093 3.594-4.5 3.125-2 2.593-1 3-.5 3 .187 2.688-.094 3-.812 2-1.5 1.594-1.5 2.125-.907 2-.5h3.593l2-.375 2.188-.906 3.5-3 1.094-1.594.5-2.5.125-3-1-2.5-1-2.125-1-2v-3.5l1.593-2 6-5 4.094-2 1.5-.5 1 .5 1.094 1.125.5 1.5v1.5l-.594 2 1.094 2 .5 1.5 2 .5 4.094.594 5.125-1 3.093-1 3.282-1.719 2.906-2.78 2.594-3 2.312-2.22 2.594-2 2.094-.375 2 .5 1 1.5.5 1.5 1 1.594 2.812 1 2.094-1 2.5-2 2.094-2.5 3.625-3.5 4.5-2.906 3.687-1.094 4-1.312 1.594-.188 2-.219 4.094.407 3.718.406 3-1 2.5-1 2.594-1.094 3.094-.406h4.094l2.625-1 1.5-.5 2.593.5 2.094-.406 2.5-2 2.594-3 2.594-3.094 2-1 2.625-2.5 1.28-4.188.907-3.125 2.094-2 4.094-.375 4.125.5 2.375 1.188 2.5 2.594 1.125 2.5v.906l2.593 1 2 .094 3-.5 4.282-2.906 1.406-1 1.094-.688.906-.406 1.719-1.188 1.875-1.312h1.625l2.5.5 2.187-.594 2.094-.687 2.094-.407 2.5.5 1.625 1.5 1.28.782.72.312 3.093-1 1.5-2 .594-2 1.594-3 1-2 2.812-1.812 5.688-3 4.094.5h5.625l5.687-1 2.813-.875 3.28-1h2.095l1 2 .5 2-.5 1.5-1.594 2-1 2-.5 2.5.5 2.093 1.219 1.094 2 .594h3.093l4.407-.188 2.78-.718 2-1.5 2.095-1.375 1.906-2.407 1.312-2.593 2.094-3 2-2.5 2.094-2 1.094-1.5.5-2.5-.5-3 .625-3.125 1.593-3.5 1.375-2.157zm1751.532 0-1.375 1.282-1 1.5v2l.875 2.593 2.125 2.5 3 3.594 2.5 2 1.5 1.094h2.093l2.188-1.5 1.594-2.5 1.5-1.906.5-.594 1.625-1.5 2-2 2.593-1.5 2-.5 2.094 1 1.5 1 1 1 3 .719 2.094.375 2.5-.5 2.719-.5 2 .5 2.593 1 4 2.406 3.188.219 2.406-.125 3.094-.5 2.719-1.375 2.375-1.5 1.718-1 1.5-.5 2.594-.5 2-.407 4.094-1.5 1.594-.5 1.5-.593 2.125-1.5 2-.407 3.093-.593 2.5-.5 63.594 4.093 55.313 3.407 3 .187 164.5 11.5 47 3.313 40.875 2.78 97 6.595 52.812 3.406 21.688 1.406 58.718 3.906 92.188 5.907 62.594 4 77.312 5.5 35.313 2.5 103.375 7.593 29.812 2.407 103 8.5 21.313 1.687-2.625 3.5-2.375 4.688-1.5 3-.5 3 .094 3.406 1 2.5.906 1.219 2.094.78 2 .72 2.593.875 1.5 1.625 2.5 3 1.5 3.093.5 3 1.407 5.594v4.5l-.407 2.594-.687 1.906-1.625 2-2.094 1-2.5.406-1.594.907-4.593 2.593-1.5 1.594-1.813 2.094-1 3.219-.781 2.593-1.219 4-1.187 3.782-1.094 5-.625 7.312-.375 5.813.781 3.687.719 2.813 1.781 3.28 1.719 2.813 2.281 3.282 1.813 2.312 1.687 2.813 1.5 1.593 2.5 4 3.313-2.218 93-61.282L3095 1659l26.5 37.313 14.5 20.375 22.407 32.312 17.78 25.813 51.72 74.593-6.313 59.907-7.406 70.187 108.125 2.406 106.5 2.188 107 2 113.781 2.406 98.719 2.406 215.781 4.907 47.094.78L4178 2000l34 .813 16.407.375 11.093.312 38.72 38.313h2287.624l-.75-3.72.594-3-3.094-4.093-4.094-2.5-5.093-3.594-1-2v-2l2.093-1.5 3.094 2 4 2.094 1.594-3.094 4.125.594 5.594 2.5 3.593 4.094 2 3 2.5 3.594 5.188-4.594 2 3.594-3.594 5-1.594 3.625h359.625l-1.53-1.5v-5.125l7.718 2.125 2 4.5h5.5l-.313-6 1.594-3.5v-6.5l-12.687-11.22-7.22-2.093-6.687 1.5-2.593 7.094-3.594 3.5-9.219 7-5.687.406-4.094-1.5-4-2.5-4.625-5.594 6.719-5 5.093-4 5.188-5 4.125-6.593 5.687-1.907 3.594-3.5 4.094-1.5 4.625 1h2.594l2-1 2.093-.5 4.094-2 7.094 3.594 2.625-2.5 7.187 3.094 5.594.5.594-12.094-1-6v-4.594l1.625-5 3.594-4 1 2.5 2.093 2.5-.094 5.594 1 4 .5 3.094 3.094 3.5-2.094 4 1 3.5 6.094 2.094-2.094 6.5 1.5 1.625 8.188 8.093 2 4 4.594 7.094.406 6.094-2.094 7.5-9.187 4-.063.719h42.28l.282-4 .094-6.125 1-5 .594-3.5 2-4.5-1-4.594-.406-5 1.5-4.5 2.093-5.594.125-4.5-.5-10.094-3.5-8.093-2-5-1-5.125-1-4-1.5-4 2.094-3.094 5.094-.406 2 4 5.094 6.125 4.093 1 .407 7.593 2.093 5 2 3.594v2l3 3 3 7.594 2.125 3 3 1.594 4.094 2 1.594-3.5h2.5l2.594-2 .094-8.594 3.125-3.5 2-1 1 4.094-2.125 4.5.5 3.5 3.125 2.625-1.625 4 4.625 3.5-8.72 1-1.093 6-2 .5-3.594-1-3.093 2.5-1.625 7.093.5 4-.594 5.5 4.094.094 4.625.5 3.593 1-2.093 6.594-.875 3.219h69.406l-.438-1.313-1-1.093-1.5-3h-3.593v-4.5l-2-2.094-1.5-2-4.125-5.625-.5-2 3.125-1.5-3.5-5.5 2-2.5 2.593-.5 11.782-1v-6l-11.188-4.594-1-2.5 4.094-1h8.219l-2.5-6-2.125-1.594-2-4-4-5.593 7.125.094 3.093 2 1.594-3 4.594-3.5 2.594-2.5 2-3.5 3.125-2 3.687-7.094 6.594 4.594-.094 8.093-7.094 2.407-6.812 6-3.594 7.093.5 5 .5 2.5 1 2.094 4 5.5 2.594-3.5 3.093.5v4.125l1 1.5 3.625-1 3.594-6-.5-4 3.094-6.625 4.687-6.5 2.625-7.594 3.688-9.5 3.094-5 2.093-6.093-1-3-1.5-4-6.093-7.094-2.594.5-2.5-6.094 3.594-1 9.218 6.594 5.094 2.094 1.5 4.5 2.5-.5 1.594-1 1.5-3 2.187-8 1-2.094 2.625-.906-.5-6.094 4.094 3.094 6.094 7 4.594-.907 1.593-6.093-5.093-9.594 2.593-8.5 1.125-5.594 1.094-5 1-4.5 1.094-4.125.5-5 1.594-7-2-4.594 4.718-7.5 2.5-3 4.094 7 4 7.594-2.594 7.125-1.5 2.5-.625 2-.5 3 1.5 2 1 5.594 2.625.5 1.5.5 2 .5 3.594.094 5.188-1.5-.5-8.094-2.5-3.5 2.093-5.594 4 5.094 1.625-1 4.094-6.5 3.594 1.5h4.094l4.593.594 2.5.5 3.125-1.5 3.094-2 1.594-2 1.5-2.5 7.812-5 2-2.5 1.594-1.5 2.594-4.5 1.5-3.094 1.094-2.5 5.093-5.5 1.625-2 2.594-4-3.594-2-12.812-1.594-5.594.375-1.594 1-2 2-4.125-1.5.5-1.5.5-2 .5-1 2.125-3.5 2.094-4.593 4.094-3.5-2.5-2-3.594-.5-2.594-.5-2.5 1-3.125.406-2.593 2-2 1.5-2.094.5-2.5-1.5-2.094-4-2.5-.594-2.594-2.5 5.188-1 6.094-2.5 5.093 2.094 4.72-3.5 9.187-3.5h4.593l4.125 4.594 6.594 2.593 3.594 2 4.094.5 3.093 1.125h3.125l5.094.5 2-1 1.594-5.5-2.5-1.625-1.594-2.5-1-4 2.094-2 3.094 1.5 1.5-2 4.093.5 3.125-1 1-4-.906-4-8.312.907-2-2.5-.5-1 1.593-2 2-.5 6.72.5 6.093-.907.094-3.093.5-3-.5-5-6.594-4.094-4.594-2-2.5-3.594-2.093-1.5-1.5-3-1-2.594-1.5-4.5-3.125-2-1.5-2.625-3-2.5-2.094-3-2.5-4.593-1.5-4.5-1-2.094-1-2-2-4.5-2.594-4.094 1.594-1 1-.5 1.5 3.094 1 2 2.094-.5 1.5-4.5 2.125 1 .5 3 2.5 5.094 1 4.5 2 3.593 3.593-3-.406-7.593-1.5-4.594-2.094-3.5-3.5-1.5-9.218-4.594-4.594-1.594-3.094-3-3.5-2-7.187-2.625-2.625.5.5 3 5.125 3.125 1.5 4.5 1 5.594-.5 1.5-3.625-2.094-5.594-4-3.094-1.125-5-3.5-2.594-5.093-3.593 1.5-2.5.5-.625 1.5 3.125 3.593 3.5 4.5 3.593 6.125 2 4.5 3 4.594 2.594 5 5.594 6.594 3 4.594 2.5 5 3.594 3.593 2 3.5 1.5 2.625 2.5 4.5-1.5 5 2 3.094-1 3.5-2.594.5-2-1.5-2.094-1.094-1.5-2.5-2.594-3 .094-6.125-3.593.5-2.094 6.5-2.625-.5-2.5-2.5-1.5-1-2.094-3.093-5.094.5-3.594.5-1-1-2-1.5-3.093-3.594-1.5 2 .5 5.094-4.22.906-4.5-3-5.187-.5-.906-6.594-3.594 1 1.407 8.094 4.093 3.5 3.094 4.594 2.5 4 1 3 .5 3.094-1.594 1h-1.5l-2-2.094-3.093-1-5.625-3.594-2.094 6.094-1.594 1-1 3.5 4.094 3.594 1 3 1.5 3 3 3.125-2 4-4.094-1.625-5.594-1.5-2.093 3.5-8.22.5-4.593 1.406-2.594-2 .5-3 2.094-.5h3.594l3.094-2.5 2.625-4-5.625-3 .5-3.594 2.625-9.5-2.5-4.594-5.72 2-.5 4-4.593 4.5-.594 5.594-5.093-1.094-5.22 4.5-2 2-7.187-1.5-7.718 9.5 5 7.094 4.625 7.594-3.72 17.094-3.5-11.094-1-7.594-10.187-12.594-9.218-2.593 2.125-4.5 9.28-4-.5-6.625-9.187-2.5-2.5-3.594.5-3 4.094-1.5 3.594-6 2.594 1.5 1.5 4.094 9.218-1.5 8.188 2.625 2.594-4 .625-6.125-3.625-7.594 4.718-2 6.094 3.094 1-4-4-8.094-1-3.5 1.5-2 .594-3.594v-4.5l-5.594 3-6.687 2-3.125-2.594 4.218-6-5.593-10.093 4.187-7-1.5-5.125 5.094-3.5 7.719 3.125 4.593-1-7.718-6.125-6.094-3-2.5-7.594 2.594-7.594 1.125-2.5-3.125-3-1.5-5.594-2.5-1.5-4.594 1.5-7.188-6.093 1.094-2-5.094-5.125-3.093-.5-3-4-6.72-1.094-3.593 9.594-2.687 10 3.593-.5 5.688-3-.094 5.625 3.094 4 9.218 3.093.875 5.594-8.187-.094-6.094.5 5.594 5.094 3.594 3.5 6.593.5-1 2.594-4.093 3 .406 6-1 4.5-4.594-7-5.094-6.094-4.125 3-4.093-2.594-.407-7-2-6.094-4.687 5-2.594 10.094.5 5-3.719 4 1.5 3.594 5.72-1.5 8.187 4.094.406 3.5-1 4.5-3.594-1.5-3.5-5.094-7.219 4.5-3.187 7.094 2.594 3 5.593 2.593-1.593 4.5 3.593 3 5.625.125-.5 3.5-2.625 3.5 4.625.5 2.594 2.094-2.094 4.5-3.218 9.094-5.594 6-1.094 4.5-.594 5.5-3.625 3.5-5.593 2.5-.5-7.5.094-8.594 6.718-3-.5-12.094-3.5-2.5-6.218 5-1.094 2.5-4.094 2 .594-5.625-2-2.5-9.781 7.5.5-6 1.593-3 7.188-1.5 6.094-3.5-2-3.5-2.5-2.093-8.188-2.5 2.594-3.094 4.094-5-5.094-1.5-5.688 3.5-7.093-1.594-7.72 3.5-11.28-.094-5.72 2.5 4.095 5.594-1.594 4.5-4.094-2.5-4-4.094-8.812 3-6.688 5.5v2.5l2.594 1.594 1 6.5-2.094 4.5 3 3.094.5 3.5 3 4.593 3.594 1 2.094 2.5-2.094 5.5 4 4.594 2.594 1 5.625 1.625 3.093 2.5 2-.5-.5 2 3 6.094 2.594.5 3.5 3.094 3.594 1h5.719l4 3.093h4.093l5.188.5-7.188 4-6.218-2-4.094-.094-6.094 1-.594 8.094 3.594 4 2.5.5-2.594 1.5 2.594 3.594 3 3 2.594-.5-1.594 2.5-3.594 2 3.594 4.625 4.094 1 2-.5v2.593l6.094 7.594 2.5 3.5v2l-3.5-1-2.094-4.094-5.594-4-4.094-1.593-4.593-.5-2.5-4-.5-6.625-2-4.5-4.625-2.594-4.094 4.5-3.094 1.5-.5-1.5-3.094-1.5-3 1-4.093.906 2.5-2 4.187-3.5 5.594-1.406 4.094-3 .125-5.094-1.5-7.5-4.625-4.094-3.594.5 2.094-2.5-.5-2-5.094-3.093-4.594-1-.5-2.125-1.5-1.5-4.187 1-1-3-2-1.5-1.625 2.5-4-.594-2.094 4.594-1-2.594-2.594-1.5-2-3 3.094 1 3.594-1.5 3.625-4-1-4-3.625-5.594-2.5 1-2.094 1.5-2.594 1 2.094-6.094 3.094-4-1.5-2.5-.5-3.5v-4.593l-11.188-5.125-5.594-1.5-4.593-2.594-4.625-.5-2.594 1-3.5-2-2.594 1-3.094-.594-2.593 2.5-2.625 3.094-2 5-1.594 1.5-1-2 .594-4.094h-3.094l-3.094 2.5h-8.187l-3.625 2-1.594 5.5-4.594 4-4.687 1.5-2.5 2.5.375 3.5 1.625 3.094.375 4 1.625 1 2 3 5.593.594 1.094-2.5 1.5-1.5 1.094.5-.094 2-1 3 1 3.5h2l1.094-1.5 1.5.125 2.593 1 1 1-4.593 1-1.594 2.5 4.094 3 3.5 3.593 1.093 3 6.625 2.094 1.5-1h1.094l-.094 3-.5 3 2.594 2-.594 3.594-2-2.094-3.125-1-2.5-3.5-3.094 3.5-2.094 7.5-4.687 6-1.5 4.094 3.5 1.5 7.187 3.594 2 .5 5.688.5 1.5 3.625 3 2.5v1.5l-4.094-1.5H7010l-3.5-1.125-2.593 1.5-1-4-2.594-1-5.625-1.594-2.5.5-2.688 6-1 1.5-1.5-2.5-1 .5-1.093 5-4.594 2-1.625-2-1-1.5-4.094 1 1.094-4 1.5-.5 4.125-2.5 4.687-3 3.594-5.094-.5-3.5-2.5-1 1.5-3.5 4.094-3-3-.5-.5-2.594-1-2.5 5.125 1.5 1-3-1-4 3.094-3-2.5-3.593-5.094-4-5.125-5.625-3.594-2-1.5 2-2-3.094 1.5-2.5-2.5-2.5-3.094 1-3.593 1 3.093-4-3.093-1.094-1 2-4.594-.5-4.125-1.5-4.094 2.5-3.594 1-2.093 5.5v4.5l-.594 2.5h-1.5l-4.719 8.094-5.094 6.5-3.593 4 .406 2-1 5.094-1.625 2-.875-6.094-1.625-4-5.594.906-1 2.094-4.687 3.5-6.094-.094-.625 5.094.5 4.5-3.094 5.5-.5 5.093 1.5 4 2.5 3H6908l-3-3-2.093 4 1 3-1 4.625 1 3.5.906 5.5-1.5 3.094 1 4 3 3.5 2.094 3.094-4.219 2.5v4l-1.094 5.5-2.5-4-3.094-.5 2.594-2.5.094-4.594-3.594-6-1-5.594 1.094-6-2-5.125 1.5-3 .125-2v-4.593l2.094-4.5-2.094-.5-3.625 4-4.594 6-3.093 1-2.094 1-.5-3.5 5.187-4.5 1-2 3.094-5 5.719-2.5 1-3 2.594.5 1.093-5.594-.5-1-9.78-3.594-5.626-5-1.5.5-8.687-5.094-7.094-3.625-4.094-.5-3.625-3.093-3.594-1.5-.5 1-1.5 1-.5-3.5-1-2-2.093 1.5-5.594-.594-6.094-1-2.125 2-5.094.5-6.687 2.406-5.719 1-.5 1 2.5 5.094-1 4-.594 5 2.094 1 3 4.594 1.625.5 1 3 3 4.093.5 4-3.125-.5-2.5-3.5-2-4.093-5.094-5-3.593 3.5-1.594 4.5-2.094 6 2 2v3.593l-4.625 6.5-.094 3-1 1-1.5-2 .5-4.5 2.094-4.093-.5-1-2.094 1 1.594-3-.5-2.5.625-4-1.625-1.594-.5-1.5h1l3.125-1 1.094-5 2.593-3 2-3-.406-3.5-1.594-1.594.594-3.5-2.594-3.5-2.5 2-2.593.5 1.593-6.094-2.093-.5 2.593-2h4.594l-1-3-5.094-2.5-6.093-3.125-9.313.5-10.187-.094-2.5-2-3.094-1.093-2.125 3.093 1.5 3-4.094.5-1.5 4 1 2.5-2.094 3 .5 4.594 2 1.5-.5 2 1.5 2.5 1.5 1-1 1 .5 1.125v1l-2.5-.625-2.593.5v2.5l2 2.125-1 2.5-3.594 1.5-1.125 2.5-1.594 8.5-2.594 5.094-3-5.094v-6.5l2.594-6.625.594-7-1.5-2.5 1.5-2.094.625-3-1.625-1-1-2 2.125-3.5 2.594-4-1.5-2.593-4.594 2-6.219 2.5-4.594-.5-.5-2 3.594-2 3.594-1.5 3.625-4.5 5.094.5 3.593-2 .594-4-1-3.594v-1.5l4.594 2.094 5.125.5 1.5-2-2-2-9.219-2.594-4.594-3.594-2-1.5-2.593-2-14.813-4.125-3.094-3.594-4.5-5.5-4.593-3.093-4.094-5.094-4.625-2.5-4.094-1.5-9.594-7.719-5.093-5-3.094-4.594-1.906-10.593-3.594-10.094-1.906-13.094-2-5-3.094-3.625-3.625-4-3-6.094-7.094-6.093-6.094-6.594-2.5-11.594-1.5-3.5-7.187-3.125-2.5-4-2.5-3.5-3.125.406-2.594-1 2.094-3-2-3-2.594-.5-5.187 7-2 6.5-2.594 1.5-4.219 5 1 4.594-1 5-6.187 1.5-3.594 3 .5 4-4.125-3 3.625-5.594.094-1.5-5.719 2.5-2.593 4-2.594 2.5-1-3.5-5.594.5-7.719-3.093-5.593-.5-.5 4.5-2.594-2-2-3.594-4.188.906-2-2.906-1.5-1-3.625-1.094-4.093-1-3.5.5-1.594 2-2.594 6.5-1-3v-4l-1.5-.5-2.594-1.625 1.594-1.5 3.594-.875 3.094-3.625 3.593-3 1.5 1.625-3.093 3 1 1.5 8.218 1.5 5.094.594h4.594l1.094-2 2 .5 3.593 3.594 7.72 1 5.593 1.593 5.594-1 6.218-2 5.188-3.5 4.594-5-.5-3.5.5-2.593 2.593 1.593 2.625-3.5 3.594-9.093-.5-4.5-2-2.094 4.094-.906 3.094 1 8.218-.5-.5-8.5-7.625-9.188-2.5-3-7.187-3.625 2.094-6.5-2.5-5.5-3.594 1.406-3-5.5-7.688-3.093-2.625-1-3.093 2.5-5.094 2 .5-2 3.094-3-.5-1-6.594-3.094-6.688-4.594-1.406-6-2.094-6.125 2.594-2 2 4.125 3.094 4 2.5 5.094 2.594 2 2-3-1-4.594-1.5-3.5.5-.5 1.093-.5 4.125 2.5 2.5 5.094 3 4.5 5.188-.906 5.094 3 6.593 4.093 8.72 4.594 3-1 .5 4 2.093 3.625 4.094.5 1 2 3.5 9.594 2.5 2 3.093 4.594 4 8.093-1 5-.593 4.5 3.093-2 4.125 1.594 1.5 4.5 1.5-1 2.094 1-1.594 4.5.5 4.125 5.594 8.094 2 8 3.594 1.094 2 2 2 2.5 3.594 2.593v2.5l4.593 2.5 2.5 4.594 3.625 1 3 1.5.094-4-2.5-7.594-6.718-5-.875-5.093 1-.5 8.093 6.093 5.094 2.594-1 5.5 2 5.625 7.094 3 5.219-1-1-3 3.093-1.5.5-2.5 4.594-2.5 2.594-4v-5.125l3.094-3 2.5 7.125-1.094 11.094-3.594 3v5l-2.094 1.5 1 3.594-3.5-.094-1.093 1 1.5 3.594 4.593.5 3.094-3v-1.5l2.594-.5 5.219-3 4.093-1 3.094-3.5.5-2.5 2.594-1.5.5-1.5 2.5 3-3.094 2.5-1 5.593-2.094 2-3.593 2.5-4.625 2.5.5 4.5 2.5 2.5-.5 1.5-5.688.5 1.594 2.5 3 2.594 2.594 3 5.625-1.5 3.593 3.125 2 .5.5-3 2.594-.5 3.094 1 3.594 1.594h2v2l1.5 2.5 2.5 3 5.125 3.594 5.687 4.593 4 5.5 5.594 4.094 2.594.5 1-4.5.125-3.5-1.625-4.594 2.625-3 2.093-7.5-2-5.594 2.094 1 2.5 2.594 3.094.5-1.594 4-.5 7.094-2.094 3 1 1.5-.5 3 3 3.5-2.593 3.625 1.593 2 6.094 3 3.5 3.094 2.594-1.5.5 2 1.5 2.5 6.719 6.094 6.093 4.593 8.594 7.094 4.594 3.5 4.094 1.125 3.125 2h4.593l3.5 4.094 1.094-4 2.594-2.5 7.219-3.5 9.187-3 8.688-1.5 3.718-6.5 3.594-4.5 3.594-6 .5-4.594-2-4h-3l-2.094.5-5.094-1.125-2.593-1-2-3-4.625.5v-5.594l-1-2-2.5-8.594 2.625.5 3.5 3.094 3.093 7 4.594 2.094 4.594 2 3.594-3 1.5-1.5-1-4 2.125.5 2.5 2.5.5 3.125 3.5 5-.5 3 2 3.094-1 3.5 3.093-.5 10.782-5 1.5-3 5.718-2 6.594-.906.5.5 2.594-2.5h4.594l.625-4.5 2-1.5 3.093-2-.5-2.5 2.094-2-.5-3.094-5.094-3.5-4.593 2-1-3.094-2.625 2.5-2.594 1.5-4.094-.5-4.594 2-1-1v-1.5l-2-3.125-3.593-1 1-2-1.5-3 3.093.5 4.594 3.5 3.094.125 2.5-1.625 3.094.125.5-2-2.5-7.125-3.5-4.094 2.5-.5 4.625 4.094 5.093 6.125 3.094.5.5 1h3l-1-6-.406-6.125-4.594-5 .594-6.094 3.5 3.594 1.5 4.5 3.594-1 1.625.5-.625 3.125-1 2.5 1.5 5 5.125-2v3.594l-1.625 4.5 2 4 8.312-5.5 2.594-3-3.594-6 2.094 1 2.094-6.094 2 3.594-.094 6.5 1.5 2.594 2.593-1 1.625-1.5 5.594-4.5 3.094-2-2-3.094-3.594-1-1-3-3.5-3.094 1-5.5 1.594-.5 2 4 4.594 3.594 2 2.5 2.593-.5 4.625-4.5 3.094-.5 9.281-6.5-3.093-4-4.094-2 1.094-4.094-3.094-2.5 5.094-.5 2.093 1.5.5 3.094 4.625 1 5.094-3.5 6.188-2.5 12.312-3.906 2.594.5 8.187-6.5.5-1 2.125-1 2.094-4.5-.5-3.094 1-5 1.094-1-3.594-4.594-2 .5-2.594 4.094-2-2.594h-2.625l-2.093 5-.5 4.594-2.094-5.094-4.094-.5-4-1.5-2.594.375 2 5.125-1.625 5-2-2-2-4.625-1-2.5-2.593 1.5-4.094 3-.5-3.5-2.094.5h-3.5l-6.219 2.406-6.187-.5 2.594-3 1.593-.5 2.625-2.5 6.094-2.5 5.188-1.5-3.094-3.5-3-6.594v-5l3.094-6.593 1 3.094 1 6 1.5 3.093 2.593 1 2.5 4 3.125 1.094 2.594-2.594 2.5 2.594 6.188 1 1-2.5-3.094-3-3-3.094 5.094.094 2.093-1.5 1.5-2 1 6.5 3.125.5-1.5-6 4.094-5 1.5 5-.5 2 2.5 3.125 4.188-6.625v-3l-1-3 3.593-1.5 2.5 2.5h2.625l.5 2.625-3.125 2.5 1.5 3.5-2.593 3v3l6.718-.906 4.094-2 1.5-2 3.094 1 2.594.5 1.5-4 .094-4-.5-3.094-4.094-1.5-2.094-1-2-3.125h-5.094v-2l-2.5-4 1-2.593 3.594 2.093 4.094 2.5 3.5 1.5 3.594-2.5 2.625 3.625 5.593.5-.406-7 4.094-10.125 2.594-4.5-.5-2.5 3.125-2 3.593-6-2-1.093v-2l3.594-.5v-2.5l4.594-1.5.594-2.5-3.094-4-3.594 4.5-2.094 2-2-1-2-3.594-3.593-2-1.5-4.594-3.125-.5-2.5-3.5-2.594-.5-1-4.094 1.094-2.5-1.5-3-3.594-1.5-1.594 3-.5 1.5-2.5-2.625-3.094-1.5-1-1-3.593 3-3.625 3.5-.594 2.5h4.094l2.125 2.125-2.625 2.5 2.5 1.5-2.5 2.5-.594 4.5 4.094.594 2.625-1.5 2.5 1.5 5.187-4 2-.5-1 2.5-1.594 2 3.094 3.094-.5.5-3.094-.594-2 1-.094 4.094-1.5 2.5 2 3v3.5l-.625 2.094 2.625 1-1 2-5.218 1-1.5-3.594v-1.5l-3-2.5 2-3.5.593-4.094-1-1.5-3.093-.5-5.094 3-3.094 3.5-1.094 4 .5 5.094-3.125-.594-1-3.5-2.593.5-1.5 3.5-2.594 2-.5 2 1 5.094-4.688 5 .094-5.094.5-3.5-1.5-4.5 3.594-3.5-.5-2.5 2.094-3.094 5.594-.406 2.125-3v-7.094l-1.5-1-2 .5-2.125 1.5-2-1-3.094 3-1-3.625-3.094 1-2.594 3v-4l2.094-2-2.594-2 3.594-.5 5.688 1 2-3-.5-2-8.688-2.093-1.5 1h-3.094l-5.593 2-1.125.5.5 4.5-3.094-.5-2-1.5-3.094 2.5-2.594 5-.5 4.5-1.5-2-1.593-2 1.093-3.5-1.5-1.594 2-2 3.594-3 .594-2-7.188-1h-3.593l-3.125 4-1-3.594-1.5-2-1-4.5-4.094 2.5-6.688 4-2.093 3.5-1.125 7.5-.5 2.5 2.5 2.594v3l-4.594-2.5-4.094 1.406-5.094-2-3.093.5-4.125 3 1.5 2.5-.5 4.5-.5 1.594 1 4-4.094-2.094-4.094 1-3.094-2.5-2.5-1-3.093-2.094-2.625 5.094-4.094-.094-3-4-2.094.5-2.594 3-4.093 2.5v5.5l3.5 4.094 1.5 4 3.093 3.094-1.593.5-3-1.594-1.625-.5-1.5-3-2-2.5-5.094.406-1.594-1 4.188-2 1-4-2-4 5.125-5.625 3.687-4-2.094-2h-5.093l-3.625.5-2.594 6.5-6.188 1.5-6.093-1.094-6.625-3.5 6.125-.5 5.093 1 5.188-1.5 1.5-4.5 6.219-2.5 4.093-2.5 4.094.094 3.094 4.5 2 2.5 3.594-.875-2.5-4.625 1-7.5 1.625 1.5 2 4 1 3.125 2 2 4.593 1 1.594-4 .5-2.5-2-2.125.5-.5 3.594-.875 3.594.5v-2.5l4.125-2 5.093-1 3.594.5v-2l-.406-4 4.094-1.5 3.125-3.5 1.5-2.5-1.5-2.625-3.125-2.5-1.5-2 3.125-.5 3.593 3 3-1 .094-2.5 4.094-4v-4l.594-3.5-1-3.593 3 2.093 3.625-2 2.094-1.5 2-.5-.5-2.5-1.969-1.656zm5221.218 0 1.188 1.657-1.094 3.5 3.094 2-2.094 1-5.094 1-3.093 2.5-1.125 2.5 4.125.625 4.093 5 6.094 2.593 4.094 1.5 3.094.5 1.5-1.5 2.125 1.5 2.593-2.5 3 .094 2.094-2 2.594-1 .5-1.5h3.594l-3.094-2.093-1-3 4.594 1.093 4.625.5 2.093-2.5-2-2.093-.5-1-3.593 1-1.125-1.5 3.125-1.5-.5-2 3.593 1 3.594 3.093h3l-4-5.593h-4.594l-2.875-2.875h-8.343l-1.594.78.469-.78zm73.313 0 .094.062 7.687.5-.094-.562zm12.281 0 .094.157 2 4 1.094-.5 2-3 2.062-.657zm13.563 0-.157.657 1.5 3.625H7102l-3.594 3 .5 2 2 2 6.188.094 1-2-1-2.5 3.594-6.875zm632.812 0 .438.875 4.093-.5.125-.375zm21.594 0-8.875 3.47-13.406 4.5-11.282 2.905-7.218 5.5-14.375 10-11.907 5-7.718 5-12.282 7-13.406 7.407-8.812 5-3.594 4-7.688 2.5-5.093 2-5.22 3-5.093 1.5-5.594-2.625-3.093-2.5-2-1-4.625 1.5-3.688 5 .906 17.125 1 5.593-2.593 3.5-2 2-2.125 2.5-1 3.5-1.094 3.5-5.188 4.5-2.5 4-5.718 2-2.594 2 2.594 1.594 3 .5h3.625l4.093-1 5.188-5.5 6.219-7.5 17.093-19.094 13.407-10 16.875-11.5 27.906-17.906 23.094-12.5 31.406-17.906 14.406-5.5 10.813-5.5 13.375-7 1.406-.563zm-227.656 71.282-1.125.5-2 1-1.094 1.5v2.5l1 1.5 1.094 1 1.5.5 1.5-.5 3.125-2 .593-2.5-.5-1.5-1.593-1-1.5-.5zm-7.813 6-3.094 3v1l1 1.5 1.594 1.5h3l1.094-1 .5-1.5-.5-3-.5-.5-1.5-.5zm13.313 2.593-1 .5-.5 1.5-1 1 .5 1.5 1 .5 1.5 1h1l2.593-1v-3l-1-1-1.5-.5zm6.593 16.594-1.093 1-1.5.5-1.5 1-.125 2 .5 1.594.625 1h6.593l.5-1 1.094-2.5-1-2-1.594-1.094zm8 20.188-6.718 4-4.094-2-6.594-.094-4.594 2.5 1.5 2.593-1.593 5-3.625.5-2.594 1-1.5 2.5-3.094 5.5.5 3.5-1.594 6.125.5 2-3.593 1-3.125 2-1.094 3-5.094 4-6.187 3.5.5 2 .5 2.5-2.125 1.5-3.094 4.5-1 5.094-1.594 4-.5 3 3.5 3.094 3.594-1.5 7.812-8.5 22.094-16.5 7.813-10.094 9.28-7 10.313-7 8.688-6 7.219-3.406.094-6.094-12.813-.594zm-344.812 4.625-1.094 3 .5 3.5 2 1 2.094-.5 1.594-3.5-1.594-2.5-1-1zm-5.281 14.5-2.5.5 1 3.093 3 3.5 2.593-.5 2.5.5 2.094-2 .5-2-3-1.5h-2.094l-2.5-1zm23 6.187-2 .5v3l2.5.594.593-3.594zm11.28 4.594-3.093.5h-2.594l-1 3.5 3.094 1 2 .594 1.594-3.594zm37.72 19.906-6.125 1.5-1.094 2.5 4.094 2.5 4.625 1.594h3.593l4.094-2.5 1.094-1.5v-2.5l-5.094-1.594zm204.28 22.906-1.5.5-3.593 1.5 1 1.5 2-1 1.594-1zm8.72 2.5-1 3.594.5 2 1-2 1-1.5 1 1 1.593-1.5-1.5-1zm-144.5 2.188-1 1-.125 3.5-1 3.594v3l-1.094 2.5.5 1.5 3.094 4.625 2.5 3 4.125 1.5 3.093-1.5-.5-5-1-4.5 1.594-2 2.5-2 1.594-2.625-.5-3-5.094-.5-4.094-.5-3.093-2.094zm125.5 4.812-3.625 1.5-3.094 3.5 1.5 1.5 1.594-.5 2 2 2 .5 2.125-5zM7470 1734l-4.094 1.5-2.593 4-3.625 4-3.094 2.5-2.594 3.5 1.5 2.5 3.594.094 4.594-2.5 5.718-6.594 4.688-5-.5-3.5zm-112.187 1.313-.125 4.593.5 3 2.125 3 .875 3.594-2 5.5 2 3 3.625-.406 3.593-8.594 2.594-8-2.5-3.094-7.094-2.5zm48.093 5.875-1 .5-1.593 2.5v1l.5 1.5 1 1.5 1.5 1.5 2.593.625h2l1.094-2v-4.125l-.5-.5-1.5-1-.5-.5-1.594-.5-1-.5zm-21.593 6.406-5.125.5-.5 1v1l1 2 1.5 1h1.5l2.125-1 .5-1.5zm11.28 2.094-2.093 1-.5 1.5-1.094 3.5 1.594 1h2.5l.094-2.5-.5-4.5zm23 2.125-3.593 1.5-1.5 1.5 1 2 3.094-1.5 3.594.593-.5-3.093zm26.095 2.187-7.688 10-5.187 7.594-2.625 3.5-.5.5-4.594 1.5-2.594 1.406-2.594 3.594v3.5l-4.093 1.5-3.625 2.5-4.688 6-2.094 4.5-.5 4.5 3 1.094 7.282-7 4.125-6.094 3.593-4 6.188-5.5 1.094-1 9.312-10.5 8.188-8.5 5.218-5-2.593-2.594zm-96.782.406-1.5 1-.094 3.094 1.5 3.5 2.594 2 4.094-2.5 2 .5 1.594-2-2.5-3.5-2.594-1.5zm84 0-2.5 1-.094 3.5 2.094-.5v-1l3.094.594zM7412.813 1777l-2.625.5-2.594 2.5-.5 2.5 1.5 1.5 5.719-3zM7392 1812.094l-2.5 2-3.094 2.5-2.093 2.5-3.125 5.594-2.094 1-1.5 1-2.094-.5-2-.594-2.094.5-1 1.5v3.094l-1.093 4-1.5 3-3.125 2-1.594 1-2.5 2.5-2.094 1.5-1.594 1.5-1.5 3-.5 2-.593 1.5-2 1.5-3.125 2-3.094.5-2 1.5-2.594 3-.594 1 1.594 1.625 2.5.5 2.594-1 5.219-4 11.28-10 11.407-12.625 9.188-9 3.718-3 4.594-5 1-1.5.594-1.5.5-2.5-1.5-1zm-56.812 58.719-6.094 3-10.906 11-12.875 15.5-11.313 12.593-7.312 8.5-7.188 6-3.594 1.5-5.718 9-3.094 3-2.094 3.5-2-.5-3.094 1v4.5l-7.312 12.594-4.594 5-4.687 6.5-3.625 3.5-1.5-8-5.594-1.594 2.5 7.094-1.594 3 3.094 6.594-3.688 7.5-5.218 9.094-4.094 5-4.594 2.5-4.094-.594-1-1.5-2.593 1-2.625-1.5-2.5.5-.594 6 1 2.594 5.719.5 2-.5 1 3.5-4.125 4-3.094 3.5-3.094-1.5-3.094 2-1.093 8.625-.375 5h5.687l14.281-19.5 10.907-15.625 12.375-18.094 11.406-15.5 5.719-9 4.593-5.594 9.907-12 8.78-9 22.72-23.594 13.375-16 8.812-9 5.094-5.593 4.219-8zm-70.094 58-1.5 3.5.5 4.093h4.094l1.5-.5.625-6zm-48.5 49.593-1.5 2 .5 3.094 2 1 1.594-2v-3.094zm12.312 3.594-3.093 1.5-3.125 3-1.5 1.5-.594 4.094 1 4.5 4.094-3.5 2.125-2.5 1-1.5 2.093-2-.5-3.594zm-73.5 28.313-2 1-1.593 2.5 4.093 3.593 4.094-1 .5-1.5-.5-1.5-2-2.093zm43 2.28-3.593 1v3l1 2 3.093-1.5zm-233.093 8.72-1 1-2.125.5v3l1 .5h2.625v-3l.5-1.5zm15.78 6.093-1 1.5-.5 1.5.5 1.094 2 2 .595-1.5.5-1 1-1-1-2.094z" style="fill:#9faec0" transform="translate(0 50)"/><path stroke="#9FAEC0" stroke-width="10" d="m4278.219 2039.813 86.187 85.28 70.906 70.22 9.876 9.875 101.718 100.5 185.688 186.718 2.718 2.782 54.938 55.406h1222.375l1.063-3.094-5.188-1-3.594 1.5-1.5-2.5-3.5-4.094-1.593-2.5 6.187-1 3.594-.5 7.594 3.094 4.718-3.5 3.094-6 3.594-7.094 6.719-4.5 5.687-3.5 5.094-2.5 3.594-5 3.125-8 4.187-6.593 4.094-3 7.219-2.407 3.593-3.093-.5-3-2-3 1-3 1.094-2.625-1.5-5.5.5-4 2.094-3 2-1.5 1.594.5 1 3.5-1.094 2.5 2.594 2 1 1.125 1.5 3 1 .5 2.625-.5 2-1.5 23.78-22.5 11.813-12.625 5.688-5.5 5.594-4 8.812-3 3.594-3.5 2.094-4-4.094-3.5-5.094-.594-2.094-1.5 1.094-3 1.5-5-.406-4.594v-2.5l3.594-.5 5.5 11.594 3.625 3.094 3.593 1.5 5.094-3 7.188-2.5 2.625-5-1.5-7.094 2.593-3 2 4.594 4.094 1.5 6.094.625 3.594-3 3.625-4.125 3.187-8 2.5-4 6.188-5 2.812-7.282 4.5-.718 12.313-8 7.187-5 2.094-2.5 3.594-.5 5.625-3 1.593-1.5-2.593-1.094-1-3 4.593-.5 4.094-.906 5.188-3 4.625-1.5h2.5l2.593-1.5 1.094-3.5-.5-4.094 2-4.5h2.594l4.094 2.594 3.625 2 3 .5 5.187-1.5 5.094-4.5 5.719-3.5 7.187-2.375h4l3.094-2.5-.406-7.125 7.218-.875 4.594-2 3.094-1 4.094.5 2 1.5 2.5.094 5.218-2 5.094-1 5.688-3 4.125-2 .5-3-1.5-1 3.093-2.5.5-3.094-.5-8-3-.5-8.218 1.375-4.094 3.5-2.094-.5-.5-2 1.094-7.594 2.094-3 4.625 1.094h5.593l3.594-.5 5.594 1 4.594-.875.625-10.625-3-3.094-4.625-.5-2.094-4.5-3-3.594H6345l-3.594-4.593-3.593-1.5-2.5 1.5-6.22-2.594.095-6.5-3.094.5-8.688 1.875-3.093 5.125-3.125 4.5-2.594-1.5 1.594-6.625-2-1.5-4.094-3.094-6.594-7.094-4.594-5-1.5-2-1-3.093v-3.5l-.5-3-1-5.594-3-5-2.093 1-2.625 4-4.094 1-1-3.625.594-2 2-3.5 4.718-5.5 5.094-.5 7.188-3.5 4.625-2 6.187.125 6.594 2 3.594 3.094 2 3 2.125 1 1.5 1 2.5.593 3.593-2.5 2.594-1 2.594-2.5 1.5-3.093 2.094-2 7.218-2.907 2.594-2 2.094-4.093-1-3.5v-2l-1-3 3.594-3-.5-5.094-5.094-3.5-4.594-4.625-1-2.5v-3.094l-1.5-2.5-1.5-3.5-3.594-2.094-2-1-2.593-4-2-4.093-4-5.5-4.625-2.094-2.594-2.5-1.5-5.125-.406-7-1.5-5.594-1.094-2-2.5-1.5-1 .5-1.094 3.5-1 4-1.594 1-2.5 1.5-1.593 1.5-1.625 5.094-1.5 3-2.594 2-3.594-1.594-1-4-1-2 1.094-4 3.594-4.094 3.625-4.5 1.593-3-1.5-5.5-2-6.593v-3l.5-3 1.594-3.094-.5-5-3.094-4-3-4.125-.5-3-.5-2.5v-5.594l1.594-3.5 2.094-2h3l.594.5.406 7.594v4l2 3.5 4.594 5.125 1 3.5.5 4.094.5 2.5h2l2.125-1 4.593-4.5 2.094-4 2.594-3.5h3l4.094.5 7.718 1.093 5.094.5 3.594-.5 5.219-1 4.593.094-.593 5-5.125 4-7.188 2.5-7.187 1-3.625 1.407-2.594 2-1.5 1.5.5 3.093 3.5 2 3.594 3.594 4.625-1 2.593 1.5 3.5 1.5 3.094 2.125 3.094 5 .906 5.094 1.5 6 1.594 2.594 2 4 4.094-1.5 3.125-2 3.093-1 3.5-.5.5 2.093-7.718 7.5-6.094-1.093-5.688-.5h-3l-2.093 3 1 2.5h3.593l4.094-.407 4.594 2 1.5 3.5 2.5 3.094.5 3 2.594 3.5 1.5 2.125 3 3.5 3.125 3.594 4.593 1 1 3.5 1 3.594 1 2.5 1 1.5 7.188 1.093 5.094-1 4.125 1 3.093 1 2.5 4.094-1 2-4.093-2.594-4.625.5-13.375 1.5-1 4.5-2.625-2-2 4-2.094 2-8.281 7.5-3.125 6-1.5 6.594-3.688 4-7.687 6.5-14.313-1.594-6.687 3-2.125 3.5-3.594 3.5-.5 5 .406 6.594 3.594 2 4.094-3 6.218-7 4.594 2 2 4.625 2.094 2 1 2.5 2.5.094 1.094-7.594 1.125-1.5 3.593-3.5 3 1.5-3.593 8.094 3 2 4.093 2.5 3.094 1.594.5 5 2.5 1 3.594.594 5.094-3 6.718-2.5 3.594 5-2.094 6.593.5 2v2.5l.407 2.5 1.593 3.625 2.5-.5 5.688.5 3.5.094 3.094 1.5 1.5 3.5 7.718-3 5.188-4.5 5.094-5.5 4.718-4 6.594-3 6.188-4 5.218-5.5 8.688-7.5 8.312-10.5 8.188-7 5.719-7.093 5.687-5.5 3.594-3 1-2-2-3 .594-3.5 3-3 5.718-1.5 12.407-10.5v-8.625l-4.125-2.594-5.594-1.5-1.5-6.094 1.594-1.5 2 2.094 3.125 1.5 5.593 1 4.594 1.594v4.5l-2.094 5 3.094-.875 3.094-2.625 5.094-4 5.718-4.5 8.188-5.5 6.219-3.875 3.593-2.5 5.094-3.5v-3.125l.094-3.5-2.594-4.5-3.593 1.406-2.5-1-5.094-5 4.594-2 2.093-3-2-3.594-6.687-2.5-5.5-8.594-5.125-3.593-4.094-2.5-.5-3.125 6.094-.375 6.719 2.5 3.5 4.093 7.187 8.094 3.5 2.5 5.094 7.094 5.125 5.094 3 4.5 3.094.5 2.093-2.5 5.094-4-3-5 3.094-4 8.219-4 9.187-2.5v-3.5l2.219-9.594.5-6.5.594-6.094-2-6.5-6.094-6.594-7.719-2.093-5.594-4.5v-3.125l2.594-2.5-1.5-7.5-.75-3.875zm2304.781 0-1.5 3.375 4.594 2.625-.094 5v4.093l3.594 3 1 2.5 2.5 1.094 3.593 1 2 6.5 4.125 2.094 6.188-3 1.5 1 2 3 2 3.094 4.687-1 2 2-4.593 4-9.188-2.5-1.594 4-2.625 5v4.5l-1.593 2.625 5.593 1.5v8.593l-7.687 5-8.188-1.093-2.125 2.5 5.625 6.593 2 2 3.094 1 3.094-.406 3.594-.5 5.593-.5 5.22-5 8.687-2.5 6.093-2 3.125 1.094 5.188-4-3.094-5.594 3.594 1.5 3.094.094 3.5 1 3.218-4 3 .5 3.594 7.094 4.594-1.5 1.5-.5 2.594-7 8.218-.5-1.5-1-.5-4.094 1.594-2 5.594.594h2l4.594 1 5.718.125 1-1 2.094-.5 7.188-6 5.093-1 5.125-2.5 2.688-6.5 3 1 2.594 3 4.093-2 5.625-2 4.594-1.406h2.594l4.094-2 1.593-3-.5-2.594-6.093-8.625 1.5-1.5 5.093 6.625 8.72 4.594 5.593-2 7.687-1.907 8.813-5 5.094-5.593 3.093 3.593 7.22-.5 7.093-1.406 6.687 1 9.22-2.5 14.405-.906 3.094-.5 13.781 1.125 16.907 1.094 12.312.593 12.281.094h10.72l12.28 3.594 13.313.625 11.312.594 13.282 1.594h7.093l7.22.593 5.593-.5 1.094 1 3.593-3.5-2-8.093-3.093.5-4.594 3-4.594-2-4.594-.094-7.718-1.5.593-7.594-2.062-2zm367.813 0 .5 1.093 5.093.5-.094-1.593zm39.437 0-.562 5.28-2.594 4.5 1 1.595v9l-1.594 4.625 5.594 4 6.219-2 5.093.094 7.188-1 5.594.5 6.718 1.593 6.594 1 4.594.594 4.094-.5 2.125-2.5-2.5-8.094-5.125-1-4.594-1.593-4.094-.5-2.094-3h4.688l2.5-1.5 1.094-.5v-3l2.125-4.5.218-3.094zm83.688 0-.75 2.78 5.125 9.095 5.593.5 4.094-.5 3.094-.375 3.094-1.5 1.5.5 1.125-8.125 2.593-2 .907 7.625h2.593l4.594 5.093 7.188-2.5h5.125l4.093.594-.5-8.094 3.594-.5 1.5 8.594 3.094 1.5 6.094-1.5 1.125-2 3.593-3v-3l1-3-.062-.187zm126.5 0-.125 1.5-3.125 3.5-5.688 1.5-3.094 2.5-1.5 5.5-.593 2.593-4.625.907-.5.5-1 2.593 3 5-1.594 1-3.5 2-2.594 2-.094 4.5-3.5.5-3.594-1-4.719 3.5v2.5l2.5 5.094-1 2-4.593 1-3.594 1.5-.594 6.5-1 4h-3.625l-2-2.5h-3.094v3.5l-.093 2-.5.5 3.593 3.594-9.406 21.594-4.688 8.5-5.687 11.125-6.719 13.5-2.094 7.093-4.687 5-4.625-3.093-1.5 1.593-2.594-1.593-2.5-1-3-7.125-1.093 3 1 6.625 3.5 6.093 4.093 7.594 4.5 6.5 2.5 11.094 2.094 1.094 2.125-9.594 1.594-9.094 1.094-8.5 11.406-24.187 13-22.625 11.906-22.094L7178.5 2081l12.406-19.094 4.187-7 11.031-15.093zm-30.532 19-1.5 1-1 1.5-.094 2.5 1 1.5 2.094-2.5.5 1 3.094-.5v-3.5l-1.5-1zm-192.593 2.875-3.125 3 2.625 2.5.5 1 1 1 1 1.125 2 2.5 1.593-1-1.5-5.125-1-2zm110.593 2.125-1.5 1.5-3.593 1-1.5-1-3.625-.5-4.094 1.5-3.094 2-.594 5.5 2 5.093 1.094 1.5h6.594l5.094.594 3.125 1.5 4.593 1 5.094 1.094 5.594 1h4.094l4.125 1.594h3.093l2 1 4.688-2 1-2-1.5-3-7.688-.094-5.093-.5-5.125-1.594-4.094-1-2.594-1.5-2-1-1.5-2.094-2.5-7v-1.5zM7111 2065.5l-3.094 1.5.5 2.5 3.5 2 3.094.594 2.594.5 3.594-.5 3-1.5-1-1.5-3-2.5-3.094-.594-3.594-.5zm-192.687 3.906-7.125 2.5-5.188 8.5-5.687.5-1.5-2.5-5.125-1.593-8.688-1.625-6.094 1.5-4.093.5-6.22-.5-7.187.906-5.093-2.5-9.22 5.5-7.687 2.906-3.593.5-2.625 2-5.094 2.5-7.688 1-6.218-.094-5.594.5-6.188 1h-1l-6.718 1-8.188.406h-3l-7.187 2.5-5.22 1.5-5.593 1.875-4.594.5-4.593 1.5-6.72 1-6.687 1.407-6.093 1-5.72 2.5-11.78 1.406-7.72 2-3 1.5-6.687 1.5-7.218.906-8.188 2-5.094.5-11.312 1.906-6.688 1.5-10.312 2-9.688 3.875-5.718 1-7.594 2.5-4.188 1-5.593 1.5-4.625.407-3.094 1-3.594.5-4.094 6.5-3.093 4-2.625 2-3.094 4.093-1 3 3 2.5 8.219-2.5 4.687-2.5 6.594-4.375 7.219-3 6.687-3 8.188-3 5.718-1.5 7.688-4 7.719-1.406 15.375-4.5 11.312-3.906 15.406-2 13.282-3.406 10.312-3 11.188-1.907 14.906-4 13.906-1.375 11.313-2.5 8.687-1.406 7.688-.5 10.718-1.906h1.594l11.188-2 8.812-1.406 13.313-1.5 12.78-1.907 7.72-1 6.687-.875 6.594-1 7.219-.5 7.687-.906 9.188-.5 7.218-.906 6.188-1h6.094l7.718-.406h12.782l9.218 1.593 11.782.625 10.718 1 13.907-1.406 3.093-3-6.218-4.094-7.594-4-9.281 2.875-7.125-1.5-5.594-1.593-2.594 2.5-4.094-1.5-4.093 2.5-1-.5h-2.125l-3.594-2.094-2-2 1.094-4.5-6.688-.594zm91.593 23.188-.593 3.5 3.093 4.594 1.5.5 7.688 2.125 9.719 2 14.78 3.187 12.813 5.594 7.094 2.5 7.688 3.594 7.718 3.125 8.094 4.093 7.688 4.5 7.125 4.594 4.093 3.094 3 4 3.594 3.094 3.5 4.5.5 2.5 2.094-5.5 1.594-3.5 1.5-3-1-2-1-1.094-1-1-2-2.5-3.094-1L7113 2132l-2.5-4-8.187-.594-7.125-4.5-3.094-2.593-1.5-1-3.094-1-2-1-1-1.125-.5-2.5-2.094-1.5-2.5 2.5-4.593-1-3.125-1.594-2.594-1.5-.406-1.5-2.094-.5h-4.094l-5.594-1.594-8.218-3.594-3.594-1.5-7.094-3.093-5.094-2.5-5.093-2.125h-7.22zm58.782 5.906-1 1 4.125 5.094 3.5.5.593-1.5-1-3-1.093-1.594-3-.5zm21 6.188-1.594 1-1 2v2l1 1.5h1.5l2.094-2 .5-1.5 1.125-1-1.625-2zm-518.5 21.625-.594 3.593 2.594 1 2.5.5.125-2-1.125-1.5zM6586 2135l-2.594 1.5-.5 3 4.094-.5h2v-2.5zm-42.594 8.813-5.718 2.5-5.594 5.5-3.594 2.5-1.594 1.5v1l2 1 1.094 2.093 1 3-1.094 1.5 2.094.5 1.5-1.5 2.094-2 3.094-1.5v-2.5l.5-1.5 2.625-1.5 3.093-4.5v-3.593zm30.688 6.187-4.094 1.5-6.687 4-8.22 3.5-9.28 4.5-4.125 3.5-4.594 4-1.594 3 2.594.5 3 .5 3.594-1.406 3.625-4.594 4.093-2 3.094.094 2.594-2 2.594-1.5 2.5-1 3.125.5 1.5-1.5 2.593-1.5 2.094-2.5 1.5-2.5 1.594-2zm-50.906 28-12.375 9-6.125-.594-3.094 2.5-2.094 1-1.5-1-1-1-3.094.5-2.593 2-2 2-1.625 4-.5 4 1.5 2.094 2.5 1.5 4.218-2 7.688-4.5 8.719-5 4.593-2.5 1.094-1.5 4.594-3.5 4.094-3.5v-3zm-46.282 27.906-1.593.5-1 2 1 1.5 1 .594 1.593-1 2-1.5.094-2.094zm-6.718 9.094-3.594.906-4.688 5.594-1 1-9.312 7.5-5.094 5.5-4.687 5-9.813 9-3.094 2.5-2 1.5-3.593 3-3.125 2-3.594 2.5-4.094 2.5-2.594 2.5-3.593 2.5-4.625 3.5-5.188 3-2.594 2.5-3.593 1.5-3.125 2-.5 2v1l1.5 1 2.625.094 2.593-2.5 7.188-3 4.094-2.5 2.625-2 2.5-1 4.687-3.5 1-1 3.094-1.5 4.594-2.5 2.125-2 3.593-3.5 3.094-2 2-2.5 3.094-3 1.594-2.5 2.625-3.094 4.093-4 4.094-2.5 3.094-3 4.594-3.5 4.718-3 4.594-4 1.5-2.5 3.094-2.5 1.094-3-.5-2zm-96.594 40.188-3.594.5.5 4 2.5 1.125 2.094-.5 1.5-1 .094-2-1.094-1.625zm-4.688 10.625-.5 3 4.094 2 1.5-.5 1-1.5-1-1.5-2.5-1.5zm14.282 1.093-1.5 1.5v2l1 1.5 3.125.5 2 .5 1.593-.406-.593-1.094-1.5-3zm-14.782 6.407-2.593 1-1 1.5.375 2.093.625 1.5 3.5-.5 2.593-2.5-1.5-3zm11.688 7.187-3.594.406-4.094 3.5-7.218 1-1.594 2.5-5.688 8.094-8.218 3.906-7.188 6.094-10.812 5.406-7.688 4-7.687 3-6.72 4-6.687 3-7.093 3.5-5.22 3.5-3.093 1.5-2.5 2-2.594 1.5-2.093-.094-1.5-2-1.5-.5-1-.5-1.625.5-3.594 1-5.094 3v2l1.5 3-2.594 3.5-3.593 1-1.5-1-3.125.5h-2l-2.094 1.5-1.594 3 1.594 1.5-1.094 1 1.094 1-1.094 1.5-1.5 2.5-9.312 4.5-6.094 1-4.688 5-2.5-1.5-3.093-2-3.625 4.5-.594 6.5-.5 1.5-6.094-3.5-5.094 4-3.218 4-1.5 3.5-3.094 3-2.594 4.5-3.094 3-3.593 4.094-6.22 4-3.593.906-2.5 2-1.594 3.594-2.093 2.5-5.125 3-3.094 2-2.094 1.5-1 3-2.594 4-4.593 5.5-6.72 6-5.187 6-5.718 5.094-4.594 4.5-5.688 4.5-4.093 4-4.625 4.5-3.594 3-3.594 4-11.406 9 1.5 5.094 19.594-18.094 10.812-9 10.313-10 8.78-7 6.22-5 7.187-7 6.188-6.5 6.218-7.594 5.594-4 7.813-7 6.093-4 5.188-5.5 4.094-1.5 5.218-5.5 6.688-6 2.5-2 7.219-6 10.78-7 9.313-5.5 8.688-5.5 13.906-7.5 11.313-7.5 12.875-9 11.812-6.5 6.188-3.5 5.718-3.5 7.688-2.906 13.312-6 12.907-5.5 8.187-5.5 7.188-5 5.218-5 4.094-4.5 4.094-5.5zm-136.688 73.313-3.093 1.5-2.125 1.5v1.5l2.5 2.5 3.625-1.5 2.593-3-1.5-2zm-102.5 77-1.5 1.5-1.593 2.5-3.125 3.5-4.094 2.5-2.594 1-4.094 2-3.593 2-2 2-1.125 2-1 3.5 1 2.093 3.125 1 2 1 3.593-.5 2.594-2.5 2.5-1.5 2.094-2.5 2.594-4 2.625-3 1.5-2 1.593-2.5 1.5-2 1.094-2.593.5-1.5-1-2zM6109 2462.906l-1.094.5-1.5 1 .5 2.5-2.093 2v1.5l1 2 3.593.094 3.094-1 2.094-4.593-.5-3-2.594-1zm-13.406 10.5-2.094 1-3.094 2-1 1.5-1.5 1-1.093.5-1.5 2.5-.625 2.5 1.625 2.5 2-.406h3.593l2.594-1.5 1.5-1.5 1.094-2.5 1-3.594-.5-3.5zm-17.5 13-2.594 2.5 2 2.5.5 1 2.594 1.094 1-1 1.094-4.094-.5-1.5-1.594-.5zm-8.281 7.5-4.125 2-3.594 3-2.094 5.5-.5 1.594.5 1-.5 3 2 .5 1.594.5 1.5-1 9.219-3 3.093-5-2-4.5-2-2.094zm19.5 2.094-2.625 1.5-1.594 2.5 2.094 3.094 3.125-.5h1.5l1-2-1-4.5zm-17 16.594-5.72 5-3.093 3-3.594 4-2.593 1.5-1.5-.5-1-3V2519l-3-2.5-3.125 1-2.094 2-1 2.5.5 3.5 1 3.594 1 3-.094 3-.5 2.5.5 2.094 1 2 6.187-4 3.625-4.5 6.188-6 6.187-6.594 2.625-3.5 1.5-3zm-38 15.906-.125 4v1.5l2.125 1.094 4.093-2 .5-2.594-1-1.5-2.593-.5zm.375 10.594-2.594 1-2.5 2.5-1.594 3-1 2.5.719 2.5h4.969l-.594-.906v-1.094l2.5-.906 3.094-2.5 2.625-2.594-.5-2-3-1.5z" style="fill:#9faec0" transform="translate(0 25)"/><path stroke="#9FAEC0" stroke-width="10" d="m4790.25 2550.594 5.938 6 1.312 1.406 272 278 18.188 18.313 98.5 99.187 66.624 67 3.188-2.812 5.188-5.5 9.218-1.375 7.688.5 3.593 2-2.093 3.593-5.688 1.907-9.219.5-4.093 2-2.094 4.5 16.906 16.687.5-.906 1-4.094 1.094-5 3.594-2 5.593-2 20-5.906 23.626-7.5 18.374-5.406 15.407-6.5 12.906-1.375 9.188-3 7.718-2 6.594-1.5 8.688-1.407 7.218-4 7.688-.5 4.093-.5.5-2.5-4.5-7.093 3.626-.907 2 2.5 3.593.5h3l4.688-3.5 2.093-6.5 1.5-4-2.5-2.093v-1.5l1.626-4.5 1.5-5.125-2-2 3.593-4 1.094-6.594 4.094 1.094-.094 3.5v5.125l2.5 10.593 11.812-1.5.5 2-2.625 2.5-7.687 2-1.5 1.5-1.094 5.094-3.094 3.5 2 3.5.5 1.5v1.5l-1.5 2.5-8.719 3-3.093 1.5.5 2.5 2 .594 13.812-1.5 8.188-1.406 13.406-2.5 9.688-.875 11.812-2 13.781-1.907 11.313-1.5 10.687-.906 7.219-1.5 9.781-.5 10.719-.406 1.094-5.5 6.093-6.094 7.813-5 6.594-3.406.593-7.094-4.093-4.094-2.5-5.5-5.094-3.093-.5-2 1.5-1 10.781 1.593 3 3.5 2.5 7.594 4.125 5.094.5 7-4.719 6.094.5 1.5 5.094 1h4.625l5.188 1.125 1.5.5 1 1.5-1 2-3.594 2.5-10.812-.625-10.188.5-9.812 2v3.5l4.093 1.5 14.906-2.875 12.813.593 8.688-2.5 7.718-1 6.594.094h6.688l10.218.594 10.688 1 17.406 1.594 14.406 1.625 9.688 1.594 11.687 3.593 11.313 3.094 9.187 3.594 10.719 3 8.188 2.125 5.093 1.094 7.625 1.5L5768 3004l4.094-2.5 1.093-5.093-11.28-2.094-5.595-4 .5-3.625.594-2.5.5-1 4.594-2.5 3.094-1 5.093-7 5.72-3 6.187-3.5 5.093-3.5 5.72-8 5.687-8.594 3.593-8 3.125-9.594 2.594-5.5 1.094-2 1.5-4.5 3.687-5.093 5.125-4 5.688-2.5 2-5 .594-7-2-6.094 1-6.625-2.5-5 1.093-15.094 3.22-6.094 2.5-2 2.593-9 .094-6.093-1-6v-3.594l3.094-6 .625-2.5.5-2v-5.125l-1-6-.407-5.594-1-8.094-1.5-8-2.406-16.687-3-14.625-2-6.594-3.094-6.094.094-4.5-2-8.093-2.5-10.094-5-14.125-4.093-1.594-1-4.5.5-6 1.593-6.594 1.094-5.5 1.5-3 2.094-2 2-.5 1.125-.5 1.5.313 2 .687 5.594 15.594 2.5 6.094 2.5 4.125 3.093 5.5-.593 6.594 2.5 7.5 4.593 9.187 5.594 4.5 2.5 9.594.406 11.125 1 10.094-.593 8.593 1.5 11.094-.594 7.5-1.625 9.594.5 8.125 2 5 3 2.594 7.719-2 5.093-2.5 6.188-2.5 1-.5 5.719-4 1-3.5 2.593-7.094 2.688-7.5 1-9.125 3.219-18.094 5.28-16.594 4.126-9.093 4.187-9 3.094-9.094.5-2.5 1.594-3.5-3.094-1.5-2-1.125.5-2.5 1-2.5 3.594-1 3.625-.5 1.594-2 5.687-9 .5-3 .5-3.594-2.5-3.5-4.094-3.094-4.593-3-3.5-5.593 1-1.5 2.093-.5 3.094-.5 6.094 2.593 4.625 1.5 2.5 1.094 1.594-2.094 3.593-7 2.594-3 3.594-2.5 1.625-4.5-1-4.593-5.125-4.5-3.594-5.094-.5-3.5 2.094-.5 4.625 2 4 4.594h3.094l2.593-1.5 4.094-7 4.219-5.594 8.187-11.5 8.813-10.5 7.187-8.625 8.313-6 5.594-7.5 6.187-7 4.719-8.594 3.094-6.5 5.187-7.5.531-1.5zm1237.469 0 .281 1 2.5 1.094 2.594-1.5-.406-.594zm7.875 3.094-3.094 2-3.594 2.5-3 1.5h-3.593l-1.625-.5-3 1-3.594 4.5-3.688 4.5-2.5 3-2.593 4-2.125 4.5-1 2.625 1.5.5 3.125-.5 1 .5v3.5l1 4.093 1 1.5 1.5-.5 2.093-4.5.5-3.593 1.094-2 2.5-2 1.594-2 1.5-1.5 2.094-5.5 6.218-7 4.094-3 2.594-3.125zm-35 38.125-1.094 1-1.5 2.5 2.5 2.093 1.594-.5.5-1.5 1-2-1-1.593zm-9.281 7-1.5.5-4.22 2.5-1.5 1.5-2.093 2 1.594 1 6.594 1.093 3.625-5zm-2.72 14.593-3 2h-2.093l-2.5-1-5.687 1.5-3.125 5-.5 4.5-2.094 3-5.594 1-3.094 1.5-1.593 3.5-2.625 3.5-2 3.594-1.094 3 1.5 3.5 4.094.594 3.625-3.094 1.593-5.5 4.094-4.5 2.594-1 3.594.5 3.125-1 2.5-1 3.593-5.5 2.594-4.5 3.688-6 1.5-2.5zm-12.905 27.688-3.094 1.5-2.594 4.5-4.187 6-2 2.5-4.125 4-2.594 4.594-1.594 5.5 1.5 2 1.594-.5 4.094-2 2.125-6.5 1-.5 3.093-4.5 1.5-3 1.594-3.594 2.094-1.5 2-2.5 1.094-1.5.5-3.5zM5949 2650l-3.594 2-1.093 1.5 1.093 2 2.5 1.094h1l2.094-2-2-1.094zm-1.094 11.094-3.093 2-3.125 2.5 1 4.5 5.125.594 2.093-3 .5-3.594zm-11.906 13-2.594 2 5.094 3.094 1.594-3-1.5-2.094zm12.188 9.719-4.594 1-7.688 12.5-4.718 9.593-4.094 6.5-1.594 3.5-6.687 4-4.125 2.5-2.094 2 2.094 2.094 2 .5 3.125 1.5-3.625 1.5-2.594 2-3.094 2 2.094 2.5 3 .5v2.594l-4.188 14.594-2.593 9-2.125 6.625-3.094 8.5-1.594 6.093-2.094 8.5 1 2.594 2 1.5 3.094-4 3.688-12.094 3.718-13.093 4.094-12.625 3.688-11.094 2.625-9.5L5928 2725l4.094-8 6.312-13.094 4.594-7 4.188-5.593 3.625-5.5zm-113 57.28-1.5 1.5-.594 4.595 1.5 3.5 1.594 1.5 1.5 1.5 2.625.125.5-5.125-2-4.5-1.5-1.594zm74.218 6.5-6.093.5.375 4 .625 1.5h2l2.593-1.5 1-3zM5894.688 2806l-2.594 2.5-4.094 1 4.094 2 4.094-1.5zm-17.5 9-4.094 4-5.594 3.5-4.687 3.5-4.125 2.5-1 .5-3.094 2.5 2 4.5 1.5 12.094-.094 15.219.406 7-1.5 6.093 2.5 4-.594 5.594.5 5 2 6.094-1 4.5-1.125 6.094-2.593 2.5-4.594-.094-3.594 4.593-3.094 4-4.625 5 2 1.5 3.125 2.5 2.5.625.5.5 4.094-.5-.5 2.5-2.094 8.594-3.625 6.5-2.593 3-1.594 2-.5 1-2 3.594-1.594.906-2 3.594-1.594 4.5.5 3.5 2 3.094h2l2.594-3.5 2.594-4.594.594-4.5v-1l5.093-8.5 5.72-9.094 4.687-10.594 2.718-12.5 5.094-9.625 3.094-6 1.094-9.593 1.093-12.594.625-7.094 1.094-8 2.594-5.094 2.594-7.5 2.593-6 3.625-6.125 2.094-5 2.094-8.093-1.5-4.5-1.594-2.5-2 1.5-2.594 5.5-1 3h-2.625l-1-3 1.625-5.594v-3zm-54.875 104.5-3.625 1-2.594-.5-3.094 3.5-1.5 4.594-1.094 5 2 3.5 4.188-2 1.5-2 2.594-4.5 1-4.5zm14.687 16.313-2 2 .406 4v3l1.5 2.593 2.094 1 2.594-2.5 2-2 2.094-3v-2.593l-1-2-2.594.5-2 1.5zm-14 33.687-2.594.5-.5 3 1.5 1.5 1.5 1 1.594.5 2-.5-.5-4.5zm-16.406 1.906-3.094.5-2 2.5-1.594 3-.593 5.094 1.093 2.5 3.594-1.5 2.5-3-1.5-4.094 3.594-4zm30.719 3.688-3.125 2-5.188 9.594-.594 7v5.625l.5 5-1.593 3.5h-4.125l-4-2.5-1-5.125v-7.094l-3.594-2-6.094 3.5-5.687 1-2 2.5-.625 5-3.594 2-2 3.5-2.594 4.094-4.094 3-5.218 6.5-3.094 8 3 5.125 3.094 2.5 4 3.593 2.125 1 4.093 1.594 5.094 1.5 5.594 2.094 3.594 2 3 1 4.125 2.594 4.593 2.5 3.594-.5 1-6 .594-7.094 3.094-11.094 2.218-12 1.094-11.594 2.094-12.093.594-6.625 3.125-9.594zm-25.125 6.406-2.594 1v1.5l1.5 1.5-.5 1.594 1.5 2 2.094-3 .5-3.094zm-385.094 16-8.688.5-15.312 2.406-7.688 3.5-9.812 2-5.094.407-6.187 1-8.22 3-2 5.5-1.593 5.093-3.094 3-5.719 2.5-5.093 1.407-1 3.093 7.093 1 8.813-5 12.813-5 15.374-5.406 12.313-5 11.813-4 5.093-2.5 6.188-1.906 1.593-3.594zm-75.282 19.813-3.124 1.5-5.688-.625-4.594.5-5.094 3v2.5l2.5 2.125 3.594-1 3.594-.5 4.094-.5 4.593-3zm-27.218 7.875-5.688.5-10.219 3.406-10.28 2-4.595 1.5-2 .5-2.812 1.312 1.188 2.688 5.124.5 3.094-1 2.594-.5 2 1.594 2.594 2 5.093-1.5 7.72-1.5 5.093-1.375 3.094-2.5 1.5-4.125zm-27.188 16.5-4.094 1-3.124.906-2.094 1-3.094 2.594-.5 3 2.594 1 2.5-1 3.593-4 2.626-.5 2-.5 1.593-2z" style="fill:#9faec0"/></svg>