<svg xmlns="http://www.w3.org/2000/svg" width="1138.5" height="697.969"><path stroke="#9FAEC0" stroke-width="10" d="m1036.406 0-256 .125-152.031.219L387.25.219l-108.437.25L0 .156.031 58.5l.031 1.625.063 6.938v46.28h1048.312l-.125-1.937 2.063-.125v-2.25l-2.75-.5.75-1.594.656-1.562-2.812-1.562-.282-1.75 1.594.343 1.625-1.406h-3.25l-.875-1.75 3.656-1.844-1.312-2.187 2.125-.688.03-1.594-1.78-.624 1.53-.688 1.47-2.062-1.438-1.657 2.281-.125-.78-1.719 2.093.25L1052 83.5l2.53.375-.968-2.75 1.5-2.062 1.094-1.688-.281-1.687 1.093-4.157-2.343-1-1.75-2.969.125-1.718-.938-2.031-.406-2.657-1.594-.5.313-1.875-.563-1.906-2.031-.687 1.281-2.47-2.062-2.5 1.75-1.28-1.75-.438.094-1.781-2.344-1 1.594-1.157-2.407-.124 3.188-2.094-2.125-.282-1.313-1.718.282-1.657-.813-1.718 1.563-.938-.282-1.531.25-1.937-.75-2.188-1.562-.875 1.75-2.031-1.875-.25-1.094-2.407.625-2.53-2.937-2.407-1.094-3 .812-2.156-1.906-1.75-1.062-1.844.968-3.406-1.718-.969.156-1.656.03-2.563 1.688-1.812z" style="fill:#9faec0" transform="translate(0 125)"/><path stroke="#9FAEC0" stroke-width="10" d="M.125 113.344v.687l.313 47v28.656l.28 40.594h1062.345l.03-.156-1.656-1.625-.437-2.719-.813-2.187.532-1.938-.282-3.219-.781-2.5-1.719-1.25-1.656-2.937-.344-1.75-.312-2.344.03-1.531-1.437-2.312-1.875-.47.469-1.593-1.344-4.125.438-1.906-3.031-.156.968-1.97 2.25-2.718-2.5.594-.531-1.656.969-1.657.094-1.719-1.719-.812 2.125-2.562-.781-1.688 1.75-.906-1.531-1.906 1.75.53 1.53 1.063-.78-1.531-2.438-1.219-1.625-.281 1.906-.875 1.938-.312-3.094-1.188 1.688-1.25-2-1.25 1.718-1.125 1.563-.125-.719-1.625.563-1.656-2.563-1.375 2 .156 1.531-1.625.313-1.5-.813-1.656-2.156-.219 1.469-1.656h1.969l-1.813-1.156-.156-1.782-1.563-.031.813-1.625 2.594-1.094-2.063-.968-1.656-.375 1.656-.688-.094-2.406-1.687-.75-.407-1.719-1.812-2.156.437-1.656 2.313-.47.594-2.093-1.844.188-1.844-1.157-.156-2.25 2.844-1.375 1.187-1.812-1.156-1.844-1.625 1.313.594-1.813 1.968-.062 1.625.062-1.562-1.156-1.219-1.844 2.656-.5-1.375-1.781-2.312-.063 2.844-2.281-.188-2.125-1.906-.094-.219-2.437 1.5-.688-3.719-.812 3-1.406.72-1.594-2.22-1.5-.03-.5z" style="fill:#9faec0" transform="translate(0 100)"/><path stroke="#9FAEC0" stroke-width="10" d="m.719 230.281.031 4.75.375 24.219-.281 25.656-.219 62.281h1091.938l.343-1.062-1.625 1 .688-1.625 1.656-.531-.687-1.625.468-1.844.25-1.844.844-1.656-2.625-.687-1.156-1.657 1.562-.469-.219-2.718 2.094-.313-1.781-.75 1.594-1.656-1.563-1.687 1.563-1.375-2.907-.094 1.594-.031-.312-1.782 1.093-1.968-.718-2.47.187-1.687-.03-2-1.813-.968-1.625-1 .656-1.657-1.094-1.625.031-2.03-.656-2.313.188-2.532.03-2.25-1.625-1-.468-1.53-1.219-2.188-2.031-1.688.531-1.562-1.656-1.282 1.031-1.593-.625-1.97-1.156-2.28.531-2.375-1.375-2.375-.156-1.72-1.125-1.53-1.875-1.25-.657-1.532-.218-1.875-1.75-.5-.813-1.562-1.5-.813 1.75-1.562.719-1.625-.937-1.688-.72-1.718-1.843-1.094.125-1.563-.125-2.375-1.094-2.5-2.656-1.125-.125-1.656.781-1.844-.906-1.593.906-1.875.281-1.563-.156-1.687-2.969-2.97.125-1.5-1.78-.562-1.095-1.843.47-1.657-1.438-1.656.406-2.406.906-3.313z" style="fill:#9faec0" transform="translate(0 75)"/><path stroke="#9FAEC0" stroke-width="10" d="m.625 347.188-.094 33.375.094 63.75-.094 19.812h1101.313l.437-.562-2.218.468-1.782-2.062-.187-2.969-.281-1.687-.438-1.907-1.625-1 .625-1.531.688-2 2.218-.656-1.406-2.125 1.75-1.125-1.531.406-.563-1.906 1.313-1.594-1.906-1.969 1.593-.187-.531-1.656-.437-1.72.968-1.843.375-1.687-.562-2.032-.156-1.812.124-1.563-2.062-1.812 1.563-.781-.282-1.782-.343-2.594-1.157-1.562.875-1.75.813-1.5.03-2.375.126-1.812-1.781.25 1.437-1.532-2.812-.469 2.25-2.468-.095-1.688-.375-1.719-1.53-.812 1.78-.875-1.5-1.469 1.625-.75-1.968-.75 1.75-1.625-1.875-.969 1.094-1.687-1.126-1.562 1.532-.157-1.563-.594.719-1.562-.562-4 2-2.937-1.876-.657-.593-1.594 1.531-1.687.344-1.75-1.719.219 1.75-.625-.906-1.875-1.031-1.531 1.5-1.782-2.282-.906-.75-2.156 2 .219-.281-1.532-.625-1.562 1.813-.375-.907-2.031.75-1.657-2.062-1.531 1.625-1.281-2.25.469-.625-1.813-1.656-.312 2.656-1.5-1.563-.563 1.063-2.25-.281-1.781.78-2v-1.688l-1-2.406.282-.937z" style="fill:#9faec0" transform="translate(0 50)"/><path stroke="#9FAEC0" stroke-width="10" d="m.531 464.125-.156 29.438.188 58.187-.094 29.281h1113.25l1.156-1.187-1.375-2.219 1.031-1.625-1.875-.906-.843-1.532-.126-2.218-1.406-1.657 1.219-1.593-.469-1.688v-1.687l-.687-1.719.594-2.25-1.813-.344 1.719-.562-1.594-1.438.188-2.468.093-1.625.126-1.844-1.657-.5 1.563-.969-1.563-1.094.219-1.937-2.344-.188-.75-2.125-.218-1.906.343-1.687-1.781-.594.406-1.719-2.062.406 1.125-2.062-.5-1.782-.75-1.75.219-1.78.593-1.657.25-1.656-.406-1.532 1.531-.937-.03-1.594-.97-2.125 1.157-1.75-1.156-1.718 1.843-1.75-.25-1.657.031-1.812-.375-1.594-1.031-1.781 1.813-1.125-1.782-1 2.032-.406-1.97-.782.813-1.594-1.968.282.094-2.938-.875-1.625.625-1.719-.72-1.593.376-1.844 1.281-1.875 1.719.469-.625-1.719-.406-1.75 1.843.156-.843-1.687.687-1.531-1.219-1.657.282-2.062.312-2.125 1.781.125-.937-2.063-.313-1.594.469-1.812 1.531-1.344.344-2.312.656-2.031-.968-1.5-2.594 1.562-1.75-.062.281-2.094-1.219-1.563-.094-1.5-.781-1.594.875-1.187z" style="fill:#9faec0" transform="translate(0 25)"/><path stroke="#9FAEC0" stroke-width="10" d="m.469 581.031-.063 15.094.125 59-.219 28.438.188 12.5 267.531.093h2.344l127.594.25 107.719-.062 145.937.75 108.406.187 87.844.688h289.563l-.157-3.063-.843-3-.313-3.094-.531-7.03.25-1.938-.563-2.438.532-2.125 2.03-4.281.657-2.156-.062-2.938-.031-2.281v-1.781l-.094-1.594-1.062-1.938-.25-1.937-.532-2.063-.156-1.875-.562-1.625-.532-2.125.157-2.187-1-1.781.5-1.532-1.813.5.969-1.5-.656-1.968.906-1.625-.688-1.688.094-1.812-1.125-1.563-.281-2.062-.031-2.157.625-1.656 1.531-.969-1.781-.812-.75-1.906.438-1.875.187-1.813-.844-1.844-.593-1.75.312-2 .781-1.937-.406-1.938.281-2.406-1.562-1.406-1.625-.906.562-1.625-1.937-1.594-2.406.844-.594-2.844-1.719-1.938-.969-1.875-.218-1.78-.657-1.75-2.5-2.626-.375-1.687-1.531-.188 1.25-1.594-1.719.938-.156-2.469-.719-1.562-1.75-.938 1.594-1.531-1.594-.531.313-.313z" style="fill:#9faec0"/></svg>