<svg xmlns="http://www.w3.org/2000/svg" width="3675.406" height="3995.188"><path stroke="#9FAEC0" stroke-width="10" d="m3637 0-5.094 1.594-7.094 4.093-6.718 3-1.5 2.626-11.688 3.593-6.219 1.5L3588.5 20.5l-15.812 6.094-7.688 3.593-7.594 4.125-10.219 5.594-6.687 1.594-13.812 3.094-9.094 4-5.688 2.093-9.719 5.626-6.593 2.093L3484.906 63l-6.219 2-6.593 3.594-7.094 2-3.094.594-6.719 1-8.093.5-5.688 1.124-1.5 1-2.5 2.5-3.094 1.594-3.124 2-2.5 1.5-2.094.5-2.5.594-2.594 1-2.5 1-2.094-1-2-2h-2.094l-8.218 2.094-3.5 2.5-4.094 5.094-6.094 4.124-4.594 2-4.124 1-5.094 2.094-4.094 2-4.094 1-4.094 2.094-6.124 4.094-3.5 2-5.094 2.5-5.688 2.594-8.719 3.624-8.593 4.594-6.688 3.5-4.094 1.094-5.624 1.5-6.594 2-7.688 1.094-5.594 1-9.218 1.594-6.688 1.5-5.594 2.125-10.218 2.593-2.594.5-3.5 1-6.187 1.594-8.22 1.5-8.593 6.594-6.687 2.594-16.313 5.625-14.312 7.687-12.282 5.094-9.594 5.094-7.218 3.5-6.594 3.125-7.187 3.5-9.22 3.593-13.28 7.688-16.813 10.094-7.594 5.125-9.219 5.093L3087 228l-4.094.5-8.594 5.594-6.718 4.594-9.688 5.625-6.094 3.5-6.624 3.093-6.688 2.5-12.687 4.594-4.626.594h-4.093l-4.594-2-3.094-1.5-3.594 1-5.124 3.594-5.594 4.5-9.188 5.625-12.219 8.687-7.187 4.5-4.094 3.594-4.594 2.5-11.218 6.594-4.594 1.625-2.594 1.5-3.5 2.5-5.594 3.593-7.218 6.094-4.594 4.5-4.5 3.594-3.594 4-5.094 4.594-2.624 2.5-4.5 4.125-4.094 4.093-6.094 5-6.187 6.094-4.5 4.094-5.126 6-7.187 9.094-6.594 9.218-8.594 12.094-5.624 6.594-5.594 5-2.594 2.594-8.187 5.125-9.126 5-8.687 4.093-6.687 3.094-4 5.5-5.626 5.594-6.687 6.094-5.594 6.125-4.094 5-6.124 6.093L2760 465l-4.094 4.594-5.594 4.5-5.624 5.094-4.094 4.125-6.094 6.5-5.094 2.593-11.219 9.094-14.28 12.188-6.595 5.125-6.218 3.5-5.594 3.093-6.594 3-4.594 3.594-6.124 4.5-6.688 5.094-5.594 3.093-5.094 6-6.624 3.625-11.782 6.094h-.5l-8.219 3-16.374-3.906-10.22-3-8.687-1.5-6.219-1-13.28 2.594-8.72 2.093-8.687 4.125h-6.094l-6.094 3.5-10.812 1.094-6.594.5-8.219-.406-28.187-3.5-14.312-2.906-6.688-2.5-6.187-1.5-10.22-5-7.687-4.5-.5-.5-11.312-4.5-10.282-4-7.624-2-7.188-.907-11.312 3-9.188 4.125-9.187 2.094-13.313 5.594-12.187 4-21.5 5.688-14.313 4.125-13.312 5.593-9.688 5-6.687 3.094-6.126 2.5-2.593 1.094-2.5 1-2.094.5-1 1.5-3.594.5h-3.594l-1 1-2.5 3.593-5.124 3.5-9.188 5.625-7.687 6.094-6.626 5.094-8.687 5-6.094 5.094-5.719 2.5-14.28 7.718h-7.595l-5.218.5-6.094-.5-7.687 1.094h-19.907l-11.812.594-7.188 1-4.594 1.094h-1l-2.124.5-5.594 2-7.688 1.5-4.594 3.093-7.624 4-6.094 3.625-6.188 3.5-9.219 5.094L2065 663l-3.469 1.844h1592.813l-3.438-122.75L3650.5 532l-.406-11.312-.5-16.875-.188-3v-7.125l-3.312-144.188-1.282-49-1.218-43.312-3.407-114.594-1.5-42.781zM1195.906 294.688l-6.406 3.5-4.094 2.625-3.094 1.5h-5.125l-.5-2 .5-1.5v-1l-.375-2.22-235 8.813-11.312.406-2.594.094-38.719 1-46.687 1.188-41.594 1.406-53.406 1.594L630.594 312l-185 1.687-30.5.313-82.407 1.094-111.593 1.312-36.407.5L75.5 320l-3.313 151-.593 32.812-.094 5.782L69.093 619.5l-.937 45.344h1883.156l-16.406-10.938-5.594-2.5-9.219-6-5.687-7.094-6.219-5-6.094-5-7.187-8-8.219-4.5-5.687-5.625-6.094-6.5-5.719-5-10.281-11.593-4.594-5-3.625-5-2.594-4.094-3.093-3-6.594-3-3.594 3.094 1 5.5 8.781 3 8.22 13.093 4.593 2 4.094 4.5 5.687 4.5 3.625 3 3.094 3.5 3 4.125 3.094 5 3.593 4 4.094 1.5 3.625 2.5 2.594 2.5 3.094 3 3.093 3.594 2.5 2.5 4.094 3 3.125 2.5 2.094 3-1.594 2.5-4.125-2-2.5-1-2.094-1.5-2.5-1.5-4.093-2.5-5.188-3.5-3.625-3-3.594-2-3-.5-3.093.5-1.594-7.5-2.5 1-2.094-3.5 1-2.094 1-4-1-2-3.125 1.5h-3.5l-1.094 1-1 2.094-3.593-.5h-8.188l-3-2 3.5-1.5h1.594l5.594-2.094 2.593-2-.094-3-9.187 1-12.313-1-5.093-3.5-4.094-4h-3.625l-5.094 2.094-4.094 2-5.093 3-3.594 2.094 1-10.594h-3.125l-3.5 15.094-2 .5-3.094-1.5-1.594-.5-2.5.5-4.093 2.094-6.72 2-5.093-.5-3.594-1-1-.5-5.093-4.5-5.22-5-3.093-7.594-3.5-2-5.187-4h-5.094l-5.625-5-4.594 3-3.094-1-5.187-5-3 .5-.5 5.094v10.593l-5.125 7-7.094 4.125-6.187 5.594-8.094 4-8.219-1-6.187 1.594-4.594-1.5-4.125 4-5.594 2.5-9.187 7.594-11.22 7.593-7.187 2.625-7.687-.5-3-.5-6.719-4-5.687-3.5-4.094-6.125-2.5-4.5-3.125-4.5-1.594-5v-3.093l-4.594-5.5h-2.593l-4.594 1.5-3.625 2.593.125 2.5 2 2 .5 2.5 1.094 2h4.593l1 2-.5 2-2.593 3.625-1.5 1-3.594 1-3-.5-2.625-2-2.594-1.5-4.094 3.5-.5 3.094-.5 3h-1.5l-1.593-6.5 1.593-3.094 3-2.5 2.094-3.5-.594-1-.5-1.625-2.5.625-5.687-1-2.5-2-3.125-4.125-5.094-1.5-3.594.625-4.093 1-8.72 3.5-3.593 1-2.5-.906-4.094-1.594-4.093 1.094-2.094-.5-2-.5-3.125-2-.5-2v-2.594l1-2 4.125-2h6.094l7.687-1.125 9.219-2.5 5.594-1 .5 3 4.093-.5 4.594-2.093 2.094-2 3-1.5 3.625 3 4.094 2.5 4.093-.5.5-2 1.094-2.5 2-1.594 2.594-1.5 3.5-1 4.125 2.5 1.594.5 2.5-7.594 4.093-5-.5-3.5 2.5-4.594 1-2.5 3.594-3 7.219 1.375 7.094 1.5 4.687.5 5.094-1 5.125-1.5 7.187 1 5.594-.593 8.219.5h7.687l7.594-1 7.219-1.594 6.687-3.5 5.094-1.594 1.5-3 3.594-1.5 3.5-1 4.719-1.094 7.687 7.094 6.594 5.5 3.125-1.5 2.5-8.094 3.094-3.5 2.5-1.625 4.093-1 9.188-1 4.625-1.5 5.187.907h5.594l6.719 4 5.594-2 3.093-2.5 5.094-5.094 4.094-.5 4.125 1 4-.5 4.094-.5 4.093.406 5.688.5 2.5 3 .125 4.594 1 3 2.594 4 3.593 3 2-4.5-2.593-8.594-1.5-3.5-2.094-3.5-1.625-3.5-1-2.594 2.125-2.5 3.5-4.5 1.5-3.125v-7.5l.5-2.5-.5-2.093-1.5-2.5-1.625-1.5-2-1-2.594-1-3.594-.5-4.593.593-8.22-1-6.093-1.5-6.687-.5-7.094 2.5-3.125 1.625-5.594 1-7.687.5-4.094 4.594-9.719 2.5-6.687 2.094-6.594.5h-2.625l-1-3V515l1-2.094 1.5-1 4.125-2.5 5.687.5 8.094-2.594 2.094-3-3.594-4.5-1.594-3.125-.5-2-3.593-3.5-1-3.5-4.094-4-5.125 2-1.594 3-3 4.125-1.594 2-2 3.5-1.5 4.094.5 1.5-1 5-3.093 4.094-3.5 2-2.594 3-4.125 2.094-2 1.5-3.594 3-5.594 1-4.593 2.593-9.22 4h-1.593l-1.5-1v-2l1.5-2 4.594-3 5.625-1.593 6.687-2.5 3.594-5.094 3.5-2.5 4.594-4.5 3.125-7.594 2-3.094 3.094-6 5.593-10.125 5.094-1 1.5-2.093-3.094-3.5-2-4-1.593-2.5-2.594-5.094-2.5-3.5-.625-3.5-4.594 1.5-4.594-.5-4.093 1.594-2.5 1.5-3.594 3.5-2 4.093-.5 5.5 3.594 1.5-.5 2.5-1 5.625.5 1.5 2 2.5.593 2v1.5l-2.593 3.594-.5 5-1 3-1.5 2.094-2.094 3.5-.5 2.5-2.5 1.5-4.125 4.094-2.5 4.5-4.094 4.093-6.687 4-4.594 2.625-5.125 3-3.094-.5-5.594 2.094-5.093 1.5-7.22.5-11.187-1-4.593-2.5-3.594-2-5.719-1.5-6.594-2-4.593-1-3.594-2-.5-.5-2.625-1.5-5.594-3.5-3.094-2-1-.5-1.593-.5-3.094-1.5-3.5-2-3.625-2.5-1.594-1-5.594-4.5-6.687-4.5-12.813-11.094-6.187-6-5.625-7.125-6.688-11-4.093-4.093-1.094-3-2-3.5-1.625-4-3.594-4.094-5.094-6-5.687-3.5-10.219-5.5-8.187-4.5-9.813-3.5-7.594-1-4.093-.5-16.907-2-8.812-3-2.5-.906-5.688-1.594-8.687-1.5-6.625-2.5-5.094-3-.594-.5-2-1-4.093-2-1-.5-4.72-2-2.5-1.5-2.093 2-3.5 1.094-5.187-.5-4.594-1.5V398l2.594-4v-2l-5.22-4.5-5.093-4.594-6.687-4.5-2.5-1.5-8.22-6-4.687-3-4.593-2.5-3.094-2.094-.5.094-3-3.094-3.625-2-2.594-2.5-2.594-1.5-9.687-2h-4.625l-1.5 1-2.094 1.594-4.094-1-3.593-2v-1.594l.5-1.5 1.593-2 2-1 6.188 2.5 4.625-.5 1.5-1.5v-1.5l-13.906-11.125-3-3-3.094-2.5-2.125-1.5-2-1.5-2.094-.5-1.5-.5-.5 1v4l-.5 3.5-2.594 4.625-6.593 5-3.094 1.594-4.625 1.5-6.094.5-9.187-1-8.72-3-6.687-1.5-5.593-.5-5.094.594-6.219 1h-7.594l-5.687-1-3.125-2-5.094-4.5-1-1-.5-1.5-1.594-2.094-1.5-1-21-12.5 2.5-6.594 5.594-3 3.094-.5 3.625-3.125 1.687-8zm534.594 7-5.688 1 .094 4-4.093 5.125-.5 6 2 1.093 1.093-.093 4.094-1 4-1 1.594 1.5 1.5 3 2.094 1.5 3.625-3v-2.5l-1.125-9.625-2.594-4zm29.312 29.625-3.125 1.593-4.593 1.5-6.188 1-13.219 6.094-4.093 6.094-3.094 4.5 4.594 3.5 3.593.5 1.125 1 1 1.5.5 4.594 3.094-1 1.5-5.594.5-1-.5-6.094 3.5-4.5 5.688-1 6.593-1.594 6.72-4 2-4.094-3.095-2.5zm-6.125 38.375-2.5.5h-2.093l-5.594.5-3.594 2-1.5 4.125-2 2.5-5.719 2-2 .093-3.093-.5-.5-4.594-3.594-5-1 4.5-3.594 5.594-4.094 2-1 3 .594 8.594 1.5 3-1.5 3.594-1 8 4.594 2.593 10.187-9.687 5.625-7 6.188-.594 1.5-2 1.5-1.5 5.594-6.094 3.093-4.5 3-4.625zm67.813 47.625-5.094 2.093-4.594 2-3.625 5.594.5 5.5-3.5 4.094-3.593 2.5.5 3 1 2.5 3.593 2.5 5.125.5 4.094-.5 3.594 2.5 4.094 4 7.218 5.094 4.594-.594 5.094-4.5 4.094-3.594 1.5-3.5 3.593-3.5-1-3.094-2.093-4 3.093-5 1.5-6.094 1.5-6-1.5 1-2.093 1.5-1 1.5-4.094 1-1.5 2.5-.5 3.094-4.594 1-3.094-2.5-4.625-2.5-.5-5.594-2.093-1z" style="fill:#9faec0" transform="translate(0 125)"/><path stroke="#9FAEC0" stroke-width="10" d="m68.156 664.844-.969 47.968-.375 33.094-.718 46.782-.188 18.406v1l-5 265.812-.5 27-1.094 74.282-.218 3.812-.188 12.594-2.875 135.594h3616.25l-.375-19-1.594-62.876-1.406-51.5-.406-16.718-1.812-71.406-4.5-164.282-.188-7.093-.187-4.72-.72-24-1.593-61.405L3655.594 709l-1.25-44.156H2061.53l-10.844 5.75-10.687 6.093-6.188 2.5-11.218 5.125-25.594 2.594-7.188-2-8.718-3.5-9.188-5.5-11.812-6-1.594-1-7.094-4-.094-.062z" style="fill:#9faec0" transform="translate(0 100)"/><path stroke="#9FAEC0" stroke-width="10" d="m56.031 1331.188-1.344 63.406-.78 25.5-.095 5.719-4.219 141.78-7.28 243-1.5 48-4.345 138.97h3510.813l.313-.47 2.906-4.093 3-5.094 2.906-4.218 2.906-4.094 1.375-4.594 1.407-5.594.812-4 .5-6.093.094-1.5.594-4.626 1.906-6.593.906-3.594.906-3.5 1.376-5 .906-3.094.406-.718 2.5-4.5 2.5-4.094 6-5.188 6-2.718 4.5-3.594 4-2.781 4-3.907.813-1.093 1.78-2.813 1-5.187v-5.126L3603 1885l-.312-1.5-.688-3.312.5-2.188.688-2.594 1.906-4.593 3.5-6.813.593-1.187 2.72-5.313 1.187-2.312 1-2.282 1.593-6.5.907-5.593-.594-5.313-.406-3.187-1.094-2-1.5-4.126-1.594-3-2-4-2.094-3.374-1-4.22-.5-4 .688-5.78 1.406-5.626 1.406-4.687.376-2.906-.5-3.594-.095-.906-.593-3-1.906-4.188-2.094-1.906-.313-.406-3.281-2.094-.406-.312-2.594-1.376-4.094-2.906-3.125-2-1.593-2.5-.188-1.093V1761l.406-1 .5-1 2.5-2.594 4-3.218 3.5-3.094 1.282-1.406 1.312-1.5.406-1.688.188-1.187.406-3.126-.594-5.593-1.125-8.5.125-2.188.188-2.593.312-6.626.5-2.78.375-2 2.625-7 3-6.594 3-7 2.594-7.626 1-6.187-.094-5.906-.406-.906-1.094-2.594-.625-4-2-4.594-2.094-4-4.093-5-2.407-3.5-2.593-4.312-4.313-7.282-2.5-9.093-1.594-4.5-1.593-5-.688-4-.406-2.72-.5-2.28-1.594-3-2.5-4.407-.812-1-1.407-2-2-3.218-2.406-4.594-1.594-4.5-2.687-5-3.219-4-10.5-9.188-3.875-4.218-2.125-5.688-.375-3.406.281-3 .313-2.188 1.906-3.906.375-.5 1.625-2.187 4.5-4.22 3.094-3.28 2.781-3.407 3.906-4.718 2-3.5 1.22-1.5 1.78-2.188 4.22-3.812 2.187-1.688 4.093-2.906 3.813-1.688 4.687-1.906 3.094-1.5 5.125-1.594 3.594.5 3.594.907 4.093 3.593 2.594 2.407 3.625 3.093 3.375 1h2.719l2.094-1.218 2.312-1.5 4-2.594 4.375-4.406 4.125-2.876 5-3.812 6.594-2.687 8.594-2.22 8.093-4.28 2.313-1.22-.094-5.687-.5-26.218-.125-7.876-2.406-116.624z" style="fill:#9faec0" transform="translate(0 75)"/><path stroke="#9FAEC0" stroke-width="10" d="m36.469 1997.563-.375 12.03-3.282 43.22-.718 9.593-4.594 133.782-1.906 61.906-.907 37-5.5 211.094-3.812 157.718h3300.844l4.781-4.312 4-3.594 6.813-5.687 5.187-5 1.5-1.5 3-3.126 1.906-1.374 3.594-2.626 4.094-3.374 4.593-2.22 3.5-1.093h1.5l4-.094 5.72-.219 4.093.407 3.594.5 4.593.218 4.126-.625 5-2.687 4.5-4.688 2.5-4.125 2.374-4.78 1-2.595 2.126-8.125 1.874-10.093.5-4 .5-6 .5-5.407-.093-.875-.407-4.812-.5-5-.5-5.406.5-4.5.406-4.188.313-1.906.5-2 1.188-3.188 2.593-2.5 2.625-2.125 3-1.5 3.594-1.187 5.188-2.313 4-2.093.718-.782 2.375-2.718 2.5-3.594 1-5-.594-3.813-1.593-2.78-1.188-2.313-.906-1.688-3.406-5.5-3.094-4.312-1.594-2.282-1.625-2.218-2.5-3.282-2.594-2.906-.5-.594-3.093-3.406-3.688-3.719-4-4.28-2.219-4.907-1.78-3.906-.626-6.094.906-3.688 2.5-5.125.5-.5 2.813-3 4-4.187 6.5-4.906 7.188-6.094 3-2.406 1.812-1.688 3.906-4.719 2.594-5.375 1.406-5 .281-2.718.22-2.907.5-5.187-.5-3.094-1.126-6.312-.594-2.907-.406-2.093-1.094-5-1.093-4.688.094-4.906.406-1.813.688-2.375 2.124-2 2.282-1.906 1.093-.5 5.22-3.219 3-1.78 6.593-4.095 4.094-4.125 2.593-2.5 2-2.5 2.126-3.875.28-3.718-.593-4-.312-1.782-.5-1.718-1.594-3.594-3.094-4.313-3.094-3.687-1.5-2.813-.812-1.875-2.688-5.5-1.812-5.812-1-4.094.593-4.094 2.126-4 .593-.406 3-1.312 5.594-1.282 3.594.5 3.593.875 3 1.907L3476 2298l1.313.812 4.593 2.5 4.5 1.875h2.5l3.094-.593 1.313-.907 1.28-1.093 1.313-3.688.281-5-.093-.812-1-3.688-1.688-4.5-2.906-6.906-2.188-6.906-1.406-5.594-.312-2-.095-2.594 1.407-5 2.906-4.719 5.5-5.093 4.188-2.907 2.812-3.5 2-2.093 1.875-4.5.906-4.594.094-2v-3.406l-.5-6.094-1.093-6.5-.282-2.313-.812-5.28-1.094-9v-7.095l.281-2.218.22-1.782.593-5.625.187-.78 1.22-4.22.5-1.5 2-6.093.405-1.094.5-1.688.688-2.218.5-3.188.406-3.094.094-1V2147l-.094-5-.5-4-1.094-3.688-1.625-4.125-1.875-3.78-1.5-4.095-.625-4 .625-2.906.375-1.594.625-1.625 1.688-3.593 2.312-3.282.375-.5 3.125-3.625 3.094-3 4.5-4.093.906-.782 6-6 1.875-3.312 1-5.5-.094-7.594v-6.594l-2.093-6-.594-7 .406-3.625.281-2.187.594-4.688.719-4.625.906-5 .781-3.375.813-1.718 1-4.594 4.594-8.5 4.687-9.188 4.094-6.25z" style="fill:#9faec0" transform="translate(0 50)"/><path stroke="#9FAEC0" stroke-width="10" d="m15.375 2663.906-.469 18.782L13.687 2725l-.28 8.688-1.72 58.312-2 61.906-2.375 51.188-.812 15.718-1.594 52.782-2.719 88.093-.593 39.407L0 3194.187 14 3191l15.906-7 .906-.5 2.5-1.906 4-3.407 3.688-5.28 4.594-6.5 6.593-9.407 6.72-4.688 1.28-.406 4.625-1.094.594.094 4.781 1.282 4.407 2.312 3.593 2.313 4.813 3.375 4.594 5.125 4.718 5.5 7.188 10.5 8.187 12.093 1.313 1.688 4.406 5.906 2.594 2 3.594 2.188 2.5 1.312 6.218 1.5 3.594 1 5.094 2 4.406 2.406 9.406 9.188 5.094 4.812 12.281 7.407 6.72 1.28 14.093-1 3.812-1.405 13.782-4.688 7.906-3.594 5.594-2.593 7.812-8.72 1.781-2.093 7.313-3.312 10.187 3.812 11.407 4.188 1 .218 11.593-2.593 6.313-3.907 1.594-1.218.906-.875 7.187-8.625 8.313-9.875 3.312-2.313 3.282-2 3.093-.687 3.313-.72.5.095 5.906 1.812 1.5 1 11.188 10.813 2.906 6.594 1.906 11.093v1.688l.094 7-.5 15.625v2.5l1.5 6.594.688 1.593 5.406 10 15 8.5 8.812 1 13.782.907 2.812.5 20.688 5.5 14.718 7.406 7.5 5.187 7.688 7 5.719 8.094 7.5 15.719.687 1.687 1.688 8.282H2400.03l1.47-3.594.405-4.781v-5.5l1-5.594 2-4.5 3.094-4.625 3.5-2 2.813-1.688.875-.406 1.906-.187 4.594-.5 8.406.687.812.094 5.782 2.313 4.718 2.906 4.594 3.688 2.813 4.593 2.375 7.5 1.625 6.5 2.53 5.094h189.75l.313-.781.5-2.813.188-2.281.5-5v-1.219l-.094-3.875-1.188-6-1.312-4.625-2.688-3.875-4.718-5.719-4.5-4.78-1.782-1.626-2.812-2.5-5.688-5-5.625-4.5-4.687-5.5-3.594-7.5-.594-1.875-2.218-6.125-.782-2.281-.906-2.219-1.219-3.594v-4.5l.407-3.5.312-.5 1.594-3 2-1.093h2.594l2.812.5 3.594 1.5 1.812.593 2.282.907 5.718 1.5 11.782-.594 6.093-2.094 5.407-3.125 1.718-1.187 2.594-2.188 3.688-4.312.593-1 2.313-4.313 2.406-6 .781-3.687.407-2.407.5-4v-3.593l-.282-5.5v-2.907l-.125-2.093-.187-7-.188-6.094-.125-1.812-.28-2.688-.595-7.5-2-7.594-3.125-8.625-3.187-7.781-1.5-5.219-.313-2.281v-1.5l.313-4.5v-2.594l2.094-3.219 2.312-2.906 2.5-2.094 3-2.593 2.406-2.094 2.594-3.594 1.406-4 1.094-3.625 2.188-4.594 1.406-3.093 2.5-3.594 2.5-2.594 3-1.625 5.094-1.5 10.406-1 3-1.094 2.5-1.093 1.906-2.188.406-1.719.282-2.5.5-4.187v-4.406l.312-5.188-.594-3.5-1.312-4.406-1-4.094-.5-3.906.094-1.5.594-2.594 1.406-3.625 3.5-5.594 4.5-4.406 2-1.875 2-1.5 3.312-1.812 3-1.407 9.188-2.5 6.812-1 8.594.407 2.688.312 1.406.188 3.094.593 4.125 1.407 4.093.906h.782l3.312-.406 2.688-.688 1.906-.406 3.312-.5 1.594.281 4.094.625 5.406 1 3.906 1.781 6.282 3.313 2.625 1 4.593 1.281 1.282.313 2.312.312 1.594-.406 2-.906 2-2.688.406-2.406.313-2.219.28-3 .095-6.375.406-6.219v-7.5l.5-7.093.719-8 1.375-7.094.812-7 .813-5.594-.125-4 .406-4.125.313-1.5 1.093-5 .688-1.875 1.125-2.719 2.5-3.593 3.375-4.188 3.5-3.625 4.125-2.687 4.687-2 3-1.313 2.594-1.187 4.406-2 4.5-2.094 9.5-6.312 2.313-1.407 1.281-.875 4.594-4 5.125-5.125 4.187-5.687 4.407-6.688 1.5-2.5 1.906-3.219 2-2.78 2.781-3.313 3.094-3.688 5.125-3.406 4.594-2 4.5-.5 6.78.406 6.22 2 1.593 1 4.5 3 3.594 3 3.594 3.5 3.625 5 2.5 3.594.594 1.094 3.28 7.5 2.313 6.906 1.907 5.5.28 1 2.126 7.594 2 5.812 2.687 5.688 4.188 5.187 4.812 4.406 6.688 2.407 3.719.906.5-.094 3-.125 2.687-.187 6.219-2.094 2.375-.813 4.5-1.906 8.5-6.781 9.625-5.813 6.5-4.187 3.281-2.313 3-2 2.594-2.5 2.219-1.906 1.906-1.687 2.187-1.5 1.407-1 5.093-2.907 3.594-1.687 2.406-1.219 1.5-.875 4-3.125 1.688-1 1.812-1.094 3.594-1.593 3.719-.594.781-.219 3.594-1.5 5.5-2 3.625-1.187 2.594-.688 7.687-.219 6.219 1.813 1.375.406 2.125.281 8.187.5 3.594-2.093 2.094-2 1.906-5 1.094-5.094 1-4.406.625-1.907 1.875-6.281 1.5-3 1.5-1.625 3.312-3.375.813-.812 2.187-2.407 4-4.093 5.594-8.407.5-.593 2.313-2.313 1.593-1.5 2.313-1.687 5.094-3.5 5.593-2.094 6.094-2 5.219-.594 2.094-.219 5.593-.781 4.094-1 4-1.625 3.313-2.594 2.906-4.406 4.094-7.5 1.28-2.594 2.907-5.906.813-1.187 6.093-10.594 5.813-11.813.281-.5 6.594-8.781 2.906-3.906 2.813-3.219 5.28-6.281 2.813-3.094 8-7.312 4.907-5.188 1-1 4-4.219 4.406-6.687 1.687-2.094 3.094-3.625 4.094-3.5 2.125-1.594 8.375-7.406 4-5.094 5.406-5.906 3.094-3.281 11.219-11.094 8.687-9.125 3.313-3.187 5.406-4.907 2.406-2.187z" style="fill:#9faec0" transform="translate(0 25)"/><path stroke="#9FAEC0" stroke-width="10" d="m446.187 3330.281 1.72 8.532.687 3.374.593 12.72 4.813 13.687 24.187 36.906 7.625 11.688 10.594 18.312 2.188 3.813 4.593 17.28-.094 6-.187 3.313-1.5 34.907 2.187 11.28.5 2.407.907 4.094 3.187 8.219 1.125 1.5 5 5.593 10.781 7.407 1.094.593 21.406 6.282 3.22.906 19.874 3.594 29 10.624 36.5 13.376 21.5.624h3.5l2.313-.406 23.906-5.812 21.5-2.906 13.406-4.094 8.188-1 .687-.094 7.625-.907L753.5 3567l2.906 2.187 12.594 9.406 17.406 6 6.687 1.5 16.22 3.72 1.28.28 5.594 1.407 1.406.593 7.5 4.094 1.907 1.406.687.813L835 3610.5l.312.593 1.188 5 .812 3.594 2.875 13.406.813 2.72 3.593 5 11.72 8.687 12.874 4.312 12 3.875 5 4.219 4.625 10.094.594 1.906.781 2.687L895.5 3692l2.093 9 .813 1.5 5.094 8.5.812 1.093 6.688 4 4.406 1.094 19.406 3.313 12.281 2 11.094 7 9.125 5.687 23.375 8.406 2.5.5 6.719-.406 7.406-4.594 5.188-5.687.593-.5 2.5-5.594 1.094-2.406.625-5.719.375-3.875 1-10 2.5-8.125 1.906-3.5 3-5.187 5.313-5.407 8.781-3.687 12.313-2.813 13.5-3.093.812-.188 23.094-7.406 13.406-4.406 14.5-1.407 1.781.094 1.313.313 14.187 4.406 5 3.688 15 11.5 10 11.406 4.094 2.312 2.5 1.375 13.625 2 .594.125 39.687 6 7 1.375 9.313 2.5 8.406 2.313 8.094 4.187 25.781 17.813.813.687 3.906 8.625 3.687 16.875 1.72 7.907 4.187 5.812 6.093 4.594 9.907 3.187 7.812-3.78 8.188-8.907 3.406-3.688 5.094-5.625 2.5-3 7.687-4.593 8.219-5h6.187l5.313.906.406.094 12.688 7 7.312 3.906 5.781 1.313 4.72.594h1l1.093-.094 25.281-3.407 11.219-1.593 1.594-.407 2.406-1.312 9-6.781 5.5-7 1.094-1.625 6.093-16.094 2.72-7.094 8.5-15 .593-.687 8.906-6.407 2.188-1 13.906-6.5 1-.5 20.406-9.593 8-7.813.688-1 10.312-20.5 5.594-5.187 13.781-6.625 1.313.125 15.687 2.687 14.906 2.5 7.5-2.594 1.72-.718 3.593-2.5 13.906-10.188 2.875-2 1.813-1 13.5-5.906 27.812-7.781 5.688 1.593 2.5.907 2.312 1.875 2.5 2.406 2.375 2.719 1 1.593 4.125 10.5.375 6.188-3 12.219-.281 1.187-2 8.094-2.5 19.594-.094 1.406 2.094 5.594.906 2.125 3.5 6 8.281 14.5 1.219 5.5 1.094 5.593.5 9L1696 3733l.5 10.5.593 10.594.594 5 .406 3.094.22.906 6.874 19.812.313.594 8.187 10.813 6.125 4.875 6.688 5.625 6.687 4 .625-.313 19 10.188 3 1.125 7.688 2h12.312l17.781-.313 5.22-.094 13.78 1.406 3.594 2.5 1.219.782 6.094 5.093 7.187 4.5 6.719 4.5 1.906 2.22 7.281 11 1.313 2.687 7.906 16.218 8 8.782 5.5 7.312 1.094 1.5 5.281 7.094 8.125 5.906 8.688 4.5 8.312 4 5.594 3.094 4.687 3.906 6.094 12.906 1.719 10.688 3.094 20.187 4.687 12.5.906 2.72 2.22 3.5 4.187 3.905 3.687 2.875 2.219 1.22 2.687 1.405 8.22 3.375 5.874 1.22 1.313.28h7.187l9.313-1 8-1.28 10.406-3.407.687-.188 8.72-3 4-2.125 1-.5 5.093-2.687 4-2.094 6.187-2 4.594-1.5 5.125-1.594 6.5-1.625 12.5-3.5 11.5-3.375 3.875-1.125 7.719-3.687 4.094-1.594 2.406-1 2.594-1.094 1.093-.625 2.594-.687 3.906-1 1.313.094 3 .406 2 .5 3.594 1 2.593.5 5.094 1.5h2.625l4.094-.687 5.594-.625 3.187-.5 1.5-.282 6-1.593 6.625-1.72 4.594-1.093 5.594-1.187 1.593-.5 2.72-1.625 3.78-1.688 4.407-3.312 3.093-3 3-4.594.22-.594 1.374-5.406.625-2.281.5-2.813.875-6 1-4 1-4.594 1.719-3.218 1.906-4.282 1.375-7.093.813-5.313.812-8.5.781-6.594.407-5.593.812-7 .875-5.313 1.813-4.906 1.906-5.094 2-7.5.406-3.094.5-5 .5-3-.5-7.593V3812l.094-2.312.5-4.782 1.406-4.218.5-1.594 1.282-2.594 2.812-3.406.281-.281 2.407-2 3.5-3.125 5.5-4.688 4.093-3.5 1.22-.687 2.687-1.125 4.093-.594 5.72-.188 1.5.282 3.78.718 5.625 1.594 6.094 1.906 6.781 2 7.22 1.094 2.5.313 7.187-1 .718-.125 5.5-.375 2.688-.907 3.312-1.5 2.5-1.718 1.688-1.5 2.5-1.875 1.906-1.72 4-4.593 2.406-4.594 1.875-6.906.407-2.906.718-4.594-.625-4.812-.593-4.594-1.907-10.5-3.28-7.406-.313-.875-4.188-11.625-3.406-11.5-2.313-9-.375-2-.718-4.594v-1.094l.218-3.312.875-5.094 2.407-6.094 1.906-4.594.906-4.5.188-8-1.407-4.218-.78-1.875-1.5-3.813-1.813-4.594-3.407-9.5-1.187-5.5-.188-6-.125-5.218-.094-3.875-1.093-4-1.907-4.125-3.593-3.688-2.594-3-3.094-1.406-2.5-2-3.125-2-.875-.781-1.406-2-1.094-2.5-.812-4.5.5-5.625.312-5 1-3.5 1.281-3.282 4.5-7 3.594-3.093 5.125-5 2.094-1.72 1.687-1.093 3.5-2.687 4-1.625.594-.282 4-1.718 5.625-2.5.5-.188 4.688-1.906 6.406-4.188 4-3.593 4.406-4.813 3.594-4.5 3.5-6.094 2.094-6.593 1.406-8 .781-8.22-.187-5.5-.594-5.5-1.594-5.5-1.125-4-.281-1.5-.719-6.593.406-4.5.22-1.906.374-1.594 2.125-5 2.5-4.094 4-3.812 3.188-3.281 3.312-4.407 2.875-6.093.719-1.5 4.094-7.72 3.312-6.405 2-4.094 3-7.094.875-1.812.719-1.688 1.094-3.594.5-1.312 1.406-2.594.594-1 1.906-4.594.5-1.312 1.406-3.781.375-1.5.813-2 1.593-4.625 2-3.875 2.094-2.72 1.813-2.093 1.093-.812 3.907-2.375 5.187-3.313 4.906-2.594 4.594-2.093.406-.313 6.407-4.687 3.812-4.313 1.875-2.187.906-1.5.438-1.032zm2009.157 0 .062.125.906 1.282 2.375 2.906 1.813 1.094 2 1 1.312.406 2.688.219 4.593-.126 3.594-1.093.813-.281 2.812-.813 2.375-1.187 2-.5h1.219l3-.22 1.187.313 2.407.782 3.812 1.906 2.094 2.5 2.594 3.812 2.187 5 1.313 2.782 1.093 2 2.594 5 3.125 5 2.594 4.5 1 3 1 3.124 1.594 5.094.5 1.782 5.5 9.406 3.187 6.812 1.719 4.594 1 3.406-.5 3.5-1.5 3.594-3.094 4.5-3.625 4.5-4.281 5-3.5 3.594-2.906 3.094-1.094 1.124-1.406 3.094-1.907 3.594-.687 2.688v1.5l.281 1.812 1.625 3 2.094 2.813 1.094 1.593 6.906 5.782 2.094 1.5 5.5 3.5 8.187 3.624 5.125.5 3 .282 5.094-2.188.406-.312 5.094-4.406 1.687-1.188 3.313-2.5 2.906-2.594 1.594-1.5 4-3.906.406-.312 3.688-3.688 1.906-2.406 1.406-2.094 3.375-5.594 1.5-4 1-6.093.5-5.5v-4.72l.5-4.405.125-1.594.594-3.094 2-4.594 1.687-3 1.219-1.812 3-4 3.375-3 3.813-2.188h.906l2.5-.094 4.781.782 2.406 1.093.719.407 2.688 1.5 2.906 2.906 4.187 5.5 1 .812 2.594 1.688 4.125 3.5 4.094 3 1.281.812 2.719 1.188 4.187 1.406 1 .281 2.094.313h4.125l.5-.094 1.5-.813 1.594-.906 1-.687 2.594-3.094.812-1.813.375-1.78-.094-3.126-.094-1.281-1.094-3.594-2-2.5-2.812-3.906-2.094-2.906-3.687-4-3.907-5.813-1.5-4.094-1-4.906.5-8.594 1.907-6.093 2.593-4.907.594-1.093 2-3.907 1.594-3.906 2.906-4.594 1.594-3.812h-189.75z" style="fill:#9faec0"/></svg>