<svg xmlns="http://www.w3.org/2000/svg" width="7729.813" height="3826.156"><path stroke="#9FAEC0" stroke-width="10" d="M29.906 0 26 72 15.813 260.313l-5.407 101-5 91.78L0 552l750.594 38.094 261.312 8.093 218.782 10.125 478.718 20 41.313 1.594h5756.625l-3.75-106.406-2.688-76.594V446l-4.312-106.687-7.782-259.125-214 6.906-154.5 5-.406.719-34.406.78-292 5.5-5.687.22-104.126 2V102l-221 4.594-14.593.312-10.594.188-113.406 2.094-32.5.812h-.906l-8.188.188-23.094.624-84.093 1.282-19.5-.094-106.72 1.688-8.187.312-31.312.406-20.5.282-199.594 2.625-11.594.093h-2l-186.5 3.281-156.312 1.626-89.188.78L5239 124v-.812l-45.5.906-65.094.093-124.718.125h-45.594L4893 124.5l-184.187.094h-53.126l-86-.094-138.093-.313-55.782-.187-189.312-.906-17-.094-135.5-.906-40.406-.281L3588.812 117l-356-4.594-45.5-.594-78.624-1.218-410.282-7.094-1.406-.094-78.094-1.593-15.812-.407-467.906-13-276.094-8.812-8.5-.188-101-2.312L1570.906 72l-245.718-7.5-10-.312-322.782-10.782-62.312-2.312-35.594-1.5-12.187-.188-.5-.093-251-14.313-23.407-1.406L570 31.406 512.594 28 495 26.906l-23-1.093-30-1.5-22.687-1-100.5-4.407-16.625-1-6.5-.406-70.188-6.687-4.594-.5-10.093-.5z" style="fill:#9faec0" transform="translate(0 125)"/><path stroke="#9FAEC0" stroke-width="10" d="m1750.719 629.906 82.594 3.188 52.374 1.593 171.72 5.22 139.905 4.687 202 5 156.376 4.093 127.218 3.125-3.719 183-.374 23.782L2676 1001.5l-2.906 150-2.281 117.656h4945.062l-10.687-66.656-4.188-25.687-17.812-103.22-4.376-25.5-6.906-40.28-2.218-12.907-4.5-26.718-13.5-79.375-14.5-78.813-29.594-173.312-.25-6.782z" style="fill:#9faec0" transform="translate(0 100)"/><path stroke="#9FAEC0" stroke-width="10" d="M2670.813 1269.156v.157l-1.813 77.093-2 86-3.594 178.282-.594 22.5-4.406 182-.5 37.124-1.375 56.094h5060.375l-.094-21.218.094-6.688-1.5-2.906-.219-6.688 1.5-21.312-4.187-16-19.594-106.094-.219-1.5-14.093-81.906-6.282-37-3.625-20.907-3.78-21.5-11.813-68.374-7.594-43.407-1-6-27.687-172-.938-5.75z" style="fill:#9faec0" transform="translate(0 75)"/><path stroke="#9FAEC0" stroke-width="10" d="m2656.531 1908.406-2.125 87.407-.719 26.593-1.78 72.688-.407 24-3.406 168.906-4.5 191.813-1.625 67.843h5078.187l-1.344-180.25-1.906-459z" style="fill:#9faec0" transform="translate(0 50)"/><path stroke="#9FAEC0" stroke-width="10" d="m2641.969 2547.656-1.281 54.032-4.876 209.124L2647 2809l7.906-2.406 1.281-.688 7.313-4.218 1.594-1 3.594-2.5 2.906-2.282 6.312-5 1.188-1 5.594-2.5.718.094 7.188 1 3.312 1 13.781 6.813 7.907 8.281 9.719 10.219 2.093 1.094 6.094 3.406 4.5 4.375 8.5 7.812 5.594 3.094 4.5 3.094 2.5 3.625 1.906 3.594 2 5.093 1.906 5.094 4.5 6.906 6.094 6.688 6.406 6.406 9.406 11.313 7.5 9.78 6 8.126 4.594 9.094 5.5 11 .406.593 34.876 34.313 8.906 10.094 4.719 3.093 3.28 1.688 6.313 3 2.188 1.125 6.312 2.875 5.688 4.312.406.688 1.813 4.312 2.5 5.813 1.093 2.187 5.281 7.813L2903 3009l.594.813 7.906 3.875 1.5.5 6.594 1.625 1 .281 4 .594 15.5 2 .812.219 9.688 1.687 13.312.5 3.281.094 6.907 1.5.719.313 2.874 1.093 2.313.406 3.906.594 3.188.219 2.312.094 4.188-.219 4.094-2.094 4.812-2 7.5-8.78 2.094-4.72 1.906-3.687.188-1.594 1.718-11.625.906-5.187.594-1.313 2.406-5.781.5-.594 3.782-1.125.812-.187 6.906-.907 6.376 1 1.218.313 8.281 2.687 1.126-.187 9.593-1.406 22.688 5.406 6.719 3.281 5.593 5.719 8.781 5.906 8.126 7.188 4.5 2.687v1l4.28 1.813 2.72 1.812 10.78 5 7.72 3.5 13.78 3.688 7.5.406 10.22-.813 6 .313 5-2.313 3.28-3.687.907-1 1.688-4.406 1.5-4.094 1.406-3.094 2.906-5.812 2.688-5.313 2.218-4.5.5-.875.5-3.906-.719-6.719-1.093-2.687-.781-1.594-1.72-5.719-.905-3.594-.376-6 1.188-9.093 2.188-6 4.312-5.907 5.688-4.187 4.812-.906.5.406 1.313 1.094 11.374 9.406.5.406 2.626 6 2.874 4.5 9.126 9.781 13.687 13.813 3.313 2.594 1.687.812 5.188 2.594 1.124-.5 3.688.594 5.688.593 3 1.594.718.5 1.281 1.125 1.5 2.5 1.626 1.688 2.374.906 3 .5 1.72.281 3.5 1.406 4.593 1.594 4.5 2.219 3.5 2.594 1.313 1.812 1.187 3.281-.594 3.5-1.094 4v3.813l1.282 2.406 3 3.594 1.094.281 2.5 2.219 4 3.594 4.5 3.593 6.5 6.22 2 3.093 1 2.5v1.5l-.095 2.594 1.594 3.093 1.906 2.5 2.407 3.094 5.593 3.625 4.594 2.188 3.5 2.593 3 2.5.906 2.22 2 10.28 4 6.407-2.093 3.5-4.594 3.593-1 2.907 2.594 13.187-.407 3.5.594 7.406 1.125 2.5 1.5 1 .875 1.5 4.219 2 6.687 2.5 1.313 3-3.094 10.407-2 4.312-1 3.281 2.281 2.5 1.407 1 .406 4.813-2.094 9.594-.625 1.906 2.625 12 .75 1.5h4350.969l-3.625-311.594-.406-33.625-.094-15.094v-4.5l-.094-29.593.094-44.594v-32.094l-.594-57.625-.219-26.187-.094-2v-2l-.312-10.094v-2.094l2.312-20.906-.344-47.25H2641.968z" style="fill:#9faec0" transform="translate(0 25)"/><path stroke="#9FAEC0" stroke-width="10" d="m3372.563 3186.906.25.5-.22 5.688.407 6.312 2.188 5.282 15.218 4.218 4.281 1.094 8.626 2.594 4.28.094 6.72-1.188 7.874-9.094 6.907-1.5 3.719.407 1.593 2.593-.312 3.094-4.094 9.906 6.094 3.688 9.094-2.188 1.406-.906 1.5.5 6.219.594 4.374-5.094 5.22.094 5.687 1.094 5.406-3.281 6.594 2.094 6.719 2.593 5.187 2 1.813 4.406 10.28 3.188 5.095-.781 2.406-3.906 2.312-4.688 1.781-.625 12.72 2.813 6.093.687 3.313.5 8.28-6.094-1.687-2.5.094-2.687 4.688-4.719 7.312-3.781 3.688.5 3.406 1.406 3.5 3.281 3.594 11.406 2.406 3.907 2.5 2.094 2.906.187 1.906-.5 2.782-2.187.625-2-.313-3.688.094-2.719 2.094-2.094 2-.406 4.812.906 5.594 4.813 16.313 16.594 8.5 11.281 10 6.625 12.5 4.094 8.093 6.281 11.688 1.406 2.125 2.813-.125 4.594-2.281 5.5.78 3.593 5.126 3.406 6.187.688 2.313-2.375.094-5 .406-4.906 2.5-.813 14.875 5.094 2.219-.187 3.687-4.594 1.594-.5 22 7.094 5.125 6 3.875 7.312 2.5.594 4.719-3.219 2.187.125 5.594 5.594 14.406 5.594 3.813 2.593 1.687 8.219 2.72 1.188 11.28-.5 3.5-.813 3-9 2.22-1.594 15.093-.406 3.781 2 .406 3.313 2.813.093 6.594-4.5h2.5l6.812 2.72 3.281.093 15.72-15.593 13.687-10 8.312-7.907 22.781 7.688 11.313.219 7.906-3.907 2.375.094 5.719 2.813 7.687 6.187 7.72 4 6.28 5.407 4.313 8.593 5.687 3.407 5.594-.22 3 1 .5 2.5-.187 2.5-1.188 2.126-2.906.5-2.719-1.625h-1.594l-1 1.906-.28 4.906 1.5 1.907 5 2.687 6.374 1.719 7.906 1.5 3 5.375.594 5.719 5 10.406.406.5 15.813 18.594 4 2.28v2.126l3 4.187 3.781.313 3.625.594 1.875.78 1.906 1.907 2.094 1.5.625 3.594 1.188 1.5 4.312.125 8.375-3.813 3.406-3.593 4.22-6.094 4.78.781 4.313.906 5.781-1.593 3.5-6.594 4.125-4.219 6.5-1.781 4.094.094 2.781 1.094 3.125 1.687 4.094-1.281 2.406-1.094 1.688-2.219 2-2.281 1.312-3.812v-2.407l-1.125-2.906.125-2.687.688-.907 2.406-.406 3.594.813 3.312.812 1.5-4.812.094-4.5.188-14.688.094-4.5 6-3.719 4.312.313 3.406.094 2.407-2.313.094-2.687-.906-2.188-.188-4 3.281-7.406 7.094-6.094 3-5.906h10l21.625 5.906 3.281 2 4.813.594 3.281 2.188 3 3.906 7.125 3.594 4.281 2 7.22 5.218 6.687.875 4.593 1.22 13.313 1.187 10 1.718 6.687-.812 8.22-1.688 4.78-1.312 6.594 3 4.219 2.5 5.687 4 9 4.594 4.72 3 10.874.812h2.406l10.094.781 9.906 2.125 4.407-2.312 3.906-3.188 5.281-3.718 2.5-2.782 5-8.125 3.406-4.687.5-2.313 5.907-5.687 3-4.188 4.906-4.718 11.5-3.094 1 .094 5.687 1.594 3.313 3.906.094 2.812 1.187 1 8.907 13.094.593 13.813-5.281 23.375-17 14.812-4.906 11 4.594 12.406 3.718 4.688 9.594 10.406 6 4.688 8.688 4.125 2.5 2.5 1.5 2.375.094 2.218-1.782 2.907-2.593 1.375-2.313 1.312-2.5-.312-2.094-2-1.406-2.594-3.094-1.094-2.812-.187-2.281 1.5-.72 3.093 1.313 2.594 7.5 11.094 5.188 2.719 5.812 5.687 1.907 4.188-.813 2.625-4.094 1.187-.718 1 .406 2.188.094.125 4.719 2.093 23.28 6.782 19.5 3.312 6.72.094 18.687-.5 15.813-3.5 4.906-2.187 9.5.187 6.875 9.813 6.219 3.5 8.093-1.72 3.313 2-4.219 18.626-2.687 12-6 10.375-6.313 4.125-3.906 3.281-.094 3.813 5.719 3.5 9.5 3.187 3.687 4.906-.812 12.407-10.688 6.5-10 .687-4.312 1.313-3.188 11 3.188 6.28 1.812 3 2.688 3.22 5.812 3.687 4.813 3 7.875 2.313 6.125.5 5.875.5 9.406 3.5 6.594 2.687 6.906 4.906 9.094 6.407 8.625 4.5 9.187 4.906 6.594 2 8.594 2.187 6.312.094 7.594-1.406 1.094-.187 7.625-2.188 9.875-3.125 7.812-5.875 1.313-1.312 6.187-4.813 14.594-9.594 1.719-2 1.875-5.906 4.312-4.187 4.313-2.094h2.78l1.72.406h3.093l1.282-2.5 2.125-5.219.094-5.093-1.72-5-.093-3.313 2.406-4.094 3.5-2.593 5.594 1.906 1.219-.313 4.28.094 4.72-5.687-2.813-13.094-.812-3.406 9.125-2.813 18.375.313 4.812-3.313 6.906-4.78 9.407-11.907 5.5-11.5 4.5-7.594.687-1 6.094-9.5 7.719-6.219 7.78-3.78 8.72.905 10.187 1 8.688 2.094 11.718 4.688 7 6 .407.593 15.875 10 7.718 12.625 8.782 2.282-5.688 37.718 4.313 12 5.875 9.594 16.125-.312.28.094 6.095 1 7.718-.875 5.188-1.407 7.812-3.312 11.188-6.5 9-4.094 9.312-2.812 2.282-.375 5.906-.907 7.094.094 7.218 2.188 9.594 4.312 9.406 7.407 7.094 7.093 2.406 6.594 1.407 7.594v8.625l-.625 6.5-2.375 7.094-.22 1-2.687 10-2.218 8.093.218 8 1.094 6.594 2.688 5.094 4 5.125 5.406 3.094 12.219 4.187 11.875 2.5 11.718-.281 20.5-.5 11.907-4.313 5.78-4.906 9.595-10.281 4.718-7.5 2.688-8 2.094-7 .625-10.125.187-4 1.313-4 3.093-2.5 2.782.5.812.125 2.688 2.5.5 4.687.5 3.813.406 3.094 2.219 1.187 2 .094 3.5-1.187 2.593-3 3.907-5.688 2.187-8.5-.187-3.406-.125-3.219-1-3.5 1.625-2.5 3.093-.5 3.5 2.625 4.5 4.688 3.782 3.093 1.218 1.094 7.782 7.125 8.125 4.688 8.875 2.312 5.125 1.188 4.593-.907 3.688-4.5 2.5-7.406.219-.594 2.875-9 .625-7.593 2.78-7.5 3.72-6.407 6.593-6 6.188-3.906 5.719-1.5 6.593 1.125 6.907 1.875 7.093 3.219 7 6.281 4.907 6.625 3.5 7.594 2.5 7.094 4.375 12.687 3.718 12.719 2.594 9-.094 5.281-2.094 5-4.312 4.406-4 2.907-6.813 3.187-4.687 2.219-.688.594-3.5 2.812-4.218 5.375-3.188 6-.719 6-.094 5.625.407 6.188 1.812 5.406 3.5 4.687 4.188 5.594 1.687 3.625 1 3-1.5 3.875-1.875 5.219-.125 6 2 4.594 2.906 4.093 6 8.72 6.594 11.593 9.219 11.5 9 6.687 9.094 4.813 9.687 2.687 11.219 2.22 9.781-1.72 7.719-4.687 6.906-6.5 5.094-6.906 3.687-8 1.594-7.594.625-9.094-1.406-8.5-3-10.125-2.5-8.594-.813-2.593-.281-5.094-.125-2.5-.094-1.594-.406-7.625 1.719-5.5 4.687-4.875 8.094-4.406 10.906-1.906 8.406-2.094 3.907-1.313 1.687-.593 3.219-3 1.375-4.313-1-5.094-2.188-3.687-2.406-3.094-4-1.406-3.687-1.094-6.5-2-6.094-1.125-5.125-.094-3.688-.5-2.5-1.594-1.812-2.687-.688-.906.188-4.5 3.125-5 4.594-4.5 4.28-1.407 5.126-.812 4.094 1.125 3.5 2.594 3.906 4.78 3.594 4.407 4 4.813 2.5 2.406 3.093.687 4.094 1.094 6.094-.906 2.625-1.5 4.594-3.5 4.28-4.188 5.22-5.093 6.906-9.907 9.5-11.406 6.781-7.406 4.906-8.375 1.688-7 .406-1.5-.781-7.719-.125-.906-.688-6.688-2.187-6-.625-1.593-5.688-16.313-1.5-4.5-1.812-12.187.125-4.5 1.375-5.407 1.406-1.593 2.5-1 2.594 1.593 1.719 2.188 1 4.5 2.593 3.906 3.594 2.719 4.5 2.187 4.5-1 4.219-2.5 5.281-3.812 4.219-2.875.781-.625 6.406-4.375 7-4.813 5.5-1.812 5.188-.375 5.5 2.094 3.812 2.593 3.5 4 3 4.594 2 5.094 1.407 4.625.593 3.687.407 4.5.78 7.094.126.813 1.281 5.78 1 5 1 5.407 2.906 6.594 5.407 12.219.593 1.5 3.907 10.187.593 1.313 5.5 11.78 4.688 8.626 4.406 6.187 5.094 4.188 4.906.906 5.813-1.187 3.687-2.907 3.406-4.312 3.407-4.688 7.406-5.812 8.375-4.781 7.719-.907 1.093.094 5.5 1 6 1.594 5.188 1.5 5.406 3.406 5.313 4.313 2.687 4.5 2.094 5.5 2.219 5.687 1.687 5.22 1.719 4.874 3.875 7.219 3 4.094 3.125 1.5 4.594 1.093 5-.906 5.78-1 6-1.187 10.313-2.188 10.907-1.219 7.687-3 6.813-6.28 3.593-5.126 3.407-7.281 3.687-8 1.813-8.094.187-4.219.219-2.78.5-7.813.094-1.313 1.187-12.594.813-2.28 3.406-10.5 3.781-7.907.5-1 4.5-4.219 4.594-.875 7.125 1.188 5.188 3.093 5.406 5.22 4.187 4 6.594 6.593 3.719.906 18.781.094h10.719l8.687.094 3 4.094.5 4-2.687 5-3.5 3.094-4.719 4.125-5.281 4.78-.406.5-5.407 5.407-5.593 5.5-3.313 4.907-1.875 3.593-.406 3.907 2.406 6.093 3 4.094 5 3.719 5.094 3.094 5.594 3.406 4.5 2.687 4.906 4.5 4.187 3.688 7 3.5 5 1.719 1.72.593 5.5-.687 6.687-.906 8.906-1.094.906-.125 13.781-1 1.313.906 3.187 2.219 4.72 4.28 3.28 4.5 1.907 6.595 1 6.625 1.187 7.094 1.406 6.593 1.907 5 4 4.688 4.687 3.625h3.5l7.625-.625 5.594-.5 8.781-2.781 5.719-3.407 7.281-1.312 7.125-.375 7.688.594 9.593 1.28 9.22 2.813 2.78 2.907 4.22 4.28 3.28 8.22 2.813 6.593 6.094 8.094.5.594 6.906 9.219 11 9.906 3.094 3 3.406 3.187 6.281 8.5 3 13.094 6.813 18 4.687 3.406 10 1.313 23.219-11.313 10.094-21.812 2.312-15.281-1.219-10.594 6.313-21.906 6.906-10.907 14.375-2.906 18.5 8.219 9.906 4.594 6.594 5.5 7 6.5 6.719.094 24.5-5.5 11.094-3.5 12.187-12.094 6.219-16.219 2.187-13.281.907-15.406-5.407 3.687-3.406 2.313-7.094-3.594-.187-9.094 8.187-5.5 9.594-1.219 10.5.313-1.187-9.094-.688-10.625 4-4.187 20 .094 11.375 5.593 5.219 3.5 6.594.22 1.187-6.22-.781-8.593-1.313-6.782 13.407 2.282 33.687 11.093 13-6.375 4.219-12.812 3.406-3.188 3.781 1 1.813 3.875-1.594 7.625-.125 3.875 1.906 1 14.907-5.78 8.406-8.907-.813-8.594-5.687-1.219-3.219-4.375 2-5.718 7.719.718 9.406 5.094.094 14.406 31.281-5.812 8.22-5 5.593-12.313.687-10.687-1.875-1.5.282-2.094.812-1.219 2.281.813 4.72 2.406 11.5 3.688 26.78 18.593 27.407 13.72 12.812 12.905 5 2.875 7.188.72 7.312-3.407 3.406-5.906-2.125-11 .72-4.5 8.093-3.5 7.187-.688 12.907 3.188 6 7.5 10.718 8.218 4.188-2.125 9-4.875 3.812-7.406-2.718-10.094-4.188-6.125.188-2.187-2.407-3.188-.375-7 3.188-7.625 5.187-4.28 6.72-3.907 5.687-.313.406.125h.187l14.907 4.688 10.218 7.906 13.094-.719 9.5-8.28 7.188-10.407 6.718-3.906 8.094-3.688 23.5 1.281 3.906-1.687 4.782-5.094 3.5-7.312 11.218-3.688 8-6.094 3.782-6.406 2.312-9.594 2.281.094 7 6.407 3.407 1.187 11.718 2 5.094.688.594.625 4.187.875 6.125 11.406 4 11-1 8-.125 3.094-1.093 5 .5 4.625 2 4 2.406 5.093 2.594 2.594 4 1 4.718-.906 1-.781 3.5-1.407 6.594-4.906 6.781-9 4-2.687 3.907-.625 2.5 4.312-1.594 16.906 2.312 2.907 11.594.28 13-5.593 4.781-4 7.719-4.687 5 .78 1.906 2.5.282 4.595-.407 8 1.719 1.812 6.188.5 7.312.906 25.094 2.594 18-1.094 16.312-1.812 6.282-1.281 24.093-4.407 6.219-.812 2.281-5-.187-11 3.5-1.906 7.094 1.812 5.218 5.094 2.782 1.594 1.593 1.625 4 3.187 5 3 3.625 2.094 6.594.094 5.688-1.875 2.093-1.125 2.625-2.688-.218-3.5-.094-4.187-.188-3.906-1.719-4.907-2.593-5 2-7.593 2.406-2.907.687-1.906 1.094-3.5.906-.281.313-.5 6.687-1.125 2.907 4.625v9.28l.094 14.095 2.812-.5 4.5-2.188 3.781-4.187 1.719-4 1.688-6 1.093-6 .313-7-1.313-5.72-1.093-4.405-.907-5.5-.375-4.188 1-3.906 2.094-3.5 2.688-2.781 4.593-4.72 2.5-3.405 4.813-6.594.594-3.5 2-2.906 3.593-1.375 6.219.594 9.188 2.5 16.718 5.187 10.594 4.813 5.5 4.687 2.094 2.219 1.406 1.375 3.781 2.406 4.813.813 4.906-.094 8.906-.22 11.782-.5 8.906 2.313 4 5.5 1.094 5.907-4.688 12.5-2.094 6.093 1.188 1.5 10.187-.406 12.125-7.812 4.375-5.782 4.125-2.812 6.094-.688 3.906 1.094 1.188 2.5 1 4.313-.594 4.687-7 5.5-5.094 3.5-4.312 4-1.594.688 2.688 8.812 13.906 6.406 2.812 1 5.094-1.906 3.188-9.906-4-7.5-1.782-3.5-.312-2.188.406-3 3.594 2.782 5.312 1.406.282.219 3.906.375.687.812.625 1.5 1.282 1.5 1.5 2.906v5.5l-1.282 9.094.188 5.406 5.406 4.094 14.188 8.313 5.218 7.187 6.282 2.094 8.718-2.594 4.875-4.094 2.719-1.093 6.094 1.187 2.687 3.094 2.313 3 1.906 3.219.094.593 12.094 1.594 6-9 3.719-.594 2.78 3.5 2.907 19.407-.187 3.78 2 2.313 9.593 20.688 1.688 5.812 4.219 4.5 5 1.282 5.78-1.282 8.095-4.718v-2.375l1.312-6.407-1.094-10.906 3.907.406 2.5 1.594 4.28 4.094 1.72 2.219 1.687 4.093-2.594 9.282-3.906 7.812-2.812 9.094 3.812 8.094 6.188 9.718 4.312 2.282 4.688 1.625 14.312 7.28 10.313 5.813 1.593 7-1.5 3.188 6 6.312 2.782 2.282 15.5 4.5 18.125-.782 1.28-.406.907-1.094.094-2.593-.781-2.625-2.719-4.875.312-11.407 3.5-8.593 4.688-.625 5.406 3.812 8.906 16.594v6.719l-.5 2.375 1.688 1.406 3 1.812 1.719.688 4-1.781 6.093-4.125 1.688-2.875 3.812-8.72 4-3.187 4-4.718 4.188-2.782h4.594l7 3.688 1.218 6.312-.812 6.5-10.594 4.407-6.187 2-5.5 2.687-3.125 8.406 12.125 4.782 5.875.812 5.125-1.312 3.593-4 5.5-2.688 3.594 10.406-11.594 10 .688 5.782 1.906 4.718 3 2 7.406.407 6.907 3.875 2.781 9.625 4.406.687h6.813l3.687-4.094.906-3.718-.5-6.375-4-1.407-9.5-5.718-1.312-6.282 5.906-.5 9.906 3.594 14.407 8.094 2.593 3.719-2.312 4.687-5.906 1.594-3.094 3.719.406 2.5 4.094 3 19.719 1.687 10.375-6.094 5.312-2.812 21-10.281 3.406-.313 5.188 4.688-6 26.718-5 4-6.688-4-6-1.312-4.218 4-1.594 3 .594 3.812 4.812 3.907 4.906.875 4.5-.188 14.5-4.5 3.907-3.594 2-5.312 1.187-4.094.906-5.594 1.907-1.906 6.375.594 4.906 3.219 2.5 4.593 1.312 5.688 5.907 6.312 4.875.907 5.312-2.5 2.313-2.22 1.781-9.687-.281-2.718-1.407-3.5-1.093-4.188 3.781-.594 8.5 8.594 3.5 16.594-3.688 6.906-5 4.313-2.093 7.5-.125 1.593 8.718-.094 5-3.718 4.407-5.282 8.375-6.718 6-2.5 3.812.094 3 .125 1.406 6.5-1.312 5.28-4.281 5.095-5.719 2.5-6.406 1.718-5 3.188-.594 8.719.719 3 7.093 1 7.907-.813 5.781-4.406 4.312-4.406 3.094-3.688 4.594-3.187 5.312-1 8.188 1.375.312 4.906-5.812 3.594-4.188 2.5-2.312 3.406-1.281 6.406.781 1.156h25.531l6.063-2.062 3.906-2.5 4.219-2.906 1.875-1.782.5-3.093 1.125-11.72-1.125-88.593-.594-52.094-1.406-158.093-.375-33.625v-2.688l-1.125-116.187-1.594-157.5-.063-6.407H3372.564z" style="fill:#9faec0"/></svg>