<svg xmlns="http://www.w3.org/2000/svg" width="6450.5" height="4810.406"><path stroke="#9FAEC0" stroke-width="10" d="m581.406 0-1 .5-1 2-2 .594-2.093.5-.5 2 1 3.093 2.093 4.5 5 3.626 6.594 4.593 4.594 3 1-2-1.5-1-2-1.593L588 8.593 585.5 3l-1-1-2.094-1.5zm22.782 21.406-2 .5-.5 2.5L605.313 28l4 2 5.093 1 3.5 1L620 29.5l1-1 1-1.094-2-2.5-2.094-1-3.5-.5-3.593-1-3.5-.5zM990.094 37.5l-2 1-.5 1.094-1 .5v1.5h1.5l4.5-.5h3.093l-.5-1.5L993.095 38zm4.593 5.594-2.593.5v1.093l1.093 1 3 1.5 2.5 1 2.125 1.5-2.125-.5-2-1-1.5-.5.5 1.5 11.72 6.126h4.5l1-1-3-3.126-5.095-6.093-5.625-1.5-1.5-.5zM947 51.406l-7.094 5.094 1 2 12.688-1.594 2-1.5-4.5-4zm47.688.907-1 2.5.5 3.593 7.625 7.594 9.593-2.594 1.5-.5 3.594-1.5 1.5-1-1-2.593-2-1h-4.094l-3 .5-11.218-5zM983 54.906l-1.5 1.5h-2l-5.094 3.094.5 2L978 63l4 1 5.594 3.094 1-1.594-1.5-2.5L985 55.906zM934.906 58.5l-2.093 3.094-.5 1.5 1 1.5h2.593l2.5 1.5v3.594l1.5.5 1.594-1 .5-2.594h1l1.5-.5 1.5-1.5v-2l-1-2.094h-1.5l-2 .5h-2.094l-1-1-2-1zM588 60.594l-1.5 1v6.093l1 3.626 1.5 2.5 3.594 7.687 4.093 8.094 4.5 9.719 3.125 7.593 3.5 8.094 2.594 4.594 3.5 5.094 2.594 5.124 3 13.188 3 7.688 1.594 5.5 3 9.718 5.093 14.781 3.625 10.72 1 5.593.5 2.5 2 14.188.5 7.718.594 7.594.5 4.594 1.5 4.094.5 8.125v5.593l1.5 5.594v4.094l-1 4.594v4l.5 4.625 1 4.093L645 288l1 13.813 4-1.625h2.094l1.5 1.625 2 3 1 2.093h-2.5l-1.5 2.5-2 5.094-1.094 3.594-2 5-2.5 3.094-1-1v-2l1-3.094 2.5-7.094.5-1.594v-1l-.5-2-1-1.5h-.5l-.5 3.5-2.594 7.188-2 5.594-1.5 7.625-2 7.093V343l-2.093 3.094-2 1h-2.5l-3.625.5-2.5.5-4.594 1.5-6.594 2.094-3 3-2 2.625-1.594 3v5.593l-1.5 2.594-2.5 3-4.093 2.094-3.5 2-2.625 1-1 1.594.5 2.5.5 2.625-1 3v2l2.125 1.593 2.5 1.5.5 3 2.593 2.594 1.5 3v4.094l1 3.594 1.5 2 3.094.5.5 1.5 1 3.125v2l.5 2.593 1.5 1 1 2 .594 2-1.094 1.094 1.094 2 3.5-.5 2 .5 1 2-3.5.5-2 1.594-.5 2-.5 3v5.594l-1 3.125.5 3 .5 3.093.5 2.5-.5 5.094.5 3.594v5.594l-.5 3.5-1.5 3.625-.5 2.5.5 2.593v4.094l.5 8.094v6.594l-1 5.125-.5 4.593 1 3.5v4.094l-1 5.594-1.5 5.593-.5 3.625-.594 2.5.594 2.5-1.094 2.094-2 1.5 1 2V544l-.5 2.5v6.094l-1 1.5-1 4.093.5 1 .5 1.625-.5 2-1 2-1.5 1-1 1.094-2.094 1.5-1 3-2.5 1.594.5 3-1.5 2.094 1.5 2-1 2 .5 2.093 2.5-.593 3.094-1h2.5l2 .5.594 2.093 1 1-.5 1.5-1.594 1.5v2.125l.594 2.5-.594 2.5.594 1.094.5 2.5.5 1 .5 2.094 1 2 3 2 3.094 1.5 3 3.094 3.125 5.093 1 4.5 1 6.125.593 3.594V638l.5 6.094 1 8.218-.5 4-.5 5.094v7.094l1 3.094-.5 3.5-.5 3.093-.5 5.625 1 3v3.594l-1 3.5v3.594l.5 1h1l1.594-2 3-8.187 1-4.5-3.594-12.72 2.094-6.687 7.594-7.593 2.5-6.125 2-5.594 3.594.5 5.625-1.5 5.593-1h2l1 1v3.5l-.5 1v1.093l.5 2.5.5.5 2.094 1h1l.5-1.5-.5-1.5L658.406 640l.5-4.594.5-3 2.094-3.093 1 .5 1 1.593.5 1-1.5 3L661 642l3 8.688 2.094 3 1 6.125-2.094 6.093-4 1.594-13.187-2.094-10.719-2-3 .5L631 667v3.5l1.094 9.188-1.094 7.625-2.5 5.593-3 6.594-4.594 3.094h-.5l-2 6.593-1 6.625-.5 8.094-2.093 6.094-1 5.594-.5 5.593-1.5 5.625-.5 3.594v3l-2 5.594-1 6.094-.5 5.593-.5 7.125-.5 5.094-.813 3.375h914.5l-6.094-6.468-3.5-9.125-1.093-6.094.5-1.5 1-4.094 1.5-8.594 2.593-3.593 3.5-3.125 4.594-4 5-5.094 5.094-4.094-3.094-7.594-4.594-12.718-2-8.188-.094-12.687 4-15.22 2.5-17.28 1.5-9.22.5-5.093-1.5-5-1.125-6.094v-5.093l2.625-4.625 2.5-3.094-.125-10.594-2-7.594-1.5-6.093-8.187-11.22-4.094-12.687-4.594-7.093-3.125-8.625-.5-5.594v-10.188l5.5-16.312 1-3.594 2.5-6.094.5-3.5-.5-2.594-.5-.5-1 1-1 3.094-1 4.594-2 4.094-4.093 7.093-1 2.5-7.094 4.125v-2.5l1.5-2.625 3.094-2.5v-2.093l-4.094 2.093-2.5 1.5-1 2.125-1 2-.5 2-1 2.094-1 .5-2.094-.5-1.5.5-2 1-1 2.094-.5 2v4.094l-1.5 2.5-2.094.5-3 1.093-1.5 1.5-1.625 2.5-1.5 3.125-2 2.5-1 4.594-3.5 4.594-.5 1-3.093 3.094-4 1-2.094-1 3.594-2 1-.594v-5l2-1.094 2-1.5 2.093-2.5 1-3.093 2.5-5.625 5-9.188 4.125-7.594 2.5-1.5 3-3.593 1.594 1 1.5.5 2-1-.5-1-1.5-1.125-1-1-1.594-.5-1-1 1-1h2.094l1-1 1-1.594 1-1 1 1-.5 1.093-.5 2 2.594.5h1l1.5-1.5 3-1.593h2.594l2.5.5 1.5-2.5 4.093-6.188 1-3.5.5-2-2.093-1.094-2-.5 2-1.5 2.593-1 2.5-1-.5-5.625-1.593-4.093-1.5-6.594-5.594-11.187-8.688-30.5.5-6.125-.625-5.094V424.5l-2 1-1.5 2.094-1 2-1.093-1.5 1.093-2.594.5-3.5 1-3.094 1-4.094.407-6.625-.5-8.093-1.5-12.188-2.594-5.094-2.5-5.125-5.594-7.593-11.219-9.594-6.093-6.594-3.594-4.594-2.594-7.625-2.5-9.187-.594-12.687-5.125-8.125-4.593-25.375-3.094-7.625-5.594-13.782-5.094-9.594-4-3.125-12.218-8.093-8.188-5-12.219-5.094-8.593-5.094-11.188-8.094-14.219-12.625-7.593-3.593-9.188-2-6-1.5-7.719-3.5-2.5-7.688-3.093-2.5-3-5.594-4.094-4.125-1.5-1-7.094-9.093-10.219-5.594-7.093-4.5-5.594-3.594-11.688-1-9.625-1-10.093-.5-3.094-.5-4-1h-.5l-11.188-4-3.625-3.594-5.093-6.625-2.5-.5-7.094 3.125-6.594 3.594-4.5 4.094-7.094 8.094-1.5 4.094-9.125 10.718-4.093 10.688-1.5.5-3 2.094-7.594 2.5-7.094 1.625-10.719 2-6.093-.407-8.094-3.094-5.594-3.5-8.094-1-10.625.5-13.187-2-16.813-1.5-7.593-1.5-14.688-3.5-8.094-5.125-9.218-10.187-12.688-12.687-8.094-6.625-2.5-10.094-1.625-10.188-1-5.094-1-3.124-1.5-4.5-9.687-6.594-6.594-3.094-6.094-6.094-5.625-11.219-8.593-5.5L982 69.095l-6.594-1.5-7.094 1-9.125-.5-7.593-1L947 68.688l-3.5 4.624v1l3-1 3.094-2.124h.5l.5.5-1.5 2.124-1 1v4.094l-9.188 4-6 5.688-1.594 2-8.625 6.094-1.5 1.624-4 1-.5.5v1.5l.5 1.5 1.5 2.094-1.5 1-2 5.594-1.093 6.594-4 3.594-4.094 1-5.5-2-2.594-.5-5.094 3.624-4 2-3 1h-2.125l-5 1.094-2.593 1-5 3.594-5.094 2-3.594 1.5h-8.594l-2.5-1-1.625-1-3-3.5h-4.093l-5 2.5-11.688 3.094-8.094-2-5.625.5-3.5.5-2.093-.5-2.5-.5-3.5-3.094-2.594-3-2-3.594-.5-1-2.094 1-1 1.094h-2.5l-1-1.594-5.594-8.594-.5-5.624-5.625-4.594-1-3.5-1-2.594 4.5-5.594 2.125-2 1-2.594v-2.5l-2.625.5-5.5 4.594-2.093 4.094-3 1.5v2.5L766 103.594l-3.5 1.5-7.094-.406h-7.094L728 109.812l-9.594-3.124-5.094.624-3 1-4.625 4.094-4.593 1.5V118l3.093 3 7.125 6.594 3.5 2.594 5.094 2 3.094-.5 3-2.094 10.094 3.594 4.593 12.718-3.5 6.094.5 3.094 2.5 2.5 3.625-2.5 2.5-1.094 3.594 1.594 2 3.5 5.594 1.5 3 2.094 2 5.125-.5 2-1 1.5-2-6.125-4.594-2-5-2-3.094-2.594-7.125 2.594 2 8.625-.5 4.593 1.625 4.594 2 3.594-.5 3v4.094l3.594 4 6 3.625 3.594 7.093 1 5.594 2.094 4.594 2.5 4.594-4.594-3.094-1.5-2.5L756 211l-3.094-8.594-2-2.594-4-1.5-6.094-1-2.625-1-2-6.125-.5-9.187-.5-15.687-3.093-10.22-2.5-6.593 2-5.094.5-6.594-1-2.125H728l-1 1.625v3l-2 2.594-3-1.094-.594-3-.5-1-2 .5-1.5 1-.5 3.094-1 4h-3.094l-3.5 2.094-4.125 5.094-4.5 8.094-5.593 6.718-.5-4.094 3-8.718 2.5-6.094-1.5-2.5-4-3.094-6.094-5.094-2.094-1h-5.5l-1.594-.5-1 1.5-1 .594h-1l-1.5-2.594-1.5-.5h-1.625l-1.5-.5-4-7.625v-3.093l1-3 .5-1.094 1.5-2.5-.5-1.5-2 1-2.093 5.094-2.5 7.594-1 2.125-.5.5-5.094 2-2 .5 5-4.625 1.094-1 2-5.594 2.5-5.094.5-2-1.5-1-.5 1-1.5 2.5-.5 1.094-2.094 1.5-1.5-.5-.5-.5-1-.5L655 118l1-2-.5-1H654l-1 2.5-1.094 2.094-1.5.5h-1.5l.5-1 1.5-3.594 2.594-4.094.5-1.5-.5-3.094-6.594-3-2.094-3.624-6.125-3-4.5-2.094-1-.5-.5-2 .5-1.5V89.5l-3.593-2h-4L621.5 87l-1.5-1.5-1 1-.5 2v1.594l-.5 2.5v1.594l-1.594.5-1.5.5h-.5l-.5-1-.5-1.094 2-4 1-1.094-1-.5h-1.5l-.5 1.094-1.5 1-.5 2-.5 1.5-.594.594-1-.594-.5-1.5h-.5l-2 1-11.718-15.188-1.5-4.594-1.5-2.5 1-1.124h1.5v-1l.5-2 4.593 2 1 1.5 2.5 2.624 3.625 1-.5-1.5-1.5-3.624-7.125-4.594-3.593-2zM1015 66l-4.594.5-5.093 1.5-3.5 1.094-2.5 2.5v2.094l-.5 4 .5 1.624 2.5 2 4.093 4.594 4 .5L1013.5 92l6.594 3.5 4.593 4.094 3-1.094.5-1v-9.594l3.5-2.594v-5.124l-3.5-11.188h-1l-3.093.5-2 .5-2.594-.5-2-2.5zm-85.187 13.906-2.5.5-2 1.594-7.125 2.5-3.094.5-2.5.5-1.5 1.094v2l-1.594 1-1.5 1-1.5 1.094-1 .5 1 2.5 6.094-1 .5 2.5 7.093-2.5 2.5-3.094 8.125-8.188zm-31.907 17.906-5.093 1.5-.5 2.094 4.093 2.5-.5 2.5 2 .5 1.5 4.594-3.5 2.594 6.094 2 5.594 3 3.5-3.5.5-5.094 1-7.094-1.5-3.094-8.094-2zm-23.812 24.5-3.094 1.5-.5.5-4 1-4.094 1.594-4 .5h-5.093l-2 1-1 2.094 1.5 2.5 7.093 1 1.5-1 2-3.094 6.594-1.5 2.594-1.5 5.5-1.594 1-2-2.5-1zm-33.5 4.094-1.5.5h-2.5l-1.594 1-.5 1.094v1l1.5.5h2.094l2-1 .5-1.094.5-1zm398.093 6.281v1.5l1.626 1 2 1.5 4.593 6.125 4.5 2.594 2.594 2 6.594.5 7.094 1 2-.5 1-3.594-1-1h-4.594l-5-1-5.094-4.625-6.094-2-6.094-3zM1185 170.5l-4.5 2-2.5 2.094-7.687 2.5-3.5.5-5.626.594h-7.593l-3 .5h-3.094l.5 3.125 5.094 1.5h6.594l8.624-.125 6.594-1 6.594-2 4.094-1.594 2-4.594-.5-2v-1.5zM6077 279l-67.906 3.5-45.594 2.406-19.312 1-12.594.688-4.094.312-93.812 4.281-97.876 4.625-20.812.5-76.094 1.782-48.719 1.312-7.093.906-40.594.5-106.5 3.094-37 1-85.812 3.188-8.094.406-53.188 2.688-14.719.812-47.187 1.5-4.094.188-42.094 1.218-60.624 1.5-36.282.906-9.594.188-86.718 2.688-8.094.218-39.406.906-48.907 1.375-78.093 2.22-4.594.093-295.187 8.812-4.626-.218-3.5 6.093-4.5 6.72-5.5 8.687-5.5 6.718-8.593 6.688-4.5 5.594-7 3.812-8.094 3-8.094 3.781-8.093 3.907-6.126 3.718-6.5 4.094-7.093 4.594-5.5 3.094-4.594 3.093-11.594 4.407-9.593 2.5-10.72 1.593-9.093 2.625-6.5 1.594-6.094 1.094-5.593 2.094-9.626-.782-14.28-3.125-13.72-4.687L4270 411l-9.187-.906-4.813.312-3.812.094-5.594.5-9.594 1.594-6.094.593-2.5-.5-8.093 1.625-6.126 1.782-3.5 1.906-6.593 3.312-9.594 3.594-13.187 2.5-6.126 1.594-9.093 1.594-10.594 1.593-6.094 1.813-6.593.906-5.626 1.5-9.593-.812-1.5-.094-6.094.094-6.094.5-7.593 2.093-8.626 2.625-11.093 5.188-7.594 3.687-4.594 1-3.5 1.125h-5.094l-10.718-1.718-9.594-4.688-11.312-6.812-8.094-4.907-1.094-.593-5-1.688-2.906-.594-2.188-.406-6.594 1.594-9.124 3.594-7.094 3.312-2.5 1.906-4.5 5.282-5.594 7.218-4 5.875-2.5 4.313-5 9-3.906 8.187-3 4.313-2.594 4.094L3954 496l-.5.594-4.5 5.093-4.5 4.125-5.094 2-8.094-.406-5.124.5-6.094.594-5 .594-2.094.218-6 .094-5.594-1-7.594 2.094-7.624 2.594-11.688 3.093-8.594.907-8.594-.907-7.124-.5-.594.125-5.5.5-11.188 2.282-12.719 1.406-11.593 3.687-18.188 8.313-11.594 5.094-7.124 2.406-7.094 2.312-4.594 1.782-9.594-.907-8.594.907-7.218-1-9.594.093-6.594.5-5.094 1.313-7.624 2.406-3 3.094-6.5 5.312-5.094 3.375-1 .72-7.094 2.905-6 4.094-5.094 4.188-4 4.093-7.094 3.313-7.624 3.906-9.594 4.406-10.094.5-2.594 2.375-6 2.313-9.094 3.594-5.124.312-7.094.594-10.688 3.406-8 3.906-7.094 3.094-5.124 2.594-10.594 6.406-5 3.094-5.094 4.312-4.5 14.282-5 4.312-3.5 6.5-5 6.094-6.594 3.094-4.094 1.5-3.5.812-3.624.781-5 .625-9.188 1.594-6.094-1.5-6.594.5-14.218 1.188-7.094 1-7.594 2.093-7.594 3.125-7.624 1.594-5 1.594-10.188 4.094-11.094 1.093-8.094 2.125-8.124 1.782L3393 682.5l-3-.313-4.094.625-7.594 1.594-4.624 1.5-6 1.406-8.688 2.094-5 .688-9.687 1.093-5.5.313-6.126 1.094-5.093 1-6.094 1.093-5.594.625-8.594-1.812-7.718-5.688-6.094-5.125-5.094-3.5-7.719-6.093-5.593-6.282-6.094-7.125-5.187-7.093-5.126-6.5-6.593-3.782-7.688-3-6.594-.906-8.124-2h-5.594l-8.594.594-7.094.594-9.719.218-7.093 2.594-6 3.594-5 3.312-1.094.688-5.594 4.312-6.5 4.282-5.094 5.218-4.5 5.594-4.5 4.594-4.624 2.094-7.094 1.5-6.094 2.812-7.594 1.406-4.5 3.094-6.594 2.781-7.624 3.407-8.094 2.812-6.094 2.906-7.094 2.782-11.094 4.593-5.624 2.407-14.188 5.093-9.094 3.72-7.594 3.093-11.124 3.594-6.594 3.593-7.094 5.625-4.5 4.594-4.594 4.906-3.5 3.782-2.5 3.093-4.594 2.813-7.124 4.094-5 1.593-4.094-.5-1.5-.78L2975 751.5l-4.094-4.594-6.594-6.312-4.624-3.094-4.594-.906-6.094 1.5-9.594 3.406-5 2.312-3.594 1.782-3 1.093-3.124-.28-3.594-2.22-5.594-3.593-5.594-2.5-3-1-3.094 1.593-4.5 2.625-3.624.188h-6.594l-8.094.594h-7.094l-5.094-2.5-11.718 1.093-7.094 2.625-10.094 9.188-4 9.687-5 3.407-4.594 4.093-3 3.5-1.5 4.125-3 3.782-3.624 4.093-1.407 1.094h3586.375l2.032-3.594 1-5.28.125-.595 1.375-7.218 1-3.907 1-4 .125-.593.593-2.094.5-3.313.188-1.687.094-.594 1.625-1.906 1.281-.594.813-.094 1.687-.406 2.719-1.219.781-.375 1.313-.625 1.78-3.375.22-.5L6422.5 741l1-1.594.813-1.094 2.187-3 2.188-1.718 1.125-.907 2.375-1.28 2.812-2.095 1.907-1.312.593-.594.688-2.219.312-.875.5-1.406-.593-3-.594-2.812.375-2.5.219-.782 1.406-2.218 1.594-1.782.906-1.125 3-4.687.375-.406 2.219-6.594 2.406-5.594.187-.5-.406-5.594-.281-.625-1.5-4.093-1-2.407-.219-.5-1.281-1.687-.719-.906-3.281-4.188-1.313-4-.312-.5-1-1.094-.375-.5-2.625-.625-2.188-2.375-1.406-3.718-.906-4.188-2.094-5.594-.406-.718L6417 636.812l-9.312-10.125-4.281-7.593-4.094-.782-6.5-10.625-4-6-1.625-9.875-1.688-12.218-.593-6 1-19-10.594-18.5-7.313-2.907-3.812-3.187-10.281-10.188-8.594-6.406-7.125-5.594-15.094-1.218-10.281-.782-5.219-2.125-12.406 4.907-6.188 1.312-5.312-1.219-15.781-15.875-5.907-13.625-4.687-10-4.5-4.28-8.219-3.72-7.281-.593-4.719-.094-7 .594-5 3.312-10.187 8.188-5.72.906-4.093-3.188-4.406-2.718-3.688-2.907-5.406-1.78-3.5-5.5-.687-6.313.094-5.782-2.313-7.218.125-10.188-6-4.312-5.5-3.094-3.406-5.594-2.906-5.719-5.688-4.28-16.312-9.22-12.5-12.187-10.688-15.313-2.625-9.593-3.281-12.094-.406-6.313-1.688-8.593-2.312-5.907-2.907-3.687-3-1.188-4.906-1.312-1.875-4.594-2.219-7.906 2.094-7-15.5-13.313zm-4609 47.906-1 .5-1.594 2.094 1.094 2.5v1h-1.094l-1 .594.5 1.5 3.594 4.5 2 2.594.594 1 2 2h1.5v-3.5l-1-3.094-.5-3.5L1471 331.5l-2-3zm1027.594 334.407-2.594.187-3.5.313-8.594 4.78-4 1.907-8.094 1-4.624 1.094-4.094.218-7.094.282-5 1.093-9.687 2.625-4.5 2-2.126 1.094-6.093 1.188-3 1.093L2415 682l-11.187 1.094-3.5-.782-4.626.5-5.093-.125-10.094 4.125-3.594 2.188-5 2.406-4.094 1.282-5 1.5-4.624.5-5.094-.375-7.094-1-6.594-1-4.094-.22-5.624-1-7.594-.78-4.594-1.72-10.094-1.687-6.094-2.593-7.218-1.72-5.594-1.687-7.094-1.5-8.594.5-6.624 2.094-5.594 2-5 1.906-3.594 2-8.594 4.407-6.094 3.28-3.5 1.313-6.124 3.282-6.094 4.625-3 3.593-7.594 4.282-1.5 9-1 4-1 5.625-1.5 4.093-3 3.094-4.094 1.5-3.5 1.094-3.594 1.5-2 1-3.5 1.812-3.624 2-4 1.594 1 3.813 1 4.093-3.5 1-6.594.594-2.5 1-2.594 2-3.5 3.594-6.094 4.593-5.094 3.125-7.624 5.094-4.5 2.594-3.594 1-9.094 2.594-7.094 1.5-1 .687h645.844l-2.844-4.781-.094-13-.5-4.5-1.625-10.687-3.094-10.22-2.593-5.78-4.594-8.625-5.594-5.594-5.125-1.188-14.281-5-9.594-1.718-4.125-3.094-11.187-1.688-4.594-2.5-9.219-7.812-7.094-7.094-4.593-2.187-6.094-1.5-6.094.5-4.125-.5-4.5-1.22-5.094-1.78-4.593-2-7.594.093-6.094.5-6.125 1.094-7.594 4.094-3 2.5-5.593 2.812-4.594 1.594-10.594 2.406h-5.625l-8.594-2.312-5.687-5.5-3.5-1.188-5.594-1.812-7.125-1.188-4.094-3.094L2545 680.5l-7.188-5-4-3.5-9.719-4.813-4.093-2-9.094-1.5-8.219-1.687zm-959.5 71.187-2 2-1.5 5.594-3 3.093-4.094 2.625-2.5 1.5.5 2-3.5 4.594-.594-.5.5-2.5-.5-2.593-1.5 1.5-1.5 5.593-1 4.594.5 3.594 2.094 5 2 9.718 1 7.97h77.438l-.626-.094-13.312-9.094-10.687-6.594-23.407-19.687-5.594-6.125-5.624-7.594-2.594-3.094zm16.812 11.094 1.094 2.593 5 5.5 9.188 8.72 3.625 1.5 1.5 2 5.593 4 8.688 5.093 12.219 7.594 8.593-1.594-1-1.5-4.594-3.5-6.624-4.594-2-.5-1.594 1-3.5-3-3.094-5.093-3.594-3.5-11.219-7.125-2 1-8.093-4-4.594-4.094-2.594-.5z" style="fill:#9faec0" transform="translate(0 125)"/><path stroke="#9FAEC0" stroke-width="10" d="m606 786.281-.312 1.219-4 5.594 1.5 2.5 2 1 5.625 1.593 5.093 1.5 2.094 7.625 12.688 5.094 3-1.093 4.125 1.5 3 .593.5-2.093.5-1.5 7.093-3.625h1.594l2 1-.5 1.625-2 1.5-3.594 1-.5 1.5-1.5 4.093-2.093 1.5-2.5.5-2 1.594 1 3 1 3.594 3.593 2.5 1 2 1 1.093-1.5 2 1 2 1 1 .5 1.625-.5 2.5-1.5 1.5.5 2.094L649.5 852l1.5 2.5 1.5 1 1.094 1.5-1.594 4.594-1.5 3.593 1.5 1 4.094 1.5h1.5l-.5 2-.5 3.125-.5 1 4.093 1h5.625l4-2 1.594 1 1 2 3-1.5 1.594-.5 1.5 2-.5 1.5-6.594 2.094-2.593 2-2 2.594-2.5 2-2.125.5-.5.5-2 1v3.594l-1 3.5-.5 1.093-1.5 1-3.594.5-1 2.5-2 1.625-1.094 1 2.594 5.094-1 .5-1.594.5-3.5-3.093-2.094-2.5-3.5-3.125-1.5-3.5-4.093-4.094-2-2.5-3.625-4.594-5.094-2.5-5.594-8.094-4.594-5.593-3-2-1.5.5-7.718 2.5-1.5-2.5-.5-9.72.5-3.5-1-3.093-.5-.5-1 1-.5 3.094-1.094 6.093.593 5.125-.5 5-1.093 5.594-1 3.094-1.5 1-3 1.5-3.094.5-1 1.094-.5 1.5.5 2-.5 1-2.5 1.093 2 1.5 3 3 2.094 3.625.5 2.5-.5 2.594-1 1.5-2.094 3-.5 1-.5 2.094-.5 2.5 1 3.094 1.094 4.5 1.5 3.093 2 3.5 1.5 3.125 1.593 2.5 1 3.094 2.5 2.5 2.625 4.094 1.5 1 1 3 .5 2.594v1l3.094 3.5 3 1.593 2.594 2 .5 4.125.5 3.5 1.5 3.094-1 3.5v1.5l1 2.094.594 2.5.5 1.5 1 3.094v1.5l-3.094 4.093-.5 2.5-.5 2-2 2.625-3.094 2-2 3.094-7.093 7.094-4.125 5.094-1.5.5-1.5-.5 1-2.094 2.625-9.094 2-11.718 1-17.282 1-4 1.5-.5 1.5.5 2.593-.5-.5-1.593-2.093-2.5-1.5-2 1-2.625v-2l-2-2-1-1.094 1-2-2.125-.5-1 2-1 3.093v4.625l-.5 5.594-1 6.094-.5 5v3.594l-.5 6.093-3 16.813-1.594 6-1 7.688-1 5.625-1.5 5.5-1.5 5.093-2 4.094-1.594.5-1.5 2-2 2.594-2 .5-3.094.5-2.5 1-1.093 2.094-1 3h-1.5l-2-.5h-2.625l-4 2-.5 1.624.5 2 1 1.5 3 1h3.625l4.593-1 7.094-1 3.5-.5 2.594 1 1.5 2.5 1.5 3.094v5.5l2.093 7.688 1.5 7.593.5 3.5-.5 4.125 1.125 4.094 1 3.5V1106l-.5 2.594-1 5.593.5 4.5-1 3.625 1.5 2.5h.5l1-.5 1-3.5h2.094l1.5.5 1.5-2.125v-3.5l-1-5.093 1-.5 1.5-.5 1.594-1.5L601 1107l4-3 2.094-1h2.5l.5 2-.5 2.5 1 2.094.5 2-2 2-2.5 2.093-.5.5-2.094 2.5-1.5 2-2 3.625-1.5 3.594-1.594 3-3 3.594-1.5 2-1.5.5h-1.593v-1.5l1-3.594h-2l-2 1.094-1 2.5-.5 3.5v2.094l-.625 2.5-.5 4.093-1 1.5-1 2.5-.5 1.625-.5 2.5v1l-.5 2.094-.5 2-1.5 4.094v4.5l-1 6.594-1.094 3.093-1.5 3-2.5 3.125-1 2-.5.5 2 .5.5-.5h2l2.093.5.5 3.094v7.094l1 5-.5 3.594-.5 4.093-.5 3.5v6.125l-1 2.5-.5 2.594-.5 3.5v8.188l1 2.5-.5 1.5-1 2.593-1 1.5-.5 1.5.5 1 2 2 1.5-1v-4.5l2.125-4.093 1.5-3 3-3.094 2.094-5.094.5-4.594-1-3 .5-3.625-2.593-8.093-2-3.5 2-5.594 3-5.094 1.593.5v1.5l-1.593 2.594-1.5 2.5-1 2.094 1 1.5.5 2 1.093 3.093.5 1 1.5 3.5 1.5 3.125v3l-1 2h1.5l2.594.5 3.5 5.094 5.094 3.094 2.093 4 1 3.094-.5 3-.5 2-.5 2.093-1 1.5v2l-1.093 1-1.5-.5-2.5-5.593-1.594-6.5-2-6.594-2-3.094-1.594-.5-1 2-1 4.094-.5 2.5-.5 2.594-2 5.093-3.093 3-1 1-2 2.125-3.625 2.5-.5.5-1.5 1-1 1.5-.5 2.094-1.094 2.5.094 2.594-.594 2.5-.5 3.594-1 2-2 3.5-.5 3.593-.5 6.125-1 6.094-1.5 8.094-1 5.594-.594 4.593-1.5 2.5-1.5 2 .5 1.5v2.625l-1 2-1 4.094-2 .5-2.093 1-1 1.5-1.5 2.594-1.5 1-1.594 2-1.5 2.094-2 3.5-1 2v1.093l-1 1.5.5.5.5 1.5-1 2.5v1.625l.5 1.5-.5 1-1.125 1-1 1-2 1.594-1 2.5-.5 2V1363l.5 2v1.5l-.5 2.094-1 1.5-.5 1.5 1 2.5h3l4.125 1.093 3.594 1 2.5 1.5.5 2 1 2 2.093 1.625 2.5 1 2.094.5 1.5 1.5.5 3 2 3.094 4.594 3 1 1-2 .5-2.5-1-2.594-1-2-.5-.5-.5v-1l-.5-2-2.094-2.594-3-2-2.093-1-2.5-3.625-2.594-2.5-1.5-.5h-3l1.5 3.625 1 2 .5 1.5-1 2-1.5 1.094-.5 1.5v2l-.5 1-1.125 1-1.5 1.094-.5 2.5 1.5 2.5 1.125 2.594 1 3-.5 3.593-1 5-1 5.125-1.625 7.594-.5 6.594-1 8.094-1.5 11.218v4.594l-.5 3-.5 2.594-.5 3-1 2.5-1 1.094-.5 2v2l1 2.593-2 6-2.094 5.125-.5 4.594-.5 3-1.5 9.188 1 4 .5.5 1.594-.5 2.5-.5 2 .5 1.625.5v2.593l-1.5 2v1.5l-1.125 1-1.5 1-.5 2.625.5 2.5 1 2 2.625 1.094 3-1.094h.5l2.094.5.5 2.594-2 2V1534l.5 2v1l-1.5 3.094v2l-4.594.5-1 .5h-1.625l-5.094 3.093-2 .5h-1v-2.093l2-3v-5.094l1-7.594.5-5.094.5-4.5 1.594-4.125 1.5-2-.5-1.5-1.094-.5-1.5 2-1 3-1 3.125-1.5 3-1.5 3.094-.594 4-.5 3.594-1 5.594-1 4-2 4.093-1 6.625-.5 5.094v4l-3.093 8.594-3.5 11.187-4.094 9.125-.219 1.282h5637.75l2.844-3.907.5-.5 3.625-5.687.5-.906 2.593-5.282 2.188-5 2.5-4.625 4.094-6.093 1.5-5 1.625-5.594.281-.813 2.594-3.187 3.812-5.906 3.094-3.782.594-.812.906-1 1.5-1.5 1.094-.813 2.812-2.875 4-6.625.406-.687 1.407-2.406 1.687-3.282.5-.812 2.188-7.813 1.812-6.375 1.188-4.906.906-4.219.813-2.593.28-1.094 2-5.5.5-1.594 2-8.094.5-1.125 1.72-8.187.5-4.688.187-2.312-.094-4.188-.094-.906-.312-.594-2.782-5.906-3.219-7.594-3.593-5.5-.688-.812-2.906-7.5 1.594-3.406 3-2.782 4.187-4.125 3.625-3.5.5-.375.594-.812 1.781-4.188-.281-5.312-.219-.594-3.187-1.5-.813-.312-3.094 1.093-2.406 4.72-2.687 5.405-2.907 2.688-2.406-1.094-.375-.219-1.719-2.687 1.094-6 1.313-6.094 3-6.406.593-3 1-6.094.095-.5-.688-6.594-1.312-11.625v-3l.124-1.5 1.188-4.5 5.594-5.875 2.312-2.312.5-.313 1.594-1.28 3-2.72 2-2.28 3-3.313.313-.407 1.874-2.187 2.813-3.094 1.813-2 1.593-1.719 1-1.187 2.5-3.094 3.5-4.906.406-.688 2.094-4.406 1.594-3.406.594-1.313 1.406-2.5 2.313-4.093.78-1.407 2.594-5.28-.28-1.313.78-3.5-.28-1.188-.5-3-.907-2.719-.187-.78-.22-6.095 2-4.312.22-.5 5.28-7.406 1.72-1.688 2-1.719 3.5-1.875 4.687-3.906.594-.5 4-6.406.312-.406 3.094-6.282.313-.718.874-3.688 1.126-4 .28-.594 1.72-2.906.5-1.094 2.187-2.718 3.906-4.782 2.594-8.5.313-2 1-7.125V1194l-.126-3 .22-2 .593-4.594.188-1 2-8.094.624-2.312 3.876-13.594.406-2.5.718-5.406.376-3 1.124-6.906.594-4.407.906-6.78 1.688-11.22 2.313-14.28 1.28-5.595.5-2.312 2.094-10.594 1.126-1.5 5.874-8.219 1.407-.78 2.593-4.095 1.126-1.406.593-.906.906-2 1.594-5.094.094-6.219-.187-7.5-.125-1.593-2.094-9.688-.594-2.812-.5-3.5v-1.188l.188-8.219.906-4 1-4.593 2.813-5.907 2.406-5.093 3.687-8.594 3.094-6.313.906-2 2-4.187 2.313-4.5 3.781-6.688 1.219-2.218 4.687-8.907 1.313-2.375L6338 950l3.094-7.188 3-6.5 1.219-2.718 3.875-5.782.5-.718 2.812-2.688 1-.812 3-3.407 3.5-3.875 2.5-6.625 1.094-6.375-.406-7.312-.282-4.313.282-1.093 1.625-8 5.187-8.282 4.094-4.812 2-1.813 7-7 .719-.375 3.281-4.5.594-.906.906-1.594 1.406-3.5-.312-2.5-.282-3.125v-.593l-1.218-4-1.188-3.907-.094-.5-.094-4.093V823.5l-.125-2 .125-2.094v-4.594l-.312-5 .312-1.406.5-1.594.375-.812 1.313-1.906.5-.5 4.593-3.782.72-1.218 1.187-3.688 1.187-3.406.313-1.094 2.593-4 .063-.125H2813.78l-2.594 2.031-3 .782-3.094 1-6.094 1.812-9.093 2.594-8.094 1.094-7.625.312-8.188-5.812-2.25-3.813h-645.843l-2 1.406-6.094 1.5-7.125 4.125-22.281 14.282-4.594-1-4 1.093-6.625 5.625-10.188 2.594-2.5.5-14.687 3.094-5.125 1.094-9.594 2-8.188 3.593-5.5 1.625-5.593 2.5-3.625 2.094-3 2.5-3.5 6.688-5.094 4.593-4.5 3.5-3.094 1.125-5.093 1-7.594-1-.5-2 4.594-1.625 9.593-.5 4.594-5.593 4.5-4.594.5-4.594L1986 835l-7.593 4.094-20.22 12.812-10.687 2-11.687 4.688-9.625 3.593-9.688-2h-10.593l-10.72.625-12.187 3.094-8.093 1.5-3.594-2-14.813-13.094-8.093-9.718-1.594-4.5-3-2.094-3.125.594-3-5.094-6.094-.5-7.687-.5-9.594 2.594-2.5 1.5-4.625 2.093-9.094 1-9.187.625-7.094 2.094-11.719 2-9.594-3-19.812.094-15.781-5.5-8.094-2-9.719-4.094-7.594-7.594-23-17.718-15.187-7.5-14.219-2-10.687-.5-15.313-2h-5l-5.094-.407-12.562-1.906H1521l.094.625-.593-.625zm1089.813 13.813.593 3.5 6.594 8.593 3.094 3.125 5 2 6.594-.125 5.718 8.22 1.5.5 6.594.405 8.094 4.094 3.094.5 7.624-2.093 4.094-.5 9.094 1 5.094-1.625-6.094-4.5-8.187-3-9.626-3.094-6.593.093-12.188-3.5-2.093-.5 3.593 7.125.5 3-3-1-1.593-2.5-1-2.625-1-2.5-7.125-3-4.094-1.5-5.594-3.593-3.094-3z" style="fill:#9faec0" transform="translate(0 100)"/><path stroke="#9FAEC0" stroke-width="10" d="m501.594 1592.594-.782 4.312-1 5.094-1 1.5-2 3.094-1.625.5-2 1v2l.5 1.5-.5 1.594-1 .5-1.5.5-1.593-.5h-.5l-1 1.5 1 2.5-.5 2.125-1 2v1l.5 1.5v2.093l-.5 1.5-1 2 .5 2 1 .5 1.593-.5.5 2.594v3l-1.093 3.594-.5 2.5-1.5 1-1.5.5-1 1-.5 1.594v1l-1.594 1-1.5 2v2.125l.5 2-.5 1.5v1.5l1 1h1.594l1 .5.5 1.593-.5.5h-1.5l-1 .5H481l-.5 2v6.594l-.5 1.5-1 1.5v4.094l1 3 2.094 1.594 1.5 2 1 2.5.5 4.125.593 3.5v3.593l1 4-.5 2.594-1.5 1.5v1l1 1.5 1 1 2 3.094 2.125 3 .5 3.094v4.5l-1.5 5.625-1 8.593-3.125 12.688-2 9.094-2 8.718-2.093 9.094-2.5 5.094-1 1H473.5l-.5.5-.5 1 .5 2 1.594 1.594 1 .5 2.5.5 2.093-.5h2.5l1.5 1 2.125 2.5 1 2.5 1 4.124.5 1.5v3.094l-1 2-1 2.5-1 2.594-1 6-1 3.094-1 3.5-1.125 4.094-1 3.5-.5 3.624.5 5.094.125 2-.625 2.5 1.125 1.5 2-.5 1.5-.5 1.594-1.5 1.5-1 1-1.5 1-2.094 2-2 1.594-1.5h2l2 2 5.094 3 3.593 1.594 6.125-1.594h5.594l5.094 1.5 4.594 7.094 1 4.094-1 2-3.594 3.094-2 3 1.5 3.594 1.094 4.5.5 3.624-2.594 3-3.5 5.094-1 2.5-2.094 3.594v1.5l1.094 1 4.5 2h8.188l2 1.5 6.718 5.594 7.094 3 7.594 1.5 3.093-1.5 2-3.5 1.5-5.094 2.625-2.5 2-1.594 3.594-1 3 1.5-3 3.594-4.093 1-1 7.594-6.625 5.594h-6.094l-5.094-1-3.094-1-3.5-2-4.593-3.094-4.125-3h-3.094l-5-1-6.688-1.5-4.593-2.594v-6l2.593-4.094 5.094-7.094.5-3.624-1.094-5.5-2-3.094-2.5-1-1.593.5-2.5 5.594-1 2-2.625 1.624-1.5 2v1.5l1 1v1l-.5 1.094-1 .5-1-.5h-1.5l-1.594-1.094v-1.5l1-2 2.593-4.124 1-4.5 1.5-2.594 1.5-2 2.625-1.5 1-.5h1v-1.5l-2-.5-3.125.5-2.5 1.5-2.593.5-3-3.594-1-2.5-.594-1v-1.5l-.5-3.594-1-.5-6.594 4.594-5.093 2.5-5.125 1.594v3.5l-1 4.594-.5 3.5v4.124l-.5 4v4.594l-1 4.094-1 5.5-.5 8.688-.5 7-.5 5.624-1.5 4.594-1 7.094v6.094l-.5 6.594-1.594 5-1 5.124-1.5 5.094v5l-.5 6.094-1 4.594-.5 3.5-1 4.094-1 2.5-1.594 2.624.094 5v9.188l.5 7.094v7l.5 6.094-.5 5.124v9.594l-1 5.094-.5 5.594-1 9.594-1 4.124v2.5l1 3.5v3.594l.5 2.5.5.5 2.094 1h1.5l.5-2-.5-2v-4.094l5.625-5.124 6.093-3.5 5.594-7.094 3.594-.5 2-2 2-1.094 4.094 3.094 2.125 2.5 1 2 1.5 2.594 1.5-1.094 1.593-2 3.5.5 1 4.094.594 1.5-2.094 4.624-.5 6-1 2.594-1.5 2.5 2 1.5 9.188 2 2.5-.5 5.094 3.094 5.718 6.5h-4.093l-5.125-1-6.594.594-6.188-1.594-2 1.594-2.5 6.094-.5-1.094-2.593-10.594-2.625-5.594-2 1-1-1-1-6-2.094-2.594-2-1.5-3.094 1-.5 2.594.5 5.5-1.5 5.594-1.5 2h-1l-.5-.5 1-1.5.5-1.5v-3.594l1-1.5-1.5-3-.5-1.5.5-2.594 1-.5v-1l-1.5-1.5-1.594.5-.5 1.5v1.5l-1.5 1.094-3.093 2.5-3 1.5-2.125 2.5-1.5 1.094-1 .5-2 .5-1.094 1-3 2-.5 2.094.5 3-1.5 5.594-1 7.124-1.5 7.594-1.094 4.5-.5 4.094-.5 2.5-1 2.5-1.5 3.594-.5 2 1 3.094v6.624l-1 3-.5 2-.5 1.5-.5 4.094-1.5 8.594-1 3.594-1.594 3.5-1.5 5.094.5 5-1.5 3.624-1.5 2.5-1 2.594v2l-1 3.5-1.593 3.094-2 3-.5 2 .5 3.094 2 3 2.093.5 1 1-.5 1.594v1l-1.5.5-1.593 1-2 2-.5 3.624-1.5 3.5-1 3.094-.5 3-.5 4V2218l1 2.5 1 1.5.5 1.5-1.5 2.094-.5.5-2.125 1.5-.5 1 .5 2 1.125 1.594 1 3 .5 2.5v1l.5 1.624 1 1.5v2l-1 2.5-1 3.594-1 2.5-.5 4.594v3l-.5 4.094.5 2 1 6.094v4.5l-1 3.624v5.594l-1 2.5-.5 2.5-.5 4.594v5.594l-.5 2v2.5l-.5 4.094-.5 5 .5 5.124-1 8.594-.5 4.594-.5 3.5.5 2.5.5 3.094-.5 4-.5 1.594-1 5.5-1.5 9.124-2 10.688-1.5 3.5-1.625 1-1.5 2.094-1 2v1.5l1.5 2 1 1.594-.5 1.5v7.624l-1.532 3.063H6146.72l2.281-1.187 4.406-1.594 4.407-1.688 1.78-.594 4.5-2.218 2.5-1.188 2.095-1.312 4.125-4 .5-.5 1.875-2.094 3.218-4.406.407-.594 1.375-4.594.625-2 .687-3.406.688-5.187.125-1.126.28-2.5.22-2 .187-2.593.313-2.406.28-1.688 1.22-3.812.094-1.5.094-1.188.5-1 1.906-3 .687-1 2.407-3.687.906-1.407.594-1.094 2.906-8.624h.687l1.407-4.688v-6.094l-.907-6-3.687-4.812-.906-.781-3.688-3.407-11.812-7.312-4.407-2.281-1.593-.813-3.688-2-2.906-1.594-5-2.094-2.719-.218-4.375-.281-5.312.687-4.407.594-3.187-1.094-1.5-.5-.406-.187-.407-.5-2.906-5.72-.781-3.5-1-4.5-.406-2.405v-1.094l.187-4.094-.281-9.5v-.687l.281-2.407.313-1.906-.813-6.187-1.781-4.72-.406-.405-2.907-2.688-3-2.906-4.906-1.906-1.375-.5-1.219-.095-2.406.095-6.594.218-5.593.188-.594.094-5.5-.781-5.313-.594-1.906-.313-4.187-.312-4 1.5-.407.312-1.187 1-1.219 1.188-2.687 5.219-1.188 5.093-.906 1.5-2.094 3.407-2.812.593-.407.094-3.187-2.281-6-4.625-2.594-1.594-5.625-3.281-1.187-.719-4.094-4.687-1.5-1.719-1.719-2.281-2.781-7.094-3.719-8.406-1.875-4.907-5.625-3.687-1.594-1-7-3.906-1.906-.407-1.281-.312-1.313-.187h-2.187l-.719.312-4.375 2.5-3.5 5.688-1.5 4.312-.406.781-4.094 7.094-2.312 4.5-1 .625-2.313 1.5-.875.281-1.625.094-3.094.313h-.406l-4.281-1.906-5.406-1.094-5.5-.906-1.094-.188-6.906-2.719-9.094-7.281-.906-.906-5.313-5.906-1.5-3.594-1-2.5-4.187-5.094-6.094-5.094-1.313-2.5-1.906-4.218-.281-3.094.281-.688.5-1.312 2.125-2.813.781-1 4.094-2.875 3.406-3.718.907-1.282 4.093-6.906 1.22-2.312 2.187-4.407.593-1.593.813-3.407.187-1.093.5-4.407-1-4.593-1.906-5.094-.187-.5-4.313-5.906-4.094-5.594-.406-.594-5.281-4.312L5932 2107l-2.594-2.188-5.219-3.906-1.875-1.406-4.906-4.188-1-1.625-7-11.875-.594-1-1-3.625.188-1 1.593-6.781.094-.5 1.907-3.5.718-1.5 1.688-2.719 4.5-5.093 2.187-3.407.407-.593 2.312-4.594 1.906-6.813.282-1.093 1.093-5.688.407-.406.312-.5-.094-2.5-.5-3.406-.312-5.188-.094-3.5-.407-4.594-.094-4.5v-1l-1.5-8.625-1.406-2.781-2.094-4.312-.406-.594-1.406-4.313-.5-1.093-1.594-4.094-.687-4.5-.313-2.094 1.594-5.219 2.906-2.687 5-1 .406-.094 3.094-1.5 2.313-1.219 2.187-1.375.906-.812 2-2.813.782-1.094 1.5-4.28 1.218-3.126 1.407-4.094 1.187-5.406.5-2.5 3.313-6.781 2.28-2.219 1.095-1 3.406-2.094.906-.5 3.094-.78 1-.313 4-1 .5-.094 2.812-1.407 2.188-1.312.812-.594 2.782-4.281.406-.625 1.5-2.375.812-1.625.188-.781 1.094-5.594 1.406-8.125.719-4.781.094-.813-.219-1.187-.688-5.5-.406-1.5-.687-3.5 1.406-7.094.781-.625.906-.688 1-.906 3.813-3.5.5-.406 2.781-2.875 2.094-3.125.5-.781 1.906-7.313.5-2.187.094-6.22.719-6.093-.219-2.281.125-2.313-.5-4-.125-1.312.406-4.375.094-1.625 2.813-8.375 2.094-3.406 1.093-1.907 1.5-2 2.22-3 1.28-1.812.907-1.375 1.312-2.906 2.688-8.094.906-6.5-.5-7.313-.406-4.5 1.312-3.5 1.781-3.593.625-.72 4.594-4.374 2.188-4.219 1.5-4-.094-3.094-.188-4.187.188-4.625 1.593-4.188.407-1.093 2.812-4.313 1.094-1.781 1.594-3.125 3.093-5 1.813-2.781v-5.594l.406-7.625.094-5.5v-1.188l.5-2 1-2.187.281-.625 1.907-1.188 3-2.593 2-3.594 1-2.719.718-1.687.782-2.313.406-.687 1.5-1.313 4.187-3.5.907-.781 4.218-3.125 1.094-.781 2.781-1.407 7.125-3.093.875-.407 5.22-1.187 5.593-1.219 4-.906.687-.188 3.813-2.406 3.5-2.406 1.187-.875 5.125-6 1.688-2.125 1.687-1.594 2.813-2.906.687-.688 1-.5 8.625-3.812 1.375-.594 8.313-3.594 1.406-.593 3.906-2.407.594-.312 2.5-4.375v-1.5l.781-2.813-.28-.687.093-3.625-.406-4.594-.094-.906 1.312-4.594 1.188-4.187.687-.813 2-3.187 3.157-4.313z" style="fill:#9faec0" transform="translate(0 75)"/><path stroke="#9FAEC0" stroke-width="10" d="m411.656 2398.875-.968 1.938v1.593l1.5 1 .625 1.5-.625 4 .625 3.094 1 3v3.594l-1.5 5.5-1.5 7.094-1.125 10.218-1.5 8.094-1 8.094v7.094l-2 6.5v7.124l-.5 7.094-.5 2-1.5 6.094-2 8.594-1.594 4.094-1 3 .5.5 1.093 4.624 3 2 2.625 2.5.5-.5.5-2 .5-1.5v-2l.5-2.124h.5l1 1.5v4.624l-.5 2-1 2.594-.5 2 .5 2 1.594 7.094 1.5 3.5 1.5 6.594v2.594l-1 6.5-1.5 4.624v8.094l3.594 4.5 3.594 4.094 4.593 2 3-1.5 2.125-3.594 4.5-1.5 3.094-3.5 5.594-1 1.5 1 .5-4.594 1.594-4.5 2.5-2.624 3.593-2.5 2-2 3.125-2.094 1-2-.5-2.5 3 1.5 2.094 3v2.594l-4.093 5-2.5 1.5-4.625 1.124-2.594 1.5-1 3.5v2.594l1.5 1 2.093.5 4.125-2.094 7.594-3.5 10.688-4.624 4.593-2 4.625-1 5.594-.5 3 .5-1 2-2.5 1-4.593 2.5-8.72 1.124h-.5l-4.593 1.5-4.594 2.5-1 .5-.5 1H465l1 1.094.5 1-1.5 1.5-1.5 1-2.094 1-.5 2.5.5 2.094v1.5l-.5 3.5-1 2.094-.5 2.5-1 1.5-2 1-.5-.5-.593-1-.5-1.5 1-2.5.593-4.094-1.593-1.5-6.625-1.5h-6.094l-3.594-2-2 3-.5 1h-3.594l-2.093.5-1 1.5-3 1.094h-5.125l-6.094-2.594-2.094-2-7.094-6-1.093-11.187.5-4 2.593-7.126-.5-3.093-4.218-22.188-3.5-2.594.5 5.094V2528l-1.5 5-1.5 6.094-.594 4-1 9.219-1.5 11.593V2571l-.5 5.594-3 17.219-1 7.593-.5 7.594-1 6-1.5 10.688-1 7.124-1.5 7.594-.594 5-1.5 5.094-1 3.5-1 1.5-.5 3.594.5 2v6.594l-1 3-.5 1.624 1 1h1l2.094-.5h1.5l.5 1.5v1l-1.5.5h-1l-2.594 1-1.5 1.5-1 2.094-.5 6-.5 3.594-.5 3.5-1.594 4.594-1.5 7.094-1 9.624-2 12.094-1 5.594-.5 3v1.594l1 .5 1.5-.594 1.594 1.094v1l1 .5-3.094 1-1.5.5-.5 1.5-1.5 4.094-1.5 8.124-3.093 11.094-1.5 10.594-2 7.594-1 5.594-1.625 6.624-1 5.5-1 6.594-.5 4.594-1.5 3.5-1 2.594-1 3.5-.5 4.5-1.594 4.594-2.5 10.124-1.5 6.094-.5 4-.5 2.094-1 5.5-1.094 5.094-1.5 4.594-1.5 6-2 4.624-2.094 5.594-1 3-1 4.5.5 2.094 6.094-5.094 8.188-13.719 9.718-4.5 6.594-5.593 2-5.594-2.594-6.5-1-3.594 1.5-3-1-3.594 2.094-3-2.094-3.5 5.094-11.218 4.094-5 2.5-2.594.5-.5 12.312-4 3-.594L395 2815l5.688 6 5.625 12.688v5.5l-1 4.624v3l1.5 3.094 4.093-2.094 7.188 1 2.5 1.594 1 2h5.593l2.625-1.594 4.594-4.5 1.5 4.5-2.5 5.594-.5 3-2.593 1.094-1 3 3.593 1.5 9.688 4 9.218 3.594 12.688.5h2.094l17.812-2.094 19.407 1.5 10.687 4.594 10.813 1.5 7.593 6.5 6.094 3.094 13.313 7 5.593 5.124 6.188 13.594-.5 2.594-3.094-1.094-2.5-4-7.187-11.594-1-1.5-15.313-6.124-12.812-4-13.282-9.094-12.718-1.5-8.688-1-8.187.5h-10.22l-12.687 2.594h-9.718L427.313 2867l-3.625-1.5-3.594-2-4.594-1.5h-3l-1.594 1.5-2 1-.5-3-1-5.594-5.093-5.5-7.22-5.094h-.5l-.5-6.624-2.093-8.594-3.094-.5-2.5 1.594-3.093 4-3 7.624-1 5.594-1.5 1-2.625 1 .5 2-1.5 2.594v4l-3.594 1v3.594l.593 1.5 1 1.5 1 2-3.593 1-2 4.594-3.594 2.5-5.094 1.5-4 2.124-3.093 1-.5 4 2 4.594-3 4-4.125 1.094-1.5-2.594-3.094 2.094-4.594 4-3.5 3-.5 2.094v4l-1.094 1-1.5.5-1.5 1-1 2.594v2l-.5 2.5v5.124l-1.593 3-1 5.094-1 3.5v2.594l-.5 4-1 4.094-1.5 5-1.5 5.094-.5 6.124-1.625 4.5-1 4.594-1.5 6.5-1 6.094-1 5.094-2.594 5.5-1.5 6.094-1.5 5.624-1 3.5-.5 4.594-1 2v4.594l-1.5 1.906v1.188l-1.594 3.906-.5 1-2 4.594-1.5 5.094-1.094 4-1.5 3.624-.5 4-1 4-2 6.094-3.593 10.094-3.5 9.094-2.125 4.594-1.5 5.624-1 5.5-2 4.594-2.094 4.5-2 4.594-2 5.594-2.594 6.5-3 8.094-4.094 11.718-2.5 5-2.593 7.594-1.5 2.5-1.5 3.094-1.625 1.5-1 1.5v2l-.5 3.594-2 4.5-4.094 7.124-5.094 11.094-4.594 10.188-3.187 6.094h11.656l.219-1.094 1.594-.5 1.5-1 6.625-3.094 1-3v-6.594l1.593-4.5 2-2.5 4.094-5.594 5.094-5.624 7.593-2 3.625-1 4.094-1 2-1 .5-4.594 1-2 5.094 3.5 3.594 1.5 1.5-1.5 1-6.094v-2.5l.5-5 1.593-4.094 1-2.5.5-3.094.5-2.5.5 1 3.125 4.094 4.594-.5h2l2.594-1.094 1-3h4.594l1.5-.5 1.5-4.124 1.5-5.5 1.093-2 2-1.094h2.625l3.5 1-.5 2.094-2.5 2-2.125.5-1 2-2 5.124-1 3.5-2.593 3.594-5.594 3.5-5.094 4.094-4.593 4v4.094l2.093 3 4.594.5h4.094l2.5 4 1.593 3.594 1.5 3 2.125 2.5h4.5l4.094.5-2.5 3.124-2.093 1.5-1.5 3.5-2.5 4.094v2l.5 2 .5 2.594.5 1.5-1.5 1.5v1l1 .5 4.093 3 3.094 1 .031.188h5799.75L6122 2984.812l-6.094-130.124-5.094-107.688-1.5-31.312-.125-1.5.125-1.094 1.782-7 .406-1.281 1.5-5.626.312-1.374-3.718-3.126-5.782-4.187 1.782-9 5.906-6.094 3.687 2.688 5.22-.594 1.905-2.594-1-3.594-.718-4.812-2.094-2.5-5.594-3.094-1-3.812 8.406-4.594 9.594-2.312 6.5.624 5.281-3.5.72-3.906-.595-7.594-.218-5.312.906-4.187 1-4 1.312-5.72.594-2.687 1.688-5.594 1-1.812 2.593-4.094 1-1.5 1.625-1.812 1.782-2.5.593-.906 1.22-4 .28-4.094-.28-3.688v-4l-.407-2.719-1.188-1.28-1.906-2.407-.906-.812-1.688-2.594-1.718-2.781.593-4 3-6.407.5-.594 1.407-3v-3.906l-.907-1.5-.5-.719-1.875-.874-.906-.626-3.094-.874-3.625-.813-2.687-2.906-.313-1.906.907-2 2.406-2.376 2.687-2 2.625-1.906 2.782-1.812 1.093-.688 2.313-2.312.594-.5 1.812-2.781 3.594-5.407 1.406-2 .906-.5 3.5-1.406.5-.312 1.875-.688.72-.594.905-1.594.875-3.406-1-1.812-1.28-2.5-2.095-4.094-.906-4-.406-1.5.312-.5.782-1.812 1.218-1.782.688-1.219 2-1.687 1.594-5.187-.594-5.407-.313-3.594-.875-4-1.625-3.5-1.875-4.5-4.812-3.624-2.594-2-2.219-1.688-4.375-2.5-4.125-2.312-3-1.688-3.28-2.687-.22-.626-1.5-3.593-.875-1.906-1.312-10.594-.5-3.094-.188-3.406-.218-2.688-.907-4.5.125-1.812.375-5.906 1.907-2.594.406-.594 5-2.5 1.219-.625zm-119.062 771.813-9.188 4-2.593 1.624-2.5 4-3.625 4.094-3.5 7-1.594 1.594-3.5 4-6.094 3.594-1.094 2.5-.75 2.094h52.063l.781-2.688-.5-6.5-2.594-7.094 1-5.594 1.594-4 1-4.624-3.094-2.5-6.093-.5h-2.625l-4.094-.5z" style="fill:#9faec0" transform="translate(0 50)"/><path stroke="#9FAEC0" stroke-width="10" d="m231.719 3205.188-1.813 3.5-2.594 3.5-1.5 5.624-2.625 3.5-2.5 3.094-1.5 2.5-1.593 3.5-2 3.094-1.5 3-1 3-2.094 2.594 2.594 2 1.5.5 2.593-.5 2.5-1 3.125-5.094 1-1.5 1-1-.5-6.094 3-3.5 1.594-3.094.5-3.5 2-.5.5-1 2.094-2.624 2-1 1.5-2.5.5-.5 1.094-1 2-1.5 1-.5.5-1.594.281-1.406zm26.437 0-1.25 3.5-2.5 5.5-4.093 7.124-3.125 3-3 1.094v1.5l-1 5.5-1 5.094-3.094 4.5-3.094.094-3.5.5-2.094 1-1.5 2.5-1 3-1.5 3.094-.5 2.5-1.093 1.5v5.125l-.5 2.5-1 2 .5 2 2.093.593 2.5-2.093 3.094-2.5 3-2.5 3.594-.5 1.5.5 2.093 2.5 2.5 2.5 1.625 1.5 1 .5 1.5-.5 2.094-1 .5 1-1 1.5v3.593l-1.593 1.5-5.125-4-2-.5-1.5-2.093-1.094-2-.5-1-1 .5-2 4.093-1.094-2.093-1.5.5-2 1-1.094 1.593.094 2.5-3.594-1.5-2.593 2v2l4.093 4.594 1.594 3v2h-3.594l-2.093.5-.5 1.094-.5 2 .5 1 .593 1h.5l1 .5 1.5-.5h.5l.5.5-1.5 1.5-1 2.5 3.594 3.594v1.5l-1 4.125-.5 3 2 2.5 1.5 3.5.094 3.593 3 2-2 2v6.594h-1.5L229 3326l-.5-7.094-1-3-3.093-7.093v-3.5l.5-3.125-.5-1.5-1-.5-1 .5-.5 6.125v2l.5 2v2.093l1 1.5.5 1v4l-.5 1.5-1-1h-1l-.5 1.5v5.094h-2.094l-.5-5.594 1.5-3-3-3.5 1.5-1 .5-1.093.5-1-1.5-1h-1.625v-2l1.125-1 1-1.5 1-2.625 1-2-1-1.5-1.5.5-1.125.5-1-1 1-2.5 1-5.094-.5-3.5.5-2 2.125-3.094-.5-1-1.125-.5-1 1.5-2 1.5-1.594 1.094-1 1-2.5.5 2.5-2.594 2.594-3.5 1-1.5-1.5-3 1.5-1.594.5-.5-1-1.5 1.5-2.5v-3.593l3.125-2 1.5-4.5-1.625-4.125-1.5-1h-.5l-.5-3-1-1.5-4.594.5-2.094-.5-4.093-2-2 1.5-1 2.5-2.094 2-2 1.5-2 2.125-3.125.5h-2l-1.594-.5h-1.5l-1 .5-1 1.5-1.594 1.5-2 .5h-1.5l-1.593-.5-1.5.5-.5.5v2.093l1 1.5-.5 2-2 .5-3.094 1-1.5 1-1.625 1-1.5 2.094v5l-1 1-2 1-1.594 1.594-.5 2.5v2l-1.5.5h-1l-1 2-.594 2.094-1 2.5-1.5.5-1 1.5v3.625l1.5 1 1 .5 1.094.5 1 1.5.5 2 1.5 4.593.594 3.5 2 2.5 1.5 2.594-.5 4v7.594l.625 1.5 2 2.5.5 2.094.5 3-1 3-1.5 3.125-1 4-.5 3.5v3.093l-.5 4-1 3.594-2.625 6.5-1 5.594-1 4.5-1 3.094-1.594 3.5-.5 4.625.594 3.5v3l-1 3.593-.594 4.5-1.5 5.594-1 9.094-1.5 10.094-2 5.125-2.594 6-2 6.593-3.093 7.094-.5 4-1.5 6.094-1 4-1.5 2.594-1.594 4-1.5 2.5-1 4.125v2l-2 4-1.125 1.093-1 3-1 4.5-.5.5-1 3.094-1 .5-1 3.5-2.094 2.594-2 2.5v1.5l.5 2-1 4.094v4l1.5 3.5.5 3.125 1.094 2.5-1.594 3.5-1 3.093-1.5 4.5-.5 2.594v3.5l-.5 5-1 5.094-2.594 11.094-2 11.625-2.5 6.593-2.593 7.594-2 5.594-.5 6.5v4.094l-2 4-2.094 3.625-1.5 3-1 4v1l-1 2.593-1 3.5-1.625 3.594-1.5 2.5-1.5 4.5-2 7.594-3.594 8.594-2.5 8.125-2.094 6.593-2.5 6-3.093 5.594-5.594 15.688-5.625 12.625-5.094 10.593L52 3739l-5.593 8.094-2 4.594-3.094 6.625-4.125 6-3.5 4.593-1.594 1.5-1.5 1.5h-1.5l-1.594.5-.5.5v3l1.094 2.594L27 3783l-2.5 5.594-2 3.5-.5 3 1 4.594-3.593-1.5-2.5 2-.5 3.5-3.094 4.625-3.125 2.5-3 1H4.594l-.5-1-1.5-.5-1.594 1-1 2.593.5 2 2.594 1 3.094.5 3.5 3.5 7.219 6.594 4.593 5.5 3.094 7.594 2 5.594 2.094 5 1.5 6.125 1.625 6.593 1 6.5 1 5.594.094 7.594 1 7.5 1.594 8.094.5 7.625 1 4 .5 5.093v3.5l-1 3.094 1 3.5.594 3.5-.5 1.5v1.594l2-.594 1-1.5 1.5-1.5 1.593-3 2-1.5 2.625-.5h1.5l1.5-1.094 1.594-1 2 .5L59.5 3924l6.594 5.5 5.218 6.094 2.5 4.5 1.094 4.094-.5 3.5 1 2.5 1.5 2.5 1.594 2.125 1 3 1 5 .5 3.593 1.094 4 1 1 .5 1.5V3976l1 3 4.093 2.5 1.625 3.094-.5 1.5-1.125 2v3l-.5 1.5-1.5 2.594v3l1 2 2.125.5 3.594.5 3.5 2 2.594 2.625 6.187 4.5 1.657 1.187H6171.5l-2.313-42.812L6168 3944l-3-61.094-2.188-59.593-1.125-19.907-1-16.593-.687-11.5-1.5-31.313-2.313-48.406-1.5-32.281-3.375-70-.406-8.313-.313-8.406-1.593-32.281-2.407-49-.687-12.907-.594-18.906-.625-11.906-4-84.688-.781-16.093-7.125-145.625H333.032l.469 3.906-.5 4h1l5.094 2.094 3.593 2.5v3.5l1 2 2.625 3.125 2 3 1.094 3.5-.5 4.093-1.094 3 .594 3.094-.594 1-6.125-1.5-2.5-2.594-1.093-7v-3.093l-1-1h-1l-4.094 3-3.094 1.093-9.719-1.5-1.5-.593-1 1.093-2.593 4-.5-3.5.5-4.593-1.5-3.5-5.094-5.125-1.094-1.5 1.094-3.5 1-4.094 1-2.5.719-2.406z" style="fill:#9faec0" transform="translate(0 25)"/><path stroke="#9FAEC0" stroke-width="10" d="m107.344 4011.5 1.844 1.313 2.124.5h2l1.594 1 1 3.093 2 5 .594 2-.5 4.594-.594 1-.5 3.5.594 1.5-1.094 1.594.594 1 2 1.5 2.594 2 .5 2.5v3.594l-1 3 2 1 1.5 2 .594 4.124.5 5v5.594l-.5 6V4079l-.5 3-1.5 3.5-1 1.094-2.094-.594-.5 1.094.5 3 2.094.5 2 .5 2.124 2 1.5 3 .5 3.094 1.594 4-1.093 1.5-1 1.5 1.093 2.125h1l1 2 .5 2.5.5 3.5v5.093l-3 7.594-2.5 9.094-2.593 8-2.5 10.094-4.125 9.125-2.5 6.093-3.094 6.594-2 5.5-2.094 6.094-1.5 4.5-1.5 2-1 1.594 1 3 .5 3.5-1 3.125-1 2v3l.5 1.5-1.5 2.5-1 1.593 1.5 3.5.5 5-.5 2.594-.5 2-2 1-1.094 2.5 1.594 2.594v1.5l-1 2.5-2.594 4.5-2.5 7.094-3.593 7.125-1 5.5 1 4.593 2.093 4 2 1.5 5.688-1.5 7.094-1.5 4.125-1 2.593-4.593 3-2H123l7.188-3 2.5-7.125 3.625-2 .5 7v6.125l-3.5 3.5-13.313 2.093-3.594 1.5-2.5 1.5-3.594 3-5.124 1.094-5.094 2-4.094.5-1 2.5v6.594l.5 10.094v19.718l-.5 6-.5 6.594.594 7v6.094l-.5 6.094-1.5 5-1 6.625.5 2-1 2-.594 1.5.594 3.093v2.5l-1 3-1.594 1.5-1 1-1.5 3.594v6l1.5 2.5 1.094.594 1-.594 1.5-1h2.094l2 1.594 2.624 2.5 1.5 2.5 1 2 1.594 5.594 1 5v3.5l1.594 5.625.5 6.593v4.5l-.5 4.5v10.594l.5 2.094-1 2-.5 3 .5 2.5v4.094l-1 2.5-1.5 2.5-.5 1-.5 3.125.5 1.5 2 2 2.594 2 1 2.5 1.594 2.593 1 2 2.124 2 1.5 2 1.5 2.5v1.5l1.594.594 2 2 .5 2 1.594 1.5 2 .5 1.094 4 1.5 3.594 2.094 2.5v3.5l-.5 3.094-1.094 2 1.094 2 1.5 1 1 1.5.5 2.5-1 2.625v4l-.5 2 2.125 2 2 1.593 1.093 3.5 3 5v2.594l.594 1.5 1 1.5 1 1-.5 3.5.5 2v2.594l-1 3-1.5 1-.5 2 1 1.5.5 2.094.5 3.5-.5 2-1 1-1.5.5-1.594.5.094 2 1 3.125 1 3 1.594 4 .5 2.093 2 2 1.594 3 1 3 1 3.094.5 2-.5 3-.5 2v4.594l-.5 3-1 2-1.5 1.5v1.5l.5 2.594 1.5 2 .625 1 1 3 .5 2.5-.5 1.625-1 3 .5 2 1 1 2.593.5 1 .5.5.5 1.094 1 .5 2.593 2 3 3.094 4 2.594 3 3.625 3.594 2 1.5 1.593 2.5 1.5 3 2.094 4.594.5 2.5 1 2 2.094 2 2 2 2.594 2.094 4.625 3 2 2 1.093 4 .5 4.125.5 2.5 1.5 1 2.094 1 2.594 1 1.5 1 .5 1.5-.5 2.593 2 .5 2.094-.5 1.5 1.5 6.718-1.5 6.094 3 3.094 3 2.594 4.5 1.5 3.094 2.125 1.5 1 2 .5 3.5 2.093.5 2 .5 1 .5 2.094.5 2 1.5 3.094 3.094 2.094 3 1.5 3 1.625 2.5 4.093 2.594 4.594 4.5 3.594 3 2 3.125 1.094 4 24 1.5 45 3.593 8.718.594 9.282.313.5.094 24.125.78 55.687 2.407h7.188l10.218.5 21.594.5 1.906.094 62.094 2.313 53.594 2.312 25.719.781 11.093.313H617l62.906 2.5 10.907.406 23.875 1 26.125-3.625 87.187 3.125 49.094 1.688 41.312 1.406 47.782 1.187 4.406.22 9.5.5 1.219-.126h.593l48.782-1.187 11.812-.313 26.813-.687 13.593-.594 2.282-.094 24.312-1.406 35-2.22 53.813 6 16.875 1.907 1.312.094 14.594.219 16.312.187 93.5 1 141.188 1.907 14.906.094 27.813.218 33.281.5 31.719.282 2.875.094 14-.188 48.125-.812 142.187-.094 3.094.312 32.219.594 16.875.406 15.406.281 18.812.407 30.282.5 16.406.218 1.406.094 13.906.5 14.407.5h1.375l18.906.782 15 .406 7.594.219 111.625 4.375 36.875 1.406L2189 4796.5h1.094l2.594.094 55.312 1.313 107.406 2.28 11.782.407 4.718.406 8.5.594 22.188.219 9.094.281 112 2.312 21.718.094 88.5.188h6.5l2.188.125 14.219.094H2659l14.688.188 41.625.406 14.281.094 8 .094h89.094l1.218.125 86.594 4.594 16.094-.22 25.094-.187 57.312-.406 242-1.594 48.906-.312 35.282-.281 48.906-.407 111.812-1.187 13.5-.219h5.688l67.312-1.187 79.282-1 7.906-.095 8.406-.125 33.813-.687h6.875l21.5-.094 115.125-2.406h.593l28.688-.313h10.594l16.406.125h2.719l22.5.094 107.281-.718 64.219-.094 41.187-.094h1.094l2-.5 5.406.187h1.188l114.125-3.187 26.875-.688 148.812-4 80.406-2.406 116.188-1.719 108.719-2.281 3.375-.094 149.812-5.813 134.813-5.094 65.375-2.593 30.812-1.219 64.906-2.688 16.907-.718 15.28-.594 33.313-1.406 16.407-.688 47-2.094L5366 4760l19.406-.687 76.688-3.407 80.812-3.218 18.5-.782 27.5-1.218h.594l47.5-2 5.688-.282 32.218-1.312 15.407-.688 28.5-1.218 3.687-.188 44.5-2.094 23.406-1.093 21.594-.907 11.594-.593 74.094-2.813 94.312-4.312 46.094-2.688 166.219-9.312h.5l-.125-.688-2.375-49.5-.5-9.594-.313-7-3.687-80.718-.72-16.188-6.905-148.812-2.282-51.5-1.218-22.688-1.875-36.812-.813-16.594-1-19.688-.687-13.718-.407-9.5-3.312-75.688-3.281-67.687-3.125-70.719-.688-12.594z" style="fill:#9faec0"/></svg>