<svg xmlns="http://www.w3.org/2000/svg" width="4950.313" height="2839.719"><path stroke="#9FAEC0" stroke-width="10" d="m700.75 0-3.25 2.219-9.687 3.594-6.72 2.5L673 12.436l-5.094 5-8.718 6.594-7.188 5-7.094 3.594-4.593 2.5-9.72 3.594-5.093 2-4.094-1-5.718-2.5h-7.094l-4.594 3-7.187 6.093-5.625 4-7.094 3.126-6.188 2-9.218 2-7.094 3.593-4.094 3.5-4.094 4.094-8.718 4-10.188 4.594-8.687 5-6.625 4.594-6.188 4.5-6.594 5.624-6.718 4.5-8.094 5.594-3.594 3.5-4.594 3.094-13.312 5-7.688 4.094-4 2.5-6.218 2.5-2.5 1.5-3.094.5-2.594-1-2.5-1-5.594.5-.593 2.094-1.5 3.5-4.625 3-9.688 4.625-4.094 2.5-5.093 3.593-8.72 3-8.187 4-5.093 2.094-4.625 1.5-5.094 1-3.094-2.5.5-5.094 2.094-2 3-1 2.093-3 1.5-2.594 1-4 .5-3.5 4.125-1 2.094-1.625 2.5-5 2.594-2 3.594-1 6.593-.093h5.125l3.594-.5 3.094-.5 3-.5.5-2.5 1.094-2.5 1.5-2 2.593-1.594 2 2.094 3.125 2 4.594-.5 1.5-1.094v-2.5l-1-3 .5-3.5.5-4.094-3.093-1.5-5.125 1-8.188-1-2.5-2.5-3.594 1-5.093 4.094-4.125 4-3.594 3.5-6.094-.5-5.094 1.594-4.593 1.5-1.125 2.5-1 6.094-5.094 10.125-3.5 5.5-6.188 9.093-3 5.594-2.093 5-2 4.594-2.625 3.5-7.594 3.5-14.282 9.594-13.312 6.625-10.812 3.593-13.282 5-12.218 9.594-11.782 7.594-14.312 8.594-15.282 7.125-12.812 5.5-15.812 6.593-10.782 4-22 4.594-2.5 1-11.312 7.594-4.594 3-15.312 4.594-9.188 3-8.187 4.125-6.125 5-13.282 5.093-10.312 4.5-10.688 2-20.812 10.407L71 399.03l-1 42.907-.875 32.687h4503.469l-.688-.687-1.594-1-2.5-1-2.125-1.5-1.687-.907-.688-.5-1.218-1.093-1.5-1.625-1.282-2.188-.812-2.5.094-2.812-.188-4v-4l-.5-1.782-.094-2-1.125-1.5-2.093-.906-3.094-.906-3.406-.406-2.688-.5-2.406-.594-2.813-1.281-2.28-2.125-1.407-.782-1-.5-1.813-.5-.375-.218-3.406.906-2.094.406-.718.094-3.282.594-2.812-.375-2.594-1-2.219-2.22-1.875-3.28-1.125-4.313-.094-2.594-.406-2.219-.375-3.093-1.406-2.094-1.594-1h-2l-1.812.813-1.907 1.593-.78 1.781-1.126 2.5-1.781 2.313-2.094.906-3-1-1.5-1.5-2.125-1.594-3.094-1.406-4.78-1.219-2.407.125-.5.094-2.219.5-1.875.406-.5.188-2.625 2-1.875 3-2.625 2.094-1.5 1.093-2 1.125-2.094-.406-2.593-1.5-1.5-1.312-1-1-1.594-1-1.594-1.094-4.125.187-1.687.22-1.907.405-3 .875-2.5.5-3.187.313-1.406-.688-1.907-2.218-.78-1.594-.313-2.813.5-2.187 1-1.594 1.093-1.719.22-2.187-.407-1.906-.594-2-1-3.5-1.125-2.188-1.5-.812-2.687-1.688-.407-.219-2.5-2.093-1.28-2.5-.126-3.094 1-2 1.406-2.094 1-3 .407-2v-3l-.188-2.906-.5-2.688-1.625-3-1.875-3-1.5-3-1.125-4.5-.5-4v-2.625l-1.594-4-.906-3.093-.875-2.282-2.312-2.625-3.594-3.78-3.094-3.407-2.125-2.406-.594-1.094-.406-.906-1.187-1.094-1.5.094-1.594.406-1.906 1.187-2 1.5-1.5 1-2.594.72-.5-.313-1.594-.688-2-.594-1.5-1.5-2.125-3.625-1.5-2.093-1.594-2.407-3.906-5.687-4.781-3.813-3.094-1.5-1.625-1-2-.78-1.187-1.407-1-1.5-.688-1.406-.406-1.688.687-2.219.5-1.093.5-1 .72-2-.22-2.5-.593-2.5-.5-3.407-2.094-2.875-1.594-2-3.125-2.5-5.187-2.312-106.688 3.187-95.312 2.813-2.594.094h-1.094l-131.312 3.406-72.594 1.812L3731 295.125h-8.688l-25 .5-195.406 3.906-69.094.094h-72.219l-7.187.094-28.594-.094h-42.5l-206.219 1.812-10.78.282-16.22.218-29.78.5-122.813 2.594-52.5 1.406-217.688.375-141 1.907-65.219.812-12.187.188-40 .093-97.219.219-80.875.094-23.219-.188L1989 308.312h-14.813l-53.094-.093-12.78-.407-31.72.219-115.28-.5-120.22-.406-93.093-.5-10.813-.094-139.687-1.719-18-.187h-20.907l-7.687-.094-16.906-.312-53.313-.782-72.094-.812-91.687-1-216.5-3.594L827 296.437l-125.313-3 .406-24.718.5-30.282 2.907-153L708 0z" style="fill:#9faec0" transform="translate(0 125)"/><path stroke="#9FAEC0" stroke-width="10" d="m69.125 474.625-2.219 81.906-1.312 43.282-1.5 49-4.906 144.218-.376 7.094v2.906l-.406 16.907-.219 11.375L58 841.438 54.906 949.25h4860.5l-.094-.125-3.5-4.094-1.906-2.718-1-2.594-1.594-2.907-1.812-1.28-2.594-1.907-3.5-1.094-2.594-.5-3.625-1-2.5-1.406-2.187-1.812-1.5-2.282-1.5-4.5-1.188-3.093.094-1 .282-2.22.218-2.5.5-2.28 1-3.625 1-7-1.218-2.782-1.594-1.312-2.5-.594-1.907.188-2.187 1.906-1.5 1.406-2.406 2.313-2.094 1h-1.5l-4.094.187-3.593-1.094-.626-.218-4.093-1-3.5.625-.5.187-3.094.906-3 1.594-3.094 1.594h-3.593l-2-.407-2.126-1.593-2.187-4.282-1.312-2.718-1.376-2.782-1.624-3-1.094-3-1.594-2.406-2.094-1-3.093.094-3 1.594-2.626 2.5-1.5 1.406-2.374 1.812-2 1.594-1.813 1-1 .5-2.594.188-1.5-.407-3.312-1.093-2.281-2-3.22-2.282-.28-.312-3.813-2.188-5.094-2.5-4.5-.718-2.406-.282-.687-.125-3.125 1.125-3.5 2.094-4.688 2-5.094 2.188-5.406.218-2.312-.906-1.5-1.906-.375-2.594.375-2.5 1.906-2.094 1.5-3-.188-2.718-1.312-2.188-1.688-1.719-.812-.593-.906-.688-2.282-1-3-1.094-.718-.625-2.375-2.28-2.625-4-.5-2.813-1.188-3-1.5-2.5-2.5-1.188-2.187-1.219-2.625-1.375-3.594-2.125-2.906-2.28-3-1.72-3.188-.78-3 .687-3.906 1.812-2.781 2.594-3.22 2-4.093 1.5-5.594.812-7-1.312-4.812-.906-3.094-2.094-2.187-2.313-.625-4 .406-5.093.812-6.594.594-4.094-.187-1-.125-1.5-.375-2.906-1.907-2-2-2h-3.093l-3.125 1-2.5.594-2.594-.5-.5-.594-1-1.406 1-2.282.5-2.312.406-1.313v-2.687l-.594-2.313-1.218-2.875-1.782-2.812-2.093-2.5-4.625-3.094-3.594-1.406-2-1.5-1.594-2-.906-2.594-.188-2.906 1.094-1.594 1.406-1.406.688-.406 1.219-1.688.5-2.594-.813-3-1.5-3.5-2.094-3.5-2.718-3.906-4.094-4.094-2.688-2.218-2.906-1.5-2.5-3.094-1.687-1.094-1.907-4.219-2.812-6.187-1-1.813-2.688-3.78-1.906-2.22-2.187-3.093-2.72-1.688-2.593-1.5-2.812-2.719-3-4.187-1.688-2.188-1-1.218-1.594-2.5-.593-3 .5-1 2-1.594h1.78l2.5.312 1.813-.5 1-1 1.094-2.406-.188-2.5 1.375-1.5 1.625-1.812 2.594 1 1.406.812h2.094l2.5-.594 1.5-2v-2l-1.5-6-1.094-4.125-1.312-5-.813-7.593-1.093-9-.188-3.907-.719-4.687-.687-4-1-2.906-1.813-3.782-.5-.625-1.5-2.5-1.5-1.687v-1.813l.813-2.093 1.312-1.688 1.5-2.594.5-2.5.094-2.312-.218-4.813-2.594-7-.281-.5-2.219-4-2.5-3.687-2.594-3-2.094-2.906-.593-3 1-2.5.5-.188 2-.5 3.187-.719.406-.093.907.218 1.187.188 2.5-.5 2.094-1 1-2-.188-1.406-.593-3.5-1.219-3.282-1.094-3.718-1.094-4.782-.218-5.312.125-4.187v-4.125l-.125-5.782-1-5.812-1.282-5.688-2.312-4.312-2.5-4.188-2.688-2.406-4.593-2.406-4.125-1-3.594-.5-4.094.5-4.594.593-3.5.407-2.593-.907-2.719-2.687-1-2.812-.594-3 .094-3.594 1.219-4.5.281-.906.594-1.594 1.5-3.094 1.5-2.094 1.5-1.5 1.5-1.094 2.5-.906 2.125-.406.375-.094h2.125l.5-.093 2-.313.5-.406 1.5-1.594 1.687-1.687.813-2.907.687-2.718.313-1.188.281-2.187-.187-2.125-.5-2-1-1-3.094-1.5-2.625-.5h-4.094l-2 .5-2.094-.094h-.406l-2.594-.906-1.593-.375-1.313-1.313z" style="fill:#9faec0" transform="translate(0 100)"/><path stroke="#9FAEC0" stroke-width="10" d="m54.906 949.25-1.719 59.063-4 139.218-1.874 61.407-.72 24-.093 4.687-.188 7-4.812 164.313-.469 14.937h4543.625l-.25-1.25-1-2-1.594-1.5-2-.5-3.812-1.187-1.594-1-1.812-.72-2-1.687-.407-.406-.687-1.406-1-2.094.906-3 1.688-2.406 1.218-2.281.188-1.125v-4.282l.094-2.812 1.406-1.688 2.5-1.906 3.5-2.594 4.406-3.906 1.407-1.406 3.5-3.406 4-3.594 6.093-2.594 5.094-2.188 4-2.5 3.406-2 2.188-1.312 1.219-.688 5.093-1.5 6.188-2.906 6.594-3.719 1.218-1 4.907-4.093 1.375-.907 1.718-1.093 3.188-2 2-1.594 3-2.688 2.5-1.906 2-2.5 2-1.5 1.594-1.594 1.312-1 .188-2.406v-1.594l.5-2 .5-2.5 1.5-1.625 3-4 .906-2.593 1.719-5.688 1-1.812 1-2.5.875-1.907 1.5-1.78 1.5-.595 1.906-.906 1.219-1.594 1.78-1.906 2.5-2.094 3-1.718 3.095-1.282 2.406-1.5 3.594-1 3.125-1.125.5-.375 2-2.125 4.093-3.593 3.094-4 1.5-2.594 1-2.906v-1.594l-.5-1.5-1.094-.5-2.218.687-1.375.72-.625.405-1.875 1.782-1.407 1.718-2.718 1.782-2.375 2-2 .593-2.22.5-1.593-.28-1-1.407-.5-1.594v-1.219l.5-1 1.5-3.093.313-.907 1.5-3.5 2.28-6.187 2.407-3.094 2.594-3 .406-.5 1-.719 2.5-1.78h.906l1.594-.407 2.5-.188 1.313-.625 2.28-1.375 2.407-2.718 2.5-1.407.688-.593 2.812-2.188 2.094-1.812.906-1.407 1.094-1.593.406-2.094 1.906-1.906.907-1.094 2-1.094 2.093-.594 2.907-1.812 3.593-2.406 4.907-4.282 3.687-3 3.813-4.812 3.375-4.813 1.906-3 2.719-4.78 2.5-6.5 1.375-3.595 1.125-1.812 1-2.594 1.187-1.719 1.813-1.875 1.5-1.406 2.687-2 2.406-3.594 1.594-2.5.313-.906 1.187-2.719.688-1.875.406-2.312.906-2.594.906-3 2.407-5.094 2.375-5.218 2-4.5 1.312-2.688 1.906-3.594 1.407-2.5.687-1 .594-1.5 1.094-3.5.406-2.5-.594-2-.5-.625-.594-1.093-2.093-2.407-1.907-2.5-.5-3 .094-1.5 2.5-3.875.813-2.312.375-3 .906-2.594.5-2.219 1.812-2.687 1.594-2.5 2.5-2.094 1.906-.906 2.907-3.188 1.5-3.906-.125-1.094.406-3.125.406-3 .906-3.593 1.282-2.188.812-2.219.094-2.5 1-3.093 1.5-2.282 1.5-2.718 1.5-3.188 1.594-2.906 1.5-2.5 2-2.594 2.625-2.5.281-.312 2.094-1.407 2.5-2.093 3-2.688 3.906-3.094 5-4.312 4.594-3 1.219-1.594.593-.719.5-.875.5-1.125-.094-2-.593-1.5-1-1.5-.625-1.5v-2.375l.906-1.312 1-1.094 2.094-1 2.406-.5 2-.5h3.812l3.094-.906.813-.313 2-.78 2.687-1.22 2.188-1.593 1.625-1.907 1.281-3.5 1.094-3.5 1.312-3.28 1.688-2.313.718-1.282 2.782-2.312 2.625-1.5 3.593-1.094 3.5-1 1.907-.219 2.687-.28 3.594.5 3.719-.094 2.5-.625 3-1.375 4.093-2.125 4-2 4.188-1.594.812-.406 2.688-1.594 5.312-3.188 3.407-2.593.875-2.5v-2l-1.094-2.5-1.906-2.407-.375-.406-2.125-2.812-2-1.782-2.188-2.5-4.594-5.281z" style="fill:#9faec0" transform="translate(0 75)"/><path stroke="#9FAEC0" stroke-width="10" d="m41.031 1423.875-1.719 56.563-.5 16.593-1.624 51.5-2 63-4.782 135.5-.406 7.906-.906 26.188-.188 5.688-3.25 111.687h4620.219l-.375-2.281-1.094-4.094-1.812-3.312-3.688-3.376-2.718-2.906-3.688-3.406-5.094-5.094-5-5.219-3.218-3.28-1.594-1.595-2.407-2.124-3.593-2.5-5-1.876-6.782-2-.5-.124-6.718-.876-7.188-.5-4.094.594-1.5.406-3 1.594-2.125 1.5-2.593 2.094-2.782 2.187-2.5 2.125-3.906 2.094-4.219.781-4.593-.593-3.594-1.094-3.5-.813-4.188-2.687-4.625-4.5-2.5-5.406v-4l.5-3.282 1-4.812v-1.813l-.094-2.187-1.28-4.813-1.22-5-1.687-4.875-2.219-3-.281-1.406-.594-2.219-.812-1.875-.094-2.5.406-2 1.5-1.125 2.594-1.093 1.5-.282.593-.718.907-1.282 1-3v-2.125l-.407-5.28-.687-4-.625-2.5-1.094-3.595-1.906-2.625-1-1.093-1.594-2-1.5-1-.5-2-.094-2.5.406-2.594.688-1.906 1.312-3.5 1.688-2.094 2.5-3 5.094-5.094 2-2.219 2.312-2.375.906-3.125.407-3-1.219-3.593-1.906-1.407-3.094-.375-4.188-.5-3.906-.625-3.594-1.593-2.312-1.907-1.281-2.28-1.125-4.5.125-1.095.593-4.5 1.282-6.625 1.906-6.093 2.719-6.282 2-3.5 2-2.625 1.5-1.593.187-.594.813-2.094.281-1.812.406-1.594.813-2.188 1.5-2.406.5-2.594-1-3-1.625-2.5-1.282-1.718-3.812-3.782-1.5-1.218-1.688-1.688-1.406-2.219-1.094-3.28.407-1.72 1.093-2 3.094-2.875 4.5-3.218 3-1.188 2.688-1.812 1.906-3.188 1.5-3 .812-2.594.407-3.125.5-2 .875-1.78 1.5-2 2.125-1.5 2.593-.5.407-.095h2.5l3.687.375 3.594.625 3.594 1 3.218.781.407.22 3.593.874 2.5.5 2.094-.375h.5l1-.625.406-.594 1.094-1.406 1.688-2.281 1.406-2.813 1.312-2.906 1.907-2.187 1.5-2 2.375-2 3.218-.813 2.907-1.781 1.593-1.5 3.282-4 2.406-4.094 1.406-3.625.5-2.094 1-2.906 1-2.375.406-.5 4.188-4.219 1.719-1.406 2-2.5.781-2.187 1-3.5v-4.594l-.281-1.406-.719-3-2.094-2.594-2.094-2.313-2.093-1.906-1.719-2.5-1.094-2.5-.187-2.5 1-3 1.5-2.094 1.5-.78 3-.907 3.093-.594 3.094-.125 2.594.906 1.219.22.875.374 2.5.719 2.125-.219 2-.5 1.687-1.781.906-1.813.782-2.5 1.312-3.187 1.406-1.813 2.188-2.5.812-2.093 1-3-.218-3.813-1.5-4.594-2.375-4.906-4.219-4.781-2.5-4.219-2.594-3.375-.406-.406-1.688-2.5-2.218-3.5-1-2.813-1.188-3-.312-3.28-1.094-3.5-1.094-3.72-1-3-1.312-2.5-2.188-2.906-2.094-2-2-.781-2.218-1.313-2.094-2.093-1.906-2.313-3.188-5-5.094-8.5-4-7.875-2.718-3.406-1.094-2-3.281-5.906-1.125-2.5-.594-2.5-.094-2-.344-1.75z" style="fill:#9faec0" transform="translate(0 50)"/><path stroke="#9FAEC0" stroke-width="10" d="m25.656 1898.5-1.844 64.125-.406 11.594-2.406 76-3.5 125.5-4.406 140.312-1.719 57.094h4838.031l.282-.187 2.5-2.22 1.812-2.593.906-3.5.5-4.594 1.5-4 .907-3.812 1.78-3.406 1.813-2.688 2.094-2 2.5-1.094 3.094-1.093 3.593-.22 3.625.907 4.688 1.688.406.218 4.781 2.188 2.907.812 2.718.407.594.187 2.594-.094 2.312-.594 2.094-1 2.094-1.812.406-.313 2.094-2 2.5-2 2.406-2.5 3-2.094 3.281-1.5.625-.28 2.375-1 4.22-.626 3.78-.187 2.813-.094 2.594-1 3.5-2.5 3.593-3 4-3.594 3.907-4.219 1.906-4.594.406-.812 1.406-3.781-.5-6.313-1.906-4.594-2.719-4.406-3.5-4.187-3.187-2.407-.594-.593-2.312-2.094-1.688-2-.906-.406-3.688-1.407-2.125-.906-2.093-1.406-2.594-2.094-2.094-1.781-1.594-2.5-.812-1.812-1.188-3.094-.406-2.5-1.094-2.5-2.218-2.907-2-3.5-1.5-3.5-1.594-3-2-3.5-2.188-2.812-1-1.094-2-1.594-3.625-3.187-2.593-1.313-5.094-4-4.688-2.687-.5-.313-4.218-2.5-3.688-2-4.594-2-4.406-1.687-3.594-1.719-6.218-3.906-6.282-3.281-1.906-.813-1.812-1.594-.282-.312-1.312-1.594-1.813-3-2.593-4-2.188-3.281-1.312-3.813-2-3.687-1.782-4.219-1.718-5.187-2.407-5.907-2.093-4.5-4.282-6.906-1.406-1.687-2.406-2.719-3.406-4.094-4.5-5.094-4.282-5.187-2.406-1.406-2.094-1.407-2.5-2-2-.687-3.218-1.406-2-.407-2.594-.5-3.094-.5-3.594-1-3.125-1.687-.5-.219-2.5-2.187-3.375-2.813-6.406-6.781-2.219-2.406-2.093-2.407-3-3.406-3.5-3.5-2.188-3.406-1.094-3.5-1.5-7-1.125-7.688-2.375-9.312-3.312-9.375-2.406-5-2.407-4.813-1.875-3.687-1.812-3.406-1.813-2.719-1.5-2.594-2.187-2.281-.406-.313-2.594-1.812-2.906-1.594-1.782-.781-3.718-1.813-.907-.406-1.187-.594-2.094-.906-3.312-1.906-3.594-1-2.094-.281h-.812l-2.282.406-2.5.594-2.406.906-5.5 2.687-4.406 1.5-2.594 1-4.093 1-2.5.094-3.126-1-3.593-1.593-3.094-2.407-2.094-1.406-2.406-2.187-2.687-1.907-3.126-1.5-2-.5-2.593-2-2.188-1.406-.906-2.094-1.094-3-.906-4.687-1.188-5-.125-1.5-.187-.5-.906-3-1.407-3.406-1.5-3-1.187-3.813-.594-3.687-.312-2v-1.594l.5-3v-3l.906-3.594.906-3 .688-3.625 1.5-8 .406-2.5.906-4.5.094-3.594-.594-6-.312-9.093-.781-9-.313-2.594-.5-2.094-.594-3.5-.312-6 .094-.906.313-4.219-.094-1.875-.094-2.625.28-5-.218-1.312z" style="fill:#9faec0" transform="translate(0 25)"/><path stroke="#9FAEC0" stroke-width="10" d="m11.375 2373.125-.062 2.5-3.312 98.406-2.094 61.782-.813 37.718-4.687 195L0 2805.22l79.5 2.219 199.906 5.187 237 5.406 50.687.907 80.406 2 198.594 4.593 45.094.907 73.906.78 1 .095 1-.094 58 .906 240.5 3.094 108.219.719 53.281.375 36.406.218 40 .094 236.407 3.313 90.187.5 32.906.094 114.813.094h93.875l139.406-.312 228.219 2.625 175.375.593h6.625l57.5.188 152.188-.594 80.593-.406 104-1.188 3.094-.094 133.813-2.312 44.093-.813 75.594-1.375 112.125-1.812 10.281-.594 125.594-1.094 106.625-2.312 39.5-1.188 5.094.375 9.187-.781 72.907-1.813 106.593-2.687 194.813-4.719 13.093-.281 1.813-8.813 3-9.28 4.188-9.626 4.812-9.094 6.188-10.593 8.093-11 9.219-10.813 2.375-2.281 5.313-5.313 10.093-9 10.719-9.5 12.875-9.406 9.625-5.094 16.188-8 .5-.187 13.187-5.219 13.813-4.375 14.812-3.5 1.5-.406 15.875-2.406 14.813-1.094 11.687-.313 12.906.22 13.406 1.874 11.813 3 11.875 3.813 14.5 4.406 14 5.781 11.5 5.219 16.5 9.906 7.125 4.094 24-19.313 14.281-12.5 5.406-6.187 6.5-5.313 5-3.406 4-2.5 4.094-2.094 1.406-.593 3.594-1.188 4.094-1.312 5.125-.5 5.094-.188 6.187.281 8.407 1.313 8.093 1.094 5.719-.688 5.188-.812 4.906-1.188 5.594-1.719 6.093-2 6-1.5 6-1.593 10.219-4.094 9.281-4.406 6.094-4.094 1.125-.813 5.5-4.906 6.094-6.094 1.406-2.28.688-.626 1.687-1.187.813-.5 1.812-1.5 2.781-1.188.907-.125 1.812-.375 3.594-.312 6 .406h6.687l5.813-.406 4.406-1.188 2.688-.812.406-.094 3.187-2.5 3.313-3.594.687-.625 2.313-3.5 2.406-4.094 1.375-3.594.813-4.5.312-1.687.281-3.313v-4.5l-.593-3-1-3.093-1.5-4-1.094-3-1-4.5-1.094-4.594-.5-4.5-.5-4-.625-4.406.5-4 .406-2.813 1.094-3.406 1.125-2.5 2.5-3.094 3.094-3.406.906-.875 1.594-1.313 4.594-3.5 6.687-4.687 6.125-2.406 3.5-1.5 6.594-2.22 6.594-2.28 5.593-3 3.907-3.407 3.5-3.312 3-3.688 2.812-3.406 1-2.094.5-1 1.375-3 1.406-3.093.907-3.594 2.093-3.5 1-2.5 2.719-2.813 1.875-2.312 3.125-2 3.5-2.094 8.188-3 5.5-2 5.187-2.781 1.906-1.313 2.813-2.093 3.594-2.907.406-.312 3.594-2.875 3.093-3 .813-1.219 2.187-2.906 4.094-5.094 2-2.5 3-2.5 3.5-3.094 2.219-2 1.281-1.187 5-3.219 6.313-3.406 10.187-7.281 8-5.813 3.906-2.5 4.094-1h1.219l2.906-.094 5.688-.594 3-.406 3.093-1.094 3.094-1 3.625-1 3-1.093 2.594-1.313 4.094-1.594 4.593-1.718 3.719-1.594 3.094-1.594 3.094-1.406 2.906-1.5 3-1.5 1.5-1.594 1.906-2.094 1.375-2.218 1.313-2.188 1.812-2.187 2-2 2.281-1.907 3.594-2 2.719-1.906z" style="fill:#9faec0"/></svg>