<svg xmlns="http://www.w3.org/2000/svg" width="6416" height="9720"><path stroke="#9FAEC0" stroke-width="10" d="m4233 0-388 6-594 22-317 11-184 7-906 34-1075 37 6 556 2 236 4 213 4.188 239.031h3431.218L4220 848l7-469zm346 1341-94.437 20.031h98.374z" style="fill:#9faec0" transform="translate(0 125)"/><path stroke="#9FAEC0" stroke-width="10" d="M785.188 1361.031 801 2266l11.781 482.344h3368.094L4172 2709l-10-75 5-56 36-35 5-30-16-26-25-35-36-15-31-30-15-45-52-126 16-21 51 26 30-6 41-141 21-55 25-41v-40l10-46 5-40 46-86 51 56-5 65-5 81-35 86-56 111-41 86-15 70 10 15 82 86 36 91 26 90 20 76-17.094 49.344h511.313L4755 2700l-66-38-10-20-16-30-10-30-10-36-26-30-25-30-16-20-10-30v-106l-16-41-15-50 5-40v-36l25-40 16-25 15-31v-25l-11-25-10-40 5-20 26-76 15-46 5-40-5-40-16-76-10-60-21-101-5-56 10-40 10-30-6.062-30.969h-98.376L4216 1418l.406-56.969z" style="fill:#9faec0" transform="translate(0 100)"/><path stroke="#9FAEC0" stroke-width="10" d="M812.781 2748.344 826 3290l6 323 9.594 522.687h3162.562L3996 4086l-5-35v-30l10-66-56-20-36-15-26-15-20-35-31 10-26 5-46 30-36 5-30-25v-50l-1-61-10-126 102 35 103 10 138 5-5-55 20-16 16 66 56 25 26-25 30 30-25 86 31 40 61 55 41-5 26-80-11-56 10-50 41-51 26-45-5-81 4-71-5-25-5-35 143-51-5-25h-138l-51-20-36-30-31-45 15-66-5-50-5-41 46-40-10-20-47-10-15-35v-46l-31-50 5-15 5-36-10-55-7.125-31.656zm3516.125 0L4311 2800l25 35 41 15 26 66v80l57-10 20 50 36 41 41 60 16 66v35l20 30 36 10 36-5 51 5 46 20 46 35 26 46 16 85 20 10 20-25 5-60 16-41 41-45-21-91-67-75-97-76-41-81 5-45 5-50 10-51h51l41 50-36 66 21 61 41 50 41 15 26 10 20-5 10-81 26-35 41-31 36 91 10 56-15 40v50l-5 61v45l-15 41-36 70-15 31-26 60-15 46v75l10 56-5 50-25 35-56 56-21 45 1 71v91l5 40 15 10 11 20h46l15-50 15-36 56-116 62 10 30 66 52 50 10 91 36 45 51-15 10-76 26-30-5-45 30-41 72-40 31-26 10-75-47-116-77-111-41-86 5-40v-35l31-15 41 105 46 71 21 10 71-30 15-71 16-56v-41l-283-402-190-109-196.781-111.656zM5751 3779l-20 92-36 60-15 121-10 51-8.906 32.687h632.312L6310 4065l-11-80-363-95 5-30-164-40zm-1151 150-51 5-21 50 31 96 5 35-25.187 20.687H4641V4085l10-45-31-86zm937 144-49.594 62.687h75.063L5562 4083zm-451 51-25.594 11.687h52.469z" style="fill:#9faec0" transform="translate(0 75)"/><path stroke="#9FAEC0" stroke-width="10" d="M841.594 4135.687 843 4213v15l-10 439-4 171v166l-21.781 519.031h3124.594L3927 5448l-57-207 21-25-16-5-25 5-10-35v-21l15-25-21-30-66-45-16-76-51-20-21-65 26-51 61 30 67-35 107-31 77-25 46-55-16-86-81-5-21-45 46-46 61-40-31-71-76-30 25-30h67l-6-66-10-35-20-56 4-75-1.844-11.313zm3697.219 0L4508 4161l-25 30-11 71 77 80 82 5 31 20 10 76-20 106-35 86v121l10 85 62 30 66-40 97-121 76-222-15-81-26-35-56-50-164-96-26-50v-40.313zm521.593 0L5040 4145l-15 25-5 50 41 25 36 5 20-25 5-20 11-10-1-36v-15l-19.125-8.313zm427 0L5465 4164l-158 66-56 50-41 86-51 15-36 41-20 196-67 111-5 21-15 55-51 162-46 70-30 41-46 90-25 101-10 137 5 75-17.312 42.031h695.218L5509 5409l-56-50-1-162-15-80 5-116 15-86-83-141 36-192 5-121 87-30 46-10 20-20 15-56v-91l-20-60-.531-58.313zm173.688 0L5655 4158l-16 71 6 55-10 81v25l10 106v66l26 40 20 30 16 30v36l-10 20-21 20-20 40-25 61 20 20 5 20 5 51 1 25 10 106-15 35-57-20-30 10 25 56v65l1 40 82 46 20 35-30 76-5 35 25 60-5.219 24.031h709.344L6311 4706l-46-56-26-45-10-35-5-46 5-45 5-35 5-36 10-25 15-25 15-20 16-31v-50l-11-25-5-35 14.406-61.313zM4320 4953l-46 25-61 141-25 187-51 192 8.094 25.031h241.75L4383 5321l45-111-5-56-5-50-5-71-41-70zm380 549-4.844 21.031h69.344z" style="fill:#9faec0" transform="translate(0 50)"/><path stroke="#9FAEC0" stroke-width="10" d="M807.219 5523.031 774 6314l-13 358-21 32-149-46-25 11-26 20-20 15-62 40-20 10-20 11-16 10-10 20-11 25-6 20 5 25v31l1.156 14.375H3109.22L3126 6861l15-66 26-65v-56l77-10 5 55-5 66 25 35 11 20v30l-10 26 3.594 14.375h270.5L3572 6860l46-66 20-75-21-106v-81l10-30 21-25 87-51 56-15 20-86 36-50-36-101 10-66 20-20h62l10-101-31-70v-182l56-116-6.187-95.969zm3337.875 0L4189 5659l51 70-20 51-5 40 30 45-56 11-97-25-21 45 32 202-5 70-31 76-10 45 26 46 51-46 25-40 5-81h41l15-40 5-46 11-25 10-40 51 10 97-11 31-50-57-121 5-55 31-46 30-50v-26l-51-35-10-25 15-25-1.156-59.969zm550.062 0L4685 5567l36 30-10 51v30l10 20-5 61v105l26 66 16 75-77 41-41 35-31 5-20-10-11-80-66 86-56 50-67 51-10 50 31 35 10 56 31 30 46-35 36-21 46 25 46-20 61-45 36-31 87 66 36 15 36-121 51-56v-106l15-85 102-21 31 45 56 10 26-35v-35l51-15 87 35 31 30 15 15 5 15 6 10-11 25-10 51 36 5 36-91 15-35-36-51-26-50 26-81 20-70 56-76 26-86 1.906-11.969h-695.218L4792 5532l-27.5-8.969zm987.625 0L5678 5545l10 30 42 40 10 20-21 46-35 45 10 56 31 35 36 60 36 46 26 110-16 91-25 71-25 75 35 15 36-20 36-30 36-15 56-5 36-26v-45l25-35 31-36h26l25-30 56-15 46-31 36-40 5-56 10-45 51-25 31-16 36-5 46-6-5-55-16-197-2.875-28.969z" style="fill:#9faec0" transform="translate(0 25)"/><path stroke="#9FAEC0" stroke-width="10" d="M381.156 6910.375 382 6921v30l18 31 18 19 10 21 11 30 10 30-5 61-10 60-11 45-10 26-5 35 11 35 10 46 22 44 14 31 10 30v31l-10 35-21 25-35 25-62 45-41 30v31l-20 66-15 5-46 61-103 5-82 5-30 20-10 56 15 15 20 10 72-36 72-20h36l10 60 31-10 112-85 149-61 220-46 87-15 76-20 36-16h31l31 5 30-15 93 15 122-25h72l77-11 77-20 107-91 205-71 169-66 35-15 52-20 112-51 56-30 108-20h102l36-21h15l16-5 10-5 41-5 51-15 36-20 31-11 15-5 56-10 67-10h31l71 10 16-5 41-10 56-21 51-5 5-55-10-46 10-30 31-30-1-30 19.219-56.625zm2892.438 0L3280 6936l-5 35-21 20-10 16-20 20-36 20-31 35-20 16-10 30 5 35 31 15 56 30 51 25 26 36 31 40 56 15 15-35-20-86 20-50 20-61 51-76 67-91 8.094-14.625zM2587 8762l-36 5 26 191-5 66-31 50-20 21 72 100 21 66-67 40-72-55-36-56-20 21-41 60-66 51-26 151v141l-10 40 46 66 67-15 118-51 77-15 92-6 82-10 81-40 26-36-77-130-62-121-5-96 36-156-11-182z" style="fill:#9faec0"/></svg>