<svg xmlns="http://www.w3.org/2000/svg" width="6226.313" height="3831.719"><path stroke="#9FAEC0" stroke-width="10" d="M5947.187 0 5772 7.812l-148.687 7.594-14.907.688-2.312.094L5428 23.094l-97.906 4-15.188.594L5233.188 31l-94.782 3.906-116.218 4.188-172.5 6.313-18.782.094-6.093.187-119.72 3.625-16.187.594-125.812 3.594-5.094.187L4268.813 59h-.5l-213.126 2.188h-2.593L3497.5 66.5h-13.688l-80.218.688-29.407.219-93.28.594-5.095.093-350.125.407-41.593-.5-40.594.094-308.594-.407-29.906-.094-63.906-.187-709.907-9.406h-.5l-327.78-6.188-17.22-.406-80.187-2-3.5-.094-12.188-.406-13.718-.5-19.282-.5-46.718-1.094-114.594-2.906-95.906-2.594-41.094-1.219-812.813-29.187-1.593 41.594-1.188 29.406-1.719 43.781-1.28 34.125-.72 16.281-.875 24-3.718 100-.594 13.094-.188 6.813-.406 8.593-.594 15.813-.906 21.281-2.5 56.406-.812 18.313-7.157 183.781h5895.47l-4.813-1.781-4.094-1.594-5.5-2.125-5.594-1.781-5.719-1.719-8.093-2.5-3-1.594-6.407-3.5-5.875-3.187-6.406-3.5-6.312-3.5-4.094-2.219-5.313-4.094-6.5-5h-2.5l-5.093-.187-18.188.781-3.094.219-6.218-.219-6.594-.187-9.5-.188-2.094-.812-2-1-11.594-10.094-3.625-4.406-3-3.688-7.187-8.125-17.5-22.187-.5-.594-2.813-5.406-3.687-7.907-3.094-6.781-4.094-6.5-3.906-16.125-1.094-3-1-2.594-7.812-14.687-1.094-2-7.594-10.5-2-2.219-7.5-8.687-6-7.407-6.812-8.093-3.406-4.188-8.282-9.906-8.312-9.094-3.813-4.219-6-7.5-1.687-1.906-4.688-6.687-3.312-5.594-4.094-4.594-1.5-4.5-.094-3.125.5-5 .375-5.687 2.5-17.907.125-.687 2.875-6.594 1.125-2.125 4.375-6.781 4.5-7.719 3.125-2.094 4.781-3.281 2.313-1.625 2.5-1.594 7.687-4.406 6.907-3.875 1.593-.906 9.5-6.406 8.813-9.688 4.781-5.312.625-.688 4.375-5.5 3.313-4.125 1-1.187 3-2.813 2.812-2.687 4.688-5 2.312-2.407 4.188-2.281 5.406-3 7.687-4.406 5.907-3.313 5-3 7.593-4.906 2.907-1.687 9.812-6.813 4-4.594 5.281-8.187L5887.5 210l1.5-3 1.187-3.407.813-1.906 1.812-5.594.781-3 1.22-4.093 2.687-6.313 1.312-2.875.875-2.812 1.5-4.907 5.125-4.593 2.094-2.907 1.687-2.281 5.22-4.719 2-1.906 2.687-3.375 2.812-3.812.375-.5 4.813-7.907 3.093-5.281 1.094-1.812 2.125-4.907 3-5.687.5-.813.375-.906.719-2.281.5-2.5.906-6.219 1.094-7.375 1.281-8.5-.094-4.906V84l.719-7.813.094-2.281 1.594-13L5946.312 42l.5-7.313.094-.781-.719-4.813-.187-2.281-.094-2.219-.719-5.593v-5.594l-.094-6.094.219-3.125z" style="fill:#9faec0" transform="translate(0 125)"/><path stroke="#9FAEC0" stroke-width="10" d="m121.437 624.187-5.53 142-2 55.125-1.313 34.594-.282 6.406-.312 9.282-.594 14.218-4.312 106.688-2.782 68.406-13.718-.594-.782 18.782-7.718 186.625h6013.593l-.78-15.125-9.72-192.282-14.78-293.406-.595-12.906-1.218-14.688-.094-1.625v-.187l-.188-12-.219-15.406L6068 704l-.094-4.906-1.718-5.782-3.782-4.406-.406-.5-2.312-2.312-4.282-3.907-2.593-6.5.187-2.875-.812-2.718-2.5-6.188-.688-1.812-1.406-3.5-1.781-4-1.907-4.282-3.812-5-2.906-3.812-6.094-7.813-2.781-2.375-3-2.406-3.407-2.812-5-1.907z" style="fill:#9faec0" transform="translate(0 100)"/><path stroke="#9FAEC0" stroke-width="10" d="M82.094 1265.719 71 1534.5l-1.406 36.094-2.782 72.312-10.75 264.313H6127.72L6109.5 1540.5l-4.688-93.813v-1.5l-.125-1.593-9-177.875z" style="fill:#9faec0" transform="translate(0 75)"/><path stroke="#9FAEC0" stroke-width="10" d="m56.062 1907.219-2.468 60.687-1.282 32.906-.406 8.594v2.781l-.312 5.313-1.188 28.406L50 2056l-.313 7.094-3.78 88.593-.72 16.22-.187 5.28-3 74.72-.594 15.78-1.312 30.813-.594 16.188-1.094 22-.094 2.312-2.219 55.188-1.5 38.124-.593 11-1 21.376-.594 14-.5 13.218-1.906 46.5-.531 14.313h6130.53l-12.093-237.407h.594l-.094-1.5-19.813-385-.875-17.593z" style="fill:#9faec0" transform="translate(0 50)"/><path stroke="#9FAEC0" stroke-width="10" d="M29.469 2548.719 29 2561.906l-3.406 80.406-.282 7.5-2.718 70.782-.782 23.312-.218 6.094-.5 10.594-.688 15.718-1.094 34.876-1.5 36.406-4 102.218-3.812 94.5-.688 16.188-3.625 76.813-2.156 52.906h6165.5l5.875-6.125 5.188 1 5-2.407 5.218-10.5-.625-1.28 3-6.095v-3.5l-1-3.406-2.187-2.406-3.188-1.812.188-3.5.5-2 3.812-2.376 3.782-6.812 3.812-7 3.188-7.687.5-11.126-5.094-11-10.5-8.78-8.094-5.313.5-25.594-2.312-9.312-4.594-9.594-1.094-8 .594-13.094-4.906-10.687-7.594-6-.688.093-9 1.188-6.125 5.406-9.28 1.407-13.407-8-7 .78-5.594-1-5.594 3.126-1.5 1.187-3.125-1.187-2.093-3-2-3.313-1.782-2.906-.812-4.906 1.5-3.5.5-1.875 5.406-2.906 5.781-2.907-2.593-9.093-2.282-1.813-1.906-2.187-1.094-1.313-.406-.5-5.812-1.906-1.282-3.375-5.312-3.125-6.813-1.5-2-4.875 5.22-6-2-3.5 1-9.125-3.72-.5-3-2 5.125-4.094 8.594.906 9.406-.687 10.688.094 9.5-4.719 3.5-12.594-2.188-7.406-2.625-20.875 3.5-9.125v-10.187l-1.687-16.594 4.594-4.406-1.094-4.813.406-15.094-5.094-6.093-7.125.187-4.093-2.094-4.688-3-5.219-2.906-2.78-3.875-2.595-6.812-7.312-3-2.094-4.5-2.094-4 1-3.594-1-3-11.718-1.906-5.688-4.5-4.094-4-.625-9.688 1.72-7 3.093-6.312 5.094-7 .593-9.594-3.187-17.219-7.094-2.875-2.719-2.312-.187-3-.594-1.5 115.688-6.313-.094-10.594-7-137.875z" style="fill:#9faec0" transform="translate(0 25)"/><path stroke="#9FAEC0" stroke-width="10" d="M3.531 3190.219 0 3276.812h.594l28.5 1.282 70.5 3.312 91.906 4.188 18.906.812 15.406.688 31.094 1.406 6.688.313 7.593.28 15.313.72 52.687 2.187 10 .406 5.813.188 2.5.094 51.594 1.906 15.406.5 21.187.812 6.907.094 26.593 1 3 .094 65.22 2.22 47.187 2.093 15.812.687 15.281.594 46.407 2.219h.593l30.72.687 16.28.5 34.125 1.5 17.5.5 44.375 1.407 43.5 1.406h1.407l71.093 1.906 95.5 2.375h2l230 3.125v4.094L1321 3324.5l41.406.906 243.594 5.187 67 1.813 29 .687 173.094 4.22 61.5 1.374 366.812 3.813 388.781 2.687 64.313-.281 226.906-1.313 159.406-1.687v-1l162-.594 282.782-2.625h4.312l93.906-2 228.375-2.094 313.72-7.28 145.28-2.5 119.22-2.313 12.28-.407 19.407-.5 3.594-.094 2 3.688 3.718 6.812 1 1.688 4.094 7 4.688 8 2.312 4.312 2.594 4.5 3.719 7 1.78 3.407 1.407 2.187 3.5 8.5 2.188 2.406 3.5 3.594.5.594 2.718 2.625.907.781 2.593 1.594 4 2.5 1 .5 4.094 2.125 1 .187 5.594.907 1.094.094 2.5.312 3.718-.125 5 .906 4.094.72 4.188.78 3.5 2.094 3.124 1.625 3.688 1.5 2.906 1.188 5.094 3.187 3.688 2.813 3.124 3 3.188 4 .313.5 4.187 6.187 7.688 6 9.812 4.219 8.094 2.906 8.312 3 11.782 3.5v.781l24.812 9 1.594.594 13.594 3.406 2.312.313 5.594.781 1.812.313 2.688 1 4.219 1.5 2.187 1.187 7.406 4.406 6.782 4.094 1.812 1.313 9.188 6.5 2.406 1.406 3.406 1.687 5.313 2.313.78.281 5.813 2.406 6.594 2.407 4.688 1.406.906.187 3.594.907h.624l4 .094 2.094-.188 5-.5 2.594-.406 3-.594 2.188.188-1.688-2.907 16.594 21.907 12.594 6.812 15.624 15.781 22.188 15.125 9.406 15.282 18 6.719 18.188 1.375 17.5-3.688 1.812-1 15.594-3.687 11.813-4.72 9.78-4.5 6.22-4.187 5.187-5.312 8-6.281 4.094-4.907 16.094-23.812 2.812-7.094 4.313-7.406 2.874-10.688.5-6.812 2.22-3.5v-3.906l-1.094-3.094.374-4.406 3.626-3.094 11.687-6.5 14.094-3.781 7.812-.72 2.188.22 6.594 5 6.812 6.78 16.5 18.595 3.406 2.125 4.907 1.187 6.593.5 5.907-1.187 5.78-2.22 4.813-4.187 4.594-5.312 7.094-8.594 5.406-7.812 3.594-1.094h4.812l6.407 1.594 4.28 2.125 7.5 5.375 3 3.125 1 4 1.72 4.875 3.28 4.625 5.595 5.375 3.5 1.812 3.218.5h4.282l3.718-1.187 5.188-3.313 3.219-3.687 5.5-9 2.187-3.5 7.5-12.407 3.594-2.906 5-2.687 7.906-1.313 5.406.594 1.688 1.094 1 2.906.719 4.094-.407 5.812.688 4.094 1.812 3.312 2.094 1.907 3.188 1 4.218.187 5.688-.5 16.812-2.812 16.688-3.188 2.906-2 6.688-5.906 5.312-6.188 2.594-1.906 23-7.594 5.5-1.593 2.719-.313 1.874.5 1.407 2.688v6.5l.406 4.312 1.313 1.313 6-.313 2.874.5 2.72 2.5 3.093 4.188 3.188 1.5 5.218.5 5-1.094 8.688-6.094 3.219-4.906 5.5-5.781 5.374-3.5 4.72-2 5.093.094 5.406 1.093 11.407-.593.374-.094 4.407-2 2.094-3.5.906-2.813 1.5-.906 10-1.906 7.406.906 8.906 2.906 6.688 1.813 8.406-1.22 1.094.407 4.719 3.313 3.5.687 3.593-.094.5.188 9.782 8.718 18.312 3 15.188-4.218 24.624 9.218 2 3.375.594 17 6.907 20.625 8 4.094 23.28 1.688 11.095 3 .5.094 6 1.718.718.282 4.188 1.906.719.594 2.687 2.218 1.5 3.407 1.406 2.375 1.282 9.406.906 3.5.719 2.5 2.5 1.5 3.28.812 3.095.688 4.406 1 4.219 1.312 4.593 1.407 2.5.28 2.688.595 6.594 1.406 1.906.5 10.719 1.312 7.874.782 1.813-.094 3.313-.282 5.093-.812 4.688-.688 5-.906 8.219-.5 3.374.281 1.22.22 4.593-.22 5.094 1 2.594.5 4.124-.094 2.5-1 1.594-.594 3 .5 3.907-1.093 3.28.406 4.095.375 1.812.312 7.688 3.907 3.5 3.187.718.719 2.907 4.375 2.187 3.312.813 3.313.874 2.187-.374 3.407-.313 2.093-1.187 3.688-.5.625-.72 5.781-.405 3.5.124 1 5 3.594 1.876 1 7.718.312 4-1.593 2.782-2.313 5-6.406 1.718-1.188 2.5-1.906 3.188-1.5 4.094-2.094.624-.094 3 .094 11.688.407h2.188l3 .687 7.624 1.813 5.188 1.187 2.094.406 3.406 1 6.313 2 5.593 1.688 4.594 3.219 2.812 1.187 9.594 7.406 6.688 3.5 1 .188 4.593.625 4.125.687 4.094 2 3.594 4.188 3.594 5.312.094 1 .406 4.813v.781l.219 4.5.187 2.219.094 1.281.719 5.219.5 3.875 3.375 2.5.719.625 4 2.687 4 2.813 5.094 1 4.906 1.094h1.687l4.594.094 4.406.094.719-.094 14.781-3.094 2.219-.406 1.375-.313 5-1.093 1.406-.188 3.313-.094H5990l1.812.188H5993l3.093.094h3.594l3.125.094 3 .812 3.594 1.5 3.594.906 4.812 1.594 1 .906 1.094 1.782 6.094 9-.5.812-5.907 11.5-1.593 2.906-1.907 2.188-2.593 3-.5.812-2.407 3.688-2.593 4-1.5 2.719-.188 1.28-1.719 9.595-.687 3.718 3.5 4.282 6.406 8 1 1.125 8.688 6.593 3 3 1.187.688 6.719 4.094 4.406 2.812 2.281 1.688 4.407 3.218 2.812 2.188 4.094 3.094 6 4.718 4.094 4.094 3 2.813 1.187 1 1.813 1.593 3.093 2.594 3.407 2.813 1.906 1.593 1.906 3.407.5.687 1.781 3.188L6083 3772l.312 1 .875 4.094.625 4.312.375 2.594-.094 2.094-.781 4.406-1 3.313-.625 1.78-.188 1.22.094 1.375.094 3.125 2 1.875 3.125 2.906.782.5 4.718 2.594 3.782 2.125 3.218-.22 1.688-.187 2.406-.906 4-1.687 2.906-1.907 1.688-1.218 5.687-4.875.5-.407 4.5-2.812 4.625-2.906 1-.688 2.5-.812 3.094-1 2.406-.782 3.188-.812 1-.188 7.687 1 2 .594 4.22 1.188 3.5 3 4.093 3.5 4.5 6.718 1.094 1.907 2 3.093 3.812 5.282 3.094 4.5 1.906 2.218 2.188 2.282 3.812 4 3.094 1.5 2.344 1.03h11.125l.625-.218 4.718-1.687 2.875-1.22.72-.405 3.905-2.188 5.875-2.187 5.625-2.22-7.5-.905-8.125-2.188-3.593-1.5-2.094-1.812-1-5.782 1-2.5.094-3.812-1.688-3.188-6.093-2h-4.125l-2.594-1.5-1.094-8.593 10.313-5.625 1.78-3.688.095-4.594-1.375-17.593-1.719-8.5-5.906-3-7.5 1.687-3.594-5.094-.094-5 1-3.5 2.406-2.218 3.094.812 3.5-.812.813-3.094.375-1.406-2.5-1L6187 3725l-2.312-2.906-1.375-4.906 2.687-2.594-5.687-2.781-2.125-6.407L6177 3703l-.187-2.5-1.407-5-4.312-8.812-3.281-1.688-3 .688-1.5.812-.407.906-3.312 3.282-1.5.625-3.406-1.22-2.094-2.5v-3l.719-1.5 1.375-1.593 1.406-.5 1.094-.187 4.625-2.813 3-3.594v-5.593l-1-1.813-1.72-1.812-2-1.875-2.593-4-1.687-2.813-1.313-.187-3-1.907-2.687-1.812-2.813-3.406-.812-9-1.282-3.5-4.812-2.594-4.5 1.906-3.281 1.813h-2.5l-.407-9.407-4.812-5.718-2.094-1-6.094.5-2 .125-.593-3.625 1-2 .094-2.375-9.907-8.813-2.593.188-5.594-7.594-2.813-1.906-2.687-.782-2.719 1.282-3-1.5-2.594 1-2.5 1.625-2.093-3.125-4.594-7-2 .718-2.219-1.812-.5-3.906 2-4.594.5-2.5-.5-2-5.094-3-1.593-4.5 1.093-4.094-3.406-4.187-.281-2.813 2.5-4.594.187-2 1.813-9.593 3.781-3 3.313-1.125 2.593-1.875-3.312-3.313-1.094.094-4.281-.5-4.719-3.5-.5-3.5.5-2.406 2.594-3.188 5.5-6.593 4.125-7.594 9.187-4.125 2.407-1.688.094-4.906 9.687-7.5-3.687-7.687 1.5-4 2.812-6.094 2.781-4.125.719-2.781 3.781-3.907-1.093-7.5 1.312-3.093-.625-.5.813-2.594 3.187.781 3.5.813 3.813 7.687 2.093.313 2-1.094-.187-7.906 1.5-1.094.5-.5 1.5.594 2.5-1.72-1.594-7 .094-4 4.094-2.093 2-2 4.093-1.594-.094-2.5-4.593-5-2.094-3v-2l1-2.593-1-3 .594-4 3.406-4.594 4.375-.5.719-3.125-3.72-2.281-.78-3.5 3.187-3.813 7.5-2.594.406-3-2.093-2.5-1.907-.812-1.687-1.875-3.625.187-1-2 1-11.093-.094-1.5-.5-9.094 5.219-9 4.375-8.5 5.5 3.594.218-3.5-.094-6 1.782-4.313 5.812-.781 1.688-1.906-1.782-5.22 1.375-5.374 5.22-6-1.5-2.313-3-9-3.22-2.5-3.28-1-3.907-4.187-.094-8.406 3.594-5.594-.594-3.625 10.5-7.375 4-7.406-.313-7-3.687-8.094-13.813-7.406-.28-4.907 4.093-6.406-1.813-2.906-3.093.219-3.094-.22-2.594-.78 1.781-3.72.813-2.593 6.906-3.594 7.375-3.187 5.5-1.406 7.844-8.188H3.532z" style="fill:#9faec0"/></svg>