<svg xmlns="http://www.w3.org/2000/svg" width="4419.406" height="3522"><path stroke="#9FAEC0" stroke-width="10" d="m890 0-1 .312-2.312 1.313-2.282 1.781-1.218 1.313-1.5 2-.875 1.687-1.22 1.313-2.405 1.187-2.594 1.406-3.5 2.094-3.688 2-4.5 3.594-3.093 5-1.5 3.5-.5 3.125.5 3-.5 2.5-1.125 1.5-2 2-2 2.594-2.094 3-1.281 2.593-1.813 2.407-2 1.5-2.094 1.5-2.718.781-4.375.219h-3.125l-2.094-.5-1.188-1.094-.5-2 .5-2.5 1-2.125 1.5-2 .5-1.5-.593-2-1-2h-2.125L826 40.625l-2.906 1-5.594 1-5.594.094-4.093-.5-5.625 3.094-2.782 1.906-.406.594-2.187 4.406-.5 2-1.5 2.094-3.125 1L791 57l-1.406-.687-1.5-1.594-2.594-.5-2 .5-2.094.688-2.218.718-2.594-.5-1.5.094-1.906 1.282-1.688 1.218-.906.407-1.094.687-5.594 4-3 .5h-2l-2.593-1-.125-.906-1-2.5-2.594-2.5-2.406-1.094-4.094-.5-4.094.5-2.094 2-.906 3-1.187 4.313-2.5 2.593-2.125 1-2.5 3.094-2.5 3-2.594 2-2 .594-2.594-.5-1.5.5-2.594 1h-4.093l-3.125.5-5 2.219-3.094 1-3.688-.313-4.093-.312-1.907.218-1.718.282-4 1.312-3.688 1.188-4.406 2.906L674.5 91l-2 2.5-2.5 2.125-2.094 1-2.812-1-1-1.625-.5-1.5-1-1.5-2.094-.5-2 .5-2.594 2-2.312 2.218-2.5 3.094-2.906 2.813-3.188 1.78-3.094 1-5.093 1.095-4.125-.5-2.094-.5-.5-1.5-1.094-2 .5-2V97l-.5-1.5-1-1-1.094-.5-1.5.5-4.093 2.125-3.5 3-2.407 2-1.5 2v3.593l1 2 1.094 2 1 2.5v3l-.5 2.5-1.094 1.594-2.093 1.813-1.407 1.28-2.093.907-2 .5h-3.625l-2.094.5-2 1-1.594 1.5-2 1.5-3 .813-2.687.187-2.907-.094-3.093.5-2.5 1-3.125 2.094-3.5 4.594-2.5 4-2.094 2.093-1.781 1.5-2 .5h-1l-2.125-1-1.5-.5-2.094.5-1.188 1.125-.312 1.875-.688 2.125-.5 2.375-.5 2.219L557 157l-1 1-1.594.219-2.093.594-3.5.594-1 .218-3.72.781h-3l-2-.187-2.093-.312-1.594-1-1-2-.593-1.5.5-3 1-4.5 1-3.094.187-2.406-.5-2.5-1.312-1.094-2.094-1-1.5.5-23 6.5-4 1.094-42 11.718-10.594 3-15.906 5-9.781 2.781-29 8.72-4.22 1.28-67.905 20.313-56.594 16.906-33.281 10.094.687 2.5.594 1.781v1.5l.906 1 1.906 1.813.282.5.312 1.812-1 2.5-1.594 2.188-1.312 1.406-1.906 1.781-2.282 2.219-1.812 2.281-.781 1.313-.313.687-1.094 1-1 1.406-1.093.813-.72.687-1 1.594-.5.906-.28.72L222 260l-.906 2.219-.094 3.188 1 2.093.594 2-.688 1.5-.719 1-.187.625 1.594 1.5 1.218.875 1.688 1.719.312.5v1.594l-.125.812-.5.5-.687.375-1.094-.781-.594-.594-2-1.625-2.125-.5-1 .219-.78.406-1.72 2.094.313 2.781 1.5 2 3.094 3.125 2 1.5 2 2.094 1.093 2.5v1.5l-.187.594-1.906 1.406-1 .5-1.188.5-2.094.406-2.5-1.125-1.625-2.375-1.375-1.125-2.5 1-.5 2.219-.218 1.188-.282 1.906-.406 1.312-.406.781-2.094 1.094-2.219 1.313-2.093 1.5-1.907 1-3-.094-2.093-.5-2.5-2.5-1.5-1.594-2.094-1h-.813l-1 .187-2 1.407-.593 1.781-.282 1.5-.125 3.312.407 3.313-.407 2.781-.28 1.313-1.407.687-1.906-.5-2-2.5-2.094-1-1.188.5-1.406.5-2.5 2-.719.719-1.375 1.281-4 4.094-2.312 2.812-1.313 2.188-1.593 3-2 2.5-.594.812-.906.907-1.188.781-1.406.625H153l-1.594.5-1.5 2-.594 1.375-1.125 2.125-2-.125h-.875l-1.125 1.125-.5 1-.5 2.5.5 4.094-.187 1.093-.594 1.188-1.094 1.625-1.5.375h-1.625l-1.187-.188-1.188-1.5-.312-.5-.813-1.906-.28-.906-.313-.688-1.907-.5-.5.5-.78 1-.5.907-.595 1-.406.5-2 2-2.094 1-2 1-3.625.5h-9.78l-.407.094-2.094 2v1.5l1.5 2.187.906 2 .188.719v2.188l-.813 1.093-.875.906-.906.407-1.5.187-3.406.406h-3.313l-.593.313.218 1.094 1.094 1.594 1.094 1.718.312.781.5 2-1 2-2.125 2-1.28 1.22-.22 3.28.407 2.5.406 2.594v.719L98.187 395l-1.78.5-1.813-.594-.5-.187-2-1.719-2.594-1.5-1.594-.594-.594-.187-2.406.906-1.812 2.094-.5 2-.594 2.5-1.188 2.406-1 2.5.5 2.5 1.5 1.5.875 2.688V411l-.375 2.719v2.094l-.218 1-.407 2.312-.375 1.188-.812 1.5-2.094 2-2.219.406-1.593-.312-.907-.188-2.593-1.406-2.094-2-2-1.094h-.813l-1.593.188-2.094 1.312-1.094 2.094L60.5 424l-1.688 1.313-2.5.5-1.625-.5-2.875-1.594-.5-.219-.718-.187-1 .5-1.094 1.5-.406 1.687.812 2.313 1.688 2.5 1.5 2.094.906 2.5-.5 2.093-1.5 1-2.906 1.406L44.5 443l-2.906 2.219-3.594 3-1.688 1.5-1 1.281-3.125 4-.094 2.625.094 4.5.22 2.281.593 2.813.094 1.688.312 2.906.407 4-.125 3.594-.5 4-.094 4 .406 3.093-.313.813L32 492.625l-.594.188-2.219.5-1.28 1.312-.595.781-1.718 3-1 1.5-1.407 1.313L21 502.407l-1.594 2.5-1 1.5-.719 1.406-.375.5-1.625 1.406-1.187.906-1.406 1.094L10.812 513l-2.406 1.625-2.594 3-2.625 3.5-2.187 3.5-.5 2.5-.5 4 .5 3.594.812 3.5.282 1 .218.5 1.282 3.5.5 1.094 1.093 2 .5 2-1.093 2.5-2 2-1.094 2.5.812 1.687 1.688 1.407 3.187 1.5.5.218 1.625.782L11 563.125l1 2.094.406.688.5 3.5-1.094 1.718-.406.875-.594 2.5.594 1.407.281.812 1.313.5 1.406.281 1.781.313h1.22l2.593.094L25.094 580l2.5 2.625 2 2.5.718.78 1.282 1.313 2.812 1.188.5.312 4.594.407 3.594-.125 1.218.625 1 .375.157.156h3459.53l-9.812-9.438-126.593-121.906-11.094-.094-16.406-.219-34-.281-166.907-1.094h-47.093l-215.782-1.906-98.812-1-113.813-.719-107-.594-106.593-.593-108-.813 6.406-70.281 5.406-60-52.812-73.906-18.188-25.5-22.812-32-14.782-20.188-27-36.906-5.625 3.5-92.093 62.687-3.282 2.22-2.625-4-1.5-1.5-1.687-2.813-1.906-2.188-2.282-3.312-1.812-2.813-1.813-3.187-.687-2.813-.906-3.781.406-5.813.5-7.28 1-5 1.094-3.813 1.093-4 .813-2.594.906-3.313 1.781-2.093 1.5-1.594 4.625-2.594 1.5-.906 2.594-.5 2-1 1.594-2.094.687-1.906.313-2.594v-4.5l-1.5-5.625-.5-3-1.594-3-2.5-3-1.594-1.5-2.625-.875-2-.719-2.093-.78-.907-1.22-1.093-2.5-.094-3.28.5-3 1.406-3.126 2.281-4.687 2.625-3.5-21.406-1.407-103-7-29.813-2-103.5-6.093-35.406-2-77.375-4.407-62.625-3-92.281-4.593-58.813-2.907-21.687-1.187-52.813-2.5L1360 40.906l-41-2.187-47-2.594L1107.312 27l-3-.094-55.406-2.5-63.594-3.094-2.5.5-3.125.594-2 .406-2.094 1.594-1.5.5-1.5.594L968.5 27l-2 .5-2.594.5-1.5.5-1.594 1-2.5 1.625-2.719 1.5-3 .5-2.5.094-3.187-.094-1.406-.906-.594-.313-2-1.094-2.594-1-2-.5-2.719.5-2.406.594-2.094-.281-3.093-.719-1-1-1.5-1-2.094-1-2 .5-2.594 1.594-2 2-1.625 1.5-.5.719-1.5 1.906-1.5 2.5-2.187 1.5h-2l-1.594-1-2.5-2-3.094-3.5-2-2.5L897.187 27v-2l1.125-1.5 1.5-1.5 1-1.375.5-1.125-.625-2.375-1-2.125-1.5-3.094L897 7.125l-2.313-3.719-1.594-2.594-2.03-.812z" style="fill:#9faec0" transform="translate(0 125)"/><path stroke="#9FAEC0" stroke-width="10" d="m45.469 590.156 1.219 1.25 1 1.219 1.625 3.5 1 3.594 3.093 4.5 3.282 3.187 1.812 1.813 6.906 4.406 4.5 3.094 2.5 1.5L80 622.906l5.688 3.906.406.313 5 3.187 3.812 4.594 3.094 4 2.094 4.594 2 4 3.094 3 4.125 2 2.5.312 2.093.188 4.688.406 7.594.719 4.906 1.594 2.906 1.5 1.094.687 3.594 2 3 2.094 2.406.5 2.812-.781 3.907-1.594 2.78-.406 3.595.093 2.5.5 3.406.813 3.5 1 3.094.875 1.625 1.5 1 2.125-1.625 1.5-1.375.5-2.625 2.5-1 3 .406 2.5 2 2 2.5 1.094 2.5.5 2.312 1.5 1.282 1.687-.094 1.219v3.281l.906 2 1.312 1.813 5.282 3.093 3 1.907 3 3.593 1.593 2.5 1.125 3.094.5 3 2.594 3.094 2 .5 1.594.5h2l3.094.125 2.093 1.594.5 2.093V719l.5.812.5.5 1.5.5 1.5.594 2.125 1 1.5 2.219 1.282 1.187 3.906 4.813 1.687 2.594.813 1.906.687 1.594 1.5 3.093 1 2 .5 1.188.407.719 2.593 1.687 2.5.594 3.125-.5 3.094.125 3 1.094 2.594 1.5 2 2.593.094 1.094v2.406l-1 2-.688 1.094-.812 1.406-.406 1.688v.812l1 2.5.906 2.094 3.094 3.5 5.125 5.5 1.375 1.219 2.5 1.594 1.125.28H262l2.688.407h2.406l1.094.594.812.5 1.5 2 .188 1.625.218 1 .907 1.875 1.093 1.625 2.782 3.687 1.218 1.313 1.5 1.094 4 2.687L288 799l5.094 1.625 1.594 1 2.218 1.5 5.094 3.094 4.094 2 3.719 1.406 1.375 1.094 1.218.906.5.594 1.407 1 2.593 1 2.5-.5 3.188-1.813.906-.687 1-1 2.094-3 1.5-1.5 2.812-1.813 2.782-.781 2.625-.125 2.593.5 1.5.5 2.282.625 2-.125 1.625-.781.78-.5 1.5-.594 1.595-.313h1.906l1.094.313 1 .281.812.5 1.094.594.719.625 1.78 1.5.5.281 3 2.219h2l3.095-1.406 2.625-1.5 3.687-2.907 1.5-.187h2.313l3.593.5 1.094.187 1.688.688 3.125 1.219.687.406 2.813.5 3.093-.5 2.594-.906 2.813-2 3.875-1.313 2-.281h1.218l4 .5L415 803l7.094 3.812 3 2 2.406 1.813 1.188 1.5 1.312 1.594 1.406 2 .594.906 1.594 3 1 2.094.812 2 .282.5 2.406 2.5.5.406 1.719 1.687 2 1.5.875 1.407 1.312 3.28 1.406 3.313 2.594 9.594 1 4.219 1.094 4.375 1 5.5 2.5 5.406 1.406 2.906.688 3.313v4.094l.5 3.5.5 3 1.125 3.5 1 3 1.375 3.593 1.5 4 .406 5.094.312 1.906.188 1.094 1.406 4.094 1.688 2.219 1.812 3.28.406 3.126.094.875v2.5l.313 2.719v2l.281 4.5.094 1.406.906 3 1 1.781 2 2 .72.906 1.374 1.407 2.125 1.593.5.407 5.875 3.906 2 1.094 5.125 4.687 3.094 2.594 2.281 2.312 1.906 1.594 1.72 1.719 1.78 3.281 1.813 4.5 1.281 2.813.5 1.593 1.813 10.188 2.593 8.125.72 2.187 1.593 3.907 2.406 5.593 2.375 5.407 3.125 5.093 2.594 4 1.406 2.188 2.875 3.219 4 3.593 4.125 3.094 3.5 3.5 2 2.719 2.5 4.094 1.375 4.5 1.406 5.593.813 3.313.094.781 1.406 8.094 1 5 .406 2.125.282 2.094 1.5 5.093v3.407l-.5 5.093-.594 3 .094 3.094 1 3 1.094 2.5v2.906l-.5 3.188-1 3 .406 1.906 1 2.5 1.594 2.594 1.5 2.625.718 1.094.907 1.406 1 2.094 1.187 3.5.906 6v4.5l-.218 4.093-.094 3.594 1 2.5.718 1.906.688 2.188 1.406 2.906 1.594 4 3.5 7.813 1.594 5.78 1.593 4.22.625 1.187 2 2.5 2 2.094.438.281h3531.281l-63.437-63.062-110.188-109.72-1.406-1.374-61.688-60.625-2.812-2.688-188.313-184.093-103-99.094-10.093-9.719-62.094-59.75z" style="fill:#9faec0" transform="translate(0 100)"/><path stroke="#9FAEC0" stroke-width="10" d="m576.75 1180.281 3.563 2.344 3.687 2.5.594.281 2.5 1.219 3.5 1.5 1.312.375 2.094.906 2.813 1 .5.313 2 2 2.593 2.5.907.687 1.28 1.313 2.907 2.5 2.5 2.593 2.594 4.094 2.5 4.594 4.719 9.406 2.187 3.906.906 1.594L625.5 1231l3.5 3.125 2.594 1.875 1.406 1 2 1.719 1.5 1.906 1.313 3.5.5 2.688v2.5l-1.625 4.093-.594 3.5 1 5 .719 2.094 1 2.313 3.093 3 2.594 1.906 3.094 1 3 1.093 2.094 1.094 2.5 3.5 1.5 3 1.625 3.5 1.5 3 1.28 1.594 1.313 1.5 2 1.625 2.094 2.375 1.5 3 2 3 2.594 2.625 3.094 2.5 3.125 3 1 1.188.78 1.406.595 1.906.125 1.094-.5 3.5v1.5l.094 2 .906 3.593 1.594 5 .28 1.688 3 5.625 4.407 8.094 1.813 4.781.687 1.813 1.906 6.093.813 2.813.594 1.781.406 1.313 1 2.312 1.281 2.688 2.313 3.906 1.5 3.5 1 2.593.5 1.407 1.093 3.5.5 3.593.907 3.188 3.187 4.125.594 1.188.406.5 4.094 3.593 2.5 2.594 4 1.813 4.125 1.093 3.187.5 4.094 1 1.719.313 1.875.187 4.125.5 4.594.906 3.28 1.688 1.126.406 2.781 1.594 2.719 1.813.375.406 2.5 3.781 1.312 2 1.313 2.125 2.094 2.5.5.375 1.593 2.906 1.907 3.219 1.687 2.375 1.906 2.719 4 5.5 2.094 3.093 5.594 5.188 8.5 6.719 8.406 7.406 2.094 1.875 14.719 11.906 11.406 9.719 4.687 3.781 1.907 1.5 2.687 1.813 3.594 1.5 5 1.406 5.125 1.188 6.094 1.093 5.093 1.719 2 .781 1.688.813 3.125 2 5.594 5.593 13.187 12 6.813 5.094 3.093.5 3.313.219h1.094l2.187.281 2.594 1.5 2.625 2.094 1.5 1.406 4.094 3.594 13.78 13.125 14.907 12.594 3.5 3.687L949 1570.5l1.5 3.5.407 1.406.28 2.406.5 4.094.626 4 1.875 4.906 1.625 1.188 1.875.719.719.187 3.5.5 3.687 1.094 2.906 2.625 5 4.594 7.094 6.187L984.5 1612l8.188 8.219 4.125 5 1.5 2.687 1.187 2.594 1.313 2.906.594 1.906.906 3 1.187 3.594 1.907 3.813.906 3.093-.125 3.5.312 1.688 1.188 3.406.812 2.719.094 3.094v.906l-.5 3v3.5l.22 1.688.5 2.812 2 5.094 2.5 3.593 3.5 4.5 3.593 3.5 3.781 3.407 2.625 2.906 2.781 3.281.813.813 1.406 2.093 1.687 3.094.188.594 2.5 3 1.812 1.719 1.688 2.406.5.5.719 1.375.5 3.125.5 2.5v7.594l-.5 5.593v5.407l1 5.593.5 2.313.687 1.875 2.906 8.625 1.094 2 1 1.281 5.094 6.094 1.469 1.438h2990.219l30.53-40.532 9.688-11.094 29.313-26.687 19.5-25.125 6.094-5.594 7.187-6.5 7.719-8.594 36.406-32.687 9.781-8 28.719-19.719 10.188-8 2.093-2 6.719-5.094 14.281-7.5 22.594-13.093 13.813-7.5 11.312-6 9.188-4 24.593-9.594 17.407-6 12.312-5 13.281-4.5 14.407-4 5.593-1.5 10.719-4.5.594-2.625-9.813.5-9.187-2-2.5-3-.5-4.594-1-6.5-2.094-2.094-2-1-2.625 1.5-2 1-8.187 4.594-11.313 3-9.187-.094-3.094-2.5.594-1.5 2-1 6.687-1.5 8.719-.5 7.094-3 1.593-5 4.094-2.094 3.625-.406 2.5-1.094 1.594-3.5 1.5-.5-67.5-66-99.813-97.906-18.406-18-102.156-101.531zM4401.813 1469l-.813 1.813 2.094 3 3 2.5 2.094 4.593-.594 4.5 1.594 2.094 2 2h4.625l2.593-1.5.5-2.5z" style="fill:#9faec0" transform="translate(0 75)"/><path stroke="#9FAEC0" stroke-width="10" d="m1055.156 1770.438 3.344 3.28 1.313 1.282 4.187 2.125 3.5 1.188 1 .312 4.094 1 2 .594 1.594.406 3.125 1.5 2.5 2 2.093 3 1.407 2.594 2.687 4.5 2.406 3.187.688.813 2.094 2.187 3.125 2.094 3 1.625.5.094 2.5.094h3.093l4.094-1.5 3-2 3.313-2.406 3.093-1.5 2.282-.188h2.125l2.5.5 2.093.906 2.188 2.094 1.5 1.5 2.5 2.594 2 2.594 1.406 2.219.5.78 3.188 2 3 2 4.5 1.907 3.218 1.594 4.094 2.5 1.688 1.094 2.125 1.5 4.375 3.5 3.125 2.218 3.593 2.094 4.094 1.594 4.5 2.094 2.594 2.125 1.719 2 .875 1 2.625 3.375.687.812 3.313 4.406 6.187 7.5 1.688 3.094 1.312 1.406 2.094 2.594.406.406 3.188 2.594 5.125 4.094.687.5 1.313 1 1.593 1.406.594.813v2l1 2.093 1.094 1.406.906 1.094 2 2.094 2.5 3.094 4.406 6.594 2 3.625 2.5 4.28.407.72 1 3.093.5 3v4.5l.5 5.094 2.093 3 2.5 3 2.594 1.5 3.094 1.094 4 1 4.5 1.906 3.719 1.188 4.093 1.906 2 .812 1.5 1 2 1 1.094.5 3 2.094 1.094.594 1.906 1 2.188.812.625.281 1.875.813 1.718.688 2.5 1 3.782 2.218 1.812.781 1.594 1 2.094 1.813.625.5 2.375 2.813 2 3.375 2.625 6.218.875 2.594.906 1.906 3 4.094 1.406 2.906.5 3.094-.094 2.5-1.5 2.594-2.5 2-1.719.594-.875.312-3.625 1.094-2.687.906-2.407 1.594-.593.719-.407 1.375v.906l.313 1.719.406 1.093.688 1.406 1.312 2.188 2 3.094.281 2.219v2.875l-1.5 2.906-2.093 2-2.094 1-1.5.219H1284l-3-.407h-.594l-1.906.406-1.907 1.5-.687 2.594 1 3 2.5 2 2.5 1.594 2.594 1.906 1.093 1.5.313.594 1.094 3-.5 4.5v1.094l.312 2.719 1.781 4.28 2.5 3.5 2.094 3.095.406.812.5 1.406-.5 1.406-.5 1.188-1.5 2-1 .5-1 .188h-1.28l-1.407-.282-1.594-.812L1284 2052l-.813-.593-1.281-.907-2-1h-2.094l-.406.313-2.094 1.688-1 3 .094.812.688 2.188 2.5 2.624 2.812 2.376 3.094 4.124.094.782-.094 2.406-.5 3.906-1.094 2.5-1.093 2.594 1 1.594 1.687.906 2.5.5 1.313-.312 2.78-.688 4.595-.5 1.406.906 1.719.594 1.375-.594 2-.906 2.625-1.5H1307l.688.406.812.781-.5 1.22-2 1.593-2.312 1.594-1.375 1-.907.906-1.312 1.594-.594.906-.5 2 1.406 2.094 2.5 2 2.594 1 1.5 2 1.5 1.5-.094 2.218-1 2-.719 1.5-.187 1.282 1.093 1 1.907-.407 1.406-2.28.406-.72.281-1.5.5-2.78.5-3.813 2.094-3.5.906-.188h1.72l.78.781.72.907.5 2.406-.5 3-.626 2.594.625 2.593 1.5 1 2 .813.594.094 2.281 1 .219.719.281 1-1.094 2.5 1 1.5h1.907l3-1h1.5l.812.094 1 1-.125 2.594-.5 3-.094 2.5.5 1.406.5 1 2.594.5 1.312-.313 1.188-.406.719-.687.906-1.188 2.094-2.625 2.5-1.375 2.593-.5 2 1 .5 2.5v2.094l1 2 2.094 1 1.406-.5 1.594-1.406.72-.688 1.874-1.5 2-.5 1.406.281 1.72.594 1.78 2.313.594 2.687-1 1.625-.594 2.5-.5 1.5-.5.5-1.28.188-2.126-.5-1.5-.594-2.094-.5h-2.5l-1 .5-.594 1.094-.5.906-.312 1.094v2.593l-.094 2.5.5 3 2 1.594 2.219 1.625 1.375.781 4.125.5 2 .719.875.188 2.625 1.5.875 3.093 1.625 2.5 1.875 1.594 1.812.906 1.813 1.219.594 1 .187 2.375-.5 2.125-.594 2 1.594 1.5 2 1.094 2.094 1.094 1.5 1v2.312l-.5 1.094-1.5 1-3-.313-1.594-.781-2.187-1.406-1.407-2.094-1.5-2-2.187-.906-2.406-.094-1 1.5-.5 1.5.094.875.687 1.5 1.5 1.906 2.125 2.094 1.5 1.125.375 1.593v.688l-.187.906-1.407.906h-2l-2.28-.5-2-.093-1.626 1.093-.281.688v.593l.406 2.313.281.906.813 1.406.687 1.282.72.906 2.5 2.5 3.593 3 5 2.594 4.281 3.5 3.219 4.312 2.187 1.781.72.5 5.093 1 3.687 1.407 3 1.593 2.5 2 1.5 3.126v2.593l1.094 3.906 1.5 1.5 1.5 1 2.125.5 1 .5 1.5.594 4.781 1.781 7.5 1.22 4.094-1 2.125-1.5.5-2.094-.625-1.813-.594-1.5-.28-.812-.72-2.282.094-1.5 2.125-2h1l1.5.281 2.594 1.626.688.593 4.312 4.281 1.094 3.126 1 3.093.5.906.594 1.094 1.406 2.5.687.906 1.407 2.094 1.593 2.094 1 2.5.22 1.313.093 1.187-.312 2.5-1.094 2-2 2.094-1 1-1.5 1-1.781 1.406-.625.5-1.094 1.5.406 2.594v1l-.5 1.5-1.5 1-1.094 1.406v2.094l1 2 1.594 4.718.313.876 1.875 6.624 2.5 5.594 2.906 4.594 4.219 4.5 6.093 6 4.688 4.406 1.906 1.688 5.188 4.593 5.125 4 3 3.5 2.593 2.5 2.282 2.313 2.125.594 2.5 1.093 3.28 2.126 2.595 1.874 2.125 2.126 2.093.593 2.594 1.188.906.218 2 .5 3.094.594 10.188 3 9.218 4 7.688 3.094 4.5 2.813.906.593 4 3.688 3 3.5.406.406 3.5 2.688 1.094.593h22.719l4.875-.687 4.219-.094 1.562.78H3699.75L3704 2356l5.594-4.094 7.219.094 7.093 1 6.188-3 4.094-3.093 4.125.094 2.5-1.594 3.093-2.5 2.594-2.5 2.5-1.5v-2l-3.094.5-1-1 2.094-3.594h3.594l5.094-6 4.625-8.094-.5-5.5-4.625-4.093-5.594-3-6.094-4.625-7.187-1.5-7.625-2-6.688-.5-5.094-.094-1-.5-4.093-1-4.125-1.5-3.594-2.5-4.094-2.094-4.594-3-1.5-2 5.094-1h8.188l9.218-.5 7.188 3 3.5.594 2.594.5 6.125 1 6.187.5 7.094-1.5h3.094l5.625 2 4.593 3.593 7.188 4 4.594 5.125 1.5 6.094-1.594 5-5.094 6.5-1.5 3.594 3.5-2h4.594l5.719-3.5 7.093-2.594 1.594-6 .5-7.094-6.094-8.625-4.093-4.5-3.5-5.093-2.625-5-3-3.094-6.188-1-7.094.5-6.218.5-3.594-2-3-2.594-5.094-2-2.094-.5-2.5-1-3.093-2-2-3.594v-1l.5-2 6.093.5 7.188-1h2l6.219-3 4.593-3 3.094-3.5 1-.5 3.094-2.625 4.594-1 3.625 3.125 3 3.5 1.5 3 3.093 3.594 5.594 1.5 4.094 1 3.594 2.594 4.625 4.5 1 3.5 1 6.094.5 6.093v6.5l-1.125 5.125-.5 6.5 2 15.188 2.125-3 4.593-17.188 3.594-8.125 7.188-7.5 6.125-3.5 8.187-4.593 3.594-3 2.594-3.5 3.625-3.594 5.093-8.5 3.594-11.094-3-4.594h-2.094v3.094l-3.093 4-1 6-1.125 2.594-2.5.5-2.594 6-3.094 2.5-3.5-2.5 2.5-6.594 3.594-4.5 2.094-7.094-5.094-3-3.094-4-2.5-8.125 2.094-8.593 2-12.094.094-6.594-2.594-7-8.094-8.094-7.187-3.625-8.219-3.5-7.594-2.593-8.187-1-7.219-2-6.594-3.094-3.593-1-5.094-5-3-3.094-6.219-6-4.5-8.594-3.594-7.125-2.593-4.5-2.5-9.093.5-6.594 3.093-7-1-8.094-3-8.094 3.594-8.125.5-7.5 4.594-8.593-1.5-7.094-1.5-3.5 1.5-3 4.625 2 2.594 3.5 2-7 5.687-8.094 2-10.094.594-8.125v-5l1.5-4 3.125-.5 1 4-.5 6.625.5 6.5-2.125 15.094 1.5 5.094 3.125 1 1 .5 2.594-3.5v-7.594l1-9.094 4.093-7 6.688-9.625 5.719-6 6.593-6.593 1.094-.5 5.094-7 4.625-6.094 2.094-7.594 4.093-4.5 3-4.5 3.094-3.594 5.094-5 7.719-5.5 1.593-2.5 3-1.625 2.094 1.625.5 1-1 5-3.094 3.5-4.593 7.594-6.72 6.594-3.093 3.5-4.594 2-3.093 3-1.5 7.094-2.594 5.5-7.719 8.093-4.594 4.5-4.593 5.625-4.594 5-3.625 8.094-3.094 9-2.094 6.594-1.5 7.094-2.593 13.593-3.594 8.5-2.625 6.625-2.5 1.5-2.094-.5-1.5-2-1.594-2.5-3-4.625-3.593 3.5-2.094 6.625 3.094 1 3.593 2 1.5 2.094-1.5 3.5-1.593 1.5-2 3-1.094 5.094 2.594 8.594 6.593 4 4.594 1.5 6.094 1.5 8.219-3 3.093-3.5 5.094 1 6.219-1 5.094.5 5.593-1 7.688.094 5.125-1 4.094 4 4.093 5.625.5 6.5-4.687 8.593 1.5 11.594-1.5 4 1.5 9.094 1 7.094 6.594 19.718 5.093 15.688 3.5 8.5 1 3.594 1.094 2.5 2.5.5h2.594l2-1.5-3-9.094-4.094-16.594-3-10.187 2.594-18.125 2.125-12.594 2-12.594 3.687-13.187 3.094-10 1-11.72 1.594-12.093-2.594-2-3.594-1 1.594-6.094-1.5-2-11.781-5 4.594-2.593-.5-4-2.5-5.125v-3l.5-5 .5-4.594 1.593-3 3.594-.5 2.5 7.594 1.5 4-1 4.625-1.594 4v3.5l2.094 1.593 2.5-.5 1.594-5.093 3.125-6 3.594-1.5 2 1.5-1.594 4-4.625 8.593.5 4 3.625-2 3.094-6 2-3.593 2.593-18.625.094-13.188 1.5-9.594 2.594-7.5 2.625-6.093 3.594-7L3892 2001l3.093-7.094 4.594-10 3.125-9.094 4.594-7.094 5.187-7 6.22-14.093 3-7.125 5.187-8.094 6.093-8.5 4.72-9.594 5.593-7.094 6.687-9.5 8.72-7.593 7.687-7.5 5.093-7.125 4.72-8.094 4.093-6.5 3.094-5.094 3.5 1.594 1.593-3.594 3.594-7 3.625-8.594 4.594-7.593 4.094-7 4.593-6 1.094-1.125 16.406-22.594 7.22-7.094 11.562-15.375zM3805.313 2131l-3.625 1.5-4.094 1.125-1 3 2.5 3 4.094 3 3 2.594 3.625 1.5 2.593-.5-1.5-8.094-1-4-2.093-2.625zm16.78 12.719-1.5 1v5.5l2 .094 2-1.594 2.095-1 1-1.5-2.5-2zm-47.593 8.5-3 2-.594 1 6.188 6.593 4 3 5.219 1 1.5-1 1-3-2-5.093-6.125-1-3.594-1zm29.688 1-4.594.5-.5 3.093 1.5 4 3 3 3.094 1.094 3.625 1.5 2.5 1 2.593-2-2-3.594-3.593-1-1.5-4.5-1-2zm-39.094 103.906-2.594 1.094-3.094 1.5-3 1-2.593 2-4.625 3.5v3l1 2.593 2.625 1 4.593-3.5 5.094-1.593 3.594.094 3 .5h2.594l2.5-.5 1.125-1-.5-4.594-2.125-2-2-1-2.594-1.5zm19.406 15.688-2.094 1.5 1 5.093 1.5 4.5 2.094 1.594.5 2v2.5l1.5-.5.5-5.594-.5-7-2-3.094-1.5-.5z" style="fill:#9faec0" transform="translate(0 50)"/><path stroke="#9FAEC0" stroke-width="10" d="m1550 2360.594 1.5.812 3.594 1 3 .5h3.094l3.625-.5 5.093-1.406 2.594-.375.219-.031zm33.375 0 1.438.718 2 2.094-.125 2.5-1.094 2-.781 1.594-1.625 3v2l1 1.5 1.312.5 1.5-1 1.094-.687 1-.813 1.594-3 1.625-.875 2 .5.687.688.5.687 1 1.5.5 1 .188 1.219-.375 1.593-.72 1.907-2 1.5-.593 1.5.813 1.687 1.687.906 1.094.688 3 .125h4.594l2 .594 2.125.906 1 1.5.875 1.5 2 2.094 1.718.906 1.407.688 1 1.5.094.906.28 1.593.626 1.313 1.187 1.688 1.5 2 2 2 .813.5.875.312 1.5-.5.406-1.5v-1.312l-.281-.813.094-.875.5-1.906 1.781-.5.5.281 1.813 1.125 1.187 1.688 1.719 2.906.281.687.125.813-.406 1.093-.5 1.407-1.094.687-.5.406-2.125.907-1 .687-.5.5.406 2.313 2.5 1.687 2.22.5 3.874 1.313.719.187 2.5-1.5 2.094-1.5 2.5-2.281h.906l1.687.281 1.594 1.5.406 1.313.5 1 2.407 3.093 2.593 1.594 1.72.094 1.78-.094 1.594.094 2.219 1.5.594 1.125.406.875.5 2.125 1.187 1.5.407.375 4.093 2.625 1.5.5 1.5 1h3.094l2 1.5.5 1.5-.375.875-1.625 1-.781.406-.719.813-.594 1.687.407 2.094 1 1 3.093 1.625.5 1.5-.094 2-.187.875-.313 1.125-.094 2 1.5 1.594 1.5-1 1.094-2 1.906-.906 1-.188 1.782-.312 1.5 1 1.625 1.312 1.875 1.375 2 .5 1.312.313.688.187 1 2.313v1.093l-2.094 1.5-.906.5-1.594 1-2.594 1-1 1-.094 1.407 1 1.687 2 .625 3.094 1 1.5 2.594-.094 3.094-1.094 1.906-1.625 3-1.094 3.406-.094 4-1 4.5-1.812 8.188-.375 2.593-.313 1.407-1 2.593-1.593 1.407-2 .5-1.5-1.5-.407-.688-.593-.906-.813-1.406-.781-1.094h-1.406l-1 .094-.22.5v4.594l1.126 6.5.281 1.906 1 3 2.5 4.094 2.813 2 1.593 2 .5 2.093-1.093 2.625-.5 2.5.5 3 1.906 2.594 2 2.094 2.781 2.812 4.813 3.375 1 .813 1.5 1.312 1.093 1 .313.594 1 2.594-.5.906-1 1.5-.5 2 .375 2 1.5 1 .5.688.5.906 1.5 1.406.406 2.594v3.594l.219 1.812.187 1.188v1.5l-.094 1.5.5 2.593 1.5 1 1 1H1710l1-1 1.594-1.875.5-1.5 2.094-.5h.625l1.78.282 1.5 1.093 1.72 2 .28 1.813v1.812l-.405 1.5-1 .5-2.594.5h-2.594l-2 .5-1.594 1.5-2 3L1708 2592l-.906 2.22-.5 2 1.312 2.5 2.594 1.5 2 1 2.594-.313 1.594-1.5 2.625-.407.687.22 1.188.5 1 1.405.5.594.906 1.188.719.718 3 1.688 2 1 2.093 1 1.5 2 .407 2.094-.625 4-.188 1.218-.594 1.282-1.5 4-1.5 3.5-1.593 3.5-.907 2.718-.094 3v2l.875.875 1.5.5 1.719-.375 1.5-2.5 2.094-2.5 2.5-1.625 2.5.22.5.5.593.905.72 1.688.187 1-.094 2.5 1.187 2.812 1 .282h.813l1.687-.282 1.094-.5 1.312-.218 1.313-.407 2.594.625 2 1.094.781.281 1.906 3.22 2.5 3.093 1.406 2.312.594 2.688-.594 1.5-1 1.5-2 .5-1.812-.5-1.375.5-.813 1.187.813 1.72 2 1.593 1.687 2.094.5 2-1 1.5-.5 1.5 1.5 1 2 1.093 1.094 1.407-.5 1.718-2.594 2.375-.906.907-1.687 2.093v2l.593 2 .313 1.5.187.625-.593 2-1 1.5-.5 1 .281.782.5.718 1.312 2 2.5 2.5v1.094l-1 2-1 1.5-1.593 1.5-2 2.094-.594 1.906v1.5l1.5 1.594 1.687.906 1.813.594 3.281.5 2.5 1.5.719 1.406-.219 1.5-.5.688-2 .593-2.906.407-3.281.906-2.407 1.5-.593 1.594 1 1.5h4.593l2 1 1.688 1.5.312 1.812.5.781.594.5 1.5.625 2.594 1.375.406 1.313.094 2.187 1 1 1.813 1.407 1 1v.718l-.188.375-3.219 1.22-1.406.405-1.687.875-.688.313-2.219 1.312-.78.688-.72 1 .407 1.406 2.093 1h8.22l.78.406 1.313 1 .594 1 .312.594v1.906l-1 1.594-.906 1.188-2.094 2.093-.719.5-.593.813-.5.812v1.5l-.407 1.094-.406.594-1 1-1.875 1.312-.5 2.5.375 3 1.313 1.282.687.5 1.5 1.5v1.812l-.875 1.406-.625.875-2 2.125-.594.875.407 1.72 1.5 2.093-.907 1.812-1.906 1.782-.375.312-2.812.906-1.094.875-1.313 1.22-2.093 2.5-.594 3 1.5 2.5 1 .593 1.906 1.5.688.5 1.406 1.312 1.187 1.094 2 1.594 1.813.187 1.781.313 1.906.406 3 2 .407 1.688.5 2.312v3.094l1.406 3 2 2.594 1.5 2.093.5 2.5-.594 2.625-2.125 2.375v2.5l.906 3.125 1.813 2 2.187 2.094.407 1.594-.813.812-2.281-.5-1.406-1.5-2.688-.125-1.906 2 .406 1.5.5 1.22 2.875.905 3.219 1.094 2.094.406.5.188 1.5 2.406.406 2.688-1.5 2.312-2.219 2.094-2.094 2.5-2.593 2.187-1 .72-3.813 1.687-4.375 2.312-2.719 3.406-1 1.875-.593 3.907.5 1.218.906 1.594 1.094 1.906.406.594 1.781 2.281 2.219 3.907 1.187 1.593 1.22 1.5 5.093 6.22 3.5 4.5 3.906 4.687 2.281 3.406 2.5 3.594 1.594 1.718 1 1.594 3.219 3.188 2.281 2h2.125l1.594-.5 2-1 1.594-1 2 .593 1.5 2.125.812 1.094.594 1 1.594 1.5 1.5 1-.594 3.5v.781l-.094 1.313 1.5 1.5h1.594l2.093-2.406 2.313-1 2.281.593.219.72-.5 4.405-.5 1.375.281.5 1.219 1.625 1.594 1 3.5 2.594 8.187 5 6.594 2 8.625 2 .25.031h16.5l1.625-.531 2-1 .812-.313 1.813-.594.875.313.625.094.531 2.031h4.156l.907-.843 1.187.593.344.25h693.562v-.437l3-2.094 5 2.531h120.407l3.906-3.437 2-3.5 5.594-1.5 3.593-1.5 2.094-2-1.594-11.094-1-5.094V2908.5l2.594-5.593 2.594-5.5-1.094-4.094-4.594-2.5-2.5 4-6.687 10.594-7.125 1-6.688-4.5-3-9.594-2.593-6.594.593-8.094 1.5-6 2.594-2.625 5.094-.5 4.125 1.125h7.094l-1.5-4.625 1.5-3.5 3.593-2.5 5.594-3.093-3.5-2-7.187-4-3.094-3.594-2.5-4.5-2-4.094v-2.5l.5-2 3.594-1.5 2 2 2.5 7.594 4.593 1.5 9.188 4.594 5.125 4v5.093l-3.625 5-5.094 6.625-4.594 7.5-5.593 3.094-6.094-.594-5.125-1-2.094 2.5-2 6.094 1.5 4.094 3 5 2.094 4.094 3 .5 3.125-3.594 4.094-6 4.593-3.594h7.688l8.219 3.594 1 3.5v2.594l-.594 5-.5 2-1.5 4.093-2.125 6.5-.5 5.125.5 10.594 3.625 7.094 2 8-3.125 5.594-.969.843h180.25l.625-.625-1-4.5-2.594-3.625-5.093-1.5-5.094 2-1-5-4.125-2.593-5.594-2-4.094-1-4.093-5.094-6.594-12.094-1.5-3-2.125-4.594-3 2.5-1.594-4.5-6.094-4-3.593-1.125-6.594-2.5-4.625-1.5-2.5-5.593-2.094-5.5-3-2.094-3.594 2.594-5.593.5-1.594-.5-3.5-1.094-3.125.5-.5.5-1.594 4.594-4.094 2.5-4-2-1.593-3.094-8.094-.5h-3.625l-2.094-2 1.594-6.594.5-.5 2.625-5 .5-5.094 4.094 1.594 5.093 3 5.094 1.5 4.094-3h4.625l.5 5.594 5.594-.5 4.593-6.094 4.094-6.094 2.594-6 2.5-5.125 4.625-4.5 7.187-2 6.594-2.5 3.094-4.593 2.625-5 1-4.594-1.5-3-2.125-1-3.594 3.5-2.5 2.5-3.094-2.5 1-9.094 3.594-5 3.594-2.5 3.625-1 3.094-.5 4 2 3.093-.5 5.594-3.594 4.094-2 .625-3-3.125-4 1.5-4.625 4.125-1 4.094.5 3.593-4 .5-5.093.5-3.5 3.094-1 3.094 3 2.5 2 1.5-1 2.125-3.5 2-3.5 4.094.5 4.093 1h3.594l1.5 1V2785l-1.5 5-1 2-.594.5-4.093 3.625h-4.594l-3.5 2-6.219 6-3 1-4.094 1.5-3.093 1.094-1.5 1.5.5 2.5 2.5 2.5 2.093 2.5 1.5 3.594-1 4-3.093 2-6.094-.5-4.625-.5-5.094.5-1.094-1-1-1-4.093-.5.5 3 1.593 6.094-.593 5-1 5.093-3.094 3.5-3 2.5-3.625 1.5-3.094 3.625-1.5 6 1.5 3.594v6.5l-1 4.594-2.094 6-3.093-1-3-.5-2.094.5-.5 3 3.094 5.594 3.5 2 4.093 1 3.094 1.593 4.094 2.5 8.219 2h5.593l3 4.625 1 5.5 2.094 5.094 2 6.594 6.094 4.5 1.625 1.5h2.5l1.594-2.5 1-3 .5-3.5 7.187-1-2.094 5-3.093 3.5 7.687 10.094 1.5 2.093 4.594 3 3.125 4.125 4.094 4.5 1.218 3.625h13.47l.093-.03 3-4.094 5.219-5 4.594-5.125 7.593-9.594 2.594 1.594 2.5-1.594 8.719-4.5 9.187-4.5 14.907-6.094 17.406-4 13.781-4 8.625-3h6.188l9.187-3.5 8.219-1h10.187l10.22-.5 6.593 5H3091l2.593-1.5 1.5-.5 4.094-4.5 2.125-5.594-1.125-5.5-8.094-7.593-8.187-4.125-2.5.5-5.719-2-6.594-3.5-4.093-1.5-6.594-1.594-5.094-1-3.125-1-1.5-1 2-2 8.219-.5 6.094-.5 4.593-.5 2.594-3.594 2.625-5 2.5-5 4.094-5.594 3.094-4 3.593-5.093v-8.125l-1-5.5 2.5-6.594 3.594-2.5-.5 7.094v6l1.5 4.125 2.625 5.5-1.125 5.593-3 4.5-4.594 3.094-4.093 2.5-1.594 5.5-2 9.094 2.5 4.094 7.687 2 12.22-3 2.093-4.094 4.594.594 7.093-5.094 3.594-3 5.219-2.5 3.5-3.594 3.094-1 .5 3.594-3.094 4.5-4.594 5.594-3.625 3.5-1.5 2 7.219-.5 7.594-6.5 10.812-5.094 5.594-3.5 8.687-4.5 8.22-5.094 8.687-6.5 13.312-9.094 11.188-9.093-7.594-12.125 4.594-1 6.093-7.094 5.72-13.594 3.593-9.594 2.594-8.593 1-5.5-2.594-3.125-3 .5-3.594 9.625-5.125 3-3.094-2.5h-4.093l-1-2v-7.125l.5-3.5.5-3.594-4.5-4.5.5-2.5 1-1-2-3.094-3.594 2-10.813.5-6.593-.5-10.188-1.5-6.125-3.594-2.594-.5-5.093-1-3.594-1.5-2.5-1.5-4.594-5.593-.5-.5-3.125-6-3-8.125-4.594-4.094-6.687-9.094-2-9.094 3.594-5v-6.093l2.593-8.625-5.093-8-2.594-3.594-2.5-1-5.094-1h-7.719l-7.687 1-5.094 2-3.125 1-3.5-.5-4.094-3.594-3.093-2.5-3-5.5 1-1.094 5.093 3.094h7.72l7.093-1.5 2.094-1 4.093-3.5 4.594-2.094h6.125l10.188 5.594 5.593 7.094 3.594 5.594 1.5 5v13.125l-.5 9.093 1 5.094 3 6.5 4.625 5.594 5.594 6.094 6.187 8.125 4 2h6.72l4.593-5 .5-7.125v-7.594l-3.5-6.094-4.094-6-2.125-2.5-2-7.594 2.625-5.093v-6l-1.5-4.125-1.125-5.5.125-2.094v-8l-.5-5.094-2.625-3.5-6.594-4.094-7.187-5-3-4.593-6.094-8.625-3.125-8.594-1-6.5v-1.5l-.5-6.094 1.5-8.094 1.625-6.5 2.594-8.093 2.5-2 3.094-2 3.593-1.625 7.594-2 4.625-1 2.094-2 2-6-1.5-4.594-1-6.5.5-2.594 4.094-3.5 3.093-2.5 3.094-1.5-5.687 9.594-.5 8 2 1 5.093 3.094 1.094 2.5-1.094 4-3 3.125-6.187 3.5-5.594 2-6.125 2.5-6.187 5.093-.5 1.5-3.094 4.5-2 8.594 2 9.094 2 7.094 5.094 9.125 6.093 6.5 4.094 2.093 1.625.5 4 2 5.188 3.5 1 4.094 1.5 7 1.5 7.094v3.594l3.093 3.5h4.594l2-3 4.625-2.5 4.094-2.094 3.594-5 .5-6.094-.5-5 .5-10.094 2.093-5.093 3.094-3 3.625-1.5 5.594-1.5 2.5-2 3.094-5.125 2.093-3.5 5.594-3h7.125l3.094-3 3.594-4.594 3.093-7.5 4.094-5.594 4.125-4v-17.687l2.594-3 3.594-4.125 3-2.5 3.593-1.5h3.594l2.625.5 1.5 1.625h3.094l3-2.125 6.687-2 5.094-.5 6.125-1 5.094-1 4.594-1h2.593l-.5 6.125-5.687.5-6.094 1.5-5.125.5h-3.594l-6.093 2-4.094 2-2.594 2-7.625-1.5-2.594-1v4.5l-2 3.093-3.093 9.5-.594 5.094-4.594 17.094-3.125 5.094-2 5-3.094 3.125-5.593 4.5-8.688 3-7.219 2.5-4.593 1-3.594 1-4.594 1.593-1.5 2.5-1.5 4 1.5 6.094 2 5 1 5.594v4l-2.5 3.594-2.125 3-2 2.5-.594 3.5-1 4.625-1.5 3-1.593 2-3.594 5.093-2 5.5 1 13.688-2.594 2-.5 6.5 2 2.094 4.594 1 8.687-1 4.594-3.594 4.625-1.5 4.594 4.094 2.094 4 2.5 4.125 2.593 3 2.5 3 3.094 1.593 2 1 5.125 1 3.594 3-2.594 2-8.625 1-2.594 2.594.5 1 1 2.5 6.22 2.5 9.093 2.094 6.687-1.5 7.22-4.594 12.187-6 5.093-3.5 2.094-3.094 3.125-3.5 5.594-.5 4.594-4 1.5-1.5 8.187-4.593 6.219-3 6.594-4.5 16.406-5.125 4.094-2.5 9.687-2 6.625-1.5 6.188-2 4.593-3 4.594-9.094-1-3-1.5-3.094-3.094-4.5-.5-3 3.594-1 5.125 3 2-3 2.094-3.094 8.187-7.5 2-5.093.5-2 .094-3-5.093-5.625-1.594-3 3.094-1 3.593 1.5 3 1.5 5.125-2 6.188-5 5.594-3.594 4.593-3 5.72-4 3.5-1.5 6.187-1.5 3.093-3.5-.5-3.594-4.593-4.5-3.094-2.594-1.5-4 2.5-1 3.094 1.5 3.093 1 .5.5 3 3.094 1.125 1h3.5l5.688-3.5 8.687-6.594 7.625-4 7.188-2.5 6.687-3.093 5.625-2.5 10.188-2.5 8.187-3 5.625-2.5 3.094-8.125 2.594-10.594-1-8.094-.5-1-.5-1.5-1.594-.5-2 2.5-8.719 1.5-.5 3.094-6.187.5-4.094.5-5.094 1-2 4.5-5.718 4-2.5 3.594-4.594 2-3.594-1-1-4.594 4.094-2.5 3.594-2.5 2.5-.5 2.093-4.594-3.093-5.5-2-3.594-5.094 1-3.094-1.5-3.594-1-1-4 3.594-2.593 5.094 2.093 2.594-1.5-1.5-7.093v-2.5l2-3.125-.5-3 4.093-6.594 1.5-3 .625-4 .5-4.094.5-4 4.094-3 2.594-4.094 5.094-3 3.593-3.5 3.625-4 2.5-6.093-3.5-3.5V2456l2-3.5 4.594-3 4.094-2.5 3.594-3 6.093-5.594 4.125-3 3.594-.5 4.094-4.5 4.594-1.094 4.593-1 2.625-1.5 2-1.5v-2l-5.125-2.5 3.125-1.5 3.594-.5 5.594-1 7.187 1h2.5l1.625-3 2.5-1h3.594l1.5 3 .5 2v3l.5 2.594 1.094 1.5 1 1.5 3.5 4 4.094 1.594 2.593 2.5 1.5 2 1 2 .5 2.625v3l3.625 1 3.594-1 1.5-2 1.594-6.625.5-4 1-1.5 1.594-4.594 3 3.594-1 8.625-1.094 5-1.5 4-5.094 1.5-1.594 2.593-4.625 1.5-3.5 2-3.593 3.5-1.594 4.594 2.094 2 3.593-1 2.5-1 5.625-3 5.188-2.094 3.5-2 14.906-6.5 10.188-2 6.093-2 10.313-2 6.094-1 5.593-1 4.625.5 4.094-2 4.094-2.5 5.594 2 7.718 1 8.688 2.594 4.094 1 3.593-1 2-4.094-3-5-5.593-4.093-7.188-1-7.219.5-6.093-1-4.094-2-2.5-4.125-3.594-1.5-3.594 1.5-3.125 2-1 4.125-1.5 3-2.593 3-5.594-1.5 2.594-5.625H3621l-5.594 1-3.594-2 .5-3.5 6.094-.5 9.781-4 4.625-2.094 4.094-2 3.5-1.5 2.094 1 5.094 1.094 3.093 5.5 1.5 2 4.125-1.5h4.594l4.594-2 3 2.625 4.094 3.5 4.093 1.5 2.625-3.5 1.5-8.125-3-3.5h-4.625l-4.093-3.094-2.094-3.5-6.594-1.5-3.594-1.094-4.125-1-3.5-3.5h2l7.72-3.5 4.593 2.5 4.094 1.5 3-.5 1.593-1.5v-3.5l-3.093-6.094-1.5-5.5 5.593-3.593 8.22-6.5 7.187-3 5.593-2 2.125-2.625 2.594-3 .844-.907H1583.374zm2120.531 17.125-2.5 1-2.593 5.5v11.687l-4.125-.594-3.094-1-1.5 1-1 2.594.5 3.5 2 3.5 1 5.094v5.5l1 8.125-2.094 3.5-3.5 1.5h-2.594l-1.5 1.594v3.5l2.5 5v2.093l-2.093 4-2.5 2-2.625 1.5-2 2.5.5 2.594h4.625l6.593-4.094 4.594-6 2.594-7.593 4.094-10.094 2.125-6 2.593-8.125 1.5-10.594.594-7.594v-8.5l-1-5.093zm-164.718 56.187-2.094 2.594.5 2 3.594.5 2.625-2-2.125-3.094zm-24.094 37.906-2.094 1-2.594 3 1.594 2 2 .5 2.094-3 3-1-1.5-2.5zm-12.906 17.594-3 1-3.094 2-1.5 3.094-3.594 4-3.094 1-2-.5-3.593 3-1.125 3 2.625 3.625 5.093-1.5 6.094-4.625 4.688-4 3-4 1.125-3.094zm-340.282 182.813-1.5 1.5-1.5 3.5.5 2.5 2.5 5.593 2.094 1 4.094-3 1.5-3.593-.5-4.5-1-2-3.594-1zm12.188 39.906-2 2-.5 2 3.594 2 3.5-1 1.125-3z" style="fill:#9faec0" transform="translate(0 25)"/><path stroke="#9FAEC0" stroke-width="10" d="m1851.563 2950.75 5.343.656 8.188.313 2.969-.969zm24.78 0 .157.562v3l.406 1.5 1.594.594.594-1.094.219-.906.687-3.187.5-.469zm6.595 0 .656.469.906 1.781-.094 1.125V2956l-.094 1 .5 1.406.781.219h.719l1.375-.813 2.5-1.5 2.625 1 .281 1.5.219 1.094v2l.5 1.906 1.094 1.594 1.5 2 .406 2-.906 3.094-.5 2 .5 2 1 2.625.781 1 .719 1 2.593 3.5 5 4.094 8.313 5.5 5 3 3.5 1.5 2.187.593 3.907.094 2.593.094 1.407.313 1.281.5 1.625 2.5.375 2.5-.094.812-.688 2-.718 1.688-.375.906-.5 2.688.281 2.312 1 2.594 2 2.5 7.312 7.812 4.282 4.688 5.906 6.094 12 11.906 3.906 4 2.5 1.094h2.5l2.094 1.093 1.5 2-.5 1.407-1.5 1-1.5.718-.594 2.375.406 2v1.625l-1.406.875-1.687.625-1.907.688-.5.187-2.218.5-1.282.907-1.093 1.218-1 2v.688l.187.687 1 2 2 1.625.906 1.594-1 1.906-1.5 1-2.593 2.094-1.625 2.781-.5 3.625.812 4.094 1.406 5.5 1.5 3.906.907 1.782 4.094 6.093 7.906 9.313 6.875 9.687 3 4.125 1 3.594.406 2-.594 4-1.094 3.094-.593 1.594-.5.812 1.5 3.094 2.5 3.094 2 1.593 3.5 4.625 1 1.5v2l-.219.688-.688 1.312-.312.594-.188 1.281.188.72 1.406 1.905 2 1.594 1.5 1 1.688 1.594.625 1.5.187.594.094 2.312 1 2.094.813.5.687.5 2.094.5.906 1.812-.406 1.688-1 1.5-.594 1.5.5 1.906.594.188h1l2-.594.5-.188 1.906-1.312 1.719-2.5 1-2.5 1.094-2.5 1.5-.813.5-.187 2 1 2.093 2 1 2 1.813 2.094.5.718 3.094 2 3 1.594.906 1.594.375 1.094-1 2.5-1.594 2.093-1.5 2.5-.906 1.625-1.188 1.875v2l1 .907 1.813.906 1.187 1.594 1 2.5.188 1.718v10.5l-.5 2 .5 1.688 1.219 1.187 1.281.22 2 .593 1.5 2 .125 2v.906l.281 1.594.406 3.594 1.407 8.093.406 3-.5 2-1.125 1.5-1.375 1.125-1.625 1-.5 2.5 1 2-.188 1-.187 1.094-1.406.781-2 .625-2.094 1-.406.594-.313.5-.906 1.281-1.188.22-1.406.187h-1.5l-1.5 1-.594 1.5.907 2.406.094 1.5-2 1.5-2.594.5-2.094.5-1.5 3-1.125 3-.375 3.594 1.5 2v1l-1 2-2.5 1.5-2 1.5-2.218 2.906-1 2-.095 1.187.594 2.407 1.906 2 1.5 1.593 3.5 3.625 2.407 2.594 1 .906v2.188l-.5 2-1.094 1.406-2.5 1-1.125.5-1.5 2 1.5 1.5 2 1.094 2 .5 2.625.5 2 1.687 1.5 1.5.375 1.125.5 1.5 2 2 2 1.594 2.125 1.5 1.781 1.781 1.5 2.5 2.594 3.407 1.5 3.093.5 1.625 1.5 1.875 1.406.625 1.72.094 2.374.5 1.5 1.094v1.5l-.781.813-3.219.875-.594.312-2.094 1.406v1.5l1.313 2.5 2 2 1.094 2.594.406 1.5 1.594 2.5 1.5 1 1 1.5 1.093 2.188.313 1.125-.813 1.187-1.593 1.094h-2.719l-2.594-.406-3.5-.5-4 1.906-1.906 1.594-1.5 3.312.5 1.5.906.906.72.594 1.874 1.094.5 2.094 2 4 1.406 2.625 1.594 1 1.125.375 1.875 1.218 1 1.594.5 2.094-2.281 2.219-2.5 2.187-2.094 2.406-.5 3.094-.125 2 2 2.5.906 4.094 1 2.094v1l.906 3.5-.312 1.906-.188 1.594-.094 3.625.407 2.375 2 2.125 2.593 1.5 3 1 1.5.593 3.594.782h2.594l3.5.125 3.094.593 2 2 1.906 2.094 1.5 2.5 1.5 1.594.5.5 2.594 3 4.906 4.812 4 3.094 4.594 2.594 2 1.5 3.625 1.5 2.593.5 1.5.5 1.407.312 3.093-1 2.594-.406 3.594-2.406 3.094-2.5 6.218-2.406 3.407-1.375 3.687-1.313 7.094-2 2.594.188 3.718.312 4.094.188 4.594.125 5.406.875 1.188.312 4 2 3 3.094 2.125 4 1.875 3.219 1.906 4.593 3 3.5 5.906 3.907 6.188 2.5 8.625 2.687 4.593 2.094 3 3.094 1.282.906 4.218 4.312 5 5.188 3.407 3 3.5 2.094 2.593.906 2.407 1 2.687.906 6.094 1.094 1.594.094-1.594-3.594-1.5-4.5 2.5-1 2.094-1 2 2.5 5.125 2 4.593 2.594 6.594-6.094 5.688-9.594 3.5-4 3.625-3.593 2.093-4v-8.094l2-4.625 1.594 1 3 6.625 6.688-3 4.625-6.625 4-4.5 4.593-6.594 7.688-9.594 4.094-11.093 3.125-9.594 2-5.625 4.093-4-1.5-5.594-.5-4-2.593-1-4.125-1-4.594 2-6.094 3.5-5.094 4.594-4.593 2.5-4.125 3-4.594 1.5-1-1-1-.5.5-1 3.594-4 3.5-3.594 2.625-3 4.093-3.5 4.594-5.094h2.5l2.594-.5 1.5-.5 6.219-.5 2-1.5 3.093-1 4.594-2 4-5.093 6.188-8.094 6.625-6 6.687-3.625 7.594-3.5 3.594-6.094.5-6.5-4.594-1-7.094-2.594-7.187-1-4.625-2-4.594-2.593-5.094-2.5-7.594-3.5-9.218-1.594-3.094-1.5-9.188 4.094-4.093 5-4 2.5-5.719 2.093-6.094-.593-4.094-4 1.094-6.094 3-5.5 4.094-5.625 3.594-4.5 1-5.094-3-1.5-3.594-.5-1.594-1 .594-1.5 3.5-2.594 5.719-5 4.593-.5 6.594 3.5 2 6.594-1 5.594-4.094 3-3 3.5-2.093 2.625 2 2 1.093 1 4.594-2.5 5.094-1.5 6.094-1 4.625-1.125h5.093l6.094 2.625 5.594 3.5 2.094 3.594 3 1 8.218 1.5 6.094-3 4.594 3 6.719-.5 2-7.094-2.5-9.125 7.093-19.688 1.094-7 .5-4.593 2.594-5 3.5 7.5-1 8.593-1 6.094-.594 7.094v11.125l1.094 5.5-1.094 9.094-1.5 8.093-3.094 12.188-3.593 7.5-5.125 7.625-6.594 10.094-4.094 7.093-1.594 3 1.594 2 2.5-1.5 3.594-4 5.594-5.593-2 8.593-16.875 15.688-3.625 5.5-2 4.625-3.094 6-6.094 8.094v3.093l2 6 2.594 2.594 3 1.5h5.094l1.625-1 5.093-3.094 5.594-4 9.188-7.593 4.125-2 9.687-6.594 11.188-5.5 7.718-4 7.094-4.125 7.188-4 7.718-4.594 7.594-7 7.188-9.094 5.625-7.093 6.687-11.594 4.594-8.125 2.5-4 5.094-6.094 6.718-7.594 6.594-7.5 6.688-6.093 3-7.594-2.5-6-2-4.625-2.094-4.5-7.094-5.594-5.594-5.594-7.718-5-4.094-3.593-4.594-4.5-4-5.094-5.094-4.5-4.093-4.125-3.625-2.5-3.594-.5-4.094 1-5.094 3.5-3 5.125-1.593 2.5-1 1-1.5 1-1.625-4.5-.5-4.125-5.594-5-3-2.594-5.188 3.094-4.593-.094 2.593-2 2.094-5.5-1.594-4.094-2.5-2-3.093-2 3.093-2.5-1.593-3.094-2-3.5-2-4.593-4.125-6-2.594-6.125-2.5-6.594-3.594-4-5.094-1.5-3.593 1.5-3 6.5-.625 11.219-.5 8.593-1 6.5-4.094 3-8.188 3.594-7.593 1-4.125-.5-5.594-1-4.094-4.094-4.094-3-2.5-4.093-3.093-3.5-3.125-3-3-1.625-5.094.5-4.094.5-6.687 1.625-7.625-2.125-6.188-6.5-6.094-8.594-.5-5.094v-3.5l6.688 2 1-1.5v-10.094l2.5-2 3.094 6 2.625 6.594 3.5 5 6.687 2.094 7.594 1 5.094 2.5 4.125 2.594 3.593 2 4.594 3 3 4.125 4.094 3.5 10.219 3 3.593-.5 4.594-2 2.594-6.625v-5l-.5-5.594 1-4 2-4 3.094-3.594.5-5.5-2.5-5.094-1.594-2.5-2-1.5-2-1.093-2.094-3-1.5-6.125-.5-4-2.594-4-3.5-2.594-4.093-2-5.625-1.5-3.094-2-2-4.094 3.5-1h6.219l5.093.5 5.594 4.594 4.094 5.5 3.5 5.594 2.594 5.625 2 2.5 3.125-1.5 3.593-5.125 2-5.5 3.594-3.094-2-10.594-1.594-4-3-9.094-2.593-6.593-4.625-4-3 .5-1.594 1.5-3-1.5-1-4.125-2.594-5.5-3.594-3.594-3-2.5-2.593-2-3.5-2-1.125-.5-.5-3.094 3.125-2 5.093-.5 3.594-3.5-1-4.094-2.094-4.5-1.5-5.593v-7.125l-.5-5.5-3.093-6.094-2.5-3.5-1.625-4.094-1-4.5-1.5-3-1.5-1.594h-1.094l-2.5-2-1-2.5-.5-3.5 2.5-2.093 3.594-.5 3.125-2.5 1-4-1-6.125-2.625-7.094-3-4-2.094-6.094-.5-6.5-1-7.094-2.5-6.093-4.094-4-3.594-4.125-4.593-3.5-4.125-2.5-6.094-5.594-2-4.5v-3.094l1.5-1.5 5.094 3.5 4.125 3.094 4.593 1h3l3.594 1 3.094 1.5 1 4.594.5 3.5 2.594 2.5 3 1.125 5.125 2 2.093.5 1.5 1.5.5 3.5-1 4.093-.5 5 1 2.594 2.5 2.5 2.094 2 2 2 2.094.5 4.094.5 4-1 3.125-1h3.093l4.594 2.094 2-2.594.5-4 1.094-5.594 1.5-3h2l2.094 1.5 1 6.094-.5 4.5-1 3.094-1.594 3-1.5 5.5-.5 1.594-1.094 5.5-2 3.5-5.594 2.625-3.593 2-4.625 1.5-2 2.5.5 2 2 1.593.5 1 1.5 2.5.625 6.594-.125 7.5.625 5.594-.125 5.594 2.125 3.5 1 3.5 3.093 6.125 1.5 3.5 3.094 5.093 1.5 4 1.5 5.094.5 3 2.094 2.594 4 5 6.219 12.094 4 8.125 3.093 8.593 2.594 4.594 3.5 4.5 3.594 5.094 6.094 3 5.125 4.094 5.093 2 3.594-1.5 4.094-1 4.094.5-2.594 5v4.125l10.219 10.093 3.593 4.5 9.188 11.688 5.594 8.594 3 6.5 2.625 4.125 4.593 4.5 5.094 2.593 5.094 2.5 7.094 2 6.218-2.5.5-11.093 1-6.125-.5-10.094 1-5 .094-6.094-1.093-2.5.593-2.594-1.593-6.5-4.594-7.593-3.5-4.125-6.719-2.5-4.094-1.5-2-6.094.5-6.5 3.594-4.594 3.594-5.5-.5-9.594-1.5-6.093-.594-4.625 1.094-3.5 1-3.5-2-5.094-4.094-5-1.5-7.594-1.094-7.094.594-3 4-2 3.594-1.593 5.625-.5 2.594-1 .5-3-2-2.5-2.594-2.5-1.5-3.625 1-5 .5-2.094-3-2.5-3.625.5h-3.594l-1.5-2 4.094-3.5 4.125-1.594 3.5 1.094 1.594.5 4.593 3 4.594 5.594 2.5 6.5 1 8.125-1.5 4.593-4.594 5-4.593 3.5-1.594 3.094 1.094 4.5 2 2 .5 7.594v3.594l-1 5.5-2.094 4.625 1.5 4 1.094 3.5 2.5 5.593-.5 4.5v4.594l-3.094 5.594-1 4-1 3.5 2.5 2.094 3.594 2.5h3.093l2 2 6.094 3 2.594-4 2.5-6.094 2.125-4 2.594-3.5 5.093-4.094 4.094 2.094-.594 5.5-5.093 5.094-4.094 5-1.5 7.625-.5 7.093v5l.5 7.094v2.5l.5 3 1.5 7.594 1 5.594-.5 5.5 1 4.125.5 4-.5 4.093v5.5l-.5 4.094-.5 4 .5 5.094 6.094 3-3.094 1.5-1.5 1.5-.5 3.594 1.5 3.5 4.094 2h-3.094l-3 1.625-1.125 1-1 .5-.5 5.5 4.625 2.593 2.594 2 8.593 2.5 6.188 1 7.125-3.5 3.594-3.5 4.093-4.593 7.094-5.5 6.22-6.125 3.593-6 2.5-6.594 5.093-6.594 7.688-6 4.625-5.594 4.594-8.093 1.5-4.5 2.093-7.125 4.094 7.625-.5 3.5-1.594 4.593-3.593 5.5-3 4.594-6.219 5.5-4.094 4.594-4 5.5L2550 3267l-2 6.125 3 3.5 5.094-.5 9.72-2.5 3.093-2 7.687-6.125 9.72-3.5 6.593-4.094 4.093-4.5 9.688-7.094 10.219-6.5 7.687-4.594 5.094 1.094 10.812-5.594 9.688-5.5 4.125-2.093 4-1 7.187-.5 6.094-.5 1.094-4.5-3.594-4.125-3.094-3-6.593-8.094-4.594-2-5.625-1.5-5.094-4.594-4.094-4.5 1-3.094-.5-5 12.313 8.094 3.5 3 4.594 2.5 3.593 3.094 4.594 1.5 3.594-2 2.5-4.094 2.125-7.5 6.094-13.187 4.687-11.125 1.5-10.594 2.594-12.094-2.594-6.594 1-7-1-4.593-1.5-2-2.5-2h-2.094l-3.093.5-1.5 3.5-1 3.5-3.094 5.093-2.5 2-2.125 4.5-2.594 2.594-2.5 3.5-6.687 7.594-4.594-.5-2.5-1.594-2 .5-5.719 1.594-1.5 3.5-1.594 2.5-2.5 2-1 2.594-3.093.5-3.094 1-3.5 3v2.5l-1.125 4.625v2l-5.094 1.5-3.094 3-3 2-3.593 1.593-6.094 3.5-6.219 2.5-3-.5h-5.594l-4.093.5-1.594 1.5-3 6.594-4.625.5-2.094-2 1.094-3.594-1.094-4-5.094-2.593-.5-1.5-.5-3 3.094-2.5 8.72-5.125 7.093-3 3.093-2.5 3.594-3.594 8.094-3 11.812-1 3.594-1.5 1.5-4-1.5-3.594-1.5-2.5-1.094-2 2.594-4.094 3.594-2 7.125-2 5.094-.5 5.687 1 2.5.5 1.5.5 1.594-3 2.5-2.5 1.625-2.5 3 .5 3.094 4.5 3.093-1 4.594-5.5 4.094-7.093-1.594-2-2.5-2.625-3.594-6-4.593-13.688-2-5-2-5.094-3.094-3.5-3.625-3.093-4.594-1-5.594-.5-5.093.5-6.594.5-4.625-4.5-7.688-.5-7.187.375-7.625 3.125-4.094-2-5.594-3.125-7.187-2.5-8.125-1-5.094 1.5-5.687 3.5-8.094.5-4.125.5-5.094 2-4.094 2.5-4.093 3.125-4.094 2.5-2.625-.5 1.125-5.125 2.5-5.5 6.687-3.094 12.688-3 16.406-6 8.72-6.094 4.593-4-2.094-5.594-3.5-7-3.125-4.093-4.594-1-7.094 1-8.687 2-7.719-1-7.594-.5-6.187-4.625-3.5-7.5-1.125-3.094-3-2h-1.5l-4.094-.5-8.187 1.5h-9.719l-11.781 1h-9.219l-5.094-2-5.094 1-4.093 2.5-4.594 2-4.625 1-1.5-3.5 4.625-6.094 5.094-4.5-1.5-6.594-5.594-4.093-9.219-2-7.687-2-8.094-3.625-7.219-3.5-2-4.5 3.5-1.594h1.594l9.219 1.594 11.687 5.5 8.22 2.625 4.093 3 6.593 1 5.094 2.593 5.594 3 3.625 3 4.594 2.594 6.093-1.094 3.094-3 5.094-2 5.625.5 6.187-.5 18.907 4.094 6.593 3.5 10.188 5.094 4.125.5 4.094-.5 4.593-.5 5.094-8.594-4.094-5.594-2.5-5.5-3.593-5.093-5.094-4-6.625-2.625-3.094-3v-1.5l4.594-.5h1.5l2.125-4.5-2.125-6.094-.5-4.094 1.625-2 7.594 1.594 5.093 6 2.094 6.594 2.5 9.125 2.594 4.5 5.625 6.093 1.5 6.094 1.5 6.5 1.094 2.094 3.5 1 5.093-.5h4.594l3.594-1 3.625 1h3l2.594-1.5 2.093-3.594-1.593-3-6.594-6.094-7.719-8.593-3.5-6.5L2582 2971l-4.593-10.094-1-6.094.094-4.062zm701.562 0 1.094.562 2.094 5.5 2 5.094 3.125 7.594 1 10.125 1 5 3 3 4.093 3.094 3.594.5h1l6.094 2 3.094 2.5 4.125 4.093 2.5 5 2.593 4.094.5.5 3.094 5.094 2.5 4 6.094 4.5 5.719.625 5.593.5h7.094l8.188-1.5 3.125-1.5 3-1 5.093-.5 4.594-1.625 4.594 1.125 3.594 1.5 5.125 3h4.593l2.594-2 3.594-4 .5-5.125.5-6.594.5-4.5.5-5.094 1.594-1.5.5.5 3.5 4.594 4.125 13.594-2 9.625-2.625 6.094-9.688 11.093v5l1.5 5.094 6.594 2.5 9.719-1.5 6.687-3 4.094-1.5 2-5.594v-4.5l7.719-1 4.093-2 2.5-3.093 4.094-4 3.094-3.5 2.594-5.094-3.594-3.5-1.5-2.5-4.594-8.625-4.094-6.094-2.5-4.594-4.593-5.5-8.72-4.593-7.687-2-5.093.5-3.625-1-4-4.094-4.094-5.5-3.094-3.625-1-3.5 2.094-6.594 4-5 1.312-1.156zm146.219 0-3.031 2.656-5.688 3.094-4.094 3.5-3.5 3.5.5 3.625 4.094.5 5.094 4 6.094 1.5 8.718 3.594 6.594 5.5 7.094 7.593 4.094 5.594 3.625 8.594 3.593 3.5 3.5 3.625 3.594 5.5 1 5.094-.5 4-3.094.5 1.594 3.093 4 8 4.594 8.594 5.094-1.5 4.625-4 5.687-4 6.594-5.094 7.719-4 6.593-7.093 7.188-6.5 5.094-3.594 4.625-4 6.093-5.625 8.188-4.5 6.719-4 8.187-6.094 13.313-5 6.093-2.5 4.094-4.094 4.594-4 4.094-4.5 4.625-6.593 3.093-2 6.594-3.094 3.469-3.375zm193.906 0 .281.875 3 2.094 5.188-1 5-1.969zm-1.312 12.562-1.5 3-.5 6.094 2 2 3.093.5 2-2 3.094-.5 1.5-3.094-1.5-2-2.594-2.5-3.5-1zM2595.188 3027l-5.094 1.625-4.094 2-2 3-.5 3.5.5 4.094 1.5 3 1.5 3.5.594 3.093.5 3.5v3.594l-.594 4.5h7.188l5.125.5 9.687 2 10.688 2.594 15.906-2 5.594-2.5 1.5-2.594 2.625-3.5 1.5-3.5-1-3.594-4.125-3.5-5.594-2.5-6.594-1.593-9.187-3.5-7.72-5.094-6.593-4.5-5.594-2zm-252.282 5.406-4.093 1.5-3.625 5 4.125 4.594 2-.5 3.093-1 3.094-4.594v-4zm-3.718 92.906-4.094.5v4.094l.5 4h4.594l5.125-.5-2-4.5z" style="fill:#9faec0"/></svg>