<svg xmlns="http://www.w3.org/2000/svg" width="7813.531" height="1915.094"><path stroke="#9FAEC0" stroke-width="10" d="m7790.094 0-51.688 2-84.093 2.688-5.125.094-27.188.906-54.406 1.219-9.5 24.5-55.906 2.375-9.688.406-20.094.718-4 .095L7371 39.78l-76.406 3-6.688-.5-49.594 3.22-181.906 9.187-101.312 4.594-134 6-62.907 2.406-138.593 5.406-32.094 1.313-208.188 7.375-18.5-5.875L6184 84.688h-16l-91.812 2.719-28.594.375L6026.812 86l-24.312.406-8.187 9.094-5 10.593h-2l-40.72.688L5864.5 108l-90.594-1.72-70.906-1.374-18-.313-92.594 1.813-85.219 1.375-28.874.219-18.907.093-201.218.813h-8.094l-12.281-.219-64.625-.594L5060 106.502l-44.094-.719-5.812-.094-41-.187-44.094-3-88.187-6.813-9.813.094-11.406-.781-78.406-2.594-74.875-2.125h-1.5l-14.907-.281h-3.093l-15.907-.313-11.312-.406-6.094.125h-5.687l-11.313-.406-10.812-.5-11.688.687-3.594.313-13.812.906-6.188.375-13.406.5-3 .125-16.406.688-6.094.593-5.687.406-2.625.5-11.688 1.5-3.094.407-2.593-.219-20 1.719-35.313 3.187-63.5 5.813-251-5.907-57.906-1.406-108.281-4.28L3922.188 93 3737 82.282l-.594-.094L3618 73.001l-64.312-1.72-87.188-2.28-9.5 4-20.594 8.906-1.906-3.219-3.687-1.406-4.625 8.125-8.094 4.594-24.781-21.5-153.5 4.28-232.625 5.407-33.5.719-48.594.281-197.594.5-88.594.313h-1.593l-43 .406-141 1.375-46.313.5-78.312.5-14.5.219h-6.594l-43 .406 3-33.219-46.188-4.5L2207 44.407l-117.687-11.219-18.407-1.281 1.094 15.5 3.688 14.094L2083 77.594l2.094 14 10.094 40.688 7.5 58.312-3.688 14.188-.5 2-3.094 11.625-1.593 6-8.72 7.187-2.593 1.594-2.312 1.5-5.094-.187-20.688-.5-83.593-4.72-277.407-7.5-25.312-.687-268.188-7.093-13.406-.407-4-.094-106.187-1.812-131.22-5.094-177.187-7.312-2.593.125-41.5 3-64 4.78-4 8.313-5.5 6.594-6.313 7.594-7 8.5-18.906 13.312-4.281.188-4.907.312-8.812-4.406-1.188-1.687-7.093-9.407.28-4 .313-4.5.282-6.593L795 215l4.188-11.593-22.782-.907-25.906-1 5.188 6.5 5.5 6.907 3.812 4.687 3.313 8.906.375 1.188-.094 5-1.782 4.312-2.625 5.782-4.5 6.125-9 5.78-.875.595-7.625 5-.28.625-2.095 3.687.5 3.5 3.375 12.094.313 1 7.812 12.594 5.688 9.406 4.906 10.906 1.563 3.563H7641.28l7.625-6.25 8.594-7 3.906-2.22 4-2.187 3.281-1.812 3.625-1.094 9-2.687 4.282-1.313 5.093-4.5 2.125-1.812 2.782-2.5 1 .5 1.312.625 2.5 4.875 1.781 3.406.907 1.812 2.218 1.594 2 .813 6.282 1.78 3.906 2.5 3.5 2.22 2.687.375 7.125 1.125 4.875 1.875 3.125.312 2.782.188 3.312-1.094 3-1.094 6.094-2.187 3-1.125 3.594.218 2 .282.593.218 3.313 1.282 2.187.812h3.5l1.313-.594 1.406-1.406 1-2.594-1.594-2.5-4-2.593-5.812-3.72-2.5-3.093-1.594-3.187-5.219-15.907-1.375-2.718-2.312-4.188-.906-1.687.218-2.125.188-2.375 1.406-2.907.594-1.218.312-1.282.5-2.5-.812-1.718-1.188-2.094-1.906-2.906-1.219-1.188-2.875-2.687-1-2.125-.718-7.282.593-2.312 1.907-2.094 1.218-1.406 4.594-5.594.5-.594 4.094-5 3.5-7.593 1-2.5v-6l1.187-2.625 1.907-2 .406-1.594-1-2.406-2-2.5 1.312-2.688 1.688-3.406-.5-2.094-.5-2-.688-2.5.594-1.906 2.594-3.594 2.5-1.906.594-.406 2.312-1.282 3-1.312 2.281-1.781 1.125-.907.375-2.593v-5l-2.093-8.5-.188-3-.094-3-.312-3.625-1-2.782-2.594-7.218V122l-.094-10.093-1.5-3.72-3.125-4.593-2.375-3.312-.625-5.188-.188-.812v-6.188l1-1.906 1.5-2.688 2.094-2.718 1.812-2.282 2.782-3.593 1-2.125 2.312-4.594 1.688-3.281 1.125-2.125-.125-1.375-.188-1.5-.187-3-.125-1.72 1-1.78.625-.907.375-.812 4.125-2.688 1.093-.718 1.5-2.688.5-1 .407-6-1-6.594.875-2.5 1.625-3.093L7813.53 0h-23.437z" style="fill:#9faec0" transform="translate(0 125)"/><path stroke="#9FAEC0" stroke-width="10" d="m763.969 319.656 2.937 6.625 2.188 15.625-1.906 15.594-8.094 15.688-9 6.5L736 380.906l-8.094-2.125-5.593-1.375-11.407-2.906-7.812-.719-13.781-1.187-9.125 3.687-3.188 3.125-2.312 10.5 2.5 11.188L690.313 418l24.187 14.094 14.094 8.187 4 2.406 7.219 4.094 3.687 4.719v9.688l-.187.593-2.5 8.219-6.407 6.594-9 1.187-6.593.906-7.5 1.094-8.72 3.5-8.905 1.906-11.5 2.313-19-1.406-8.875-2.906-2.22-.688-28-9.219-1.405.125-12.594.281-5.188 1.22-4.406 4.28-3 8.407 2.406 6.5.782 2 5.406 5.187 6.594 6.219L625 519.094l11.188 9 4.718 3.687 4.688 3.813 3.812 5.406 3.594 5.281 1.813 3 2.093 3.125 4.782 6.782 5.625 4.218 11.375 8.5 8.312 6.188 8.813 13.5.687 6.406-4.094 12.281-13.218 13.219-6.594 2.406-36.781 13.407h6513.28l4-8.22L7158 620.5l3.188-6.094 2.624-2.5 6.094-5.718 11.688-7.094 2.218-3.188 1.5-2.125.876-1.281 1.718-.594 2.094-.812 3.906-1.407 4.5-1.687 2.594-2.594 3.094-4.125 2-1.375 2.5-1.125h2l7.812-.094 4-.5 4.688-.5 3.406-1.594 2.906-1.312 5-2.188 5-2.812 9.781-5.375 7.22-5.625 3-.5 2.593.5 2.406.719 3.781 3.281.5.406 3.813 2.313 3.688.781 3.624-.281 1.188-.813 2-2 1.594-2.5.406-.687 1.594-2.407 3.093-1 2.813.188 2.594.312 1.5.094 2.812.313 1.281-1 1.813-3 .688-2.094.812-2.5 1.688-1.812 5.906-4.813 1.812-2.375 5.188-7.312 1.594-2.094.625-.812 2.593-1.5 2-.594 3.094-.5 4.094 1 4.906 3.187 2.313 2.313 2.593 2 2.688.5 4.5.906 3.312 2.281 3.688 1.219 10.406 1 7.688-1.594 2.906-1.125 5.312-2 2.594 1 1.5 2 1.813 5.625 4.28 8.782 4.313 8.718L7403 570l2.406 6.281 1.407 3.125.875 1.782 2.718 1.218 2.407 1.094 3.78.188 2.813-.282 3.782-.625 5.625-1 15.187-.094.688.094 7.718.407 2.407-.5 3.593-2 4.782-4.782 6.406-3.906 1.812-2.406 1.594-1.907 1.188-3.687 1.406-2.594 2.5-1.218 2.594.406 6.812 2 4.188.687 2.5-.094 2.5-.906 1.812-2.594 3.313-5 4.375-12 3.125-6.28.78-1.72 8.5-20.687 58.5-115.813L7588.189 375l2.718-5.219 3.407-6.5 1.875-3.688 2.625-2.406 1.5-1.594 2.78-2.406L7609 349.5l3-1 7.188-3.594 2.5-2 6.218-6.125 5.407-8.281 3.187-4.907 4.781-3.937z" style="fill:#9faec0" transform="translate(0 100)"/><path stroke="#9FAEC0" stroke-width="10" d="m635.813 639.313-1.625.593-5.094 2.594-3.594 3.5-6.594 6.594-6 14.593-2.093 25-.625 6.5-.594 6.313-2 5.594-2.5 4-3.281 3.187-3.625 3.625-5.375 5.188-7.5 7.312-9.125 16.188-2 6.593-2.5 8.5-.5 8.313-.375 7.281 1.093 7.125 3.594 5.5 6.5 4.5 8.813 6.188 5.5 3.812 3.5 2.375 4.687 4.407 3.094 2.812 11 10 .906.781 6.594 6 2.312 4.719 8.188 16.406 1.719 4.188-5.907 15.093-14 7.907-9.593-2.907-10.625-13L576.313 856l-17.407.688-19 7.906-13.406 8.187-4.906 23.313 1.312 7.406 7.188 5.781 49 21.813 5.719 5.906 2.093 6.594-7.718 11.312-3.188 1.875-3.687 2.219H6673.78l.532-.812 1.28-3.594.313-3.5 2.5-8.813 2.688-4.687 7.094-8.594 7.625-7.406 3.375-5 2.218-5.688 4-2.406 2.907-1.094 2-.812 1.78-.688.5-2-.093-1.312-1.313-14.313V887l-1-3.906-.187-3.5.312-2.594.594-.812 3.094-1.5 2.312-.188 5.094-.312 2.781-.594 2-2 3.625-4.594.5-1.5-.5-2.5-1.125-.812-1-.688-.5-.312-4.093-1.688-1-2 .5-2 1.5-3.094 1.312-2.718-.312-3.5-.5-3.282-2-4.125-5.782-12-5.625-9.875-1.187-3.718-1.188-2.188-.218-2 1.5-.594 1.593.5 7.125 2.282 3.5-.094 2.594-1.5 1.188-.813.312-2.593-1-5.688.688-3.719.5-2.687 1.312-1.094 4.094-3.594 7.5-2.718 10-3.688 5.5-1.406 6.187.5 4.813 2.187 3.094 2.125 5.906 3.782 7.687 3.406 4.625 3.594 3.688 2.906 2.594 3.5 2 5.594 17.5-3.688-1.188-7.594-.406-3 1.312-3.218 1.688-2.782 2.594-3.125 4.718-4.375 3.375-3.125 1.5-2.593.813-2.594.906-3.5.5-1.813.5-1.093 1.781-2.688 2.125-3 1-3.5-1.125-2.406-3.5-8.094-.281-1.812-.312-2.688.406-2.812.5-3.688 2.094-5.094 1.5-1.718 3.093-2.907 2.813-1.875 2.312-1.718 10.782-3.594 6.812-4.5 6.281-4.188 6.813-5.5 3.594-2 9.812-5.5.188-.312.718-6 21.375-11.906 4-7.188 11.719-7.312 11.5-7.094 9.5-2.313 7.281-6.781 6.125-1.906 3 1.812 7.282 5.5 4.812 4 .188 6.5.218.594 4 2.5 9.782 6.5 1.093 1.5 9.219 3.594 1.281 3.5-7.375 6.187-4.218 5.407.218 6.093-4.406 10.813-4.594 5.906 1.5 8.906 5 1.375 3.188 5 .687 2.907-.281 3-2.594 9.218-.812 2.594.594 2.5 1.406 1.5 4.187 1.188 12.407.812 6.093.406 2.5 1 2.313.782 1.187 1.218 2.313 2.375 2 2.125 2.5 1.5 2.812 1.094 3.375-.219 5.625-2.5 5.094-5.093 6.688-4.282 3.406-2.312 2-1.5 2-1.188 3.312-.406 5.094-2 2.094-1.219 6.406-3.593 5.781-1.907 2.625-2 3.594-3 2.281-3 4.907-6.093 1.218-1.5 6.282-6.688 3.312-2.594 3-2.218 5.188-2.907.906-.5.5-.687 6.5-3.906 32.094-65.875z" style="fill:#9faec0" transform="translate(0 75)"/><path stroke="#9FAEC0" stroke-width="10" d="m572.313 959-1 .594-2 1.093-3.407 1.5L559.5 965l-5 2.281-3.187-.187-4.5-.313-5.625-1.781-5.5-1.906-4.094-1.407-3.781-1.28-4.313.593-2.594.281-1.312.219-4.906 2-3.782 1.594-3.718 2.812-2.875 2.282-2.313 3.5-2.312 3.593-4.688 16.5-.312.907-1.5 5.312-2.5 5-3.375 2.094v.094l-11.5 11.406-23.5.812-4.125.782-7 2.593-6 3.625-9.5 7.5-1-.406-.594.406-12-10.718-1.688-2.907-13.406-7.593-43.094 22.906-4 6.594-1.593 7.406.187 11.312.094 6.094.219 9.094.094 7 2.093 7 6.688 10.687.312.5 5.5 8.907 5.188 6 4.625 5.5 9.594 5.312 4.906 2.688 5.594-.188h3.093l5.594-.094.5-.125 5.094-2.281 3.125-2.406L424.094 1114l.594-.219 2.5-.281 2.5-.219 2.312 2 2.907 2.719 2.5 2.187 4.187 13.594-3.406 15.125-6.281 6.688-.407.312-22.312 10.594-8.281 3.906L390 1174.5l-16.812 6.406-7.875 3-6.219 2.5-4.28 3.188-4.907 3.812L347 1198l-1.593 5 2.093 10.094 4.313 9.687 1.094 2.5 2.406 5.313 3.687 4.093 3.594 3.907 9.22 3.406 11.374 4.094 2 2.906 2.312 9.5.688 2.781.406 2.906-1.187 5.5-1.219 5.094-1.594 3.875h5525.282l4.53-4.375 3.282-4.094 1.5-1.78.813-1 2.593-2.313 6.094-4.094 12.906-8.594 4.5-4.5 2-3.625 2.094-1.5 2.406-1.781 5.72-2.313 2.374-.187 2.813-.219 1.5-.094.812-.094 4.188 1.688 1.687.718 1.5.594 2.5-.594 3.625-1.906 1.594-.5 3.594-.594 11.593.282 3.22.125 1.374-.625 4-1.688 4.406-2 4.594-.812 2-.782 3.125-1.218 3 .406 4.094-.594 2.094-.406 4-.5 5.187-.594h10.813l4.593.406 9.22 2.282.687.125 3.093.375 2.907-.375 1.093-.5 3.5-1.813 8-2.594 5.594-1.718 4.313-1.594 3.5-3.094 1.593-1.406 1.907-1.094 1.687-1 2.813.594 1.812.406 3 1.188 2.688 1.906.406.5 2.687 3 3.594 3.906 3.313 3 2.687 1.813 2.625.28 3.688-.093 4.406-.813 4.594-.687 3.812-.594 2.875.406 5.719.688 2.187.312 2.407-.5 4.687-1 7.219-.625 8.687-.094 4.594.5 5.719 2 6.094.5 5.687-1.093 4.813-3.188 2.812-1.906 3.094-2.5 4.5-5.719.406-.5 1.688-3.281 3.093-5.813 7.094-10 2.813-3.28 3.312-3.813 3.5-2.5 6.094-8.094 4.094-3.094 2.093-.5 9.22-.125 5.093-1 8.187-4.594 4.594-4.593 3.625-2 7-2.094 3.188-1 2.593-3.406 5.5-7.188 3.594-2.906 2-1.594 3.625-1.625 4.375-1.594 4.5-1.687 4.906-3.906 2-3.5 2.094-3.813.5-3.781 2.5-4 4.625-4.094 2.688-2 2.906-.5 1.781-.5 5.906-1.625 7.72.5L6355 1117l3.812 2.187 1.188 1.313 1.812 1.781 2.875 3 2.719.406 2.906-.5 3.688-1.406 3.5-3.687 2.312-6 1.875-5 1.813-3.688 2.093-1.906 6.407-2.5 2.812-1.094 2.375-2.625 1.5-1.594 1.219-2.406.187-2.594.22-2.093 1.593-1.407 1.781-1.28 2.719-1.407.781-.406 1.906-1.594 1.5-1.906v-6.313l-.094-2.687 1.594-3.594 1-2-.094-3v-6.094l1.906-3 1.782-2.719 5-3.406 4.124-4 3-2.094 4.594-1 4.688.407 7.094.5 3.218 1.187 2 .813 2.5-.5 4.094-2.094 3.094.5 2.094-1 2.5-1.219 1.5-1.281 2.624-1.594 2.376-.125 5.312 2.125 3.688-8.5 1.312-2.812 2.594-5.907 7.094-7.093 1.312-3 1.094-6.594.812-3.094 1.907-.906 4.093-2.094 2.5-1 6.688.5 5.594-1 3.124-1.625 3.376-.875 2.718-.625 2.594.406 4.594-.5 3.812-1.687 7.5-3.5 9.094-6.594 8.5-6.125 5.313-4 3.593-1.5 3.407-1.594 2.593.407 3.094.812 2.094.281 3.219.5 2-.28 5.093-.907 2.094-.406 1.406.187 13.5 1.406 3 .313 3.094 1 2.313 1.406 4.374 2.594 4.126 1 2.593-.5 4.094 1.5 2.094.687 5.094 3.22 3.5 1.28 2.624.313 2.5-.219 2.688-.875 4.188-3.125 6.718-8 5.407-5.187 3.374-2.813 2.72-2.187 1.374-2.094zm-267.22 272.5-5.093 1.094-4.687 1-14.5 3-1.125.312-4.282.875-4 2-5.593 12-.5 1.219-1.5 7-1.5 6.781-2.907 11.875h99.344l-14.75-5.875-1.187-6.687-1.813-4.406-2.5-5.688-.187-.594-2.72-4.312-2.687-4.188-1-.812-16.593-13.5-.813-.188z" style="fill:#9faec0" transform="translate(0 50)"/><path stroke="#9FAEC0" stroke-width="10" d="m259.406 1278.656-1.312 5.344 3.312 21.094 14.5 19.906 7.782 6.906-.188 7.094-6.812 16.594-5.188 21.5-10.687 6.906-5.5 12.094L269.688 1414l-20.875 5.188-19.22 4.5-3.405 7.218-8.875 15.375-19.125 22.813 2.406 12.906-4.094 24.5-3.594 2.406-3.718 1.094-3 1-3.782.281-2.593.219-3.625.281-3.688.313-6.187.5-1.407.094-12.312 1-7.406 6.094-.782 3.718-1.093 4.407.094.687-1.907 13.094 13.407 22.5 9.093 2.219 34.5-.22 14.594 14.595 6.313 15.406.906 2.125h5304l6.094-3.625 3.5-3.188 4.593-6.5 3.594-3.093 2.719-2.313 4.875-1.312 2.625-.5 4.594.5 5.406 2.625 2.781 3.375 1.719 5.5 2 6.625 1.25 1.906h72.031l1-1.813 4.094-3.218 2.5-.5 2.312.406 6.813 1.312 3.781.688 1.906-.281 3.094-.625 5.219-3.094 2.594-2.906 2.5-3.688 6.093-5.406 2-1.688 9.688-4.093 3.625-2 4.594-2.625 3.906-2 2.781-2.094 2.906-3.281 4.094-8.407 3.094-2.5 4.219-2.906 4.5-3.187 2-2.5 1.093-2-.094-3.5-1.312-3-3.781-4.625-6.125-4.782-3.375-4.812.187-4.906 2.5-6.094.906-3.406.094-4.094-.094-4.094-1.312-3.312-1.781-7.188.5-2.5 1-1.594 1-.406L5727 1477l7.594-7.718 2.594-3.375 2.218-4.72 1.782-5 .312-3.687.188-1.812-.282-6.281-.312-5.313-3.188-7.094-3-6.5-2.406-3.812-2.187-2.281-1.125-1.907 1-3 2.312-1.312.688-.406.718-.282 2.407-1.593 9.687-9.125 3.313-4.875 2.187-5.72 2.094-4.093 2.219-1.594 6.5-5 4.093-5.093 2.782-2.625 2.312-2.375.5-2 1-1.625 1-1 3.094-1.5 1.219-1.188 1.28-2.312 1.407-2.5 2.188-1.594 3.406.594 5.219 1 2.187.406 1.5-1.094 2.5-2 3.688-4.094 3.5-4 3.5-2 4.718-1.593 3-1 1.5-.313.594-.094 2.5-.594 1.406-1 3.188-2.125 1.594-1.5 1.5-1.875 2-1.718 2.625-1 1.78-1.782 1.22-2.812.5-4.5-.5-4.5.5-2.5.5-3.594 2.093-2.5 5.094-6.094.406-.5 4.282-6.812 5.218-5.406 2.688-1 2.906-.5 4.594-1 5.5-1.094 2.594.5 6 1 4.625-.5 20.375-6.188 4.906-3 1.281-1.25H384.594l-.188.438-4.5 2.906-3.718 3.094-1.594-.188-12-4.718-3.844-1.532z" style="fill:#9faec0" transform="translate(0 25)"/><path stroke="#9FAEC0" stroke-width="10" d="m220.313 1598.313 3.875 9.28-2.188 9.5-7.687 3-6.813 5.813-3.312 5.5-10-1.625-8.094.125-.281 19.5 13.593 21.688 10.5 3.687 10.407 4.625 7.875 4.282-.875 9.218-2.407 5.5L222 1701.5l-3.406 3.688-2 2.218-5.406 5.688-5.188 3.312-7.187.594-11.313-4.5-10.5-7.094-4.187-2.718-3.907-2.688-5.093-1.906-5.22-2-6.093.5-10.187 4.687-4.5 3.407-4.72 3.718-7.187 7.688-1.406 1.406-2.094 5.5-1.312 3.406-1.688 6.094-2.406 9.281.594 5.219.594 5.781.312 1.407-8.906 23.593-8.094 34.907-13.812 3.218-19.188-6-8.187-2.625-1.125-.094-4.375-1.281-3.813-1.219-4.812-1.593-5-1.688-3.594-1-.5-.219-3.5-.406-3.594.406h-.594l-6.093.594-.625.219-5.688 1.094-3.687 2.312-3.813 4.875-3.5 4.313L4.188 1820l-1.594 5.781-.281 1.219-1.72 7.281L0 1841l.688 5.406 30 1.188 356.5 12.812 147.406 4.781 73.406 2.407 75.188 2.187 189.5 5.406 41.906 1.407 100.812 2.5 134.907 3 29.687.812 83 2 3 .094 91.313 1.094 33.28.406 107.595 1.906 112.312 1.782 121.813 1.812 29.78.594 12.72.187 73.093 1.5 67.782 1.313 3.906.187h6.906l-.406-.875-2.5-4.906 1-6.5 17.906.406 93.813 3.375 84.375.5 136.906 2.719 13.719.281 42.187 1 141.906 2.719 9.094.188 348.188 7.718 4.906.188 11.812.312 297.688 9.5h43.594l48.718-.125 58.907.407 273.593 1.312 91.688-1.594h7.219l407.093 1h15.782l221.125 1.688 119.875-.188 83.906-.718h16l19-.282 2 .094 28.906-.718 40.406-1.5 103.407-4.375 157.28-3.407 3-.094 72.313-1.812 79.407-1.906 32.187-1 20-.594 18-.594 88-2.406h4.188l10.218.094 94.282-.5 37.906-.5 84.094-2.094 4.125-.094 54.093-1.594 3.5-35.5 14.188-170.218 3-36.407 1.906-21.187 4.094-4.094 3.094-1.5 2.5-2.312 3.625-3.282 1.28-1 10.407-8.125 5.594-6.593 3.094-2 .625-.376zm5349.75 0 1.343 2.093 3.281 2.782 4.72 1.718 4.28 1.375h3.126l3-1 2.874-1.281 5.313-2.312 6.313-1 2.593-.282 9.594-1h6.688l2.218 1.375 4.406 2.719 3 1.281 3.188.219 1.5-.5 2-1.5 2.594-4.687z" style="fill:#9faec0"/></svg>