<svg xmlns="http://www.w3.org/2000/svg" width="4456.813" height="5566.406"><path stroke="#9FAEC0" stroke-width="10" d="m153.406 0-.594 22.094-.125 1.718-.593 15-.406 17.782-.782 31.219-1.219 49.5-.78 31.187-.407 15.188-.812 32.812-.782 32.688-1.094 47.406-.406 16.719-.5 18.593-1.219 46.906-.375 16.188L142 444.5l-.406 16.594-.406 13.5-.094 3.094-.407 13.125v2.093l-.094 8.406v5.094L140.5 509l-.312 13.5-.094 3.688-.5 16.625-.594 16.093-.312 10v7.688l-.375 8.406-.125 5.188-.5 13-.188 3.125v14l-.094 3.187-.406 16.594-.5 16.218-.5 11.375-.094 6.72-.313 9.405-.094 4.188-.406 11.406-.094 3.282-.5 14.406-.094 2.718-.406 16.094-.407 16.188-.5 18.593-.28 13.125-.407 16.188-.5 17.094-.406 16.093-.407 16.22-.406 17.593-.375 14.188-.406 11.812v4.813l-.5 12.78-.031 1.782h2512.5l-.469-54.875v-9.812l-.719-77.094-.094-15.688-.187-16.093-.219-32.72-.187-17.187-.094-15.593-.22-16.125-.187-31.282-.906-97.312-.281-43.782-1.625-171.5-.5-81.218-.188-30.781-.187-32.313-.625-82.187-.375-71-323.813.874h-9.093l-49-1.593-4.407.219-5.593-.22-53.22-1.5h-.874l-114.219 2.22-186.5 3.093-122.906.688-11.188-.094-13.187-.094h-25.719l-6.594-4-6.5-.094-14.406.187h-1.094l-8.687-.187-27.125-.313-41.875.094-20.125-.094h-94.188l-53.593-.187-50.094-.313-13-.094-79.406-.312-81.907-.5-12.812-.094-76.781-.5-68-.907-8.407-.094h-6.5l-30.687.094h-48.125l-15.875.094h-59.406l-2.72-.187-3.374-.094-15.906-.219-204.907-2.094h-20.312l-11.375-.187h-4l-33.813-.313-47.093-.406-26.094-.594-8.719.094h-9.781l-30.719-.094-37.281-.094-17.406-.094-9.22-.219h-7.687l-16.906.125-56.781-.125-16.406.22h-.5l-14.813-1-2.594-.22L261.31 5.31l-15.313-.718-16.406-.594-3-.188-16.406-.812-15.281-.813-19.594-1.093-21.906-1.094z" style="fill:#9faec0" transform="translate(0 125)"/><path stroke="#9FAEC0" stroke-width="10" d="m129.375 912.375-.062 2.031-.5 16.188-.406 16.593-.5 10.313.094 7.313-.5 8.78v5.313l-.313 10.782-.094 5.906-.406 12.812-.094 4.282-.281 15.718-.406 17.094-.407 16.594-.5 14.093-.406 11.813v4.906l-.594 10.188-.094 6.906-.312 16.094-.281 16.219L123 1150l-.687 23-.5 16.094-4 139.594-.22 3.124-.687 18.188-1.312 29.688-.781 21.5-1.125 28.906-3.188 82-.187 7-.907 24.812-2.093 54.188-5.22 139.218-3.75 107.594H4343.97l-.969-36.718-.906-32.188-.5-18.5-.5-16.687-.781-33.313-.625-16.187-.282-8.5-.218-5.907-.188-18.312-1.187-42.781L4336.5 1565l-.094-2.094-.406-15.5-.594-18.093-1.406-46.5-.094-3.407-.219-12.812-1.094-32-1.687-63-.594-19.688-.406-15.593-1.219-45-.375-21.5v-2.22l-.406-14.905-.594-31-.625-18.875-.094-7.813-.781-17.906-.5-23.406-1.906-57.875-27.094.094-18 .593-13.219.188-65.594 1-18.906.312h-.687l-13.22.5-174.187 6.407-22 .687-1.906.094-28.781.812-3.125.094-67.094 1.907h-2l-29.781.593-14.313.313-10.312.187-11.688.219-16.406.375-33.781.906-68.72 1.5-63.5 1.5-46.905 1-48.875 1.094-40.72 1.218-7.405.188-87 2.5-28.782.906-19.406.594-45.687 1.812-3.407.094-178.812 1.907h-4.094l-12.406.187-15.781.094-15.907.219h-.812l-15.094.094-7.187.094h-4.125l-4.094.094h-.188l-16.718.125-15.875.187-16.407.094-112.218.907-35.375.312-192.125 1.594-1.813-217.031h-2512.5z" style="fill:#9faec0" transform="translate(0 100)"/><path stroke="#9FAEC0" stroke-width="10" d="m98.344 1844.906-4.438 128.282-1.406 53.124-1.187 55.188L88 2233.188l-2.094 85.124-3.312 143.094-.688 32.688-2.594 111.594-3.406 114.812-1.687 56.938h4295.875l-.406-13.626-.594-20.906-2-72-.406-16.093-2.282-81.626-1.593-58.374-.313-7-1.5-56.407-.906-32.718-.5-16.688-4.406-161.094-.376-14.093-1.906-64.907-1.593-53.5-.907-32.718-.406-12-.094-4.094-2.5-100.907-1.594-42.187-.406-16.094-.312-10.093-.188-8.5-.812-31.72-.126-5.187z" style="fill:#9faec0" transform="translate(0 75)"/><path stroke="#9FAEC0" stroke-width="10" d="M74.219 2777.438 73.5 2802l-.5 16.094-1.687 53.594-.907 28-.594 16.624-.812 28.376-1.594 52.624-.5 14.594-2.094 69.407v1.28l-4 107.907-1.406 35.813L56.813 3300l-.626 16.594-.5 7.312v1.188l-.593 47.594-.407 32.718-.687 62.907-.187 15.093-.22 20.594-.093 1.5-1.188 47.813-.906 30.687-.094 7L50 3640.906l-.907 40.282-.75 28.78h4343.094l-.844-30.468-4.281-283.812-.219-14.094-.094-4.906-.187-10.188.094-6.906-.406-9.188-.5-35.093-.407-14.22-.405-16.093-2.094-81.094-.406-15.593-2-73.407-.188-7.593-.406-16.126-2.406-80.5-.376-16.093-2.406-81-.094-4.5-2.625-92.688-.781-28.218-.312-10.75z" style="fill:#9faec0" transform="translate(0 50)"/><path stroke="#9FAEC0" stroke-width="10" d="m48.344 3709.969-1.438 54.219-.406 13.5-.5 19.718-10.094 388.907-1.406 54.78-.687 25.22-3.407 130.28-.094 2.313-6.125 138.594-.094 2.188L21 4642.5h4411.437l-2.03-83.687-1.72-72.5-.093-7.125-.282-9.594-.5-22.594-1.125-48.812-.375-16.094-2.812-126.406-.188-8-21-128.782-1.812-59.406-.688-24.187-.812-28.625-.813-30.188-.375-16.094-1-39.812-.312-9.094-.907-38.187-.094-1-1.312-41.313-.281-11.594-.313-16.093-1-48.313-.094-5.5-1.062-39.531H48.343z" style="fill:#9faec0" transform="translate(0 25)"/><path stroke="#9FAEC0" stroke-width="10" d="m21 4642.5-.687 23.313-.125 1.687-2.094 69.688-.5 16.624L16 4803.595l-.688 23.594V4829l-.906 39.5L14 4893l-.312 17.094-.876 40.906-1 48.313-.624 24.187L0 5542.813l39.313.374 15.374.407 48.813 1 15.906.312 16.406.407 4.188.094h11.688l22.625.593 17.375.407 8.218.187 1.781.094 14.125.312 17.5.313 14.782.375h2.094l41 .625 7.718.094H300l9.688.5 4.625.187 14.375.094 16.406.125h3.094l15.406.188 13.312.187 81.594 1.625 18.5.375 13.813.22 15.875.405 32.812.594 29.813.594 18 .312 16.375.188 17.406.312 16.406.188 34.406.5h13.282l3.625.187 12.375.125 18.406.188 15.906.187h4.094l27.718.5 15.875.22h3.125l13.375.186 17.907.313 32.812.5 15.407.094 15.875.313h3.125l16.375.28 31.312.407h1.594l30.812.313H972l13.094.094 12.093.187 24.125.406 30.282.313 41.5.281 69.812.5 34.906.594 73.282.719 71.906.687 41 .313 45.687.406 73.907.5 105.593 1 13.407.094 19 .187 15.906.219 49.187.375h11.813l18.5.219 15.906.094h3.188l40.406.312h4.094l24.093.094H1953.5l9-.094h6.906l65.188-.312 13.812-.094 37.5.281h2l14.907-.188 9.78.094 14.813.313 19-.219 15.907-.187 19.5-.094 66.687-.407 74.406-.093 16.407-.407h17l40-.406h.78l11.5-.406h19.5l8.72.125h15.374l16.407.094 9.312-.22h3.594l18.906.22h5.688l73.406-.813 1.5.094 3.094.313 1.5-.094 3.593-.094 5.126-.125 72.374-.782 151.313-1.406 119.188-1.312 23-.282 103.124-1.218 63.094-.375 52.907-.313h1l6.093 4.688 9.688-.094 119.094-1.594 290.406-4.594 60-1 204.219-4 163.687-3.5 41.094-1 382.219-10-7.407-264.906-.906-32.689-.906-32.218-.906-30.688-.376-16.593-.718-23.907-.781-30.593-.407-15.72-1.906-69.405-.187-6.875-.22-7.625-1-33.282-.593-22.718-1.687-71.875-.313-12.5-.094-2.625-.406-14.594-.313-13-1.187-49.906-.094-5-.406-13-2.188-68.094-.406-17.594-.969-39z" style="fill:#9faec0"/></svg>