<svg xmlns="http://www.w3.org/2000/svg" width="1566.906" height="2550"><path stroke="#9FAEC0" stroke-width="10" d="m1566.906 0-28.093 1.094-139.22 4.594-170.905 5.812-23.375.594-50.907.719-74.718 6.78-50.375-.78-94.125 2.78L804.5 17.407l-27-.406-52.406 1.094-14.688-2-25.5-4-25.406-1.406L501.313 8 395 10.188l-78.406-3.376L207.313 9.5l-9.22.094-110.405 2.593-4.5 14.313-3 9.687-.594 2.407v3.593l1 4 1.312 2.125.5.688 1.907 3.094 2 3.812 3.5 5.094 1.28 2.406.595 2.281.218 1.313v3.594l-1.093 2.5-.125 4-.282 9.312v.906l-.312 8.594-.188 5.688v.906l.407 4.094-.625 3-.094 1.406-.188 1.687-1.5 2.907-2.094 3.218-1.5 1.782L83 121.812l-.906.688-1.5 1.5-2.5 1.5-1.688 2.5-2.094 2.906-1.125 2.5-1.093 4.188-1.782 6.906-4.125 16.094L65.094 167l-1.282 7.312-.625 1.282-1.187 2.5-2.594 3.593-2 4.125-1.5 3-.219 1.5-.094 2-.094 4-.094 3.188 1.5 5 2.594 3.594 3.5 4.593L68.093 217l3 2.5 3.5 2.812 6.719 5.594 3.593 5 3.407 5 1.187 2 1 2.094 1.094 3.594.5 3.5.406 3.718.094 1.375v2.5l-.5 4.125-.5 3-1.594 3.5-2.5 3.094-.812 1.281-.688 1.313-1.906 3.312-2.187 4.782-1 2.5-1 3.593-.22 1.5-.28 1.5-1.5 3-1 3.125-2.22 3.594-1.874 3-.813 1.594-.5 1.406-1.093 2-1.094 3.5-.5 6.688-.313 2.312-.187 2.281-.5 5.313-.125 1.312-1 6.5-.875 9-.5 12.594 4.5 4.188-4 10.812-2.125 6.5-2 5.094-.281 1.812v1.375l-.094 2.907.875 2.593-.594 2.72-1.094 3-1.094 2-.312.687-.906 1.218-1.594 1.5-1 2v2l.5 1.094-.5 2.5-1.094 1-.906 2-.5 2.094v1.094l.094.312h1447.5V417l-.5-2-1.094-2.5v-3.094l-1.094-1.5-1.5-1-1.594-.5-1 .594-2 1-2.5.594h-1.593l-2.125-.5-1-.5-.5-1.594 1-.5h1.5l1.625-.5.5-.5v-1l-1.125-.5h-2.5l-2-.5-1.094-1-2-1-1-2v-2.094l.5-2.5-.594-2.5-.5-2.094-.5-1.5.5-1.5 1-1.5v-2.125l-1-.5-1.187-.5-2.5-.5-1.406-1-1.5-3-.907-2.093-.5-2.5-.594-2.5-.593-3V365l-.125-3 .5-2-.5-2.594-1-1.5-1.5-3-.594-2.812-1.594-3.5-3.594-5.094-5.5-8.406-2.218-3.688-.594-1.406-.781-1.906-1.406-2.688-1-1-2-.906-1.594-2.594v-2.5l-.125-2.5-.5-2-.593-2.593-1-3-1.594-2.5-1-1.5-1-2.5-.094-2.125 1.5-2 1.5-1.094 2-.5 1-.5 1.5-1L1449 291.5l2.5-2 4-5.187 1.5-2.5 1.687-2.407 2.5-3.094 5.125-8.625 2-2.5 3.094-2.593 3-2 2-1.594 2.594-1.5 2-1 1-1 1.5-2.094 1.094-2-.094-2 .5-3.094.5-2 1-3.625 1.093-3-.094-3.187-1.312-3-1.094-2.5-1.187-3 .5-2.5 1-2 1.593-1.594 1.594-1 2-1.5 4.5-3.594 1.5-2.625 2.5-4.093 1-3.594 1-3 .406-3.594-1-2.5-.593-3-.313-3.5.5-2.5 1.406-2.594 1.094-2 1-2-.406-3.218.5-1.5 1-2.594 2-2.5 2-1.594 2.5-.812 2.5-1.5 1.5-1.094 2.125-1.5 1-2 4-5.594 2-2.594 2.094-2.5 2-2 1.5-2.625 1.5-2 1.5-3.593 1.406-2.688 1.281-3.5 2.594-1.906 1.5-1.594 1-1 1.5-2.094 1-1.5 1.5-1.5.5-1.124.5-1.5-.5-1.5-1.594-1-1-.5-.5-1-.594-2-1.5-2-1.593-2.5-6.594-6.594-1.625-3-1.5-3.594-1-3.5-1.094-3-.5-2.094-.406-2.594.906-.906 1.594-.719.625-.874-.219-1.5-.5-1.5-.5-2.5-.5-4.126.5-4 .406-2.593.5-2L1528 63l-.5-1.5-1-1-1-.5h-.5l-1.093-1-.5-1.5-.5-2.5-1.5-2.094-1.594-2.5-1.5-.5-1.5-1.5-1.719-1.812L1514 44l-1.5-1.5-1.093-1-1.813-1.812-.5-.688-.906-2 1-1.687.219-.407 1.687-1.718 1.719-1.594-.125-1-.5-2.5-.094-3.5 1.5-4.094 2.5-2 3.094-2.594 4.5-2 4.125-2.094 5.5-1.5 4.593-.624 5.594 1.406 4.594 1 1.594.5 2.5.906h1.5l1.5-1.5 1.625-1.812 2-3.594 2.5-1.5 2.593-1.594 2-1z" style="fill:#9faec0" transform="translate(0 125)"/><path stroke="#9FAEC0" stroke-width="10" d="m53.188 417.906.125.5 1 1.094.375 1.5-.094 1.5-1 2L52 426l-.906 2.094L49 430.688v4.5l.594 2v2.406L48 443.813v4.093l.187.906.625 1.5 1.375 2 1.5 2.594 1.407 4.594L55 464.094l.906 2.719.281 1.375v3l-.593 4.625-.907 4 .625 2.593.594 1.5L57 487.812l.187.594L58.812 493l2 4L62 499.094l.906 1.5 2 3.906L67 508.094l1 1.094 3.5 3.5 2 1.5 2.094 1.625 2.093 2 1.5 1.28 1.5 1.22 2 2 2.5 3.093.5.5.407 1.094.718 1.406 1.5 2.594.594.906 1.5 2.594 2.094 4.594 2.406 4.312 2.406 3.094 1.875 2.594 1.5 2.093.407 2v5.625l1.093 2.5 1 2.188.5.906 1.407 4 .218.688 4.375 7.218 3.22 7.782 1.187 3 1.718 4.593 1.375 4.625 1.313 5.094.406 5.594.094 5.094.094 3 .094 2.906.406 7.188.406 4.625.188 1.375L121.5 637l.313 2 .281 3.906.094 5.094-1.094 5-3 10.188-1.906 3.406-.687 1.093-2.5 4.625-1.813 3.188-.594 1.094-2.093 4.718-2.094 4.188-1.813 5.188-1.093 4-1.094 4.125-1.594 4.375-.625 2-.875 2.625-2.5 4.5-2.125 3.093-3 4-.687 1.594-.594 2.188-2.219 4.5-.594 2.906v5.093l.813 6 .281 1.5 1.906 4.407 1.907 5.593 2.312 7.125.5 1.594 1.281 7.594 1.094 6.406.219 1.282.281 6.125.219 2.593.187 3 .313 4v6.594l.187 1.5.594 2.094.906 2.5.907 3.5 2 4.5 1 3.593.906 2.5.687 2 .5 3.907.407 5.093-.094 1.813-.313 2.906-.187 3.094-.313 3.5-.5 2.5v.063h1001.094l.719-2.375v-2l-.5-3.094-1.094-1.5-1-1h-1.5l-.5-1-.5-2 .5-3.094 2-6 .781-3.094 1.094-2.718 1-1.5 1.719-2.282 3-2.093 2.5-1 3.093-1.22 1.688-1.593 3-3 2.5-2.594 1.5-2.5 1-3.093 1-3-.094-3.625.5-3 1-1.782 1.5-3.093 2.094-1 1.5-.5 3.625-1 3.5-1.625 3.593-1 6.407-3 5.093-2.594 3.688-1.688 5.094-2.093 3.625-1.813 4.593-1.5 4.782-1.594 5.625-1 5.375-.5h3l2.625.407 4 .5h2.593l3.282-.5 2.5-.625 3-2.5 3-3.094 4.625-3.594 4.875-1.406 3.625-1h2.593l3 1 3.094 1.5 3.594 2 3.5 2.5 4.094 2 4.625 1.5 3.78.5 4-.594 5.595-1.594 3.625-2.593 5.093-2.407 6.5-3.812 3-1.188 5.5-2.093 4.594-1.5 4.094-2 2.5-2.125 2-2.094 1-3.5-.094-4.594-.594-9.594.188-2v-2.5l.218-4.093 1.875-5.125 4-5.094 3.625-3.594 4-3.594 4-1.906 3.594-2 4.594-1.594 3.5-1.5 3.593-2.093 3-1 2.594-1 .406-.125 2.094-.375 1.625.5 4 3 1.5 1 1.594.5 2.5-.125 1.5-1 1.5-1.594 1.5-2.5 2-1.594 2.593-1.5 3-.594 3.688-.5 3.625-.312 3.5-.5 3.594-1 3.5-1.594 4.593-2.5 6.313-6.312 2.875-2.282 2.719-1.718 3-1.5 2.593-2.094.907-2 1-2.594.5-1.5 2-1.594 2-1 2.593-1.593 2.5-.813 3-3 2-3.594 1.5-4.5 1-6.593.5-3.625.907-1.782 1.5-1.5 2-1.593 2-.625 1.5-.5 2.687-.688 1.094-1.406.719-1.688-.594-1.5-1.125-1.406-1.094-1-1-1-1-1.5V608l1-2.094 1.5-2 2-2 1.594-.593h1.5l1.5 1.5-.5 2.093v1l1.625.5h1.094l2.093-.093 2-1 1.5-2.125 2-2.5.5-2.094 1-2 1.5-1 2-.594h4.094l2-.594 2.5-.312 1.594-1 2-1 1.5-2 1-2.594 1-4 1-3.594.5-1.5.5-1 1.625-.5 1.5 1h2l.5-.5v-1.093l-.5-1-.719-.907-.281-1.093-.5-1.5.094-1.813.594-.594.593.282 1.594 1 .625 1.625 1 .875 1.094 1.125h1l.406-.625.375-1 .125-1.594-.5-1-.812-1-1.5-2-1.688-2.906-2-2.5-2.625-2.094-1.5-2-1.594-2-1-1.5.5-1.5 1.5-.594h6.094l2.625-2.5 3-4.594 1.5-3.093.5-3 .5-3.5-1-3.125-1.5-2-4.125-3-5.094-4.094-3.78-3.906L1473 516.5l-1-2.5-.594-2 .5-2.5 2-2 2-2.594 2.094-.5 4.093-.5 4.5-.593 3.094.5 2.5.5 2.719.5 2-.625 2-.5 1.5-1.5 1-1.594 1-2.5 1-1.5 1-.094h1.5l1.594.5 1-1-.594-2-1-2.094-1.594-2-1-2.5v-2.5l2-1.593h1l1 1.5.094 2.093 1 1.5 2-.593 2.188-.813 2-2 2.406-2.594.5-2 .406-2.312-1-1.5-1.094-1.5V473l-.5-.594-1.5.282-2.124.906-1.094-1 .094-.781.5-1.22v-1l-.282-.78-1.406-1.125-1.594.718-1.312 1.188-1.5 1.094-1.688-1.094.5-1.281 1-1.5 1-1.22.094-1.5-1-1h-3.593l-2 .5-1.594.095-.5-1 1-1.594 3-2 1.594-.094 1-.5 1-1V456l-.594-2.094-.5-3-.625-5.593-.094-3.5.5-2 .5-.625h1.5l2.094.5 1 .5 1-.5v-1l-1-1-1.594-1.5-1.5-.5-1.594-.5-1.5-1-.5-1 1.5-.5 2.594.406 2 1 1.094-1.094-.094-.687-.907-1-1.5-1-1.5-.625-2.093-1.375-1-.625-2-1.375-1.5-.72-1.782-1.5-.718-2.093 1-1.187 2.093-1.313.5-1.5v-.094z" style="fill:#9faec0" transform="translate(0 100)"/><path stroke="#9FAEC0" stroke-width="10" d="m105.594 844.563-.594 2.343-1.406 5.688-3.094 6.593-2.594 4.22-4.5 3.905-4.093 2.5-3.5 2.594-3.625 2-2.5 2.094-2.188 2.406-2.5 2.688-.687.718-1.625 3-2.188 5.594-2.187 5.5-.407.907-1 2L64 902.688l-2.094 2.125-3.093 2.093-1.5 1-1.72 1.282L53.189 911l-3.282 3.094-3.093 2.812-1.22 1.094-3.687 4.094-.906 3-.5 3.093-.312 1.407V931l-.594 3-.094 3.5-.094 3.313.281 5.375L39.5 953l-.688 6.313-.312 3.187-.5 2.594-1.5 4.093-2.594 3-2.5 3.625-1.219 1.688-1.375 1.813-2.406 2.875-2.219 3.718-.5 3v3.594l.219 1.313.406 2.187.5 2.594v2.812l-.219 5.594-.406 3.313-.375 2.375-1.813 5.718-1.406 4.188-5 12.906-5 12.594L7 1056.813l-2 4.687-1.094 2.406L2.187 1068l-.875 2.094-.906 3.406-.313 2.188-.094 1.5.407 2.906 1 4 1.593 2.594 2.813 2.812 3.375 3.094 4 2.094 4 4.312 3.719 4.313.406.593 2.594 4.5 2.093 5 .5 6.188.407 2.594.593 2.906v5.094l-1.187 4.5-.813 2.124-.812 2.376-.594 3-.5 3.718-.187 2-.5 5.594v3.094l.187 1.812.813 4.594.906 4 .375 1.5.312 2.688 1.094 6 .313 4.624.406 4.094.281 3v1.5l-.5 4-.687 4.094-.22 1.688-.374 2.812-.125 3.594.812 4 .594 3.594 1 3 1.906 7.124.188.594 1.5 6.5 1.5 4.094.719 1.688.78 3.812 1.72 2.313.906 1.28 1.594 2.5 3 3.5 1.187 1.22 1 .874 2 3.126 1.406 5.374 1.094 3.126 1 3 .75 3.906h970.063l-.313-1.531-.594-2.5 1-2.094.5-1 1.5-.5 2.594-1.094 3-1 2-1.594.5-1.5 1.719-2.906 1-2.5 1.5-3 1.187-2.5 1.594-2.406 4.406-5.281 6.5-5.126 5.094-3.5 2.5-2.093 2.594-1.5 2.625-2 1.5-2.094 1-2-.125-3 .5-2.594-.094-3.5.5-3.593v-3l-1.094-2.5.188-3.5.218-2.22 1.907-1.78 1.687-1.22 4-1 2.594-2.093 3-3.594 1.5-3 .406-2.593v-3.5l.5-2.126 1.5-1 1-.5 1.5-.5 1.5-1.093v-1l-.5-.5-1.5-1-3.594-1.906-2.593-.5-2-.5h-2.125l-1.5.124-2 1-1.594.5-.5-.5v-1l.5-2.5.5-2.124-.094-5v-2.5l.094-2.688-.594-1.5-.812-1.094-.875-1.812-.5-2.5-.625-2.5.5-2.594 1.5-2.5 1.5-3.094 2-3.093 1-3-.094-3v-2.626l.5-2 1.5-2.093h2l1.5.5 1.093 1.5 1.5 1.5 1.625 1 1 1 1.5-1 .5-1.594-1-2-1.625-1.5-1-3-.593-2.5v-1.5l1.093-2.094 1.407-.5 2.218 1.094 2.594.313 1.406-.72.375-1.5.125-1.593.5-1.687.875-2.126.313-.5.406-1.187 1.5-1.5 1.094-1.5.594-1.594-.688-2.5-1-2v-4.093l.5-2 2-2.5 1.594-1.626 3-1.5 2.594-1 2-1.5v-1.593l-.5-1.5-2.094-1-1.5-1-.5-1.5.5-1 1.5-1.5 2.594-1.094 2-1 .906-1 1.5-1.5 2-2.594 1.5-3 .5-2.093.594-2.126-.688-1.374.406-2.72 1.094-1 1-.905 2-.5 2.594-.095h2.312l2.094.407 1 .094 1.594-.594.406-1.5v-1.406l-.312-1.594-1.094-1-2.5-1.5-1.594-1-2-1-.094-1 1-1.5 1.594-.594 2-.5 2.5-1.5 1-1.093 1-2 .5-4.126-.094-3-1-2-1.625-1.5h-3l-2 2.125-1.5 1.5-2.094 1.094h-1l-1-.5-1.594-1.5-1.5-4-1.094-3.593v-2l-.094-2.5v-2.625l.782-2.688 1.093-2 2.125-2.406 1.5-2 2-1.094 2-1 1.5-1.094 1.5-1.5.5-1 .5-1.5v-4.593l-.125-2-1-2.5-.593-1.625-1-1.5-1-2-.594-3v-2.5l.906-4.094v-3.5l.094-3.188-.5-1.812-.687-1.5-1.313-2-1.406-2.188-1.594-1.5-2.5-2.906-2.094-3.5-2.718-5.594-2.5-5.5-2.594-5.093-2-4-.593-2.5-1-2.625 1.5-4.5 1.5-2.594.906-2.094.594-1.5.593-2 .5-2v-3l1.094-2.594 1-3.5 1-2.593.406-3 .5-2.5.5-3.125.407-4.5v-3.094l1.5-4.594.906-3 .5-4.094-1-3.593-1.719-3.125-1.594-2.5-1-1.782-1-2.593-.187-3-.406-5.125.187-.625H105.592z" style="fill:#9faec0" transform="translate(0 75)"/><path stroke="#9FAEC0" stroke-width="10" d="m50.344 1271.219.25 1.375v4.312l-.594 2.782-1.187 4.5-1.125 4-.594 3.312-.094.813.094 3.28 1 2.595 2 3 1.594 2 .5 1.906v3.219l-.594 2.28-1.594 2-1.906 2.22-2 2.093-1.594 1.5-2 2L40 1324l-1.594 2.5-.5 2.594v1l.282 1.406-.094 2 1.5 2.594 1.812 2.812.594.782 1.5 2.124 1.906 2.594 1 1.5.5 1 1.094 2.5.312.594 1 3 .875 1.813 1.5 2.874 2.125 2.72 1.5 2.5 2.688 3.406 1 1.187 3.5 3.094 1.906 3.719.5 2 1.188 4.28.5 2.095 1.5 5.406-.094 4-.094 1.594-.313 2.124-1.406 3.282-1.594 3.312-1.5 2.594-1.687 2.594-.907 1.312-1.5 2.594-2.312 3.688-.781 1.312-1.594 4.094-1.406 4.094v2l.187 2.406-.094 3 .406 3.406-.593 3.188-1.125 3-1.282 2.312-.593.813-1.5 1.593-3 2.188-2.125 1.5-2.5 1.906-2.094 1.5-1 2.5-1.5 3.094-.688 1.594-.218.812-1.094 3.5-1.094 3-1.594 3.5-1.718 3.5-1.594 1.906-1.594 2-1.094 2.407-.5 3.593-.718 3.094-.594 2.906-.781 3.094-1 4.594-2.5 8-.72 2-.28 1.094-1.5 2-1.625 2.5-1.094 2.812-1.094 2.406-1 1.094-2.094 2-1.593 2.406-1.125 2-1.688 3-1 3.594v2.5l.188 1.406.625 2.094 1.875 4.594 1.906 3 2.406 5.312.5 1.782.188 1.5v4.124l-1.5 3.094-2 2v1.907l.5 2.593.718 1.688.282.812v2.5l-.5 2.594-1.5 2-1.594 2-1.5 3.594-.188 1-.094 1.5-.625 3.5.407 3.5 1.5 3.094 2.093 2 3.125 2.5 1.094.718 1.406.907 4.594 3.5 3.094 2.5 2.5 2 3.094 1 2 .5h1.093l.907-.22 2.718-1.405 1-2 1.094-2 1.906-1.376 1.5-1.624.875-1.188.407-.687 1.218-2.407-.5-1.593-1-1.626-.5-2.593.5-2.5.5-1.5.5-1-.125-.906-.375-1.688v-4l1.594-2 2-2.094 1.5-1.5 2.094-2.5.5-2.5-.406-2.312-.094-.781-.094-2.5 1.093-5.22 1.5-4.405.188-.688.312-.812v-2.094l2.5-2 2-.594 1.094-.406 3.094.5h2l2.125.312h1.375l4.219-.312.5.094 1.5.406 3.093-.406 4-.594.688-.281.906-.219h1.5l2.5-.094 2 .5 2.094.094 3.125-1.406 3-.375h1.094l1 .187 2.5 2 1.593 1 2-.5 2.094-1 2.5-.5.5 2.594v1.5l-.5 2 .5 1 1 1.5.094 1v1.594l-.594 1.5-.406 1.125.5 1 1 .875 1 2 3.312 2.812 1.813 3.313.5 4 .5 3.281-.5 3.813-.5 2.5v1.593l.281 1.188.22 1.312v1.5l-.407 1.907-1 2.593-1.094 2.094v3.5l1 .406 1.594.094 2.5-.5 2 .094 1.906 1.125 1 1 .594 1.094 1.781 2.406 2.5 1.688 4 2.094 4 2.218 2.125 1.375 4.094 4.125 1.5 1.375 1.094 1.125 1.5 2.5 1.593 2.5 1.5 4.5.313 4.094.187 1.406.22 1.188.374 3 .906 3 1 2.687 1.407 3 .5 3.125-.094 1.375-.72 3.5-1.5 3-1 3.125-1 3v3l.5 3.094v5.5l-.187 5.594-.562 13.375h703.969l-.907-2.688-2.093-3.093-2.72-2.782-4.093-3.5-1.406-1.718-.281-.407-2-2.281-.22-4.094v-3.125l1.626-4.5 2-4.093 2.375-3.782 3.125-5.625 3-5 1.594-5.593 1-6.094-.313-4.406-.094-4.188-.5-4-.187-4.094.5-4 1-4.125 1-3.5 1-2.5 2.094-3.093 3-2 2.593-2 5-2.094 8.094-4.094 4.5-3.094 3-2.125 2.813-1.781 2.5-2.594 2.78-2.812 1.407-2.594.406-.719.688-1.875.406-3.218-.594-2.5-.906-2.188-1.594-3-1.593-4.094v-2l1-3.5 1-2.312 2-3.094 1.593-1.5v-2.5l-.593-2.094-.5-2.5.906-1.218 2-2.094 3.5-2.188.594-.718 1.187-1.907 1-2.5 1-2.593v-2.5l-.5-2v-2l.5-2.094.5-1 2.5-2.5 2.594-5.094 3-5.5 1.5-4.094 1.406-3.5.594-2.625-.5-2.5-1-3.093-1.281-4.5.187-6.594.5-5 .5-4.094 1.094-3.5.906-4.094 1.5-2.5 1.594-2.125 5.5-6.593 4.5-5.094 3-4.094 2-2.594 1.812-2.718 2.5-2.094 2.594-1.594 4.094-2.094 3.5-2 5.125-3 3.094-2.5 3.593-1 3.5-2.125 2.594-1.593 2.5-2 2-3.094 2.5-5.094 2.5-4.594 2.5-4 4-4.625 3.5-2.093 2.094-1 2.5-1.688 1.219-1.219 1.093-2.5.094-2.5-.187-2.5-.5-3.093v-2l1.5-3 1.093-1.594 1.5-1.5 2.5-3 2.594-4.594 1-3 1.5-2.594 1.5-2.5 2.594-2.5 1-2.625.5-3.5-.781-3.5-1.094-3.687-.719-2.906-.5-2.5-.594-2.094 1.094-2 1-3 1-2.094 1.5-4v-5.094l-.5-5.5-1.594-4.625-1-6.093-.687-2.688-.625-3.312.219-4.094 1.687-2.5 3.094-2 2-.594 3-1 2.125-1.094 1.5-1 .5-2 .375-2.625-.5-2-1.594-1.5-1-2-.187-.968H50.342z" style="fill:#9faec0" transform="translate(0 50)"/><path stroke="#9FAEC0" stroke-width="10" d="m149.938 1697.875-2.344 54.313-.906 18.812-3.188 125.813-.094 4.28v1.72L138 2039.906l-1.906 47.782-1.407 36.843h675.594l.406-.625 1.125-2.5.5-2.5L812 2116l-.5-2.5-2.188-4.812-2.219-4.5-4-6.282-2.093-2-1.5-2.5-1.094-3-1.594-2-.5-3.593.5-3 .375-3 .719-4.626.281-5.5.125-1.093-.406-2 .5-3.094.5-3 .5-2.187 1-2.126 1.094-1.687.906-1.312 1-2 .5-2.094v-3l-.5-2.5-1.594-2.282-1-2.5-.625-2.5.125-1.812 2.5-3.594 3.594-3.5 2-2.093.906-1 .375-1.813-.093-3.5-1-2.812-.5-3.5-.688-5 1-3.594 1.5-3.5 1-3 1-4.094.5-2.406-.312-2.188-.188-1.406-1-3.594-.5-3-1.094-3-.718-3.594.593-2.625.313-1.093.594-1.688.906-3 .812-2.219 1.094-1.5 2.5-1.5 3.594-3.093 2-2 3.594-4.094 2.5-4.5 2-4.094 4-9.219.906-3.5 1.5-4.593.812-4.094.5-3.594 1.094-3.906 1-3.094 2-3.594 2-4.5.406-3.125-.5-1.5-2.125-2.5-2.593-2.5-3.094-4.5-1.594-4.5.5-3.593.688-4.094-.407-2.094 1-2 2.125-3.906 1.5-2.594 1.5-2 3-3.594 3.094-2.625 1.406-3-.5-2-1-1.5-2.125-1-2.593-.5-3 .625-3.594-1-4.094-2.5-2.094-3-.625-3.5-.5-2.5-.093-5.125.5-4 .312-3.687 1.688-2.406 1.5-2.094 2.5-3.594 1-2 .406-2 .5-4.594 1-3.5.406-4.625.5-4.5.406-4.593.5-4.594 1.375-4.5 1.813-9.188 2-11.625 1-4.593 1.906-7.594.594-3.813.312-4-.312-3.78-.094-3.595-.812-2.812 1.093-2.688 2-3.625 1.813-5.78 2-5.595.5-3 .5-3.5v-4.125l-.5-3.5-.094-.312z" style="fill:#9faec0" transform="translate(0 25)"/><path stroke="#9FAEC0" stroke-width="10" d="m134.688 2124.531-.188 5.282-3.5 47.5L128.094 2289l-.594 17.906-.187 3.907-4.125 109.5-.5 10.593-5.594-1.5-.906 12.5-.094 3.188v4l-.5 3.593v3.5l-.407 2.813-1.5 2.813-.593.5-1 1.5 1.812 11.187 2.406 13.406L121 2510.5l3.906 18.406 2.688.188 3.812.312 43.594 1.688 112.594 4.093 43.906 1.313 76.094 2.094 18.406.5 52.312 1.406 191.5 6.094L795.406 2550l-1.094-1.906-2.406-4.407-4.906-7.593-3.688-6-1.125-3-.5-3.094-.093-3-.5-3-1-3-1.5-3.594-2.094-3-3.594-2.5-2-2.5-2.219-2.093-1.593-1-1.782-.407h-2.125l-2.5.594-1.593 1.906-2 1.594-2.594 2.5-1.688.406-1.906-.718-.5-1.5-.719-2v-2l2-2 .313-2.282-.094-2.593-.5-3.126-.906-3.093-.5-1.5-1.5-2-1.594-2-2.094-1.5-2.5-1-3.125-3-3.187-3.5-2.5-2.5-1.5-3-2.594-4-2.094-3.5-2-6.094-2.625-8.094-1.5-6-1.093-2.593-.5-3.5v-4l.5-5.626v-5l-.5-2-1.094-2.593-1-2.5-1.5-3.5-1.313-3.407-1.187-3.687.094-3.5-.188-5.094.5-4.5 1-3.593 1-4.5 1.5-3 1.5-2.126 3.594-2.5 3.094-2.5 3-2.593 1.406-3 2-3.594 1-2.5 1-3.5.187-3.094.72-3.5.5-2 .5-1.593 1.5-2.5 1-2.626-.095-3-.5-3-.125-3.5-1-2-.093-3.593.5-3v-2l-.594-3.094-1-3-.594-2.5-1.312-3.5-.782-2.5v-2.094l.875-3.5 1-2 2.625-1.593 2.5-2 2.5-1.626 2.594-1.5 2.5-1.093 4-.782 6.094-2.124 6.187-1.5 6.125-2.5 2-1.594 1.594-1.5h4.5l1.594-.5 1.5-1 3.5-2.594 1-2 1.5-2.594 1-2.5.5-2.593-.094-2.5-.312-2.126-.406-1.093-.282-1.782-.312-2.124.719-2.094 1.5-1.907 1.5-1.5 1.5-1.093 2.093-1.5 2-1.094 2-1 2.5-.812 2.5-4.094.5-2v-2.5l-.5-1.782-1.093-2.5-2.5-2-4.22-3-3.593-3.406-2.094-4.593-.406-5.5.094-4.126.5-2.593.593-2.407v-3.093l-.593-2.5-1-2.5-1.594-2.5-1.5-3-.594-3.5.5-2.594 1-2.5 2-1.5 2.5-2.094 3-3.093 4.188-3.907L805 2164.5l.5-.687 1.313-2.5 1-3.5.687-2 .313-2.126-.5-3v-3l-.625-3.093-1-3-.5-3-.5-2.594v-3l.5-2.5 1-1.5 1.5-2.094 1.593-2.375z" style="fill:#9faec0"/></svg>