<svg xmlns="http://www.w3.org/2000/svg" width="7486.188" height="3245.438"><path stroke="#9FAEC0" stroke-width="10" d="m4753.5 0-.187.906-.313 1.281-.5 2.907.406 2.593 1 2.5V18l-.094 3.313-.5 3-.718 1.78-.5 1.095-1.594 2-1 2-.594 3.5.281 2 .407 1.124.312 1.188.687 2.406.5 1.188.22 1.718v2.5L4751 48l-.406 1-2.188 2.406-3.094 5.5-1.625 2.688-.281.593-.594 4.126 1 4 2 3.593 4.594 4.594.594 1.094 1.406 2.406 1.5 3.094.406 1.812.5 3.688-.5 3.5-1.625 3-4 6.5-1.281 2-.906 1.406-4.313 6.594-2.781 4.812-.813 1.906.907 1.782 1.5 1.094 3.094.624 4.812 1.094 6.5 1.906.406.094 3.594 1.5 1.5 2.094v1l-.719 1.312-.281.688-2.094 1.406-3.125 2.5-.594 1-.187 1.094-.594 3.5-.5 1.687-.5 1.813-.625 2.312-.781 1.688-1.906 4.312-.907 1.782-3.593 7.312-3.688 5.188-1.906 2.812-1.219 1.5-2.5 3.594-3.687 4.406-4.188 4.5-2.125 2.5-3.094 3.906-.906 1.375-1.187 1.907-1 1.593-.5.907-1.5 2.593-1.688 2.125-1.406 1.375-.594.5-3.125 1.907-1.687 1.218-.407.282-1 2.5-1.093 3-2.094 4.5-2.406 3.312-.313.406-2.5 3.282-2 2.5-2.281 2.593-1.594 3.5.375 2.125 1.625 1 2.688 1.282 3.187 1.593 3 2 1.813 1.813 1 3.5-.094 2.5v1.906l-.219.906-.375 3.188-.719 1.906-1.5 4-1.281 2.594-2.313 4-4.687 6.594-2.125 2.812-7.281 9-4.719 6-1.594 3-1 2.5 1 2.5 1 1 1.5 1.094.594.5 1.906.5 1.5 1.094.5 2v2.5l-.594 3 1.094 3.093 1 1.313 1.094 1.094 1.406 1.718 1.219 1.282 5.594 3.593 3.5 3.125 1.093.5 2 1 1.188.282.625.406 1.094 1.5-.094 1-.219.906-.906 1.594-2.094 2.5-4.906 5.812-6.188 4-5.5 4.594-4.094 4-2.718 4.5-2.094 4-.406.906-1.188 3.5-1.406 3.094-2.781 5-2.625 3.906-2.594 3.594-3.094 2.906-3.687 3.5-2.625 2.5-3.5 2-2.282 1.5-.906.375-4.906 2-1.281.407-3 .593-2 .5h-1.125l-3.094 1-4.094 3-2.094 1.72-.593.5-3 3.28-5.219 5.5-.5.5-3.781 5.72-4.5 6.78-4.407 6.125-3.218 4-1 1.375-2.282 2.5-3.593 4-3.125 2.125-4.094 2.782-3.688 3-2.906 2.593-6.406 8.407-6.188 7.5-9.906 11 16.813 15.812-10 12.906-5.719 6-9 11.875-4.094 6.5-.562 1.125H5731.53l-2.218-.312-1.813-.313-1.187-.687-6.5-3.406-5-4.407-4-3.093-3.125-5.5-1-5.282.312-4.718.813-5.594.593-1 .282-1.813.406-1 1-3.5 1.5-2.78.406-3 .094-2.5-.687-3.813-2.094-3-2.313-2.282-2.187-1.625-1.219-.593-2.5-1-4.094-1.5-3.312-1-3.5-.907-2.594-.5-3.094-2.093-.406-.407-3.687-2.875-3.594-2.906-4.625-4.094-.875-.718-4.625-3.782-2.281-1.625-1.594-.78-5.219-2.313-1.406-.5-4.281-1.407-7.72-3.093-5.687-1.782-.406-.218-3.594-.594-1.812-.188-2.281-.312-6.72-.594h-2.187l-7-.093-12.312-.625-11.781-.594-9.72-1.5-12-2.688-2-.219-6-.78-10-1.094-7.874-1.125h-5.219l-5.094-.094-3.593-1-1.313-1.094-1.5-1.5-3.687-4.5-1.594-3-2.125-5.5-.375-.906-1.5-2.688-3-5.593-4.125-5.72-5.688-8-2.906-3.5-2.187-1.187-1.594-.812-.719-.406-3.187-1.188-1.907-.906-1.406-.406-1.687-.688-2.22-.5-1.874-.812-2.125-.782-2.188-.906-1.312-.687-6.188-4.5-2.093-3-.407-.907-1.593-3.218-1.5-4-.5-2.688-.22-2.687-.093-4.5 1.5-5.22 1.5-6.093 1.5-6.312 1.812-7.594 1.5-5.594 1-2.094 1-1.406 1.5-2.594.5-.5 2.094-1.5 3-2.5 4.406-1.906 2.688-1.187 2.906-1.313 1.594-.687 2.594-1.22 4.218-2.093 3.5-2 2.594-2.094 2-3 .188-.718.406-3.094v-3l.094-3.594.625-4.187 1-2 1.375-1.907 1.219-1.718 4.5-4.094 2.593-2.594 1.5-2.406 1.188-2.094V262l-.281-4-3.72-3.594-3-2-2.687-1.906-1.593-1.312-2-1.594-4.22-4-3.093-3.5-1.5-1.5-4.281-3-4.125-2.5-3.094-1.094-1-.312-2.094-.688-4-1.5-2.593-1-4.094-1.594-5.125-2.593-2.094-.907-2.594-1-1.5-.406-2-.187-.906-.125H5462l-3.593-.594-.5-.188-2.094-1.218-1.906-1.594-.813-1-.781-1.281-.813-1.22-1-1.593-.687-.906-3.125-4.094-2-2.406-.5-.781-1.5-2.313-1.188-2-2-2.906-2.406-3.281-1.781-3.125-1.125-4.594-.594-3 .5-3.094-.5-1.906-1.594-3.5-2.593-2.5-4.594-1.906-3.406.906-3 .812-.813.282-3.594 1.625-2.312 1-2.781 1.093-9.094.594-10.313-1.594-11.406-2.218-9.594-2.5-1.812-.594-6.094-2.188-8.406-3.5-6-3.312-2.594-2.094-2.281-2.312-1.313-1.375-1.093-1-1.594-1.625-3.125-1.5h-2l-2.594 1-2.406 1.5-2.094 1.5-3.094 1-4.093 1-5.094-.594-9.313-2-2-.5-3.187-.281-3-.72-6.5 6-5.719 5.5-.781 1.907-.313.5-1.5 3.094-2.687 5.5-3.625 5.5L5272 185.5l-2.093 6-2.594 5-1.625 4.594-1.094 6.5-1.094 5-2.093 5.094-2.72 3.906-.593.906-1.781 2.094-2 2.594-1.125 1.406-1.094 2.5-.187 1-.313 1.594.406 5 .5 3-.5 4.5-.312 1.625-.594 1.875-1.281 2.625-1.625 2.375-1.781 2-2.907 3.625-.906 1-2.594 4-3.093 6-2.407 7.375-.312.625-3.094 8.5-2.094 7.875-1.093 5.718-1.22 5.407-1.593 5-.5 5.5-1.5 4.187-1.687 3.813-2.594 3-2.719 4.5-2.094 4-1.593 3.5-1.594 6.5-.813 2.593-.5 2.688-.687 4.312-.406 2.188-1 4.312L5205.5 365l-3.312 1.094-30-24.594-77.375-63.812-36.219-29.282L5026.906 223l-3-2.687L4981.093 186 4897 117.688l-42.093-36.282-16.094-13.5L4822 53.813z" style="fill:#9faec0" transform="translate(0 125)"/><path stroke="#9FAEC0" stroke-width="10" d="m4548.438 535.813-3.25 6.375-3.094 6-3.094 4.5-2.094 2.5-1 1.125-1.593.375-2-.594-1-1.5-.5-2.5-.5-2-2-2.594-1-1.5-.626-.594-1.093-.718h-1l-1.5.5H4520l-1.406-1-.094-2.594v-2.5l-1.406-1.688-1.094-.812-.906.218-1 .5-1.688 1.594-.594.688-1.906 3.718-1.594 3-2.718 4.282-2.094 2.5-2.094 1.312-1 .594-.406.188-1.594 1-2.594 1-1.5 2-2.718 3.812-1.594 3-2 4.594-2.094 3.5-2.594 6L4479 587.5l-5.313 8.094-3 3.406-2.093 1.094-1.782.812-1.218.594-2.188.5-2.406 1-.688.906-.906 1.094-.812.906-1.688 1.594-.594.5-.718.813-1.594 1.093-1.5 1-1.406.907-.407.093-2.281.5-2.906 2.688-2.094 1.906-1.5 1.5-2.094 3.406-2.406 2.406-2.094 1.094-1.718-.594-.282-1v-1.125l.594-3 1.094-6.5.812-7 .375-4.093.719-5-.5-1.282-1.5-1.625-2-.5h-2.594l-3.125 1L4424 596.5l-6 2.687-4.188 3.5-3.125 3.407-2.093 3.5-1.5 2.718-.907 1.5-2.093 4-2.188 2.875-2.094 2.407-2.406 2.718-2.594 1.375-3.625 1.5-3.093 2-2.407 1.625-2.375 1.782-2.812 2.593-1.188 1.407-5.406 7-3.594 6-4.125 5.906-3.187 6-2.813 5-.781 1.594-3.312 8.906-2.688 9.094-5.594 11.593-5 11.407-3.125 6-1.093 1.906-4.907 6.687-5 7.813-4.187 7.5-3.406 6.094-1.282 2.406-4.312 7.5-1.594 3-2.594 5.312-2.718 9.5-3.094 7.094-12.813-11.312-58.593-51.594L4194 683.406l-2.5 2.407-1.187 3.093v1.282l.093.625.782 1.375.5.812v2.906l-1.594 2.5-.594.907-1.5 2.093-1.5 3-.594 1.907-.5 1.593-.593 2.5-1 2.5-2.125 2-1.782.907-2.406 1-3.094 1.875-2 2.625-.718.78-1.094 1.72L4169.5 726l-.312.813-.5 3.5-.094 3v3.593l-.594 6.5-1.594 3.5-1.593 2-2.626.5-2-.593-3.593-.5h-5.188l-6.719 2.5-1.5 1.5-1 1.28-.593 1v2.5l.406 2.72 1 3.375.5 2.5-.5 3.218-1.094 5.282-1.594 4-1.5 3.218-.625 1.407-2.187 4.375-5 8.218-6.5 8.282-4.906 9.312-1.407 4-1.28 3.5-2 6.688-1.22 4.812-.78 2.906-.095.782-1.125 4.906-.594 4-1 4.5-.094 3.5.907 2.812.5 4 1 1.782 1 1.718 1 3.907v4l-1.094 4-.625 4.687-1 4.313-1.688 3.687-1.093 2.5-1.594 6.5-3.406 1.906-2.594 1.907-1.5.593-2.719.282-1.687-.782-1.5-1-.594-.906-.906-1.187-1.5-1.125h-1.594l-1.813.125h-.812l-2.188.375-2.906 1.5-1.094.812-.687.688-1.313 1.5-1 1.5-2.687 4.5-3.625 5.906-3.188 7.5-6.906 14-2.687 5.593-2.5 3.5-1.094 3-1 3.625-.625 3.375-.5 3-.688 6-1 5.125-1.593 4.594-1.907 5.688-.906 2.093-.906 1.625-1.688 2.875-2.312 3.5-.281.5-4.813 9-8.906 15.5-5.781 10-4.313 7.813-2.687 5.094-.407.906-3.093 6.5-2.094 5.5-1.719 6.5-1.094 4 .094 3.594.407 2.594 1 3.406.406 2.094v1.124l-1.094 3.5-1.219 1.907h1656.688l.625-2.031 2.094-4 3.093-5 3.72-6 3.093-5 4.187-8 4.094-7 .5-1.5-1-4.094-5.5-7.5-2.594-4.594-2.5-3.5-5.093-3.094-1-3.5-1-2.593-3-6.5v-4l2.593.5 4.094 4.5 7.625 6.593 4.594 3.594 4 4.094 5.187.5.5-1.5 1.094-4 3.625-4.5 6.188-6 3.094-2.5 2.593-4.5-2-5.594-3-8-.5-5.594-1-1-1-.5-7.687-5.593 2.094-2.5 2.593.5 7.125 2.093h3.594l6.781-8.5v-7l-2-4.093-1.5-.5-3.093-1.5-3.5-4.625 1.5-4.5 3.593 1.625 2.625 1 2-1.5 2.688-9-5.594-10.22 3.094-5.5 5.187-6 4.125-.405h4.688l3.594-3.5.5-6-.407-3.5-3.093-3.094-3.594-3-1.5-3.094v-2l6.687 1.594 5.125 4 7.188-1.906 5.594-.5 7.718.125 2.594 1.5 2 3.593v4l-3.594 1.5-.125 5-2.5 1-3.593-.5-3.594.407-1.594 2.5-3.594 4 1 3.593 2.5 3 3.094 4.5 2.5 3.094.5 5 3 3.094 6.688-1.5 9.812-3.406 9.781-4 2.5-1-.375-5.5 1.594-7.5 2.594-2.5 2.5-1h3.594l.5 1.5 1.5 2.5 1.593.625 2 1 2.625-.5 4.094-.5 5.094.593h3.594l1-1.5.593-2.5-1-3.5-1-3.093-2-4.5v-1.5l-3.593-3.125-3.594-2.5-6.594-2.594-.5-4.5-2.5-4.094-4.094-4.5-4.625-2.094-4-5.5-3.593-2.593-5.094-1.5-.5-2.5 11.312-2.5 2.594-8.5-4-6.125 4.594.125 3.094 2 2 4 .5 4.593-.594 7 6.594 6.594 5.593 1.594 5.719-2 3.594-2.5h2.094l.5-1 2.593-4 1-1 .625-4.5 2-3.5 1.594-2.5V844l-3.5-3.5-1.5-4-1-4.094 2.594-3.5 4.594 3.094 6.093 5.094 5.625 2 11.782-1.906 6.218-4 2.594-2 2.594-1 3.094-.375h2l3.593.5 4.125.5 3.594.593 3.594-1 2.594-2 3.593-3 2.625-3.5 2.094-6 1.594-7.593-.406-12.5-.5-10.625-.907-14.594.125-6V760l.688-16.594v-2.5l.594-10.593.593-10.5-.375-8.625-1.5-10-1-5.094-1.406-5.5-.5-3.594.5-2 1-1 1.094-.5 1.5-.5 2.094-.906 1-1.5.5-1 1.093-3.594v-2l.5-2.5-.375-4-1-3-1.625-3.094-1.5-4-1-3-1.5-4.093-.5-1.5-3-4.5-2.5-3.125-5.093-4-3.594-3.594-3-4-2.094-1.594-2.5-3.5-2-2.5-4.094-3.094-4.5-2.906-3.218-1.187-4.094-1-3.594-1.625-3.5-2.5-3.094-3.5-.625-.875-2.375-3.22-3.906-4.78-5.594-4.125-5.812-7.875-3.094-4.625-2.094-2.375-.5-.625-2.125-2.875-1.875-2.125-1.218-1.375-1.282-1.625-1.312-1.875-1.594-3-.219-.625-.875-2.094-.718-1.688-1.407-2.593-2.875-3.813-.406-.406-3.719-4.094-1.5-1.5-1.375-1.094-5.312-3-.406-.093-4.094-.313h-2l-6.813-.312h-12.781l-2.406-.094h-2.094l-1.594-.281-2.5-.407-5.218-2-3.594-2-2.094-.906-3.5-1.094-4.094-.5h-3.625l-.656-.093zm-920.75 431.375-2.094.125-1.906 1.375-1.782 2.625-1.5 3.5-1.219 2.187-.374.813-.626 2-1 3-1.874 2.78-1.626 1.5-2 3.595-.28.812v.813l.5 2.5 1 2.593-.095 2-1.219 1.907-1.093 1-1.407 1-.593.375-1.188 2.218-.719 1.907-1.093 2.5-1.188 7.093.5 6 1 2.5.781 2.5.095.782-.5 1.812-1.594 2.406-1 2v1.5l1 2 1.5 2.594 1.5 2 2 5.094.406 2.594-.5 1.812-1 1.688-2.406 1.312-2.188.5h-3.094l-2.5.5-2.718.406-1.594 2.094-1.594 1.906-.406.5-1.094 2.594-1.594 3-.5.594-1.124 1.406-1.5 1.5-2.094 2.406-1.594 2.5-.594 1.688-.03.125h175.78l-.75-1.906-12-23.313-6.5-11.594-6-10.718-1.906-2.876-5.187-7.406-3-5.093-1.5-2.313-2.125-2.187-4.375-3-.5-.313-4.313-1.906-4.406-1.907-7.281-2.687-5.907-2-3.312-1.094-6.5-2.5-6.781-3.218L3672 990l-13.594-7.5-9-5.094-10-5.312-8.718-4.188-.782-.406-1.593-.312z" style="fill:#9faec0" transform="translate(0 100)"/><path stroke="#9FAEC0" stroke-width="10" d="m3581.875 1077.719-.187 1.281-.5 1.594-.282 1.906-.094 5.5v2l-.125 2.5-.5 3-.594 3v2.594l.22.5 1.093 1.5 1.687 2.094.407.5 2 3 1.5 3.5 1.093 4.624-.093 3-.5 4-1.594 3-1 2.876.406 2.624.5 1.5.5 2.594-1.125 2-.594 2.5v3.5l-1.593 2-1 1.5-.594 2-.407.782-.5 1.218-.593 1.5-2.094 2.5-2.625 2.407-2.094 2.5-1.187 1.687-.719 1-2.281 3.813-1.813 2.28-.781 1.22-2.125 2.5-1 1.593-1.594 2.907-.906 1.374-.687 1.126-.688 1.687-.906 2.313-.813 1.187-.781 1.313-1.719 3.5-.5.874-2.093 4-2.594 7-.594 3.126-.5 3.874.875 2.313 1.125 1.813 1.375 2.78.5 2.813-.5 3.188-2.094 2.5-1.281 1.594-.812.718-1.5 1-2.094 1.188-1.5.5-3.594.406-3.125-.5-1.375-.187-1.719-.313-2.093-.594-1.5-.312-1.188-.188H3526l-2.094.688-1 .5-.813.594-1.781 1.718-2 2.282-.625.718-1 3-1.594 3.5-.593 1.594-3.594 6.906-3.594 3.5-2.719 2.594-.406.406-4.781 3-4.719 3.782-1.875 1.718-1.406 1.282-1.907 2.124-2.093 3-2.594 3-1.406 1.594-1.5 1.907-.907 2.093-.406 1.407-.281 1.874v2.72l2 3.5 2.594 3.093 1 1.688.593.812 1 .906 2.094 2.094 1.907 2.406.5.594 2.093 4.594 2.407 5.594 1 5.624 1 3.876-1.094 4.624-2.094 2.5-4.625 2.5-3.594 1.876-3.187 1.5-2.5.906-3.094.5-2.125 2-1.594 3-.5 3-2 1.594-2.093 1-1.907.718-.593.188-3.094 1h-2.094l-.906.5-1.313.812-1 1-1.093 2.5-1.5 1.5-1.594.5-3.594.5-1.219.407-1.406.5-.781.187-1 .5-2.594 2.5-.719.813-.906 1.187-1 1.5-2.094 2-1.5 1-2.593 2-1.688 1.594-.312.406-1.407 2.188-2.093 4-3.594 5-3.907 5.312-2.093 2-1.407 1.094-2 1.406-1.687 1-.812.5-2.688 1-2.719 1.313-2.593 2.093-1.594 2-2.094 3-2 5.094-1.125 1.406-2.5 2-3.094 2-4.187 1-5.594 2.907-1.625 2-1 2.5.406 3 1 2.593v2.5l-.593 1.5 1 2.5 1.093 1.5 1 2-1.093 3.094-.5.594-1.094 1.812v1.907L3383 1444v3.188l-.188.812-.625 2.5-.875 1.094-1.5 1.406-2.5 2.5-1.625 2.5-1.594 3-1 3.5-1.093 2.594-1.5 2-2.907 1.312-1.406.594-2.187.906-.594.282-1.219.812-.687 1-.313 1.406V1478l.406 4.094v2.719l.095 1.093.5 4.594.218.688 1.188 1.906 1.219 2 .374.406.72.813 1.187.874 2.094 1 2 .813.624.094 2 1.719-.5 2.375-1.124 2.5-1.5 3-4.188 5-5.187 5.125-.5.5-2.126 2.781-3.687 4-2.406 3.719-2.281 4.781-1.313 2.719-.812 1.781-1.094 2.406-2.094 4.594-.812 1.5-.282 1-1.406 3.313-1 2.406-1.594 4.5-4.219 12.594-2.093 6.5-1.594 4-1.906 4.187-2.188 3.313-1 1.593-1.094 1.907-2.624 3-2.594 4-1.188 2.093-.812 1.5-2.188 1.907-1.5 1.5-1.5 2.093-1.094 2.407-1.124 4-.594 3.593-.344.657h2698.594l2.25-3.344-.5-3v-1.5l2.094-2.5 3.125.5.5-1-.5-3-4.5-6.625-2.625-2v-2l-.5-1.5-.375-3.594-.5-3 .5-2h2.093l2.5-1.5.594-4-1.5-4-2-5.094-2-5-3.594-6.593-1.5-7-1.5-4.594-.906-6-.5-1.5-2-4.625-2.594-2.5-8.718-4.094-8.688-2.594-15.312-4.593-8.188-3.094-6.094-3.625-1-2-1-3.5-.5-4.594-1-3-.5-5-3-1.094-2.593 2.5-1.125 2 .5 3.594v5l-11.875 7.906-8.72 1.5-6.687-1.593-4-4-3.093-4.094-2.5-2.5-8.22-4.125-4.593-3.094-2-8-1-5.094 1.688-11 1.624-8.093 1.594-6.5-.5-4-1-3.5-1.5-2.594-4.093-1.5.374 9-6.187 8-5.687 2.5-7.126.5-3.593-4.125-1-5.5-1.5-3.094 1.093-3.5 1-5.5-3-1.5-4.593.406-4.188 3-2.094 4-1.5 3-.125 9.594-5.187 3-1 .5-9.188-3.094-3.5-6.093-1-4.5v-4.594l-2.5-4.5-.5-5-4.125-3.625-3-1-6.093-5.094-5.688 2.5-5.719 5-5.687 2.406-3.094 4-3-1.5v-6l-12.219-10.187-9.093-9.625-3.094-7.094 7.687 2.094 4.625 4 9.188 5.625 2 2.094 6.687 2 5.125-.407 8.782-3.5 6.593.594 2 3 3.125 2 4.094.094H5824l3.094-2 3.593-4 2.625.5 1 3.125.5 2-1.125 2.5-.5 3.5.907 5 1.593 3.094 4.125 1 7.188-3.5 1.5-5 4.687-5.5 3.625-3.5 5.188 1.094 3.5 3 1.5 3.593 5.094 10.594 2.5-.5 4.718-10 1.094-.5 1.5-.5 10.188 4.625 4.593 4 1 5.594.5 5.5-.593 4.5.5 6.094-.094 6.5-.094 7.093.5 3-.5 2v2.5l2 4.594 3 4 4.594 2.625 4.093 2 3 4.594 7.22-1h3.093l2.594-1.5 1.593-3.5.5-4 1.594-1.5 4.625-1.5 4.594-1.406 5.687-.5 4.094 1.093 1 3.5 1 4.5.406 3 1 3.594 3.094 4.5 5.125 2.625 6.094 1 6.187.594 6.594.5 3.625 2.594 3.094 2.5 7.687 1.593 1.5.5 5.594 3.094 2.5 2.5 1.625 2 3.5 2.625 3.094 3.5 1 3 2.5 6.094 3 8.594 2.5 5.5-1.094 6.593 2 7.5 3 7.594 1 5.5v3.625l1.5 6 2 4.094 2 2-.625 5.5v3.5l1.5 6.094 3 4.5.656 1.656h344.97l.187-1.469-6.094-2.594 1.5-2.5 6.187.594 6.72-6.5 6.187-2.5 5.593-2.375 5.094 5.5 4.625-.406 2.594-3.5-.406-3.094-1-4.5-2.594-3.5-2-2.625-2-2-3.094-1.5-5.125-.594-9.781-2.093-9.219-3.094-5.094-2-3.5-2-1.093-1.094-9.813 4.5-4.5-2.125-3.594-1.5-1.593 3 2 5.125 1 4 7.187 3.594-5.687 4-3.094.406-.594 4.594 1.594 3 .406 5 .5 3-1.625 3.094-4.5-2.594-2.594-4-3-4.594-.5-3 1.094-4-2.094-2.625-5.093 4.5-7.313 4.5-6.687 3-3.5-2.594 2.593-4 3.594-4 5.219-2.5 5.094-1.406 5.687-3 3.625-6-1-5.594-2-1-2.625 2-5.594 1.5-3-2.093 1.5-5 3.094-3.5 3.625-3.5.5-2.5-3-3-5.625-3.594-5.094-3 2.5-1.5 5.22-2 1.093-5 .5-7.094 1.594-3.5 4.593 2.594 2 4.5 1.5 6.094 5 13.093 2.094-6 5.219-1.5 7.094 4.594 1.093-4-1-2.594-4.593-5.5-3-4.093-2.594-4.5-2.5-7.094.094-4.5-.5-3.094-2.594-2-8.594-5.125-9.218-5.594-9.688-4.093-7.719-4.594-5.593-4-6.094-2.094-7.188-4.125-6.125-5.094-3.593-2.5-8.188 1.907 1.094-3.5 12.406-7.907v-3l-1.5-2.593-1.5-6-3.094-3.094-2.5-5-1-3-1-2.594 1.594-3-.5-2h-4.594l-4.125-1.625-9.781-1-3.594-.594-1.5-1-2.625 1.5v7l1 3.094 4.5 6 .407 18.719-1.094 4.5-3.094-1.094-2.906-13.125-6.094-5-6.094-3.594-7.125-11.593-15.875-8.188-5-6.625-8.218-.594h-2.594l-.5 3-.094 4.094-2.094 3-1 3-2.125 3 3.125 2h2.5l1 3.625 1 4.5 3.594 1 5.594 1.094 3.093 2v3.5l-5.187 2-5.594-3.5-4.125-2.594-7.594-8.125h-3.593l-1.094 6 2.594 4.625 4.5 5.5 3.093 4.094.907 10.5-1.594 7.094-5.719 5.5-10.281 3.406-1.594 5 2 9.594 7.094 7.093 10.687 6.594 3.594 3.125 2.5 2.5-4.594 2-5.593-2.125-4.094-3-4.094-2.594-6.125-1-6.187-1.593-3-5-.5-4.594-.407-5 2.594-9.5-4.094-3.594-7.093-.625-4.594-1-.5-3 4.094-3h6.687l8.219-.875 8.187-.406 1.594-6.094-3.594-6-.406-5.125-3.094-5-2.5-3.094-10.28.5-7.126-.593-1.5-5.5-1-3.594-1.5-3.5-6.187-3.594-1.5-2 1.093-3-2.093-2.5-2.5-1.625-5.094.5v-6l.594-4.094 2.593-4-13.406-1.093-9.687.5-8.188.906-7.719 2.5-6.187 1.906-6.719 2-7.687-.125-9.188-3.594-5.625-1.5-2.594-1.593-3.093-1.5-3-.5-3.594.5-4.094-.594-4.625-2-4.094-3.594-7.093-6.625-5.594-5.094-6.094-4.5-2.719 7-2.093 6-4.094 4h-4.594l-1.5-1.593 1.5-6 1.094-4 2.094-2 1.593-4-1-4-1-2.594-2.093-1-6.094-2-6.719-1.094-5.094-1-7.093-4.125-1.094-1-5.094.906-5.219 4.5-9.187.407-2.094.5-1.5-3-2.5-1.5-2.625-.594-1 3.594-5.687 2.406-2.594-2-4.094-1-3.5-.594-.5-2.5 4.094-1.5 6.687-.406 3.594-3 2.125-3.5 3-1 3.594.5 5.594 5.594 1 .5 2.687-7.5-2.5-4.5-3.594-7.594-2.5-7.094-1.406-9.625v-4.5l4.125-1.5 4 14.219 2.5 7 2.594-5.5 1.094-5-.5-6.094-.907-6.5-2.5-7.125-5.593-9.094-4.094-4-4.094-3.093-4-3-4.125-1.094-6.187-1-5.094-3.094-5-8.625-6.094-7.594-5.125-4-2.094-1.593-4-4-2-3-.5-2.094-3.593-3-3.094-.5-5.094 2.406-6.719-1.5-7.593-5.625-2.594 1-2.094 7-5.219 4-1.5-1.5 3.094-7.094.625-6v-4l4.688-.5 1.5-2.5 3.093-2 7.72 2.594 6.093 3.625 3.594-.5 2.593-2 3.594-1.5 2.5 2.594 1.625-3.594 3.594-4 2.094-4 .593-5-.5-5v-3l.094-6.125v-6l.125-5.594-.5-4.5v-4l.094-4 1-3.093.094-4-1.593-3-3-3.594-5.594-5.5-7.125-8.094-4.594-4.625-3.5-2-5.187-.594-4.594 1.5-3.125 2-4.688 5.5-4.093 7-2.094 5-1.625 3.5-1.594 2.5-6.187 5-3 2-4.72 2.5-3.093.407h-11.281l-9.719-.094-9.187.406-6.72 1-4.093 1.375-4.687 2.5-3.594 4.5-2.625 5-4.188 5-4.593 4.5-4.094 3-5.219 2-8.187 1.406-8.72.5-6.187.406-6.687 1.5-5.625 1.907-6.688 3-5.687 3-8.719 2.406-11.906.875-10.688-1-5.593-2.094-3.594-2-4.125-5.094-11.281-.593-11.72-.594-11.874 3.875-3.625-.5h-3l-6.188-5.094-3-2-7.187 3.406-5.219-.5-4-2.593h-3.094l-3.093-2-2-2.094.5-3 4.687-1.406 5.094 2 6.125 1.093 6.187-5 3.094-1.5 3.094 1 6.625 6.094 7.187-.906 7.688-1.5 2.625-4 1.594-5h2l3 8.625h4.593l3.094-1.5 1.594-3-1.5-4-2.5-5.125-2.094-2.5-2.5-3.5-2-2.594-2.594-2-2.5-3-8.687-7.094-1.406-6.093h-4.72l-15.78-10.22-2.5-7.093-3.5-3.5-3.594-.094-1-3-1.5-2.5-3.625-5.094.625-5-2-5v-3.093l-3.125-1-5.594-1-2.594-3.626-1.5-3-1-4.093 1.594-.906 7.094 3.5 5.719 3.124 4 3.594 3.093 3 2 .5.5 6.594 8.188 1.5 1 5.594 3 3.5 1 2.5 3 6.094 5.625 4.124 4.594 6.594 2.593-2 .5-4.093.594-2.5-3.5-10.626-2-7-1.5-7.593-.5-7 .094-9.094.625-9 .094-5.094v-7.5l1.594-7 1.094-6.093.593-5 1-2 .5-3 1.625-4.5.97-3.094H4006.094l-.282.469-.406.406-2.094 2-2.312 2.719-2.594 3.374-1.594 2.5-1.906 3.813-.312.688-.5 1-2.094 2.624-2.188 2.282-1.312 1.094-1.594 1-1.094.718-1 .688-3.812 2-1 1.406-.313.594-.687 1.094-1.094 2.406L3977 1116v.594l-.188 3.094-.906 1.406-1.594 1-1.625.5-3 .5-2.593.906-2.094 2.094-1.5 1.406-1.594 2-4.719 5.5-3.593 3.5-2.094 1.594-2.094 1.5-1.594 1.094-1.5 1.218-1.406 1.282-.594.718-.625 3.5.313 1.688.094.812 1 3.5v1.5l-.5 1-.688.407-1.812.28-1.594.313h-3.094l-3.593.907-1.125.187-1.375.5-1.813 1.094-.687.5-2.313 1.594-2 1.5-1.5 1.124-.406.282-4.188 1.406-1.906-.406-1.094-.188-5.218-.5-10.782-4.5-10.406-3.718-14.687-5.188-28.407-10-19.5-7-52.812-18.594-15.938-40.187zm2569.938 346.969.5 3.5 3.593 2.124 4.594 2.5 4.5 4.594 4 13.094 2.594-2-1.5-7-1.5-4.594-4.5-9.093-9.688-2.626zm1334.375 116.5-8.188 1-1 .124-18.906 2.782-.282 1.094.594 1 2 1 .5 2.624.5 5-2.093 2.5-4.126 3-5.687 1.376-.5 2.624-2.094 1.5h4.594l1.5 2-.5 3.5-4.594 2-5.718 1-4.094.5v2.5l-2.094 1.5-2-1.624-3.594-.5-.593 1.5 2.593 2.624v1.5l-2.093.376v2.624l1.5 2.5 1 1.5.5 2.5-.5 2-1.126 2.5-.5 3.594-2.093 4.5-2.594 6.5-3.687 6.5-.47 1.25h14.157l.688-1.656 7.312-10.5 7.188-7.5 4.218-10 6.188-6 3.719-6.5 2.093-6.594 3.594-8 5.313-10.5 8.28-10zm-118.782 16.718-134.5 18.782-81.593 13-3.126 5.312-2.5 2.5-1.374 1.594-1.407 2.219v2.5l1.5 2 1.407 2.78-.407 1.095-1.593 1-1.5-.5-2.126-.876-2.5-.124-2.593 1.624-1.5 2-2.094 2 2.125 4.844h187.281l2-11.062.594-5.5-1.5-7.094 1.594-8.5 4.093 2.5 5.126.094 6.687.5 8.188 1.094-2.594-5.5-.407-3.594 10.907-14 4.093-1.5 6.126.594 6.187-4 .094-3.5-2.094-1zm54.094 33.282-3.094 1-3 1.5-3.593-1-2.626-.5-1 .406-1.593 2.094-1 4-.594 4-1.594 5.5-1 2-2.093 3-6.22 4-4.374 2.468h15.062l5.219-2.343.5-1 1.594-2.5 1.093-4 3.125-6.5 5.188-4.5 1.594-5.5zm-1016.406 24.718-8.188 1.907-2.875 1.843h11.813zm23.093 1.094-6.187 2-8.187-.594.468 1.25h20.5l-1.468-2.562z" style="fill:#9faec0" transform="translate(0 75)"/><path stroke="#9FAEC0" stroke-width="10" d="m3310.25 1619.656-.656 1.25-1.094 2.594-3.5 2.5-1.594 1.406-4.094 3.5-4.718 3.907-4.281 4.093-1.907 1.688-3.312 2.812-4.094 3.407-3.687 3-3.626 4-1.187 1.28-1.906 2.095-1.188 1.5-2.219 2.124-2.093 2.376-1.5 1.624-4.688 4.5-1.5 1-5.719 4.5-4.093 2.5-3 2.188-4 3.5-1.781 1.688-.907.812-1.594 2-3.718 3.406-3.094 4-3.094 5-1.5 2.407-2.719 1.875-2.28 1.5-.72.625-3.687 2.875-4.094 4-3.094 3-4.718 7.5-3.688 5-1.219 1.5-.374.406-2.5 1.5-2.626 2-2.187 2-2.594 3.5-2.094 2.5-.812.812-1.094.688-.719.719-1.093.78-1.5.5-2.594-.093h-1.5l-.5.094-3.094.906-2.594 1.406-3.906 3.094-5.312 5.094-.688.719-2.594 3.5-1.624 2.5L3155 1766l-1 1.5-.594 1-1 2.5-2 3.313-1.5 2.5-2.218 3.5-1.282 2.593-.312 2.594-.094 2.812 1 2.782-.406 2-1.688 2.5-2 1.5-2.094 1.5-1.406.812-1.219.906-2.593 1-2.5 1.375-2.5 2.907-3.282 4.093-2.125 5-2.375 3.72-2.718 3.093-4.282 4.094-5 4.812-3.906 5.188-1.5 3.5-.594 2.406-.312 2 .5 4.094.312 1.5.375 1 1.5 3.593 2.907 2 1.5 1.5.5 2.5-.594 2-1.406 1H3104l-3.094.407-3.594 2.406-6.812 5.5-4.688 5.094-2.906 5.093L3078 1888l-2.594 7-2.219 4.5-.875 1.687-.625 1.407-.5 2.406 1 1.594 1.907 2.5 2 3 1.593 1.5 2 3.593-.094 2.5-1 2.5-2.093 2.5-3.094 1.5-2.594 1-2.125 1.407-1.5 2.5-1.375 2.218-2.125 3-3.094 4.5-1.687 2.688-1.719 2.094-1.5 2.094-1.781 2-4.219 3.5-5.594 3.5-2.687 1.218-1.813.5-2.687 1-1.094.282-3.906 1.125h-.094l26 35.375 10.781 10.312 37.906 23.688-3 4.312-4.187 6.188-6.313 6.5-10.187 8.906-11.906 9.406-12.407 7.906-6.906 3.407-11.687 5.875-26.813 14.218 11.406 22.782-18.906 10.218 23.5 9.407 11.219-12.313 6 3.313 5 3.093-6.719 12.688-4.594 7.594-4.906 6.218-1.75 1.688h3089.906l.062-2.5-1-5v-3l1.594-2.594-.5-2.5 1.5-2.5.594-3-1.5-5.5-1-1-4.594-4.094-1.5-8.593-.406-4-.5-2.5-2.094-3.125-5.094.5h-3.625l-3.593 2-2.094 3.5-.5 1.5-.5 2.5-1.094 2.5-1 1.5-2.594 2-3.625 3-1.593 2.5-1.594 4.5-2 2.5-2.094 2h-4.594l-6.218-2.094-3.594-1-6.094-1.094-2.094.5-2.5-4.094-1-4-1-2.5 2.094-3.5 1.594-3 3.094-3.5.5-.5 2.593-3.5 2.625-2.5.5-1.5 2.094-4.5 1.094-3.593 1.5-5-.406-6.5.5-3 .094-4.125-.5-1.5-1.594-2-4.094.5h-2l-1 1-1.094 1.5v3.5l.5 3.5.407 3.5v7.125l-1.125 1.5.5 4-.5 2-1.594 3.5-2.594 1.5-2.594 3-5.593 2-6.22-1.125-6.593-1.5-2.594-1.094-3-4-.5-2.5-1.5-2.594-1-2-.5-1.5-1-2.5-.5-1.5-5.218-.094-4.094 2.5-2.094 2-2.5 3-2.687 5.5-1 4-1.125 4.594-2.094 5-1 4-.594 3-2.594 3-2 2-4.093-.5-3.125-2.094-4.594-3-4.594-4.094-3-1-2.594-1.5-3.593-1.125-2-1.5-.5-2-.5-3.5-.5-1.094-.5-3 2.093-1.5 2.094-4 .5-3 3.594-2.5 2.094-2 1-1.5 1.125-1.5v-4l-1-4V2086l-1.5-4.5-1-1.5-2-1-3.125.406h-5.594l.406 2.5 2 5.594.5 2 .5 4-1.5 3.5-2.094 4-2.093 2.5-2.625 1-2.094 1.5-1.5-.5-3.5-2.5-2.094-2.094-2-1-3.094-1.5-4.593-.594-4.625-.5-4.594-1.625-3.094-2.5-2-2.5-1.5-2.094-1-1.5-.5-2v-2l-.5-2.5-.5-3.5 1.094-2.5 2-1.5h1.094l1.5-1.5v-5.093l.625-2 3.093.094 1.5.5 2-.5 2.094-.5 3.094 1 1.5 1.5.5 3.094-.594 3-.5 3.5-1.594 2.5h-2.5l-2.593 1 .5 3.5 2 2.5 6.687 3.125 7.094.094 2.094.5 1.5-1.5 1.125-2-.5-1.5-3.125-1.094-.5-4 1.125-1.5 1-1.5 1.093-2 3.594-1 2.5-1 1.094-.5 4.094-.906 6.125-.5h1.593l3 .5L5984 2073l4.5 9.594 2.5 8.5.406 11.094-2.093 6.5-6.72 6 2.5 1.625 3.595.5 2.625 2 4.093-1.5 1.594-4.5 1.094-9.5 2.594-4 4.125-3.5 13.875-5.406 4.125-1 4.687-3 3.594-1.5 4.594 1.093 4.125 1.5v1.5l-.125 4v1l.5 3.594 2.5 4.5 3.125 3.094 4.093.5 2-.5 2.594-.5 2.094-3.5v-2.5l-.5-2.5-2-2.5-1.5-3.594-1.5-6.5-.5-5.594 3.094-2.5 3.625-1.406 3.593-2h3.594l5.188-1 4.625.094 3.593 2.5 1 3 3 6.625 1.407 7.094 1 6-.5 4.5-.625 4.593-4.188 6.5-3.594 5-1 1-3.093 3-3.625 3.5-.594 3 2.594 2 1.5 1.5 3.625 1.094 3 1.5 2.093-3 3.188-9 2.594-3 1-1 3.625-1.5 2.593-1.5 1.5-3.5 2.594-2.5 6.188-2 6.218-.906 7.094 1.5 3.094 3.125 2 3.5 1.5 4 1 4.594 2.5 7 3.5 5.593 2.594-.5 1.625-4-1.5-4.5 2.093-3 4.594-2.5 1.5 5.5 3 6.094 2 3.5.906 13.594 4.594 3.125 4.594 4 5.094 4.094 1.875 1.187h388.156l-1.125-3.187-3.094-2.5-3.5-4.094-5.187-2-4.625.875-7.688 1.5-4.594-2.094-3-4-1-8.594.094-3.5-1.593-1.5-4.594-1.093-4.125 2-5.594-4.594-4.094.5h-3.093l-4.594-1-5.125-2.625-1.5.5 1.5 4 1.5 4.625-3.094 3-6.688.375-3.218 6-8.188 4.5-7.687-.094-4.625-6-4.094 1.906-2.594 1.5-3.594.5-3.5-3.5-3.093-1.093h-7.219l-1.5-1.5-1.5-7.594-9.188-2.625-5.593-4.094-1.5-3.5-2-2-3.125 2.5-3.094-1.094-3-1.5-2.594-.5-6.687 3.5-1-.593 1-4.5-.5-3-4.625-2.094-2.5-1.5-4.594-.5-2.594-1.625-1.5-1.5-.906-2.875 4.5-1.125 2.094-2.5v-3.5l.625-1.5 1.5-.5h1l2.593 6.125 2.5 3 4.594 1.094 1 2 1.5 5 3.594 2.093 4.094-1 3.125-.5 6.687-2.5 4.594.094 3.5 2 4.094 5.094 3.625 2.5 4.593 2.125 5.594 5.594 1.5 3 4 4 3.594-1.407 3.719-4.5 5.593-2.5 5.594 3.094 1.594 2 .5 3.5 1.5 2 2.594-2.5 2.125-7.5L6474.5 2113l4.188-.406 4 2.5 3.125 3.594 1-2 2.593-4 6.688 3 2.5-.5 4.219-1.375 1.5-1.5 2.093-2 2.5.5 1.094 1.5.5 1-.094 4.594H6513l5.687-3.5 4.625 1.5 5.594-.407 4.594-1 2.094-4 5.593 2.594v5.5l-.593 6 2.593 2.594 2.5-1 1.625-4 .594-4.594-.5-5 .5-3-4-3.594-1.594-1.5-.5-2.5 3.094-1.5 4.594 3.094 4.094 3.5 3.093 2.094 6.125-.5 3.594-2.5.594-7 2.594-5 5.218-2v-4.5l-4.625-1.094-6.093-.5-5.188-2.094-6.094-.5-4.125 2.907h-3.093l-5.094-3-5.094-5.594-4.594-1.625-13.312-.594h-8.813l-5.093-.594-4.094 2h-5.594l-4.594-3.093-5.718-2.094-3.5-2.5-9.782-1.625-4.625-2.5-6.593-3.094-3.594-.5-1-1.594 2.094-3 1-3.5-.5-1.5-2.5-1H6452l-2-2.093 1-3-.406-4 3.093-3 1.5-1.5-2.5-5-5.093-1.594-3.094 3-3.094 2.5-4.594-1-3.125 1.375-3.593-2-21.5-.688-7.688-.5-6.719.407-5.687 4-2.5-1.5-4.594.406-8.219-.5-5.187-.625h-5.594l-5.094-2.094-5.125-5.5-6.593-6.094-3.594-5.093-2.5-3-4.594-3.094-3.594-1-3-7.625-6.625-5.094-7.687-5.594h-5.594l-5.594-2.593 3.594-3.5h2.094l2.5-.407 2.594.5 2.5.5h3.593l2.625-.406-2-3.094-3.125-2.5-2-1-2.593-1.593-5.094-1-4.094-3.094-5.094-2.5-5.125-1.625-6.093-.5-2.094.5-2.5-1.094 1-3.5 2.594-.5 1.5-3-.5-1.5-1-2.5 2.593-1.5 4.625 2.094 1.5 2.5 2 4 1.594 1.5 2 1.625 2.594.5 5.594 1.5 2.593 1.094 2 1.5 4.625 1.5 3.594.094.5-3-2.5-3.094-3.094-1.5-3-4.594-2.5-3.5-1.5-8.625.5-4-2-4-3.125.907-3.093 3.5-5.094-2.5.594-4 2-2 2.593-2 .625-4-1-6.094-2.5-5-1-3.094-7.718-5.594-5.094-.5v2h-3.094l-3.594-1.625 3.094-4 .594-2.5-5.594-9.093 2.594-3-1.5-2.5-2-2-5.094-2.094-8.219-1.5-12.875-.094-10.218-1.094-9.188-4.125-4.594-6.094-.406-5.5V1864l2.594-6 .594-4-.5-1.5-4.094-1-3.594-2.093-3.594-3-4.625-.594-7.687 1-10.188-.625-6.125-7.094-8.187-6.094-4-8.093-4.094-5-5-7.594-4.094-8.625-2.5-4.094-5.625-6.594-3-4-1-8.093-2.5-5-2-4.094-2.593-2.5-4-4-4.594-3.625-2.5-6.594.5-5.5-4-5.094-2.5-6-2-4.593-.5-3.5.5-2 .5-1.5-.5-1.5h-2l-5.094.906-3.594-.5-3.125-1.5-2-2.625-4.093-3.5-3.094-.5-1.5-.594-2-4-.5-1.5 1.5-1.5h5.094l-.407-2.5-1.593-1.5-1.5-2.5-6.594-2.594-3.594-1.5-5.719.407-5.593-.5-4.594-5.594-6.094-6.125-5.094-4.5-2.5-4.594-2.5-3.5-3.625-5.094-3.5-2.5-4.593-1.593-3.594-1.5-2-1.5-.5-3.594 1-3 3.094-3.5 2.093-4.5 1.125-3-.5-3.5-5.625-2.625-6.187.5-4.594-.594-8.219.5-3.093.906-2.5-1.5-3.594-2-3.094-4.593-3-2.5-2.5-3.594v-1l2-2 2.438-3.656H3310.249zm2726.594 0 1.344 3.438 3.625 1.5 6.187-.406h3.594l2.5 1 2 3.624.5 2.5 3.094 5 3.625-.406.5-2 1-2.093 1.093-1.5 4.094-2.907 2 1.5 4.094 1.5 1.594 2-.094 3.094-1.5 2-2.594-.594-2 1-.594 4.094v2l1 1.5 2 2 .5 3 .5 3.594-1.594 3-1.5 2v3l.375 2 1.125 2 3 2.594 3.094 2 2.5 2.5 1.5 4.624.5 2.5 2 2h2.594l3.594-1.406 6.218-1 4.594 2.594 2 3.5 2.5 4.5 4.094 1.094 5.687-2 5.125 4.594 4 3 6.094 5.625 4.594 3.593 3.094 4 3 4.094 2.5 5 1.5 3.594 1.5 4.5.5 5 .5 7.594 2 4.5 6.093.625 5.125 1.5 3.688-5 .094-9 4.093-1.5 7.625 2.093h3.094l3.094-4.5 1.594-5.5 1.593-6.593 3.125-2 2 3.593.5 6.5-1.125 6.094-3.593 3.906-7.688 3-5.219 1.5-4.593 4.5-4.188 9 5.094 2.5 1.5 1.594-1 1-2.094 3.5 1.5 8.5 3.5 2.594 3.094.5 3 4.094 1 5 .5 5.5v2.625l3.594-1.5 3 1 2.593 1.5 2 1.093 1 2 3.625 3 3.594 4.094 5.094 4 6.094 1.094 6.218-.5 4.594-5.5 3.594-3-1.5-2.5h-2.5l2.5-1.5 5.687.594 6.22-6 3.093-2 1-1 1 6-3.094 6.5-3.219 4-3.593 2-3.094 2.5 1.5 5.625 4.094 5 6.093 3.093 4.125 3 3.5 8.094 3.094 3.094 2.594-6 1.5-3.594 2.594-3.5-.907-5-.5-2.5.5-2 1-2 3.125.5.5 5 7.688.094 4.594-2 3.093 1.5 2 4.594-1.187 5-4 4.5-2.094 2.5-2.594 3-1 2 2 2.5 2.5 4.625 6.688 1.093 6.094.5 5.218-.5 3-.406 2.094 2-8.812 2.406-7.094.5 4 4 1.5 2.094 3.594 1.5 3.593 3 5.625 1.594 1.594-5 2.594 1 3 3 3.594-1.406 1.593-5.594 2.125-1.406 1-1.5h1l4.188-3.5 3.5 1 .5 2.5-4.594 6-7.312 8 2 5.625 4.093 3.5 2.5 10.593.407 5 1 3.594v4l2 3 2.593 3.094 2.5 2 3 5.594 2 5.5 2.625 4.125 3 3.5 4.594 3.593 3.094.5 2-1.5 2 4 1.5 4.594 1.5 5.5-1 4 2 6.094-.094 4.5.5 5.594.5 5-.094 10.625 5 7 10.687 10.687 3 5.094 6.188 3.5 7.719.594 4.093-3.5 2.094-1 2.5-3 .094-2.5v-1l-3.093-.5-3.094-.094-2-1-1-1-1-4.5 2.094-2v-2.094l1-4.5 1.593.5 2 3.094 4.125-.5 2.094-4.5.094-7V1963l3.094-3 5.718-1.906-1-5.094-4.125-3.5-1-2.594-3.093-2-2-4 1.593-2.5 4.125 1.5 1.5.5 2.094-2-2.594-3.5-3-3.593-2-5-1-4.125-5.125-1.5-5.093 1-3.594-2.594-2.5-7-1.5-3.094-2.594-1h-3.594l-1-3.594 3.188-6 1-3.5.594-3.5-1.594-1.5-3-3.593-2-4v-2l2.094-1 2.5 3 3.593 2.593 5.625-1.5 6.688 2.094-2.188 9.5-.125 11.094 2.125 3 4 2.594 4.094 3.5 2.5 3.625 4.094.5 3.594-1.5 1.5 5.093.5 3.5 1 2 .5 1.5 1.593 1.5 5.125-1.906 3.094-7.594.094-5.5 1-1.5 7.688-.406 8.312-2.5 4.094-8.5.594-4.5 1-1.5 6.218 3 2 1.094 3.594-1.5 1-1 1.594 2.5-3.688 7.5-5.718 4.5-5.688 7.5-5.187 5-7.22 3-7.687 3.406-3.593 1.5 1 3.5 4.093 2.594-.593 4.5-1.625 4.5 1.625 1 5.093.094.5 2-.593 6.5-2.125 3-5.094 3.5-8.281 6v7l6.593 2.625 4.094 1-1.094 3.094v6.5l9.188 2.593 3.094-3.5 2.625-4.5 3.093-3 .594-3.5-1-4.094 3.094-3.5 2.094-2 1-3 1.625-4 2-.5 1.5 5.094-1 5.5-.125 3.5 3.625 1 6.187-.406 4 2 2.594 4.594.406 4-4.094 2.5-4.593-.5-2.5-2.594-4.22 3.5-8.187 6 2.5 3.5 3.094 2.594 4.094 1h3l4.094 1.125 4.625 4 5.093 6.094 3.594 1 5.594-2.907h4.719l5.593 2.094 4.5 6 5.094 3.594 3.594 2.5 5.094 5.125 3.625 4.094 7.687-4.5v-3l-.5-2.5-2.5-2.094-1.594-1-1.5-1v-1.5l2.094-3h5.594l2.094.5 2.625.094 2.5-.5 1.593-1.5 2-.5H6539l3.094 1.594.5.5-2.094 3.5-1.5 2 1 3h3.594l4.594.094 4.625-3.5 3.093-3.5 2.594-6 .594-1.594.5-4.5v-2l.094-4h-2.094l-3.594 4-4.593 3-2.594 1.406-4.625-3.5h-2.094l-4.094 1.406-2.5.5-2.593-1-4.094-.5-2.625-1.625 2.125-4 3.594-1 3.093.125h1l3.594.5 1.594-1v-4l-1-1.5v-5.625l-.5-1-3-.5-2.094 1-.5.5-2.594-.5-3.5-2.593-3.593-1-7.22-1.094-2.5-1.5-.5-1.5 3.126-2 5.594 1.594 7.187-1.5 4.094.5 3.625.094-1-4.094-4.625-4-4.094-1.094-4.594.5-4.093-3.094-4.594-4.5-2-2 .5-5.593 4.187.593 4.594 2 3.594-.5 1.406 4.594 4.219-.5 5.094-1.5 3.593 2.594 5.594 4 3.094-2.5v-4l-6.094-7.094-7.687-2.5-6.094-2.594-6.125-2.093-4.594-1.5-2.594-3 .094-4.125 4.094-2 1.5-1 2.625-2.875 1.594-6.125.594-4.5 1-4h3.093l1 2.5-.593 7.125-1.594 6.5v4.5l2.5 2.593 4.187-1 9.22 1.594 2 .5.593-5 .5-4.594 2.094 1.594 1.5 4 .406 7 3.094 4.594h2.5l2.593-4-.406-3.5v-4.5l.5-2.594 2.125 3.094 3 3.5 3.688-7-1-4-2.594-4.594-2.5-4-1-2.5-1-4.594-1-4-2.5-3.593-3.594 1.5-2.125 3-2.5-2 1-3 .625-1.5-4.719-.625-6.093-3.5-4.594-.094v-4l1.594-1.5 3.593-1 4.594-.907 1.625-1.5-5.125-4.593-6.687 1-2.094-.094-3.094 2.5-4.125 1-1.5-3 3.625-5.5 3.688-2.5.5-3-2.5-3.594-1-3-.5-3.5 2.593-2.5v-2.5l-.5-4.594-.906-6.5 3.125-1.5 4 3.5 1 7.094 1 5 1 4.594 3 5.5 5.094 4.093 3.5 3 4.094 6.594 4.093 2.125 4.594 1 2.125-6.5-4.625-4.625-4.094-3.5-2.5-2.594v-3.5l2.094-3-1-2-4.094-2.593-4.093-2.5-1.5-4.594 2.093-4.5 3.094-1 3.625 3.594 1 3 1.5 2 3.594-.407v-5.093l-3.5-6 .5-3 2.594-3 3.093 1 1.594-1.5 2-1.5 3.125 2 4.594 2.093H6577v-3l-2.5-3.5-1.5-4.593-.5-1-4.094-1-5.219 1.406-4.094-1-2-2.5-3.593-.594-1.594 4.594-.5 3-2.594 1.5-3-4.094-2-2-1.125-2-5.094-.125-6.187 2-4.094-.5.094-2.094-1-2.5-.5-2.5-3.594-1-4.125 1.907h-4.093l-2.594-2.5 2.594-5 2.593-3 1-1 4.125 3 4.094 1.593 4.094 1.5 4.594.5 6.718-.906 3.594.5 2 3.5 3.094-.375 2.094-1 1.093-8.625v-5l.5-3 .125-2.5-4.125-2.594-5.687 6-5.094-2-2.594-2.593-.5-3.5 2.094-4 3.594-.5 1.594-.5v-1l-1.5-3h-4.094l-4.094-3.594 1.594-2.5 2.5-2.5-.406-3.5-3.594-3.594-3.094-2.5-4.594-1.625-2 3.125-.625 4.5-1.093 5.5-2.594 1.5-2-3.625-2-4.5-2.5-2-3.688 4.5h-2l-1-2.594.5-3-.5-2.5-4.625-2.5-6.093.907-6.688 4-5.719.906h-5.593l-3.094-4 .594-4.094 5.593-.406 5.72-.5 3.093-2-.5-6.5-6.594-2.094-15.406-4.625-17.906-2.687-12.782-2.094-1.5-2.5.5-4.5 1.594-3.594 6.688 1.094 3 4 6.593 1.094 12.407.593 8.718-1.906 10.782-3 1 4.625 4 4 5.218-.906 4.094 2.5 2.5 1.5 4.094 1.594 1 3 2.5 6 5.094 3.593 4.093 1.094 1.125-2.094 3.094-5 3.094.094.906 5 1.594 3 4.594-.375 3.593-2 3.125 1 2 1 2.094-3 1.5-1 4.594 1.594-2.594 4.5-.5 5.5 2 1.5 3.594 1.094 3.094-.5 2 2v3l.5 3.094 2.5-.5 5.218-.5 1 3.5-.625 7.593 2 5 2.5.625 3.72-3 1.593-7.625-1.5-4.5-.5-3-.5-3.593 2.594-4-3.594-4-1.5-2-1.5-4.594 2.594-2 5.093 1.094 4.125 3 4.094 5.593 2.5 4.5-.094 3.625-2.625 4.5-.5 4 1.5 3 2 4.094-2.594 3.5-4.593 2.406-2.594 2.5-1.094 5.594 5.688 1 5.593-2.5 4.72-3.406 2.093-7.094-1.5-5.5.5-3 3.594-1.5 5.093 7.094 3.72-15.094.093-10.594 2.688-15 4.218-13.125.594-6 1.094-3.5 1-3-6.094-7.593-1.594 6 2.094 2.5-.094 5.5-2.125 2h-3l-1.5-3v-6.5l1.125-1-1.625-3.594-2-1-7.187 3.5-4.094 3.5.906 7-1 4.5-3.719 3.5-6.093 1-5.188-.094.594-3.5 2.594-4 3.093-3-.5-3.5-1.5-2.5H6577l-2.094 3.5-2.094 4.5-3.625.906-4-2-1.5-3.5 2.625-4.5-.5-3.625-4.125-3-3.094-2.594-6.093-1-3.094-2 1.094-3.094 1-3-1.5-3-7.594-3.593-3.594-2.5 4.094-1.5 6.687.094 7.22 2 6.593 3.094 2 2.5-1 3 .406 6.093 4.688-2.5h1.5l2 3.5 1 2.125 5.187 1 2-1 2.625 1 1.5 3.594 3.094.5 2-3.5-2.5-1.5-1.5-1.594-3.594-2-2.5-3.5 6.594 1.5 7.687 5.094 3.5 1 .594-1.5.5-2.5.5-2-1.5-2.5-1-2.5-1.5-1-6.687-4.594-6.094-3.125-9.219-4.094-10.687-6.093-12.188-7.094-11.312-6.719-2-1-3.094 1.5-3.094 1 1.094-5-4.594-2.594-10.219-5.093-2.093 2.5-2.594 5-3.094 2.5-3.125-1.5-.5-3.594 1.625-5 3.094-3-6.094-2.5-11.812-3.219-3.594-1-1 6.625-.094 5 2 4 1.5 2.5 1.594 3.594-.094 5-3.125 6.5-3.094 3.5h-3.594l-2.594-3 1.094-7.594.594-5 .5-2.5-1.5-2.5-4.094.875-4.094 1-2.593-1-1-3 .593-3.094 3.094-1.406 4.594-2 1.5-1.5 1.094-1v-3l-2-2.094-7.188-1.5-5.594-1.593-5.093-1.5-5.22-2.594-3-2.5-3.093-4.094-2-4-6.094-3.125-1.093 3.5 1 3.625-4.125-1.625-3.594 2.5-3 1-1.594-2 3.094-2.5 2.594-4 1.125-5.594-.5-3-.532-.937h-20.5l1.032 2.844 7.093 6.593.5 4.5-3.593 5.5-9.313 5.5-5.187 2.5-1.5 3.5.375 6.5-.094 7.094-3.594 8-4.094-.594-.5-5.5 1.094-7-.5-1.5-2.5-4.093-2-4 2.5-1 3.094-2 1.093-3 3.125-9.594L6408 1635l3.594-4.5-4.594-3-.906-6.594-.25-1.25h-11.813l-3.344 2.156-2.093 1-1.594 4.5-4.594 3.5-6.219-1.125-2-5.5 7.219-1.5.406-3.031zm1096.781 0 1.875 4.25 3.094 5 2 6.094.406 5.5-3.687 9-6.72 5-8.187-.5-7.094-1.094-4.625-2-8.187-3.093-4.188 3.5-5.218 8-8.188 3.874-6.719-1.5-2.5-4.093-.5-3-5.593.5-7.782 15-6.312 5.5-2.5 1-5.688 5 5.594 4.094-3.094 3.5-5.125-.095-9.78 2-1.595 4 2 4.5 4.688-.406 6.094 1.5 11.312-1.375 8.188-2.5 2.593-3.5 1.625-.5-2.625-4.5-.375-5.125 6.094.125 4.094 5.094 3.5 6 8.312-6.5 7.688-2.906 5.094 2 6.718.094h2l1.094 1-3.219 6-6.187 2-5.094-1.094-3.094 4.594-3.625 1.906-4.593 1.5 1 3.5 6.093 1.094 4.625-.5 3.188-5.5 7.094 1.094 3.093 1.5-1.593 2.5.5 2 4.593 3.125 5.125 3.5 4.094 2.093-2.094 2-5.625.407-4.593-1.5-2-2-3.594-1.125-.594 7.625-3.094 3-3.218 10.5 1 3.593 2.5 2.5 6.218-2.5 5.688-2.5 7.187-2.406h6.72l2.5 1.594v3.5l-5.72 2-5.593 2.906-2.094 1-4.688 4 2 6.094 4.094 3.5 6.094 4.594 2.094 2.5-3.094 3-6.188-1.5-4.625-1.094-3.093-1.5h-2.5l-2.094 2.5-.594 6-3.094 3-1.5-1v-5l-.406-7.094-1.5-4-3.094-2.594-1-1.5.094-5-.5-2.5-2.093-1.593-2.125 4.593-.5 3-4.094.907-1.594 4.593-.5 2.5-2.094 1-1.5 2.5 5.594 2.5 4.594.094 2 1.5-.5 2.5-3.594 1-4.094-1.593-2 1-1.093 5.593 4.5 8-2.125 4.594-4.594-2.094-2.5-2-1.5-3.093-1.5-2.5-2.594.5 1 4 1.5 3.093v3l-1.094 4 .5 4 3.594.594 6.094-2.5 4.219-2h4.093l2 3.094 1 5-1.093 4.5-4.125.5-2.094.5 1.594 3 3 4.625-.594 5-4.094 2.5-3.094-2.5-3.5-5.125-4.593-5.094-2-3.5-2.625.5-1 4 2 6 1.5 3.594.5 4.5-.594 3.5-1.5 1.5h-3.594l-1.5-2.5-.5-3.594-.5-2.5-2.594-.5-4.093.5-4.125 1 .5 4 .406 5.5v3l-2.094 2-1.5 2-2.594-.5-2-2.5 1.094-4 1-4-.5-3.094-1.5-3.5-1.5-2.5-.5-3.593-.406-4-.5-2-2.594.5-2.594 1-3.593 3.5-2.125 5-1.594 1-3-2.094-1.5-3.5-3.094-3v-1.5l3.094-3 4.719-1h3l1.593-2.5-.5-2-3.093-.5-2-.625-2-1.5-2.625 1.5-3.594-2-1.5-1.594-2.094-.5-1.5 2-.594 3-2.5 1.5-4.093-2-2.625 1-3.594 6-3.688 2.5-5.093 4.5-4.219 3-1.5 3-.594 4 .5 4.5 3 3.594 2.594-.5 2.094-4 .625-4.5.5-1.094 2 2.094 7.187-1 4.094-1 5.719.625L7028.5 1838l4.5 3h3.094l1 3.594-4.594 4.5-2.594 2 1 3.5 4 5.594 2.594 2.5 4.594 3.5 2.5 3.625 1 2.5-3.094 2.5-4.094-1.5-3.593-3.125-3-4-2.625-1.594-3 1-1.594-1-2-4.5.094-4.594-1.594-2.5-3 1-1.593 4-2.594 3-3.594.5-3.125 2-1.594 4.5-.5 5-5.187 2-2-6.093v-4h-4.594l-3.625 8.5-6.781 7-3.094 3.5-1.5 3.5.375 8.093h3.125l2.094-6 2.594-4.5 4.593.5h5.594l4.719-1.906 7.687 1 3.5 3.094 6.594 6.125 7.719 5 4.594 2.594 4.593 2 7.094 2.593 1.625 3-3.719 3.5h-4.593l-2.594 5h-3.594v-4.5l-.906-4.593-6.219-1.5-6.594-2.094-4.593-8.125-2.5-1-1.594 5-2.094 4.5-3.625 1.5-3.094 5-3.593-.5-1.5-2.5 1.5-4.594.593-4.5-1.5-3-3.593 4.5-.594 3-1 2.5h-4.094l-1.5-3-3.625-.094h-5.187l-3.094 2.5v3.5l3 4.094 3.594 1 4.593 2 4.094 2.594-.5 3.5-5.187.5-4.094-1.594-4.594-2-6.625 1.406-1.594 4.594.907 7-.5 4-2.594 4.5 2.5 4.594 6.187-.5 4.094 2.125h3l3.125-2 3.594.5-1.094 4.593.5 2.5 5.188-.5 7.593 2.594 5.72.5 3.593-2.5 1.594-4 3.093-2.5 3.094-.406-1.594 6.5-3.687 6-.594 6-4.625-.5-5.094-2.594-4.093-1.5-2.594 3.5 3.5 8.594-2.5 3.5-4.594-2.094-6.219-1-.5-5.094-1.906-6.5-6.687-3.093-4.594-.5-7.219 2.5-13.875-.22-2.5-.5-4.125 3-.594 3 2.594 2.595 2 2.5 1 4.5-1.594 2.5-4.093-2.5-6.094-2.094-6.219-.5v5.5l-.5 3-2.094 2-.593 3.5 4.093 5.594 6.094 1.625 3.625 3.5-3.125 1.5-2.594 3.5.5 4.5 2 4.593 1 2.5 3.094-4 2.625-4 7.188-3.5 9.312-2.906 12.781-5.5 5.72-1.406 5.093-.5v4l-6.219 2-3.094 1.5-.5 4-5.687.5-7.719 1.406-6.187 3.5-2 2 2 3.5 2.5 2.594-2.5 1-4.594-.094h-5.719v5.5l5.125 1.094 2.5 2 2 5-1 3.5-5.125-.5-4.594-4.594-6.093-4-7.188-.594h-3.625l-2-7.093-3.5-4.5 1-4-2-5.125-1-2.5-3.094.5v7.5l-1.593 6-6.313 7-5.594 4.5-3.593 2 2 3.5 1.5 5.625 1 3.5 3 .593 5.687-5.5 3.625-1.5 3.094.5-1.594 5.5 2.5 7.594 6.094 2.094 4.594 1.5 4.593 2 1.594 3.094-4.187 3.5-5.094-1.094-4.094 3-5.125-2-8.687-8.688-2.594.5-3.594 4-4.625-4.5-1.5 3.5-4.187 8.5-2.594 4.5-2.094 6.5 1.5 4.594 2-1 2.594-3.5 4.594.5 4.187-.5v-3l1.5-1.5 6.219 3.094 8.687 2.094 6.594 1.5 7.719 1.625 7.094 2.593 5.687 1 2.625-1 1.5-3.5 2.594-.5 4.094 1.594 5.093.5 6.72 1.094 2.28 3.5-3.906 3.5-11.281-.094-7.719 1.5-9.781 1.906h-6.094l-2.125-4.094-3.5-1.5-10.781 2.375-5.719-.5-1.5 3-4.094 1-2.593-2.593-.5-2.5-3-2-1.094 2.5.5 4.5 1.5 4.5 1 5.093-3.094.5-2-4.093-2.719-3.282-2.5 5.782-2.093 7.5-2.094 6.093-7.813 10.5-2.093 6-2.594 5.5-.594 10.125 2 6-2.219 9.094-.25.688h18.97l.78-.594 6.72-5.5 1.593-2-.5-3.5.594-2.5 5.093-2 4.094-2 .625-5.5 1.094-4 4.094-3.5 4.093-5 2.094-3.5 4.219-4 4.094-2.5h4.093v5.094l-4.687 8.5-3.219 5.5 2.5 5.093-1.594 7-6.593 1.407-6.188 6-2.625 2 .5 3.093 2.406 2.407h1.407l3.312-2.407 2.094-2 4.094.5 5.093 1.625h5.094v2.282h86.563l.156-.094 5.687-2.5 3.094-4.5 8.813-8 8.687.593 6.219 1 4.594 1.094 3.5 2-.5 5.125.28 5.281h7.97l1.437-3.28 2.125-3.5 4.094-.407 3.594 3 3.5 1 6.187-3.906 4.719-3.5 3.094-2v-7.094l-9.188 4.5-4.125 1-3.594-2.594-1.5-3-3.093-2-4.594-.125-3.594-1.5 2.094-4.5-.5-2.5-6.094-1.094-6.719 3-4.593-1.593-.5-7 3.187-8 5.219-8.094 2.094-3.5 1-2 3.687-7 2.125-4.5 1-2 3.688-9.5 2.093-2 5.594-3 4.125-2 4.688-.5 1 1.594 2.5 3 5.093 4.093 3 4.5 3.594 3.594 2.5 3 1.625 1 3.094-.5 4 .625 4.094.5h3.593l-.406-4-2-5.125-2.094-3.5-2.5-5-1-3.094 2.094-4 4.625-1.5 4.688-1.406 3-.5 4.093 1 1.594 3.125 1 3 .5 2 2.5.5 3.625-1.5 2.594-5 .094-4v-5.5l-8.188.875-6.718.5-4.594-.594-2.594-.5-3 2-4.719-.5-2-2.093-5.593-1-5.188-.094-2.5-1-2.5-3.5-1-3.094.5-5 1.094-3 2.594-3 2.593-4.5 2-3 1.125-2 2.094-1.5 3.5-.5 3.094 1 3.594.594 1.093-3 1-3 2.625-2.5 1.594-2 2-2-1-2.594-2.5-3-2-3 1.5-3.625 4.688-4.375 5.218-7.625 4.688-9 3.094-9.5 2.718-7.5 6.188-4 4.594 1.5 4.593.125 2.125-2 2-4.625.594-3.5 1.594-2.5h3l2.094.625 3 2 2.593.5 4.625-.406 4.094-2.5 2.094-3 2.094-2.5 3.093-4.5-2.5-6.094-4.093-4.625-5.594-1.5-7.094-3.094-5.094-2.5-1-3.594 3.094-5.5 7.281-12 2.125-8.593 3.188-9 9.187-5.5 3.719-4 2.594-4 1-2 2.094-7.5 1.593-3.5 1.125-4 2.594-3.5.5-4.594 2.094-8 1.594-4 2.093-4 2.125-5 3.094-1.5 2 1.5 1.5 3 .5 3.594v2.5l-.5 2.5.5 2-.094 1.5 2.594 1 6.687-1.907 2.094-4v-5.593l1.125-2 2.594-4v-4l-1.5-3-.5-2.094-1-2.5-.5-4.5.593-6 1.594-4.625 1-2.5-1-6.5.594-3 1-3 3.625-1.5 3.187-4.5 2.594-4 5.094-2h1.5l2.125-1 1.094-2.5-.5-3v-6.594l.094-2.5-2.594-2.5-1.5-1 .5-2.094 1.594-3.5 4.093-3.5 2.594.094h3.125l3 2 .5 2-.5 3.594-1.125 1-1 3.5v2.5l1.5.5 1-2 .625-3 1-3 2.594-3 3.094-2 4.187-5 1-4.5 4.219-6.094 2.094-2 2.5-1.906-4-2.094-6.188-.5-6.219 1.406-6.593-1-1.5-6.593 4.687-8.5 4.719-7.5 7.281-19.094 5.219-9v-1l8.781-3.5 2-1 6.219 2.594 1.5 2-.5 3-4.219 3-3.094 3-3.093 1.5-2.594 6.5-1.5 2.5-.094 5.093-3.625 6.5-2.594 2.5-1.094 3.5 2 2.5 5.688-3.5 3.625-.406h2.594l3.593-5.5 3.094-2 5.219-6.5v-5.594l2.094-2 2.593-3.5.594-4.5.5-4.5-2-5-1-5.093-1.5-4.5-1.5-3.594.094-4 1-2.5 2.125-2.5 2.594-.5 3.594-.5 5.093.594 2.5 1 5.22-4.5 1.093-8-1.5-4.094h-4.594l-3.125-.5-2.5-5.625.719-4.031zm256.094 0-1.813 1.032-3.094 1.5-2.5 2-2.125 3.5-1.593 4.5-3.594 6-3.094 3-4.219 4.5-2.593 3-3.594 5-2.594 5-2.094 3-4.718 5-3.594 4.5-6.188 8-4.718 4.5-1.5 2.5 4.093.624 2.5-.5 4.625-1 5.688-4h2.094l5.093-1.406 2.625-2 2.594-1 2.094-4 .5-4 .094-4.093 4.094-1.407 5.625-.5 5.687-1 4.594-.906 4.594-2.5 2.625-4.5 3.187-5.094 2.594-7.5-.5-5-2-4.593.594-3.5 2-4 2.125-4 1.468-.657zm32.625 0-1.657 4.25 1.626 1.594 2.5 2v1.5l-2.626 4-3.093 1-1.594 3.5-2.594 7.5-2.093 4.094-4.126 5.5-2.093.406h-4.094l-.594 5-2.093 5.594-2.5 2-6.22.906-6.687.5-5.094-.594-3.125 2-1.593 2-.5 3.5v3.594l.5 3-2.094 3-3.594 1.5-1.594 1.5v3l1 2 2.094.5 2-3 5.188-2.406 4.593.5 4.126 2.5 3.093-.406 3.594-4 4.594-5 5.218.5-.124 3.5-5.688 7 1 3.124-1.5 4.5-3.687 5-3.126 4.5-4.593 1-5.688-.624-4.094-1-3.5-.594-4.125-2-3.593 1-4.688 3 .5 3.5 4.594 2 .5 2.594 2 3 6.187 2.125 4.625 1.5 4.094-3 6.188-1.5 2.593-3.5 6.22-6 5.687-7 2.593-3.5 3.126-7.5.593-3.5 1.5-5 2.188-6.626 2.594-5.5 3.125-9 2.093-5.5 3.688-9.093 4.719-12 3.187-8.5 3.094-6.094 1.406-3.344zM7356.5 1632.5l-3.594 1.5-3.593 1-4.126-1.5-4.093-.094-2.594 3.5-.5 5.094 2.5 4.5 2.5 4.594 2.594 3 3 .5 2.093-1 3.126-2 2.593-1.407 1.594-4.093 4.094-6.5 2.093-4-1-2-1.5-.5-2.593-.5zm-534.906 13.188-.688 1-.094 6 3.594 4.124 2-.5 1.094-2v-6.624l.812-1.188-6.219-.812zm-13.782.124-5.218.095.812 4.187-.594 6-4.625 4.5-1.093 4 1 3.594h3.593l1-.5 1.125-.5 2.5-2 1.594-4 .594-4.5v-4.594zm-20.218.782-6 .094.218 2.719.5 4.5 3.094 1.593.5.5 1-1 2.094-1 1.5-.5-1-4zm528.312 1.219-2.094 1-3.125 2v2.5l1 2.093 1 1.5 1.5 3 .5 4.5 1 4.594 2.5 2 1 2 1.625 3.594 3 1 2.594-2 2.094-4 3.594-1 3.093 1 2.5.094 2.625-4.594-.406-5-2.094-4-3.5-.594-1.625-.5-2.5-.5-3.093 1-2.094 2-1.5-1-1-4.093-.5-6h-2.5l-1.094-.5zm-405.719 45.374-5.093.407-1.094 1v2l.5 1.5 2.094.594 3.093-.5 2-2.5zm402.72 2.907-3.095 1-1.625 1-2 1.5-3.687 4.5-2.594 4.5-1 2.5-.5 3-1.094 2.594-2.125 3.5-3.093 4-2.594 2-2.094 3.5-2 3.5-1.594 3.5-.625 3-.5 3.5-2.093 2.5-4.094 2-2.594 2-1.5 2.5v2l-.094 3 .5 3.125v5l1.5 4 1.5-.5 1-1.5 5.281-8 3.094-7 3.625-5.5 7.781-9 5.22-4 6.687-7 7.812-6.5 5.688-7 4.593-5.5 1.094-4.5-.5-2-.5-1.5-2-1.125h-3.594l-4.687.5-3.5-3.094zm-407.407 3.594-4.594 2.406v2.094l.906 8 2.594 5.125 5.594 1 5.094 2.093 2.593-.5v-5.093l-3.593-2-3.5-3-1-4.125v-3l-1.5-3zM6827.094 1758l-1.594 3.5-1.594 1.5-1 3 3 3.5.5.5 3.094.594 1 .5v1.5l.5 1 .5 3v5.5l-.594 3.594v2l-3.094 3.5v1l-.625 3v4l.5 1.5 2 5.125 2 2.5 3.625 2 3.094 2.093h6.094l1.094-4-1-2-2.094-2-2 1-1.594.907-3-1-1.5-3v-2l1-3.5 2.594-3.5 1.594-3.625-1-3.5-1.5-5-.5-5.094-.407-3.5 1-1.5 2.125-2.5-5.125-3.5-4.093-4.594zm434.406 3.188-1.5 2-.094 3 1 3.5 1 1.625 2.094 3 3 2h1.594l1.5-1 1.593-1-1-4.5-.5-5.5-.5-2.625-1.5.5-1-.5-3.093-.5zm-5.688 11.5-2.125.5-2 1-2.093 2-1.594 2-1 1-1.594 2.5-3.094 2-1.5 1.5-.5 2 1 2.5 2.5 1 2.094.125 1 3-.094 6-2.125 8.093-4.094 3-2.593 2.407 1 2.093.5 2 1 3v2.5l-1.594 4.5-1.594 3.094-.625 5-.5 4.5-3.094 2.5-1.593.5-4.094 2-5.094.906-3.125.5V1852l-.094 3-.5 4.5-1.094 4.5-2.593 5-1.594 4.094 1.5 1.5.594 1-.594 1-1 3-4.313 15.094-4.093 5-.094 6-2.625 4-2.5 2.5-2.594.5-2.094 1.5-.5 1.5-4.187 5.5.5 2 3.593-.5 1 .625 1.094 1v2l2.5 1.5-.094 6 3.094.094 1.594-3.5 1-3.094 1.093-5.5 2.125-4.5.5-2.5 1.594-1.5 1.594-3 2.094-4 2.093-6 3.125-9.625 2.688-8.5 3.094-8.594 2.718-8 1.5-4 2.594-4.5 2.094-4 4.187-5.5 4.125-5.5 1.594-4.5 2.594-6.594 2.687-6.5 2.125-8.5 3.594-8.593 3.188-9 6.312-11.5 3.594-6-1-1.594-1.5-.5-1.594-1-1-1-2-2.5-1-1.625zm-332.625 19.218-1.593 2.5-1.5 1.5-3.094 4.5 1 3.5 3 7.094-.094 4 .5 4.594 1.5 3 3.094 2 3.094-2.5-.5-3-2-4.5-1.5-3.594-1-3.5-.5-2.5 1.593-5.5.5-5.594zm134.907 4-2.094 1.5-1 1-.594 1.5-.5 2.5.5 3.5 2 2.094 1.594 1 2-1 2.594-2.5 1.093-3-2.093-3.5-1.5-3.094zm-42.407 38.907-2.093 2-1.094 2-1 1.593-2-.593-3.594-2-3.094 1.5-1.125 2.5v2.5l.5 3.5 2 3.593.625-2 2.5.5 1.594-1 2.5-1.5 2.594-.5 2.094-1 3.093-.5 3 .094 1.625-3-.5-3.093-2-1.5-1.5-2-1.125-.5zm196.907 8-2.094 1v6.593l.406 3.5-.5 2-3.594 3.5-1.125 5-1 2.5 3.5 3.094 1.625 1 2 .5.5-3 1.094-1.5 1.5-2 1.594-3.5v-3.5l1.094-4 .094-6.594-1.594-2.5-1-1.5zm-254.094 70.593-1 .5h-1l-2.094 1.5-.5 1v1.5l.5 2v1.594l1 1 2.5-1 2.594-1.5.594-3-1-3.094zm-4.813 18.094-1.5.5-.5 2-3.593-.5-3.094-1-2.594 3 1 4 2.094.5 4.594 2.094 1 2 1.5-1 1.593-1.5 1-3 1.125-4.094-.5-2.5zm242.625 12.906-2.125 1.5-1 2.5-1.593 2.5-2.094 2-2.5 1-2.094 3-3.594 2-2.125 2-2.093-.5.5 2 .5 3v2.5l-1.5 2-1.594.5-5.594.5-3.094.407-2.625 1.5-3.593 3.5-1.594 1-4.094 1-3.094 1 1 5 1.5 3.593v3l-.625 4.5 2.125 2.5 2.5-.406h3.094l3.594 1.5 1 3 3.594 1.594 4.593-1.5 3.625 3-.625 4.094-.5 2.5-1.593 5-4.688 5.5-4.594 2-4.125 2-7.687-.594-4.094-2-.5-3.094.5-2.5.094-5-1-3.5-1.5-2.594-3.094-2-5.093-1.593-3.625 2 .5 2.593-.094 5.5-2.594 3-2.5 2.5-.594 1.5-1.5 2.5-.594 2.5-1.5 2.5-1.625 2 .5 1.5 1 2.594 2.125-.5h4.594l4.094-.5 4.594.094 3.593 1 2 1.5 3.125 1.594 3.094.5 2.5-1 3.094-2 6.187-2.5 3.625-.375 2.594 1.5 1.5 2.5 2 3 2.594.094 1-5.094.094-4.5.594-12.125 2.625-8 2.187-9 5.188-12.594 3.718-9 3.688-12.594 1.094-8 2.125-2.5 3.093-3.5v-3l.5-3-1-1.093-2.5-.5zM6568.406 1998l-1.5 2-.094 4.594.5 5 1.5 4 4.094 1.594.5 2-1.094 2-3.625 2.5v1l.5 2.5 2.625 2.5 4.594 2.125 5.094 1.5 5.593-1.407 3.72-5.5-1.626-1.593-3-3.5-5.094-5.625-3.5-5.5-5.093-8.094zm564.5 38-3.594.5-2.125.5-3.593.5-1 2v2l1 1.5 2.5.5 2.593.5h1.5v2.094l-1.5 2.5-1.093 2.5-1.594 3-1.5 3.5 2 1 2.094.5 3 .094 4.093-1h4.72l4.093-.5 3.594.125 2.5 1 2.593 1.5 1.5 2.093 2.5 2.5h1.625l1.5.5 2.094-1 3.594-1 1.5-1.5v-2l-1.5-2-2-3.5-1-4.093.594-4.5 1-2.5-.5-1.5-2-1.5-1.594-.125-3.594 1.5h-1.5l-1 1-1.594 1-3.125 1-2-.5-2.093-1.5-1-2.594-1.5-1.5-1-.5-2.594-.5-1.5-1-2.094-.594zm41.406 12.406-1 1v2l-1.125 3.5.5 1.5.5 2.594v2.5l-1.093 2-3.094 2-2.594 1.5-2.5 1-3.594-.094-4.125-.5-.5 1-1.093 1.5-3.094 2.5-1.5 2-.594 1.5-1 1-2.094 2.5-1 1.5-.5.5-1.125 2.5v3.5l.5 3.594.5 3.5-.593 2-2.594 2.5-5.094 1.5-4.094 1.906-2.125 2-3.093-1-1-3.5.094-1.5-1.094-.5-3.594.906h-5.594l-1.5-.5-2.093.5-2.625.5-2-.125-2.594-1-2-2-2-2.5-2.094-2.594-1.5-2.5-4.594-4.593-2-3-1.5-2-.5 1-1.093 2.5-2 2.5-.625 3-.5 4-.094 3 .5 2.593 1.5 2 3.093 1.5 4.125 1.594 5.594-.5 3.594 1v1.5l-.5 1.5-3.594 2h-4.594l-3.125-1-4.593.906-2.094-2.5-.5 1-1 3.5-.094 3.5.5 3.094 2.094.5 3.594-.5 1.5-1 2.593-1 1 1.625-.5 1.5-2.093 4-2.094 2-.5 3h3l2.094-.5 3.593.5 2.5 2.094 3.625-1 2.094-2.5 1.094-5 1-4.5 1.594-2.594 4.093-1.406h2.625l3.094.5 3 1.5 4.094-.906 4.594.5h5.718l1.5 1.093 1 1.5.5 2 .5 3-1 2-1.125 4-1 2-.094 4.094.5 4-1.094 6 1 2.625-1.5 2.5-1.093 3.5-1.594 3.5-1 2.5-1 .5-.625 2.5.125.781h6.344l1.75-1.687 2.093-3 2.094-1.5 3.094-3 2.125-4 4.094-6.594 2.687-7 3.094-8 2.719-8.5 3.094-5.625 2.593-6 1.594-3 1-3.5 2.625-5.5 2.688-5.5 4.687-9.594 3.125-8.5 3.094-4 1.594-2.5.5-5 .593-3.5v-3.593l-1-2.5-2-.5-3.094.5-3.093-.094zm-5607.406 42.907-4.5.28-85.906 70h58.719l.187-2.78 1.406-3.626 2-2.5 3.094-2.593 3.688-1.406 4-1 2.718-1.282 2-.906 1-.687 3.188-1.813.906-.5 2.188-1 2.593-.5 2.5.094 1.125.312 2.5.688 1.5-.094 2.688-.187.406-.625 1.594-2.282-.594-3-.812-2.218v-1.594l.906-.5.5-.188 1.312-.218 1.188-.282 1.406-.312.781-.406 1.407-2.188 1.312-2.187 1.406-1.313 2.5-1.594 2.594-1 3.781-2.593 1.907-.813.5-1.5v-1.5l-.907-2.312-1.875-1.376-2.5.376-1.125 1-1.687 2.624-1.906 1-2.594-.124-.5-1.5 1.094-1.594v-2.5l-1-1.906-.688-.282-.906-.5-.406-1.312-.282-1.781-.218-1.313 1.093-4 .5-1.406-1.28-1.406-1.595-.5-1.5.812-.718.406-1.407.282-1-.282-.593-.5-1-2.093-.594-1.407-1-1.093-.594-.407-1.406-1.093zM7129.594 2116l-5.094.5-3.094.5-.094 2-1 3-.5 1-.625 3.5-1.5 2-2.593 2-3.594 2-1.094 4 1.5 3.5 4.094 1.094h1.594l2.5-.5 1 4 1 2.094 3.093 3.5h1l1.5-.5 1.625-1 2.094-3 2.5-2 2.094-1-.5-4.5.094-1.5v-4.5l-.5-3.094.5-2.5.094-2.5 2.625-3v-3.5l-3.625-1-2-.594zm-555.688 17.406-5.219 2-1.5 3 1.5 3 2.5 3.094.5 4.5-1.093 3-.782 2.406-1.312 3.688-1 2.406-.469 1.094h35.5l-1.531-2.281-1.688-2.5-3.5-5.625-2-5-2-2.688-2.625-3.406-3.687-2.094-1.813-.906-4.687-2.594zm537.406 20.188-2.625 2-2.093 1-3.594 2.5-4.594 1-3.219 1.5h23.22v-3.906l-1-3.5-2-.594z" style="fill:#9faec0" transform="translate(0 50)"/><path stroke="#9FAEC0" stroke-width="10" d="m1476.5 2161.594-28.594 23.312-179.718 145.907-7.376 6-11.312 9.093-3.187 2.5-2.313 3.407-.812 2-2.594 2.78-3.688 2.313-2.812 1.782-3.094.812-1.687-.187h-.907l-3.093.78-2.126 1.095-1.093.625-1 1.78-.281 2.5-.313 3.22-2.094 2.375-3.593 1.906-4 2.094-18.22 5.312-10.687 3.188-11.093 3.218-7.407.782-5.218 1.312-5 1.313-8.782 2.187-6.5 1.406-2.719.907-4.593 1.375-4.188 1.406-4.718 1.719-.594.28-4.5 2.407-6.281 3.313-7.125 1.875-6.5 1.718-2.282 1.688-2.406 1.812-2.594 2-2.5 1.907-1.718.187h-.875l-1.72.094-2.405.219-2.688.281-2.594 1.313-2.093 1.406-1.5 2.281-3.625 3.5-2.188 1.219-3.094 1.781-3.5.406-2.718.188-2.188 1.406-2.094 1.719-1.218 1.094-2 1.187-1.782 1-2.906-.187-3.187-.22-4.22 1.72-3.905 1-2.094.78-2.5 1.126-7.281 4.875-3 1.812-3.72 2.313-4.593 3.375-3.5 1.719-4.187 2.78-3.907 2.126-1.812 1.375-2.594 1.906-2.094 1.813-2.312 2.906-3.781 1.875-2.72 1.312-5.187 2.5-5.906 4.094-5.406 4.313-3.594 3-3.094 2.5-2.718 1.78-3.875 1.313-2.407 1.313-4.312 1.5-4.188 1.375-4.812 2.219-2.281 1.906-2.125 2.781-4.594 1.719-2.594 1.687-3 1.906-2.187.907-4.625 1.375-2.594-.094-3.594-.094-3.187 2.312-8.625 4.5-11.875 6.188-5.125 2.687-3.282 1.72-1.812 2.687-1.094 1.718-.187 3 .687 4.094 1.594 6.594-.094 5.594-.094 5-.813 3.5.813 3.093 1.281 2.625 1.406 2.594 1.22 2.906-.5 2.5-2.313 2.094-2.407.906-1.406 1.782-1.281 3.5.406 2.812.688 4.281.406 6.22.594 8.5.187 4.093-2.281 3.312-2.094.688h-2.625l-2.5-.688-3.687.782-3.094.812-2.219 1.781-1.281 3-.719 3.813-.875 4.094-1.719 3.312-1.5 1-1.687.406-2.406-.406-8.188.906-6.219 5-5 4.594-2.78 1.406-1.5.782-3.22 4-1.28 1.718-3.313 1.094-3.094 1.094-2.094.687-2.5-.593-2-1-1.5-1h-2.625l-2.5-.188-4.187 1.688-3.594.406-5.094-.094h-2.125l-2.594.281-2.187 1.906-1.813 1.813-.593 2.5-.907 2-.593 3.094-2.5 4.093-2.188 2-4.406 4.22-8.719 2.593-2.594-.313-1.187.407-1.906 2.187-3.313 1.406-2.687-.187-2 .906-1.094.375-1.813 2.813-1 1.593-.187 1.5v1.22l-.313 3.28 1.22 3.22.374 3 1.5 3.187 1.219 2.5 1.594 1.53h5589.218l.094-.343-1-3 3.094-5-1.5-3.5-2.5-3.594-12.312-6.593-7.094-2.094-9.313-.594-9.187.5-10.313.375-9.687-3.594-8.094-4.593-6.719-4.594-3-6.594-1.5-6.5-.375-9.625 1.594-5.5 1.594-6.5 2.594-9.594 3.718-9 .594-8v-5.093l-.906-6-4.5-11.094-1.5-11.594-1.5-5.125-2.5-4-3.094-1 .094-11.594 1.688-18.093 4.218-10-1.5-3.094-6.093-7.094-4.5-5.5-4.125-3.625-2.5-3-2.594.906-3.094 5.094-.594 3.5-1.093 5.5-.5 4.5-4.72 9-2.593 1.5-1 3.625-1.094 3-2.093 5-1.625 6.5-5.688 8.5-3.594 1.5-5.093.5-6.22.375-7.687-2.094-4.093-3-7.5-12.593-6.125-8.094-5.594-3.594-8.188-5.125-3.593-3.094-2.5-5.5-2.5-3.093-4.625-3.5-10.782 1.406 2.594-5.5.594-4-1-4.594.594-5-1.594-1.5-3 1-9.781 2.375-9.813-.594-17.906.907-10.281-.094-7.22-1.094h-4.593l-9.187 4.5-10.313 3.375h-5.187l-4-1.594-10.22-6.594-11.187-11.187-7.718-5.5-7.094-6.125-2-1.594-3.594-1-2.094-1.5-6.593-1.594-4.625-3.5-6.094-1.094-4.594-1.593-5.187 1.5-3.625 4-3.594 1-10.281 5.875-2.625 3.5-2.594 5.125-2.594 2-2.094.375.594-6.5 1.094-4.5 2.094-5 3.625-4.5 4.687-4 3.5-1 5.188-2 5.718-2.375-2-8.625-1.5-6.594-2-6-1-5.594-2.5-3.5-2-4.5-1.5-4.594-1-2.5v-6l1.594-5.593.094-4.5-4.594-2.625-3.594-1-4.593-1.5-3.125-.094.5 6.594-5.688 2-2.594 2.5-3.593 1.906-4.125 2.5-4.688 5.5-3.594 4.5-3.718 7-5.188 10.594-1.5 1.5-4.187 2.406-7.219 2.5-.406-6.5-10.188-5.188-3.594-1.5-3.593-2-2.5-10.093.593-8.625-1.5-3.5-2-4.094-1.5-3.5-.5-4 1.594-4-1-1.5-.5-.594-1.594-.5-3.593 4.5-2.125 3.5-3.594 2-2 .5-4.188 1-3 1-6.718 1.906-5.188 1-5.594-1.593-4.593-3-2.5-.5-3.125.375-2.594 4.5-2.594 1.5-5.187 2-.407-3.5-2.593-1.094-4.125 5-2.594 3-2.594 1.5-4.687 3-3.625 1.5h-5.094l-6.094-1.094-4.594-3.594-.5-3.5-1.5-4-.5-3.5-1-2.593-1-2.5h-6.093l-3.625-2.125-1-1.5-1-3-3.594-2.594h-2.594v4l-.5 4.594-1.094 2.5-3.093 4-3.625.406-9.782 4-6.218 6.5-3-8.094-1.5-2-4.594-3.094-2.094-1.5-1.5-1.5-1.5-2.593-1-1.5-1-2-1-4-.5-3.625-1.5-.5-2.594 1-2.093 1.5-2.5 2-1.625 1-2.094 2-2.5 1-1.594-1v-2.094l-1.406-6 .5-5 .594-4.594 5.125-1.406 3.593-2 3.094-1.5 3.094-2 .594-2.5 2.5-1.5.125-2.5.5-3.5 1.093-3.5v-2l2-2 1.094-1 2-.281.5 3.78v4.5l-.594 3.095.5 2.5 1.5 2.5 1 2.5v1l-2.093 3.5-1 3-.5 1.625.5 2 4.5 5 4.687-.907 2-1.5 2.594-1 4.594-1 2.625-.5 3.593-2 3.094-.906 3.094-1 3.094.5 11.218-.906 6.188 1.094 3.594-2 4.125 3.5 4.093 2.125 5.094 3 2 4.593 3 2 5.188.594 4.125.5 9.687 1.594 2.594-.5 3-.5h2.594l3.125.094 4.593.5 3.094-1-.5-3-1-2-.5-3 4.094 1.5.5 2 4.594 4.625h4.125l4.093-3.5 3.094-1.5 2-1.5 16.5-.813 8.688-3.5 8.312-6 6.688-2.406-2.688 7-4.594 1-1 1.5 2 5 1.5 5.094.5 3.5-.094 3-2.125 8v2.125l.5 4-.094 2.5.5 3.5 1.5 5.594 3.094 1h4.625l2.094-2.5 2-2 2.594-2.407 2.593-3 3.094-3 3.625-2.5 3.094-2.5 2.094-2.5 3.093-3 2.094-2 4.125-2.5 4.688-2 7.687-5.906 1.625-2 5.094-3.5h1l2.094.5 1.5 1.5 3.093 5.094.5 1 2.5.5 1 .5 3.094 2.125 4.125 3 1 3 1.5 2.094 1.5 3 1 2.5v4l1.5 4.593.5 4-.625 4.5 2.5 3.594 6.125 8.594 6.594 7.125 6.094 10.594 5.593 5.093 12.72 8.094 3.093.594H6020l3.093 1 8.22 3.125.5-3 .593-4 4.094-4 5.093.5 6.22-1.906 2.593-7.094 6.187-2.906 3.594.5 4.719-6.5-1.5-5-3.594-5.094.594-11.125-.406-4.5.5-2.5 1.094-3.5 2.593-6.094 1-3 .125-4-5.625-4.094-1-4-.5-4.5 2.125-3.5 4.688-5 1.094-7.687 6.5 9.187 1.5 4.094 2.093 1.5.5 2-5.687 3.5.5 3.5 4.5 5.094 9.187 4.625 2.125 1.5-3.718 5-3.594 3-3.594-.5-4.094 1.5-1.625 10.5 2 7.594 3 6.5.5 3.593 1.407 7-5.594 5 .906 5.094 2.594 3 20.5-.281 15.406-1.406 12.781 1.593 10.219 4.094 4.594 3 5.594 10.094 3 5.125.5.5 4.593 3.094 2 6.5 3.5 5.593 5.125 3.594 5.094 4.5 3 6.594 6.188 3.125 6.593-1 3.125-3 5.282-9.5-.5-2-2-3.125-3.594-1-3.594-1.5-3.094-3.094 1.094-3.5 9.688 1.094 10.312-.375 13.281-1.406h7.719l3.688-2.5-3.594-2.5-2-2 2.5-3.5 2.594-2.5 3.593-.5 2.125 2.5 2 2 7.688.094 14.312 1.093 14.375 1.22 8.219 4 5 4.593L6288 2491l3.594 5.093 3.5 5.5 4 13.094 2.5 8.125 2.5 5.594 4.593 2 2.5 1-.5 6.594-1.593 5.5-6.188 7.5-4.719 7.5-2.687 7.5-1.594 5.593-2.594 5h3.094l1.5 3 2.594.594-.094 4.5 3.094 2.5 3.593 3.625 5.094 1 5.625 1.094 4.094 5.5 6.594 6.594 9.093 8.687 3.094 1 2 5.5 2 5.125 2 3 6.219 3.594 7.094.594 2.093-4.594-2.5-7-3-5.094-4.093-5-3.5-4.625-3-5.594-1.5-4v-4.5l2.593-4 3.094 1 3 .5-.5 2 2.5 4.094 1.5 3.5 2.125 2 1.5 3.625 1.5 4 4.094 1.594 2 2 .5 5 1.5 3.594 4.594 1 4.093 3.593 4.094-.5.5-3 1.625-3.5 4.594.5v3.5l-.594 4-2.625 3-2.594 6.594-1.093 5.5 6.593 10.125 5.594 2.594 8.719 6.094 8.094 5.593 8.687 4.594 4.625 1.5 4.094 3.625 6.094 4 3.593 3.594 4 3.594 2.5 6.5 2.5 6.093 3.032 3.938h94.062l1.406-2.719 3.094-5 1.125-2 7.594 2.594 5.187 2.094 6.094-2.5 4.219-4.5 3.594-6 3.687-4.5 4.625-2.5 2 1.5 1 6.093-3.125 7-8.281 10-.438.438h11.375l.25-.344 2.719-6 1.094-6.594 2.094-6.5 1.593-9.5v-2l2.719-9.093 4.188-12.5 2.593-10.094 2.219-10 2.594-8.094 2.094-5.5.593-8.5-2-6.125-2-3-3.593-3.594-6.594 1-4.719 5-3.594 2-2.093 1-8.188 3.407 2 5.593 2 5-1.625 7.5-2.594-2.5-2-3.5-.5-2.5-1-2.593-2-2-.5-4-1.5-3.094-1.5-2-7.187 1.5 1 4.5-2.594 2.5-.625 4-.5 3h-1l-2.094.5H6552l1 10.094-1.094 5-5.219 3.5-5.687 5-2.594 4.5-1 6.5-2.094 4.5-1.625 2-3.094-1.5-1.406-6.094-.5-6.5 1.125-6v-2.094l2.094-6 3.594-3.5 5.187-3 3.625-1.906 3.094-3.5 1.594-3 1-2.594-1-3.5-3.594-1h-3l-3.094-2.125-1-5 .094-4.5-1-2.094-4.719 1.5-1.5 3-2.593-1-2.5-2.593-3.094 2.5-1.594-.5 1.094-5v-1.5l-.5-.5-2.5-1-2.594 4.5-1.594 1-3.125-.594.625-4.5.5-4v-1l.094-4 .5-1.594 6.188-.406 6.594-1.5 4.218-.906 2.5 2.5 2 3 1.5 1.593h3.594l3.594-.5 1 4 .5 5.094 1.5 2.5 4.094-1 1.625-5 1.593-2.5 5.594.625 2.094-1 1.5-2.5 5.094 2.5 8.812-.906 6.094-2.5 6.219-.5 5.187-2.406 1.5-2-1.5-4.594-4.094-1-5.593 1.5-2.625-1.094 2.125-4.5 3.093-1-.5-2-5.593-2.5-3.125-3.625-.5-2.5-5.594-3.094-2.5-.5-2.094 3.5.5 2.5.406 7.094-6.093-5.094-3.125-2-2-5.093-3-3-5.094-4.594-2-5.5-1.5-5.094-1.5-4.5 2.094-4 1-2-.375-2.125-4.125-.5-7.688-3.594-3.094.5-4.093.5-5.125 1.907-.594 5.593 4.594-.5 6.218.594 2 1 1 1.5 1 2.5-6.218 3h-5.094l-4.094 3.406 2 4.594 3.594.5.5 1.5-3.094 2h-4.594l-4.218 1-2.594 3.5-3 .406-1.594-1.5 1.094-6.5 3.219-5 2-4 .593-2.5-1.5-2.593-5.718-2.5-7.188.906-5.094-1 .094-5.094-1.5-3.5-4.687 4.5 1.5 2.5-2.625 4.5-2.094 3 .5 4.094.5 5-3.594 3-2.593-1.5-1-3.094-1.5-.5-3.72 4.5-2.093 5.5-3.594 5.094-3.593.906-6.094-2-9.219-3.125v-5.094l2.094-3 7.219 2.594 4.593.625 3.594-.5.5-6.125-1-3 1.094-2.5v-2l-2.5-3.5-1-3.594.5-3.5 2.625-1.5 3.5 5.094 2.594 2 3 1.5 4.187-3.375 3.594-7.125.125-5.5-2.5-5.094-4.625-2.5-4.094-2-4.094-.593-6.687 1-4.625.906-4.594 1.5h-3.094l-2-2.5 3-2 3.094-2 7.219-3 3.594-.5 5.687.594 3.094-1 1.5-1.5 4.625 1.593 4.594 2 6.093 6.094 2 3.5 1.5 3.625 3.688-2 .5-7.125.625-7 .094-6.5-1.5-5.594-2.5-4-2.094-2.593-3-2h-2.625l-1.594 3.5 1.5 4 1.5 3.593-1 2-4.593-.094-1.5-2.5-2.594-3-1.5-1.593h-4.594l-5.719 1.5-5.093 1.406-5.094-2-2.094-2 .094-3.625 2.094-3 7.094-.875 4.093 1 3.625 1.094 3.094-.5 2.594-2-1.5-4.094-2-2-1.094-2-4.594-1.125-3.625 2-6.687 1.5-10.188 2.406-10.812 1.5-9.313 2.406-11.187-5.093-.5-.5-8.188-4.594-5.625-5.625-7.093-5.594-10.188-4.594-5.719-2.093-3.5-1.5-3.593-4.594-5.594-3.5-5.594-5.625-6.594-7.094.094-3.5-4.093-1.094-5.219-1-6.594-2.593-6.687-1.5-8.719-.594.594-3 2.625-3v-2.5l-1.5-2.125-5.219-2-9.688-5.094-5-4.594-4.093-5.593-3.125-1.5-6.094 2.5-4.688-.094 6.782-6.407v-2.093l-1.5-1-2.094-.5-5.094-4.625-4.5-8.594-4.594-7-3-7.594-3-5.594-6.593-6.093-4.125-6-2.5-7.125-2-7.094-.375-5-3.125-2-7.688-1.094-6.5-12.094-3.094-4.093-10.593-19.22-13.219-15.187-4-3.5-7.188-6.593-9.593-8.22-6.719-6-4-4.593-1.5-4-2-6.594-1.5-4.5-1.5-2.593-3.094-3.5-2-2.5-2-2.625-1.5-2.5-1-4.5-1-4.594-.5-3-1-2.5-2.5-3.594-5.094-2.5-7.718-2.594-8.688-4.093-8.687-3.125-5.125-3.5-.5-2.594.062-2.5H3033.344l-1.656 1.594-2.281 2.125-.406.28-5.188 3.313-5.219 2.407-9.78 3.5-12.813 3.875-7.188 1.906-3.125 1.5-3.594 1.406-4.687 3.5-1.594 3 .094 3.5-1.719 2.5-.78 1-1.22 1.094-3.28 1.906-2 .906-4.407 2-6.406 2.907-13.407 6.375-11.687 6.218-8.813 6.407-8.5 7.593-5.187 3.907-2.094 1.78-2.094 1.72-3.625 3.093-4.28 1.688-5.5 1.5-3.595 1-4.625 2-2.093.5h-3.094l-3.5-1.688-2.594-4-2.5-1.593-2-2.5-1.5-2.125-.406-.5-1.094-2-1.5-2.5-.5-3.094.281-2.281.313-2.22.5-4.5.094-7.593-1.781-7.906-2.5-7-1.5-3.5-2.125-3.188-2.375-1.406-2.625-1.094-3.594.5-2.906.5-2.188.5-11.312 2.907-8.782 1.5-8.218 2.375-5.688 2.406-9.812 4.906-5.282 3.5-6.718 5-8.282 6.406-7.812 5.407-3.906 2.5-2 1.093-2.282 1.407-4.718 2.375-4.094 2-3.781 2.625-5.22 3.5-7.78 5-13.907 8.875-16 8.906-12.812 6.406-18.688 10.313-.406.187-13 6.688-4.5 2.218-5.312 2.688-10.282 3.906-7.593 2.906-2 .907-8.813 2.875-7.187 1.906-4-10.094-3-6.594-3.625-5.093-2.594-1.5-3.094-1-3-.125-.5-.094-2.094-.281-.406-.22-1.594-.5-1.593-1-1.5-2-2.5-3.593-4-5.594-5.125-6-7.594-6.093-6.688-6.125-4-3-4.718-1.094h-5.594l-4.094-2.594-3.906-2.906-4.688 7-.5 1-2.718 4.5-.094.594v2.812l.5 3 1 4.094-12.407 18.5-2.687 4.094-1.594 4.406.5 3.5 3.094 4.594 3.906 4.5 2.688 3 14.906 20.125 2.406 4.187-1.094 2.094-2.625 2.5-4.093 2-5.094 3.594-5.688 3.406-2.312 1.812-2.813 2.188-2.593 2.094-1.594 1.312-4.188 4-5.218 4.906-6.188 5-11.312 6.907-8.782 3.875-12.406 5.906-4.219 1.594-8.593 2.906-6.782 2.406-2.625.813-4.875.78-3.218.407-6.094-.5-1.5-.094-.406-.313-.688-.687-1.094-2.406v-2l-2-3-2.5-1.594-3.125-.594-6.093 1.875-12.094 3.5-4.906 1.406-15.5 4.313-8.782 1.406-.812.188-11.5 2.093-6.094.72-6.219.687-10.28 1.812-11.595 1.781-9.812 2.407-15.5 4.312-10 3.875-9.813 2.906-13.375 4.407-8.906 4.093-8.312 4-7 4.094-6.5 3.625-2 1.094-9.188 6-1.594 1.094-4 2.406-5.5 3.094-.718.406-7.782 2.406-13.218-12.219-4.282-4-56.812-52.406-18.188-21.687-20.812-25.094-2-1-1.5.5-1.188 2.406-3.125 6.5-3.093 5.594-3.094 1.406-4.688 1.5-1.625.281-2.5.594-1.5.313-1.093.406-3.594 2-1.688 1.781-1.906 2.406-1.594 2.813-1.125 3.687-1 3.594-2.093 3.719-1.594 4-2.094 4.5-1.094 3-3.125 7-3.093 5.094-1.282 1.5-2 1.593-3.406 3.313-3.094.594-3.125.906h-4.28l-2.313-.313-1.594-.28-2-.5-2.094.5-2.5.374-2.094 1-3.406 1.406-4.594 3.594-1.218.906-1.907 1.5-2.593 2.5-2.094 2.5-2.094 1-2.5-.094-3.094 1.5-2.812 2.188-1.906 1.812-3.094.907-2 .687-1.188.406-3.5-.687-3-2.5-2.312-2.313-1.313-.812-1.187.812-2.906 3.188-1.688 4-.594 4.812-1.5 4.188-2.125 4-2.687 3.312-3.094 2-5.594 3.407-5.718 2-6.188 3-4.094 1.406-4.625 2-4.093 3-3.688 3-2.5 2-.906.781-5.406 4.094-102.688 2.625-2.906-.625-2.188-2.781-1.406-2.719-2.594-3.594-.406-.28-3.094-1.72-2.625-1.594-3.593-2.5-4.5-4.5-2.094-1.906-3.5-3.187-4.5-4.907-1.188-2-2.406-3.812-3.094-3.5-1.906-1.281-1-.407-1.594-.406-1.5-.28h-3l-2.625-.126h-2.093l-2-.094-.594-.594-.5-.5-.5-2v-2.5l-1-5.093-2-10.094-2-5-.906-1.625-1.782-2.875-1.218-1.125-.907-.875-.875-.813-1.625-1.312-1.5-3-1-1.5-1.375-.688-.718-.312-2.782-.094-2.312.406-3-.5-1.594-.5-2.406-1.5-2.5-2.094-.813-.5-2.28-1.5-5.595-2.593-5.125-1.125-3.093-1-3.594.5-4.594.406-3.406 1.719-.688.28-3.312 1.813-4.406 1.188-5.188-1.094-2.594-1.812-2.906-2.782-.594-.5-1.125-.812-1.875-1.094-1.5-.594-2.625-1.093-1.5-.5-1.187-.313-.906-.187-1.594-.313-2.594-.594-.906-.906-1-1.312-.5-2-.406-4.5.406-5.375v-2.5l-.188-.72-.718-1-3.094-1-3.094-.593-1.5-2-1-2 .188-3.312.906-3.594-.5-3.094-.906-1.5-2.094-2-2.594-1.687-1.406-2.407-.906-1.406-1.094-1.687-1-2-2.594-2-2.5-.125-2.594.906-4.125-.094-1.375-.813-2.312-1.593-2.094-1.782-1.312-1.312-1-1.688-1.5-2.406-1.5-3-3-3.094-.688-1-.812-1-2.407-3.406-2.187-1.594-2.313-1.625-.5-.28-1.78-1.813-.595-1.782-.625-1-1.78-2.312-1.313-1.406-2.188-2.688-.906-1.812-.5-3-1.406-2.594-.688-2.688-.406-1.812v-2l-.5-1.813-1.906-5.78.5-2.22.5-4 .593-4.093 1.125-4 2-8.282.188-2.5.5-2 2-2 1.5-1.125 1.094-1.375-.594-3-1.313-1.812-.375-.688-1.218-1.625-3.094-2.5-2.5-3.593-1.313-4.5-.5-2.282.625-5 .375-1.906.72-3.094.187-1.218-.094-1.907-1.094-1.375-2.5-1.625-3.094-1-1.719-1.093-.78-.5-3.626-2.094-3.594-2-1-.406-1.406-.907-3.5-.5-2.594.5h-2.593l-1.5-1.593-1-3-.594-1.094-.906-1.5-1-.688-1.688-1.125-3.625-2-2.875-.187h-2.219l-1.906-2.094-2-3-2.594-5.094-2-6.625.125-2.093h-58.718zm4686.563 0 2.25 1.406 4.093 3.5 2.5 3.094 5.094 4 4.094 4.094 5 6.625 4.093 6.5 2.5 3.593 2.5 5.5 2 4.594 1.5 7 2 6.094 3 4.5 3.626 3.094 4.093 2 4.094 1.5 2.5 4.125 1.5 6.093 4.594 3 3.093-.5 1.5 4.594-.093 5 4.093 4.594 6.625 4 5.594 3.094 6.188-.875 2.593-3.5 3.5 5v3l1 6.093 1.5 5.5 5 6.594 5.125 5.094 4.594 3.5 3 5.094 3.594 5.625 6.594 8.093 6.593 6 2.5 5.094 5.125 7.594 6.594 6.094 4 5 3.688-2.375 2 6 .906 6.593 7.094 9.094 4.093 5 3 3.094 2.625-2.5-.5-4 1.094-2.594 3.594 3.594 3 5.594 5.094-1 9.812 1.125-1.094 3-5.125 2-8.281 1.875 2.5 8.125 5.094 1 9.187 9.187 4.625-1.5 3.094-3.5.594-5.094 1.094-6 3 4.594-4.282 17.594 1.594 2H6374l5.094 1.594 2.5 2 2.093 2 5 4.625 2.625 2.5 1.375 9.093 2.5 8.094 1.5 4.5 2.125 2 6.688-2.406 6.187-5.5 3.625-7.5 7.688-2 5.687.094.5 3-3.593.5-1.594 3-2.094 4.5 2.594-1 11.312 1.625 11.782-2.406 10.312-3.5 8.188-4.407-1.907-11.093h3l5.125 6.093 13.282 1.094 6.718-1 7.188-.906.5-2-6.094-2.094-4.094-.5-3.125-1.094-2-1-1-3v-2.5l3.125-1 5.594 2 4.094 1.094 3.094-1.5 1.093-4.5 1.5-3h2.625l2.094-1-1.5-3.5-3.094-1.594-1.5-3 1.094-4.5 3.594-5v-2l-3.594-1.593-5.094 3.5-4.125 1.5-5.187-2.094-1.5-3.5-.406-4 4.093-1 3.625 1 1-2v-2.5l-3.5-3.5-4.125-1.625-3.593-2.5-4.094 3-2.094 4-2.594 3-4.625-.094-6.687-1-4.594-.094-3.594 1-1.625 4-2.593 3.5-4.594 1.5-3.594 1 1 5.5.5 4.094-1.094 3.5-4.125 1-2-5.094v-3.5l-5.593-3.094-4.594-2-1.5-2.594 1.594-5.5 4.093-1.5 4.125 2.094 5.594 1 3.594-1.406 3.594-2 1.593-2v-4.594l-1-3-.5-2.5h-4.593l-8.782 4.406-5.625 2-7.687.375-3.094-1.5-1-4.5.094-5.593v-4.5l-2-4-2.5-3.094-2.594-2.5 2.094-1.5 4.594-.5 3.593 1.594 2.5 3 1 6.5 1.5 3.093 4.625 2 5.688-.875-.5-4.125 2.594-2.5 6.218-2.375 6.094 3v2.594l.5 2.5 3-1 2.594-1.5h3.594l3 4.594 3.093.5 6.22.594 5.593-2 1.094-2.5-1.5-5.094-2.594-2.5-.5-2 .594-2.5 1.5-1.5 3.593 2.5 1.5 1 2.125-1.5.5-3.5-2-3-6.625-1.094-4.187.5h-3.5l-2.094-3.094-.5-3.5-1-2.5-3.5-2.625-5.094-1-5.125-2.593-1-4v-4l-.5-2-2.5-2.594-3.593 2-.594 4-1.594 4.094-3.594-.094-5.125-.5-4.593-2.094v-2.5H6423l-3.594 1.5-2.594 4-3.625-.594-3.5-2 .5-4.5.625-3 .5-3.625 2.094-2 2 2.625 2 2.5 4.188-1.5 3.593-6.5 3.125-6.5 1.094-4 1.094-2.5-1-3.625-4.094.5-3.094.5-4.125-1-2.093-3.094-4-1-6.188-2.093-2.5-1-2.094-2.5 1.094-2.5 2.594-1.5v-3l-.5-4.094-.5-3 2.094-2 1.5.5 2.093 3.094 1.5 2 .5 4 .407 4.5 1.5 2.093 2.593-2 2.125-2 2 .5 3.594 4 1.5 2.094 3.594.5 3.094-1.5 4.593 2.625 2.5 3.5 2.125 2.5 2.5 3.094.5 4.5 3 2 5.688.594 4.594-2h4.093l3.625 3.093 4.5 4.094 4.094 1.5 3.594 3 3.594 1.625 2.5-.5.094-3.5-6.094-9.625v-4.094l.594-5.5v-3.5l-4.594-1-3-.593v-3.5l2.594-2 .5-5-3-4.594h-4.094l-4.594 1.5-2.094-2.594-8.218-1-4.594-1.125-.5-3.5-2-4-3.594-.594-4.594 4-4.093.5h-3.125l-.5-3.593 4.718-2.407 7.188-4.5 3.094-7 .625-5.593-.5-5.5-.5-3.5-1.5-2.094-1-3 1.093-5L6444 2206l4.5 3 3.094 3.5 2.5 2.5.5 3.093-1 3.5-1.594 4 .5 4 2 7.094.406 4 1.5 3.5 3.094-1.375 5.188-.5 7.125 1.094 5.187-.5 1-3-3-6.094-1.5-5.5v-3.625l.594-2.5 3.594-1.375 3 2 2 7.094 2 5.5 2.625 1 5.093 2.094 2 4-4.718 7.5-.5 6.593-.094 5.5 4.093 5.094.407 9 5.093 4.625 2 3.5 4.125 1.594 3.594 1.5 3.094-1.5 3.094-2.5 4.593 1.094-1.093 3.5-.5 6 4.5 3.093 2.593 1 7.72-2.406 5.187-5 1.093-7.594-.5-7.5-3.5-5.593-4.593-2.5-2-2.094 1-6 1.593-3.5 2.125-2-1-3-5.125-2.094-6.187-1.5-6.5-10.219 2.094-8.5 4.093-6 3.625 1.5-1 4.5.375 10.094 3.625 2.125 3.5-.5 1.594-.5 3 3.5.5 4.094 5.688-3.5 3.593-.5 2 2.5-2.093 7.094-4.688 3.5 4 12.093 3.594 2 4.594.5 1.5 3.094-3.594 5 1 5.5-3.594 4-2.219 10.125-2.093 5 .5 4 6 10.094 5.093 4.594 3.625 4.593h4.094l9.281-7 5.125-1.5v2.594l-5.218 5.5-4.094 4.5-.594 4-.5 3.5 3 4 3.094 3.125 4.094-1.5 2.593 1 2 1.594 1 2.5 4.125 4 4.594-4 2.5 4.094 1 6 3.594-.907.5 5.5-1.594 4-6.719 3.5 1.5 4 5.125 2.094 5.188-8 1.594-7.594.094-4-.5-5-2-6.593-1.5-7.594 1.125-8.5 2.687-7.5 2.094-4-6.688-4.594-7.093-3.625-5.125-3.594-3.594-4-.5-3 3.094-.5 4.125 3 2.593.094 3 2.5 2.594-2 3.594-3 3.094 1.5 2.5 2.625 1.5 4.5 1 3.594 2.625 1 2.593-5 2.094-5.594-1-4.5-4.594-6.125-3.5-2-4.593-1-4.125-2.593-3.594-.5-3.094-2.594.594-3 5.594 1.094 3.625-.5 3.593-1.5 5.094 1.093 4.094 3.5 2.5 6.125 2.5 3.5 2.719-6 2.593-7.5.094-15.125-1.406-7.593-3.5-11.594-1.5-9.094-.406-6 1-6.5 3.219-4.5.5-7.594-3-9.125-2.5-7-1-3.093-4-1.5-.594 5.5 2.5 7.093.5 5.5-1.625 5.125-4.594-1.625-2.594 2h-2.593l-1.5-2.5 3.687-10.093-1.5-3.5L6600 2195l-3.093-2h-3l.406 7 2.5 5.594.5 5.5-1.625 4-6.094-1 .5-5.594-.406-4-3.594-3-8.187 1.406-5.72 3.5-2.093 5.5-2.594 3.5-3.093-2-.407-5.594 2.094-2.5-2.094-3-3.5-3.5-3.593-3.125-1-3 2.093-2 4.094 2 2.5 2.625 5.594 1 3.719-2.5 5.093 1.094 2.5 1h4.594l-2.5-5.5.594-1.5 3-1.5 3.625-1 1.094-3-.5-2.5-5.594-1.094h-4.125l-3.094-2-2-2.625-2-4.5-2.594-1.5-5.093 2.407-2.594 3-1.625 2h-4.594L6553 2174l-6.187 1.5-6.125-.094-9.688-3-2.093-2.094 2.593-3.5 5.094 1.594 5.719 1 5.594-.406 4.687-3.5-1.375-3.907zm403.968 0-.625 1.5 1.594 1h4.094l3.593.5 4 3.094 2.126.5 4.093 1.125 3.594-1.5 4.594.5 2.5 3.593 3.593.5 3.626 2.5 2.28 3 1.22 1.594 2.5 2.406 1.593 1.594.5-.5 1.594-1.5-.5-2-2.094-4-2.5-3.594-3-5.5-1-2-1.875-2.812zm303.313 0-1.844 5.312-.5 4.5 2 .5 3.594-2.5 3.094-.406 4.125-1 8.5-6.406zm42.25 0 .594.594.812-.594zm21.094 0v1.312l-5.594 2.407-11.406 2.5-5.094-.625-6.594-.5-4.094-.594-5.718.5-3.594 2.5 1.5 4 5.094 4.594 7.625 4.125 4.093 1 5.094 2.593v4.5l-3.094 3-6.093-2.093-4.125-3-3.094-1.125-4.094 3-5.687 1-3.5-5.094-6.125-3L6873 2184l-6.687 7.5-7.813 9.5-8.406 18.094-.094 11.594-.094 11 2 6.125h1.5l1.594-3.5-.5-4-.5-2.625 4.187-4.5 6.719-2.875 4.594-3 8.312-5 4.094-5.5 3.687-6 3.094-3 4.125-.5 1.5 4.593-2.625 5.5-5.187 4.5-4.094 3-.094 3.5h5.687l4.594 2.094.906 7-5.093 1.5-4.594-2-4.625-.594-6.188 1.5-2.093 4-1.5 4-4.22 2-2.5 2.5 1.5 3.5 7.126 4.094 6.094 4.594 6.093 4 2.094 1.594-2.594 2.5-4.093.906-5.094-3-3.625-3.594-3.594 1-1.594 3.5-9.687 1-2.125 2.5-5.094.406 1 3 1.5 6.594 1 3 7.594 4.594 4.625 2.094 1.5 4.5-6.219 2-4.594-3.094-4.093-.5-4.094 6-3.719 9.5-5.187 4-6.72 7.5-5.687 10.5-1.094 7.594-.593 7-1.125 5.5-2.094 7.625.5 4 3.594-1 3.125-5 3.593-6.5 4.688-6 5.219-7 2.687-10.125 1-5.5 1.594-1.5 3.094-.5 1 5.125 8.719 2.093.5 2.5-4.72 2-4.093 2.407.5 3.093 3.5 2h4.219l4 1.594 1.594 2-2.594 2h-2.625l-2.094 3 .5 3-2.5.5h-3.594l-1.093 2.5-1 2h-2.594l-3.125.906-1 4-1.594 2.594-4.594.406-2.093 1.5-3.094 3.5-.625 4.5 5.719 3.094 3 3 5.093-.406 3.594-1 3.094 1.5-1 3.594-5.688 2.406-5.687-.5-3.5-1.094-5.719 1.5-4.094 5-2.093 4.5 2 3.094-.5 1.5-4.22 5.5-1 3.5 3 2.5 3.126 3.594 3 6 2.5 8.625 2 1.5 4.594 1.593 3.093 2 3-1 .094-10-.906-5.593 3.625-4.5 2.594-2 1 1 .406 6.593.5 5 6.094 3.094 5.594 4.094-1 2.5-3.594 1.5-4.094 1.406v3.094l-2.625 3L6844 2444l-3.094.5-5.219 1.406-.5 3.094 3 5.5-.5 4.5-3.187 5v8.594l6 9.093 5.593 6.125 5.094 6.094 8.125 10.094 3.5 7.094 6.594 15.093 1.906 9.125.5 5.5.5 3.094-.125 10.5 2.5 9.094 3.5 2 4.719 1.094 6.594 1 4.687-4 5.219-8.5 4.594-3 5.187-7.5-3-5-4-11.594-1-8.094-.375-7 1.594-3 .5-6.094-.906-7.5 4.187-10.125 1.5-4.5-.375-5-1.5-6.093 1.594-5.5 2 .5 2.094 1 3.5 4.093 1.5 1 2.593-1 .094-3.5-2-5.5-2.093-4.593-3-5-1-4.094.593-5.5v-5.5l-3.5-6.594-2-2v-6.594l3.719-7.5 2.594-7.5 3.187-14.125-.375-5 2.094-5.593 1.5-3.5-2-2.5-3.094-.5-1.5-2 .594-4.594.5-4 1.094-2 3.094-6 3.718-9 3.094-6.594-2.5-6 .094-6.594 1-3.5 4.688-5 3.625-4.5 1.593-3.5-3.093-1.5-2.5-.5.5-4.625 2.593-4.5 1.594-7 4.094 1 1.5 3.625 2.594 1 3.625-6 4.687-4.5 5.188-5 2.5-3 .625-6.125-.407-5.5.5-4 2.594-3 4.094.5 3.594-1 2.125-3 1.5-2 2.093-4.5 5.188-8.5 6.812-7 7.188-1.375 4.594-.5v2.5l-.594 4-1.094 3-.5 3.094h3.094l4.094 1 6.125 3.094 3.093 2 4.094.094 4.094-1.5 3.594-3 2.625-3.5-1-4.594-4.125-2-6.094-2.094-3.5-5-4.094-3.593-8.187-2.125.094-8 2.093-4.5 2.594-5.5 1.5-3.5-.406-4.094-4.594-1.5-4.094 1-2.093-3.094 2.093-5.5 2.594-2.5 3.094-3.5 1.625-5.5 1.094-2.406 2.093-5.594 3.5.5 3.688-2 3.125-7 3.937-2.406zm127.093 0 .125 2.219 2.594 4.093 3.594-2.5 1.656-3.812zm34.407 0-.875.406v2.094l-.625 1 1.625.5h2l3.093.5 2.594 1 3.594-1.406 2-2 3.094-1 1 1.5.5 1.5 2.125 1.5 2-.5 1.093-2v-3.094zm35.625 0 .375 2.719 2 .094 2.625-1.5 1.343-1.313zm-51.907 3.906-1.593 2-1 2.5 1 1.5 2.5 3 2.5 2.594h2.593l.594-3V2172l-.5-2.5v-2l-.5-1.5-1.5-.5zm32.688 6.688-1.5.5-1.594 1-.5 1.5h-6.687l-4.125 1-3.094.906v5.094l2.5 2.5 2.094.5 4.125 1.124h5.093l2.594-1.5 1.094-3.5 3.094-3 .5-2-.5-2-2-1.5zm17.406 10.218-3.094 2.5-1.593 2.5-2.625 2.5-2.5 1.5-2.594.5H7112l-2.594 2 1 1.5 2 2 2.594 3-1.094 5.094-2.593 1-4.125.906-6.688-1-2.5 1.5-.594 1.5 1.594 1.5 3 1 4.094 2.594-1 3.5-2.094 3-1.094 3-1.593 5-.5 3-3.22 9.094v6.5l-3.593 4-2.187 7.594-.5 3.5-.5 2.5-1.625 2-2.094 3.5.5 4 4.094.124 3.625-2 2.593-3 3.688-8.624 2.594-6 2.625-5.5 2.593-6.5 3.188-9.594 4.219-7 2.593-4 2.594-3.5 1.5-1 1-1.5 1.594-1 1-1 1.094-1 1-1 .5-1.5 2.625-3.5-.407-6.5-2.093-3.094.593-3.5 2.594-6.5.094-5zm-51.594 28.282-2.5 1-1.093 1-1.5 3-.125 2 .5 3.124 3.125-.5 1.593-3.5zM6990 2239.812l-3.094 1-3.093 1.376-.5.5-3.72 6-2.093 3.124-2.594 4v4.5l1 1h3.594l4.094-.906 1.5 2 1.594 2.5 2 2 1.5.594 1.625-.5 1-1 .5-3.094 1.093-2.5 2 .094 3.094-.5 2.094-.5 3.094.5 2.5-1.5.125-1.5-.5-2.5-1.625-.5-4.594-1.593-1.5-.5-3.594 2-3.594-1.5.5-3.094.594-2.5-.5-3 1.594-3-2.094-1zm85 13.688-1.094 3v1l-1 3.5-.593 3.5 1 3.594.5 1 3.093 1.5 2.594-1 1.5-2-.5-4-1-4-1.5-4.094zm-62.094 5.594v1l-.094 3.5.5 1.5.5 2 1 2.594 2.594 2 2.5.5 3.094-3 2.094-2 4.093 1.625 5.125-.5 2.094-3v-2l-.5-1-2-1.625-2.594.5-3.625-.5-5.093-.594h-5.094l-3.094-1zm16.782 13.719-3.094.5-2.094 2.5-1 2-1.094 5-.593 6-1.5 5-.625 3.093 1 8.5.406 3-.5 5.094-.594 4.5-4.094 2.5-4.093 3-3.72 4.5.5 2 1.595 2.5 4.625 1.094 2.5 3v-1l-.5-1 .5-1.5.593-4 2.594-6.094 2.094-2.5 1-2.5 1.594-3 .5-3.5.625-3.5v-3.5l.094-7.594-.5-7 1.093-4.093 2.594-4.5 2.094-2.5v-4.5zm-61.688 9.593-.5.5-1 1.5-2.094 3-2.093 2.5-2 1.5-2.72 5-3.593 4.5-.594 6-1.5 5.594-1.718 10-2.094 8.5-3.594 6.094-3.594.906-1.093 4.594-.625 4-2.094 6-2.594 4-2.594 3.5 1.5 4.094 3.594 2 5.688-1.5 9.718-1.875 5.688 1.5 4.094 1.093 2-3.5 1.625-7.093 3.187-9 3.094-6 2.594-2v-1l-.5-1.5v-2l-.5-1.625.125-2-1.125-1.5-1.5-3.5-.375-5.094-1.5-2.5-3.125-.5-1-2-.5-3.094 2.125-1.406 3.593-.5h3.5l3.188-4v-7.5l-2.5-6.094-3-6.094-1.5-3.5zm111.313 7.407-1.625 1.5.5 4 2.5 4 1 6.093-4.094 2-4.094 1.907-5.687 5-5.22 6.5-2.093 5.093-1.094 5-.593 5.5-3.125 2.5-5.094 3-1.594 2.5-2.094 3.5-1.5 4-2.093 2-4.625 2-5.188 1.5-2 1.5.406 4.5 5.094 1 4.188-3 4.625-1.906 4.187-4.5 1-6.094 2.594-2 4.719-2.406 1.5-3 2.093-4.094 3.094-6.5 4.688-6 5.218-4.5 7.188-4.906 6.219-7 .593-8.094 3.594-1.5 3.094-3-1-1.5h-2.5l-5.688-1.093-2-.5-2.093-2zm-27.407 21.875-3.593 1-.5 2-.625 3.5 1.5 3 1 3.625 2.625.5 3.593-2v-3.5l-1-3.5-2-3.625zm-66.718 5-1.094.5-1.5 2-1.094 1-1 4-3.094 3-2.093 2.5 1 2.625 1 3 1.5 1.5 2.093-1 2.594-5 2.094-5.5 2.094-4.5v-3l-1.5-1.125zm50.218.406-2 2-2.093 2-3.125 3-1.094 1.5 1 2.5.5 1 4.219.094h2.5l1 1.5 3.093.5 1.094-3.5-.5-3v-5.5l-.5-2.094zM6927 2342.5l-1.094 1.5-.5 1.5-.5 3-.593 2-.5 2.5-1.126 3-.5 1.5-1 2.5-2.593 3.5 1 2.094 2.5 2.5 3.093-.5 2.126-3.5 1-2.5 2.093-6 .594-8.094.094-3-1.594-1.5zm38.688 26.406-3.094 3.5-1.594 2-4.094 1-4.093.5-4.626 1.407-3.593 3.5-3.094 3.5-2.094 2.5-1.593 4.593-1.626 5.5-1.093 4.5-11.407 22.094-4.187.906-2.5 1-2.094 4.5v2l1.5 3.594.5 2-.094 4-1 3 .5 2.594h2.5l4.094 1 3.594-1 2.594 3.094 1.406 5.5 3.594 7.625.5 3.5-3.688 10.093-.094 3-.5 4-.625 5-5.688 15.094 2 4 .907 5.094-.5 7.5.406 4.5 3.094-.906 1.093-4.094 1.094-5 1.594-12 .125-7.594v-5.5l1.094-1.5 2.5 1.5 2 6.094 1 3.5 2 4 2.5 5.594 2 5 .5 3-2.094 3.625.5 1.5h2.094l3.093-.5 4.594-.5 1-2.5.594-2.5-1-3-2-2.5-3.594-2.625.5-2 1.594-2.5v-5.5l-.5-3.094 3.719-8.5 4.687-5.5v-3l-1.5-2L6955 2473l-1-4 1.594-6 3.594-4.5 1.625-2.5.594-4.594-2.094-2.5-1.5-1-2 .5-1.625 2v3l-.594 2.5-.5 2.5-2.094 1.5-2 1-1.593-1.5-2-3.093-3-6 .593-4.5 1-2.125 1.5-2 2.688-9 1.125-6.5 1.094-7.594 1.593-4 3.594-2.5 6.594-1.406 7.219-1 4.187-2.5.5-2.5-.5-4.5-4.5-10.594-3.5-4.594.5-6 2.094-3v-4.5l-1.5-2.094zm62.124 2-2.124.5-.5 2-1.094 2-1 3.5-1.094 2.5-1.5 2h-3.594l-.094 2 1.094 2.5.406 4.094-2.125 7-3.093 3-.5 2.5 1.5 2 4.093 1.094 2.5 1v3l-.5 3-.593 4.094 1.5 2.5 3.593.5 2.625-1 2.688-9.5 1.5-5.5.094-5.594-2-8-2.5-4.594 2.593-8.5.625-5.594zm-47.218 1.688-3.094 1.906-.094 3.094.5 2 3.594 5.5-4.188 4 10.188 10.219 3.594-1.5 2.093-3v-5l-.5-4.125 2.125-2.5-2-2-5.125-2-3.593-2.094zm-51.407 4.094-2 1-3.093 1.5-1.094 1 1 2 .5 2v4l1.5 4.125 2.5 3.5 2.094-1.5v-1.5l-.5-2v-3.5l.094-5.625 1-2-.375-2.5zm89.22 59.125-3.594 1.375-.5 3.125v2l-.626 2-3.593 1-4.594-.125-4.594-1-1 .5-3.593 1-2-1.594-3.626-.5-3.593 1.5-1.594 1.5-.5 2.5-.594 3.5-1 3 .5 2 2.5 5.094 5.594.5 5.188-2.875 5.718-3.5h4.594l4.094.5 1.5-1.5 4.718-2.407 3.5 2 3.094-2 .094-6.5v-4.593l5.188-2.407-.5-1.5-1-1.093-1.094.5-2 .5-2.594-1-1-1zm-518.72 17.093-3.593 1-5.094 1.5-5.187-.094h-4.626l-1.593 1.5-1 2.5 2.5 3 3.093 2.094 4.626 1.5 5.093.594 4.094 2h2.594v-6l1.093-.5 2-2 .626-5-2-2.094zm502.5 15.907-7.687 2.5-3.094.5-5.093 1-.5 2-1.626 6-4.093 1-2.594-2.625-1.5-2-2-1-4.187 2-.5 1.5 1 2v5.5l-1.626 4-2.593 5.625-3.094 4.5 3-1h5.688l3.624 2.093 2 .5 2.094-9.593 3.094-3 2.594-.907 5.218-3.5 2.594-4 5.094-1 1.594-4.5 1.593-4zm9.813 3.093-2.594.5-1 1-2.093 3.5-1.626 4.594v2l1 2.5 2 1h2.126l.5-2.5 2.093-5v-5zm-14.094 17.594-2.5 2.406-.593 3.094-1 2.5-3.126 4-3.687 4-5.094 3 1 3-2.093 2-2.5-2.594-2.626-3v4l-.093 5.594-.5 5.5-2.188 8 1.094.5 2.5-.406 3.093-3 2.594-3.5 3.719-6.594 3.594-4 5.187-5.406 5.219-8.594 1.594-5.5-1.5-3.5zm-35.812 45-3.594 1.5-1.5 2.5-3.687 5-3.125 3-3.094 2.5-3.594 2.406-5.094-.5-5.593-.5-4.22 1.907-1 4.593-.593 3-1.594 6-2.5 2-5.218 3.5-2.094 4.5 2 1 2.094 1h2l4.218-1.406 7.688-1 7.719-4.906 4.593-4 4.688-5.5 2.594-6.094 3.718-5 3.594-3.5 5.188-5.5.5-4-1-2.5zm-92.688 48.094-4.718 5.5v3l.5 2 2 1 2.624 1.094 6.094 2.5 4.594-.375 5.688-.5v-3.5l-2-1.5-3.594-2.125-3.594-3v-2l-2.5-2.094z" style="fill:#9faec0" transform="translate(0 25)"/><path stroke="#9FAEC0" stroke-width="10" d="m744.5 2703.531.906.875 2.5 2.094 1.407 2.094-3.72 5.219-2.5 9 2.095 6.187-.782 7.313-1.906 3.875-2.594 3.5-2.593 3-2 3.718-2.125 2.282-1.094 2.5v3.5l1 3 1 1.625v3l-1.5 2.5-2.094 2.5-1.594 1.5-2.093 1.687-2.125 1.906-3.5 2.282-1.282.625-7.812 7.093-10.282 1.907h-.125l-2.093 1.875-1.782 1.5-2.906.906-2.5.594-3.593.812-4.72 1.094-7.187 1.594-16.906 5.125-9.5 4.593-7 1.282-4.094.5h-6l-4.218-.594-12.282 3-4.312 5.406-.5.188-.188.125L609.5 2820l-5.406-.594-6.5-2.718-3.782-1.688-1.312-2.812V2811l-1.406-.687-4.094-.813-5.094.094-5.312 1.094-3.907.625-3.28.375-7-.688-4.313-.593-2.5-.72-2.094 1.407-2.406 1.813-.5 3v2.5l-.5 2.5-1.594 2-2.094.28-2.593.313-3 .907-3.813 1.687-6 4.594-1.594 1.5-1.812 1.812-.188 3.313v4l.094 2.281.313 2.813-.5 3-.625 3-.5 1.187L525 2857l-1.906 1.407-1.594 2-2.687 3.187-1.907 3.313-2.093 2.5-1.813 2.906-3.906 4.281L501 2882l-7.312 2.094-.188.813.094 1.78 1.719 4v.313l-.125 7 .812 9.313.688 6.875-.188.906-1.812 4.906-2.5 3.5-2.688 3.688-1.812 1.906-3.594 1.719L481 2931l-4.093.313-8.22-.125-9.78-.5-10.72-.5-7.687 1-5.187.406L430 2933l-7.906 1.907-18.406 5.187-.781.313-14.407 4.28-16.187 4.313-5.906 1.5-20.813 5.188-20.5 4.906-.781.219-15.406 3.781-13.907 5-12 4.406-6.187 1-7 2.407-5.125 1.78-4.375 3.72-4.406 3.406-3.313 3.594-6 3.406-4.187 2-6.094 1.875-6.625 1.406h-2.594l-3.094.5-3.593-.094-.907-.094-5.593-.594-7.72.375-6.28 1-4.594.813-4.125-.188-4.594-.906-6.687-1.312-.907-.188-4.687-1.312-4.625-1.094-4.094-1-3.594-.5h-1.312l-27.281 5.5-7.22 6.5-14.687 6.093-11.593 4-12.594 6-11-1.406-6.406 3.125-1.813-.125-5.187 1.625-3.22 1.375-3.28 3.219-3.407 2.781-3.687 1.719-4.719 1.688-2.406.406-5.875 1-5.219.687-5.906 2.313-3.281 3.593L17.5 3048l-6.406 3.906-5.5 5.188L0 3063.312 24.313 3065l20.5 3.5 28.594 2 91.687 4.906 16 1.406 176.813 5.875 18 7.5L584 3100.093l32.094 1.407 138.594 6.093 62.906 2.813 134 5.281 101.313 3.813 182 5.906 49.78 1 6.626 1.094 76.375 3.312 97.406 3.281 4.094.22 20 1 9.812.374 55.907 2.219 11.406-23.5 54.375 3.188 27.125 1.5 5.187.218 84 4.281 70.313 3.094 5.5.313-26.125 25.312 78.625 3.5 88.594 10.781 106 11.094 18 1.219 24.093 1.5 40.313 2.5L2328.407 3194l140.5 8.093 4.593.095 7.188.406 32.219 1.906 22.593.688 166.094 5 36.219 2.406 153.5 10.5 1 .094 144.5 10 37.375.812 163.125 3 21.5.188 7.187.125 185.094 3.093 89.313 2.282 98.906 2.312 21.812.438h140.344l21.938-.344 15.78.344h167.032l10.594-.125 35.375-.407 149.812-1.593 44.094.28 114.313.72 29.28.28 32.813.313 58.532.532h251.187l23.094-.938 10.281-.5 5.719-.312 14.781-.375 17.5-.407 71.313-1 89.28-1.406 68.126-.187 124.094-.625h7.78l121-1.094 58.5-.688 193.313-2.593 161.594-1.72 27.719-.28 103.781-1 88.5-1 126.906-1.5.907-8 65.187-.907L6305.5 3218l46.407-1 20-.406 5.906-.094 3.594.094.78-.094 44.813-1.312 13.188-.188 51.5-1.312 36.406-1 58.813-1.376 18.687-.624L6651 3209.5l23.813-.687 82.594-2.5 77.5-2.407v-7.5l.094-5.093-1-3-4.094-1-2-1.626-1.5-2.5v-8l-.5-1.593-1-2-3-1-3.594-2.594-.5-3v-1.5l.5-1.5-3-2.5-3.125-2.094-2-1-1.5-.5-3.094-2-1.5-2.593.5-2.5.5-1 .594-1 2-.5 2.125-.5 4 3.593 1.594 2 2 1.5 4.594.594 2 2.5v4l3.593 3.094 2 2 .5 2 2 3.094h6.22l2.5 3.624 2 2.5 4.093 2 2 1.594 4.594 4.5-.5 5.594-1.094 3.5.5 2 2.5 8.094 15.906-.5 10-.281-2.812-6.126-1.5-6.593-.907-4-.5-4.5-1-2.5-.5-5.094 2.094-4.5 3.625-3 3.188-4.5-1-10.094-2-6.5-.407-6.093-1.5-6.5 3.094-3 1.125-3-2.125-2.126-3.594-.5.094-4.5 2.625-6.593-4.125-3-1-2.5.125-2 3.594-1.5 3.094-3 3.094-5.5 1.593-8.594v-4.5l1.625-5.5 1.594-2 .5-1.5v-1l-1-3.094-1.5-1.5-.5-3.5 1.594-4.5 1.094-7.093 1.093-6.5.625-7.126-.5-5.5.594-4.5v-3l.5-3.093.594-3.5 3 2.094 3.594-.5 3.718-4.5 1-3.5 3.094-1 2 5.5 1 1.624h2.594l2-1 2.594 5 2 6.094 4 11.094 3 6.594 1 1.5 3 6.594 2.5 5 4.5 9.624 1.5 4.5 1.5 8.094 1 7.594 1.906 11.094 1.5 7.5.406 4 1.5 7.094 2 7.624 3 6 6.594 5.094 5.094 4.094 4.593 5.594 1.5 6-4.687 1-2 .5.406 5.5 2.094 4.094 2 5.5 1 2.5-2.094 1.5-2.594-1-2.5-3-2-2.094-.125 4.094v4l-.5 4 .407 5 .5 3.124 1.5 2.5 3.093-1.5 4.625-.5.5 2.594v3l-5.218 5.5 21.593-.906-2.5-15.594-2.875-15.593-2.906-16.126-2.5-11.593-4.5-10.094-4-7.094-3.5-11.593-1.5-5.126-5-11.093-4-13.094-4-9.594-3-9.093-3-5-5.094-10.626-7-15.187-4-13.094-11-25.812-4.5-15.094-5-10.094-1-2.5-3-11.593-3.5-12.126-4.406-16.687-3-11.094-1.5-9.093-1.406-7-3.5-16.72-3.906-15.093-5-16.094-2.907-16.218-2.5-12.594-4.5-15.594-1-3-1.375-7.594-3.125-5-12.687-8.218-10.313-3.094-7.093.5-9.782 1.406-6.218 5-.5.5-4.188 4.5-6.719 4-4.593 2.406-5.094 1.5-5.688.5-4.125.907-6.187 3-1 4 2.5 4.593 3 3.5 7.187-.406 5.625.5 3.594.594 2.094 2 .406 5-.5 4 .5 2.594 2.5 3.5 3 2.5 2.594 2.624 1.5 2-1.594 3-1.5 3-3.094 1-2.625 1.5.5 2.5 2.5 5.094 2.625 3.5 3 2 3.594 2.094 1 5-3.094 2-3.125-.5-4.093-2.594-2.5-2.5-2-3-2.094-.094-5.094 2-3.094-.5-1-4 3.094-7.125-.5-2.5-2.5-4-1-3.094 3.094-1.906 2.594-.5 2.093-2.5-1-2.594-5.187-1-3-2.5-4.094-5.093-3.5-3.594-3.594.5-3.625 1.5-2.093 5 .406 4.594 1.594 3 2.5 1.5v2l-2.094 1-1 3.5-.594 6.593-.594 4-2 3.5-3.125 1.5-5.687 2.5-5.094.907-3.594.5-.5-1.5 1-3 3.094-3.5 3.688-6 4.093-6.5.625-4.094-1.5-2-3.125-.5h-3.593l-3.094-.594-.406-3 1.5-2.5 3.093-3.5 1.125-4 .5-2.5 2.594-1.5 2 3 2.094-4 2.594-3.5 3.593-4 1.125-5-2-3.125-4.625-.5-5.687-1-7.094-3.094-8.719-3.093-6.093-2.594-1-.5-4.094-2.5-3.094-1.094h-6.219l-3.5-1-3.593-1.125h-8.688l-1.094 3-.5 3.5 2.5 1.5 2.594 1 3 1.625 1.594 1 1 2-2.094 1.5-3.594-1.5-3-1.625h-4.125l-2.093-.5-2.594 3v4l4.594 2.625 7.218 1 2.5.5 5.094 2.094 1.5 3 1.5 4.594 2 5 1.5 2.593 2.094 2.5 2.5 2.5 3.094 1.594 2 3.5-4.594 3-5.688-.594-4.625-1-1.5-6.093-2-4.5-3-2-4.093-2.594-2.5-4-2.094-3.594-1-1.5-.5-1-3.594-1-2.5-.625-6.219 2-9.78 3.406-4.095 1-2-1.5-3.125-3.093h-2.5l-2.093-1.5 1.593-2 5.125-1.5 3.094-2.5 3.594-.907h3.094l2.593 1.5 3 .5 2.125-.5 1.594-4v-4l1.594-3.5 2.094-4v-1.5l-1-5.093-3.094-.5-4.594-.5-16.406-4.188-21.406-7.219-16.282-12.687-11.812-9.094-6.594-3.625-7.094-2.594h-3.125l-4.593-.094-7.188-.5-6.219-.094V2750l3 2 7.22 1.594 6.187-.5 6.093-.406 3.125.5 1 .5 2.094 1-2.719 5.5v3.625l-3.093 2.5-5.594-.125-5.188 2-5.625-.094-1.5-3.5-1-3.5-6.187-.594-1-3h-4.594l-3.094 3-6.625-4.094-2.5-8.094-4.093-1.5-2.094 1.5-1.688 18.094-.625 9v2l.407 9.594v6.5l.906 7.594 1 3.5 1 2.593 1.594 1 2 2 3.593 1.5 6.125-1.375 2.594-3 2.094-.5 3 2 3.094 1.094 2.093-4.594 2.625 1.594 2.5 4.5 1.5 3.094 2.5 1 3.688-1 4.594-1.5 2 1.594-2.094 3.5-2 2.5-.094 3 1 2 4.187-1 3-1.5 2.594-1.407h4.625l-.5 5.5-1.125 6.625-2.093 5.5-3.594.375-2.5-3.5-4.594-2.5-5.719-2.593-2-3 .125-5.094-2.125-1.5-5.093.5-4.594-1.094-5.594-2.5 1.406 9-.5 4.594-3.718 8-4.594 2.5-3.594 2.406 2.5 6.594 7.094 3.094 3.094 3 6.093 3.593 1 2.5-1.593 8.125 3 1 4.218-1.5 5.094 3.594 3.5 3.5L6602 2880l3.5 2h5.187l4.125.594 8.188.5 11.187 1.593 3.125 1.125 5.688-1.5.5 1.5-.594 3-3.594 1.5-6.625-1.5-5.187-.125-4.594 1-5.719 2-3.5-1.093-3.093-1h-4.094l-4.594.406-1.594 1-5.125-2-2.5-3.5-4.593-5.094-5.094.406-1.094.5-2.5 1.5-5.219.5-.5-2.625.125-4.5v-3l-5.625-3.093-2.093.5-6.594 1-3.688 3-4.125 2.5-5.093.906-5.188 2.5-4.094 4-.625 7.5-2.594 3-10.28 2-6.126-.594-5.094.5-4.187 4-2.094 6-.5 5-2.719 4.5-2.5.5-2-3.5 2.094-4.5.5-3.594v-3.5l-1-1.5.625-3.5 2.5-1 3.094.5 3.094-2.5 1.593-4 .5-4.5-1-2.5.594-.5 1-1 3.625 1.5 2.5 3 3.594 2.594 4.094-.5 3.593-1.5 3.094-3 1.125-4v-4.5l.5-4 2.094-2 4.094.5 2.593 2.594 3 .5 4.72-1.5 1.5-3.5 1.093-4-1-4.594-3-3-2.094-3.5-3-3.594-1.5-3 .5-4 2.094-1.5 1-.5 2.594-1.5 1.093-4 .5-1.5-1.5-3.125-.5-1-1.5-4.5-1-7.093-.406-8-.5-5.594-1-5-2-1-4.094-.594h-7.187l-9.219-1.094-1.5 1-1.094 1-2.687 19.094-3.219 7.5-3.094 2-4.093 2-5.594-1.094-7.719-.5-7.187-3.625-6.594-1.593-6.219-2-4.094-.594-4.593-.5-6.594 1.906-4.219 3.5-1.594 6.594-1 4-.094 3.5-.5 3-2.593 1.5-8.219-.594-4.594 1.5-3.094 2.5-3.593 1h-1.594l-3-1.594-3.125 2.5-1.094 4.094v4l-1.094 7-2.593.5-4.594-1.5-1-1.594-2.625-1-2 1.5.5 4 .406 3.594-1 4-3.594 1.5-4.687.906-1.5 1.5.5 2 3.5 3.594.594 1-1.594 3-3.125 2.5-7.281 7-5.594 1.5-4.125 1.406-5.188.5-5.593 2-1.094 3.5v4l1 2 1 1.5.5 1.594.5 1.5-.5 2-2.125 4.5-.594 1-2 2.5-.594 1.5-1 2v4.5l.407 3.594.5 3-.5 3-4.094 1.5-2.625-2.594-.5-4 .625-6 1.094-3 2.093-4 1-4.094-.406-4.5-1.5-4-2.094-3.125-.406-4 2.094-8v-4.093l4.719-2.407H6368l3.594-3 3.094-3.5 2.125-4.5 5.594-1 .593-4.5 1.094-7.5 3.094-5.5 3.719-3.5 2.593-4 3-2 3.094-.5 1.594-2.5-1.5-4.093 1-3.5 4.219-2.907 7.187-.5 6.094-2.5 4.719-2.875 1.093-7.625-.5-7 .594-5.593-.5-5.5-1.5-2.5-4.594-.594-4.093 4-3.719 5-3.594 4-5.094 1.5-3.593-1-2.094-1.094v-1l-.406-1.5 4.093-3.5 3.594-5 5.219-2 1-5-1.5-4.5-.406-6.594-2.5-3 1-3.5-5.594-1.625-2.625-2.5-.375-2.5 1.5-2.5 3.594-.5 3.093 1.5 3.594-.5 2.5 1.125 2 4.5 1 4.594 1.5 2.5 2.094 2.5 2.5-.5 2.625-3-1-4.5-2-5-1.5-3.094-.406-5.5-1-5.125-3.594-4.5-6.625-2.093L6397 2751l-8.687-3.594-4.625-4 .5-3-.5-2.594-5.094-2.5-6.094-4.625-7.093-4.093-2.5-4.5-2.094-3.594-3-3.5-2.625-1.5-4.594-1.094-4.594.5-7.187 3.906-7.719 4-9.781-.125h-4.625l-7.188 3-9.312 1.907.125-5.5 4.594-4 3.187-5 6.094 2.5 5.125.094 3.594-.5h3.593l5.688-3.375 1.531-6.282zm5704.125 0 .062.062 2.5 2.094 3.125 2.5 2 4v4.125l-2.625 4 .906 4.5 4.094 6.094 2.5 3.5 5.125 9.094 4.5 5.593 4.094 4 5.094 2.094 5.187-1.5 1-4 2.625-4.5 4.188-5.5 3.593-5.5 6.219-7 4.188-5.5 1.5-1 5.687-4.5 11.906-3.875 8.719-4 5.688-1.406 2-3 .187-.375zm125.844 0-2.657 2.563-2.124 4 1 2.5 10.812-2.906 4.344-6.157zm323.031 328.282-1 2v2.5l.406 2-.5 1.5-.5 2v2.5l-1.093 3 2 1.593 2.093.5 1.5-1 2.094-2.5v-2l.594-2 3.093-1h2.5l2.626-.5h2l1.593-2.5-1.5-2-1.5-1-2.593-.5-1 .5-3.126-2.093-2-1zm20.313 19.687-.5 4.094v3.5l-1.626 2-2.093 2-1 2.5 1 6 1.406 6.094 1 3v2.5l-2 .5-2.094-1-1-2.5-1-3.094-1-2.5-2 .5-.593 3 .5 4.594 1 3 1.5 2.5 1.5 4.125 1 2 1 4.5.5.5 1 2 2 1.093 4.093 2 3.594 1.5 1.594-2.5-.5-3.5-2.594-2.5-2-2-.5-2.593 2.594-2 3.093-.407 2.626-1 2.5-1 .093-3.5-1.5-4.093-1.5-6.5-.5-4.125-1-3.5-1.5-3-1.5-4.594-1.5-2.5-1.5-3zM6906 3057l-2.094 4-1.5 1-1.593.5-3.626 1-1 2.5 1 4 1.5.5 2 .5 2.126-1 1-2-1-2 2.093-4zm-3.094 108.188-3.093 2-3.626 3-2 1-4.187.906h-3.5l-2.094 4 1.5 5.594 2 2.5-1.593 3 1 2.5 2.593 1.125 4.094 2 1.5-3 1.094-4.5 1-2.5 1.593-2 1.126-3.625 1.5-3 .593-1.5 2.5-1.5 1.594-1.5-.5-3.5zm32.282 7.812-1.094 2-1 2.5-1.594 4.5-1.594 2.5-4.093 1-6.126 1-6.187-1.094-3.594.5-2 2-2.593 3-2.126 3.5-2.093 1-1.5 2.5-.594 1.5 1.313 3 25.187-.906 11.5-.406-2.094-4.5-.906-5 3.094-6 1.093-2.5 2.626-9.094-2-1z" style="fill:#9faec0"/></svg>