<svg xmlns="http://www.w3.org/2000/svg" width="5919.875" height="3855.594"><path stroke="#9FAEC0" stroke-width="10" d="m5689.688 0-95.782 3.406-199.687 7.5L5348 12.594l-300.5 11.312-67.187 2.188L4869.906 29l-36.093.594-205.313 4.5-95.781 2.219-68.313 1.593-63.187 1.594-32.594.5-120.406 2.688h-8.594l-334.719 3.625L3775 47.688l-15.594.5-31.594.5h-32.093l-94.906.906-84.313.906-627.187-2.687-104.907-.407h-10.5l-75.781-.906-243.312-3.094-53.688-.312-149.625-1.281-18-.125-16.094-.594-70.687-1.406-55.219-2.875-32.094-1.72-5.5-.593-91.781-2.594-460.5-14L1501.5 23l2.906 4.688 1.5 5.125v3.093l2.906 2.594 5.5 4.688 1 1.5.5 3.125.5 1h1.5l1 1.093v1l-1.093 11.282h-2.5l-2.094 1-3.5 2.625-2 1.5-1.5-1-8.5-3.72-17-10.405-2.5-3.094-.406-2.094v-2.094l.5-2 2.5-2.593 2.594-2.5 1-.5 3-1 2.5-1.625.5-2.5.093-3.094-1.5-.5-.5-.5-1.593 2-1 2-3.5 2.094-1.5 1-2.594 2.5-2 1.125-1.5 1-3 4.593-.594 1-.5 4.594-1 2.094-3.125 3.594-2.5 1.5-1 1-2.593 4.625-2 1-1.5.5-1 1-1.5 4.687-1.594 2.5.5 1.594.5 2-.5 1.594-1.5 1.5-.594 1.5.5 2.625 3.5 2.593 5 4.188 6.5 3.094 3.5 1.625h3.5l4-1 3-2 2.094-2.625 3-1.5 1-2.094-.5-1 1.594-.5 2.5-1 6.5 4.219 5.406 5.687 2 3.094 1 3.594.906 5.625-1.594 11.28-3.5 2.595-4.625 2-4.5 1.5-2.5 1.5-6.593 7.718-2 2.594-3.094 1.5-4.5-.594h-2.5l-1 1 .5 2.094 2.406 5.688 3.5 3.625 4.5 4.093 15.906 14.594 5.5 6.688 2 1.5 2 1.625 3.5 1.593 5.5 4.594 4.5 2.094 3 3.594 2.375 4.218 1 3.094 1.907 10.313.906 10.28-.5 7.095-.094 4.218-.594 8.688v4.594l-.625 7.218v8.188l.5 2.094.906 1.5 2 .125 3.594-1.625 2-1-.5-1-1.5-1.594-1-1 .5-3.094-.375-2-1-2.594-.5-2.593 1-1.5 3-1 2 .5 1 1.593 1 1.5 2 .5 2.094-1.5h4l2.5-.5.5-.5 4 5.188 2.906 5.719 1.5 3.593 3 1 1 1.594 1 1 2-.5.5.5 1 2.594 1.5.5 2-1 2.5 1.094 1.5 2-1 2.625-1.125 2.093.5 2.5v1.594l-2 4.094-4.594 7.594-2.094 5.718-2.5 4.094v2l-1.093 2.094-.5.5-2 1-1 2.594-3.594 9.218L1552.5 318v2.594l1.5 1 1 1 1-.5 2-.5.5.594h1l1 3.125v2l1.5 1.593.5 3.594.406 2 2 2.094 1.5 2.094.5 2h2L1573.5 332l5.125-10.187v-1l1.594-2.625 16.687-20.375 3.594-3.125v-2.594l.5-3 1.5-1.594 2.5-.5 2.625-3.5 1-2.094v-2l-.5-2.093 1.094-.5 2 1.593.406.5 1.594-2.093 2-1.5.5 1 .5 1.593h2.5l2-1.5 1-2.093.094-2 .5-1.625h1l1-.5.5.5.5 3.625 1 .593 1-.5 1-1.593.5-1.5-.5-1v-1.125l2-.5 1 .5 1 1.625h3l2-.5 2 2.093 2.5.5 4 1.594 2.594-1 1.5.5 2.5 1.094 3.906 5.094 3 2.625 2.5 3.093 2.5 1.094h1.5l4 2.594 1 4.094 1 2 4 1.125 1.5-.5 2 1 1.5.094 1 .5 2.5 2.093-.5 1 .5 1.5h1.5l1.5-.5 1-1v3.094l1 2.594.5 2.5-.594 1.625-2.5-1.125h-1l-.5 2.125 1 1.5.5 1.094-2.5 1h-1.5l-1 2 1.406 1.593v1l.5.5-2 2h-1.5l-1 1.094-1.5 3-1.625 4.594-.5 4.125-1.5 1.094-4.093.406h-1.5l-2 2.094v1.5l-.5 2.093v1l-2.094 1.5.5 2.594 2 4.094 1.5 3.625v2.594l-.094 1.5 3 7.78 1.5 4.126 1.5 2 2.5.094-1-1.594.5-1-1-1-1.5-3.125v-2.594l1-1h3.594l2.406 3.594 1 3.625 1.5 7.188.406 5.687.5 4.125-.625 4.594-1.5 3.594-1.5 2-2.5-.5-1 1.5.406 2.593v1h-2.5l-1.5-2.593-1-2-2.5-1.594h-2.5l-.5 3.094 2.5 4.593 1.5 2.594 1 1.5 1.407 2.625 2 1.594 2 .5h2.093l1 1.094 1 1 .407 2.593 1.5 3.594 2.5 3.125 6.5 6.188 4.906 7.187 5.5 5.219 2 1.5 3.5 2.094 1.5 1.593 1.5 1.5 2.5 1.094 2.5 1.5.5 3.125v2.094l2 1 1.5 1 .5.594.5 2 1 2.593 2.5.5v1.594l.906 2.5 1 2.125 1.5 1.5 2 .594.5 1.5V479l-1 1.593h-1l-.5 1-1.625 4.094-1.5 4.125-.594 2.5v2.594l-1 2.594-3.5 2-2 .5-1.593 1.5-.5 2.093 1 1h1l-1.5 1.594-5.094 2-.406-1.094-1.094.594-.5 1-1 2.5-2 2.125-2 .5-2.594.5-1.5 2-1 1 1 1.594 4 1 1.5 1.094.5 1-1 1-4-1-2.5-1.594-2.5-2.094v1.594l-2.5.5-3.125-1.594-2.5-1.5-2.5-.625-.375-2v-1.594l-1-1.5-.5-4.093v-1.094l-5-3.094-.5-3.625-1-.5L1655 498.5l-2.5-1.5h-3.5l-3.5-1.094-.5-1.5-2-1.594-2-.5-2.5-.625-1.5-5.094-1-2.593-1.5-.5h-1l.5 1-1.5 2.593-1 1h-1l-.5 1.5 1 1.594 1.406 3.125v1l-1.5.5.5 3.594 1 .5 2-.5.5-1-.5-2.094 2-.5h2.094l.5 1.094.406 2 5.094-.406 1.5.5 2.5 2.593 7 5.72 3.5 1.5 5 1.593 6 .594 1 .5 1.5 3.593 2 3.094.906 4.125-1 4.594 1 2.594-.094 4.593 1 3.094 2.5 2.625 1.5 1.5 1.5 1.594.5-.5.5.5v5.594l2 2.593.907 2.594-.5 4.125 1.5 1.5 2.5.094 2.5 1v1l-2 .5-3 .5-3.094 4.594-.5 2.094 1 2.5 1 2.594L1683 586l2.906 9.813 2 6.187.406 2.5 2 1.594 3 2.094 1.5 2.5v1.125l-1 1.5-.5 1 .5 1 .5 2.093-2 2-1.093 1.594v1.875h4017.406l-6.5-164.562-.125-2.5-2.375-88.407-.407-14.906-4.812-175.687-.094-5.907-2.844-106.718L5689.687 0zm-4352.47 249.5-1.093 2 1.5 1.094 5 4.094 6 2.125 4 .094 3.594-1 1.5-2.094v-1l-.5-1.5-2-.125-2 .5-3 .5-3-1-3 .5-2.5-2.094-3.5-1.094zm45.5 22.5-2.593 1h-2.5l-2 1-3.5 2.5-.625 2.094 1 .5 1.625-1 1-.5 1.5 2 1.5.594 1-1.094-.5-2 2.5-1 1.5 1 2 1.594 3-.5 3.5.5 4.5 2.125 2.094-.5h3l2 1.093 1-1-1.5-1.093-1.5-1h-3l-2 1-.5-2.625-2.5-1.094-3-1-4.5-1.594-1.5-1zm-10.218 10.188v2.5l2 2.125 1.5 3.093 1.5.5 2 .594h1l1 1-2.094 1-3.5-.5v1.5l2.5.5 3.5 1.094 3 2.594 4 1.625v-2.125l-1.906-1.5-3-1.594-1.5-1.594 1-1 3-.5h.5l1 3.094 3.5 2.594 1 2.125 3-.5 2-2-1-3.125-3-2.094L1390 288l-1.5-.094.5 2.094-1.5-.5-2-2.594-4.5-3.094-.5-.5-1-.125-.5 1.125-2 1-1.5-.5-1-1.625zm58.219 14.312-1.594.5v1l-2 1-1-.5-1.5 1v1.094l1.5 1h2l2.5 1.094 2.5 3.125 2 .5 2-1 .5-1.5h1l1-.5v-1.125l.594-1-1.5-1h-1l-2.594-1.094-1.406-1zm90.781 5.313-.5 2.093-.5 2-1.594 6.188-3.094 7.719v3.093l2 2.5-3.093 4.594 3 3.188v3.5l1 2.625 5.5-.407h4.5l2.5 1 .5 2.094 4.5 2.594 2.5 1.594 2.5 7.718 2.406 8.188 4 4.719-.5 2 .375 4.093 2.5 7.188 3.5.094.5 1 16.406 21.718 3 2.594 1.5 3.594 3.406 3.594 5.594.625 4 .5 2.5 4.093 4.906 6.782 1.594-1.594v-3l-1.5-1.594 1-2.593-.5-4.094-2.406-4.125L1592 400l-1.375-5.187.5-3-1-2.125-1-.5-1.5 1.5-2-.5 2-3.094-3-6.187-.406-.5-.594 2.093-.5-.593-2-.5-1.5-2.094-1.906-4.125-2.5-4.594-3.5-3.594-5.5-2.093-4-1.594-1-3.125-1.5-.5-1 1-2-3.594-2.907-6.187-2.5-5.72-3.5-2.593-2.5-2.094 1.594-5.593-4.5-6.22-3-5.687.094-6.093-5.5-3.72-2-1.5-.5-3.593-6.5-4.187-.5-1.5-2-.594zm-216.688 20.375-4 .5-4.5.5-1.593 2-2.5 2-5 1-2.5-1-1-.5-3.594 1.5-2 4.625-.625 3.593-2.5 3.5-4.5 1-6.094 2.594-5.5 1.5.5 1 2.5 1 5.5.594 8.5 2.094 2.5 3.125 4.5 3.687.406 4.594-2 4.094-3.593 5.625.5 1.5 6.5-1.407 18.687-10.718 1.594-3.594.5-4.594-.375-4.594-2.5-2.593.5-1.5 2-.5 2 .5.5-.5 1.094-1.5-1-1.625h-2.5l-.5-2.594V334.5l.094-6.094 1-3.593v-1.625zm83.313 11.5-6.5 1.5-6.125-.094-3.5.5-4.5 1.5h-4l-4.594 1.5-6-1.594h-3l.5 1.5 3.5 2.094-.594 4.593-2.5 6.72-2.593 4.093-4 1.5-4.094 1.5 1.5 2.594.5.5v2.593l-4.625 3.5-4 2-7.094 4.625-4 2 .5 1.594-3.594 3 .5 2.594-3 2-4.593 3.094-2.5 3-6.594 4.093-4.125 5.625.5 5.094-7.688 11.281-4 3.5-1 1.125-2.093 2.5 1 8.188.406 2.594.5 5.718.5 1.5 2 2.094 2 1 1.5.5 4-2.5 2-2.5 2.594-.5.5-1.594v-5.625h2.5l1.093-1-1-8.187 1 .5 2 .5v1.5l-.5 2.094.5 3.093 1.907 5.625.5 4.188 2 4.594 1.406 1-.5 1.093.5 3.125 2 3-1 1.594-.5.5-3.125 1-3.5 1.5h-3.5l-1 2 1.5 2.594.406 1.5 3.094.094 3 1 4.5-1v-2.5l-2-2.094 2.625-4.094 2.5.5 4 1.594 1.5-.5 1-3.594-.906-4.093-2-1v-2.125l1.5-2.5.593-2.094-.5-1h-.5l1-3.094-1.5-1-2.5-.594-.5-2.5-2 .5-.5-3.093.5-2.125.594-1.5h1l.5-1-1-2.594-2.5-.5-2-1.594-.5-1.5.5-1.594 2-1 .594-1.5.5-2.093 1.5-3.125 3.5.625 1.5 2.593v1.5l1.5 1 .5.594 1 2.5 2.5 2.594.406 2.094 2 1.625 4.594-1.625 1.5-.5 2-1 1 3.125 1 1.593.5 2.5 3 .094 1.5 2.5-2-1-1.594 3.094 1.5 3.094-3-.094-1.5 1.594 2.906 3.625 1.5 3.093-1 3.594 1 3.094-2-.094-1.093 2.094 2.5 2.093 1 3.625 2.5 2 3-.406 3-.5h2l.5 1.5-.5 2.094.5 1.5 1.5 1.094h1.5l.5 2 2.5-1-.5-2 3.5 1.5 2.5 1.593 2.5 1v-1.5l6.593-1.5-.5-2 1-2.093 3.594-.5-.094 1.093-2 .407-.5 1.593 2 .5 1.5 2.125.5 2 4.5-1.5 1 3.094 4-1v-1.5l-.906-2.094 1-1.5 1.5 2.594 1.5 1 2.5-1.5 2.5-.5 2-2.594 1.094-1.5-.5-2.625 3-.375 2-.5-.5-1.625.625-2 1-2.093.5-2-1.5-1.094-.5-1 1-2.094 1-.5-3-2-2.407-3.094-1-3.125-2.5-1.093-1.5-2.594.5-1.5-1-4.594h-1l-1-1.094 1.094-1.5-.5-3.125-1-1-.5-2.593-.5-3.094-4.406-4.094-2.5-3.094-3.5-3.125-2.5-.593-3-1-2-3.594-2.406-12.406V388l.5-1 1.625-1.5v-2.594l-1.5-3.094-2.5-2.625-1-3.593.094-2.5V370l-3.5-2.594v-2l2-.5 1-.5-.907-2.094 2.5-.5 2-1 2-1.5 1.5-1h.5l2.5 3.094h1.5l1 1h1l-.5-3.094.594-3.625 3.5 1.625 5.5 3.688 2.906 5.594 1 3.093-1 2.125 1 1.5v2.094l-.5 1-.094 1-1 3.594-.5 1 1 1.594v3.093l-1.093 4.125.375 10.188 4.406 10.312.5 3.094 2 .594 1.594-2.594v-1h1.5l1.5 1.5 1.906 5.688 2.5 3.093 1.5 2.125 3.406 8.188 1.5 1.594.5 1-1 1 1 2.093 1.5 2.125h2l1.5 2 1.5.594h1l.5 2 3-1 2-2.5 1.094-1 .406 2-.5 2.594 1 2 1 2.594-2.094 9.218-1.093 3.594 1 2.094 2-.5 1.593-1h.5v2h.5l1-.5.5-2 2-.5.5-1-.5-2.094 2.094-1.5h1.5l1.5 1.5 2.5.094 1.5 1.5-.094 2.094h4.094l.5 1 .5.594 1-1.094-.5-2-1.5-4.688-2.407-7.218-2.5-3.094v-2l7.094-7.688.5-2.5 1.625-1.593-1-3.125 3.5-1.5 3 1.125 1-1.625-.5-1 3.594-1h1l-1.5-3.094 5-2v1.594l1.5.5 2.094-2.094 2.5.594 2.5-1 3-4.594 6.093-4.594 1.094-4.094.5-2.093 3.5-2 4-1.5 1.625-1-1.5-1.625-6.5-4.594-14.125-4.781-7.375-4.625-4.125-1.594-3-2.094-.875-1-1-1.594-4-1.593-3-3.625-4-4.094-4-1.594-2-3.094-2.5-1-14.5-10.906-6.5-2.687-5-3.125-4 .5-3.5-.5-4-5.188-2.5-2.094-4-.5-5-1.093-2-2.125zm199.5 1-1.625 1.5h2l2 4.218 4 2.594-1 2-.5 2.094.406 5.094h-1.5l-4-2.094-6.5-4.094-4 2-3-.594-2.5-3.593-3 .5 1 1.593 4.906 8.188 6 8.312h2.5l3 3.094 7 .594 4.594-3.594 3-4.094-.406-4.593-3.5-11.813-3.375-3.687-1-1-2.5-2.625zm-107.719 11.5-.5 1 .5 3.625 1 2.593.406 3.094 1 3.594 1 1 1.5-.5-.5-1-.906-2.594-.5-4.094v-2l-.5-2.593-1-1-.5-.625-.5-.5zm-338.687 6.5-4.5 2-.5 1.5.406 2.625 4 3.593v5.188l5 1 2 1.594.875 4.625 2.5 2.593 6 3.688 7 3.094 6.5 2.125 1.5 2.593h1.5l2.5-2 .625-4.093v-2.125l-2-1.5h-1.5l-1-.594-1-1.5-3-2.094-2.5-1-2.5-2.094-2-.5-2-2.093 1-.5 2.594.5 15 5.28 5.5 3.095.406 3.625 1 2.093 2.5-1-.406-3.093-2.5-4.22 1.5-2.5 2 1 1.593-3-3.5-.593-3-3.594-1-2.593h-1.5l-4.593 3.593.5 1.5v2.594l-1.5-.5-11.5-4.812-2-1.5-3 .5-1-3.594-.5-2.594h1l2.093-.5-.5-1.5-1.5-3.094-4-.593-4.593.5-4-1.125zm51.593 21.5-2.593.5-1.5 1.5 1 1.625 1 2 4 1.593 3.5 2.094 4 3.594 4 2.094 3 1.125 1-.625-1-2-2.5-2.094-1.5-2.094-3-.5-1.5-1.5v-1.594l-3.907-3.093-1.5-2.125zm-.312 24.125-3.5 1-2 1 2 1.593 5 2.094 8.5 4.688 13.5 7.812 7.5 2.594 5 .094.5-3.094-2-.5-2-1.094-2-1-1.375-3.593-3.5-2.594-5-1.625h-6.625l-5-1.594-5-4.187-1.5-1zm422.125 5.375-1 .5-.5.625v3l-.625 2.593L1611 413l-1.5-.094-.5 1.594 2 .5h2l2.5-.5.5 2.094-.5 3.093 1.5.5 2-.5v-1.5l-.5-2.094L1617 414l.125-4.094-.5-1-2-3.094zm-414.813 24-3.593 1.5.5 1-1 4.125-1 .5-1.094 2.093-.5 1-.5 2 1.5 1.094h2l1 1-.5 2.094h-2.5l-4.125.406-3 2.094-1.5 2.5-.5 1.594.906 2 .5 2.125-2.5 1.5h-2l.5 2.593-2.094 3v2.594l2-1 1.5-2.594 3.594-1 .5-3 1-1.593 3-.5 2.594 1.093 2-1.5-.5-1.593 1.5-1.5 1.5-2.125 1.625-3.5v-1.094l1.5-.5 1 .594 1 .5-.5 1-.5 1.5 1 1.625 2 2.093.5.5-1.625 2-3 3.094-1 2-1.5-.5-1.094.5.5 1h1.5v1.594l-.5.5-1 .5-3 .5h-2l-.5-.594-1.5-1-.5 2.094.906 3.594.5 1.5 1.5.5.5 3.125 2 2.593v1.5l-.094 1.594-3-2.094-.906-1.5-1.5-1.093-.5-.5h-1l-2-.5-.5-2.125-1-1.5 1-2.094 1-1.5h-1.5l-2.5 1.5-1 .5h-2l-.5 1 .906 2.094-.5 3-1 1.625-1.5 2.5.407 2.093 2 1.5 1.5 1.094v2l1 1.094 1-.5 1.5 2.5 2.5-3.5 2.093-2.594 2-2 1 .5-.5 3.594-.593 2-.5 3.094-2 1.5-2.5-.5h-4l-2-2.094-1.5-1-1.5.5-2.625 3v4.094l.906 5.718 3 7.188.406 2.594 1 1.5 2.594-.5 1.5.625-1.094 1-.5 1 .5 5.093 1 1.094h1.5l.5 1-2.094 1.5-2.5 4.094v4.094l1.407 3.625 1.5 3.093 2.5 3.094.5 3.094 2.5 2.094.875.5v1.5l-.5 2.125v1.5l3 .593 1.5 1.5.5 2.094v2l5.406 6.188 1.5 4.718 2.5 2.594h3l2 .5 4.5 6.688 3.5 1.125 1.5-.5 1.5 1.5 2 .593 1-1.593 1 .593.5 2 2.5 1.594 2.5 3.594 1.5 2.094 1 1 1.5-.5.5-1.5 1.5 1 .5-.5.5-1 1-.5 1.5.5 1 1.5 1.5 1.125 1.5-.5 1 .5.5 1 1 1.093.5-1.593-.406-1.5v-1.625l-1.5-3 1-1.094h1.5l1-1.5 1.625-1.5 1.375 1.5 4.125 2.094-.125 1.625-1.5 4.093-2 .5-1.594 2 1 3.594 2.5 5.188 4 2 3 1.125 2.5 1.593v2l2.5 3.094 3 1.094 3 2 1.406 3.094 2.594-1.5.5-1v-1l1.5 1 1.5 2.125h2.5l.5 1.5 1.5 1.093 4-1.5 4 2.594 3-1 3.094.5 4 2.094 3-.5 3.5 1.094 7.312 1.187h13.719l-.406-1.062-.5-2 .094-3.125 2-1-.5-2.094v-2l-2-1.594-3-2.094-.5-.5-1.5 1V610l1 2 1.5 1.594 1 2-.594.5-2.5-.5-1-2-1.5-.094-2 .5h-.5l-4-.5-4 1-1.5.5-1.5-2.594-5.5-3.094-2-2.125-2.5-2.093-2-1.5-.5-3.094.094-4.594 1-3.594-.5-3.125-2.5-1-2.5-2.593.094-2.594-2-1-1-3.094h-2.5l-1-2.094 3-1.5 1-1.625-.5-2.5-1.906-2.593-1-1.594.5-2 2 .5 1.5-1 1.5-1.5-2-1.094-2-1.5.593-1.5 1.5-2.594.5-1.5-1-1.125-1.5-2 2.125-1.593 1.5-2 1.5-2.594 1.5.094 6.5 2.094 3.5 2 1.5 1.625.5 1.5 2.5.593 2 .5 1.594-.5 2.5 1 2.5.094 2-2.593 1-2 2.5-.5 2.094-1-.5-2.094v-3.625l3.094-2.5-.5-1.594h-1l-1 .5-1.594.5-2 1-1.5-1v-1l.594-2.594v-2l-2-1.093-1-1h-1.5l-2-.594-3 .5-2.594 1 1 2.094-1 3.593-2.094 2.5-3-.5-2-3.093.094-2.094-3.5-2.625-3.5-2-4-1.594-1-1.594v-1l3-2-.5-1v-2.593l1.094-1h3l1-1h3.5l.5-1.5.094-5.72-1-1.5-3-2.093-.5-1V504l-2.5-2.593-3-1.094-3-1.5-5-.625-4.5-1-6.5-3.688-2.5-2.093-.5-2-.375-3.594-2-1.625-3-4.094-4.5-5.687-6.5-5.72-.906-2.093-1-1.5-1.5-1.094-1.094 1.094-2.5-.094-6-4.094-5.5-2.093-2.5.5-2-2.625-1-1.594 1.594.094 2-1.594 4.093-10.687-.5-2.094-2-1.5-.5-1.625.594-2-1-1.094-3-2-1.5-1.594-2.5.5h-2.594l-1.406-1.593-1.594 1V432l-1 2-1.5-.5-3-1.093-1.5-.5-2.5 2-3.093-.5-3 .5-.5-.5-2-1.594-3 .5.5-1.5 6.593-1v-1.625l-1.5-.5-3.5 1-1.5-1zm-24.187 1.812-1 1 1 2.094-.5 1.5-3.125 4.094-1 2.625-1.594 2-1.5-.5h-1.5l-2 2.5-1 2.093-.5 2-1.594 2.594-1 1.5-1 .5-1 2.094-1.093 3.594 1 2.5.5 4.125.406 2.093 3.094.5 1-1.5.5-1-.5-2.093.5-.5 2.5-1.5 1.093-2 .5-2.625 1-.5 1.5 1 1 1.625v3.093l-1.093 3.5V469l2 2.094.5 1 3-1.5V468l.094-3.5-2-3.094-.5-1.093 2-2.5 1.593-1.625 1.5-2h2l1-1-1-1.5-2-.594-2 .5-2.5 2-1.093 2.594h-2l-1.5-2.094.593-2.5 1.5-2.594 2.5-.5 2-.5.594-2-1.5-.594h-2.094l.094-1.5 3-1 2-2.093 1-1.5-.375-2-1-3.625-.5-3.594zm95.5 4.906-1 .5L1269 436.5l-1 2 1 1.094 1 1.5-.5 1.5.5 1.594 4 1.625.5-2.125 2.5.5 2 1.625.5-1-1-1.625-.375-3.594-.5-2-1-1.094-1.5.5-.625 1.594h-1.5l-1-1.094 1-.5-.375-1.5zm275.875.688-4 1-2.094 1-1.5 1-1.5.5-4.5 2.5h-2.5l-1.594 1v1.594l1 4.625h2l1-.5 1.5 1.593 2.5 1 4.5 4.188 5.5 1 3 1.594 3.5 1.625h3.5l1.594-1.5.5-2.125-1-1-2-1.594v-2l.5-2.594v-2.594l-2.906-3.093-2.5-1-1.5-2.125-.5-3.094zm-30.375 22.406-1 1-.5 1-1 1-1.5 1-3.625 1 1 3.094-.5 3.094-.5 1.5-3 .5-.594 5.218.5 3.594-1-.094-5.594 3.594.5 5.094-1.093 5.218-1 2 6.5 9.781 4-1 1.5 2.094 3 3.125-1.594 3.594-2.5 6.094 1.875 5.187-.5 4.625.406 3.094 2 1.5 5.094-1 4.5-.406 5.625-2.594 2 1.094h5.5l2.5-1 1.594-4.594.5-2.594-1.5-2-2.5-2.625-1.5.5-1 2.5-3.094 1.125-.906-3.125 2.5-3.094 6.093-1 .5-2.593 5.5-4 1.094-2.094 1 .594.906 2 1.594-2v-2.094l3-1-.5-1.5h-3l-1.5-3.719-2.406-4.094-7.5-4.687-8.5-10.813.5-1 3 1.5 3 1.594v-2.094l-2.375-3.093v-3l.5-1.594 1-2 .5-1.594-4.406-4.125-2.094 1.5 3.5 2.125-.5.5h-3.5l-1-2.125-1-3.094-3.5-1.5-1-1.593-.406-1.5zm-184 8.313-2.5.5-.125 4.093-3-.094-1-2h-2l-2.5-.125-2.5 2.125-2.5-1.125-5.594 4.125-3 1.5-5.094 2-1-2.625-1.5-1h-4l1 1.5.5 2.125-1.5 1.5-1.5 1 1.5 1.094 3 1.5 6-1.5 2.5-.5.5 2.594 3 3.094 2.5 2.593 2 3.625 1.407 2.094-1 1.5 1 1.594 2.593-2.594.907 7.188 5 4.218-2 .5-3.094.375-7.406-6.687.406 4.594 4 3.093 1.5 2.125v2.094l1.5 1.5 4-.5 1.5-2.5h3l.5 5.094 1 1.093 3-1.5 1 2 2-1 3 1.594 2 3.125 4.094-1.5.5-2.125 1-2.5-.5-3.094-1-1.593-1.907-2-3.5-1.594 2-2 3.5-.5v2.5l3 1.594 2 .5v-1l-1-2.094.5-1.5 1-1.5 1.594-.5 4.5-1 2 1 2.5 2.094 1-.5v-1l-1.5-1.094-.5-1.5 1-1 2.5.5v1.5l2-.5 8.219-9.094 2.5-3.125.594-4.594-.5-.5-.5-1.093-5.5-2.594-3.5-1-7.594-.094-1.5.5-2.625 5.594 2 4.187-3.5 1-1.5-2.094-2.5-.5-1.5-1.593-.5-2.094 1-1 1.625-2v-4.125h-3l-12.625-3.688-4-2.093zm110.5 12.687 1 1.5-.625 1-2 1-6 1-3.594 2 .5 3.094 1.5 3.094-.5 1-2.5 2.125.406 3.093 1 3.094-.5 2.5.907 7.188-1.5 3.625 2.5 3.593 2-1 4 .5v2.594l-5.594 3.594 3.5 8.219 2.5.5-.125 2.093 1 3.094 2.5 3.594 4.5-.5.5-1-.375-2.594h.5l3-1-1.5-4.094 2.5.5 2 1.594 2.594-1.5 3.5-3.594 2.593-3.593h2.5l1.5-2 1.5-2.625 4.094-4.5 1-4.688-1.406-3.594-1.5-2.5-2.5-4.218-2-5.594-.875-2.594-2-2.594-3-2.093-14-9.313zm124.594 1.906-2.5.5-2.5 2.594.406 1.5-.625 10.813.5 5.687 4.5 5.594v3.094l-.594 1.625-5.094 9.687-1 4.094-.187 15.906.5 4.094 2 2.094 9.5 3.125 3 1.093 4.094-2.593 8.093-5.125 11.594-4.5 5-1 4.5 3.718 5.5 3.094 3 3.094 2 .5-.5-3.594-1.5-1.5-.406-2.094 1-1-.5-3.093-1.5-5.72-1.375-3.593v-2l-1-1.594-6-4.093-2.5-1.125-2.5.5-2.5-3.594-3.5-2.094-3.5-1.5-11.5-11.406-1.5-1-1.5-4.188-3.5-3.093-.906-4.625-1-4.094-3-2.594zm-177 12.5-.094 1.594h-1l-2 .5-2 2.5-1.5 2.094-.625 2 .5 4.094 1 1.625.5 1.5-1 1-3.094 1.5-2.5 1.093-3 3.5-4.094 2-3.5.5-2-1-2-1.093-1 1.093-.593 3.594-1 2.5-.5 4.594-.094 3.594 1.5 3.625 1 3.093v3.094l.375 4.094.5 2.594 2 1.5.5 1.625v1.5l-.594 2.093v1.5l-.5 3.094v2l-2.094 2.594-3 3.594-2 1.5-1.5.5-.5-1-1-1.594-1-.5h-1l.406 1.5-1 2.094-1.5 1.5-1.5-1 .5-1.594 2.594-3 1-2.594V562l4-1 1.594-1.594 1.5-3 2-1 1-.593-2.406-3.625-.5-.5 1-1 .5-1-.5-.5-4.594 1-2 2-2.5 3-1.594 2.625.5 4.093-1 4.094-3.094 4.094-2.093 6.094-1 7.718-.72 16.5-.5 2.5-.093 3.594-1 2.594v3l1 1.594v2l.406 4.218 1 1.5 1 1h1.5l2-.406v-1.594l.594-1 2-.5 1 .5.5-.5v-1.5l4.5 1 1.5 2.094.5 1 1 1.094 1.5.5.156.781h51.812l.844-1.375 1-1.594v-1h-1l-1.5.5-1.5 1-2.5-.5h-1l-.5 1.5-.5.5-1.5.5-1-.5-.5-.5-.5-1-.5-1.093h-2l-.5-1 1-.5 1.5-.5h1l.5-2.125v-1.5l2-.5.594-1.5v-1.594l.5-2V605l1.5-2 .594-3.094.5-3.593-2-.5-.5-1.125-.5-2.5 1-.5 1.093-1.594-4.5-2.094-2-3.094-3-7.218-2-1.5-3-3.094L1395 571l.5-3.094 1.5-2.5 3-1.5 1.125-4.093 1.5-3.625 1.094-3.094 1-3.594.094-6.094 1-2.093 1.5-2.5 2.094-4.625 2-.5 1-.5-2-1.094-.5-.5 2.594-4.094-1.5-1.5-3.594.406-4 1-4 1.5-2.5-1-2-2.093-.5-2 2-1.625 1-3.5 1.094-4.094-3 .5-2.5-.594-1.5-1-.5-1.094 1-2-.5-2.093-1.5-2.5 1.125-7.22 1.5-3.593v-1l-.407-.5-.5-.594zM1453 547.313l-4 .5h-6.094l-5-.125-4.5 1-3.594 2.125-2.5 2.5-.5 2 1 2.093-.094 3.094-2 .5-1-2.094-1-1-1.5 2.5 1.5 4.188v1.5l3-1.5h3v1.5l-1.5 3.594 3.5 1.625 2 2.093.907 2.5 3 2.094 1 3.594-.5 4.094-1.125 1.625-4.5 2 .5 2 .5 1.593-2.5.5 4.906 4.594 1.594-.5-1-3.094-.5-2 3.625-4.593 10.093-7.125 4.094-5.594 2-3.094 1.5-4.094 4.094-2 1-2.593-2-1.5-1.5 1.5-2.5 1.5-3-1.5-1-3.625.5-2.094.5-2.594 1.594-1.5 3.5-1 2.5-2.5-.5-1.594-4.5-.5zM1596.719 553l-6.5 1-4.5 1-3.094 2.594-8 4.5-9.125 3.594-2.594 1.5-9.5 2-3.594 2.5-4.5 2h-4l-.5-3.094-2-2.594h-3l-2.593 2-2 4.094-1.5 2.594-1.594 1.5-3.5 1-2 2 1.5 1.125-.5 1-1.125 2.593v2L1526 589l7.125-.5 1.5-1 1 1.5.5.594 1-.5.5-1.094v-1.5l-.5-1 1.094-1.094 1.5.094 1 1 .406 2.594 1 3 5.5 5.219 2 2.094.5 1.5V601l-1.5 2 1.375 2.094 4.5 4.094 1.5 4.125-1.5 4.094.406 3.593.5 1.875h94.406l-.312-.687-1-1.5-4-3.688-1-2.5-2-3.593-1.875-5.72-4.5-13.374-3.406-8.219-.5-2.594-1.5-1-2.5.5-4 1.5-2.594 2-3 2.594-1.5 2-.125 3.094-1 2-1.5.5v1.125l2.5 3.594-.094 3.093 2.5 12.813-.594 4.594V621l-1.5 1h-3l-1.5-1.093-2-.5-1-.5-1-2.094.5-4.125-2-1.5-1.5-5.688-.406-4.593 2-1.594-.5-3.625-.906-9.188 1.625-9.187 1.594-6.719-4-3.094-2-6.687-.907-6.719-1.5-.5zm-63.094 40.094-1.625.5-2 1-3.5.5-3 1.5h-6.594l-.5 2-1 3.094-1.094 1.5 1.5 1.125 2.5 1.5 2.5 1.593 4.094-.5 3.5-.5 1-1 3-1 1.094-1-.5-1.5-2-1.093.5-1.5v-1.625l2-3 .5-1zm-101.719 7.5-1.5 1.5-.5 2-2.594 1.594-1 .5-1.5 1.5-.5 1.5v2.125l2-.5 1-.5 1-1 .5.5v1l-.5.5-.5 1-1.093 2.093-.5 1.5h2l2.093-1 2 1.094-.593 1-.5 2-1.5 1-1-.5-1.469 3.375h7.531l-.562-1.781V618.5l.593-1.5 1.5-3.594 2-3 1.594-3.093-1-1-2-2.625-2.5-3.094zM1522.812 612l-.5.594-1-.094-1.5 1.094-2.5.5-2-.594-1.093 2.094.5 2.5 1.5 2.593 1.5.5 1 1.125.562.563h6.875l2.156-2.563-1.5-1-.5-2.125-1-2.093-1-2.5z" style="fill:#9faec0" transform="translate(0 125)"/><path stroke="#9FAEC0" stroke-width="10" d="m1316.813 622.875 2.687.438h2l3 2.093 1.5 2 2.125-.5 1.5-.5 1.5-2-.594-1.531zm46.156 0 .344 1.813v2l-.095 2.625.5 1.5 2.5 1.593h2.5l2.094-1 .5-.5 2.5.5.5 1 1 1.594 1.5-.5v-1.594l-.5-2 .5-.5 1.5-.5 1 .5 2 1.594.5 1-.5.5-1 .5h-.5v1l1 1.094 3-1 2-.5 2 .5.5.5h1.5l1.094-.5h.5l5 2.594 1.5 1.625h1.5l.5.5 1 1.593-.594 3-.5 2.594-1.5-.5-1-.594V648l-3.094.5-1.5-1-.406-1.094 1.5-1.5 1-1.5-.5-.5-2-.593-2-.5-.5 1.5-2.594.5-1.5-1h-1.5l-2 2.5v1.593l5 1 2.5 2.594.5 3.094-1.593 1.5h-2.5l-1 1.594-1.5 2h-3.5l-1.625 1-.5 1 1 .5h2l2.5 2.625 1 1.093h.5l2.625-.5h4l5-2.5 2.093-1 1 1 .407 2.094 1.093-.594 2.5-.406h3.5v-2.094l.5-1-.5-2-5.5-1.093-.5-1 1-2.625 2.594-1.5 2.5 2 4 1.625h3l.5 1.093.5 1.5h2l1-1.5-1-.5-1-2.093-.5-1v-1l.5-.5h3.594l-.5 1.5 1.406 1.593 2 1h1.094l1-.5v-2.593l2 1.093 1.5 1 .5 1.594-.5.5-1 .5-.5 1 .406 1 3.094.094 3 1.5 2.5 1.594h1l1.5-1 1-1 .5-1.094v-1.5l1-.5h1.594l.5.5 2 1.094.5-1.094-2-5.594-3.5.5-2-.094-1-1 3.5-4.593h1.5l-.375-2.5.5-1.625.5-1-.5-1.5v-2.094l-.5-1 .5-.5 1.5 1.5 1 .5 1.593-1.5 1-1.5.5-1-.5-2.094-3-3.594-1-1-2.5.407-2-.5-1.5-1.5-2-2.125-.437-1.313h-7.531l-.531 1.219-2.594 3.093-2 2.5-3 1-2.625.5-2 2.625-2 1.5-1.5-1.5-1.5.5-1-.625-.5-1-.5-.5.5-.5 3-2 2.125-4.093 1.656-2.72zm156.312 0 .938.938h1l1.5 1.593h1.5l1.5-2 .437-.531zm36.125 0 1 3.813.5 3-1.093 2.625h-1.5l-2-1-.5 2-1 5.093-4.594 3.594-3.5 1-1-1-1-.594-.5-.5-1 1.5.281 13.407 2 7.187 3 3.594 3.5 2.594v3.125l2.5.5 1.5-.5 2-.5h1l1.5-1.5h1l.5 4.593-.5 2.094h-1.5l-1.5-.594h-1l-.594 1 .5 1.594.5 1.5 1.5 1.094h1l.5-.5.594-1.594h.5l.406 1.094 1 1 4.594-.5 2-.5 3-1 1-2 3.625-2.594 2.5-1 1 1.094 1 1.5 3 .5 3.5-.406 1.094-1.094v-1.5l1-6.188 2-1.5 2.094-1 3 1.094h3.5l3.5-1 3.593-3.094h2l3-1.5 1.594-3.5 2-6.218-1.5-2.094.625-5.094 1-2 4-1 2.5 1 2 1.594h3.094l4.5-.5 2.5-3.594 1.594-4.594 1-.5 1.5.5-.5 3.094-2.094 2.594.5 3.594 1.5 1-5.094 11.312-2.125 5.594-1 3.094v2l-.594 2.625h-3l-3-1.125-3 1-1.5 1.5 2.5 2.125 2.5-.5h3l3.5-1 1 1.093 3 7.188v2.5l-.5 1.594-1.593.5-.5 2 2.5 3.625 5 4.687 4 4.594 2 2.594v2.125l-.5.5 1.906 11.78-1.094 4.595h2.5l5.594-1 1.5.125.5 1.5 1.5 1 3 1.593 2.5.5 2 1.094 1.5-.5-1-2.094-.5-2.593 2.094-5.125.5-2.5 2.5.5.5 1 1 3.125 1.5 1 2-.5 1-.5 1.593-.5.407 1.093-1 1.5-1 1h-1V723l2 1.5 1 1.594 2 .5-.5 1v1.5l-1.5-.5-1.594 1h-1.5l-2 .5-1.5-.5h-1.5l-2 1.5-1.5 2.094-.094 2-1.5 1-.5 1.625 3 1.5h3l2.094-1.5 1.5-2.5 1-2.125 1.5-2h1l1 1.5 2 2.625 1.5 3.593 1 1 1.5-1h1.5l.5 2.094 2-.5v2.594l6 6.719 4.5 4.093 10.5 8.782 1.5 1.625 3.5 1h4.5l3 2.093 4 4.688 2 .5v3.594l6.5 3.125 2.5 1 1.5 1.093h2.5l1.5 1 1.593 1.094.407 2.5 1 4.094.5 2.094v3.125l1.5 2.5 4.5-.407 1.5-1.593 2-1.5 2 .5 1 2.093-1.5 3.094-2 4.594-.094 2 2.593.5 3.5-2 3.5-3 1 2-1.5 1-2 2.094-4.093 1 1.5 2.625 8.093 1 1.5-2 2-.5v1l-1 1.593-2 3-2.593 3.594-3 4.094-3.125 3-.5 2.094-.5 1-2 3.125-2.094 4-2.5 2.093-.094 6.094-1 7.688h-.5l-1-1-1-7.188-1.5-1-.5 3.594-1 1.5.406 2-.5 2.594-.5 2 .5 2.125-2 1.5.406 3.093.5 3.594-1 .5-1 .5-4-3.594-7-4.218-3-3.594-4-2-7-2.688-4.5-3.593-9.625-2.625-1.5-1.594-3.5-3.094-3-1-1 2-2 2.094-2.093 3-.5 5.219-3.094 5.593-4 2.5-5.594 1-2.5-1.593-3-2.5-3-2.625-1.5-.594-5 1-3.094 2.094-6 2.5-7.125 2-5.687 14.812.5 9.188.906 7.218-3 5.094-1.719 13.906 4 11.282.907 4.125-.5 4.093-.5 2-3.094 2.594 5.5 16.406 1.5 1.094 1.5 1.5.906 1.5-.5 1.594-.5 1 1.5 4.094 3.5 7.718 2.906 7.188-2 4.094 1.375 6.718 1.5 1 2 4.094 6 3.188 4 3.625 1.5 2.5 1.5 3.093 1.5 1.594 3-1.5 1.625-2.094 3.5-3.5.5-1.593 1.594-2 2.5-.5h5l11.5 17 1.906 7.187 5.594 3.094 4.5 1.594 1.5-.5 5.5 2.125 5 10.28 4.5 4.595 5 3.125 4 5.687 3.906 5.094 3.375 16.5 3.125 2.5 2.5 1.594 3.5 3.125 11.5 2.093 2.094-1.5.5-2.593-1.5-3-2-2.625-1.5-1.594-2.5-4.594-1.906-7.187-5.5-8.72-.5-4.593-12-13.5-1.5-3.5-5.5-4.187-2.406-5.125-2.5-3.094-4.594-1.094-1-1-.906-3.094-2.5-5.593-2.5-1.625-5.594-1.594h-.5l-2.5-2.094-1.5-2.5-1.406-6.687-4-6.22-4-5.093-4-3.687-1.407-7.72-.5-4.093-1.5-3-5.5-2.594-2-2.093.5-4.125-1.875-5.688-.406-13.312 2.5-3 3.094-3.094 4.5-2.5 3 2 4.594-2 1.5-1 .5-3.594 4.093-3.5 1-2.094 1-2.5 2.5-1-.375-7.218-2-1.094-1.5 1.594-1-.594-.5-1-1.5-5.594.5-4.094-1.406-3.093 1-3.625 3-2 8.594-4.594 4 .5 1.5 1.594 2 3.625.5 3.593 9 2.594 3.594-.5 5.5-1.5h2.5l2-.406 2.593-3.094.5.5 1.5 4.594 1 2.094 1-.5.5-.5.5-3.094 2-2.5 2.625-4.594 1.5-3.594 2 1-1 1.594-.5 2-1.5 3.594-1.625 1.5-1 2.594v1l.5 1.5 3 1.125 2 1.5 2 4.093 1 4.688 2.5 1 .5 1-.593 4.594 1.5 3.125-1 3.093.5 2.094.906 4.594v1.5l1.5 3.094 2 .5-.5 6.718 2 1-3.594 7.188-.5 2-.5 1.594-3.094 2.5-1 5.625-1.625 4.093-.5 3.594.407 3.594-.407 2.094-.094 2 .5 2.125 1.5 1.5v3.093l.5 5.094-1.093 4.594-1.5 3.594 1.5 2.625 3 4.593-1.094 3.594.5 4.094.594 1 5.906 8.812 3.5 5.594.906 3.094.5 4.094 1 5.125 2 3.593 4.5 1.594 6 3.094 3 5.719.5 1v2.093l.5 1.5 2 3.594 11 7.313.5 2 2 3.593 1.875 3.594 3 3.094 1.625-.5v-2.094l.5-.5 2.5.594 2.5 1 2.5 1.594 2 2 2.5 4.718v3.5l-5-2v-2.093l-1-1-3.125.5-3.5 1-.5 2 2.5 3.593 6 2.094 2.625 1.406 4.875 2.782 9.125 6.218 5.5 5.094 10.5 6.813 3.5.5 4.594-2.5.5-5.72 5.594-5.593 5.093-4 3.5 1.5 2 3.094-3.093 1-1.5 2.594 1 1 3 2.125 4 1 6.093-1L1892 1103l3.5-.687 6 4.187 3 3.094-4.594-.594-4.5-3.094-3.5.5-.5 1 2 1.094 1.5 2.5.5 5.688-2.5-4.094-2-2.594-6.093-2.094-5.5 1.5-4.094 1V1115l-1.5 5.594-3.094 4.094-.5 4.125-1.625 3.593V1137l-2.5-.5-3 2-.094 2.594.5 3.594.5 1.5h3l.5 1.625-.5 2-1.5 2-2.594 1.593-3 1.5v2.5l-1.5 2.594 1.5 2.094 1-.594 2-3.5 2-1.594 1.5 1.094-1 3.594.5 2.5-1 1.594-.5 2-2.093 2-3.5 1-.5 2.125-1.594 2.5-6 6.093-4.625 3.594-2.5 2-3.594 1-5 1-7.594 2h-5.5l-4.593 2-9.094 4.594-4.5-.094-5.125 1.5-.5 1.594-1.594 6.093-1 5.125-.594 7.688v3.094l-1 2.5-1.5 3.593-1.593 2-2.5 3.125-2.594 5.094v1.5l-.5 2.094v2.5l-4.625 9.187-.5 1.5.906 3.125-.5 1.594-1.5 3.5-.5 4.594-.469 1.531H5733.53l-5.53-132.344-3.19-76.187-7.406-215.906-.5-12.688-8.281-209.531H1691.218v1.219l-.5 1.5.5 2-.5 1.593-2.5-1.593-1-.5-2.094 1-1.5 1.5.5 2.093 1 1.5.5 2.125-1.5 1.5-1-1-.5-2.625-2-2.5-2-1.093-2-1-3 .5-2.625-.094-.5 1.593-1-1.093-1-1.5h-1l-2 1.5h-1l-1-1.5v-1.594l-1-1.5-1-1.594-2.5 1.5.5 1.094-1 2.5-5.5-1.5-2.5-2.594-.688-1.437zM43.72 633l-1 2.594-3.094.5-1.5 2h-3l-6.5-4.688-5.125 2-4 3.5-3.594 1-2 3.594.407 5.094 1.5 1.094.5 3-1.594 1.625.5 2 5.5-.407 4.5 3.094 1.5 4.094 3 2.094 1.406 2.125v2.593L29.5 674.5l7 8.813 1.406 3.093 4 3.094 4 4.688 2.5-.5 2-2.094 2.094-.5 3-.406 4.5 2.125 2.406 4.593 1.407 7.188-1.5 5.719-1.594 2-2.5-.625-1-1-1 .5v3.625l.406 1.5 1.5 1.093 1-.5 2 1.5L60 728.188l-1.594 6.625-3.093 4.093-6 1-2.5-1.593-.5.5-.594 1v2.093l-1 2-2.5.5-.594 5.094.375 2.594 1.5.5 1.906 8.219 1 3.593-1.093 4.688-.5 2.5-1.594 5.594-.594 4.125-2.5 3.593L37 789l-6.594 3.5v1l-.594 3.094-1 1h-3l-1.5.406-.5 1.594-.094 2 3.094.594.406 4.125 1.5 2.093.407 4.594 1.5 2.594 3 4.594L35 825.906l-3.688 12.688-1.094 5.719L26 854l-2.594 6.594-5.094 5.594-3.5-.094-2 1-3.094 3.593-4.593 5.625-4.125 1.5-1 5.094L.406 887v3.094l1.406 2 4 2.718 4.906 11.282.407 5.593 3.5 4.72 1.875 9.187-3.594 2.093v1l.5 1 4 2.625 3.5 3.688 4.906 6.687.906 8.72v4.093l1.907 3.594 1 2.593-2.125 5.125-2.594 3.5-2.094 11.782-.594 3.593 1.407 9.22-1.125 6.187 2 4.093 2 2.125 1.406 4.094 1.906 10.781.313 10.72-1 5.187.375 5.093-.5 2.5 1.406 2.625 1 2.094.312 12.281-1.5 1.5-1 1.5.407 3.125 2.5 5.188.375 4.094 2 3.593 1.5 4.625.906 6.188-1.594 3.5-2.5 1.5.5 1.594 1.406 3.593-1.5.5-2 .5v1l.407 2.625 2.593.5 2 .5 2.5.094 3 4.594-3.593 3.594 3 3.094.78 8.718 2 1.594 4 2.594 4 6.719 2.907 6.187.906 7.688.407 8.218L54.5 1169l-.094 6.188 6.5 4.718 1 2-.594 4.094v1l-.5 2.594 3 3.594 2.406 5.218 6.5 3.594 2 2.094 1.5 3.094-.594 3.625-2.5 2.5 1 1.5 1.5 1.093 3.5-2 4.594-3 1.5-3.093 2.594-1 11.5 6.78 2.906 6.22 1.5 2 2 1.093 1-1 3.094-1.5 3.406 5.094-1 2.094-.094 6.094 1 4.125 2.5 2.093 2 3.094-1.625 3.594v1.5l4-1 2.5 2.094 3.5 4.125-1.094 5.187v1l1 .5 10.094 2.188 2.406 3.125.5 3 1.75 1.218h1415l.344-.53v-1.5l-1.375-6.188-3.625 2-.375-2 2-1.5 3-.5 2 1 1.47 9.218h4.03l.5-2.53 2.094-3 1-1.095 1.5-1-1-2-3.5-2.593-6-1.125h-8.094l-4.5-1.594-2-3.094-1-4.594-5-4.718-.5-3 1.594-4.594-.406-9.781-1.906-14.313-2.094 1.5-1.5 2-3 3.094-3.094 6.094-5.594 4.625-1.5-1.125v-3l.094-9.188-.406-8.187-3-6.22.5-2.093 1.094-4.594 1.5-4.593 2.594-6.625v-3.594l-1.5-.5-2 .5-.5 2.5-1.094 3.094-1.5 4.125-1 2-1.594-1-.906-1.5.5-1.125v-2.5l-1.5-1.594v-1.5l4-.5-.5-1 .594-2.094 2.5-2 4-.5 1.625-1.5-.5-2-1.5-6.187-2-.5-2 1.5-3.625-1.125-3.5-1.5h-3l-2.5-.594-1.5-2-3.5-6.688-1.5-.5v-1.093l-.375-3.125-2.625-.5-.375-2-1.5-3.594-1.5-2.094 1-4.594.593-5.593-6-12.407-.406-5.593-2.5-.5 1-1.625 1.5-3-.5-1.594h-.5l-1 1-1.5.5-1-.5.5-2.5 1.5-1.594 2.094-1-2-4.094-4-.5-5.094.407-.5 1.593-2 1.5-1.5 1h-1l-1.5-1.5 1.5-3.093-1-3.125-3.5-5.094-3-2.594-2.5-1.594-1-4.093-2.406-4.125.5-2 1-3.594 1.594-4.094-4-3.094-4-4.718-5-4.594-1-6.188-3.375-8.718-6.5-4.188-.5-2.5.5-3.594 1.5-.5 4.093-2.5 1-3.093-.5-2.625.594-.5 4-2.5 12.188-7.094 11.625-5 4.5-3.594.094-3.594-6.5-8.718-3.5-4.688v-3.594l.593-3 3-4.093 1.594-2.625h-1.5l-2.094.5h-2l-5.5-1.094-4.5.5-5.593.5-21.22 4.406-6 1-8.093 2-1-1.594-3.5-.5-1.5 1.5-2.094 2.594-.5 3.094-6.093 4v2.094l-2 1.5-8.594 5-15.813 13.718V1013l1 2 1 1.594 3 5.094-.593 4.125-2.5 6.187-3.094 5.094-4.625 4 .5 2.094 1.5.5 3-1 2.625.5 15.5 13 5.875 8.718 4.5 3.688 5 4.594 5.5 2.125 2 3.093.5 4.594-2.188 14.813-3.593 12.78-1.094 8.72L1400 1127l-3.094 5.594-6.5 3.5-11.594-.094-5.093 3.594-3 1-1.5-2.094 2-2.5 4.093-2.594 4-4 4.594-5.093 3.094-5.625 1-6.688.125-4.594-2.5-6.718-2.906-13.782-2.5-1.093-.407-4.625-1-3.094v-2l-4.5-.094-6.093-2.594-6.5-4.594-15.5-5.312-3-2.094-3.5-6.594-.5-3.625 1.093-3.093 4.688-16.907 3-7.093 1.125-2.594-6.125-.5-7-.594-6-1.094-3.594-2.125-28.687 2.407-4 2.5-7.094 1.5-4.5.406-5.125 4.594-4.094 2-8 1.5-7.094 2.5v1l2.5.593 4-.5 6.594-1.5.5 1.5-2.594 1.625 1.5 1 1.5 1.5 3.5 3.094 5 5.188 1.5 4.093 1 2.125-1.5 1.5-3.094 7.688-.593 2.5.5 2.094 2 2.593 3.5 3.625v2.5l1.875 9.782 1 6.093-2.594 4.625h-1.5l-2-.5-3-.5-3.5-3.718-3-4.094.5-2-3-6.688-9.406-12.406-7-6.219.5-2.593 1-1.5 1.125-2.5-.5-5.688-1-4.094.593-2-1-8.218-1.406-3.094-1.094.5-.5 1-1.5.5-.5-1 .5-1.094 2.094-2.5 1-3.094 1-2 1 1.5.5 2.594v1.5l.5 1.594h1l.5-1 1-.5-1-2.594-1.406-5.594-2.5-7.812-4.906-8.688-2-3.125-3-6.187-3.375-6.188-2.5-1.5-4.125-1.125-2.5-2.093-4-3.094-4.375-4.594-8-8.312-6.5-8.188-5-4.719-2-2.593-1.5.5-.5 3.093-2 1-2-1.593-4.125-1.5-.5-.5-3.5 1-1-1.594-4-.5-3-.594h-2v1.5h-6.094l-6.594 3-7 1.5-3-.594-.5-.5h-1l2.5-2.5 4.094-3.625 4.5-4.5 3.094-3.593 5.625-7.094 7.593-6.094 3.594-2h.5l-.594 2v3.594l.5 3.594v1l-.593 2.593-1 4.125-.5 1 1 .5.5 1 1.5-1 .5-2.5.5-3.625 6.687-12.281 5.594-1.5 2.5-1.5 2-1 3.594-1 4-1 2.5.094 2-1.594 1.625-2-1-2.093-2.5.5-4.625 2-4 2.093-3.094 2-5 1-5.094.907h-4.5l-5.5 1-6.094 4.5L1165 938.5l-6.594 7.594-2.5 4.094-5.594 5.625-3.594 4.593-2 2-3.093 3.594-1.5 1.5-3.625 2-3.5 3.594-5.594 4.5-6.594 4.094-11.687 7.625-7 3-4.625-2.625-6.5.906-2-.5-3-2.594h-5.094l-4.5-1.094-1.5-2.093-1-1-12.094 5-8.594 2-6-.625h-.5l-7.093 1-7-3.188-4.5-1.5-9.125-.094-10.594 3-4-.094h-6.094l-9.5-1.719-8-2.594-4.094-2.093-3.5-.5-3-1.594-8-2.625-7-3.188-4.5-2.093-2.5-2.5-3-6.719 8.594-3 7.094-1 8-.875 4.594 1h1.5l4.5.594 4.5 1.093 2 .5 3.125-.5-.5-1.5-4-1.593-11.125-1.594-3-.625-11.594.406-8.594 1.5-6.5 1.5-5.094 2.5-6.593 2.5-14.625-.187-10.594 1-7.5-2.719-3-3.594-4.406-8.687-4.5-4.719-7-2.594-5.094-.594-4 1.5-1.5 3.094-3.594 1.5-4 2.5-2.094 4.094-1.5 1-13.718 3.5-4.5-2.094L835 957l-1.5-1.5-4.5-.593-9.094-1.594-3-1.625-5.5-3.594-1-2.094 2.094-2 1.5-1.5-.5-1.593-1.5-2.094-1.5-.5-1.5-1-3-2.125-1-2.594-3.5 1-2-2.594-4-2.593-4-1-5.5-2.094-6.5-1.625-2.094 1-2.906-2.594-6.594.906v-3.593h-5.5l2 1.5v2.593l-2.094 2.594-8.594 3.5-4-1.594-2-2.593 1.594-1.5-.5-2.594-3.594.5-3.5 1.5v3.094l-2.593 1-2-1.594-3.5-1.125h-7.5l-7.625 1.906-8.094 4.094-9.094-.594-9-.094-14.094-2.187-4-5.22-3 1-5.093 2.5-9.625 2.5-10-.093-5.094-.594.094-1.5-1.5-2.594-.5-1.5-2 1h-2l-1.5-2.125h-3.594l-4 .907h-4.5l-4.5-1.094-6.094.5-10.093-1.188-9.5-1.625-2-3.093-1.5-2.594-2.5.5h-3l-21.22.312-3-1.125-4-3.093-6.5.5-3.5-5.188-2 .5-6.5-.594-5.593-1.125-1.406-3.093h-3.594l-8-.594-6-2.094-4.5-3.219-4-2L502 885.5l-3.094 1.5-11.5-8.906-16-6.782-.5-1-4-.125-.5-3.093-.406-2 .5-3.594v-2l-2.5-1.094v-1l1.625-1 2 .5 1 1.5.375 5.188 1.5.5 1.625-4.094-1.5-3.094 2-3.5.594-2.094-3-1.625-3.5-2-13.594-3.78-6-2.095-2-3.625-8-3.187-2-3.094-12.5-5.719-4.5-2.687-2.5-2-6-3.188-.406-3.625-21-8.375-1.5-5.218-4-.5-4-2.094-1.5-3.094-1.5-1-3-.094-3-2.125-3-1-1 1-1.094 4.625-3.5 2.5-6.125 2.5-6.5-.625-5.594-1.594-1.906-2.5-8.094-.593-3-3.188 1.094-3v-3.125l-6.5-4.687-9.5-3.188-14-3.719-1.5-2.093-6.5-6.688-3-3.719-5-1-3 .407-2 .5-9.094 2-3.5-1.594-8-4.219-5-4.687-3.406-4.594-4-1.594.5-3.625-4.5-3.094-4.5-2.593-4.5-.094-4-1.094-3.5-3.625-1.5-1-.5-2.594-5.375-5.687-10.5-5.313-3-4.594-4-2.093-5-4.22-5.906-3.593-1-1.094-5-2.593-3.5-5.22-3-.5-3-3.093-4.5-1.594-2-2.593-3-1.094-5-.5-4-.625-4.5-4.094-6.907-6.781-3-4.125-4.5-5.188-3-.094-3.5-1-2.5-3.093-2.906-2.125-3.594.5-2-2.594-5 1.406-2.5 1.594-4.593 2.5-8.594.406-5-.094-1.5-2.594-2.906-5.125-.907-6.187-3.5-2.594-1.5-3.594 1-1 1.094-3.125-2-1.594-12.094-1.593-2.406-2.094-1.594 1-2 2.5h-4l-4.5-3.219h-1.5l-3.593 1.5-5.5-1.094-3.5-1.593zm1546 45.188-4.094 1.5-1.5 2.125-2.625 3L1577 691l-2.594 4.094-4-.594h-3l1-1.5 1.5-.5 1.5-2.594-.406-3.593-3-1-6.094.875-5 2.125-3.5-.125-4.594-.5-2 2-.093 5.718.906 15.407-2.125 10.687-3.594 12.313-3.594 6.593-4.094 5.688-3.5 6.094-4.093 6.625L1523.5 765l-2 2-3.094 2.5.5 1.094-3.5 6.094-2.094 4.625-5.094 5.593-4.593 6.094-1.5 1-4.625 9.188-2.594 6.718V815l-3.594 7.188-5.594 7.625-5.093 8.687-9.72 15.313-1.093 9.687-1 1.594-2.594 5.094-3.093 12.812.5 5.094 6.875 5.719 7.125 2.593 4 3.594 4.875 7.313 2.5 4.093 10.125 4.688 6.5 2.594 7 8.718L1516 930.5l4.5 5.688 5.406 17.5 2 6.718 2.5 1 3.5-3 4.594-2.593 10.625-4 7 .593 6.093.5 13 6.782 5 8.812 4.782 25.594 1.406 14.906-3.594 13.313-2.594 10.687-4.093 8.188-2.625 7.718.406 6.594 4.5 5.188 4.5 7.218 4.406 9.782v9.718l-5.187 10.188-6.5 2.5 4.5 5.219 7.375 10.78 7 8.22 15.625 5.78 10 6.22 1 7.687 2 3.594-1.125 6.219-6.094 11.187-1.094 2 4 4.094 4 2.594 17.688-5.5.625-3.594 3.5-5.594 5.593-4.5 12.594-4h9.594l6 4.188 3 8.218 8 7.688 8.406 15.406 1.5 9.313-1.094 8.187-3.093 4-1 4.094 1.5 6.219 1.5 4.093 5.375 6.688 1.5 4.594 8.125 1.125 5 1.593 3-1.593 2.593-1.5 5.5 2.093 4 4.688 5.5 5.594 7 1.625 1.594-9.72-.406-6.187-1-4.093 6.594-8.125 3.125-4.594 6-3 2.593-3.094-.5-3.094.5-6.093 2.594-4.625 2.094-8.188-1-9.187L1765 1167l-.5-6.094-2.375-4.593-4.125-2.625-3.875-7.188-3.5-12.812.094-10.782.094-12.312-1.907-7.688-5.593-1.093-13.094-2.625-10-7.782h-6l-5.5-2.593-7-5.72-5.094-4.093-2.906-7.187-5-7.22-5.5-10.28-2-1.125-5.5-6.094-3.906-4.688-4-5.718-2.5-6.094-3.5.5-5.594-.594-10-2.094-6.594-.094 2.875 12.375 6 16.906-4.687 9.22 1.5 4.593 2.5 8.781 2.406 14.313-4.094 5.593-1 5.094-3.625 4.125-.594 5.688-6.5 3-5.093 1-3.5.5v-2.094l.5-3.594.593-4.625 1-4.593.594-5.594.5-6.188.125-3.625-1-5.093-3.5-4.094-3.5-2.094 1-4.594 1.594-5.625-.5-7.187-.406-7.688-3-1-2.5-1.625-2.5-5.093-3.907-10.282-3-6.718-2.5-5.594 2.094-4.094 4-4.094 1.625-2 3-5.125-.406-7.187-2.5-5.688-3-5.125.094-8.187-1.406-11.313-4-5.187-3-3.094-1.5-7.719-1.906-10.187-1.375-14.407-9.5-10.78-2.907-7.72-4-9.78-2 .5-4-2.126-4.5-5.687-3.5-3.594h-1l-4.5.5-5-3.594-4-3.719-5.093 2-4 1.594-5-2.094-3 1.5-4.625.5-6-.593-4.594 1-4.5 2.5-7.094 3.593-9.594 1.907-2.906-4.594-2-5.719-2-1-1.5-3.094V875l6.094-1.5 10.094-3.5 9.125-2.5 5.5 2.093 3.5-1 3.093-2.593 5 2.093 6-1.5 5.094-1 5.594-7.593 1.094-6.688 1-6.625-2-5.187-5.875-8.188 1.5-7.219 3.093-3.593 4.5-2 3.594-3.5 3.5-.5 1.5-.5 2.5 1.5 1.5 3.093v4.094l-3 .5-7.094 2 2 2.125 3.5 6.188 5 4.093 4 .5 2.5-2.5-2.406-5.687 3.5-6.094 2.594-3.125v-2l1.5-1 1.094-6.187.5-2.5 6.625-2 10-2 7.593 1.593 13 10.313 2.907 6.188-2 5.593.375 5.719 3.125 1 .5-3 1-4.094.593-3.625 4.5-.5 12.594-.375 8.594-4.625 3.5-5.094 6.094-3 3-3.593 1.625-5.094-1.5-7.719-8.907-15.5-6-2.594-1.5-1.5-2-3.593-5-3.094-3.5-3.094-5-6.719-8.5-6.78-8.5-4.72-11.5-3.593-2-1.594-3-2.094v-1.5l2-1 4.094-3.625 2.5-5.594 3.594-3.593 1.5-3.5-3.906-7.813-.5-2v-4.094l1.125-6.187.5-6.094-1-1.625-1.5.5.5 1.125-.5 3-3-.5-2-2.625-1.5-3.594.5-4.093-1.907-4.094-2-1.594-3-2.5zm-249.813 302.218-1.5 1-2.593 2.594-3.594 4.094-2.5 2v2l.5 1.094 3.5.5 3-1 3.594-1 1.5-1.5 1.5-1 2-1 2.093-.5 2.5-1 2 2h2l.5-2.5-5.5-1.594-3.5-2.094-2.5-1zm175.407 37.782-9.094 2-22.719 8.5-4.094 7.218 2 3.094 2.5-2.094.5-2.5 2.594-2.093 3.5-1 4-.407 2.5 6.094 3 7.688 1.906 7.218 3 5.188 3.406 11.812 4.094-.5 1.906 3.094.5 7.188-1.5.5-.5-2.094-2-3.594-4-1-2 1.5-.093 3.594 1 4.594 1.5 5.625 6.906 8.78-1 3.595-4.125 6.625-2 2.593-.094 3.5-2.5-.5v-1.5l.094-3.093-.5-7.72-1.375-6.187-3-1.5-2-1.093-1-3.5 2.093-6.72-2-2.593-.5-4.094-2.406-13.812 2.5-4.094-.906-3.594-1.5-3.093-2-2.625-.5-1.5-.5-6.188-.906-4.594-2.594 1.5-1.5 2.594-3 3.5-4.094-1-1 3.594-1 4.594 1.906 6.125.907 11.28-3.125 10.813.5 2 4 7.188v2.094l.906 3.625 7 9.78 4 1 3.5 1.595v2h-2.5l11 8.812 4 .5 1.5 4.188 6 3.625 8.594-4.125 4.125-5.594-1-2v-3.094l1.593-6.594v-5.218l-1.5-1.5-3-2.094-2.406-5.094-2-9.312-.906-9.688-.906-11.812.625-6.688-4.5-15.406-.407-3V1030l1.594-4.594 4-4.093zM1784.5 1116.5l-4 1.5-1 2.5 2.406 4.094 2.5 4.219v2l13.094 5.687 2.5 1.594 3-1.5-1.5-3.094-2-2.594-1.5-4.593-3-1.125-2.5-1-3-2.594-.5-3.594zm-213.281 85-3.5 1.5-1.094 1.594-1 4.094-2 2 .5.5 1.5.5 1.5 1.125.5 1.5-.5 1.5-1.125 3.093 1 1.5 5.625.094 3.5 2.094 4.5 1 2 3.594 3.5 5.719 6.5 8.687-.625 2.594-1-.5-5-3.094v2.5l1 5.719 3.906 7.187 3.5 8.188 1.219 5.344h44.531l-.437-1.938-3-4.094-.407-2.093-1-3.094-1-4.625-3-4.594 2.594-13.281-5.5-.625h-3.5l-3-3.094-4-3.594-2-1-4.594-.593-10.593-.594-10.5-.625-4.594-2-2.406-2.594-4.5-7.187-2-5.72v-5.093l-2-1.5z" style="fill:#9faec0" transform="translate(0 100)"/><path stroke="#9FAEC0" stroke-width="10" d="m140.656 1269.531 1.25.875 2.5 3.594 2-1.5 2.5-1 4.594 1.094 2.5 3.094-.094 1.5 3.594-.375 1.906 3.093 1.5 5.094.406 7.188 1 4.125 1.907 3.593-.5 4.094-.594 2v3.094l-.625 4.094v2l4.906 9.812.5 4.594v2.094l-3.594.5-1 1.5 2 2.125 2.5 1h2l3-1 3 2.093 2 1.594h2.594l1-1 1 .5 2 2.094.906 4.094 4 6.718 2.5 2.594 6 3.594 1.407 5.219 3 5.093 2.406 6.188 1.875 13.812-1.094 5.688 1.5 3.594.406 2.5 1.313 15.406 2.875 15.906 1.906 4.594 4 9.312.906 1.5 4.407 14.907-.594 4.593 2.875 11.782.406 7.218 1 2 2 5.688 1.406 6.719-.094 9.687 3.782 16.406 2.406 8.688v3.094l.906 8.718 1.906 8.188L243 1571l1.312 17.406V1593l.906 7.188.907 7.718.28 13.782 1.907 10.218.5 5.188 1.406 7.094-1.093 5.718v1.5l.687 24.5 1.188 22-.5 1.594H249l-1.5.5v1l1 1 2 1.594-.094 3.5-1 2.094-1 1.5 1.5 1.5 1.406 2.625v4.093l.406 11.282-1.094 8.625-.125 5.187v2.5l5 4.188.907 1.5.5 4.125 1.906 8.187.906 8.188v4.625l-1.094 3.593v3.5L258.5 1788l1.5 3.594 1 2.094-.094 4.625.5 2 .5 1.593 4.5 1.5L272.5 1805l3 2.094 3.5 1.094 7.125 1.125 3.5-.5 5.5 5.687 1 2.594-1 .5-.625 1-7-5.188-7.5-2.093-2.594.375 3.5 8.812 1.407 8.188 1.906 7.125 1.5 5.687 3.281 13.813 1.5 4.093 1.5 2.094 1.5 1h.5v-1.5l.5-1.5 1.125-.5 3.5-.5 5 1.094 3.594 2.594 4.406 4.625 5 5.187 1.5 4.594 7.188 28.219 2.593 11.343h997.72l2.5-1.843 6 .593h2.093l20.281-11.093v-5.125l-2-7.188-.375-5.594 4 2.094-1 3.5 2 3.094.375 3.094 12.219-3.5 4.094-6.094.5-4.094 5.593-7.594 4.22-15.312-3-2.594 5.593-8.594-3.5.5 3.594-11.218.593-8.688-3.593 2.5-2.407-9.687 4.594-5.625 3.719-15.282-2.5-9.218 5.594-1 5.406 12.312-1.094 9.188-2.5 5.125.375 9.187 3.5 8.188 2.5 4.125-1.594 5.093 3.5 1.5 9.22-5 5.5-3.5-1 4.594.874 6.094-3.5 5.594.906 6.718 5.5 3.094 9.72-1 .874 3.094-5.5 2.5-9.094.406-1-4.594-2 .5-.094 3.094-3.093 11.188-.594 9.718.375 12.282 6.219-7.094 1.906 3.094-5.125 7.625-2.094 9.187-.594 1.656h32.532l1.468-2.468 6.188-14.782 6.125-11.718 4.687-12.688-2-.5-2.593 3.5-1.5-1.5 2.093-8.187-3-6.125 3.094-.5 1.906 2.5 2 4.125 1 .094 9.188-4.094 3.625-6.125 6-3.5 7.187-4.594-.5-1.5-4.593-.5-1.407-8.187 3-2 4.5 7.093 6.594-5 11.719-5 13.094-4.5 13.187-6.593-1.5-4.594-2.5.5 2.094-7.719-2.5-4.094 3.625-4v-7.687l5.594-5.625v9.219l-.094 1.593-3.5 6.594.375 4.094 3 12.312 1.906 10.188-4.094 2-4.5.5-2.594 4.625.5 4.094-8.093 2.5-5.125 5.5.5 3.593-2 1-3.094-1.5-8.594 9.594 4 5.219 2.5-1 2.5 2.5 3.594-3 .5 1-2.594 10.187 2 3.094-5.094.5-7.093 4.5-.5-2 1.5-3.094 5.593-2.5-1-4.093-4.5-1.594-6.593 2.5L1500 1888l-2 5.094-7.688 10.219 1.5 3.094 7 6.687v2.5l-.562.563h46.093l-.03-.157 4-1 .437 1.157h39.969l-5.5-7.063-1.5-4.594-5.407-20.5-.906-2.593-2.5-4.594-.5-2 4.5 1 2 2.594V1883l1.5.5 5.594-8.093 6.719-11.22 2.5-8.687 2.687-11.187 6.594-6.625 4.125-4-6.5-9.781-4-6.22-2-6.593 1.094-5.594 1-4.093.5-2.094 3.593-7.625 4.094-5.094-1.5-3.094-2.5-2.5-2-2.593h1l5 2.593 4.094-3.593 2.625-3.5-1-8.22.5-3.593-.906-5.594v-4.093l.5-3.094.593-2.5 2-1.5 1-4.125-.906-4.594.5-5.094.5-1.593v-2l.594-1.5 4.5-3.094 2.125-2.5 2-3.125.5-3 .094-3.594.5-2.594 2-2 6.187-9.187 1-1 .5-1 1-1v-4.625l1.594-1 2-1.5 2-2.594 2.125-1.5-.5-1.5-3-4.687-1.5-2-1.5-2.594-4.125-.5h-4l-24.187-3.813.593-5.093.5-3.594 1-3.125 2.594-5 2.125-6.688v-3.593l-2.5-7.094v-3.625l1.094-2.594 3-3 3.094-1.5.5-1v-1.594l-6.5-3.593-.5-.5-2.594.5-1 1.5.5 2.593v1h-.5l-1.5-1.593-.5-4.094-1-1 3.094-3.625 2-3v-1.5l-1-.594-1.5.5-.5-1-.5-.5 1-3.094-.5-2 .593-3.093v-2.5l-3-1.594h-2l-2.093 2.5-3.5 2.094-6.094.906-1.5 3.094-2.094 4.093-1.5 2-1.5 1-2.625 1.5-.5 3.594-2.594 2-2 1.594-2 3-4.593 5.125-4.094 7.594-1 2.093-4.094 3.5-2 .5-2-.5-2.625-1-2-.094-2 1-1 2.594-2.094 1-6.5 1-2.5-.594-1.593 1.094-.5 1-1.5 1.5-3.594 2h-2l-3.5-.5-3-1.594-2 .5h-1l-2.094 3.094-2 3-1.125 2-3.5 1-3 1-2.094 2.094-5 .406h-.5l-1.593 1.594-.5-1.094h-3.5l-2-.5 1-1 2.593-2.094 6.5-1.406 3.094-2.594 3.5-2.5 2.625-5.593.5-3.625 4.594-3 3.094-2 1-2.094 3-3 1.5-.5 2.593-1 2.5-1.594 2 .094 2.594.5h2.5l2-1 1-1.5 1.625-1.5 2-.5 2.5.5 2-.5 1.594-3.594.5-3.594-1-5.593-2-.5-.5-.5-1-4.125-2.5-1.094h-5l-3-1.594h-3.094l-.5-1 .594-2.594-4-4.093-2-2-1.594-.125-1 7.719-1 1-3.625-1.5-1-2.094-.875-2.625-.5-1 2-3 1.5-2.094.094-4.594.5-2v-2.094l-1.5-3.593-2-1-1 1-1 2.594.406 6.593-.5 2.594-.5 3.594-.125 3 .5 4.125-1.5 1.5h-.5l-.5-2v-3.125l-.5-3.594v-2l.125-3.594v-1h-2l-2.125 2.5 2 3.094-1 3.594 1.407 5.625 1 3.594.5 2 2-.5V1609l1.5 3.094.5 1.5-6.594-1-1.5-2.094.594-2v-8.687h-1.5v5.093h-1l-4.5-6.718-1-1.094 1-6.094.593-.5 1.5-1 1-.5v-2l-1.5-1.594 1.125-12.812-4.5-4.094-2.5 1.5-.5 1.5-1.625 3.594h-4l-3-2.594-1.5-5.094 2.125-10.218 1.594-8.688 1.5-3.094 1.094-6.093 4.094-7.719 3-3 3.593-2.5 4-1.5 1 3v1.594l2 3.125 5 6.687-3.593 9.594-.594 4.594 3.5 3.125 4.594 3.687 2.5 2 1.5 2.594-.094 4.594-1 4.125v3l3 2.594-.094 2.593 1 4.094 2.5 3.594 4 6.125 1.5 1.094 1.5 3.093 8.093 1.594 4 2.5 1.5 3.094 1 1.625 3.907 6.594 2 2.093 4.093 1.094 2-2.094 2.094-5.593 2-4.094 3.594-7.625 3.625-11.188 1.094-3.593-1-2.094-3-3.625-1-1 3.093-10.188.594-7.687 1-2.5 1.594-16.406-1.5-1-5.5-.594-1.5-2.5-.5-4.625v-1.094l-5-1.5-1-2.094-2-1.5-4-.094-1-.5v-2l4-.5 2.625-2 .5-9.812-1.906-7.594-1-9.812.593-5.594v-3.094l-1.5-3.594 1.094-3 .5-1.593v-1l-1-1-3 1-.5-2.125 6.594-2.5.5-2.5-2.5-.594-3-3-7.594-.094-1 1.5 4.5 2.094 1 3.593h-1.5l-1-1-2.594-1.093-5.5-.5 2.5-2.094.094-9.188-1.5-1.5-3.093 5.094-1.407-7.719-3.093 2.5-5.907-12.781-2.5-4.094-1-2.625 1.094-3.093 2-5.594 2.625-4.094 2.5-5.094 1 1.594-.5 3.594.5 2.5.5 3.594.875 3.093 3 4.625 1.5.5 1 .594 1 5.094 9.625 3.594 1 2.093.375 3.125-2.5-.625-1.5 1.625.5 2.5.5 3.594 1.5.5 2-2 2.5-1.5h5.125l2.5 3.594 2 4.094 1.375 3.093-.5 1.5-.5 2.125 1 1 2 2.094 3 1 1.5 2.094 4 2.094 2.125-2.094 1-4.094 3-.406.094-2.594-.5-3.094 4.594-6.125 3-3 2.593-.5 6.094-6.593V1448l1.5-3.094 2 .094 2.625-1.094 4.094-12.218v-4.094l-2.5-4.094-1.906-3.094-2.5-2.593-1-4.625 3.093-7.094-.5-2.094-2.5-2.594v-3l4.5 3.094 1.5 2-.5 3.094.5 1 1.5 3.594-.094 2.125.5 1 1.5 4.093 7.594.594 7.5 2.094 4.594 1.5 5.5 2.594 4.5.125 7.125-2 5.5 1.5 5.094-.407 4-1.5 4.093-1.5 1.5-1.593-.5-3.625-.5-2 2.094-4.594-.5-4.594-.406-7.187h-2l-2-2.125-2.5-3.594-1-2.5-.5-1.594v-2l1-2.594-1.5-3-4.5-.593-2.5-2.625-3.5-1-6-8.188v-1.594l1-1.5 3.125-.5 3.5-.5 3.5-2 6.687-9.218-1-4.594.5-3.094v-2l-6.5-6.187-2.5-1.5-1.5-1.125-1-1.5-2.5-1.094-2-3.594-1-5.094.094-4.093-1.5-4.625 1.5-3.094.594-2.5-1.5-4.594v-4.594l-.5-2.093-2.375-6.72-2-3.593.5-1.5 1.5-4.094.094-5.093-1.562-6.782h-44.532l2.188 9.469-.594 7.188v1.625l-.5 5.093-1.594 5.094 1 1 2.5 4.594 2.875 12.312-1.5 6.688-2.093 3.594 2 6.625 3-1v2.593l-1.5 1-3.094 1.5-2.5 2-3.094 3.594-.406-1.5-1.5-2.094-2.5-3.093-1-2.625 1-5.594-.906-11.781.593-4.125.5-7.094.625-4.594 2-2.594-1-1.5-18.125-1.718-7.187 7.625-.5 4.687-3.094 4 .5 2.594-1.5 3.594-2.5 1.5-4.594-.094-2.5 2.594-3.625 3-5.093 4.125-2.5 1.5-3.094 6.093-2.5 5.094-5.594 1.5-3.5 3.594-5.719 7.594-3 .5-3.5 2-.593 3.625-4.688 18.375-1 2.5-3.5 2.625-4.594 2.5-1 1-2.625 3.093-4 2-3.593 1.5-1.5 2-3.094 8.688-1.594 8.219-2 3.5-1.594 5.187-1 3.5-7.125 1.5-.5 5.094-3.593 3.094-.594 7.125-1.5.5-2.5 3.593.406 7.688-.5 5.594 1.406 3.625 1.5 3.093 1.5 2-1 5.094-1.625 4.094-.5 8.219-2.093 7.187-.094 4.594-2 4.5-3.594 4.094h-4l-4.094 3-3.5 1.5-4.125-.5-3.5 5.125.906 4.093-1.5 2-2-2.593-2.5-3.625-3 .5-2.5 2-4.093 1.5-4.594 2.625-6.594 5-4 2.593-6.125 2-3 3-2.094 2-1-1 .094-3.593v-3l1.5-3.125 3.125-5.594 2-2.594v-1l-3 .5-11.625 4.5-6.093 4.094-.5 1.5-2.094 5.594-8.594 8.125-1-1.5h-1.594l-6.5 1.5-10.218 7-5 1-8.594 1.5-2.594.5-.5 3-1.5 3.593 1.406 6.188-2 5.094-3.125 8.125-3.593 2.593-3 2.5-3.594 4.094-6.094 3v1l-1.5.5-1.5-1-5.594-.094-7 1-.625 2-5.593 12.781.5 1.5 1.406 3.125-5.5 1 1.5 3-.594 3.094-1.5 1.5-4.5.5-.594 2-3.5 6.094-3.625 3.593-3.093 3.5-10.188 13.813-3.594 3.5-3-.5-7.125 10.187-4.687 9.094 1 3.625-1.594 13.281-2.094 7.094-4.625 3.125-3.594 8.094-3.5 4.094-6.687 5.5-2 3.093-6.719 9.72v2l-2 4.593-3.094 2-2 2.5-5.093 6.094-.594 2.093v3.594l-1.5 3-5.094 5.625-6.219 11.188-2.093 8.093-1 2.594-2.594.5-.5 1L1171 1797.5l-2.5 2.5-1.094 1.593 1 2 1.5 2.094 2 6.125.907 7.188 1.5 1.5 15.187 2.187 2-1 .5-1 2.625-1.5 6 1.5 11.094 5.313h5l1-1v-1.594l1.594-2 6.593-3 1.5 2.094.407 2.5-1.5 1.5h-5.5l-.5.5-.094 3.093-1 3.5 2 3.594 5.5 3.125 8.593 1.094 6.594-3.5.5-3.594 6.219-13.219 3.594-5.593 15.187-5 5.594-3 1-3.594 3-2.5 8.125-1.5 12.687-4.5 29.407-15.594 2.5.594 2.093 1 2-4.594 1.094-3 3-1 5.594-1.5 6 .5 1.625-2.5 4.5-2v-3.625l2.094 1 4-.375 3.093-4.125 4.5-5.094 1.094-3 3.5 1 1-3.593 1.594 1.093 3-3.093 1 1.593-4.094 6.094 1 3.625 1.5 4.594-6.594 2.5-9.687 10.094-3.625 2.593-9.094 10.594-6.094 2.5-7.093 5.625-12.813 12.188-2 .406-3 .5-3.5-.5-5.594 2-5.093 4-7.094 1-5.625 1.5-9.594.906-5 .5h-1l-17.281 11.594L1249 1835.5l-2.594 4-3.094 4.593-7.593 3h-5.5l-4.594 1.5-4-2.093-3.625 1-6-.094-8.094.5-2.5-6.72-3 1.5-7.094-4.093-6.5-.594-4-1.093-4.093 1.5-.5 3.093-1.719 14.813-5.594 1.5-.5 4.094-1.5-.594v-3l-1-1.625-2 4.625h-3.094l-1-1.5.594-3.125-6.094-2.094-4-1.594-3.5-3.093-5.5-2.594-1-.5-1-1-.5-1-1.5-1.625v-1l.5-3.594 1-1 2.594-4.094-1-2.5-.5-3.093.094-3.094v-1l.5-1 2-.5 3-.5.125-1.5.5-.5 1.094-9.719 3.094-14.281 4.187-9.219 5.125-10.687 2.094-6.094 1-4.625 4.594-8.094 6.687-12.687 3.625-6.72 1.094-8.593 4.094-5.094 5.093-4.093 3.594-5.594 3.5-3 .625-3.625 2.5-3.5 2.594-2.094 1.5-1.5 4.094-5.094 10.687-10.593 3.625-6.594.5-1 1.5-3.625-.906-3.094 6.187-17.281-1-4.125 2.5-3.594 4.094-3 2.125-5.594 2.094-5.093-3-3.094.5-2 1-1.125 3-1 4.094-3 2.5-2.5 2.593-3.594 5.094-2.5 2.5-3.594-.5-3 2.125-1.593 3.594-6.594 1-3.5 2.094-6.219 3.5-3.5 4.593-6.094 7.22-11.687.5-1.625.593-2 4.094-10.688 4-.5h2.593l6.594-4.5 4.625-6.093 1-.5 3 1.5 7.094-4.5.5-5.094 2.094-.5 1-1 1.593-11.813 1-.5 1.5-1.5 3.594-1 3 2.094 4 3.094 6 .5 3.125-2.5.5-2.594 2-1-.5-1.5-.406-1-2-4.594v-2.093l2-2.5.094-3.094-2.594.5-2.5 2-4.593 2.5-2.5-.5-.5-1.5 4.593-2.625 3.5-3 .594-1 2-3.594 5.094-2.5 1.5-2 .5-3.594 1.594-7.187 1-1 1.625-1 2-2.5-.5-2.125-1-4.094-.407-6.594-.5-2.093 1-3.594 3.094-1.5 3-2.5 1.688-15.906 2.125-8.094h1.5l2.5 2 2.5.094.593-4.594-3.593-3.125.593-2.094 1-6.093 2 .5h2.094l5-.407 1.906 9.72 4.094 1.593 2-3.094-1-4.125-.406-3.094.5-3.5 1.5-3.593 1.094-9.188-.375-3.125-3-3.094-3.5-4.093-3-5.688-.5-6.625-1.407-7.687-.906-9.688 1.5-6.219 1.094-3.593-.5-3-2.5-3.094-1.5-3.594 4.594-1.5 1-3.625.125-4.594 1-7.687 2.593-1 3.5 1.594 2 3.093 2.407 10.813 1.5 4.094.375 3.5.5 6.187-1 3.125-3.094 2.5.5 5.594-.094 9.187 1.5 3.094 3 2.125 7.093-2 7.094-4.5 3.5-7.219 2.719-11.187.5-8.719h-2l-.406-3.594-3.5-9.28 2.593-4-.5-7.72L1411 1314l2-6.094 2.125-1.594 1.5-4 3.094-1v-3.125l-3-1.094v-5.593l-1-1 1-1.594 1.594-2 3 3.594 2.406 5.687.406 10.219-.5 3.594-2.5-1.094-1-2.5-1.5 1 .5 3.094.875 5.093 7.5 8.813 3 5.594-.5 3.093-1.094 4.594.5 2.5 1 2.625 4.5 3.594.5 3.094-1.093 5.593-.594 10.313-1.594 8.094-2 3.093.5 3.094-1.625 2-2 1v3.625l.5 2.594-.594 3-1.5 2.094-1.5 2.5.5 2.593-1.093 1.5-4.094 8.22-2.5 4.5-1.094 4.093 1 8.187-.125 3.094-3.094 7.625-.5 2.594.5 3.594-.5 3.093-2.093 3.5-3 1.5-4.094 2-1.5 2.594-1.094 5.625-1.5 6.094-1.625 6.687 1 3.094 4.5 3.125 7 5.594 4.5.094 3.625-1 1.5-2.594-.5-1.5-2-3.094-3-4.125 3.594-1.5 4.906 10.313 1.594-.5 4.5-1 6.094-.5 1.5-1.5 3.5-2 2.593-2.094-1-3-4-4.719-4.5-5.593 1.5-2.594 1.094-4.094v-3.594l-1.375-6.124 1-4.594 3.094-7.688 5.094-9.594 1.593-3.124 3-2.5h4l1.594-1.5 1-1v-1.594l.5-2.5v-1.094l-.5-1-.875-4.094 3-4.094 3.094-9.124 1.094-6.688 2.5-2.5-1.5-3.094 1.093-7.218v-4.094l2.094-2.5.5-2.094-1.5-2-1.5-3.094v-2.593l2.125-4 4.094-8.72 5 2.095 2.094.5 7-3 7.093-6.094 3.094-2.5 3.125-5.094h1.5l8.094-3.5 5.094-6.094 2.093-8.718-2-11.782-5.28-19.5 3-1.5 1.5 2.5 7.5 1.094 11.093 1.094 8.5 3.719 9.594-2 4.093-2.5 1.5-3.625 1.094-5.594 1.656-2.563zm1418.438 0 .406 2.563 1.625.5 1.5-2 .5-1v-.062zm218.844 0-1.626 5.157.5 2.5 1.5 2.625-.593 5.593v3.094l-2.594 3.094-1 2v2.594l.5 3.625-.5 4-.625 3.093-2.5 4.594-2.094 3.094-3 1-6.094 2.5-1 2.5-3.593 3.594-5 6.125L1741 1342.5l-10.187 10.188-2 3.125-1.094 4 1 4.687 1 5.094-.594 6.094-1.5 4.125-2.625 4.093.125 3 1.375 3.594 1 2.094 1.5 4.594 3 4.625.906 3.593 3.094 2.094.906 4.094-2.094 9.219 2.5 9.187 1.5 6.688 2.407 8.718-1 5.594-.594 3.594-.5 2.594-2 2v2l-.125 4.125-2 1.593-3.5 3.5-6.594 4.594-2.594.5-3 2-2.593 4.094v2l2.5 3.594-1 3.625-1.594 6.093-2 5.594-1.125 3.594h-1.5l-4.5 1-2.094 1.5-2 1.5-1.5 2.094-3.594 2-4.5.5-1.5 2 .907 2.125 4.094 2 4.5 4.687 4.5 7.188-.095 4.125.5 2 10.5 9.28 10.094 4.095 9.094 3.718 6 5.688 2.5 1.5 7 7.719 3.5 5.187 4 1.5 3.5 3.094v7.219l-.594 5.593-1.5 4.094.406 7.688-.5 2.5 1 6.218v1.5l-1.093 1-2.5 2.594-.5 1.5.875 8.188 2 6.625 3.5 9.78 1.5 2 .5 2.095 3 3.625 3 3.093 4 3.594 11.5 12.813-.5 3.593.5 1 .906 3.094 1 1 2.5 3.094 2 2.094h-1l-6.5-.594v-1l-1-3.594-1.5-5.594-1.5-4.093-2-2.625-5-5.594-3.5-3.094-6.5-6.187-.5-1.125-1.5-2-2 1.5h-.5l-1-1.5-1-4.594.5-3.094-1.406-6.687-3.094-1 .094-1.5.5-5.72-.5-4.093-.5-2.5-2.5-1.594-5-3.093-4-4.125-3.5-6.688-2-4.094-4-4.093-2-4.125-.5-1.5-.375-1.094-2.625.5h-1.5l-2 2.594-2.594 3.5-1.5 2.125-2 2-3.094 3-5.093 3.593-2.5 1.5-2.5.5-2.094.5-1 2.594 2 1 4.594 3.594.906 1.5.5 1.594 1.5 3.125 1.5 4.593 3 4.094.5 2 .5 2.094v1l.5 1.5-.125 3.594-.5 2.625.5.5 1 3.593v3.594l.5 3.5-.594 2.094-2 2-1.5 2v1.594l2.5 2 2 2.625.5 1-1.594 2.593-2 4.594 4.5 8.688 3.407 6.718 6.5 7.188 7.593 5.719 2.5 2 3.407 10.78-2 3-2 3.095-4.094 7.125 1.375 9.687-1 1.594-8.688 9.094 1 1.5 15.094 6.312 5.094 2.594.5 2.5-1.594 2.594 2.5 8.218.906 6.594-.5 5.094.5 2.594 8 6.218 4 7.688 3 3.594 1.907 11.218-.5 5.594-.594 8.688 1 10.812-.125 13.813-.094 10.187-3.594 2-10.094 3-23.812 7.5-1.5 3.094-2.594 5.094-3.5 1-3-3.594-1-1.094-8.687 7.094-2.5 1.5-10.625 3.094-4.594.406h-5l-3.594 10.719-4.093 1.5-3 1-1.407 5.843h4085.719l-4.406-100.25-7.313-172.218-5.594-130.188-10.187-243.969zm-167.313 179.563-2.625.5-7.594 7.594-2 3.625-.594 4.593.5 3 .5 2.594-1.093 4.094-.5 10.719.406 5.187v2.5l2.5 3.594.5 2.094 2 2.5v1.625l-6.125-1.625.5 3.625v2l-3.094 3.593-.5-1.593.094-8.72-1-1h-2.5l-2.594 2-2.5 4.595-4.593 4.125-2.5 1.5 1 4.093 2.406 7.688 1.5 3.594 2.5 3.125 2 1 3-.5 1.594-1 .5 1-.594 1.593-4.5 2.5-1.594 2v6.688l1 5.094-.625 3.625-1.5 3v2.593l2.5 2.594.406 4-2 6.688.407 3.625-.5 3 1 5.687.5 2 1.5 3.094 2 2.594 3 1 3-2 1.593-2.594 1.5-4 3.094-2.594 3.5-2 1.5 1 .5 4.594 6 3.219 2.5 3.593 1 3 6.406 13.407.5 3.593 5.094 1 5-.5 5.625-.406 3-.5 2.5-3.594 2.594-2 5.594-2 3.5-.5 1.5-1.5-3-2.593-7-1.625-5.094-2.594-4-3.094-10.594-3.594 4.094-1h3l1.5-1 8.094 2.094 1.5-1-2.407-7.187 1-3.125 1-3.5-2-5.188-.406-3.594-1.5-1h-2.094l-.5 1-5.5 2.5-4.093-2-4.5-1.593-3.5-.5-2-3.125-.5-1.094-2.5-1-2-1.5-.5-2.094h1l2.5 1.094 4 1 1.5 2.594.5 2 5.093-2h4l3.594-2 5-2.5 6.5 7.218h1l1.125-.5-1.5-3.593-1-2.5v-3.125l3.594-5.094-1.5-1-5.594-4.188-4-5.093-5.906-7.72-1-1.593-3.594-1 5.594-3 3.094-2.594 5.5-2.5 1.093-2-2-2.093-3.593-2.625-.907-3.094v-3.5l-.406-9.281 1-2 2-4.125-.375-6.094 1.5-7.188-1.406-7.093-2.5-2.625-4.594-.094-6-1.5-1.5.5-.125 6.093v1l-2.5 2.125-3.594 1.5-3.5 2.5-1.5-1.5-2.093 3-2.5 1-1-2 5.593-5.625h4.594v-2.5h4l-1-3.593-7.5-5.188-.5-.5-1-3.594-.875-4.625zm30.688 194.094-4 1.5v1.5l2.406 5.718 1.5 4.594 1 2 1 1.094 6.094 2.094 4-1-1-3.094.593-4.094 1.5-2.5 1.5-2.094.5-.5-1.5-1-7.5-3.718-3-.5zm17.406 38.5-1 3.5.406 2.125v2.5l-3.125 17.375-.094 5.125-3 4.593-8.094 3-4.187 10.688-3 1.5-.5 2.594-4.125 3.5-.5 5.718-3.094 3.5V1750l-.594 6.094v9.219l1.407 8.687-3.594 11.688 1.5 4.125-5.625 5.593-.594 4.594-5.594 6.594.5 4.094 4 8.218 5 9.188-1.593 5.719-1 4-2.594 3.093-3 3-1.125 5.594-1.594 8.188v6.718l2.5 5.594.406 1.5 6 7.688 4.594.125 5.5 4.093 8.594-2v-2.5l-.375-8.218.594-11.282 1-2.5 3.093-6.593v-4.625l1.688-13.782 1.5-6.093 3.125-2.625 5.5-3 6.594 1.125 7.093 2.593 1.5-.5 3-4.093 1.094-2.5-1.5-3.125-1-1.594-4.094-.5-3 2-2.593 3.094-2.5-3.594.094-2.594 2.5-4 16.687-5 .5.5 1 2.5.5 3.594.906 8.219 2.594 1.593-.094 4.594-5 1.5-2.594 1.5-3.593 5.594-5.094 6.094-2.5-.094-3.5-3.594-3 1.594v2.5l-2.625 6.093-3.094 5.125-.5 4.594-2.594 3.594 1 4.594 2 4.593 5.5 3.125 8.094.594 1.5-3.094v-2.5l2.094-3.625 2-4.593 7.219-10.188h1l2.593-3.5 7.594-3 4.5-3.594 9.094-4 3.625-3 6.094-.5 4.5-3.625 2.093-.5 5.5-.375 2.094-3.625-9.094-8.187-4.5-3.094-13.093-1.094-10.594-2.218-7.5-4.094-1-1-1.5-12.313.094-1.5 3-2.093 3.5.094 2.594-1.094v-2l-1.5-1-1.5-2.594-1-1-6-11.312 2.093-6.094.5-4.094-2-4.094-1.5-4.093 1.094-2.125 1-2.5 4.625-7.094v-1.094l-3-3-4-5.187-.5-3.125-3-3.594-6.5-6.094-1-2.094-.5-6.593 1.094-3.125 2-4.594 1.594-3.594-1-2-1-3.094-2.5-1.5-5.094-3.593-3.5-.625zM1603 1893.906l-6 1.5 9.906 18 .781 2.75h24.032l-.5-.562-4.5-7.188h-2.094l1 4.094-1.5.5-13-12.406-5.125-4.094zm-233.375 12-14.312 9.094-2.094 1.156h11.75l1.031-2.562 6.125-4.594zm121.594 9.188-3.5.406-.094.656h3.719z" style="fill:#9faec0" transform="translate(0 75)"/><path stroke="#9FAEC0" stroke-width="10" d="m328.406 1916.156 1.813 8.032 2.406 10.312 1.875 9.188-.094 5.125 2 5.687 1.906 9.188L341.22 1975l.406 4.594 1 6.594-.625 5.625 2.906 12.78L347.22 2021l.406 10.188 1.375 8.218 2.5 4.594.5 3.094-.594 3.594 3.406 10.218-.5 1.5-1 4.594.313 10.813v7.093l1.875 9.688.406 3.594.5 3.125-1 2.5 1.406 6.187.5 3.594-1.593 1 1 7.094-.094 7.718.28 19.407 1.095 29.593-1.688 15.782-1 6.125 1.406 5.687-.5 2-1.593 2.5v7.188l-.813 24-5.906 24.406-.594 10.719 1 4.093 3-.5L361.5 2278l1.5-2.5-.5-2.594-5.5-4.093-1-4.125.625-3.094 3.593-3 6 .594 5.094 1.5 9.094-1.375 3.094-4v-4.625l-2.875-10.782-2.407-9.218-.906-11.688 1.094-8.187 1.094-7.125v-3.094l-.875-3.094-5.5-6.187v-6.125l-2.907-8.188 1.094-5.094 3.094-7.093 10.219-7.5 18.687-3.407 16.688 1.688 12.125 1.594 2.5.625 2.593.5h1.5l1.5 1.593 4.5 4.094.5.5 4 2.094 1.5-2 6 5.219 5.594 1.593 2 1 7.406 15.407.5 2-1.593 4.593.5 2.094 4.593.5 1.907 2.594.5 3.594-4.125 4.5-4.594 3.625-2 3 3 3.093 1 2 5 5.688 9.5 3.219 8.094 1.093 14.218-.906 15.594.688 14.688 1.718 10.625 2.094.5 1.5-1.625 2.094-2 .5-4-2.094-16.188 2.406-4.594 2.5 1.5 2.5 13.188-1.406 8.094.094 7.5-.406 2.125-2 3 1.5 3 .125 2 2.5 3.093.594 2.5 2 9.094-.907 2 .594 3.5-1 6.094 3.094h4l3.594.125 2.5 4.094 2.5-1.5L603 2254l2 .5h4l1.625-3 3.5.5 2.093-.406 3.5-2.594 2.594-2 4.094-3h2.5l.5.5v1.094l-5.094 3-3.594 6.594-2.593 3.5-17.22 3.906-11.187 2-11.218 9-11.688 2.5L542.5 2283l-7.094 1.407h-2l-2.094.5-3 2-13.187 5.5-4.125 1-6.094-1.094-2.5 1-7-2.125-3.594-.094-3.5 1.5-4.094 5.094-2.593 5.625-1.625 5.593-.594 4.5 4.594.094 4.5 1.094 1.5 3-1.094 5.594-1.906-6.594-4.094-.094-5.5.5-2.5-2.094-3-4.093h-1.5l-5.094 3-4.094-.5-7.093 2.375-6.125 3-5.094 6.125-5.188 9.593-1.093 8.688-1.625 5.094-3 2.5-5.594 1-1.094 4 9.594 1.218 5.594-3 6.718-5.093 4.594-4 5.5.593 8.094 3.594-.5 1-12.688-1.094-2 1-5.718 8.594 6.5 5.688 6.625 3.125L461.5 2375l3.625 1.594.875 3.594-1.5.406-.5 3.594-3.594-1-1.5 1.5-.594 8.125h-2.5l-.906-7.72-1-4.593-3.5-3.594-2.5-5.593-5-3.125-1-.5 1.094-5.094-9.094.406-.094 5.094-5.094 4-2.594 1-1.5 2.5-4.125 3.594v-2.594l-2-1.5 1.625-5.094 1.594-2h1l1.5 1.5 4-.5.094-3.5 1.5-1-.5-2.594-4.5.5-1.5-2.593-2.594.5-.5-1 1.094-3.625-2.5-3.094-6.594 3h-1l-1-4.594-2.5 2-1.5-1-2.5-8.687-3.906-9.813 5.594-1.406 2.094-9.188 2.125-4.593-2-6.125-2-2.594-6-1.594-4.625-1.094-.875-5.593 2.5-.5v-2l-6.5-.625-4.72 8.125-1.5 1.5-4.5-2.625-3.593-.5-3 1v2l2 2.125 5.813 17.875 4.875 20 2.406 11.718 6.219 31.688 1.687 24.5 1.406 15.406 1.282 20.406-1.188 10.188.406 16.312-.094 3.094-1.5 5-2.125 5.594 1.407 6.219.5 5.593 6 2.594 6.093 3.094 4.5 2.594 6 .625h1.625l5.5 3.093 3.5 1.594 4.5 2.594 2.594 1.594 3-.5.594-5.094-.5-3.594-1.5-2.094-4.094 2-.5-2 5.094-2.5 3.094 2.094h6.5l3 2.594 2.093.594 1.907 4.125 2 1.5 3.593 2.593 4 4.094 4 3.094 3.5 1.094 1.5 2 5.125.625 3 2.593 3.5 2.094 6.094.5 3-1v-3l-8-2.094-7.594-4.718-3-3.094 1.094-2 10 3.594 2.594-.375-5.5-6.22-4.594-2.593-.906-2.594 9.094-.906.094-12.812 3.125-1.5 4 2.625 3 3.093 3 1.094 4.5 4.094 5.093 3.594 3.5 1.125 11.094 1.093 6.594-1.906 3.094.5 2-1-3-9.687 2.125-5.625 5.187-6.094 1-.5 9.594-1.906 1 4.125 2.5-1-.5 3-1.594 4.093v2l5.094-1.406 2 4.094 2.906 5.594 5.594 3.625 3.5.593 2.5.5 2 3.094 5.594 1.094 1.5 1 2 5.094 2 1.625 6-.5.5 2.093-6.094 2.407-.5.593 1.5 2L593 2532l-.594 5.594.5 2 7.594-1.5 1.5 2.594-4.594 2 3 8.719 3 2.593 3 3.594 3.5 3.094.5 1.5-1.313.625h5180.75l-8.218-183.906-12.22-271.5-1.093-27-6.406-144.594-.875-19.656H1675.312l-.187.75 7.593 2.593 4 2.094 2.5-.5 6.094.594 5 5.125 4 6.187 5.5 5.594 5 3.094-.5 3.125-13.094-10.813-3.5 5 6 3.188 4.5 4.125 1 3.594 3 2 1.5 1.593v2.5h-2.5l-5.5-4.593-1.5-3.094-5.093-4.625-6-.094-1.625 3.094 8.625 5.625-2.125 2.593-5.5-5.718-3 1 5 8.218-2.5.5-5.5-7.718-3.094 1.5 7 7.218-2 2.094-6-7.187-1.5 1 4.906 19.375-2.594 1-3.406-14.282-2.5-6.593-1.5-2.625-3-3.094-3.5-3.094-6.5-4.094-7.594-1.593-6.5-5.22-11.5-13.28-5.5-6.157h-24.03l2.718 9.532-.094 8.625-4.594 8.687-5.594 10.688-6.719 10.718-2.593 5-2 5.688-6.188 8.594-2.625 18.406-4.594 3-5.093 8.094-2.594 7.218-2.094 10.688-.125 6.094-9.594 12.718-12.187 7.594-2.094 7.594-4.219 13.312-9.687 13.188-7.594 2.5-4 1-3.125 3-14.28 17.219-3.095 7.687-2.5 6.094-5.219 6.094-8.093 4.5-1-1-4-4.594-4.094 3.5-3-1-3.5 1-1.5-3.094h-3.594l.5 4.594-1.5-.094-2.5-2 .375 11.687-4.094 5.625h-3l3.72-24.5-9.626-4.125-8.5-6.187v-3.594l-.5-.5-2.5-3.094-3-2.125-10.094-1.593v-2.5l-7.5-4.188-.406-15.812-3-4.594-1.875-8.688-5.625 2.5-1-1.625 3.125-6.093-3.5-7.188-4.625 2.094-.5-2.594-.375-6.094-3-8.718-4 1-2.125 6.593-3.187 17.813-2.188 26.094.875 12.218 3.406 10.782-.5 5.093.407 10.22-4.594 1.5-1.406-6.72 1-4.593-.407-4.594-2-7.094-6.5-12.312-2.5-5.688-5.093 7.094-3-2.5 5.687-9.188-5-6.125 2-1.593 5 4.718 3-1-1.375-10.312 4.094-.906-1.406-15.907-4.594.5-1.5-3.093-2.5.5v1.5l-6.594 1.5v2.593l3.5 2 1 2.625-5.625 3-2.375-6.625-8.219 4.5-1 1-4.593 8.125-4.594 1.5-1 3.094-2-.5-1-4.094-4.594 2-.5 3-5.125.5.5 8.688 9.906 15.906.5 9.188-2.687 12.718-3.094 7.688-2 7.594-3.719 9.718 1.5 5.094 1 .5 3.094-1 1.5-3 2 2.594-3.594 4.5 1 5.594 3.907 13.906-2.594 4-2-.5-2.5-5.594-.406-7.219-3 1-.594 2.625.5 7.594-2.594 4.594-.5-1-2-5.188-1.406-8.625-6-11.78-2.906-9.813-8.094-5.094 3.594-8.188 3.593-7.625L1299 2125l4.5-3 3.125-7.594-2.312-25.094 2.187-12.718-1.5-1.094-3.594 7.187-8.78 13.72-2 6.593 5.374 10.312.5 3-10.687 14.188-2-1-16.313 11.594-4.094 3-21.28 13.593-.626 7.22 1.5 4.093 10 5.187 3.906 19.407-2 1-1.593 7.093-3-.5 1.593-10.687-.406-7.688-4.594-4.125-5-4.593-8-9.782 1.094-9.218 5.625-7.094 5.594-2 1-2.5 7.594-1 3.093-9.594 3.094-4.094v-2l-5-3.718v-1.5l6.625-.407 3 2.5 13.688-3.875 1.5-2.625-2-2.593-4-2 .5-2.094 1.093-5.594 1.594-8.594 4.625-9.218 4.594-3 7.094-8.094 1.187-11.813 2-.5 1.906 8.72 1.5 1.093 9.813-14.813V2050l.094-4-9.094-3.188-2-2.5-3-7.218-4 1 1.5 3 1.407 6.218-3.625 5.594-2.5 4-9.188 8.094-3.594 3.594v5.593l-2.093 4.125-6.625 2.5-4.094 8.594-3-1 2.594-6.094-.5-3.125-6.094-1.093-8.594 3.5-3.594 4.093 2 4.125 4.094.5 1 1.594-5.094 6.094-9.812 15.687-10.594 6-10.687 3.5-2.5-.5 1.5-4.093-1.5-1L1200 2116.5l-3.094 4.094-5.594 4.593-4.094 7.625-1-8.218-3.5 4.093-.5-2.093 2.094-9.688 5.094-1.5 6.594-6.5 10.718-8.094 9.594 2.594 16.188-3.906.125-11.313 1.5-2 1.093-15.78-1.5-1.095-1.5 2.094-1.5-.594v-2.5l-6.593 1-7-.625-7.625 3-1.594 3-8.094 7.125-12.312 10.594-3-2-.875-5.719 5.5-1.375 7.687-6.125 8.094-8.093 14.219-5 2.5.5 2.093 1.093 8.094-2.5 2 2 6 3.22h2.5l3.594-5.595 6.719-10.218 13.687-3.907 7 3.125 8.594-4.5 3.094-5.125 1.625-9.687 4.593-3.594 2.094-3 3-3.594-.5-3.5-2.5-4.125-3.5 2-3-.593-7.094-2.594h-5l-10.218 2.5-1 3.5-4-2.094-5.594 2-1.5-3-5-3.594-2.5-1.625-7.094 1-9.594-2.187h-5.593l-8.625.906-8.094 2-2.5-1.5-3.5-3.094-4-3.125-2-1.593-6.094 2.5-8.594.5-.406-6.188 4-1.5 5.094-.406 6.094-5.594 12.218-11.094L1219 1964.5l2 1 2.625-2-.5-5.094 2.593-2.5 12.594-5 5.594 2.094-10.688 10.594-5.593 3-10.72 9.093 2 4.625 7 4.188 3.5 7.187-6.593-.094-4-5.687-20.312 14.687.5 2 4.5.594 3 3.625 11.125-2 8.093-.406 12.594 2.687 10.188-3.5 6 4.094-.594 4.625 4.094 2.094 6.125-1.5 17.187-5 6 1.094 1 3.593 4.594-3.593 3 .094 4.594 1.5 1-3-1.5-7.188-3.5-1.5.625-4.594v-5.218l4.593-.907 1-6.187-.906-9.188v-2h-2l-.5-6.218 2.594.593 5 .5 2.219-16.78-2.5-3.095 2.593-15.812 4.188-10.188 3 .5.5 2.594 9.219-6.75zm1024.813 0-8 4.438-3.094 2.5-.5 2.5 3 4.719-.5.5-3-1.125-3.625 1-1-1 3.125-6.094-11.125 2.5-6.094-1.094-4.094 4.5-1.5 3.094-1.093 9.719.406 13.28-1.125 5.595v3.125l-.5 1.5-3.594 1-1.5 7.593.906 6.188 4 9.219 4.5 2.593 6.5 7.688 3 5.719 7 8.687 2.907 14.313 1.906 11.78 3.5 7.72 1 5.093L1342 2061l2.5-1 3.625-5.094 8.094-3.5 5.594-8.093 7.312-18.313 3.594-10.187-1-8.22-8.406-15.405-2-3.594 1.093-6.094-6.094-4.094-4.906-9.312 1-8.594 3.719-19.906-3.5-3.094-.406-4.094 5.094-6.593 5.593-4.625 2.063-5.032zm59.594 0-1.907 5.438-7.187 6.594-3.594 5.625-2.5 1-3.125 8.093-4.594 2-4.594 14.782-3.687 10.718 3 9.688 1.5 3.594 8 7.812 10.594 6.188v2l-7.094 1 .375 6.625 2 5.187 14.906 25.594 9.219-5 1 2-5.125 5.094-1.094 3 3 6.718 2 5.594 3 3.594 4.594-2.5 5.625-3.5 1-3.594 3.594-5.594-1.5-2 2.593-10.218 4.094-5.594 1.5-4.094-2.5-1-4.094 6.594-2.5-7.188.594-7.093-4-2.125 4.594-9.188 1.125-9.094 2-.5 2.5 6.094-2.125 7.094v5.719l1 .5 8.125-4 7.094-6.625 2.093-4.094-1-6.094-.906-8.187 2.5-3.625.094-5.594 1.5-3.594-1.5-2.5-5.094 4.5-6.5-4.594 2.72-17.906-3.626-.5-1 5.594-4.594 1-5.5 2.5-.5-4.094 4.594-6.094 1.5-4.593-1-3-4 .875-7.594 5.125-2-3.125-.5-1.5 7.594-5.594 4.125-5.094.094-8.687 3.625-6.157zm74.812 0-.406 3.438-1.719 11.812 2 3.594 4.125 1.5.5-3 2.094-4.594 3.5-4.093 7.594 2.593 10.5 5.688 1 3.594-1 3.625-5.594-.625-5-5.594v9.219l2.406 3.593 5.594 6.094 7.906 11.813 9 12.875 6 7.718 2.5 3.594v8.188l4.5 2 2 4.125 9.094 3.687 2-6.594 3.094-1 2.5-4.593 2.593-8.22L1564 1983l-4.594-.5-1.5-3.594-3 3.594-1-.594-.5-6.093-2-5.625-9.5-10.282-4.5-.593-.5-2.5-.5-6.72-4-.5-4.094 3.5-5-1.5-4-6.187 1-3.593 2.594-5 5 1 7.094 1.593 3.5 4.594 7 3.094 10.219-1.906 2.5-2-2-5.688-2.5-7.187-3.5-4.125-5.406-8.188-.47-1.844h-46.093l-3.031 3.032-2 6.125-2.094.5-.406-2.125 1-4.5-.375-3.032zm61.125 0 1.063 2.938 6 7.719 7.5 7.687 1 3.094-1.5 4.094.406 4.625-6.094 6 1 1.093 2.5 5.594 4.5 5.094 5.094.594 5.5-3.5 4.094-3.094 3.593-6.594 1-1 9.719-9.594 2.594-6.718-1-8.688-2.5-3.594-4.5-5.75zm-168.344 23.032-5.594 6.625.407 4.593-2 3.594 5.5 4.094 2.094-3.5 3.093-9.688 3-2-.5-1.093-3-1.5zm97.094 48.312-.5 3.094-1.594 4.594-4.5 3-3.594 7.125-4.593 5.593-5.594 3 .5 2.094 3.5 3.594 5 2.594 3.5.5 3.594 2.625 6-2 5.5 6.687 4.094 1 4 .5 4.093 1.094 7.594-2h4.5l2-1 1.125-1.5 7-.406 2.594-4.094 1.5-5.594-2.906-6.687-3.5-4.625-6.594-.594-2.5 2.594-3.094-.594-1.5-3.5.594-3.594-.5-3.094-5-1v-4.093l-1.5-2.625-2.5-2.594h-3.594l-1.5 1-2 1.5L1480 1988zm-170.281 1.188-3.094 5.125v1l3 8.187 2.5 1.094 2 2.5v4.594l-2.625 9.218.5 2.094.5.5 7.125-3 .875 2.5-5 2.5-1.594 2.594 1.5 2 2.594.594-.094 1.5-1 6.125 1.5 1.093 2-4.093 1 .5.5 3.093 4 3.094-1 3.5 7.5 8.813 2 .5 1.594-2v-5.625l-2.5-1.594-2-6.688-4-3.593 3.625-7.125-1.5-2.5-3-.094-1-1.5-.5-3.094-1.906-7.688v-5.625l-2-3.093-3.5-5.094-3-7.188zM1473.125 2036l-1.5 1-3.125 4.094-6.594 4-5.094 8.719-1.593 8.093 5 4.094-.5 3.094-3.594-2.094-4.5.5-4.625 2-1.5 3.594.5 4.594 3 2 5 .125-.5 3.5 2 3.593 11 15.407 6-.407 1.5 4.594 3.625-1 2.5-2.5.594-5.094-2.5-5.718-2.594 1-.5 1.5-1.5 1.125-3.5-6.72-1.406-7.187 2-1 4 8.688 5.5-1.5-.406-2.5-3.094-2.094-.906-3.594h1l4.5 4.188h4.5l3.5 3.594 5.093-.5-1.406-9.688-4.594-4.094 1.594-4.093 5.625-1 1.594-11.72 1-3.593-4.5-7.687-4-2-6-3.125-6.094-2.594zm55.375 23.906-3.594 6.594-.594 6.688-.5 2-1.5 3.625-.593 2.5 1.5 2.093 5.094-6.093 3.593-8.22-.906-8.687zM582.719 2541l-15.219 7-16.281 9-2.5 1-6.094 4.813h62.406l-.218-1.125-5.5-8.782-8-9.218z" style="fill:#9faec0" transform="translate(0 50)"/><path stroke="#9FAEC0" stroke-width="10" d="m542.625 2562.813-1.625 1.28-11.187 2.407-3.094 4-3 3.594 2.5 4.094-1.313 20.906-4 1.5-1.593 1.5-4 1 .406 3-5.5 1 1.906 4.594 2 4.125 1.5 1 3.594-2.5 1.5 3.093 4 1.594 2 3.094-3.5.406-3.594-2.094-4.5 3.094 6.375 8.688 6.625 3.625 4 1.593 1.5 4.094-.125 5.594 1 4.594 3.5 2.125 8.125-2-.5 3.593-1 3-2.625 1.5-4.5-3.093-3.594 5.093-1.5-1.593v-5l-3.5-4.22-.406-3.5 3-4.093-.375-3.594-10.625-1.593-7.594-4.72-8-7.187-4-5.593-1.5-5.125-4.5-5.188v3.594l1.907 10.719-1.594 9.187 2.906 14.313 3 3.593 6.5 3.094 4 5.594 5 5.719 3 10.187 1.875 6.688-1.094 5.125 1.5 1.5 2.594 1.593.406 3.5 5 5.188 1.5 7.094 5 .625 3.5 4.093.5 3.094v2l-1.593 3.594 2.093 1-.593 1.5-1.5 1.5-2.188 13.312 2.5 8.688 4.5 2.094-5.125 3.5-5.594 2 3.5 3-1 2.125-5-3.625-3-3.594-2-1.094-2.5-3.094-1.093 2.094-5.094 1.406 1 6.188-.594 3.5-4.125 4.094.5 3-8.594 5-5.593 3-.594 2.625 1.5 6.093-1.094 4.094 1 3 2 2.594 1 6.094 4 .125 6.5 6.187 5.094 2 6.906 12.406-1 4.5-1.125 4.594 4 6.188 2 2 5.625.125 5 1.593 6.094 2.094 4.5 4.094 3.5 1 .5 3.594 5.093 2.125 3.5-1.5 2.5 1.593 5.5 10.188 3.407 10.719.5 5.093-1.094 9.188-1-2.094-5.406-18.406-5-8.688-6-3.593-7.094-4.125-4-2.594-2-3.094-3.5-1.594-25.312-4.312-4-2.594v-2l-1-2.094 2.593-7.093.594-8.125-2.5-4.594-4-2.594-2.5-.094-1.687 11.688 2 1.593 2.5 9.72-2.594 2.5 4 4.593 2.906 9.812-6.625 4-2 1.5-3.094 3.5-1.093 3.594-.5 4.5-3.094.5-3-1-2.594 5.5-1.625 10.688.906 7.718-2.5 3.5 1.907 11.782-3.594-2.094-2 2-2.5-7.688-6-3.625-8.094.407-5.625.5-4.094 4-2 1h-1.593l-2-3.094h-1.5l-3 2-6.5-7.688v-3.625l-.688-31.093.594-11.688-.407-8.594-1.312-13.812-3-11.188 1.219-10.718.5-4.094.593-4.594v-1l-1.5-2.094-1-5.625-2.187-24 3.594-10.093 3.593-4.594-.906-12.188.719-19.406.688-11.219 1.093-9.093 1.594-8.688.125-8.719-1.406-13.187-5-9.313-3.907-5.593-1-3.094-2-7.094-4.406-11.312-.906-13.782 3.125-8.125 1 1.5L429.5 2619l9.219-6.5h2l-1.907-5.594-11.593-6.312-6.594 1-7.219 7-1.5 6.093-.687 8.72.781 22.405.906 14.282-.281 27 1 49.5v43.312l-.719 23L411.22 2813l-.094 14.312.875 4.594-.5 6.594.406 6.094L410.22 2865l-.72 13.187-1.093 7.22-1.094 13.687-1.093 5.593 1 4.625.406 2.5L406 2918.5l-1.094 7.094v6.593l-.094 12.22-2.187 11.187-2.125 8.093-1.094 4.625v2.594l-.5 2.5-7.188 3-3 3-1.594 2v2.094l2.5 1 2.5 1.594 1 1.5-10.218 11.593-4.094 6.125-1.594 4 2.406 7.688 1.5 1.5 12.782-9 7.219-5h.5l4.5 4.094h3l1.5 1.593 4 5.625 1 1.094 4.093-4.594-.406-3.5-2.5-3.125-.5-1.093.5-1-1-1-2.594.5-2.406-3.594-2.594-.5-.906-10.188 3.094-3.125-2-3.5 5.594-2 2.625-5.093 8.593-.907 5.688-6.593 2-2 3.094-1 3.5 2.593 7.125 1.125 4.5 1.094 7.593 4.094 7 6.187 5 4.125-.594 9.688 6 6.187 2.5 6.125 4 5.688 1.5 4.594 8 7.218 4 5.094 3.5 4.094 3.5 4.594 4 4.093 5.594 4.22 4.5 2.093 6.594 2.594 6.594 1.593 7 .5 5.094-.375 3.625-5.125 4.593-.875 7.688-6.625.5-3.5 6.094-3.5 4.125-1 1-2.093-1-4 1.093-1.5 2-1 6.094 1 3-.407 2.594.5 2.5-.5 3.594-6.593 2.125-4 5.593-5.094 5.094.594 8.094 3.093 4 4.625 5 5.188 3 1.5 3.594-.906 4.625-1.5 1-2V3016l3.093-1 1.5-3.5.594-4.094 3.594-5.594 1.5.094 2 1 1 1.5 2.5.094 2 2 3.594-.5 4 .094.718-11.187 3-2 4.594-1.5 1.5-2 1.094-4.094-1.5-1 1-1.5 2-1 4.094 1.5 1.5 4.594 1 1.094 4.5-1 2.625.5h2.5l3.093-3 2.5-2.5 1.594-.5.406 2-5.093 7.093-1.5 2 1 3.094 3.5 3.625 1.5 3.594L694.5 3008l-1 6.093-.594 2-1 5.594.906 4.125 1.5 1.5 2 3.094 2.094 1.5 3 1.594 4.5.094h7.594l8.625 1.593 8.593 2.72 4.094 2.5 4-.407 5.094 2.094 6.094-1 7.125 1.093 5 1.125 4.093-1.5h7.094l2-.5 4.594 2.094.5-3 1-1h2l3.594-.5 1.5-2 3.125 1.5 5-.906 9.687-1 2-2.5 1 1 4.594 2.594 6.094-1.907 5.125-3.093 7.093-1.907h5.594l4-.375 7.094 1.5 5.594 2.594 5 3.094 3.5.094 2 3.094 1 2.5.5 1 2 3.125 2.5 3.593 3.5 4.594 1 2.094 2.5 2h1.125l4.5 5.719 3 4.093v2.5L886 3074.5l-.5 1 1 4.594 3 6.094 2.5 3.625 1.5 4.093 5.5 6.688 3.5 2 2.5 1.094 7.125 5.125 2 3.593 2 4.594 12.093 7.688 5.5 4.718 5 4.594 2.5 4.094 3.5 5.094 4 4.125 2.594 2.093 3 3.594 2.5 5.094 5 3.594 3 1 19.688 7.906 7.625 2.094 8.093-1 9.188-3.5 7.719-4.5 9.687-8 1.5-2.094 3.594-2 6.593-1.906 7.125-1.5 2-1 9.688-5 9.188-4 9.124-3.5 5.094-3 8.688-2 5.5.625 9.594 3.593 10.218-.906 1.5.5 8.094 4.188 4.5 4.125 5.5 4.593 7.094 3.594 5.594 2.094 5.5 2.094h5.625l4.093.125 9.5 5.687 5.094 3.594 2.5 4.594 4.406 12.218 2 4.094 3.094 3.094 5 2.094 5.094.5 3.5 1.125 4.094 1 4.5 4.093 3 3.094 3 3.594 4.125 2.594 4.625 3.78h4657.156l.219-1.968.187-.812 2.688-8.5 3-8.375 1.906-3.125.5-.875 2.406-3.813.406-.5 1.594-3.906 1.188-2.688.124-.5.095-5.593-.313-2.625-.094-.875 1.313-5.313.5-1.187.78-2 3-5.313.595-1.094 1.5-2.312.093-.781.188-4-.312-3.313-2.188-1.812-2.5-1.5-2.312-.594-4.782-3.688-.406-.593-3-3.72-3.5-7-3.187-3-4.907-4.593-5.406-5.187-1.187-2.5-.5-2.5-.095-1.125.907-9.094.5-4.688 1.312-3.906.407-3.187.28-7.407v-.718l-1-7.282-.093-.812-2.5-10.094-1.094-3-2.719-5.5-.687-1.312-2.313-3.5-.687-1.094-4.813-4.781-3.875-4.313-2.625-2.312-2.875-4.188-.312-.594-.094-2.812.094-1.094.812-4.687.782-4.125v-3.594l-1.5-4.406-3.094-4.188-3-3.5-3.594-2.094-6-3.906-2.719-3.187-4.593-4.5-2.594-4.407-1.406-5-.407-6.093-2.281-5.907-4-4.406-3.594-2.187-5.125-2-7.5-1.813-4.093-2.187-2.907-4-2.781-6.72v-6.093l2.594-5.594 3.406-7.718 3.406-4.5 2.094-3.688 3.5-10.687 2.281-11.125 2.125-13.375-.624-9.719-.875-4-3.625-3.594-5.688-127.593-7.469-167.094H609.093l-.78.375 1.5 5.125 2.406 9.187 3 4.688 5.593-3.594 4.094-4 9.219-4.5 7.594-.406 3.5 1.5-5.094 3-5.625-.5-1 .5-2 2.5-8.688 7.125-8.593.875-4-3.094-3.5-9.687-1.688-9.094z" style="fill:#9faec0" transform="translate(0 25)"/><path stroke="#9FAEC0" stroke-width="10" d="m1225.75 3209.469 2.875 2.344 4.5 4.687 2.094 3.5 2 2.594 1.406 3.594 2.094 3.125 10 7.687 5.094 2.594 5.593.5 6.594.094 4-1.5 4.625-3.094 1.5-1 4.594-.406.5 1.5-4.094 1.5-4 2-3.125 1-.5 1.5 7.625-2.5 4.094-1.5 4.594-.875h3l.5.5-4.594 3-3.5.5-2.594.5h-1l1.5 2.5 2.594-1 1 2.094 3.5 2.593 5 3.594 2.5 2h3.094l2.5 3.094 3.5 3.625 1 1 1 2.094.5 4.593-.095 10.094v2.594l1.5 6.125 1 4.094-.593 2.5V3296l-1.5 1.5-1.125.5 1.125-4.593v-3l-1-.594-1 .5-1.125 4.594-.5 5.093-.5 2.5-.094 3.094-.5 1.5v3.094l2.5 1.5 2 1.625-.5 4 1.5 4.094 2.5 3.093 3.5 6.094 3 1.594 3 5.125 2.5 5.594 1.5 5.093-.5 1.5-.5 3.094 1 3 6 9.219 2 5.094 3.5 6.687 3.5 4.594 3 3.125 3 4.594 2 4 2.5 2.593 3.093 2.594 2 1 3 1.094 11.625 9.719-.5 4.093-4.125 3.5-4.593 4-1.094 4.094v3.094l-.5 2.5-1.094 4.125-.5 2.5-1 2.5-2.094 3.094v2.5l-.5 4.093-.625 5.094 4 9.094 4.5 6.219 1.5 3 2.5 3.593 3 8.188 1 2 2 6.125 1 4.094-2.093 3.093v2.5l-.5 2.5v3.094l1 1v1.5l-1.094 1.594v1.5l1.5 3.125-.5 4-.5 1.5-2.594 4.594.5 2.5v1.593l-1.594 5.594-2.125 4.5-.5 5.094-.5 4.125 1 2.5-.094 3.094-2 4 .407 3.593 2.094 3.594.406 2.5 2.5 3.594 2 4.625 3.594 3-.095 5.094 4.594 7.187 2.406 7.594 2 5.125 1.5 6.094-.125 9.687v6.094l.907 6.125-.5 7.594-1.125 13.78-2.094 10.126-.594 6.594-1.594 5.093-.5 5.094-4.718 18.219-.094 6.094 2 4.593 1 4.094 1.5 6.594 2 3.125 3.5 4.094 1 2.5 1 3.093 5.094 6.094 5 2.594 9.625 4.125 8.593 3.187 8.094 6.594 4.594 4.094 3.5 4.125 8.094 6.187 12.625 8.688 9.593 5.219 6.094 2.593 3.594.5 7.094.5 5.625-1.406.5-2.594 5.093-1.5 17.688 7.813 9.594 2.094 13.218 6.187 13.188 2.594 12.594 6.219 4.125 1.593 4 1 3.093 1.594 5 2 11.188 3.719 7.094 2.094 5.125.5 11.593 2.593 6.594 2.094 5.594 1.094 9.094 2.625h2.625l8.093-2 14.782-4 5.5 1.594 2.125-1.5 1.5-1 2.5.5-.5 2.593-1 1-2.5 1-.125 1.5h2.125l4.593-1 6.594-.406 9.594.5 6.094 2.094 3.5 1 3.125 2.625 2 1 3.5 2.094 4.593 5.093 8.594 8.188 7.594.625h.5l6.594 1.5 13.218-.906 9.094 2.093 6.594 1.594h2.594l6.125-.5 10.093-.406 10.188-.5 16.812-2.875 10.188-5.5 5.594-5.625 8.718-5.5 8.594-4.5 7.688-3 6.625-4.094 6.593-3 6.094-1.5 5.594 2.094 2-.5 3.094-3.5 4.625-2 5.593-2.5 7.594-2 2 1 8.188.625 7.625-.5 10.687-3 2.5-4 4.594-2 5.594-2.5 4.625-3.625 3.093-2.5 3-1 4.094 1.125 2.5-1 5.094-5.625 2.094-4.094 3.625-.906 3.5.5h5.093l7.094.125h5.594l3.5-.5 4.594-1.5 4.625-2.5 4.593-5.625 3.094-5 2-3.094 2.594-1.5 9.094.594.5 2.5 4.125-1.5 3.593-2 3.5-1.688 2.094-1 3.5-1.5 3.594-1 4-1.5 3.094-3.093 1.625-4 1-5.594 1-4.125 1.593-8.875 7.688-4.219 3-3.594 6.094-4.5 6.218-3.312 3.5-1.188 6.094-3.312 8.688-4.281 3.625-2 5-1.813 5.593-2 6.688-1.906 8.594-.5 7.125 1.625 5.593 1.781 7.094 1.813 6 2.593 10.188 1.813 4.5 1.781 7.718.813 5.5 1.093 4.094.188 6.594 1.125 7.094 1 5.125.594 4.593-.5 5-1.5 4.094-1.22 5.094-2.28 3.594-2.313 10.125-4 5.093.313 4.594-.5 3.5.78 11.188-.874 7.625-1.813 3.093-1 6.094-1.187 2-1 4.594-2 9.719-2.5 5-1 7.187-.313 4-.187 4.594-1 8.094-.906 4.125-1.813 8.593-4.781 3.5-.313 2.594-.187 7.188.781 8.125 1.906 9.093 1.5 4 2.094 9.688 4.813 4 3.593 7.094 5.094 6.125 3.906 4 3.094 7.093 1.219 5.594 1.875 3.594 1.219 5.5 5.593 8.594 2.407h5.625l10.687-2.22 4.594-1.5 5.594-2.78 3-2.5 7.718-4 6.094-1 6.094-.5h7.594l4.5 2.093 5.125 1.813 4.593 1.281 4 .5 6.094-.5 6.094 1.594 4.594 2.312 7 7.094 9.218 8 4.5 2.5 11.188 1.813 4 3.093 9.719 1.813 14.187 5.187 5 1.188 5.594 5.719 4.5 8.593 2.5 5.907 3 10.187 1.5 10.719.5 4.5v13l5 8.594 8.094 5.906 7.625-.219 8.187-1 9.094-2.5 6.094-1.687 3.125-1 3-.813 4.093-3 3.594-4.094 3-3.812 1.594-4 3-3.594 4.594-4 5.125-3.281 4.093-9.719 10.188-9.094 7.094-2.5 11.718-1 5.094 2.594h7.094l8.094-.406h6.625l3.593-.188 4.5-2.5 3.094-1.593 3 1.093 5.594 2.5 5.594 3.594 3.5 2.313 3.125.28 3-1 3.593-1.78 5.094-2.313 9.594-3.281 6.219-1.5 4.5 1.094 4.593 3 6.594 6.406 4 4.594 3.094 1.593 1.5.688 4 .5 5.094-1.5 7.125-4 4.593-2.781 2.594-3 3.5-3.813 4.594-4.781 4.594-4.625 7.125-5.5 6.593-3.594 11.188-3.5 7.719-3 9.093-3.5 14.188-5.094 5.594-2.312 11.218-4.5 7.094-2.781 6.188-2.813 8.125-2.687 7.593-3.313 6.594-2.687 4.594-3.094 7.594-1.313 6.125-2.687 7.093-1.5 4.594-2 4.594-4.625 4.594-5.594 5.125-5 6.593-4.406 5.594-4.094 1-.781 5.094-3.219 6.094-3.5 7.125-2.5 9.687-.187 7.094-.5 8.594-.5h5.625l8.093 2.093 6.594 1 7.594 3.094 6.594 3.813 5.125 6.593 5 7.188 6.093 7.125 5.594 6.375 7.594 6.125 5 3.594 6.094 5.093 7.625 5.813 8.593 1.875 5.594-.5 6.094-1 5.094-1 6.125-1 5.593-.281 9.594-1 5.094-.72 8.594-2 6.125-1.28 4.593-1.5 7.594-1.5 4.094-.5 3 .187 9.719-1.187 8.093-1.813 8.188-2 11.094-1 10.218-4 5.094-1.5 7.594-1.5 7.594-3.094 7.625-2 7.093-1 7.188-.5 7.094-.5 6.625-.406 6.093 1.5 9.094-1.5 5.094-.5 3.5-.781 3.594-.719 4.125-1.5 6.593-3.094 5.094-6.093 3.5-6.313 5.094-4.281 4.594-14.219 5.125-4.406 5.093-3 10.688-6.281 5-2.594 7.094-3 8.218-3.813 10.594-3.312 7.188-.5 5-.188 9.218-3.593 6.094-2.22 2.5-2.374 10.188-.406 9.625-4.313 7.593-3.781 7.188-3.313 4-4.093 5.094-4 6.125-4.094 7.093-2.813 1-.687 5.094-3.406 6.594-5.313 3.094-3 7.625-2.281 5.093-1.219 6.594-.5h9.594l7.094 1 8.625-.781 9.687 1.094 4.594-1.813 7.094-2.281 7.125-2.219 11.687-5.094 18.188-8.093 11.718-3.594 12.688-1.313 11.219-2.187 5.593-.5h.5l7.094.5 8.594 1 8.594-.719 11.718-3.094 7.594-2.5 7.594-2 5.594 1h6.125l2-.187 5.093-.5 6.094-.5 5.094-.5 8.094.5 5.125-2 4.593-4.125 4.5-5 .5-.594 4.594-6.906 2.594-4.094 3-4.187 4.094-8.22 5.125-8.874 2.5-4.313 4.093-5.906 5.5-7.094 4.594-5.312 2.594-1.781 7.094-3.313 9.125-3.5 6.593-1.5 2.188.406 2.906.594 5.094 1.719 1 .687 8.094 4.907 11.125 6.906 9.687 4.781 10.594 1.906h5.094l3.625-1.093 4.5-1 7.593-3.5 11.188-5.094 8.594-2.5 7.718-2.125 6-.5h6.094l1.594.219 9.594.78 5.625-1.5 6.593-.78 6.094-1.72 10.594-1.5 9.219-1.593 6-1.5 13.187-2.281 9.688-3.625 6.625-3.188 3.5-1.812 6.093-1.781 8.094-1.5 2.594.5 6.094-.5 9.625-1.5 5.593-.5h3.782l4.812-.313 9.094 1 11.719 3.5 13.687 4.906 14.188 3.313 9.718.781 5.594-2.094 6-1 6.594-1.5 9.219-2.593 10.593-1.5 9.688-2.313 11.594-4.281 4.625-3 5.593-3.125 7.094-4.594 6.594-4.094 6.094-3.5 8.125-3.906 8.093-3.781 8.094-2.813 7.094-3.812 4.594-5.594 8.625-6.594 5.593-6.593 5.594-8.72 4.5-6.593 3.594-6.094 4.5.188 295.312-6 4.594-.094 78.094-1.5 49-1 39.312-.5 8.094-.188 86.688-1.906 9.718-.094 36.281-.594 60.626-.906 42.093-.906 4-.094 47.188-1.094 14.718-.719 53.282-2.281 8.093-.312 85.72-2.407 37.093-.687 106.5-2.219 40.594-.187 7.093-.688 48.72-1 76.093-1.125 20.813-.281 97.874-3.906 93.907-3.5 4-.188 12.718-.625 19.282-.875 45.593-2 67.907-2.906-.407-.906-1.5-3.688-2.093-4.906-1.094-4.5-1.5-5.094-1.406-3.125-.407-.781-1.78-2.719-.313-.687-1.5-3.188-1-5.625V3297l-.282-2.5-.091-4.407-1.876-3.281-1.718-2.906-.5-.906-1.906-1.907-3-3.093-2-6.5-.095-.907-.5-4.093-.687-2.407-1.094-3.593-.625-1.407-.781-1.687-.406-.594-2.813-3.625-1.594-1.687-3.906-3.094-1.094-.813-2.406-1.281-1-.625-1.5-.5-2.094-.094-5.593-.187-1.407-1-1.28-.907-.5-.5-.626-1-1.5-3.093-.5-1.22-.875-2.187.688-4.406.094-.594 1-2.687.312-.313 2-1.906 3-2.187 4.094-1 .594-.22 1.906-.5 1-.28 1.5-.72.594-.5 3-6 .218-1.5.282-2.718z" style="fill:#9faec0"/></svg>