<svg xmlns="http://www.w3.org/2000/svg" width="4269.688" height="3804.625"><path stroke="#9FAEC0" stroke-width="10" d="m1840.781 0-7.187 1.75-4.407 1.594-2.187.906-5.094 3.594-4.219 2.906-4.5 4.188-4.093 2.593-2.282 1.407-2.124 1.093H1802l-3.406-1.093-3.5-3.188-2.594-2.5-4-3.719-3.594-.906-3.5-.594-5.219 1.406-3.093 1.5-4.782 1.813-3.812 1.594-4.187 2.781-2.22 1.625-4.28 3.688-1.907 2.187-1.094 1.5-2.124 3.406-4 4.594-2.876 3.313-3.218 3.187L1734 44.75l-1.687 2.188-.407.5-1.906 3.906-.5 2.187-.312 2.907.406 3.5 1.906 5.687 3.813 4.313 10.28 9.406 3.094 4.187 2.5 4.906 1.626 4.594 2.28 4.719 1.907 3.281 1.406 1.906.688 1.094 2.406 4.406 1.5 3 .5 2.407.313 2.687.593 4 1.5 5.094 1.406 4.5 2.376 9.125 4.124 7.5 2.5 4.281 2.282 3.5 4 5.094 2 4 1.906 4.719.5 4 1.094 2.687.312.906-.094 5.907-1.125 6.094-2.781 7.5-3.094 7-3.219 6.5-2.687 7-.5 2-.5 2.812-.5 6.5-.312 2.594-.095 2.187.907 8.594.406 5.5-.406 3.125-.219 1.188-.5 1.687-1.281 1.5-1.406 1.406-3.5 3-4.094 3.094-2.5 2.5-.5 1-.594 1 .094 1.313.188 1.093 1.406 2.594 3.093 2 4 3 2.594 1.406.5.313 3.125 2.281.375.313 2 2 1.813 4.187.5 3 .094.906.5 3.719-.5 2.875-1.594 4.625-1.406 5.594-1 5.781.5 4 .812 4.219 2.094 3.5 2 4 1.406 3.094 1.406 4.093 1.094 2 .281 3.313.5 5.187-1.093 5.594-1.594 6.5-1.094 2.219-1.312 2.281-2.782 5.219-.624 1.281-3.688 6.719-2 4.5-.812 2.594-.594 2.093.718 3.406.188 1.5.5 4.688-.094 5.125-1 5.094-1.906 2.781-.813 1.125-4.187 3.875-4 2.625-4.594 3.5-6.094 2.594-6.125 5-2.594 4-2.687 4.5-.312.687-1 3.094-1.5 5-1 3.406-1 3.594-2 6.625-.688 4.5-.219 1.5-.594 6.094-.906 4-1.5 5.594-1.5 4.5-3.094 4.093-3 4.094-3.093 5-3 4-4.594 6.625-4.812 9.094-4.782 8.406-1.125 4.594-.875 1.593-.812 3.5-1.094 4.907-.812 4.593-.688 4.688-.406 2.219-.407 3.5.407 7.093 2 6-.188 6.594-.125 7.594-1.187 5.5-1.907 3.219-3.28 3.187-2.813 2.719-1 .781-4.594 3.907-3.094 3-3.219 3.5-.406.5-2.375 3.312-1.812 3.5-.594 1.594-.5 1.593-.594 2.907.5 4 1.375 4.093 1.813 3.907.562 1.562h182.781l.062-50.968-.094-59.688-.218-140.312-.5-125.594-.094-76v-11.5L1852.938 0z" style="fill:#9faec0" transform="translate(0 125)"/><path stroke="#9FAEC0" stroke-width="10" d="m1671.563 634.406.937 2.532 1 3.687.5 4-.094 5.125-.094 3.188-.125 1.093-.375 3.094-.625 3.125-1.281 3.875-.5 1.125-2.094 6.094-.5 1.406-1.312 4.188-.313.812-.594 5.594-.281 1.687-.312 2.313-.188 7 .875 9.093.625 5.313.281 2.281.906 6.5.407 6.094-.094 3.406-.219 2-.906 4.594-2.094 4.5-2 2-1.687 2-1.094 1.406-4.313 2.813-5.593 5-3.094 4.593-1.5 5 .094 2.594.094 2 1.406 5.719 2 6.875 2.781 6.906 1.5 4.5.907 3.813.093.781-.374 5-1.313 3.719-1.406 1.093-1.282.813-3.124.594-2.5-.094-4.5-2.125-4.594-2.594-1.188-.78-3.219-2-3-1.907-3.593-1-3.594-.594-5.687 1.188-2.907 1.187-.594.406-2.312 4-.594 4.094.781 4.125 1.72 5.781 2.593 5.594.813 1.906 1.374 2.813 3 3.781 3 4.406 1.5 3.594.407 1.719.312 1.781.594 4-.5 3.719-2.094 3.781-2.094 2.5-2.718 2.5-4.094 3.906-6.812 3.907-3 1.812-5.282 3.094-1 .5-2.5 1.781-2 2-.812 2.406-.5 1.813-.094 4.781.906 4.719 1 5.094.406 2.093.5 2.907.875 6.312.406 3.094-.5 5.281-.406 2.813-.281 2.687-1.594 5-2.625 5.313-4 4.593-1.875 1.72-3.125 2.28-7.187 5.907-6.688 4.812-7 7-.406.5-2.594 5-1.125 3.781.5 6 1.625 4 2.188 4.907 3.812 4.406 3.688 3.781 3 3.5.5.625 2.593 3 2.313 3.281 1.5 2.22 1.594 2.28 3 4.407 3.312 5.593.781 1.719 1.22 2.375 1.5 2.813.593 3.812-1.094 5-2.719 3.5-2.406 2.594-.687.781-4.094 2.125-5.219 2.094-3.594 1.187-3.093 1.407-2.594 2-2.719 2.5-1.281 3.093-.594 2-.219 1.907-.593 4.187-.594 4.5.406 5.313.375 5.093.313 4.813.094.906-.594 5.375-.687 5.906-.626 4.094-2.187 10-2.187 8-1.126 2.719-2.5 4.687-2.593 4.094-4.5 4.5-5.188 2.625-4.094.5-4.624-.312-3.5-.594-4.188-.5h-5.594l-4.094.094h-1.406l-3.594 1-4.624 2-4.188 3.406-3.594 2.5-2 1.281-3.094 3-1.5 1.5-5.312 4.907-6.906 5.5-4.188 3.5-7.312 6.406-5.407 4.812-3.5 3.094-8.874 8.906-11.5 10.782-3.126 3.218-5.5 5.782-4.093 5-8.594 7.218-2.187 1.5-4.126 3.5-3.187 3.375-1.812 2.22-4.5 6.593-4.094 4.094-1 .906-5.094 5.094-8.094 7.093-2.906 3.125-5.5 6.094-2.812 3.094-3.094 3.906-4.219 5.469h1387.031l.188-53.063 3.312.282-.094-10.094-.125-9.906-1.281-95.407-1-95.281-45.094.594-198.719 1.812-80.28.594-50.813.781-237 2.219-200 1.281-79.5.406-.813-36.687-1.593-195-.407-37.812.125-61.688.031-47.437zm2190.343 374.344-4.594 2.188-3 2.593-1.906 2.594-2.094 2.406-2.625 5.813-1.593 1.5-1 1-1.5 2-1.094.594-3 1.5-1.5-.095-.5-.094-1.594.094h-.406l-1.594.094-4.094.594h-5.125l-1.875 1-2.125.907-1.5 1.5-1 1.593-.5.907v1.187l.125.906.375 1.094.407.625.312.781 2.188 1.907.718 1.093.375.313 1.407 1.687.718 2.813-1 1.406-.625 1.375-.78.906-4.5 4.094-5 4.313-2.313 2-3.094 2.5-3.5 3.593-2.594 2.5-.312.407-2.688 3.187-2.406 3.313-1.813 3.812-.875 4 .094 2.5-.5 2.5v1l-.312 1.594-.406 1.406-1.188 1-1.687 1.094-2 .187-2.625.094-6.094-1.687-1.188-.406-5.312-1.688-5.281-2.594-5.72-2.218-7.78-3.407-7.407-3.593-2.718-.907-5.5-1.5-.688-.593h-1.094l-10.093-2-7.313-1.782-3.312-.906-1.782-.406-1.718.5-.782 2.406v.594l.5.906 1.094 1.688 1.813 2.906 1.093 3-.5 1.5-1.093 1.812-1.907.688-1.593-.406-1 .218-2.625-.406-2.094-1-2-.906-2.094-.406-1.594-1-2.5.094-1 .5-1.5 1-1.593 1.5-.407 3.125.5 3 4.094 5 1.594 2.5.406.875 1.094 2 .094 2-1 1.625-1.5 1-1.594.593h-1l-1-.5h-1.594l-1.406-.5-2.187-.812-2-.406-1.594-1.5-1.125-.375-3.094-1.907-2-1.406-2-2-3.094-2.594-4-2-4.093-1.093-3.094-.907-3.219-.812-1.5-.5h-4.187l-2 1-.72.406-1.593 1-1.094 2-.5 2.813.688 1.687 1.219 2.813.5 1.187 4.187 5.688 3.094 2.625.406.375 1.813 1.906 3.093 2.406 5 2.688 2 .906 1 .812 2.188.782 3 1.406 3.125 2.5 1.687 3.5 1 3.5-.687 3.5-2 2.094-3 2.125-3 1.093-1.625.594-5.594-.812-6-2.5-3.187-2.282-3.094-1.5-3.719-2.312-1.5-.594-.781-.312-3.125-.875-2.094-.907-2.187.094-3.594-.5-3.125.094h-1l-1.5 1-2.281 1.907-1.813 2.187-.187 2.313 1.687 4.812 4.906 8.094 6.688 5.094 7.125 4.593 5.687 1.5.313.407 2.781 2.593 2.094 1.5 1.5 1.5 3 4.813-.094 2.594.094 1.593-1.5 1-1 .5-1.375-.406-1-.094-1-.594-1.813-1.187-.593-1-.72-1.719-1.093-1.406-1.406-1.188-.5-.312-.594-.281-1.187-.407h-1.313l-1 .594-1 .5-.5 1 .5 1.5.813 1.906 1.28 2.188 1.314 2.125 1 2.187.093 1.813.095 1.187-1.094.813-2.5.375-2.094-.375-2.594-2.5-1.593-2.5-2.625-3-1-1.5-2.594-2.906-1.906-.813-1.282-.187h-1.406l-2.312 1.406-1.094.875-.188 1.125v1.594l.907 1.406 1.593 1.5 1.594.875 1.594.719 1.094 1.5.5 1.5v2l-.5.5-.375.187-1.22.094-.5-.187-4.5 3.5.313.906-.812 3.687.406 4.407-.406 2-1.406 2.593-.5 1.5-1.875 3.094-1.72 1-1.593 1h-.5l-1.906-.094-1.406-.281-1.782-1-1.093-.313-1.5-.687-2-1-2.5-.125-2.625.125-2 1-2.188.594-2.5 1.406-2.906.375-2.188-.5-1.906-.875-4.312-2.313-2.594-2-2.094-1.5-2.5-.406-2.094.219-1.593-.5-.5.094-3 .187-3.813.5-.812.094-5.094 1.407-.5.094-7.188 2.218-.406.188-4.187 1.312-4 1-3 .5h-.625l-3-.312-2.688-.594-1.594-1-2-1.187-2.593-2.407-1.125-2-1.5-.906-3.594-1.5-1.594.094h-4.094l-1.906-.687-.594-.907-.593-2.093.375-1.407.5-1.5.125-1.093-.5-1.407-1.5-.406-2.407.906-2.5 1.094-1.093 1-2 .594-1.5.406-1.313.094-1.5-.5-3.406-1.875-3.188-1.812-4.718-.907-4.094-.28-3.5 1.093-5.594 1-2.594.781-1.5.125-3.093.594-3 .5-1.625.094H3462l-3.406-.5-2.281-.313-1.313-.593-1.094-.282-1-.406-2.593-.906-1.72-.906-.405-.188-1.594-.594-.5-.218-2.594-.5-1.5-.407-5.687-1.78-1.625-1.5-.5-.5-2.282-1.313-1.812-.907-1.688-1.5-.406-.375-2.406-2.218-1.688-1.907-1-1-1.593-1-3.625-.875-1.375-.812-1.625-.406-2.094-1-2-.907-2.188-1.875-2-1.5-2.593-1-1.5-.906-4.72-3-3.093-5-3.594-6.219-1.093-1.78-.72-4.595v-1.125l-.5-2.093-.593-.907-1.594-1-1-.28-.5.187-.812.218-1.188 1.188-.406.812-.812 2.094-.282 1.094-.218 1.187-.594.22H3379l-3.094-.313-1.5-.282h-1.5l-1 .094h-2.218l-2.375-1.093-2.22-1.907-1.5-1.406-.905-.594-1.188-2.906v-2l-1-1.812-1.187-2.875-1-1.125-1.407-1.594-.593-.594-1-.5-.22-.594v-1.593l.095-1.907.312-1.218.407-1.688 1.093-1.187 1-1 1.813-1.407 1-.5 1.594-1 1.593-.5 3-.593 2.094-.125 1.5.5 2.094.406 2.125 1.406 2.5.313 1.594-.5 5.093-1.625 2-1.094 1.5-1.5 1.5-2 .813-3.094-1.219-4.187-1.187-1.22-2.594-3-4-1.905-.5-.282-2.219-.812-2.5-.188-1.5.5-4.187 1.782-2 2-2 1.625-.907.375-1.5.718-1 .282-3.093-.5-2.594-.5-1.219-.375-2.406-1.125-1.094-1-1.094-3-.593-2.5.5-1.875 1.5-3.5 1-3.625 1.5-2 1.5-2.094 1.687-2.094 2-2.187.906-2.22v-1.5l-1-.5h-2.093l-1 .22-1 .78-1.594.813-2 2.282-1.906 2.406-1.5 1.594-1.5 2.5-1.5.5-1.22.125-1.28-.125-1.594-.282-1.5.594-1 .594-2.313 1.812-1.093.907-1.407 2.593-1.687 1.407-.406 2.5-.407 3.593 1.094 8.188.813 4 .593 2.5.688 2.5-.594 2-.187.5-.72 1-.874.5-.625-.094-1 .094-3.094-.406h-3l-.906.312-1.781 1.813-.313 2-.594 2-.187 1.5-.406 2-1 2-1 1.093-.5 1-1.5 1-.907 1.594-1.093 1.406-.407 1.188-.593.406-.5.188-1 .625-.594.687-1 1.5-1 2.5-.219 1.406v1.594l.094 1.406v.594l1.125 1.5 1.188 1.5.406.406 1.406 1.782 2.781 1.812 2.5 2 2.22 3 .78 3-.5 2.688-1.28 2.406-2.626 1.5-3.094.5h-1.593l-3.5-.906-2-1.188-2.094-1.812-2.813-1-2.093-.375-2.313.187-2.594.594-2.093 1.719-1.907 2.593-.5 4.907-.78 4.093-2 3.594-.313.406-3.594 5.188-.406.406-2 2.813-1.5 1.28-3.094 2-.906.907-2 1.594-.5 1.5v1l-.094 2.094.094.625-.313 1.875-.5 1.5-2.281 5.125-1 2.5-1.094.5-1.5.593h-1l-2.625-.5-1.5-.5-1-.312-1.594-.406h-1.5l-1.5.125-1 .5-1 1.093v1.5l1.094.5.5 1.407.406 1.687-.406 2.188-1.594 1.812-2.28.5-2 1.094-2.407.5h-2l-1 2 1 2.594.406 1.906-.719 3.219-1.687 4.875-1.719 2.812-1.5 2-.875 1.094-1.906 2.219-1.094 2-.406 2-.5 1-2.5 2.093-1.594-.5-1.125-.406-1.375-.5-3.312-.687-.407-.813-2.593 2-.407.313-2.093 1.78-2.5 2-1.5 2.095-1.313 2.406-.375 1 .844 2.281h986.312l-1.468-1.969-1.688-1.406-1-2.5-.312-1.094.687-1 .906-1.093.5-.125.594-.188 1.313.313 2.812.28 2.094.5h2.281l2.313-.093 1.593-.094 2-1.094-.094-1-.687-1.812-.406-.594-1.594-1.5-2.125-1.406-2.594-1.407-6.187-3.593-1.72-1.688-1.874-2.312-.313-.5-.593-1.688.593-1.625.688-1.094 2.125-2 3.594-2 5.093-1.687 4-2.219 2.594-.875 2-1.5 3-1.906 2.219-1.406.875-1.188.812-1.625.407-1.594-.72-1.906-1.5-1.5-1.093-.5-2-.375-4-.312-3.187.593-2.907 1.094-1 .625-3.812 3.5-1.281 1-1.407 2.094-.906.687-2.5 2.094-3.094 1.125-2-.125h-.5l-3.593-1.594-3.72-1.5-2.874-1.187-4.219-1.219h-4.594l-1.812-.094-3.281-.406h-.5l-2.094-.375-2.313-.406-2.093-.407h-.72l-1.874-1-2.813-1.687-.812-2.219-.094-2.687.812-2.313 3.094-1.906.406-.281 1-1 1.594-1.5 2.594-2.813 1.718-2.5.782-.687 1.312-1.094 1.781-3.906 1-2.5.313-4.594.188-.719-.095-1.687-.5-2-1-1.094-1.593-.406-2-.407h-4.094l-1 1-.906.594-.407.594-1.093 2.125-.313.5-.375 1.781-.5 2-.5 2.5-.5 1-1 2.094-.906.812-3.594 2.688-1.906 1-2 .625-1.813.5h-1.78l-1.813-.5-2.313-.906-2.687-3.313-.688-5.5.281-3.5.907-4.094.406-2.312-.094-2.5-.625-2.688-1-2-1.687-2.5-2.5-2.312-3.813-2.5-1-1.281-1.375-.407-3.406-2.093-1.219-1.594-.375-.406-.719-.907-1-2.812-.5-2 .5-1.5 1-2.5 1.5-1.5 1.5-.5 2.594-1 2.5-.594.5-.094 3.906-.094 5.907-.406 9.5-1.188 5.812-1.5 3.594-2 3.594-4.5.906-1.218.594-1.407 1-1.5v-1.5l1-2.593.094-1 .406-2 .687-3-.28-3.5-.5-3.594-.095-3.5-.5-3-.625-2.594-1-2.406-.281-.813-1.094-1.593-1.219-1.094-1.5-1-2-1.313-2.093-.375-6.188-.718-11.406-2.688-5.219-1.906-1.5-.406-1.594-.5-2.093-1.407-1.313-1-2.875-1.28-2.812-1.095-.813.375-2.187 1.22-.594.905.406 1.782 1.188 2.718 1.093 2 1.5 2.5 1.094 3.094-.5 2-.781 1.594-1.313.906-.5.281-1.187.625h-2.313l-2.093-.125-2.094-.687-7.094-1-11.219-2-4.28-1.313-1-1-1.5-.5-1.126-1.5-1.5-1.5-.094-.875-2-3.625-1.094-2.5-1.593-2.5-2.5-2.28-2.407-.907-2.187.094-1.906.594-1 .5-1.094 1.406.375 2.219.312 1.5 2.313 1.875 3.094 2.125 1.593 2.78.094 4-.28 5.595-.22 5.218-.5 4.407-1.906 5.093-1.687.907-1.5.187h-2.5l-2.594-1.5-2.094-2.5.5-5.5-.219-3.406-.406-2.594-.281-1.594-.406-1.906-.907-2.312-1-2-1.5-1-2.093-.375-3.094.094-4.094 1.094-1 1.5-2 2.093-2.906 2.219-1.219 1.281-.781.813-2.719.781-.781.406-7.219 1.219h-8l-2.187-.219-3.188-.906-2.719-1-2.093-1.375-4.094-4.312-2.219-3.594-6.375-8.719-2.219-4-.906-1.687-.781-1.688-3.219-3.906-2.094-3.5-2.28-2.906-1.626-1.907-2.094-1.5-2.187-1.187-.406-.313-2.188-1.687-.406-.313-2.219-1.781-2.094-3-3.187-3.906-.906-1.906-2-1.688-3.188-3.812-3-3.313-4.312-3.875-4.094-3.312-7.406-4.094-2.813-1.406-2.594-2-2.687-2.188-2.406-1.406-2.688-1.813-3.625-2.5-4.187-.781-6.594-2.625-11.594-3.281-10-2.313-6.125-1.187-10.187-3.219-9.407-3.187-8.687-.188zm-742.594 258.094-1.312 1.969h9.906l-.094-.063-1.219-.906-2.093-1-3.094.094zm-13.125 1.687-.437.282h.687z" style="fill:#9faec0" transform="translate(0 100)"/><path stroke="#9FAEC0" stroke-width="10" d="m1360.375 1268.813-2.469 3.218-.406.5-5.906 11.594-6.407 10.5-.78 1.125-3.095 5.781-1.406 2.594-4.312 7.406-2.907 4.313-3.374 2.5-4.126 1.594-4.093.906-5.594.594-2.094.187-5.094.5-6.218 1.906-5.688 1.907-5.219 3.406-2.28 1.594-1.72 1.406-2.28 2.281-.5.719-2.095 2.906-3.718 5.281-4.094 4-2.312 2.313-.688.781-4.906 4.906-1.594 3-2.094 6.219-.594 1.875-1.124 4.406-1.188 5-2.094 5-2.094 2-3.624 2-8.188-.687-2.094-.313-1.406-.5-6.187-1.906h-7.72l-2.593.719-3.594 1.094-5.594 1.812-3.624 1.5-.782.094-3.812.5-3.5 1.5-1.907 1.094-1.687 1-4.094 3-1.5.812-2.5 1.188-3.594 1.5-5.218 2.906-1.407.906-2.187 1.5-1.906 1.594-2.282 1.906-2.624 2.375-3.094 2-3.282 2.125-6.624 4.094-9.688 5.594-8.687 6.594-4.626 1.812-2.374.781-6.22 1.907-2.687.218h-3.594l-3.624-1-6.594-2.5-4.688-4.406-4.094-5.406-2.624-5.688-1.782-5.906-2-7.594-.312-1-1.688-5.625-2.094-7-3.218-7.5-.594-1.093-2.312-3.688-3.5-5.094-3.5-3.625-3.594-3.093-3.5-2.407-.907-.687-1.687-1-6.094-2.094-6.812-.594-4.407.375-4.687 1.907-5.187 3.312-3.126 3.594-3 3.312-2 2.688-2 3.094-1.593 2.5-4.5 6.593-4.282 5.625-5.218 5-4.688 3.875-1.406.907-2.313 1.312-9.593 6.094-4.594 2-4.406 1.906-2.688 1.094-3 1.312-4.812 1.875-4.094 2.5-3.5 3.625-3.594 4-2.5 3.594-1.219 2.594-.687 2-1.313 4.906-.28 1.594-.5 4v4l-.907 5.594-1 7-1.5 7.093-1 8-.594 7-.219 7.625-.5 6.094-.187 6.406-.406 3-.407 2.188-.5 2.312-2 2.688-2 .906-1.593.406-2.282-.406-1.312-.312-4.594-1.5-2.5-1-6.312-3.5-3.782-1.907-5.406-1-4.094-.687-1.625-.313-3.28.407-1.907.312-2.688.594-3.312.312h-.813l-4.093-1-4.094-1.5-3.094-.625-1.312-.187-2.688-.406-8.594-.688-6.812.906-9.313 2.282-3.093 1.312-3.282 1.688-2 1.5-2 1.906-4.718 4.312-3.5 5.5-1.5 3.5-.688 2.688-.219 1.406.407 4 1 4.094 1.093 4.406.625 3.5-.5 5.188v4.406l-.625 4.094-.375 2.593-.406 1.719-1.906 2.188-2.594 1-3.094 1-5.125.312-5.28.406-5.095 1.5-3 1.375-2.625 2.625-2.5 3.594-3.78 7.594-1.313 3.5-1.5 4-2.594 3.5-2.5 2.094-3 2.5-2.594 2.093-2.406 2.813-2.094 3.094v2.593l-.5 4.625v1.375l.281 2.313 1.407 5.312 3 7.875 2.906 8.625 1.812 7.688.5 7.406.188 2.781v7.813l.094 7.094v5l.093 5.5v3.593l-.593 4-.5 2.407-.907 3.593-2.375 6-2.5 4.219-.625 1-3.78 4.188-2.595 2.218-1.812 1.188-5.5 2.906-6.094 2-11.906.188-5.594-1.594-2.312-.906-1.688-.688-3.594-1.5-2.812-.594-2.5-.125-2.094 1.125-1.719 3-.28.5-.5 3.375v4.625l1.093 3.594.812 2.188.782 2.312 2 6.188.593 1.906 3.407 7.594 4.5 5.593 5.593 4.625 5.5 5.188 2.813 2.5 1.687 1.687 4.407 4.813 4.593 5.906 2.625 3.906 1.094 4.688 1.094 6v3.812l.094 1.188-.688 5.094-.312 2.312-.5 2.688-2 4.593-3 4.625-1.688 3.688-2.094 3.906-.625 1.094-2.687 4.812-2.094 6.094-.719 8.594.907 5 1.5 4 3.718 5.906 3.594 4.094 2.094 3 2.594 4 2 2.5 1 3.594.093 1.312v3.188l-.5 1.718-.781 1.782-2.594 3-1 .718-1.719.875-1.406.719-.594.094-4.093-.094-2.094-.406-1-.313-4.094-1.5-2.719-1.187-1.28-.813-4.126-3.093-4-3.594-2.5-1.813-1-.781-4-5.594-2.875-2.906-2.719-1.719-.687-.375-2.312-1.125-4.907-.875h-3.281l-3.812 2.094-3.5 2.906-3.188 4-1.219 1.688-1.781 3-2 4.594-.719 3.093-.187 1.625-.5 4.282-.094 4.718-.375 2.969h2673.156l.625-.375 2.282-2.812.812-.782 1.281-1.718 2.22-2.907 2-4.093.78-1.5 1.5-2.594 2-3.594 3-3.5 4.125-3.594 5.875-2.906 3.22-1.812 3.093-1.094h2.594l2 .5 1.5 1.5.5 1.312-.5 5-.407 4.094-.5 7-1 6.594-.5 3v1l.313 1.094 1.687.5 2.125-1.188 2.282-2.406 2.093-3.406.407-.5 3.093-3.094 2.813-2.688 2.312-.5.375-.218 1.407-.907 1.5-1 1.5-1.187.718-.688.594-.5 1.594-1.718.906-.907.781-1.187.72-.813 2.405-1.093 2.188-.594 1.094-.594 1.812-.906 2.094-1.094 3-3.406 5.094-8.188 4-7.625 2.5-6.093 2-3.5 2-4.594 1.5-3 2.593-4 1.5-2 2.5-1 1.625-1 .375-.313 1-.593 2.125-1.282 2-2.625 2.594-4.281 1.5-3.094 1.906-3.718.5-.688 1.688-1.719 1-.5.812-.187 1.188.687 1.406 1.813.094 2.5.094 2.594 1.5.906H3506l.594-.094 1.594-.5h1l1.125.687.594.5 1 1.594 2.093 2.5.5 2 .594 2.5 1 1.5 2 .5 1.594-.5 1-1 2-2.594 3-4.593 3-6.094 3.625-7.5 4-6.594 8.687-12.125 5.594-6.094 9.719-13.093-17.125-15.5 9.625-11.188 6-7.625 6.187-8.594 2.907-2.687 3.593-3 4-2.906 3.094-2.188 3.5-4.125 2.219-2.594 1-1.281 3.094-4.125 4.28-6.187 4.313-6.907 3.688-5.781.406-.5 5.219-5.719 2.781-3.281.719-.625 2-1.687 4.094-3.094 3.093-1h1l2-.594 3-.719 1.188-.406 4.906-2.094.906-.406 2.313-1.594 3.5-2.093 9.094-9.094 2.593-3.719 2.5-3.875 2.594-5 1.313-3.125 1.187-3.594.406-1 2-4 2.594-4.5 4-4.093 5.406-4.813 6.094-4.094 4.813-5.906 2.093-2.5.813-1.594.187-.906v-1.094l-1.093-1.406-.594-.375-1.219-.312-2-.907-1.094-.5-3.593-3-5.72-3.5-1.187-1.281-1.406-1.625-1.094-1.094-1.187-1.406-1-3 .375-3v-2.5l-.5-2-1.5-1.094-2-.406-.594-.5-1.5-1-1-1-1.094-2.5 1-2.5 1.5-3.094 4.5-6.093 7.094-9.188 2.094-2.812 4.5-6.688 2.219-4 1.187-2.719 1.5-4.093.594-1.813.406-3.187.094-.907v-4.5l-1.094-3.406-1.781-1.687-3.125-2-3.094-1.5-2.781-1.313-1.625-.875-.5-2.125 1.625-3.5 2.188-2.687 2-2.594 2.406-3.406.281-.407 2.313-3.281 2-4.625 1-3 1-2.375.406-.406 1.594-1.219 3.093-2 .594-.5 1.313-1.375 1.687-2.219 1.5-2.593.406-.907 1-1.687 1.094-1.906.906-1.313 3-4.094 2.094-2.5 4-4.593 3.625-4.5 2.5-3.594 1.188-1.5 1.687-2.906 3.625-5.313 3.375-7.375.906-1.812 1.813-4.407.781-1.687.5-2.219.5-1.875.5-1.719.5-3.5.219-1.093.5-1 3.094-2.5 2-1.594 1-2v-1l-1.5-2-3.594-1.5-.5-.094-6.594-1.719-4.812-1-3.094-.5-1.5-1.094-.906-1.812.812-1.781 2.594-4.907 4.187-6.687.907-1.406 1.187-2 2.313-4 1.5-2.594 1.5-3.125.5-3.5-.594-3.688-.5-1.812-1.5-3-2.094-3.5-2.125-2-2.594-2.5-2.093-3.5-1-4 .406-4.094.406-.687 1.5-2.72 3-5.593 2.094-2.406.281-1 .313-1.188v-2.593l-.313-1.594-.5-1.313-.687-2.312-.407-1.188-.406-1.093-.281-2 .5-3.5 1-2 1.5-2.094.5-1.125.594-1.781.5-3-.094-3.313v-5.406l-.094-2.375-1-2.5-.5-2.5.5-2.906.187-1.407.188-.906 69.718 52.219 17.094 13.781 16.406 13.094 42.907 35.406 85.593 66.313L4000 1483.25l3 2.687 32.313 24.594 36.78 28.5 78.907 62 30.5 24 3.188-1.187 2-2.22.906-4.28.312-2.22.594-4.28.406-2.72.782-2.593 1.406-6.594 1.5-3.5 2.094-4 2.5-4.593 2.5-3 1.718-3.907 1.282-4.187.5-5.625 1.5-5 1-5.375 1-5.719 1.906-7.906 3-8.688.219-.593 2.187-7.407 3-6.093 2.5-4.094.906-1 2.782-3.625 1.812-2.094.594-.906.906-1.5 1.313-2.594.5-2 .187-1.5.5-4.594-.594-3-.593-5 .5-2.5 1-2.593 1.093-1.407 1.907-2.593 1.875-2.22.5-.874 2.625-4 2-5.125 1-5.094.875-6.5 1.5-4.594 2.5-5 2-6.093 2-4.5 3.625-5.5 2.5-5.594 1.375-3.125.312-.5.813-2 5.593-5.594 6.282-6.187-8.375-2.813-1.407-.5-4.812-1.5-4.094-1.406-6.187-2-2.625-1.5-1.594-.781-.406-.313-.282-.281-.812-1.125-1-1-1-1.5-.594-1.094-.406-4 1-1.594.5-1 1.906-1.312 4.594-4.594 2-4.594.812-2.906.188-2.594v-4l-.594-2-.5-2.093-.5-2.5-.5-.907-.812-2-1.094-2.906-1.094-2.187-.312-1.813-.375-1.687v-2l-.125-1.5 1.125-1 1.28-.72 1.22-.374 2.593-1 1.907-.625h2.093l1-.594 1.094-.906.188-.688.218-.812.094-1.688-.593-1.593-.22-1.407-1.187-4.406-2.187-7-4-7.406-4.313-6.688-.593-2.406-1.094-3-.813-1.687-.406-.594-1.187-1.125-.907-.781-1.812-2.094-2.094-.813-2.594-.406-3.093-.906-2.313.125-3.094.094-3.093-.406-9.907-1.688-5.187-.906-2.5-1.5-2.625-1.313-1.594-1.906-1-1.781-.5-1.5.313-.719.593-1.094 1.407-.406 1.78-.687 1.5-.095.813.094 2.094-.093 2.719-.095.781-.5 2.406-1.812.407-.906v-.688l-.407-1.312v-1l-1.187-.906-1-2-4.719-2.5-.625-.813h-986.312l.25.719v1l.094 1-1 2.594-.407 2-1.5 2-3.187 2.124-2.094 1.875-2.219 1.313-2 .594-2 .719-.906.593-1.094 2.406.5 1 1.594 1.375 1.125 1.5.594 1.5-.594 2.22-.812 1.405-1.094.875-.906.625-.5.594-.594.906.781.782.625.906.5 1.313.5 1 .5 1.5 1 1.5.094 1-.5.5-1 1.593-2 1-2 .594-3.094-.406-3.125-1.5-6.687-3.406-6.407-3.094-7.906-5.688-6.875-4.812-4.125-3.281-4-2.72-3.187-2.28-2.094-.907-2.906-.594-2.5-.718-1 .094h-1.594l-3 .219-2.313-.5-2.593-1.5-2.094-4-1-2.5-1.094-2.5-.5-1.5-1.407-1.032H3118l-.094.125-.906 1.5-.594 2-.406 2.094-1 1.5-1.5.5-1.594-.5-1.5-.906-1.219-1.875-.594-1.407-1.28-1.906-.626-.812-.25-.313h-.687l-2.063 1.313-1.187 1.218-2.907 2.782-3.093.5-1.5.625-2.594.5-2.5.687-3.094.094-2.625-.406-2.594-1.5-2.593-1.375-1-.406-1.5-1-.5.5-1.5 2.5 1 1.5 3.187 3 1.625 1.906 1.594 1.5-.094 1.094-.125 1-.281.781-.906 1.5-.813.813-1.5.406-1.187.094h-3.407l-1.093-.5-1.5.5v1.5l1 1.5 1.093 1 1.5 1.5.594 2.593v2.5l-1.5 3-1.375 1.407-1.719 1.187-.906.625-.781.594-1.5 1.5-1.313 2.094v2.5l.5 2.687 1.094.813 1.625 1.5.375 2.812.219 2.094-1.719.688-1.5-.094-1.875-.313-1.719-.594-.906-.281-2-.5-2.594 1.094-2.093 1.906-.594 2.094v4l.094 3.093-1.094 2-1.5 2-1.313.907-1.687-.594h-1.5l-1 .094-1.5.5-1.094 1.594.188 2-.313 1.5-.281.906-.219 3.594-1 2.593-2 2.094-2 .5-1-1-1.094-2v-4.375l-.094-1.125-.187-1.375-.313-2.625-1.5-2-1.593-1h-2l-1.407 1.406-.593 1.22-.907 2.5-.094 3.28-1.218 2-.875 1.594-1.625.5-1.875 2.625-.407 3 .594 3.5.594 1.5.5 1.5 1.719 3.5 1.187 2.594v2.094l-1 1.312-1.5.594-1.094-.5-1.5-.906-1-1-.5-2-1.593-2.5-1.5-2.094-1.625-1.406-1.5-1-2.094 1.093-1.781 1.313.094 1 .187.594.906 1.593.5 1.907-.312 1.406-1.094 1.5-1.5.688-2.094.406-2-.407-2-.906-1.687-.5-.406-.094-.907-.187-.593-.219-2.594.5-2 3-2.125 3.125-1.688 5.281-3 4.094-1.406 3.625-1.406 3.094-1.5 2.5-.875 2.093-1 2h-2.219l-2.906.095h-3.281l-3.313 1-1.5 1.218-1.781.875-2.625 1-2.5.625-2 .5-2.594 1.5-2.094 1-1.5 1-3.187.375h-2l-1.5 1.625.594 2 1.593 2.5.594 2-.5 1.5-2 2.094-.187 1-.407.906.907 2 .593 1.688-1.093 2.406-1.407 2.094-1.5 1.093-1.593.5-2-.5-2.594-.5-2 2-.625 2.5-1.375 1.594-2.719 2.125-2.187.875-1.22 1.125-2.093 2.5-1.594 3-1.406 4.094-.5 2.5v3l-.5 2.5-.5 2-1.281 1.781-.406.5-1.313 2.313-.5 2.5-3.094 3.093-2-.187-3.093.594-3.594-.407-2.125-1.906-1.688-1.687-2.093-1.594-.5-.5-1-.594-2.907.094-2.093 1.594-1.594 1.5-1.406.688h-2.594l-6.125.718-7.094 5.5-3 1.406-.906 2.094-.188 2 .5 2.5.407 2.5-.407 1-1.593.594-1.5 1-1.407 1.594-.593 1.406-1.407 2.188-2.5 1.625-2.093 1.875-2.594 1.906-3 1.094-2.406.5-1.5.5-.72.218-1.78.5-1.313.406-2.687 1.188-1.594 2-.313.406-1.093 1.688-1.407 1.312-1.593 1-2.5 1.406-1.5 2.094-2.5 2.094-1.907 3.594-3.312 3.406-3 4.688-4.094 5.625-6.406 6.375-1.188.718-2.187 2.5-1.406 1.5-2 1-1 1.094-1 3v2.5l-.5 3-1 2-.907.688-1.406 1.125-1.781.78-2.125.813-1.094 1.594-.781 1.188-1.219 1-.906 1-2.094.5-2 .625-1.5.375-2.5 2.125-1.594 1-2 2-3 .375-3.093.125-4.094.187-2.125.906-1.5 1.594-.781 2.688-.313.718-.594 1.781-.406.626-2 1.375-1.281-.282-1.313-.719-1.093-.5-.907-.28-1.812.093-3.281-.5-3.594-1-.906-.312-.407-33.281-.5-53.22.313-193.874.094-27.219v-.719zm-803.188 505.03-4.5.407-2 .094-.78.406-2.907 1.688-3.594 1.906-3.094 4.5-2.218 4.5-1.094 5.5-.094 5.5-.594 4.781-1.906 4.625-1 1.5-1.906 2.094-4 4.188-6.407 4.593-.406.313-4.687 2-4.907 2.406-5.28 3.188-4 2.406-1.126.687-1.781 2-2.219 2.719-2.094 3.781-1.687 4.719-.906 1.906-.407 1.5-1.5 3.782-.5 1.218-2 4.594-.593 1-1.407 2.5-.687 1.406-1.094 3.5-.812 1.688-.813 1.812-3.187 7-2.094 4.094-3.5 6.281-4.219 7.625-.781 1.5-3.094 6-1.156 1.469h183.5l3.75-4.094.781-1 2.906-3.375 3.094-4.5 1.719-3.5.5-3.5-.812-3.406-1.594-4.594-3.094-7-5.312-9.5-.5-1.812-1.407-5.094-1-3.219-.875-2.875-2.5-4.625-3-5.093-2.5-5.094-1-2-1.219-2.813-2.093-5-2.594-3.875-2-2.5-3.719-2.125-2.375-.687-1.219-.406-3.093.094h-1.094l-1.312.312-.688.188-2.5 1.125-2.812.78-.782.22-3.625 1-4.594.094-2.687-.407-1.312-.312-1.594-.875-.407-.219-1.687-1.187-2.312-2.907-.907-1.312-.875-1.781-1.625-3.5-1.5-6.594-2.187-7.5-2.688-4.625-4.5-3.875-4.719-3-5.687-2.406-.812-.22-8.407-.78z" style="fill:#9faec0" transform="translate(0 75)"/><path stroke="#9FAEC0" stroke-width="10" d="m464.156 1903.219-2.25 2.906-3.219 3.219-4 3.687-2.687 4-2.094 5-.5 1.5-.312 2-.407 4.5.5 6.5.313 1.594 1 4 1.406 5.5.5 5.5v5.625l-.906 8.094-1.594 8-2.219 6.5-3.687 6-3.688 4.406-4.5 4.781-4.125 3.5-6.5 4.094-4.687 1.719-.5.187-5.688 2.407-4 1.593-.625.313-4.093 1.5-3.5 2.594-1.782 1-2 1.687-5.312 4.906-3.688 3-4.625 6.907-1.375 3.312-1 3.375-.5 5.125-.625 5.5.72 4.5 1 2.5 1.405 2.094.875.781 3 2.125 2.5 2.094 3 1.406 2.625 3 3.5 3.781 1.782 4.219 1 4.094v9l.094 6.093 1.125 5.5 3.094 9.5 1.687 4.688 1.406 3.906.813 1.813 1.281 4.281-.406 7.906-1 4.594-2 4.5-2.5 6.125-1 5-.375 3.281v1.094l.594 4.625.406 2 2.094 9.094 3.187 11.593 3.906 11.594.313.907 3.094 7.5L420 2215.03l.5 4.594.5 4.813-.812 4.593-.375 2.907-2.125 6.812-2.5 4.594-4.188 4.5-1.906 1.593-2.5 1.907-1.687 1.406-2.5 1.688-3.407 1.406-2.812.781-5.375.406h-.719l-7.187.907-2.594-.5-7.125-1.188-6.688-2.219-6.094-2-5.593-1.687-3.813-.813-1.5-.281h-5.687l-4 .594-2.813 1-1.187.593-4.219 3.407-5.594 4.593-3.594 3.094-2.406 1.907-.312.312-2.875 3.281-1.313 2.594-.594 1.625-1.5 4.094-.593 4.781-.219 2.406v2.719l-.187 6.594.406 7.5-.625 3-.594 5-.5 3.093-2.094 7.5-2 5-2 4.907-1 5.187-1 7.094-.5 5.5-.906 6.625-1 8.5-.906 5.281-1.688 7-1.906 4.313-1.781 3.187-1.125 4.5-1.094 4-1 6-.5 2.813-.781 2.187-1.5 5.407-.125.593-3.188 4.5-3.094 3-4.5 3.219-3.812 1.594-2.781 1.5-1.625.5-5.594 1-4.594 1.093-6.687 1.5-6.125 1.5-1.375.313-3.219.281-5.594.594-4.094.5-2.593-.094-5.125-1.594-2.594-.5-3.5-1.094-2.094-.5-2.906-.406-1.281-.187-4 .875-2.625.718-1.094.5-2.594 1-2.5 1-4.094 1.5-7.812 3.5-3.781 1-11.719 3.188-12.5 3.219-6.5 1.5-5.188 1.375-4.593 1.406-6.219 1.812-4.094 2.094-3.406 1.688-1.688.812-1 .5-4.093 2.094-8.813 2.812-.687.188-10.5 3.094-8 1.125-9.313.781-7.187-.094-1.313-.312-5.812-1.376-8.188-3.718-2.687-1.281-2.219-1.313-3.594-3-4.094-4-2.093-3.5-.313 3-.187 1.5-.907 5.5 1.282 9.313-.188 1.28-.812 2.313-.782 1.406-1.812 3.376 1.219 6 2.375 10.124-1.5 11.5-2.5 18.094 1.125 7.094 12.781 14.188h2456.844l.062-.188 1.5-3.594 1-2.906.5-.687 2-2.407 1.687-1.812.813-.594 1.094-.594 2-.594 1.906-.124 1.187.218 1.5.188 2.125.594 1.688.218 1.406.188 3 .5 3.594-.594 1.594-.5 2-1.187 1.5-1 .812-.813 1.188-1.594 2.093-2.5.406-3.219-.593-2.78-1.406-2.813-1.188-1.688-.906-2.312.406-4 .5-3 2.5-7.094 2-4.094.5-.812 1.594-3.688.812-1.219.688-1.28.906-2.22.594-1.78.687-1.095.906-1.406 1.594-2.906.906-1.687 2-2.5.907-1.22 1.687-2.406 2.219-3.78.688-1 1.093-1.72 2-2.593 2.625-2.5 2-2.5.594-1.5.5-1.281.406-.813.5-2 1-1.5 1.594-2-.094-2.094v-1.5l.5-2.5 1-2-.5-2.5-.5-1.5-.5-2.719.875-2.874 1.625-3 .375-4v-3l-1.187-4.5-1.5-3.5-2.094-3-.406-.5-1.688-2-1.219-1.5-.187-.626v-2.5l.094-1 .406-2 .406-3v-4.593l-.125-5.5.313-1.781.5-1.72.187-1.406.5-1.593 1.625-2.594 2-2.5 1.5-1.5 1-1.406.5-.594 1.594-3.094 1-2.594.406-.5 1.594-1.906 1.5-2.219 2.688-.374 2.5-.626h2l1.093-.093 2.219-.5 2.281-1.407 1.125-1.594.375-1.906-.5-2.5-2.094-5.094-1.5-2-1.593-2.5-1.094-2v-1.5l1-2.093 1.594-2.407.406-1.78-.094-.813-.906-2.407-1-2.5-.719-6.093 1.125-7 1-2.594.688-1.906 1.093-2.313.719-.375 1.281-1 1.094-1 1.219-2-.094-2-1-2.5-.5-2.5v-.812l.187-.813 2-3.594 1.5-1.5 1.813-2.906 1-3 .5-2 .375-.781 1.125-2.313 1.594-3.5 1.593-2.687 1.907-1.406 2.093-.188h.594l1.594.281.812.407 8.813 4 10.094 5.093 9.187 4.907 13.719 7.093 3.281 1.72 6.906 3 6.5 2.374 3.313 1 6 1.906 7.375 2.5 4.5 1.907 4.219 1.812.593.281 4.407 2.813 2.187 2.187 1.5 2.22 3.219 5 5.281 7.374 2 2.813 6.313 10.5 6.687 11.593 12.5 23 17.594 41.72 53.219 17.374 19.687 6.625 28.594 9.281 14.812 4.907 10.407 3.406 11 4.281 5.093.406 1.188.22 1.906.28 4.094-1.5.406-.28 1.5-1.126 2-1.5 2.219-1.687.687-.5 1.813-1.094 1.375-.594 1.125-.219 3.5-1h3.187l1.594-.406 1.719-.281.687-.406.5-1v-1.5l-1-3.5-.187-.813-.406-1.687.593-3.5.594-.813 1.313-1.281 1.5-1.219 1.593-1.187 2.094-1.5 2-1.594 3.5-3.594 4.594-5.625 1.5-2 3.625-3.594 2.594-1 2.906-.593 1.687-.407 1.5-1.093.907-1.5.094-3v-.594l.312-2.406.5-3 1.094-2.5.594-1.094.312-.594 1-1.406 3.781-2.094.907-.719 1.093-.78 1.5-1 1.407-1.126 2.093-2.375 2.094-2.625.406-1 .313-.687.281-.813 1.5-3.094 1.625-2.5 2.5-3.5 2.188-2.687 2-2.094.406-.406 1.5-2.406 1-3.5v-1.094l-.406-2.094-1.094-3.406-.5-2.594-.094-3.625 1-4 1.5-6.5 2-5.594 2.875-6.593.5-.907 2.5-5.187 4.219-7.813 5.5-10.187 8.593-15.594 4.594-9.125.219-.5 2.281-3.594 1.594-2.906.906-1.594.813-2.187.78-2.719 1-3.094 1.5-4.5.907-5.187.5-6 .5-3 .5-3.406.906-3.688 1-3 2.5-3.5 2.5-5.625 6.594-14.187 3-7.594 3.594-6 2.5-4.594 1-1.406 1.312-1.594.688-.719 1.125-.78 2.781-1.626 2.219-.375.781-.125 1.813-.094h1.593l1.5 1.094.907 1.125.687.875 1.5 1 1.719.812 2.687-.5 1.5-.593 2.594-2 3.313-1.907 1.5-6.5 1-2.5 1.593-3.812.907-4.281.5-4.813 1-4-.094-4-1-3.781-1.125-1.719-1-1.781-.594-4-1-2.719v-3.5l1-4.594.5-4 .906-4.906.094-.781.813-2.906 1.094-4.907 1.812-6.687 1.188-3.625 1.312-4 4.688-9.375 6.312-8.406 4.875-8.313 2.125-4.5.5-1.406 1.375-3.188 1.5-4 1-5.406.5-3.187-.594-2.5-1.093-3.313-.407-2.687-.094-2.5.594-1.094.906-1.313 1.5-1.5 6.688-2.593 4.625-.094h.5l3.593.375 2.094.5 2.594-.594 1.5-2 1.5-3.5.5-6.594-.094-3.5v-3l.5-3.5.312-.906 1-2.094 1.094-1.812.594-.782 2-2.593 3.094-2.125 2.312-.875 1.781-1 2-2.125 1-2.5.5-2.5.5-1.594.5-1.906 1.5-3.094 1.407-2.094.718-.906 1.5-2.5-.125-3-.5-.688-.78-1.406-.22-.594v-1.406l1.125-3.094 2.5-2.406 40.782 34.188 59.812 50.218 13.094 11 2.906-7.093 2.5-9.5 2.5-5.407 1.5-3 4.094-7.593 1.187-2.407 3.313-6.218 4-7.594 4.906-8 4.688-6.688 1.093-2 3-6.093 4.72-11.5 5.405-11.72 2.375-9.093 3.125-9 .782-1.594 2.718-5 3-6.093 4-6.125 3.5-6 5.188-7.094 1.187-1.406 2.72-2.688 2.405-1.906 2.282-1.688 3.093-2 3.625-1.5 1.875-1.125H709.03l-.344 2.625-1.093 6-1.594 4-3.5 5.407-1.5 2.187-1.906 2.313-3.782 3.593-.406.282-4.094 3.812-1.718 1.5-2.907 2.594-3.375 2.312-1.718 1.188-5.188 4.219-.406.375-5.188 2-2.906-.375-5.094-.625-8.125-3.688-5.5-3.594-2-1.593-6.78-6-1.095-1.625-2-2.875-1.5-3-.218-1.72v-1.5l.718-2.78 2-3.625 1.5-3 1.094-1.094 3-2.906 3.5-3.594.75-.813h-183.5z" style="fill:#9faec0" transform="translate(0 50)"/><path stroke="#9FAEC0" stroke-width="10" d="m57.594 2537.625.718.813 2.5 3 2.594 7.906.688 8.281-1.782 5.5L57 2577.75l.406 9.375.188 1.125 1.093 5.094 3 12.5-.78 14.093-3.907 9.5-1 1.188-2.906 2.906-.594.5-4.188 1.907-1.125.406-13.28.406-4.5 6.781-.5 4.313v3l1 4 1.405 1.593 2.375 2.188 5 4.5 2.313 4.219-.406 8-.282 1-2.718 9.593-3.282 11.188-2.5 7.5-1.406 5.625-.406.688-3.313 4.5-5.687 2.687h-1.094l-13.594-.687-4.906 1.812-1.406 6.5 2.312 6.688 1.282 4-.282 6-.406 8.093.094.594 1.406 1.125 6.094 2.781 4.906 2.219 2.688 7.094 2.719 6.687 5.375 1.594 8.406 2.406.906.313 7.906 9 2.407 3.281.687 1.406.813 2.813.094.687v10.219l1.687 4 2 2.094 4.813 4.281 1.187 1.125 7.594 2.375 1 1.5 4.5 7.125 1 .375 5.219 2.125 1.593.875.407 4.625.593 2.5.407 1 4.406 7.5.187 4.281.094 1.313 3.594 6.781.625.906.688 4.719 1.187 8 .625.781 3.375 4.313 4 5.187.719 5.813.406 4.593 5.094 7.5 1 1.407.281 1.093-.375 1.313-2.125 3.375 1 1.625 7.313-.5 1-.125 7 3.313.687.406 1.813.906 6.593.781 3.72 3.5.187 3.313v3l1.593 3 6.313-.219 3.406-.094 2.094.312 1.187.594 4.094 3.313.406.593v1.907l-.28 1.593-.126 1-1.375 1.282-.812.625-9.094 2.687-2.406.688-3.313 3.906.719 5.594 7 4.312 2.187 4.313-.593 1-7.094 6.281-3.406 3.094-5.813 2-4.375 1.406-.125 1v.719l3.625 2.281.5.312 1 3-1.219 1.5-3.5.188-4.593.312-.907.5-.406 4.094 5.125 2.906 1.875.907 10.406 1.593.313.594.187 4.406-5.906 4.782 1.406 1.5 1 .218 2.594.594 2.625.094 3.5 3.219.281 7.875.094 1.812.313 1 1.812.5h.594l.688-1 .5-1.593.906-4 .5-2 .5-2.313 3.5-.781 1.187 2 1.5 2 1.5.5 2.125.5 2.594.5 2.094 1.187 12.406 9.094.594 1.219.312.5 1.094 2 2.094 4 1 1 .406.687 1.5 1.188 5.188 3.906 2.218 2.219.282.5.812 1.5.5 2.5v5.594l.594 3.5.687.906 4 2.687 2.625 1.813-4.125 2.594-8.093 4.093 4.312 5.094 1.5 1.719-1 4.781-.5 2-.406 2 1.187 1.406 1.313 1.313 3.812 2.875.5.812 5.188 8.688 4.094 6.812-2.688 16.907.906 2.28.5.313 3 1.094 7.5-6.781 3.282-.719 1.218 1.5.282.5 3.218 5.5 4.5 7.813 5.188 1.406 3.687 5.094 4.72 2.593 3.905 1.907 5.375 5.906 6.72 1.781.593 1.094 1.5 6.812.687 3 5.5 1 2.22.313 3.905 2.687-.625 3-3.28 1.5-2.72 1.313-.5.187-.187.813.312 1.781 10.5.313 4.875.094.188.094h1830.063l1.156-1 3.593-2.5 3-.5h2.625l2.5-.094 1.375-1 .5-2-.5-2.5-1.593-1.5-2.907-1.907-1.5-3.5-.5-1.093-.28-1.5-.595-4 .188-2.094.5-2.406 1.594-3.5 3.718-5.188 4.875-4.906 4.22-4.313 2.593-3.093 2.406-3.813 2-5 3.094-4.187 2.5-2.907 2.5-1.5 2.594-1.093 1.093-.907 1.407-.78 2.093-1.626 2-1.5 1.625-2.594.282-1.906-1-2.781v-2.813l.218-2.593 1.282-2.688 3.593-6 1.907-3.406 1-2.5.5-1 1-1.5 1.593-3.313 1.625-2.5 2.5-3.593 5.875-5.907 3.813-3.187 2.5-1.5 3.094-.906.5-.094h4.093l1.5-.594 1.125-.813.688-.687 1-.719.812-.781 2.094-2.5 2.5-3.625 2.188-2.094 2.5-2 2.5-1.594.406-.406 1.187-1.5 3.5-5.094 4.5-7.593 3.125-3.094 4.094-4 3.5-3 .688-.719 2.312-1.5 2.594-2 1.5-2.406 3-5 3.094-4.094 3.5-3.5 1.593-2 .907-.781 1.812-1.813 3.906-3.593 2.875-2.22 4.125-2.593 5.5-4.594 1.594-1.093 4.5-4.594 1.5-1.625 2.094-2.375 2.094-2.219 1.093-1.5 2-2.187 1.125-1.313 3.5-4.094 3.594-3 4.094-3.593 3.187-2.907 1.907-1.687 4.218-4.125 4.5-4.094 4.094-3.5 1.5-1.5 3.5-2.594 1.094-2.5.906-2 .594-3.593.906-4 1.094-2.5 1.406-2.094 1.594-1.5 2-2 .812-1.5 1.188-2.125 2.5-4.094 2.5-3 1.094-2 .906-1.594 2.187-3.312 1.813-4.281.187-.5 1.313-3.5 2-6.594 3.906-12.625 1.5-4.5.906-2.5 1.375-3.281.22-1 .78-1.594 2-4.625 1-2.375.813-1.813 1.187-2.812 2.22-4.781 2.405-3.813 3.5-4 2.094-2.906.5-.5 5.094-5.188 4-5.093 1.5-3 1.094-2.594.406-2.406-2.094-1.594-.5-.125-2.094-.688-2-1-1.312-.906-1.188-1.187-2.406-3.813-.219-.687-.593-4.594-.094-1.125-.094-2.688-.5-4.093-.094-2.594.281-1.406.719-1 1.093-.907 4.188-1.812 2.906-1.375 1.5-2.125 1-2.5 1-3.5 1.406-3.094 1.594-2.5 1.313-1.281 1.187-1.313 1.406-1.406.907-1.094.5-2.593.187-.813v-1.594l-.094-1.5-.094-1.187v-1.906l1.094-1.813.406-.687 1.094-3.094-1.094-2-1.125-1.406-1-2.594.5-1.5-.094-2.5-1-2.5-.5-3 1-2.5 1.5-2.125 5.594-3 4.125-1.094 3-2 2.594-2.094 1-1.5 1.906-5.093 2.094-3 1.5-2.094 2.5-2.125 2.687-1.281 2.719-1.22.687-.5 1.688-1 2-1.374 1.406-1.219 2-2 3.813-5.406 3.5-5.094 2-4 1.406-2.187.187-.407 1.688-1.687 2.5-2.125 1.625-1 2-2 1-1.5.875-1.188.625-.906 2.5-2.5 1.094-.5.781-.281 1.406-.5 1.219-.5 3.594-.5 1.5-.5 1.5-1.625 1-2.5 1-1.094 1.281-.781.906-.5h2.094l3-1.125.719-.188 1.906-.812 2-1 1.875-1.594.5-3.094 1.5-3 2.125-2 3.094-.593 2.5-1 3.093-1.5 3.594-2.094 4.594-2.5 2-2.625 1-4.5-1.094-4-1.094-5.594-2.593-5.5-2.094-4.5-.5-.594-2-2.312-2.219-2.094-.906-.906-.688-.781-1.093-1.72-2.594-3-2.125-3.5v-2.687l.219-1.906.406-1.406.875-2.094 1.406-1.906 1.313-1.594 2.593-3.094 2-3 1.907-2.187 1.406-1.406 1.781-1.72 4.594-3.874 4.719-3.125.406-.375 2.687-2.625 3.5-3.688 3.407-6.906.531-1.406z" style="fill:#9faec0" transform="translate(0 25)"/><path stroke="#9FAEC0" stroke-width="10" d="m279.375 3172.031.937.5.375.407.625 1.093.094 1.907-.218.5-1.5 1.093-6.094 3-1.688 4.219-.406.781-.812 2.094-.594.406-2.094 1.907-4.094 3.687-.5 1.406-.5 2.813 3.5 2.5.594.5 7.188 5.187.718.719 1.5 10.5.594 2.5.188.594.906 1 2 2.5 3.5 10.781 3.594 1.625 2.718 1.5 2.594 3.188.5.812-2.312 5.781-1.688 4.313 2.094 4 2.594 4.5-.282.406-5.812 8.594 5.094-1 1.406 2.406 4.094 7 2.406-.406.906-1.907.5-2 3.094-3 1.406.095 3.188 4.906 2.5 3.906 5.312 5.094.813.687 10.187 6.219h2.906l4.094-.5 2.5-1.5 3.094-1.594h1.719l3.78.875 2.907 3.5.406.5.5.625 2.594 1.594 4 2.406.406 2.188.782 3.906 3.406 5.187 2.219 3.5-.907 5.313-.406 2.281.406 1.719.5 1.906 1.407 2.094.78.906 1.5 1.094 1.813 1 1.907.781 3 .219 2-1.094 1.28-.812 3.5-.313 4 .625 3.22-.812 1.875-1.188 1.406-2.625-.281-3.594-1.313-3.593-.5-.813-1.594-2.5-.812-1.281.312-5 1.5-2.813 2.594-1.906 3-.594 3.094.407 2.594 1 1.125 2 .375 2.5-1.375 2.593-1 1.813-.5 2.594 1.78 3.093 1.407 2.094.906 2.219v2.187l-3.5 4.313-.906 1.187-.906 1.5.094 1.813.125.594 2.375 2.187h2.813l3.593-1.094h2.594l1.406.594.094 2-.281 1-1 1.719-1.594 3.094-.906 2.593-.094 1.5.5 1 .375.5.906.5 3.813-.78.594-.22 2.406-.406 2.094 1.406v5.594l-.907 3-.906 6.313 1.406 1.687.5.625 2.594 1h.906l1.719-.312 6.094-3.313 2.781-.687h1.625l.688.094 1.093.906 1.594 1.687 1.813 1.72.687.78 1.625 3 2 5.407 1.094 6.093-.219 1.407-.281 1.093-1.094 2.5-5.719 2-.593.125h-2.594l-5.719 2.188-1.094 1.906 1 1 1.407 1.188 2.5 1.218 2.312 2.094 1.094 2 .406 2.5.281 3.594 2.407 4 .5.406 1.5.594 1.5.312 4.687-.906 3.5-5.312 1.125-1.282 2-1h3.094l4.094-1.125 1.5.5 1.406 1.625.687 4 .094.594 1.313.688.687.094 1.125-.188.875-.312 2.125-1 3.094-1.5 7.094-.5 1 .125 4.406.687 2.188 1.594.718.5 2.594 3.5 1.5 2 3.188 4.406.5 2.594v1.5l.218 1.312.5 1.282.282.906 1.5.594 3.218 1.218 4.594.188 1.906 1.719 1 2 1.188 1.781 1.187.906 2 1.094 1.625-.406.594-.594.281-.5v-2.594l-.094-2.906-1.093-6.094-.5-2.5v-1.5l1.187-1.5 2.625.094 2 1.594.875 2.625 1.625 2.594 1.594 2.5 5.594 1.406 2.906-1.219 1.281-.594 3.625.188 1.188.906.687.813.5 1.906 2.125 2.094.688-.22 3.093-.687 1.313-.687.781-.813 1.813-2.312 2.906-3.781 3.5-.22 1.781 1 2.5 1.5 1-.687 2.125-2.093.5-.313 1.5-.5 2.594-.5 1.5-.406 4.281-2.781 3.625-.907 2.594.188 1.594.5 1.406 1.219.406.593.5 2-.125 2-.594 1.407-2.187 4.093 4.5-.5h3.094l1.406 1.094.594.406 1.093 1 .594 1.5 1 2 .719.5 1 .313 1.281-.406.719-.407 1.5-.812 1.594.5 1.312 1.312-.5 1.5-.906 4 .187 1.313.313 1.687.5 1.407.781.406.719.281 1.094 1.906v2.5l-1 1.594.5 1.5h2.593l1.907-1 1.687-2.594 1-1 2.5-.5 1.906 1.313 1 2.281v1.5l-.406 1.5-1.875.813-3.812 2.78-2.5 1-2.5 1.72-1.407 1.28-1.187 2.22-1.313 2.28-.906.407-3.875.906-.5.094-.906.594.093 1.5.907 2.313.593 3-1.5 2.187-.406.625-2.687.375-1.5.125-2.5-.719-1.094-.28-2.625.093-2.5.5-2.187 1.094-.907.5-3.094 1.812-1.093.688-1.907 1-2.687 1.312-4 1.094-3.625 1.5-3.094 2.688-2 2.5-1.281 3.593-.125 5 2.125 6.5 2.688 5 2.093 3 1.906 2h2.188l2.906.125 3.719 1.875 1.688 1.125 1 .688.906 1.406.687 1.188 1 3 1.594 1.5 2.5-.094 2.625-.5 3.594.406 1.406.906 1 .281 8.094 4.5 1.687 1 3.094 1 2.625 1.5 1.094 1.407.187 1.906-.281 1.188-.625 3.093-.375 1.906-.406 5.094.5 2.219 1.406 4.5 2.594 3.5 3.093 2.5 1.313 1.594.5.687 1.281 1.719.594 3-1 1.406-1.5 1.094-.375.406-1.625 1.688-.5 2-.094 2.5-1.781 8.406-1 4-.5 4-.5 4.094-.406 2.187 2 5.813.594 1.687v2l.5 1.813.687 2.687 1.406 2.625.719 2.875.875 1.813 2.219 2.687 1.406 1.406 1.781 2.22.594 1 .719 1.78 1.781 1.72.5.374 4.625 3 3.188 4.406.687 1 3.125 3 1.594 3 1.5 2.313 1.094 1.688 1.312 1.312 2.188 1.688 2.312 1.593 1.375.813h4.125l2.594-1 2.5.094 2.594 1.906 1.093 2 1.219 1.687.875 1.313 1.406 2.406 2.719 1.594 2 2 1 1.5.594 3-.5 2-.406 1.687-.094 3.313 1.094 2 1.593 2 3 .406 3.094 1 .719 1 .281.594.125 2.594-.406 5.312.594 4.594.5 2 1.093 1.312.907.782 2.5.5 1.593.312 1 .188 1.22.218 1.5.594 2.593 1 1.5.594 1.906 1.094 1.188.718.5.5 3 2.688 2.687 1.812 5.219.875 4.406-1.28 3.188-1.813.687-.407 3.406-1.687 4.594-.5 3.625-.594 3.094 1 5.094.906 5.687 2.5 2.313 1.375.812.625 2.594 2 2.406 1.375 1.594.5 3 .407 2.281-.407h2.906l2 1 1.094 1.5 1.5 3 1.719 1.22.906.78.875.907 1.219 1.093 1.906 2.813.875 1.5 2.125 5.094 3.281 15 .094 2.5.625 2 .375.5.719.593 2 .125 2.094-.125h5.5l1.5.313 1.687.312 1 .375 2 1.313 3.125 3.406 2.5 3.781 1.281 1.907 4.5 4.812 3.594 3.094 2.219 1.906 4.594 4.406 3.593 2.375 2.594 1.625 3.125 1.594.5.281 2.688 3.5 1.406 2.72 2.187 2.687 3 .593 102.594-4.875 5.313-4.125.812-.875 2.594-2.125 3.5-3 4.094-3.093 4.593-2.094 4.094-1.5 6.125-3.094 5.594-2.094 5.594-3.625 3-2 2.687-3.28 2-4.095 1.406-4.312.5-4.813 1.594-4 2.813-3.28 1.187-.813 1.406.812 2.313 2.188 3 2.5 3.5.593 1.187-.5 2-.593 3.094-1.094 1.906-1.813 2.72-2.187 3-1.5 2.593-.094 2-1 2.094-2.5 2.5-2.5 1.906-1.594 1.187-1 4.5-3.625 3.313-1.594 2.094-.906 2.593-.5 2-.594 2.094.5 1.625.22 2.188.28 4.406-.093 3.094-1 3-.594 3.406-3.406 1.906-1.688 1.281-1.5 2.907-5.125 3-7.094 1.093-3 2-4.5 1.5-4 2-3.781.907-3.625 1.093-3.781 1.407-2.813 1.906-2.406 1.687-1.875 3.5-2.125 1.094-.375 1.5-.312 2.5-.594 1.625-.406 4.594-1.594 3.094-1.5 3-5.594 3-6.625 1.093-2.375 1.5-.625 2 1 21.407 24.625 18.593 21.281 57.907 51.219 4.406 3.875 13.594 11.906 7.593-2.593.72-.407 5.5-3.187 4-2.5 1.5-1.094 9.093-6.219 2-1.187 6.281-3.719 7-4.281 8.125-4.094 8.875-4.312 13.313-4.688 9.812-3.125 9.875-4.187 15.313-4.594 9.812-2.594 11.5-2 10.281-2.125 6.22-.781 6.093-.813 11.406-2.406.875-.187 8.719-1.594 15.406-4.719 4.875-1.375 12-3.719 6.125-2.093 3 .5 2.594 1.5 1.094 1.5 1 1.5v2l1.187 2.406.625.594.5.312 1.5.094 6.094.406 3.187-.406 4.907-1 2.593-.812 6.72-2.5 8.593-3.188 4.094-1.719 12.312-6.093 8.594-4.094 11.281-7.094 6.125-5.219 5-5 4.188-4.093 1.5-1.282 2.5-2.218 2.812-2.188 2.281-1.906 5.594-3.594 1.719-1.094 3.281-2.625 4.125-2 2.5-2.593 1-2-2.406-4.282-15.313-19.718-2.78-2.907-4-4.5-3.22-4.5-.593-3.375 1.5-4.5 2.593-4.218 12-18.782-1.093-4-.5-3v-3.406l2.593-4.5.5-1 4.594-7.219 3.906 2.907 4.094 2.406h5.719l4.594.906 4.187 3 6.719 5.906 7.781 6 5.219 5.875 4.187 5.5 2.5 3.407 1.594 2.093 1.625 1 2 .5 2.094.407h3.594l3 1 2.687 1.5 3.625 4.906 3.188 6.5 4.312 10.094 7.094-2.094 8.687-3.094 2.094-.906 7.406-3.094 10.313-4.094 5.187-2.812 4.5-2.313 12.813-7 .406-.187 18.375-10.688 12.813-6.718 15.812-9.188 13.688-9.219 7.593-5.187 5.094-3.594 3.813-2.719 4-2.093 4.687-2.5 2.313-1.407 1.906-1.187 3.906-2.5 7.688-5.594 8.093-6.594 6.594-5.125 5.313-3.687 9.687-5 5.625-2.594 8.188-2.5 8.687-1.812 11.219-3.094 2.281-.5 2.813-.594 3.593-.594 2.594 1 2.5 1.375 2.125 3.125 1.594 3.5 2.687 7 2 7.875v7.5l-.5 4.5-.406 4.625.5 3 1.625 2.5 1.188 1.875.312.625 1.594 2 2.094 2.5 2.5 1.5 2.593 4 3.594 1.5h3.125l2.094-.625 4.594-2 3.5-1.093 5.5-1.594 4.312-1.906 3.5-3.094 2.094-1.813 2-1.781 5.094-4 8.406-7.812 8.687-6.594 11.5-6.5 13.313-6.594 6.187-3 4.5-2.094 1.907-1 3.312-2 1.094-1.125.781-1 1.625-2.5-.125-3.593 1.5-3 4.625-3.5 3.594-1.594 3.094-1.5 7.093-2.094 12.813-4.219 9.687-3.593 5.094-2.594 5.219-3.406.281-.282 2.313-2.218 3.406-3.282 4.594-6.406 4.593-7.594 6.313-12.906-5-3-6.094-3.094-10.906 12.5-23.719-8.906 18.625-10.594-11.812-22.625 26.406-14.687 11.594-6.094 6.812-3.594 12.281-8.125 11.72-9.781 10-9.094 6.093-6.625 4.094-6.281 2.906-4.312-38.406-23-11-10-26.813-34.782 5-1.5 2.719-1.125 1.781-.5 2.719-1.281 5.5-3.5 4.094-3.594 1.812-2.125 1.5-2.187 1.594-2.094 1.687-2.812 3-4.5 2-3.094 1.313-2.094.594-1.094.906-1.5 2-1.5 2.594-1 3.093-1.5 2-2.625 1-2.5v-2.5l-2.093-3.5-1.594-1.593-2-2.907-2-2.375-1.094-1.625.5-2.375.594-1.406.906-1.812 2-4.5 2.5-7.094 4.688-6.906 2.812-5.188 4.594-5.094 5.531-4.718H279.376z" style="fill:#9faec0"/></svg>