<svg xmlns="http://www.w3.org/2000/svg" width="4743.031" height="5085.813"><path stroke="#9FAEC0" stroke-width="10" d="m1687.625 0-1 1.5-.5 7.688 2 8.218 2.5 1 2.094-.5 1-2.093 1-4.625-2.594-7.594-1.5-3.594zm236.594 3.406L1911.625 8l-4 3.094-4.094 4.594-3 4.624-4.5 21 1.594 20.376-.5 3-.5 8.718-2 5.594-4.5 5.188-2 17.312 1.5-1 5.594-6.687 5-1 9.593-1.626 4.594-2 3.5-4.593 4.5-8.188 4.625-2 3-1.094 3-3 2-3.624.5-2.594 2.094-4.094-2.094-6.594 1-7.718 2.5-7.594 1.5-6.688 4-6.594v-5.125l.5-7.187-1-1 .5-1 .5-3.094-.5-2-1.5-2-2.625 1-4 .5h-4.593l-3-.5zm-127.407 1.406-1.5.5-1 1.594-1 3.5v8.688l.5 1.5h2l2-4.594.5-4.594.5-4zm-47.5 21.594-5 3.094-2.093 1.5-2.5 6.094-4.5 1.093-4.594.5-3.5-.5-6.594.5-1.5 3.126-3.5 7.093.5 12.282 1 2.5 4.094 1.624 4.5 1 3.094-9.218 2-2.594 1.5-4.094.5-6.593 6-4.126 5.593-3.093 5-5.094 2-3.594zm3.594 15.782-2.5 2-1 3.124-1.5 5.094 1 4.594 2 2 1.5.594 2.625-.094 2-1.5 1-8.688 1-3.5-2.625-3.125-1.5-.5zm60.719.312-2.5 2.094-2.594 3.093-2.5 5.626.5 1.5 2.594 3.593 1 5.094 1 10.688 1.094 7.624 2 5.094 1 2.594 3.093 2.5 2.5 1.594 2.5-3.094 3.5-6.687 2.094-5.626-.094-3-1.5-3.593-5.093-7.688-5-4-2.094-2.593-1.5-1.5-1-4.126 2-4.093 2-3-1-1zm-150.719 6.594-1 1.5-8.593 6.718-1.5 6.594 2 10.688 1.593 8.219 4.5 1.5 5.125 2.5 1.5 1.593 4.094 2.5h3l1.5-1-.5-7.719 4-5.593 1-4.094v-2l-1.5-3.094.5-1-3.5-5.094-6.094-7.718-2.625-4.5zM1712.531 78l-1.5 1.594-2.5 4.094-1.5 6.624-4.125 8.188.125 5.094 1.5 2 7.094 1 3.5-1 5.594-6.188 4-2.5 3-3.094 2.5-3.124 4.593-1.5v-3.094l-2-1.5-2.093-.5-5-3.594-6.094-1-1-1h-3zm63.688.406-6.5 1-2.5 4.094v3.094l1.5 2 1.5 5.594 1.5 4.124 2.094 2.5 8.593-3.624 4.5-8.094-6.093-8.688zM1530.406 81.5l-.5 3.594v4.094l-2.5 3.124-5.093 2-2 2.094-5.5-1.094-13.688 4.188-5 4-.5 3.094.5 3.094 1 5.124 5.594 2 2.5 3.594 2 4.594 1 1.5h2.593l7.594-1.594 6.5 2.094 4.625-.094 4.5.5 2.094-1.5v-5.094l-1.594-5.125-1.5-4.594-.5-6.093 5.5-3.094 2.594-3v-1.594l-4.094-1.5-.5-10.719-3-3.593zm45.625 14.188-1 1.624v2l.5 2.5 3 1.594 7.094 4 3.094 5.094h3l3.5-4.594 1-4.094-3-3-1.5.5-4.594 1.5h-2l-2.5-.5-2.594-1.5-1-3.624-1.5-1zm65.188 12.124-3 2.094-1.5 4-5 2.594-.5 1.5.5 1.594 3.5 2.5h3l4.094-2 1-4.594 3-3.594-1-3.094zm117.406 1.688-2 .094-7.094 2.5-10.125 7.219-4.5 7.187-2.5 5.594-3.093 1-1 4.094 1 2.5 2.593 2.125 4 1.5 7.125-5.625 6.094-6.188 5-4.593 4.594-3.594 4-6.625-1-3.094.5-2-2.094-2.094zm81.5 14.094-8.594 5.094-10.125 3.625L1799.72 136l-10.688 3.594-5 3-6.625 3.594-2.5 1.625-4 1h-3.593l-2 .5-3 1.593-2.594 2-4 5.594-4 5.688-3.094 4.625-1.5 3-1 4.593V182l12.188 10.188 5.093-.5 5-2.094 4.625-2.5 2-2.094 2.5-2 3-6.187 1-1h3.594l1 .5 4.594 5.593 5 .5 6.094-2.594 4-5.125 3.093-1 3-1.5 4 1 4.125 3.5 3.5 2.625 2.094 3.5-1 6.688.5 1 1 .5h2.5l3.094-1.5 2.5-1.594-1-4.094-3.594-2.5-1.5-10.218 1-3.594 4.5-5.094h4.094l2.5 1.5 3.5-1 1.5-6.094 2.594-6.218 2-4.094 2.5-2 4-5.594 2-2.094v-1.5l-9.594-9.218zm-160.906 3-5 4.094-2.5 2.625-4.094 4-5 5.687-1 2.5 3.5 7.188 3.094 4 1 8.718 5.594 2.5 2 4.594 3.093 7.188 4.5 4 3.625.5 3-1.5 15.688-3.094h4l7.094 1 2-3.594-1-4.594-.5-5.094-1-5.625-1.094-5.093-3.5-3.594-2-2-3.094-4.094-3-4.5-.5-3.094-1.094-2.625-1-2.5-5.625-2h-4.5l-3-.5h-3.093l-.5-1-1-2.593-2.5-1.5zm-93 .219-3.094 1.093-3.5 1.5-2 1.5-1.594 1-1 1.094-1.5 5.594-.5 2-2 2.094-8.125 3.125-5.5 1.5-1.593.5-3 3.093-3 4.594-5.594 5.594-2.5.5h-3.594l-7-1-1-.5-1.094-2.5-1-1.094-5-1.5h-1.125l-7-2.5-3.593-4.094-2.5-.5h-2.5l-3.094 1.594-4 7.594h-.5l-2.5 6.719-3.594 5.093-7.594 7.594-6.5.594-2.125-.5-1 .5-4.5 2-3 2.094-2.093 1-4 3.625-2 1-3.094 1.5-2.5 3.093-1.5 4.594-1.5 8.188-1.5 4-5.094 3.625-1 2.593-.5.5-5 2-7.094 2.594-2.625-.5-5.5-4.094-8.093-1.5-3.094 1-3.5 4.094-1 1.594 1 1-1 6.094-.5 8.718-1.5 2-3 2.594-5.094 1.5-8.094 2.094-5.625-1-4.5-1.594-2.5-3 2.5-7.187v-3.5l-2.093-3.625-2.5-.5-2 1-2.5 2.625-2.594 6.093-.5 7.094-1.5 1.594-9.594 2-4.5 10.812-3.094 1.5-8.625-2.594-12.593-9.625-2.094-3.593.5-2.5 3.094-3.094 1-2.594 1-3 .5-2.594 1.5-2 7.593-5.125 3.5-3.593.5-1.5.5-2.094-1-2-1-.5-2-.5h-1.5l-1.5 1-2.593 4.094-3.5 5.094-5.094 5.625-8.594 5.593-7.5 1.094-2.594 1-2.5 1.5-3 3.594-4.625 6.594-4 4.125-7.093 11.28-1.5.5-2 1-2.594 1.5-8.094 4.094-9.594-.5-1.5.5-2.5 2.625-1.5.5h-5.625l-6.593 1.594-15.188 7.594-10.094 6.188-5.5 5.125-4.625 6.093-2 3.594-3.5 5.094-3.093 2.5-3 1.594-6.094 1-2 .5-1 1.5-1.5 1.625-1.594 2-.5 1-.5 3.093-1 1.5-1 1.594-.5.5h-1l-1-.5-1.5-1.094-1.094-.5h-1.5l-2.5 3.594h-1l-.5-.5-.5-1 .5-1.594 1.5-1.5 1.5-.5 6.594-.5v-1l.5-3.594h-.5l-7.094-4.125-2-2-2.125-.5h-1.5l-5.5 5.125L1152.72 323l-4.5 1-16.188 7.188-13.718 4.625-9.594 1-2 3.093-2.5-1.594h-1.594l-4 3.594-15.719 6.688-5.093 1.5-15.688-1-9.594-.5-7.125-1-3.5-1-2.5.5-6.593 2.5-9.594 2.094-8.594 3.625-3.094 3.5-8.625 2.093-12.093 8.188-6.594 2-13.688 5.594-12.125 3.125-6.593 2-16.188 4.593-10.094 3.094-6.625 2-3 2.094-5.593 2-11.188 4.594-2.5 1.625-6.094 2.5-8.125 4.093-4 2-5.093 2.094-10.094 2-15.188 1.094h-3l-11.718-.5-3-.5-3.594-1.094-2 .5-1 .594-3 7.094-1 .5h-1.094l-.5-.5 1-6.094-.5-1h-10.594l-8.625 1.5-19.187 4.594-13.688 4.625-7.625 1h-7.593l-8.594-4.125-21.313-15.782-10.593-8.594-4-2.125h-2.594l-1.5 1.625v1.5l3.5 1.5 3.094 2.094 5.593 4.594 4.5 3.5 9.125 7.188 3.594 3-.5 1-1.094.5-3-1h-.5l-1.5 1.625-2 .5h-1.625l-2.5-2.625-1-.5h-1l-5.093 1.5-1.5.5-1-1-15.188-17.782-20.219-21.906-28.375-31.594-2.906-9.219-.594.125-7.625.375-7.593 3-9.282 5.5-5.718 4.813-.407.313-2 4.875-1.281 4.906-.312 3.312-.907 2.406-1.687 4.594-2 2.688-3.313.906-.375.094-2.5-1.5-3-1.187-4.718-1.094-4.282-.813-4.625.813-2.593 1.094-2.094 1.28-5.188 3.313-3.625 4.094-.875.906-3.5 4.907-.625 3 .625 3.906 3.094 2.875 4.594.219h.406l4 1 2.594.906 2.594 1.875.312.312 1 2-.219 3.594-1.093 3.313-.594.687-2.69 2.906-2.625 2-4.687 3.813-5.313 4.875-2.593 2.5-1.688 2.906-.219 3.906.813 4.5-.813 4.188-2.5 3.125-3.375 1.375-3.218-.094-5-.688-6.594-.812-5.094.312-4.5-.218-3.594-.188-2.906-2.094L521.03 445l-.406-.312-3-.094-3.594.406-2.5.906-2.625-.094-3.093-1.906-.407-.219-1.687-2.594-2-3.593-2.094-4-1.219-3-2-1.094-.187 5.094-2.813 77.406-2.593 83.687L489.03 650l-1.625 57.593-2.281 81.594-1.687 56.063h1745.375l-72.188-20.344-3-2.813.094-2.406v-5l.094-.5.813-3.594-.22-4.593-.093-3.094-.188-1.813-2-3.593-.718-1.313-1.375-2.687-2-3.094-.907-1.5-.718-1-1.375-2.594-1.625-4.219-.094-2.687-.594-3-.813-2.5-.375-1.094-1.125-4-1.187-3-1.5-2.5-2.188-3.5-.906-1.406-1.219-2.094-2.875-5.406-1.406-3.719-2.594-4.594-1-5.093v-3.407l-.218-4.5V727l-.094-2-.188-4.313-1.625-4.281-1.594-2.5-1.687-3.5-.406-.313-2.407-2.093-2.5-1.594-2.093-2-.594-1.094-1.406-2.406.406-2.594.406-2.406-.125-2.5-.375-1.406-.406-.813-1-2.5-1.5-2-.906-.687-1.094-.907-2.094-.5-2-2.593-1-3-.312-1.407-.188-1.593-1.5-4.094-2.625-2.5-5.094-7.094-.78-1.125-.5-1.187-2.72-4.5-2.187-4.5-.906-3-.094-1.813v-2.281l-1.5-4-1.5-3.094-3.094-.5-1.719-.625-2.281-.875-3.125-.5-2.594-.625-2.906.625-.594.094-2 .5-2.5.5-1.406.188-1.594.312-4.094.906-5.093.094-4-1-1.313-.218-1.281-.5-2.125-.875-1-1.125-.875-1.282-.219-1.218-.281-1.375.5-2-1-2.125-.5-1.5.5-1.594.875-1.5-.094-2.094-.906-1.312-1.5-.094-2.094.593-1.5.5-2.5-.094-2.5.594-2.188.313-1.312.187-4.688 1-3.406.625-3.594 1h-1.312l-1.188-.219-2.093-.906-1-1.094-.5-1.406-.5-3.5 1.593-3.281 1.5-4 1.407-2.719-.125-3.594-.094-3-.406-2.093-.375-1.688-2-2.625-2.125-2.5-.782-.875-2.406-2.219-2.594-2.406-2.312-2.094-2.281-.78-2.5.093-1.313.094-4 2.594-3.312 5.313-1.782 2.906-1.5 3.094-1.5 1.5-2 1.187-2.312-.281-2.281-1-2.5-.22-1-.093-4.407.594-4.812.812-3.5 1.188-3 1.906-3.094.094-2.5-1.594-2.906-3.687-3.688-4.906-4.812-7.094-3.188-4.72-2.218-3.5-2.875-7.405-.407.125-6.312 4.28-4.594 1-6 2.095-6.594-2.5-6.093-2-4.625-1.594-4-3.5-4.594-3.094-1-.5-2.594-1.5-6-3-4.594-4.593-3.593-2.5-4.5-3.094-2.625-3.5h-2l-2.5 1-3.594 1-4.5-.5-8.094.594-1 5.593-6.094 3-6.093-2.5-1.5-1-17.313-10.593-9.594-9.22L1782.406 520l-10.188-9.093-8.594-7.594-4-2.625-3.093-3-8.625-6.594h-1.5v1l6.125 6.094v1l-3.125 3.625-1.5 1.5h-1l-3-5.625.5-3-.594-1.594-1.5-1-2-1-1.5.5-1 .5-1 1.094h-1.094v-3.594l1-.5 3.094.5 2-1.594.5-1-1-2-3.094-2-12.094-11.687-9.718-9.22-12.688-11.686-18.687-16.22-14.813-17.28-1.5-.5-1 .5v1.5l4.094 4.593 6.094 8.594 4 4.594 9.218 6.125L1703.218 455l1.094 2.5 6.594 3.594 3 3 .5.594-1 1-1.5.5-3.594-1.5-4.5-4.094-5.094-2.5-4.594-1.594-6.593-2-6.5-1-8.72-.5h-1.5l-1.5 1.094-7.093 4.594-3.5 2-.5 1v2.125l.5.5h1l10.094-3.125 9.094-.5 4.625-.594 14.187 2 4.594 2.594 15.219 6.125 1.5 1v1l-3.625.5-6.594-1.5-4.5-2.5h-2l-1.594 1-1 4.094-1 2.5h-1.5l-6.594-5-3.5-1.594-13.718 2.594-4 1.5-3.094 2.593-5.5 7.688-8.094 7.625-5.094 3.094-8.593 5.593-12.625 4.594-3.594.594-11.094 1.5-2.5 4.625-12.687 4.094-10.125 6.687-10.094 3.594-4.094 3.5-8.094 6.219-6 4.593-6.093 3.594-2 1.5-2 1-1.625.5-3.5.5-6.094-2-18.188-5.5-1-1.094.5-5.093-1.093-1.5-2-2-.5-1.5.5-1.594 1-2 3.593-2.625 3.5-2.5 8.094-11.781 8.594-10.72.5-3.093V489l1.5-5.093 1-3 .5-7.22 1.5-15.78 1.5-3.5 2.5-2.094 5.094-1 13.625-6.22 14.187-12.186 4-4.594 5.594-8.22V417l-5.594-11.687-2.594-4-3-6.22-3.093-7.093-2.5-6.093-3.125-7.594-2.5-7.22-2-4.093v-4.5l2-7.187 4-3.125 6.125-2 3.5-2.594 2.5-4.094 1.5-4 1.093-3.093-.593-2.594 2.093-6.125 1.5-2 2-.5h2l3.594.5 3 1 5.094-2.094 3.5-4.094 1.5-5.093 3.5-10.22 1.5-2.5 3.594-3.093 4-1.5 4.125-3.594 5-5.593 3.5-5.72 2.093-5.593 2-3 3.5-5.687v-5.094l-.5-1.5v-1.5l1-3.625.5-4.094 2.5-4.094 3.5-4.593 4.094-7.594 1.5-8.72v-2l-.5-2.093-2.094-2 .5-2.093 10.188 2.093 3.5-2.093 3-4.094.5-3v-4.625l-7.594-12.281-1-1-3.094-1.5-9.093-1.5-1.5-.5-1-1v-5.094l-.5-6.72-2.625-7.093-.5-2-2.5-3.093-1-1.5-4.094-3.594-2-1.5-2-.5h-2.094l-1.5.5h-1.5l-4 6.094-1.094 1.093h-3l-5.593-2.593-1.5-.5-2 .5-1-1 1.5-2 2-7.72v-2.5l-1-4.593-1.5-5.094-1.625-2.093-.5-.5-7.094-2.5-6-2.5-7.594-2.594-2-.5zM1467.312 149l-3.5.5-.5.594-1.093.5 1.093 2.5 2 .5 2.5.5 2-2-1.5-2.594zm434.22 51.5-2.5 1-6.126 3.594-2.5 2-.5.5-3.5 1.094-4.593 2.5-4 1.125-3.094.5-3.5.5h-2l-2 1-4.094 4.093-4 4.594-7.594 3.594.5 2.094 5.594 2 7.094 3 5-.5 5.093-2 3.5-2.094 4.594-1.5 3-6.688 6.125-3.093 6.5-7.125 3.594-3.094 1.5-5.594-.594-1-.5-.5zm-173 3.5-13.72 4.094-4 2.094-2 1.5-.5 3.125 1 4.593 8.094 2.5 5-.5 4.125-2.094 5-1.5 3.094-5.125.5-4.593-.5-2.594-2.594-1zm44.593 23.906-2.594 1.5-2 2.594-8.625 9.188-6 7.625-4 5.687-5.093 4.094-6.094 6.094-7.5 6.125-11.094 6.687-9.219 4.094-12.093 6.719-6.5 6.093-4.594 3.594-.5 9.188-2.5 1-2 1.5-7.094 2.125h-5.594l-3.5 1-10.625 8.187-12.687 1.594-3 2-1.5 3.094 1 4.125 4.094 5.593 2 4.594-1 4-3 5.594-.5 3.094 1 4.125-.5 3.593 2 1.5 5.093-.5 9.625-2.094 7.594-5.125 4.5-4.593 5.094-5.594 1.5-.594 7.594-6.594 4-4.625 3.5-3.093 4.093-3 4-.094 4.625 1.093 6.594 1 7.594-.593 5-1 5.094-2.594 6.5-.5 5.593-1.5 4.125-4.594 1-4.625-.625-2.594h-1.5l-6.093-2-5 .5-1.5-.5-2.094-7.093-.5-11.813 1.5-2.5 7.094-2.594 11.093-4.093 12.625-4.594 15.188-7.219 11.687-1.594 9.125-1 6.5-2.593 2-1.5 2.094-2.094 2-2.5-1-3.094-3.594-2-1-.5-5.625-5.625-3-2.5-3.093-6.187-4-5.594-2.594-4-5.5-1zm-89.094.188-4.5 2.593-3.625 4.125-3.5 6.594-2.5 4.094-1.5 5.594-2 4.593-2.593 4.625-1 3.594-1.5 9.188.5 1 2.093 1 4.5-1 4.125-3.094 8.5-7.187 4.094-5.625 6-11.188 3.094-6.187-.094-5.125-1.5-3.5-1.5-1.5-2.5-2.094zm-50.312 157.218-4.5.5-4.594 1.594-.5.5.5 1h1.5l12.688 2 4.093 2.094 9.125 6 5.594 5.094-.594-4.594-1.5-2-2.5-3-4.125-4.594-4.5-2-3.093-.594-3.5-1z" style="fill:#9faec0" transform="translate(0 125)"/><path stroke="#9FAEC0" stroke-width="10" d="m483.438 845.25-1.032 33.844L480.72 928l-2.094 66.813-2.719 82.78-.594 15.5-9.906 2.407-9.187 1.594-6.406 3.094-5.094 4.124-3.688 3.376-1.719 4-2.187 4.5-.094 3-.813 4.406-2.187 3.5v.594l-.313 2.5 1.188 2.718 1.312 3.594-.593 3-2.094 4.813-2.313 2.687-2.187 3.5-1.625 3-1 1-.594.813-.5.593-2.187 2-2.719 1.282-2.375-.594-3.219-.094h-.781l-3-1.188-5-1.718-5.5-2.782-3-.125-3.219-2-1.687-2.281-3.094-1.906-4.406-2-3.719-.594-3.281-.719-3.594.907-3.125.812-3.281 1.781-4.219 2.625-3.875 2.782-2.219 1.906-1.094 3-.687 3.094-.5 2.718-.219 1.782-2.094 2-2.093.906-2.094 1.406-1.125 2.5-.094 2.5-1 2.594-1.687 1.406-1.594 1.5-2.407 1.781-1.312 2.125-.781 1.782-.125.593.312 2.5.313 1.719v1l-1.125 2-1.594 1-2.094 1.406-2.093 1-3.094.688-.407-.094-3.093-.406-5-1.813-2.5.406-2.625-.094-2.5-1.906-.375-.281-1.907-2.625-2-1.594h-3.593l-2.5-.187-2.5-1.72-2-.874-.407-.219-2.593-.094-4.125.313-2.875.687-.625.313-3 1.375-2.782 1.312-3.718 3.406-2.594 2.407-1.781 2.187-1.5 2.813-1.625 3-1.188 2.5.407 3-.094 3.093.875 3.094-.188 3-1.594 2-1 .5-.5.094-1.593.094h-7.5l-4.125 1.406-.5.094-4.188 1.625-5.906 3-3.094 2-3.5.5-3.5-.125-3.687.72-.313.28-2.187 1.407-.5.312-3 2-2.813 1.906-2.594 1.375-2.593.907-3 .406-2.72.5-3.093-.5-2 .5-.406.187-2.188.313-2 2.5-.593 2 .093 1.5-1.218 1.5-2.094.406h-1.5l-2.781.188-2.5-.5-2.625 1-2.782 1.406-5.312 3.687-5 3.125-2.281 2.282-.125 1.5-.594 2-.094 2.093-.594 2.5-2.218 1.625-2.282 1.094-3.093 2.094-2.813.812-2.312 1.282-2.875 2.093-2.125 1.407-2.594 1-2.594.812-2 1.5-.594.5-2.406 2.281-5.687 5.72-.313.405-4.406 5.282-4.281 6.406-2.625 6-1 4.594-1.782 7-1.312 7.312-1.188 3.281-.812 2.313-3 4.094-3.094 2.406-4.187 2.906-4.22 2.406-3.28 2.875-1.313 2.125.313 6 2 6.094 1.5 4.094 2 4.094-.407 3.718-1.218 3.5-2.875 4-2.625 3-2.5 1.688-.5.406-3.188 2.594-1.594 2.5-3.406 7-.594 3.5-.718 4.594-1.282 6-1.718 4.5-1.594 4.093-1.688 3.813-3.093 4-2.22 2.312-2.28 2.188-2.72 2.406-2.093 1.906-.312.375-2.282 2.125-2.312 2.375-1.688 2.125-.406.5-2 2.282-5.094 4.312-5.5 3.906-3.218 1.5L42.53 1457l-4.625 2-4.782 2.312-4.218 2.375-3.094.813-2.688.406-3 1.188-.406.312-2.094 1.688-1.593 2.593-1.5 6.125-1.72 6-.687 5.094.282 4-.594 3.594-2.188 3.406-.812 6.094-.688 5.594-1.312 6.812-.781 4.781-.22 4.625-1.78 3.782-.22.593-.905 3.625-1.688 4-1 3-.219 1.344v88.5l2.219 2.75.406.281 3 1.907 3.5.718 3.594.5.5.094 3.594.5 4.5-.094 4 .688 5.5 1.812 5.594 1.782 4.218 1.906 4.688 2 4 .5 3.719-.188 4.593-1.312 4.907-2 3.375-2.188 3.625-.906 5.093-1.312 3.594.218h.594l3.5.188.594.312 3.312 1.875 4.188 2.407 4.218 3.5 4.5 2.812 3.5 3.281.407.407 4.187 3.718 2.813 2.782 2.78 2.906.407.5 2.406 2.812 1.907 3.688.875 3.594.625 3.218-.22 2.875-.78 3-.22.625-.5 2.375-1 3.407.188 3.78h3841.063l-.031-1.28-.625-3-.688-4.094-1.406-1.5-1.281-1.406-2.719-3-3.094-2.407-5.187-2.28-1.625-1.407-2.875-2.5-1.718-1.688-1.094-1.312-.094-2 .406-2.094.875-2.5 1.5-1.594 3-.125 1.5-.094 2.625-.094 3.594.907 3.094.78 3.5 2.126 3.593.875 1.5.625 1.094.375 3.5-1 2.125-1.5 1.875-2.094 1.313-5.094-.094-3.406-.094-2.687-.125-2.594.406-1.125 1-2.875.5-3.625 2.719-4.188.78-.906.595-3.281.906-3.313v-3.5l.094-.812.406-2.781-.5-3.594-1.187-4.219-1.594-2.5-2.125-2-2.594-2-2.5-.906-2.281-2.094-2.125-1.906-1.594-3-1.5-2.281-1.187-2-1.5-2-1.407-2.313-.906-2.687-.687-1.907-2.5-3-1.594-2.594-2.219-3.406-2.594-.906-2.812-1.781-.5-.313-1.875-2.312-1.219-2.5-.594-3 .407-2.594.406-3.5.187-1.406.094-1.281 1.594-1.907 1.313-.906.812-.594 1.281-.812 2.5-1.094 2.5-.094 2.594-.594 2.906-1.594 3-1.718 1.594-1.688 2.5-1.594 3.125-.5 2.5-.718 2.281-1 3.22-2 1.093-2.5-.094-2.094-1.125-3.094-3.594-4.094-.781-.625-4-3.687-4.813-5.094-1.593-1.094-2-1.406-2.094-1.719-1.5-1.78.5-2.095.281-1.5.219-1.125v-2l-1.125-2-2-2.5-2.5-1.5-4.094-1-2.406-.875-1.688-.625-4.187-1.093-.625-.094-2.5-.813-3.875-2-2.813-1.375-.5-.312-2.187-2.5-.5.094-1.719-2.5-2.5-2-3.094-2-4.406-5.782-1.187-3.812-.594-3.5-1.125-3.313-.875-3.375-2.125-3-3.094-2.5-3.594-3-3-.906-3.093-.312-1.813-.282h-1.187l-2.5 1-2.594.594-2.5-.5-2.125-.906-3.094-2.406-1.594-.5-.906-.188-2.594.5-1.906-.5-.5-.094-1.687-.406-2 .187-1.5 1.5-1 .5-2.094-.593-2-.688-3.125-1.312-2.594-.5-4.5 1.687-4.406.406-5.688-.406-3.593-.094-3.907-1.406-2.593-1.5-2.5-1.875-1.594-1.125-2.5-2.094-3.125-1.5-3.5-2-2.594-1-2.687-1.594-.907-1.406 1-2.5 1-1 1-1.094 1.594-2.5.906-3.093-1-2.313-1.187-4.094-1.125-2.406-1.281-2.281-3.094-3.125-2.5-1.5-1.5.5-3.125 1.125-2.5 2.5-1.5.594-1.5.5-2.781 1.406-4.594 1.187-7.5 1.813-1.313.281-1.593.5-4.5 1.5-3.594 2.219-4.5 1.687-.906.407-3.094 1.28-2.625.126h-1l-3.594 1.094-4-.5-1.281-.407-1.813-.812-3.593-2.281-2.094-1.5-4.5-2-3.5-1-3.406-1.594-3-1-3.313-2.406-2.687-3.22-1.5-2.687-2.094-2.5-3.719-2.312-3.594-2-2.812-1.375-3-2.125-.594-.594-2.5-2.906-2.187-2.688-1.407-2.312-.5-3.594 1.094-3.281 1.906-2.625 2-2.688 2.5-2.593 5.313-5.22 2.781-3 .313-.374 2.28-1.906 2.407-2.22 1-2.687 1.5-2.593 1.313-1.907 2.406-3.187 1.875-2.625 2.5-2.094 2-2.406 2-2.5 1.906-2.188 1.594-2.5 2.719-2.093 3.5-1.72 2.406-3.593.5-2.5.281-.906-1.5-1.5-2.094-1.594-2.593-1.906-3.313-1-2.594-1.375-.593-.219-2.813-1.094-6.187-3.812-1.094-3-1.5-3.094-.5-1.406-.313-2.094-1.406-6.594.406-3.5.094-3.093 1-2.594.219-.5.5-.5 1.875-2.625 1-2.094 2-1.5.906-1.094-.593-1.5-1.5-1.5-5.188-3-3.125-.812-3.094-1.375-1.906-.406-1.687-.5-3.188-.313-3.625-1-2-1.5-2.594-1.906-.906-1.188-1.094-1.406-3.187-2.687-2.594-2.5-2.125-1.407-2.781-1.5-3.594-2-1.625-.406-2.5-.594-3-.593-3.594-.907-3.593-2-2.5-2.5-2.313-2.687-3.094-2.5-2.5-.406-3.28-1-2.626-.907-2.875-.812-1.312-.5-1.407-.281-1.093 1.187-.407.406-2.687 3.5-1.813 2.094-2.593 1.594h-3.5l-2.688-1.594-3.125-.906-3.594-.5h-2.5l-2.28-.5-3.626-1.375-.375-.313-1.406-1-2.094-1.906-2.219-3.5-1.593-3.094-1.688-1.906-2.5-1.406-3.125-.875h-1l-1.281.281-2.594 1.594-2.5 1-3.125 2.625-3.375 2.5-3.125 2.594-5.5 1.5-5.594-.907-4.093-1.5-5.188-4.593-2.625-1.5-3.094-1.5-3.593.094-1.907.687-.906 1.313-1 .687-1.594.719-2 .594-1.5-1.094-1-1.906-1.5-2.5-1-1.594-.406-.906-1.281-3.094-2.5-2.813-1.594-3-4.219-2.406-4.906-2.875-3.5-2-3.094-2.5-2.093-.906-2.5-1.313-3.094-1.906-2.594-1.5-2.625-2.5-2.594.219-2 .094-1.78 1.812-2 2.594-2 3-2.126 2.5-3.5 1.094-4.594.594-3.187-.094h-.813l-2.593.687-2.5.906-2 .094-2.094-.5-2-1-1.594-2.5-.5-.593-1-1-3-1.594-3.125-1.906-3.094-.407-2.5-1.093h-.5l-2-.907-1.187-.687-2.094-1.594-.406-.406-1.719-2-2.687-3-2.594-3-2.594-1.906-2.625-.907-1.281.125-1.219.188-1.5 1.594-1.5 1.406-2 2.687-1.5 2.5-2 2-2 .625-3.594.5-1.093-.312-.688-.406-3.625-2.407-2.687-2-2.594-2.5-1.5-3.5-1.094-3.593v-2.5l-1-3.094-.625-2.406-1.5-1.907-2.187-2.875-2-1.406-4.094-1-4.094-.406-3.5 1.187-1.5.5-2 .72-5 1.687-4.5 2.593h-1.625l-2.5-.187-3 .094-2.5-.906-4.094-.5-3.593.218-1.5.282-2 .625-3 1.375-1.5 1.718-2.594 3-2.5 2.188h-2.5l-2.5-1.094-3.594-4.5-2.719-3.687-2.593-2.906h-2.094l-1.813.593-1.406 2.188-1.187 2-1.688 6.219-.406 1.593-.313 2.688v4.125l-.406 3.094-.5 4v3l-.375 1-.812 1.5-2.407 2.093-4.093 1.688-3.407.406-1.78.313-1.813.094-5.813.094-3.281-.907-3.594-1-2.219-1.093-.78-.5-2.126.593-3.094.5-3.093-.5-1.407-.875-1-1.125.22-.687.28-1.313 1-2.5.5-2.593-.5-2-2.093-2-2-3.094-.594-2.406-.406-1.688-1.594-2-1.5-2-1.094-1-1.5-1-3-1.594-1.125-.406-5.094-1.906-3.093-.813-1.907-.28-3.593-.095-4.594 1.188-3.594 1.187-1.125.813-1.781 1.312-3.5.688-2.094.094-1-1.5-.125-2.094.906-2 2-2.094-.5-.906-.78-1.094-1.5-2.094-2.626-1.906-2.5-1.906-1.375-.313-2.219-.28h-3.593l-3.813 1.5-3.781 2.093-2.5 2.594-1.906 1.5-3.907 1.406-1.28.094-.407-.094-1.906-.906-.594-2-1.719-1.407-1.875-.094-1.406 2.72-1.406 2.093-.407 1.906-1.5.188-1.593.094-2 .094-1.907-.875-.593-1.125-.688-1.5-.125-2.5 1.406-3.094.5-1.594.907-2v-2.094l-1.188-2-1.312-.812-1.094.312-1.594 1.094-1.5.594-1.125-1.406-1.5-1-1.594-.5-1.78.906-2 2-.5 2-.407 3v2.594l-1.594 1.5-2 .125h-2l-1.5-1-1.625-1.5-2-1.813-1.687-.812-1.407-.375-3.093-.5-2.5-.125-3.5.125-3.594-2-4.219-2.22-.375-.405-3.312-3.5-2.813-4.5-64-36.688-42.781-24.5-75.906-43.094-112.094-31.906-28.219-8.094-84.594-23-39.687-10.812-66.5-18.188-15.219-4.093-38.594-10.406-118.687-31.813-17.813-4.781-130.5-35.625-50.5-14.094-22.5-6.344z" style="fill:#9faec0" transform="translate(0 100)"/><path stroke="#9FAEC0" stroke-width="10" d="m116.5 1693.375.031.438-.125 2.593-.094 2.5 1.406 2.594 2.594 2.594 2 2.5 5.094 5.594 4.812 6.218 3.313 5.782 2.281 5.624 1.813 6.188.687 2.594 1.813 3.594 3.28 5.624.313.5 2.813 4.376 4.187 4.718 3.688 2.688 3.406 2.094.594.312 5 1.813.5.5 2.125 2.28 3.187 2.313 2.407 4.282 2.406 3.624.781 3 .313 4.594.187 2.688-.187 1.906-.5 4.594-.5 3.5-.907 3.219-.312 1.28-.188 4.095.313 4.124.594 2.594.28 1.5-.187 5-.687 3.594-1.125 3-1.688 3.5-1.406 1.688-2.906 3.5-1 .906-5.594 5.219-4.594 5-2.687 2.78-1 1.407-2.906 3.5-1.313 3.094-1.281 1.312-1.625 2-4.688 3.282-2.593 1.906-3.72 3.406-2.78 2-1.813 3.313-1.5 3-.594 4.093.407 3.594 1.187 4 .5 3.5.406 2.313-.406 3.78v3.095l-2.094 4.5-1.812 4.124-.281.376-5 7.624-3.407 4.376-1.5 2-3.406 3-.406.312-4.094 3.406-3.5 3.282-3.406 2-4.188 3.406-3.593 2.312-3.22 1.5-2.874 1.407-2.813.874-2.593 2.407-1.22 3.5-.593 3 .813 5.719 2.187 6.187 2.406 5.094.813 4.094-1 3.406-.906 4.719-2.22 4.687-1.187 4.313.188 6.593.812 5.094.094 4.594 1 5.594.094 3.218 1 4.594-.094 4.5-.687 3-1.594 3.5-2.219 3.188-.5 1-1.781 3.124-.219.5-1.406 2.594-1.188 3.5-.5 4-.5 8.688.688 4.594.5.718 2.406 4 2.406 3.594 2.688 2.5 2.219 3.313.781 3.593.406 3.407v3.687l-1 4.094.5 5.094v4l-1 3.624-.594 4-.094 3 .282 5.094 1.718 7.188 1.188 5 1 6.094.719 4.312-.72 4-.905 1.688-1.094 2.218-1.781 2.594-.313.313-3.406 3-2.781 2-3.5 2.874-.407.407-2.312 2.5-5.281 4.812-4.407 4.094-4.906 4.313-3.5 2-1.906 1.593-1.188.907-2.593 1.593-2.625 2-.5.5-2.188 2.282-1.594 2.5-.593 2.5-.72 3.624-.405 2.282v5.594l.812 3.406 1.5 4 2.406 3.594 1.907 2.124 3.5 3.188 3.375 3.688 3.312 2.812 3.688 2.813.312.28 2.594 3 1.812 2.22 1.407 3.687 1.375 3.094.312 3.094-.187 4.624-1.72 9.688-2 9.406-.405 2-.094.782-1.188 9.812.094 10.188.094 2.406.906 3.5 1.5 4.719.407 1.28.187.5 3.594 7.72 3.5 7.593 1.312 5 .094.594.094 4.594-1 12.312v.782l-.78 13.906-1.407 8.594-2 5.906-3 4.094-3.188 2.312-2 .688-.5.312-2.406 1.313-1.906 1.5-1.688 3 .375 3.5.407 2 1.218 3.093 1.594 4.5.688 2 .312.594 2.188 5.406 1.593 4v.688l.22 4.219-.313 4.874-1.407 5.407-.875 1.812L57.22 2431l-.188 2.688.875 4.124 1.313 3.594.312 4.282v4.624l-1 4.5-.5 3.594-1.718 4.688-.5.812-2.907 5.188-2.687 5.406-2.813 4-1.375 3.188-.125.624-.78 3.688-1.22 3-.687 6.906-2.594 8.094-4.219 5.5-3.687 4.406-3.313 3.907-2.187 4-2.188 4.874-1.312 6.626-.813 6.5-.25 1.656h3860.875l.688-1.563 1.5-2 3.5-7.093 2-6.626-.594-6.593 2.5-5.094 3.5-7.594 1.5-5.593 1.5-4.126 1-4.593 4.5-6.094 17.187-13.812 6.094-.095 1.5-1.5.5-3 1.5-4.093 2-4.094 4.625-9.094.375-4.625 2.5-4.593 3.625-4.594.375-6.094.5-.5h2.125l1 .5 1.5 2 .5 1h.594l.5-.5-.594-4 1.5-2.094.5-1.5v-3.125l5.094-1v-1l-2.094-2v-7.593l-1.625-2.594-5.594-8.594-2.093-7-1.594-5.094.406-8.125.5-5.093 1.5-3.594 3-3 2.594-1.594.5-4.5 3.5-3.594 2.5-2.125 1-3.5 2-3.593 2-2 4.594-1.594 10.687-4.094 11.125-4.719 12.188-3.593 6.093-1.594 6.094-1.094 10.125-1.594 8.688-4.625 12.687-1.093 17.219-2.688 8.187-.594h8.094l3.625.5 6.094 2.5 4-4.125 1-1.093-1-3.5 1-.5 3.594 1.5 4.593-1.094.407-2h-6.094l-1-1.5.5-2 1-.5 7.687-.094 3.5 2.5 1.5-2 3-9.719-.094-8.594 1.5-13.187-1.093-6.594-1.094-7.625.781-23.875 1-8.625 2.5-7.594 3.5-7.687 2.906-10.72 1.5-3 3.594-2.593 1.5-1 4-3.094 4.094-2 1.5-.094 1.625.5.5 2.594 1.5.5.5-1.594-1-3-1.625-2.5-2.5-2.5-2.094-.5h-4.094l-3-1-4.593-3.5-5.22-6-14.187-5-19.906-1.406-.687-1.094-.813-1.406-1.594-3-1.5-2.594-3.593-3-2.594-2.5-1.5-4-.719-2-.187-1 1-2-.219-2.718-.094-2.875-1.094-2-2.094-1.407-1.218-1.593-.594-.625-.906-1.5-.688-1.094-2-3.5-3.906-3.281-3.406-2.813-4.5-.406-2.782-1.594-3-1.594-.718-.5-1.5-1.406-1.688-2.5-2.594-1.406-2-1.594-3.093-2.5-2.72-2.594-2.593-2.5-2.406-3-2.5-1-3.094-2.406-1.594-2.594-.5-4.5-.218-2.718-.282-2.875-1.093-5.625-1-4-.125-3.094.406-2.906.312-1.5 1.907-3 2.5-3.188 2.375-2.187 2.125-2.5 2-2.5v-3.125l-1.125-2.094v-4.5l.5-3 1.312-2.094.688-1 .5-2.5-1.094-2.094-.5-3.093-.094-2.625 1.594-1.375 3.593-1.407 2.5-1.718 2-1.5.5-3.094-.5-3-.094-3.594.5-4.5.313-3 .187-2.094-.094-3.593.313-1.125.687-2.875 1-2.625 3.094-6.782 3.406-9 1.094-2.5 2.906-6.593 1.407-5.72.78-1.187 2.5-3.906 2.907-4.187 3.813-5.22 3.5-4.593.406-.406 2.781-2.406 3.594-3.188 1.406-3.594 1-3.406.406-4.594 1.688-3.812.906-1.5 2-3.188 2.406-2.218 1.094-3.594 1-3.5v-4.094l-.594-3-1.187-3.5-1.625-3-1.781-3.187-1-2.22.406-2.78-.625-2.813-.594-2.594-1.094-3-1.312-1.218-2.094-1-4-2.094-2.094-1.5-2.593-3-1.594-2.281-2.125-2-1.875-2.22-.5-.593-1.125-1.5-2.5-1.5-3.594-.906-2.5-.5-3.406 1.219-2 .875-.688.5-2.5 2-3.093 2.625-3 2.28-1.094.907-3.406 2.594-3.094 2.594-1 .812-3.5 4.594-2 2.594-1.5 4-2.5 4.125-1.5 2.593-1.219.188-1.281.312-3.813 1.688-.812.406-2 1.5-2.594 2-2.5 3.313-.906 1.375h-3.594l-1.094-.188-2-.312-1.5-.5-1.187-.5-1.5-.5-2.5.718-1.5 1-2.406.407h-2.094l-1.5-.22-2.625-.78-1.594-1-1.5-1-3.094-.907-2.093-.406-2.5.594-1.594.094-1.313.219-2.5 1-2.593 1-2.5.593-2.094-.406-3.906-.594h-1.094l-1 1-1.5 1.094-1.125-.094-1.594-.906-.906-.281-1.094-.219-1 .594-1.5 1-2 2.5-1.5 3-1.281 2.312-3 1.688-2.719.812-.281-.687-1.125-1.5-.594-2.5-.594-2-1.593-2.5-2.5-1.5-3.094-1.5-2-2.125-.406-.594-1-2.094-1.72-4-.093-2.406-1-2.094-2.094-1.406h-.906l-1.094.094-.5.906-.5 3.094 1.094 1.406 1 1.594.5 2.5-.5 1.125-1.406 1.688-.782.906-1.5 1.5-2.906 1-2.187-.719-1.5-1.5-1.407-1.281v-1.5l.188-1.219-.094-2 1-3.094 1.906-3.406 2.5-2.5 3-2.687.5-.594 1.094-1.406-.094-2.5-.906-2.5.406-2.094.5-2.5 2.5-2.594 2.5-2 3.687-3.719 1.907-1.5 1.5-2.5-.594-2-1-2.593.687-3.907 1.094-1.5 2.906-2.687 1.907-2.594.906-3.125-.594-3.5-1.125-2.5-.594-1.594-.78-1.5-2-3.5-2.22-3.5-.906-3.593-1.094-3.5v-1.594l.22-1.313.28-3.5 1.5-3.281 1.5-3.125 3.313-3.5 5.281-5.781 2-1.313 3-2.187 2.719-2.5 2.687-2.594 6.407-6.406 3.812-3.594 2.594-1.719 3-3.187 1.781-2.594.813-1.812.406-1.188.5-3.719.406-3.906 2-3 1.5-2.594 1.094-1.093 1.187-.813 2-.5 2-1.594 2.5-1.187 2.5-1 2-1.094.907-1.625v-.594l-.094-3-1.094-2-2.125-2-.688-1.187-1.187-1.719-4-3.5-.406-.375-2.22-3.125-2.093-3.594-.594-1.406-.687-2.375-1.719-3.5-.687-5.312-1-4.094v-4.094l-.5-3-.062-3.437H116.498zm4615.219 98.813-8.188.124-2 1.594-1 3 1.094 3.594 1 3.5.094 5.094-.5 3.5-.5 1.594-1.5 5.624 2.094-.5 3-.624 2-1 1-1 2-1.594 6.219 1 3-.094 1.5-.5 1.5-1.5.5-3.594-1.125-5.594-1-3-1.594-3.5-1.5-2.625-2.094-1-1.5-1.5zm-87.906 10.5-3 .124h-1.5l-1.5 1.5-2 2.094-1.094.5-2 3.5-1.906 7.188-2.907 16.312-1 5-1.5 4.094.625 4.594 3.094 8.094.5 3.5 1.594 1 1.5 2.124.594 3 .5 3.5v2.094l2.593 5V1878l-3.5-.5-2.094-1-1-2.5-1.093-2.094-1 .094-1 1-1.406 10.688.093 6.625 1.5 1 2.126 2.5 2.5 2 1.5.5 2.593 1h2l3-4.625.5-5.094 1.5-.594 2.094 2.094 1.406-7.187v-3l8.094-2.594 1.5 1.5 2.594 2.5 1.594 5.594 1.5 1.5 1.624 3.5 2 2.5 1.594 2.093 2.5 1.5 3-4.093 4.094.406 2.094 1 7.094 2.5 3.624 1 1.5 2h1l1.5-.5 3.594-3.125 1-2.594 1-2-.094-2.5-1.5-3.094-3.125-7 1.5-2.593 2-3.094.406-6.125 1-1v-1l.5-3.594 1.5-1.5 3-1 1.5-2.594 5.094-.094.5-1.5 1-7.093 1.5-3.626 3.406-13.187v-3.094l-1.593-1.5-5.094-3.5-2 1.094-.5 2.5-1.5.5-3.094-3.5 1-3.094 1.5-1.5-.5-1.5-4.718-5.093-1-.407-2-.5-3.594-.5-3.5-1h-3.094l-2.5-.406-2.094 1.5-4 3.094-4 1-3.625.594-4.094-.5-5.593.624h-2.5l-2 .5-3.094 1.594-1.5 2.5-.406 3.094-1.5 2.5h-.5l-2.094.094-.5-1.094v-3l.406-5.593v-3l-.5-2.594-.625-4.625zm12.093 93.906-2 3.5-2 .094-4.094-2-1 1.5 2.594 3 1 .5 1 3.625 2.125 6.094 3.094 2.5 2.594 3 3 1.5 2.594 2.5 1 1 1.593.5 1 3 2.125 6.093-.5 4.094 1.094 4h1.5l1-.5 1.5-3.594-.5-4-1.094-6.093-1.125-2.5-4.094-4.094-2-2.5-1-.5-1.593-7.625-5.188-6.5-1.625-6.094zm-27.687 24.594-2.5 3.124.5 5.594 1.593 2.5 3.094 1.5 2.5 1.5 3.625-.593.375-4.5v-2.626l-5.094-4.5zm-48.594 18.718-2 2.094-2.594 3.594-.406 7.094-1 2h-1l-4.094-1.5-1.5.124-2.5 1-5.125 2.094-2.594-.5-2.5-1.5-3.093-4.593-.594-4.5-1.5-1.5-2-1.5-3.094.5-3.5 2.593-1.5 3.5-.406 8.188-.5 3.5-1.5 10.219-1.906 10.687.593 4 1.5 3.594v2l-.5 1-2 1.094-3-.5-3.593-.5-3.594-2-1-.5-1-2-3.594-1-2-.5-3.625.624-3 1.5-1 2-.875 12.188-3.125 3.594-1.375 4.094-1 7.124-.5 4.594-3 7.094 2.094 7.594.594 4.094v5l1.093 6.624.094 9.188-.5 1h-1l-7.187-2.5-2.5 1.094-3 1-4.094-.5-2 1.094-1 3-1 3.124-2 .5-2.594-1.5h-2.5l-2.125.594-2.5 2.5-3.5 3.594-2 3.594-1.5 4 .5 5.094 1.125 5.124.094 8.594V2107l-2.5 2.094-3.5-.5-3.093-1.5-3.625-6.094-3.594-4.5-2.594-2-3.5-1-8.187-1.5-7.125.094-1-1 1-2.5.406-5.594-.5-1-4.594 1-4.5 2.094-3.094 3.094-.906 2v2l2.5 1.5.594 2.625-3.594 2-1 5.094-1.406 7.593v5.594l.594 5.094v6.625l3.125 4.5-1 1.094-3.5.5-2.625-2.5h-2l-7.594 4.593.5 1.5 2.594 1-2 7.688-1 7.125-.375 9.594 1.593 6.593-.906 9.188-2 7.125-2.5 4.094-2.094 1h-4l-2 .593-2 5.594-1 6.094-1.5 4 .594 7.125 1 5.094-.406 4.593-1 2-6.094.094-2.594-3.593-1-2.5-1.593-1h-3l-1.5 1.593-1.5 3-.5 4.594-3 3.625-3.625 2.5-4 2.594 1 4.094-2 4.5-3 4.093-2.5 7.094-3 6.219-2.5.5-3 .5-1.094 1.594-.406 2.5-1.5 8.093-2 4.094-8.594 10.219-.5 1.594-1.406 5.5-1.5 5.593-.5 4.094-3 8.125-.875 4.094-3.5 8.187-2 5.594-2.5 7.125-2 4.594-2 3-3.125 2.094-1 1.5-1 2.593-.875 3.5-2 4.094v8.625l-1.5 2.094-5 7.594-.5 4.093.094 4 3 4.094 5.687 3 2.5 2.5 6.72 8.5-.5 2.125-.407 10.094.593 10.187 2.094 10.594.094 5.125-.5 1.5-1 4.594v5.594l1.125 3 3.094 7.593 2 2.5 3.594 2 8.687 3.5 8.219 4.5 2.5-.593 3.094-2.5 1.5 2.5.5 4 4.187 5.593 3.625 4 7.594 6 6.188 5.094 4.593 4h1.5l3.625-3.594-.125-4.093 2-2.5 5.125-2.594 3-3.594 3.094-2 3.5-1.125 1.5-1 1.5-6.594 1.5-9.187 1.906-6.594 2.5-8.625 2.5-5.094 4.094-3.593 2.5-1.5 8.594-5.188 5-4.125 2.094-1.5 6.593-2.594 2.5-2.093 4.5-5.594 2-1 6.625-2.094 4.594-2.625 1-1.5v-3.094l-1.094-3.5.5-7.593-5.718-5.5-2-4.094-2.094-6.094 1-4.5 3.5-5.125 7.5-8.187 7.594-5.688 9.593-4.625 4.125-2.594.5-3.5-.125-3.093-1-4.5-.5-1.594-3.093-1.5-6.188-5-2.5-4.5-.594-9.094.782-14.812 2.093-2.5 2.406-7.688 5.093-8.125 3.907-10.687 6-11.188 4.593-4.125 9.125-4.187 4-2.5 2-9.688 1.5-4.625.875-6.593 1.5-4.094 3-5.094 1-3-.5-6.094.407-5.625.5-7.593.906-7.594 1.5-2.094 2.5-2 4.094.406 4.093.5 4.125 1.5 2 .5.5.5.594 4.094.5 2 1.5 1.5 1.094 2 .5 4.594.5.5h1l4.594-4.594 3.5-.594v-1l-1.094-8.125 1.5-5.093-.5-1-3 .5-1.094-.5-1-6.594-1.094-1-4.5-.406-2.625-2.5-2.093-4.094v-2l.5-2.594 1.5-2 2.5-3.094 4.593-.5 3 .5 2.125 2.5 3.094 4 4.094 2.5 2 2.5 1.094 4.094 1 1 2.5-1 1.5-5.594 2-2.125.5-5.593 3.5-.5 2.593 4.5V2166l-3.093-1-.094-6.594 3-6.094v-2l-1.594-4.625-.5-3-1-1.5-4.094-3.593.5-1-2.125-2h-3.5l-8.187-3.407-1.5-1-.095-5.093-1.5-4.094-2.593-4-1.625-3-.5-2.594 2-3-1.094-6.094 1.5-3.125 3.094-1.5 3-1.093 3.125 1.5 11.781 17.218 2.094 3.5 2 2.5 5.125-2 3.594-1.625 4-4.593 1.406-5.594-5.125-2.5v-3l-5.094-2.5-1.093-6.094-1.5-6.094-1.094-6.125 1.5-6.093 1.906-12.188 2-5.594-1.625-5.5-.594-4.625v-3.093l-.5-1.5-.094-5 1-1.594 3.094-.5 1.5-.5v-2.594l-4.187-10.594-3.094-4.5.5-1.625-1.625-5-2.5-4.093-3.594-3.5-.594-2 1-2.594 2.094-2 2 1.5 1.594 6.594 2 2 3.219 8.593 1 1 4.5-4.093 1-.5 3.093 1 2.594 3.5 4.094 2 5.125 2 1 2.5 2.094 9.093 2.093 3.625 5.594-.125.5-4.593 2-.5 3 .5 2.094 1h1.5l1-2.594-.5-3.5 3-5.594-.594-1.594-2-1-1.593-3-1.5-2v-3l1-1.625 7.093-3.093 1-1.5.407-3.094-1-2.5-4.594-2.5-2.094-2.5-1-5.094-.125-6.094 1-3.5 9-12.812v-4.594l-7.281-14.094-3-2.125-5.594-1.375-3.625-1.5-2-.5-2.094.5-2 2.594-2.5 1-3.593-.5-4.094-4.5zm-247.219 104.782-2.5 2-1.5 3.124-1 4.094-3 3.5-4 2.594-3.094.594-2-2.094-.094-3-1-1-2-.5-4.593 5.094-3.5 1.594-.5 1.5.5 4.624.094 3.5-1 5.594 1.094 4.094.5 4 6.093 2 12.813 7 16.906 11 1 .5.5-1-4.094-7.094-.625-1.5-1.5-1.5-1-2 .406-3.093 1.5-10.626.407-5.593V2068l-1-2-1.094-5.594-1-3 1.906-6.593v-3.626l-.5-2-1.5-.5zm62 49.218-2.594 1.5.594 2.594 1.5 1.5 2.625-.5 1-1.594.5-1-1.125-1.5-1.5-.5zm-33 69.782-3.5 1.624v3.5l2.125 1.5h1.5l2-1 1-3.624-1.625-1.5zm-205.594 35.812-2.093 1.5 1.093 3.5 2.5 1 1-.5 1-2v-1.5l-.5-1.094zm175.907 2-1 1.094.094 2.5 1.5 1 1 1 1.5-.5 2.093-1.5.907-3.094-.5-.5zm-115.813 16.688-.5 1.624 1.125 2v1l1 1h4.094l2-2.124v-2l-.594-1-2.5-.5zm49.906 184.312-2.593 1.594-3 3.5-1 4.094-2.5 2.124-5.594 4.094-6.5 6.094-4.594 3.094-1.5 4.594-2 2.5h-1.5l-1.5.5-1.5 2.124-1 6.094-3.5 2.5-2.125.594-3-1-4.594-2.5-1.093-1v-1.5l1.5-3.094-.5-1-1.5-1-3.094-1.5-3.594-3.5-2-.5-1.5 1-.5 1.5 1.5 5.094 4.688 5.5v2.094l-2 3-3.594 3.594-2.5 1-1.5-.5-6.719-1.376-1.5-1.5-.5-2.624-1.094-1.5h-1l-1 1.124-.406 9.094-3.594 4.094-.406 3.5-2 8.688-1 2-3.5 2.624-5.594 6.094-1 .5-1-2 1.407-8.093-.5-.5-3 5.593-2 .5-1-.5.406-4.093 2.5-7.126 1.5-7.093v-1l6.594-1.594.5-1v-2l-2.594-2-4.094-1.5-15.312-.406-2.5 1.5-6 5.719-14.688 8.687-2.125 1-4 4.594-3.5 5.094-3.5 7.218-5.094 5.094-5 7.594-4 11.219-1.5 3.593-2 2.5-5.093 2.594-5 6.594-1.5 6.094-4 7.124-4.563 5.657h278.438l3.031-5.875-.094-6.094-1.125-7.094v-3.5l1-3.093 2.5-3.626-.5-2-4.594-4-9.781-8.5-16.313-10.5-4.093-4.593-3.594-1.5-9.719-2.906-6.187-6.594-2-1-3.094-.406-5.219-10.688-4.594-9.594-4.187-9.593-3.125-6-7.688-13.626-2.593-2.093-7.594-.906-2.125-1.5h-1l-2 .5-2 1.624-1.5 1.5-.594-1v-2l2-3.624.5-2.594 1.5-1.5 2.594.5 6.625.5 4.094.406v-1l-2.594-3.5-.5-2-2.125-1z" style="fill:#9faec0" transform="translate(0 75)"/><path stroke="#9FAEC0" stroke-width="10" d="m22.656 2541.469-.437 2.937.812 4.594.5 1 2.375 3.094.5.5 4.219 3.312 4.594 3.782 7.5 4.406.406.312 6.094 3 4.906 3.188 3.5 3.219 3.406 3.187 3 1.188 4.594 2.406 4.406 1.5 3.5 2.219 2.375 1.78 1 .907.313.313 2.594 2.874 2.406 3.126 3 3.187 4.094 2.813 4.906 4.374 3.906 3.907 3.781 4.219 4.125 4.593 3.094 3.407 3 3.593.188.5 2.312 3 .281.5 2.906 4 2.907 4.094.312.5 2.594 3.688 3 3.906 3.781 3.5 5.406 4.312 10.407 8.094 8.906 8.406 4.188 4.782 2.406 3.406 1.594 4.5 1.718 3.5-1.125 4.094-.094.5-.687 2.5-.594 3.5.375 3.124 1.312 3.594 2 1.094 4.313 2.094 2.875.906 4.125.906.375.282 2.625 1.812 3.187 2.313.407.187 3.593 2 3 1.688 3 .124 1.407.282h1.187l3.594.5 2.906 1.594 2.22 2 2.5 3 1.593 2.624 2.406 2.876.875 3.124.312.376 1.594 2.718 1.5 1.594.406.406 1 1.188.407 2.594.094 2.812v4.094l.5 3.5.5 2 1.5 2.594h2.594l3.406-1 3.187-1 2.5-.782.625-.218 3-1.094 2.594-.906.5-.095 1.5.407.5.312 1.5 1.094 2 2.094 2.406 2.094 3 1.718 2 .782 3.594.406 3.5-.406 2.094-.907 3.094.219 3 .094 2.5.594 3.593 1.219 2.5.593 3.407.407 3.218-.126h2l3.5.126 3.188-.313 3.906-.187 4.094-.5 3.406.593 5.188.907 10.312 1.874 5 1.626.5.187 6.094 3.5.406.188 4.688 2.312 5.593 1.5 4.813-.094 2.812.094 4.875-.687 4.625-.907 4.594.188 5 2.312 6.406 2.094 10.688 4.594 6.906 4.406 6.406 4.406.375.282 3.625 2.624h.5l3.282 4.594.312.5 2.594 4.094 2 3.406 1 5.094 1 4.594.812 4.219v1.093l.782 5.094.406 4.594 1.312 5.219.688 6.593 1.812 5.594 3.094 5.313.188.5 3.093 5.374 6.22 5.626 7.093 4.5 6.187 4.687 5.5 5.906 4.125 5.907.5.593 2.5 2.907 3.594 4.28.281.313 5.813 6.282 8.187 6.624 6.72 4.782 5 2 .5.094 6.593 1.312.5.094 7.094 1.313 6.718 1.281 10.375 3.5 9.907 3.813 11.218 3.687 11.282 5.5 6.218 1.813 4.594.687 5 1.125.906.281 3.688 1.5 4.5 1.22.5.093 4.5 1.281 4.187 2.625 1.813 2.094 2.406 1.594 2.594.812 2.906 1.094 4.094 1 4 1.5 3.094 2 4.406 3.094 2.906 3.187.406.625 3.188 4.282.406.312 4.281 3.688 4.313 3.093 6.594 3 5.718 2.625 5.875 2.375 4.407 3.813 3.5 2.594.406.218 3.5 2 3.594 1.188 3.5 1.187.593.22 3.907 1.5 3.5.593 2.312.906 3.5 3.094 3.688 3.187.406.407 2.906 5.093 1.594 2.625 1.187 2.094 1.907 5.094 2.812 4.187 3.5 2.313.5.406 3 2.094.5.312 4.781 3.875 2.625 2.813 3 5.687.188.5 2.312 6.72 1.688 3.687.187.5.907 3 .094 4.093-.375 3-2.22 1.72-.405.5-1.688 2-2.594 2.593-1.406 2.406-.5 2 .5 3.594v3.5l1.594 3.594 4.5 3.5 6.594 4.218 4.125 2.875 2.28 1.907 2 2.093.313 3.125.594 2-1.094 4 1.5 3.375 2.5 4.907 2.407 3.718 2 2.594 1.093 3.5v.594l-.312 3.094-1.281 2.906-1.72 3.187-1.78 4.625v3.188l-.125 3.5.812 4.594 1.313 4.718 2.875 4.594 2.406 4.188 3.219 5.5 1 2.593 1.875 3.813 1.625 2.594.28.5 2.407 3 .5.718 2.5 3 4.094 2.594.906.594 2.688 1.5 1 .594 2.125 1 .5.593 2.875 2.813 4.625 4.5.375.5 4.218 6.094 3.594 6.093 4.313 4.407 3.875 4.218 5.718 6.094.407.281 6.687 4.813 2.906 2 2.594 1.312 6 3.782 4.188 2.406 4.125 1 4.093 1.5 6 5 4.688 3.594 4.812 2.312 6.5 2.781 3.5.5 4.094.813.5.187 5.5 1.625 1.688.5 2.812 2.688 3.188 3.812 1.406 2.688 1 3.687.719 3.907.5 3.906 1.093 3.5 1.5 4.094 2.188 2.312 3.5 2.688 3.094 2.812 2.906 2.281 5.594 3 5.125 3.125 4.093 1.594 1.094.688 3.5 2.218 1.813 3.094 1.78 3 2.595 3.781 2.906 3.125 3.719 4.188 2.687 2.312 1.094 1 4.5 3.875 4.219 3 3.28 3.407 2.095 1.906.406.406 3.594 1.781 3.625 1.907.375.312 3.218 1.906 2.282 1.282 2.812 3.218 2.594 2.594 2.406 3.688 1.594 2.312 1.5 2 1.719 2.406.28.5 2.095 1.688 1.625 1.5.5.312 3.375 1.875 4 1.72 4.5 2.187 4.906 2 3.719-.094 4.593.812 1.907.375 2.593.719 8.094 1.187 3.094 1.094.5.125 4.094.188.5.094 4.625.218h.5l3.5.094h.5l4.093.688.5.094 4.688 1.625 4.312 2.187 2.5 1.688 2.407 1.312.062.094h3054.593l1.125-4.593 4.5-14.188 7-10.219 7.094-9.187 4.5-6.594 1.5-9.125-2.094-8.094.407-14.187 2.5-10.594-1.094-4.125 2-7.594.5-4.593 7.594-7.594 6-5.594 7.093-5.219 3.094-3 8.125-4.093 7.594-3.594 9.094-4.219 10.687-5.094 9.125-6.687 6.594-2 2-7.719 7.094-7.094 7.593-8.687 4-6.594 4.5-7.625 4.094-6.094 2.906-13.687 2-6.594.407-11.719.5-4.5v-2.593l-.594-6.594-2.594-11.594-1.625-8.625-3.687-8.094-4.094-12.093-5.219-10.094-6.687-13.094-5.313-17.219-2.594-10.094-1.093-14.687 1.406-13.125 3.5-6.188 3-5.5-1.5-4.594 2.406-11.218 5.594-9.094 3.5-9.688.906-5.093.5-9.125-.625-10.094 1.406-10.188 2-9.093 3-12.22 3.407-10.093.5-10.687-.094-9.125 1.406-8.594-.5-4.594 6.5-14.687 5.375-30 1.906-14.72 4-13.187 2.406-9.218v-7.094l1.407-9.594 5.5-10.687 4.593-8.125 4.407-11.188 3-10.687 2.5-8.625 3-4.594.406-8.594 6.094-5.187 6.093-5.125 3-5.094 6.5-10.188 4.094-2.5 3-5.093 6-8.72 1.5-7.093 2.5-3.594 4-8.093 3.5-10.22 2.406-11.687 1.094-1.5 7.5-14.312 2.5-6.094 6-9.094 3-10.718 3.5-7.688 1.406-10.094.5-6.593 1.407-6.125.5-5.594 1-3.5 2.5-7.688 4.5-9.093 1.468-2.844h-278.437l-2.031 2.531-6 8.688-6 10.218-10.594 18.782-9.625 10.218-1.375 5.094 1.094 11.688 2.593 14.125-2.5 8.687-6 9.688-4.5 5.625-3.593 5.093-5.5 7.094-3 6.594-.5 5.594-2 4.125-3.5 5.093-2 3-4.094 4.094-2 2.094-7.125 2.594-7.594-.5-11.187 1.125-5.594 1.593-3.625 2.5-6.5 6.188-15.687 12.312-2.594.5-2.5-.5-3.094-1-1.5-.5-2 .5-6.625 5.688-3.5 6.094-5.594 4.125-2 2.5-1.5 7.093-4.5 5.094-3.594 6.094-5.5 5.094-4.593 2.625-6.094 4.093v1l1.094 1h1.5l3.5-2 3.593.5 1.5.407-.906 4.593-.5 3.094v2l-2 4.094-2 2.5-5.094 8.719-5.5 11.187-2 1.5-3 7.594-2.5 3.594-4.593 3.125-8.094 1.5-12.812-.407-11.688-1.906-9.219-3.5-9.687-6-5.594-1.5-2.125-1-1-2-1-.5-1 .5-1.5 4.094-2.094 1.5h-3l-.5-.5 4-3.5.5-.594v-1l-.5-1-2.594-2v-2.5l-.5-1-2.5-2-5.687-5.594v-1l.5-1h1l4.094 1.5 1.5-.5 1.593-1.093 1-1v-1l-2.093-1.5-2-2.5-4.094-3-4.125-2-1 1-.5 3-1.594 1.093-2-.5-2-1.5-.094-4.093.5-2.5.5-1.125 5.594-4.594 2-.5 7.719 2.5 2.5-1h1.5l.593 2 1.5 1.5 1-1 .5-1.594-1-1.5-.5-2.5h-1.093l1-7.594-2.125-5.593v-2.5l.5-1.5 1.5-1v-3.125l.406-13.188-.594-10.594.5-5.093.5-1.5h1l.594 1 1 1 2.594 12.093v1.594l.5.5h1.625l5.593 2.5 9.188 8 3.094 6.594 1 3.5 1.625 2 1.093 7.594 1-.5.407-5.594.5-5.094-.5-1-1.5-1.5-10.313-13.094-5.094-5.5-5.218-1.5-.5-1-3.594-12.093-2.594-9.22-.5-.5-2.594-.405-.5-1.094 3.5-7.594v-1l-.5-3v-1l.5-.094 2.5 1h.5l.5-.5.5-12.594.407-7.125-.5-4.093.5-.5h.5l4.593 3.5h.5l.5-.5.5-1.5V2663l-.5-.5-4.593-2.5-1-1.5-.625-1.5 1-1 .625-.5 2.5.5 3.093 2h1.5l1-3.094.5-.5h1.5l1.594 3.5h1l1-1v-5.594l-.594-5-1.093-9.218-.5-10.094-2.125-3-2.094-2 1.594-2.094 4.625 2.5.375-8.094-2.094-3.5 5.594-7.218 3-2.5 2.5-5.094.5-3.594 2.5-6.094 3-4.625 6.125-6.093 2-3 1.5-3.594 5.093-3.594 5.594-.5 1.5-1.094-.5-3.5-1.094-.5-1-1.5 1-1.5 3.594-3.125 5.313-12.218z" style="fill:#9faec0" transform="translate(0 50)"/><path stroke="#9FAEC0" stroke-width="10" d="m1041.094 3389.594.312.5 2.125 2.593 1 1.313 1.5 1.094 3 .593 2.5.626 3.688.593.406.188 2.094 1.218 3.406.376 2.781.124 5.625 1 5.782 2.5 5.906 2.5 4.593 2.5 4.094 3.094.813.688 2.187 1.812 2.625 3.5 1.688 2.188.5 1.218 1.406 3.688 2 4.094 2.594 2.718 2 2.594 2.094 3.188.312.406 3.188 4.188 2.093 3 2.813 3.218 3 3.282 3 1.812.5.5 3.5 2.906 3 2.5 2.094 4 2.718 3.094 2 1.688.375.406 2.219 1.406 2.188 2.813 2 3.187 2.812 4.094 1.5 4.593 4.594 12.126 2.187 5.374 3.625 4.407 2.094 3.093 1 .813 3 3.813 1.906 2.687 1.782 3.313 3.093 2.874 3 2.626 2.907 2.687 3 3.094 2.406 3.218.687 3 1.5 3 1.125 4 1.5 4.094 2.094 3.907 1.688 4.187.312.5 1.188 2.094 1.406 2.406 3.5 4.813 2.187 2.687.313.406 2.593 3.282 2.72 3 4 4 3.593 6.124 2.594 4.5 1.312 4.594.781 5.094.407 3.594 1 5.5 1.093 4.5 1.72 4.406 1.374 8 1.906 4.188.5 3.218 1.22 5.407v2.593l2.78 3.594 1.907 2.594 1.5 1.718.406.5 2.094 2.594.406.407 2.094 2.28 1.687 3.5.906 3.595.22 1.406-.126 1-.094.593-.187 2.626-1.313 4-1.094 3.5-.593 4.5-.313 1.593-.406 1.907-.094 3.5-.781 5.593-1.813 9.188-1.5 7.093-2 5.626-1 3-1 1.093-.906 1-2.594 3.594-1.312 2.813-.594 3-.687 5.093-.72 4.5-.374 3-.5 3.188-.313 9.906-1.406 10.594-1.687 5-1.094 4.906v13.688l1.094 3 2.093 1.812 1.407 1.594 1.687 1.312 1.406 2.282.188.624.625 1.876.094.624-.406 2-.5 2.594-.813 2.094-1.875 3.813-.719 4-.094 3 .407 3.093-.219 3.5.312 6.094 2.094 5.688 3.313 6.312 4.281 6.406 4.406 4.594 4.719 4.594 3.687 4.406.688.813 2.406 3.687 1.406 3.094.813 4.093-.625 7-1 7.626-2.281 7-1.719 4.374-2.094 4.72-1 4.093v9.094l1 3.593 1.813 4.126 1.687 3.874 2.313 4.126 1.593 3.374.188.5 2.625 2.22 2 1.687 2.375 3.218 2.312 2.594 1 3.094v3l-.812 5-1.281 7.094-.907 11.218-.406 9.876-.187.624-1.219 6.376-1.688 4.5-1.093 3-.719 1.124-1.5 2.376-2.281 4.406-.5 5.093.187 3.5.906 4.626 1.5 4.5 3 3.593 3.094 3.5 6.219 8.594 4.594 7.594.406 1.5 1.687 5.406 2.688 10.313 1.406 10.593-.5 7.5-1 5.594-1.594 4.594-2 6.5-2 4.906-2.687 2.906-1.906 3.406-1 3 1 3.5 1 4.094 2.187 4.281 4 3.813 4 1.094 4.719.594 3.875.718 4.219 2.094 5.187 4 6.594 3.688 3.625-.876 7 2.282 7.781 4 9.719 6.312 9.375 8 10 8.907 6.812 5.875 5.313 7.812 4.281 8.813.5 1.187 6.406 15.313.813 5.875.281 4.718 2.406 6.188 2.907 3.594 4.5 1.718.781 1.406 1.125 1.782.031.094h2559.562v-4.188l-.094-6.093 1.5-9.094 2.5-10.625 3-8.094 3-8.594 4.5-11.687 2-7.625-.125-5.594 2-6v-8.594l2.5-12.187.407-12.625 2.406-14.188 2.5-13.687.5-1.5 2-5.125 2-3 2.594.5 1.5-1.094-.5-2-1.594-2.5 1-4.5 1.5-5.094 7.094-11.187 7-12.22 9.094-13.187 11.625-19.812 7.594-16.688 8-21.906 3-10.594-.219-21.218-1.094-14.188.313-24.312v-1.5l-.094-11.094 1.5-15.188 4-7.593 4.5-8.125 3-6.094 3.093-6.094 7.5-14.187 4.594-8.72 3-2.5 8.5-16.78 9.594-17.313 6-13.687 5.094-9.625 2-5.594 3.5-10.594.906-8.094.906-15.218-5.812-33.875.406-7.625 3.5-9.094-1.094-10.594 4.094-4.094 2.5-1.5-.5-2.593-5.594-3-2.094-3.5-3.093-9.125-5.72-8-.593-7.094-5.094-7.094-3.718-9-2.688-28.906.406-14.594-1.093-8.094-1.625-6.593-3.094-8.625-1.594-8.094.5-6.5 1.406-7.594 2.5-7.687 2-12.125 2.5-12.188 1.907-15.687.5-4 1.875-6.625 2.125-5.594 8-12.688 3.5-11.718.875-11.688 1-10.594 1.906-10.093 3.875-15.72z" style="fill:#9faec0" transform="translate(0 25)"/><path stroke="#9FAEC0" stroke-width="10" d="m1379.063 4237.688.843 3.906-1 5.5-1.375 2.5-2.906 3.594-4.594 4.218-10.125 11.281-8.5 9.72L1340.72 4290l-8.813 10-.281.5-3.719 5.188-3 6.124-3.781 6.876-2.812 6.718-2.407 8.281-4.5 10.407-1.687 4.594-1.813 4.906-3.281 6.219-4.219 3.687-.5.188-5.187 2-3.406 1.5-.782.406-2.812 1.906-2 2.5-1.688 3.906-.718 4.5-.282 7.594.688 5.688.312 10.624.282 6.594-.094 12-1.5 11.594v1.5l.094 7.313-.5 8.5.406 8 .687 8.593.625 10.094 3 13.813 3.094 11.093 4.094 13.5 2.687 9.188.719 2.593 1.094 3.5.094 4.5-.5 6.125-1.5 6 1.593 4.094.5 1 3.125 5 1.188 1.781 3.187 7.72.625 10.187-.312 8 .094 5.593.094 2.5 1.125 11.72-.813 11.093v7.094l2.594 6 3.094 4.812 5 4.781 7.5 4.313 6.906 4.812 6.906 6.875 3.813 8.22.281 1.093 1.906 7 2 9.094 1.594 6 1.219 4.906 1.375 4.094 2.5 2.093 1 .72 1.906 1.5 2.219 2.905 1.687 2.782-.094 3.718-.5 5.094-.094 8.781.094 12.407 1 11.406 2.188 9.687 1.594 9.72 1.312 6.093.594 4 1.594 4.187 1.406 3.125 1.719 2.782.687 2.812-.187 3.188-1.125 3.312-.375 1.781.094.626.406 1.874 1.594 2.5 2.093 1.5.407.22 1.593.905 1 2v1.5l.5 2 2.094 3.5 2 1.594 2.094.5 1.5.406 2.5.095 2.125-.095 3.094.5 2.5 1.594 1.406 1.906.375 3-.094 2.5 1.406 3.094 1.5 1.594.5.5 2.594 2 3.594 2.5 8.718 5 7.688 4.594 6.312 5.219 5 4.28 3.282 4.72 5.406 4.374 4.594 3 6.125 3.626 4.78 2.874 4.907 1.626 5.688 1h2.5l4.125-.5 4.593-.126 4.094 1.5 4.594 2.626 5 2.374 3.5 1.72 6.594 2.687 2 1 4.906 2.218 10.812 2.094 8.094 2.281 21.5 7.125 16.406 3.5 11.188 2.5 11.812 3.375 13.782 2.625 10.312 2.875 5.594 1.813 8.219 1.312 7.5 1.782 5.593 1.812 6.782 2.906 6.812 2.594 6 5 3.313 5 1.375 2 3.906 7.281 2.219 5.313 2.093 5.594 1.094 6 .813 5.094 1.375 5.124 2.625 5.188 3.875 9.906 4.812 10.094 1.906 6 2.094 7.313 2.5 5.78 3.813 5 5.875 5.813 4.218 3.282 3.594 5.125 2 5 1.594 6 2.312 8.375.282 5.625-1.688 5-4.406 5.875 4.594-.094h.5l12.312.5 158.5 2.312 2.594.188h161l128.906-.5 25.813.094 35 .5 19.187 1.125 14.094.78 26-.093h42.094l30-.094 28.718-.094 100.188.094 91.906 1.593 66.594 1.188 28.406.5 41.688.719h1l30.718-.22 37.782.313 39.5.094 29.625.094 66.187.313 88.188.687 55 .313 34 .187 13.906.125h148.75l28.562-1.218 26.407-1 37-1.407 102-1.187 78-.906 88.875-1.907 85.906-1.874h2.218l14.688-.313 49.594-.406 42.406-.906 57.312-1 90.094-1.5 67.906-1.094-1.625-3.406-1.5-6-2.093-8.094-2.688-12.094-1.594-13.094-.625-11.093.407-14.72v-9l-.594-7.593-.094-9.094v-6.093l-2.594-5.5-1-4-.625-5.125-.5-5.5-1.094-6.594.5-5-.094-7.094 1-5.594 2-8.593 3-13.625 3-12.188 1.407-7.5 2-7.594.5-2.093 4-11.125 2-7.594 1-5 4.593-8.688.407-6 1.5-6.093 4.093-9.625-.094-3.094-1.5-5-.094-4-2.625-16.688 1.5-5-.094-7.093 4.5-11.22 7.094-10.093 4.625-3.594v-2.5l-2.625-4.5-5.687-6.093-9.188-4.907-7.219-5.5-5.093-5.093-8.313-10-7.687-9.5-7.188-10.125-3.719-9.5-.5-2.594-2.593-5-4.094-5.5-2.594-6.094-1.125-4-4.094-8.094-1.593-4.5-1-4.5-1.594-5.093-2.094-11.625.875-7.594 1.5-3.5 4.625-4.594v-4l-.5-2-3.719-6.094-1-6 1.407-14.718-.094-17.688-1.594-8.5-1.625-4.594-2.5-4-2.094-3-5.187-7.093-5.094-5.5-14.406-14-1.594-6.125-1-1-3.625-1-1.594-3-4.094-6.5-5.093-3-2.094-1.5-.5-1.5 1.5-6.094 2.5-8.594 1.5-4.094 2.5-6.5 6.594-10.218 7.593-10.188 10.094-11.094 1-4.593-4.094-3-2.687-16.22-2.125-6-4.094-5.5-4.594-4-2.093-4.093-4.594-7-5.719-6.5-2-4.594-.094-6.5.5-5.093 2-6.125 2-4 2.5-5.094 3-7.594 2.5-6.094 2-7.593.5-5-1.594-4.625-1.5-5-1.593-6.594-3.125-4-2.594-4-1-1-1.594-2.594-1-4v-5.5l-.094-5.094-1-5.593-2.594-2.5-2.625-5.5-1.593-5.5-1.5-5.625-1.094-5-1.594-7.094v-5.406H1379.061z" style="fill:#9faec0"/></svg>